<svg xmlns="http://www.w3.org/2000/svg" width="1100" height="560" viewBox="0 0 1100 560" font-family="Arial,Helvetica,sans-serif">
<rect width="1100" height="560" fill="white"/>
<rect x="64.0" y="36" width="7.3" height="496.0" fill="#e8f0fe"/>
<rect x="643.7" y="36" width="293.5" height="496.0" fill="#fff4e0"/>
<rect x="937.2" y="36" width="146.8" height="496.0" fill="#e8f0fe"/>
<line x1="64" y1="404.0" x2="1084" y2="404.0" stroke="#e6e6e6"/>
<text x="58" y="407.0" font-size="10" fill="#666" text-anchor="end">$3.08</text>
<line x1="64" y1="312.0" x2="1084" y2="312.0" stroke="#e6e6e6"/>
<text x="58" y="315.0" font-size="10" fill="#666" text-anchor="end">$3.37</text>
<line x1="64" y1="220.0" x2="1084" y2="220.0" stroke="#e6e6e6"/>
<text x="58" y="223.0" font-size="10" fill="#666" text-anchor="end">$3.67</text>
<line x1="64" y1="128.0" x2="1084" y2="128.0" stroke="#e6e6e6"/>
<text x="58" y="131.0" font-size="10" fill="#666" text-anchor="end">$3.97</text>
<line x1="64" y1="36.0" x2="1084" y2="36.0" stroke="#e6e6e6"/>
<text x="58" y="39.0" font-size="10" fill="#666" text-anchor="end">$4.26</text>
<line x1="67.7" y1="328.5" x2="67.7" y2="328.5" stroke="#2e7d32" stroke-width="1"/>
<rect x="65.4" y="328.5" width="4.5" height="1.0" fill="#2e7d32"/>
<rect x="65.4" y="532.0" width="4.5" height="0.0" fill="#2e7d32" opacity="0.55"/>
<line x1="75.0" y1="257.2" x2="75.0" y2="305.2" stroke="#c62828" stroke-width="1"/>
<rect x="72.7" y="272.7" width="4.5" height="20.9" fill="#c62828"/>
<rect x="72.7" y="515.0" width="4.5" height="17.0" fill="#c62828" opacity="0.55"/>
<line x1="82.3" y1="285.1" x2="82.3" y2="322.3" stroke="#c62828" stroke-width="1"/>
<rect x="80.1" y="288.5" width="4.5" height="33.8" fill="#c62828"/>
<rect x="80.1" y="527.7" width="4.5" height="4.3" fill="#c62828" opacity="0.55"/>
<line x1="89.7" y1="313.0" x2="89.7" y2="322.3" stroke="#2e7d32" stroke-width="1"/>
<rect x="87.4" y="318.8" width="4.5" height="3.5" fill="#2e7d32"/>
<rect x="87.4" y="531.1" width="4.5" height="0.9" fill="#2e7d32" opacity="0.55"/>
<line x1="97.0" y1="297.5" x2="97.0" y2="313.0" stroke="#2e7d32" stroke-width="1"/>
<rect x="94.7" y="306.8" width="4.5" height="6.2" fill="#2e7d32"/>
<rect x="94.7" y="531.0" width="4.5" height="1.0" fill="#2e7d32" opacity="0.55"/>
<line x1="104.4" y1="306.8" x2="104.4" y2="316.1" stroke="#2e7d32" stroke-width="1"/>
<rect x="102.1" y="306.8" width="4.5" height="6.2" fill="#2e7d32"/>
<rect x="102.1" y="531.4" width="4.5" height="0.6" fill="#2e7d32" opacity="0.55"/>
<line x1="111.7" y1="300.6" x2="111.7" y2="316.1" stroke="#2e7d32" stroke-width="1"/>
<rect x="109.4" y="300.6" width="4.5" height="15.5" fill="#2e7d32"/>
<rect x="109.4" y="531.1" width="4.5" height="0.9" fill="#2e7d32" opacity="0.55"/>
<line x1="119.0" y1="297.5" x2="119.0" y2="303.7" stroke="#2e7d32" stroke-width="1"/>
<rect x="116.8" y="300.6" width="4.5" height="1.0" fill="#2e7d32"/>
<rect x="116.8" y="531.0" width="4.5" height="1.0" fill="#2e7d32" opacity="0.55"/>
<line x1="126.4" y1="299.0" x2="126.4" y2="305.2" stroke="#c62828" stroke-width="1"/>
<rect x="124.1" y="302.1" width="4.5" height="3.1" fill="#c62828"/>
<rect x="124.1" y="531.0" width="4.5" height="1.0" fill="#c62828" opacity="0.55"/>
<line x1="133.7" y1="306.8" x2="133.7" y2="313.0" stroke="#c62828" stroke-width="1"/>
<rect x="131.4" y="306.8" width="4.5" height="3.1" fill="#c62828"/>
<rect x="131.4" y="530.6" width="4.5" height="1.4" fill="#c62828" opacity="0.55"/>
<line x1="141.1" y1="311.4" x2="141.1" y2="317.6" stroke="#c62828" stroke-width="1"/>
<rect x="138.8" y="313.0" width="4.5" height="3.1" fill="#c62828"/>
<rect x="138.8" y="528.4" width="4.5" height="3.6" fill="#c62828" opacity="0.55"/>
<line x1="148.4" y1="316.1" x2="148.4" y2="322.3" stroke="#c62828" stroke-width="1"/>
<rect x="146.1" y="317.6" width="4.5" height="3.1" fill="#c62828"/>
<rect x="146.1" y="530.5" width="4.5" height="1.5" fill="#c62828" opacity="0.55"/>
<line x1="155.7" y1="317.6" x2="155.7" y2="320.7" stroke="#c62828" stroke-width="1"/>
<rect x="153.5" y="319.2" width="4.5" height="1.5" fill="#c62828"/>
<rect x="153.5" y="529.9" width="4.5" height="2.1" fill="#c62828" opacity="0.55"/>
<line x1="163.1" y1="305.2" x2="163.1" y2="319.2" stroke="#2e7d32" stroke-width="1"/>
<rect x="160.8" y="311.4" width="4.5" height="7.7" fill="#2e7d32"/>
<rect x="160.8" y="525.7" width="4.5" height="6.3" fill="#2e7d32" opacity="0.55"/>
<line x1="170.4" y1="313.0" x2="170.4" y2="317.6" stroke="#c62828" stroke-width="1"/>
<rect x="168.1" y="313.0" width="4.5" height="4.6" fill="#c62828"/>
<rect x="168.1" y="529.5" width="4.5" height="2.5" fill="#c62828" opacity="0.55"/>
<line x1="177.7" y1="317.6" x2="177.7" y2="333.1" stroke="#c62828" stroke-width="1"/>
<rect x="175.5" y="320.1" width="4.5" height="5.3" fill="#c62828"/>
<rect x="175.5" y="520.5" width="4.5" height="11.5" fill="#c62828" opacity="0.55"/>
<line x1="185.1" y1="317.6" x2="185.1" y2="334.7" stroke="#c62828" stroke-width="1"/>
<rect x="182.8" y="328.5" width="4.5" height="1.5" fill="#c62828"/>
<rect x="182.8" y="519.7" width="4.5" height="12.3" fill="#c62828" opacity="0.55"/>
<line x1="192.4" y1="331.6" x2="192.4" y2="333.1" stroke="#c62828" stroke-width="1"/>
<rect x="190.1" y="331.6" width="4.5" height="1.5" fill="#c62828"/>
<rect x="190.1" y="531.4" width="4.5" height="0.6" fill="#c62828" opacity="0.55"/>
<line x1="199.8" y1="330.0" x2="199.8" y2="334.7" stroke="#c62828" stroke-width="1"/>
<rect x="197.5" y="333.1" width="4.5" height="1.0" fill="#c62828"/>
<rect x="197.5" y="528.7" width="4.5" height="3.3" fill="#c62828" opacity="0.55"/>
<line x1="207.1" y1="328.5" x2="207.1" y2="333.1" stroke="#2e7d32" stroke-width="1"/>
<rect x="204.8" y="331.6" width="4.5" height="1.5" fill="#2e7d32"/>
<rect x="204.8" y="530.4" width="4.5" height="1.6" fill="#2e7d32" opacity="0.55"/>
<line x1="214.4" y1="333.1" x2="214.4" y2="337.8" stroke="#c62828" stroke-width="1"/>
<rect x="212.2" y="333.1" width="4.5" height="1.5" fill="#c62828"/>
<rect x="212.2" y="531.0" width="4.5" height="1.0" fill="#c62828" opacity="0.55"/>
<line x1="221.8" y1="334.7" x2="221.8" y2="339.3" stroke="#c62828" stroke-width="1"/>
<rect x="219.5" y="336.0" width="4.5" height="3.3" fill="#c62828"/>
<rect x="219.5" y="529.5" width="4.5" height="2.5" fill="#c62828" opacity="0.55"/>
<line x1="229.1" y1="334.7" x2="229.1" y2="338.5" stroke="#2e7d32" stroke-width="1"/>
<rect x="226.8" y="336.2" width="4.5" height="2.3" fill="#2e7d32"/>
<rect x="226.8" y="529.9" width="4.5" height="2.1" fill="#2e7d32" opacity="0.55"/>
<line x1="236.4" y1="333.1" x2="236.4" y2="336.9" stroke="#2e7d32" stroke-width="1"/>
<rect x="234.2" y="334.7" width="4.5" height="2.2" fill="#2e7d32"/>
<rect x="234.2" y="530.4" width="4.5" height="1.6" fill="#2e7d32" opacity="0.55"/>
<line x1="243.8" y1="326.9" x2="243.8" y2="334.7" stroke="#2e7d32" stroke-width="1"/>
<rect x="241.5" y="329.5" width="4.5" height="5.2" fill="#2e7d32"/>
<rect x="241.5" y="529.1" width="4.5" height="2.9" fill="#2e7d32" opacity="0.55"/>
<line x1="251.1" y1="330.0" x2="251.1" y2="337.7" stroke="#c62828" stroke-width="1"/>
<rect x="248.8" y="331.6" width="4.5" height="4.6" fill="#c62828"/>
<rect x="248.8" y="530.2" width="4.5" height="1.8" fill="#c62828" opacity="0.55"/>
<line x1="258.5" y1="330.0" x2="258.5" y2="337.8" stroke="#2e7d32" stroke-width="1"/>
<rect x="256.2" y="331.6" width="4.5" height="6.2" fill="#2e7d32"/>
<rect x="256.2" y="528.7" width="4.5" height="3.3" fill="#2e7d32" opacity="0.55"/>
<line x1="265.8" y1="332.3" x2="265.8" y2="334.7" stroke="#c62828" stroke-width="1"/>
<rect x="263.5" y="332.3" width="4.5" height="1.0" fill="#c62828"/>
<rect x="263.5" y="531.6" width="4.5" height="0.4" fill="#c62828" opacity="0.55"/>
<line x1="273.1" y1="334.7" x2="273.1" y2="337.8" stroke="#c62828" stroke-width="1"/>
<rect x="270.9" y="334.7" width="4.5" height="3.1" fill="#c62828"/>
<rect x="270.9" y="531.1" width="4.5" height="0.9" fill="#c62828" opacity="0.55"/>
<line x1="280.5" y1="336.2" x2="280.5" y2="336.2" stroke="#2e7d32" stroke-width="1"/>
<rect x="278.2" y="336.2" width="4.5" height="1.0" fill="#2e7d32"/>
<rect x="278.2" y="531.1" width="4.5" height="0.9" fill="#2e7d32" opacity="0.55"/>
<line x1="287.8" y1="334.7" x2="287.8" y2="340.9" stroke="#2e7d32" stroke-width="1"/>
<rect x="285.5" y="334.7" width="4.5" height="3.1" fill="#2e7d32"/>
<rect x="285.5" y="530.2" width="4.5" height="1.8" fill="#2e7d32" opacity="0.55"/>
<line x1="295.2" y1="334.7" x2="295.2" y2="337.8" stroke="#c62828" stroke-width="1"/>
<rect x="292.9" y="334.7" width="4.5" height="3.1" fill="#c62828"/>
<rect x="292.9" y="530.6" width="4.5" height="1.4" fill="#c62828" opacity="0.55"/>
<line x1="302.5" y1="336.2" x2="302.5" y2="342.4" stroke="#2e7d32" stroke-width="1"/>
<rect x="300.2" y="336.2" width="4.5" height="3.1" fill="#2e7d32"/>
<rect x="300.2" y="526.6" width="4.5" height="5.4" fill="#2e7d32" opacity="0.55"/>
<line x1="309.8" y1="336.2" x2="309.8" y2="339.3" stroke="#c62828" stroke-width="1"/>
<rect x="307.6" y="337.8" width="4.5" height="1.5" fill="#c62828"/>
<rect x="307.6" y="530.4" width="4.5" height="1.6" fill="#c62828" opacity="0.55"/>
<line x1="317.2" y1="339.3" x2="317.2" y2="342.4" stroke="#c62828" stroke-width="1"/>
<rect x="314.9" y="339.3" width="4.5" height="1.0" fill="#c62828"/>
<rect x="314.9" y="529.6" width="4.5" height="2.4" fill="#c62828" opacity="0.55"/>
<line x1="324.5" y1="337.8" x2="324.5" y2="339.3" stroke="#c62828" stroke-width="1"/>
<rect x="322.2" y="338.5" width="4.5" height="1.0" fill="#c62828"/>
<rect x="322.2" y="529.8" width="4.5" height="2.2" fill="#c62828" opacity="0.55"/>
<line x1="331.8" y1="340.9" x2="331.8" y2="340.9" stroke="#2e7d32" stroke-width="1"/>
<rect x="329.6" y="340.9" width="4.5" height="1.0" fill="#2e7d32"/>
<rect x="329.6" y="531.9" width="4.5" height="0.1" fill="#2e7d32" opacity="0.55"/>
<line x1="339.2" y1="336.2" x2="339.2" y2="340.9" stroke="#2e7d32" stroke-width="1"/>
<rect x="336.9" y="339.3" width="4.5" height="1.5" fill="#2e7d32"/>
<rect x="336.9" y="529.7" width="4.5" height="2.3" fill="#2e7d32" opacity="0.55"/>
<line x1="346.5" y1="339.3" x2="346.5" y2="339.3" stroke="#2e7d32" stroke-width="1"/>
<rect x="344.2" y="339.3" width="4.5" height="1.0" fill="#2e7d32"/>
<rect x="344.2" y="531.8" width="4.5" height="0.2" fill="#2e7d32" opacity="0.55"/>
<line x1="353.9" y1="339.3" x2="353.9" y2="343.3" stroke="#c62828" stroke-width="1"/>
<rect x="351.6" y="340.8" width="4.5" height="1.6" fill="#c62828"/>
<rect x="351.6" y="531.0" width="4.5" height="1.0" fill="#c62828" opacity="0.55"/>
<line x1="361.2" y1="340.9" x2="361.2" y2="342.4" stroke="#c62828" stroke-width="1"/>
<rect x="358.9" y="340.9" width="4.5" height="1.5" fill="#c62828"/>
<rect x="358.9" y="529.9" width="4.5" height="2.1" fill="#c62828" opacity="0.55"/>
<line x1="368.5" y1="339.3" x2="368.5" y2="344.0" stroke="#2e7d32" stroke-width="1"/>
<rect x="366.3" y="340.9" width="4.5" height="3.1" fill="#2e7d32"/>
<rect x="366.3" y="530.1" width="4.5" height="1.9" fill="#2e7d32" opacity="0.55"/>
<line x1="375.9" y1="337.8" x2="375.9" y2="339.3" stroke="#2e7d32" stroke-width="1"/>
<rect x="373.6" y="337.8" width="4.5" height="1.5" fill="#2e7d32"/>
<rect x="373.6" y="531.7" width="4.5" height="0.3" fill="#2e7d32" opacity="0.55"/>
<line x1="383.2" y1="338.5" x2="383.2" y2="340.9" stroke="#c62828" stroke-width="1"/>
<rect x="380.9" y="338.5" width="4.5" height="2.4" fill="#c62828"/>
<rect x="380.9" y="530.5" width="4.5" height="1.5" fill="#c62828" opacity="0.55"/>
<line x1="390.5" y1="344.0" x2="390.5" y2="345.5" stroke="#2e7d32" stroke-width="1"/>
<rect x="388.3" y="344.0" width="4.5" height="1.0" fill="#2e7d32"/>
<rect x="388.3" y="530.9" width="4.5" height="1.1" fill="#2e7d32" opacity="0.55"/>
<line x1="397.9" y1="345.5" x2="397.9" y2="347.1" stroke="#2e7d32" stroke-width="1"/>
<rect x="395.6" y="345.5" width="4.5" height="1.5" fill="#2e7d32"/>
<rect x="395.6" y="531.4" width="4.5" height="0.6" fill="#2e7d32" opacity="0.55"/>
<line x1="405.2" y1="345.5" x2="405.2" y2="351.7" stroke="#c62828" stroke-width="1"/>
<rect x="402.9" y="347.1" width="4.5" height="4.6" fill="#c62828"/>
<rect x="402.9" y="527.9" width="4.5" height="4.1" fill="#c62828" opacity="0.55"/>
<line x1="412.6" y1="353.3" x2="412.6" y2="356.4" stroke="#c62828" stroke-width="1"/>
<rect x="410.3" y="353.3" width="4.5" height="3.1" fill="#c62828"/>
<rect x="410.3" y="525.5" width="4.5" height="6.5" fill="#c62828" opacity="0.55"/>
<line x1="419.9" y1="354.0" x2="419.9" y2="356.4" stroke="#c62828" stroke-width="1"/>
<rect x="417.6" y="354.0" width="4.5" height="2.4" fill="#c62828"/>
<rect x="417.6" y="529.3" width="4.5" height="2.7" fill="#c62828" opacity="0.55"/>
<line x1="427.2" y1="354.8" x2="427.2" y2="359.5" stroke="#2e7d32" stroke-width="1"/>
<rect x="425.0" y="357.9" width="4.5" height="1.0" fill="#2e7d32"/>
<rect x="425.0" y="527.6" width="4.5" height="4.4" fill="#2e7d32" opacity="0.55"/>
<line x1="434.6" y1="354.8" x2="434.6" y2="357.9" stroke="#2e7d32" stroke-width="1"/>
<rect x="432.3" y="354.8" width="4.5" height="3.1" fill="#2e7d32"/>
<rect x="432.3" y="530.9" width="4.5" height="1.1" fill="#2e7d32" opacity="0.55"/>
<line x1="441.9" y1="359.5" x2="441.9" y2="359.5" stroke="#2e7d32" stroke-width="1"/>
<rect x="439.6" y="359.5" width="4.5" height="1.0" fill="#2e7d32"/>
<rect x="439.6" y="531.9" width="4.5" height="0.1" fill="#2e7d32" opacity="0.55"/>
<line x1="449.3" y1="359.5" x2="449.3" y2="362.6" stroke="#c62828" stroke-width="1"/>
<rect x="447.0" y="359.5" width="4.5" height="3.1" fill="#c62828"/>
<rect x="447.0" y="530.8" width="4.5" height="1.2" fill="#c62828" opacity="0.55"/>
<line x1="456.6" y1="361.0" x2="456.6" y2="365.3" stroke="#c62828" stroke-width="1"/>
<rect x="454.3" y="361.0" width="4.5" height="2.3" fill="#c62828"/>
<rect x="454.3" y="529.7" width="4.5" height="2.3" fill="#c62828" opacity="0.55"/>
<line x1="463.9" y1="368.8" x2="463.9" y2="374.3" stroke="#c62828" stroke-width="1"/>
<rect x="461.7" y="369.8" width="4.5" height="1.0" fill="#c62828"/>
<rect x="461.7" y="526.9" width="4.5" height="5.1" fill="#c62828" opacity="0.55"/>
<line x1="471.3" y1="369.9" x2="471.3" y2="373.4" stroke="#2e7d32" stroke-width="1"/>
<rect x="469.0" y="369.9" width="4.5" height="1.5" fill="#2e7d32"/>
<rect x="469.0" y="529.2" width="4.5" height="2.8" fill="#2e7d32" opacity="0.55"/>
<line x1="478.6" y1="370.3" x2="478.6" y2="373.4" stroke="#c62828" stroke-width="1"/>
<rect x="476.3" y="371.3" width="4.5" height="2.2" fill="#c62828"/>
<rect x="476.3" y="529.7" width="4.5" height="2.3" fill="#c62828" opacity="0.55"/>
<line x1="485.9" y1="370.3" x2="485.9" y2="376.5" stroke="#2e7d32" stroke-width="1"/>
<rect x="483.7" y="370.3" width="4.5" height="4.6" fill="#2e7d32"/>
<rect x="483.7" y="525.9" width="4.5" height="6.1" fill="#2e7d32" opacity="0.55"/>
<line x1="493.3" y1="370.3" x2="493.3" y2="374.0" stroke="#2e7d32" stroke-width="1"/>
<rect x="491.0" y="371.9" width="4.5" height="2.1" fill="#2e7d32"/>
<rect x="491.0" y="530.0" width="4.5" height="2.0" fill="#2e7d32" opacity="0.55"/>
<line x1="500.6" y1="369.5" x2="500.6" y2="374.4" stroke="#c62828" stroke-width="1"/>
<rect x="498.3" y="369.5" width="4.5" height="3.9" fill="#c62828"/>
<rect x="498.3" y="530.5" width="4.5" height="1.5" fill="#c62828" opacity="0.55"/>
<line x1="508.0" y1="367.2" x2="508.0" y2="373.4" stroke="#2e7d32" stroke-width="1"/>
<rect x="505.7" y="367.2" width="4.5" height="6.2" fill="#2e7d32"/>
<rect x="505.7" y="529.8" width="4.5" height="2.2" fill="#2e7d32" opacity="0.55"/>
<line x1="515.3" y1="367.2" x2="515.3" y2="368.8" stroke="#c62828" stroke-width="1"/>
<rect x="513.0" y="367.2" width="4.5" height="1.5" fill="#c62828"/>
<rect x="513.0" y="530.5" width="4.5" height="1.5" fill="#c62828" opacity="0.55"/>
<line x1="522.6" y1="369.7" x2="522.6" y2="371.9" stroke="#c62828" stroke-width="1"/>
<rect x="520.4" y="369.7" width="4.5" height="2.1" fill="#c62828"/>
<rect x="520.4" y="530.9" width="4.5" height="1.1" fill="#c62828" opacity="0.55"/>
<line x1="530.0" y1="367.2" x2="530.0" y2="371.9" stroke="#2e7d32" stroke-width="1"/>
<rect x="527.7" y="367.2" width="4.5" height="4.6" fill="#2e7d32"/>
<rect x="527.7" y="528.8" width="4.5" height="3.2" fill="#2e7d32" opacity="0.55"/>
<line x1="537.3" y1="365.7" x2="537.3" y2="370.3" stroke="#c62828" stroke-width="1"/>
<rect x="535.0" y="368.8" width="4.5" height="1.0" fill="#c62828"/>
<rect x="535.0" y="527.9" width="4.5" height="4.1" fill="#c62828" opacity="0.55"/>
<line x1="544.6" y1="370.3" x2="544.6" y2="374.3" stroke="#c62828" stroke-width="1"/>
<rect x="542.4" y="370.3" width="4.5" height="3.1" fill="#c62828"/>
<rect x="542.4" y="530.2" width="4.5" height="1.8" fill="#c62828" opacity="0.55"/>
<line x1="552.0" y1="371.9" x2="552.0" y2="375.0" stroke="#2e7d32" stroke-width="1"/>
<rect x="549.7" y="373.4" width="4.5" height="1.0" fill="#2e7d32"/>
<rect x="549.7" y="527.7" width="4.5" height="4.3" fill="#2e7d32" opacity="0.55"/>
<line x1="559.3" y1="370.3" x2="559.3" y2="375.0" stroke="#2e7d32" stroke-width="1"/>
<rect x="557.0" y="370.3" width="4.5" height="3.1" fill="#2e7d32"/>
<rect x="557.0" y="527.9" width="4.5" height="4.1" fill="#2e7d32" opacity="0.55"/>
<line x1="566.7" y1="370.3" x2="566.7" y2="371.9" stroke="#c62828" stroke-width="1"/>
<rect x="564.4" y="370.3" width="4.5" height="1.5" fill="#c62828"/>
<rect x="564.4" y="530.9" width="4.5" height="1.1" fill="#c62828" opacity="0.55"/>
<line x1="574.0" y1="365.7" x2="574.0" y2="371.2" stroke="#2e7d32" stroke-width="1"/>
<rect x="571.7" y="367.2" width="4.5" height="3.1" fill="#2e7d32"/>
<rect x="571.7" y="526.2" width="4.5" height="5.8" fill="#2e7d32" opacity="0.55"/>
<line x1="581.3" y1="362.6" x2="581.3" y2="371.2" stroke="#c62828" stroke-width="1"/>
<rect x="579.1" y="365.7" width="4.5" height="1.5" fill="#c62828"/>
<rect x="579.1" y="527.6" width="4.5" height="4.4" fill="#c62828" opacity="0.55"/>
<line x1="588.7" y1="368.2" x2="588.7" y2="370.3" stroke="#c62828" stroke-width="1"/>
<rect x="586.4" y="368.8" width="4.5" height="1.5" fill="#c62828"/>
<rect x="586.4" y="530.9" width="4.5" height="1.1" fill="#c62828" opacity="0.55"/>
<line x1="596.0" y1="368.8" x2="596.0" y2="373.4" stroke="#2e7d32" stroke-width="1"/>
<rect x="593.7" y="370.3" width="4.5" height="1.0" fill="#2e7d32"/>
<rect x="593.7" y="527.1" width="4.5" height="4.9" fill="#2e7d32" opacity="0.55"/>
<line x1="603.4" y1="371.9" x2="603.4" y2="375.0" stroke="#c62828" stroke-width="1"/>
<rect x="601.1" y="371.9" width="4.5" height="1.5" fill="#c62828"/>
<rect x="601.1" y="528.8" width="4.5" height="3.2" fill="#c62828" opacity="0.55"/>
<line x1="610.7" y1="373.4" x2="610.7" y2="379.6" stroke="#c62828" stroke-width="1"/>
<rect x="608.4" y="375.0" width="4.5" height="1.5" fill="#c62828"/>
<rect x="608.4" y="524.8" width="4.5" height="7.2" fill="#c62828" opacity="0.55"/>
<line x1="618.0" y1="368.8" x2="618.0" y2="377.5" stroke="#2e7d32" stroke-width="1"/>
<rect x="615.8" y="370.3" width="4.5" height="5.4" fill="#2e7d32"/>
<rect x="615.8" y="523.5" width="4.5" height="8.5" fill="#2e7d32" opacity="0.55"/>
<line x1="625.4" y1="371.9" x2="625.4" y2="375.0" stroke="#c62828" stroke-width="1"/>
<rect x="623.1" y="371.9" width="4.5" height="1.5" fill="#c62828"/>
<rect x="623.1" y="529.9" width="4.5" height="2.1" fill="#c62828" opacity="0.55"/>
<line x1="632.7" y1="364.1" x2="632.7" y2="375.0" stroke="#2e7d32" stroke-width="1"/>
<rect x="630.4" y="364.1" width="4.5" height="9.3" fill="#2e7d32"/>
<rect x="630.4" y="524.3" width="4.5" height="7.7" fill="#2e7d32" opacity="0.55"/>
<line x1="640.0" y1="364.1" x2="640.0" y2="384.3" stroke="#c62828" stroke-width="1"/>
<rect x="637.8" y="364.1" width="4.5" height="18.6" fill="#c62828"/>
<rect x="637.8" y="505.8" width="4.5" height="26.2" fill="#c62828" opacity="0.55"/>
<line x1="647.4" y1="381.2" x2="647.4" y2="381.2" stroke="#2e7d32" stroke-width="1"/>
<rect x="645.1" y="381.2" width="4.5" height="1.0" fill="#2e7d32"/>
<rect x="645.1" y="507.1" width="4.5" height="24.9" fill="#2e7d32" opacity="0.55"/>
<line x1="654.7" y1="71.2" x2="654.7" y2="201.4" stroke="#c62828" stroke-width="1"/>
<rect x="652.4" y="71.2" width="4.5" height="110.8" fill="#c62828"/>
<rect x="652.4" y="412.0" width="4.5" height="120.0" fill="#c62828" opacity="0.55"/>
<line x1="662.1" y1="148.7" x2="662.1" y2="210.7" stroke="#c62828" stroke-width="1"/>
<rect x="659.8" y="179.7" width="4.5" height="3.3" fill="#c62828"/>
<rect x="659.8" y="446.0" width="4.5" height="86.0" fill="#c62828" opacity="0.55"/>
<line x1="669.4" y1="167.3" x2="669.4" y2="185.9" stroke="#2e7d32" stroke-width="1"/>
<rect x="667.1" y="167.3" width="4.5" height="15.5" fill="#2e7d32"/>
<rect x="667.1" y="492.4" width="4.5" height="39.6" fill="#2e7d32" opacity="0.55"/>
<line x1="676.7" y1="133.2" x2="676.7" y2="179.7" stroke="#2e7d32" stroke-width="1"/>
<rect x="674.5" y="133.3" width="4.5" height="34.0" fill="#2e7d32"/>
<rect x="674.5" y="482.1" width="4.5" height="49.9" fill="#2e7d32" opacity="0.55"/>
<line x1="684.1" y1="130.1" x2="684.1" y2="179.7" stroke="#c62828" stroke-width="1"/>
<rect x="681.8" y="133.2" width="4.5" height="9.3" fill="#c62828"/>
<rect x="681.8" y="487.6" width="4.5" height="44.4" fill="#c62828" opacity="0.55"/>
<line x1="691.4" y1="127.0" x2="691.4" y2="164.2" stroke="#c62828" stroke-width="1"/>
<rect x="689.1" y="141.9" width="4.5" height="1.0" fill="#c62828"/>
<rect x="689.1" y="497.4" width="4.5" height="34.6" fill="#c62828" opacity="0.55"/>
<line x1="698.7" y1="136.3" x2="698.7" y2="148.7" stroke="#c62828" stroke-width="1"/>
<rect x="696.5" y="142.2" width="4.5" height="1.0" fill="#c62828"/>
<rect x="696.5" y="517.7" width="4.5" height="14.3" fill="#c62828" opacity="0.55"/>
<line x1="706.1" y1="142.8" x2="706.1" y2="158.0" stroke="#c62828" stroke-width="1"/>
<rect x="703.8" y="142.8" width="4.5" height="12.1" fill="#c62828"/>
<rect x="703.8" y="523.2" width="4.5" height="8.8" fill="#c62828" opacity="0.55"/>
<line x1="713.4" y1="145.6" x2="713.4" y2="157.9" stroke="#c62828" stroke-width="1"/>
<rect x="711.1" y="145.6" width="4.5" height="11.5" fill="#c62828"/>
<rect x="711.1" y="526.0" width="4.5" height="6.0" fill="#c62828" opacity="0.55"/>
<line x1="720.8" y1="142.5" x2="720.8" y2="158.0" stroke="#2e7d32" stroke-width="1"/>
<rect x="718.5" y="148.2" width="4.5" height="9.8" fill="#2e7d32"/>
<rect x="718.5" y="526.4" width="4.5" height="5.6" fill="#2e7d32" opacity="0.55"/>
<line x1="728.1" y1="142.5" x2="728.1" y2="151.8" stroke="#2e7d32" stroke-width="1"/>
<rect x="725.8" y="145.6" width="4.5" height="3.1" fill="#2e7d32"/>
<rect x="725.8" y="530.8" width="4.5" height="1.2" fill="#2e7d32" opacity="0.55"/>
<line x1="735.4" y1="142.5" x2="735.4" y2="154.9" stroke="#c62828" stroke-width="1"/>
<rect x="733.2" y="142.5" width="4.5" height="9.3" fill="#c62828"/>
<rect x="733.2" y="527.2" width="4.5" height="4.8" fill="#c62828" opacity="0.55"/>
<line x1="742.8" y1="148.7" x2="742.8" y2="164.2" stroke="#c62828" stroke-width="1"/>
<rect x="740.5" y="148.7" width="4.5" height="12.5" fill="#c62828"/>
<rect x="740.5" y="521.3" width="4.5" height="10.7" fill="#c62828" opacity="0.55"/>
<line x1="750.1" y1="154.9" x2="750.1" y2="161.3" stroke="#2e7d32" stroke-width="1"/>
<rect x="747.8" y="158.0" width="4.5" height="3.1" fill="#2e7d32"/>
<rect x="747.8" y="528.4" width="4.5" height="3.6" fill="#2e7d32" opacity="0.55"/>
<line x1="757.5" y1="158.0" x2="757.5" y2="167.3" stroke="#c62828" stroke-width="1"/>
<rect x="755.2" y="158.5" width="4.5" height="5.6" fill="#c62828"/>
<rect x="755.2" y="525.7" width="4.5" height="6.3" fill="#c62828" opacity="0.55"/>
<line x1="764.8" y1="161.0" x2="764.8" y2="161.1" stroke="#2e7d32" stroke-width="1"/>
<rect x="762.5" y="161.1" width="4.5" height="1.0" fill="#2e7d32"/>
<rect x="762.5" y="530.7" width="4.5" height="1.3" fill="#2e7d32" opacity="0.55"/>
<line x1="772.1" y1="158.0" x2="772.1" y2="161.1" stroke="#c62828" stroke-width="1"/>
<rect x="769.9" y="161.0" width="4.5" height="1.0" fill="#c62828"/>
<rect x="769.9" y="530.4" width="4.5" height="1.6" fill="#c62828" opacity="0.55"/>
<line x1="779.5" y1="151.8" x2="779.5" y2="161.1" stroke="#2e7d32" stroke-width="1"/>
<rect x="777.2" y="154.9" width="4.5" height="3.2" fill="#2e7d32"/>
<rect x="777.2" y="527.1" width="4.5" height="4.9" fill="#2e7d32" opacity="0.55"/>
<line x1="786.8" y1="151.8" x2="786.8" y2="161.1" stroke="#c62828" stroke-width="1"/>
<rect x="784.5" y="151.8" width="4.5" height="9.3" fill="#c62828"/>
<rect x="784.5" y="528.4" width="4.5" height="3.6" fill="#c62828" opacity="0.55"/>
<line x1="794.1" y1="151.8" x2="794.1" y2="161.0" stroke="#2e7d32" stroke-width="1"/>
<rect x="791.9" y="152.5" width="4.5" height="2.4" fill="#2e7d32"/>
<rect x="791.9" y="531.0" width="4.5" height="1.0" fill="#2e7d32" opacity="0.55"/>
<line x1="801.5" y1="154.9" x2="801.5" y2="161.1" stroke="#c62828" stroke-width="1"/>
<rect x="799.2" y="158.0" width="4.5" height="2.6" fill="#c62828"/>
<rect x="799.2" y="529.9" width="4.5" height="2.1" fill="#c62828" opacity="0.55"/>
<line x1="808.8" y1="148.7" x2="808.8" y2="161.1" stroke="#2e7d32" stroke-width="1"/>
<rect x="806.5" y="154.8" width="4.5" height="6.3" fill="#2e7d32"/>
<rect x="806.5" y="524.4" width="4.5" height="7.6" fill="#2e7d32" opacity="0.55"/>
<line x1="816.2" y1="151.8" x2="816.2" y2="154.8" stroke="#2e7d32" stroke-width="1"/>
<rect x="813.9" y="151.8" width="4.5" height="1.0" fill="#2e7d32"/>
<rect x="813.9" y="531.6" width="4.5" height="0.4" fill="#2e7d32" opacity="0.55"/>
<line x1="823.5" y1="148.7" x2="823.5" y2="161.1" stroke="#2e7d32" stroke-width="1"/>
<rect x="821.2" y="148.7" width="4.5" height="3.1" fill="#2e7d32"/>
<rect x="821.2" y="526.3" width="4.5" height="5.7" fill="#2e7d32" opacity="0.55"/>
<line x1="830.8" y1="148.7" x2="830.8" y2="155.4" stroke="#c62828" stroke-width="1"/>
<rect x="828.6" y="150.3" width="4.5" height="4.6" fill="#c62828"/>
<rect x="828.6" y="531.7" width="4.5" height="0.3" fill="#c62828" opacity="0.55"/>
<line x1="838.2" y1="153.2" x2="838.2" y2="161.1" stroke="#c62828" stroke-width="1"/>
<rect x="835.9" y="153.2" width="4.5" height="4.9" fill="#c62828"/>
<rect x="835.9" y="529.5" width="4.5" height="2.5" fill="#c62828" opacity="0.55"/>
<line x1="845.5" y1="154.9" x2="845.5" y2="158.0" stroke="#c62828" stroke-width="1"/>
<rect x="843.2" y="154.9" width="4.5" height="3.0" fill="#c62828"/>
<rect x="843.2" y="531.4" width="4.5" height="0.6" fill="#c62828" opacity="0.55"/>
<line x1="852.8" y1="148.7" x2="852.8" y2="158.0" stroke="#c62828" stroke-width="1"/>
<rect x="850.6" y="148.7" width="4.5" height="1.0" fill="#c62828"/>
<rect x="850.6" y="530.7" width="4.5" height="1.3" fill="#c62828" opacity="0.55"/>
<line x1="860.2" y1="142.5" x2="860.2" y2="158.0" stroke="#c62828" stroke-width="1"/>
<rect x="857.9" y="151.8" width="4.5" height="6.2" fill="#c62828"/>
<rect x="857.9" y="531.1" width="4.5" height="0.9" fill="#c62828" opacity="0.55"/>
<line x1="867.5" y1="146.6" x2="867.5" y2="154.9" stroke="#2e7d32" stroke-width="1"/>
<rect x="865.3" y="146.6" width="4.5" height="8.3" fill="#2e7d32"/>
<rect x="865.3" y="531.9" width="4.5" height="0.1" fill="#2e7d32" opacity="0.55"/>
<line x1="874.9" y1="145.6" x2="874.9" y2="161.1" stroke="#c62828" stroke-width="1"/>
<rect x="872.6" y="145.6" width="4.5" height="15.5" fill="#c62828"/>
<rect x="872.6" y="530.6" width="4.5" height="1.4" fill="#c62828" opacity="0.55"/>
<line x1="882.2" y1="151.8" x2="882.2" y2="158.0" stroke="#2e7d32" stroke-width="1"/>
<rect x="879.9" y="151.8" width="4.5" height="6.2" fill="#2e7d32"/>
<rect x="879.9" y="531.5" width="4.5" height="0.5" fill="#2e7d32" opacity="0.55"/>
<line x1="889.5" y1="148.7" x2="889.5" y2="151.8" stroke="#c62828" stroke-width="1"/>
<rect x="887.3" y="151.6" width="4.5" height="1.0" fill="#c62828"/>
<rect x="887.3" y="531.8" width="4.5" height="0.2" fill="#c62828" opacity="0.55"/>
<line x1="896.9" y1="148.7" x2="896.9" y2="154.9" stroke="#c62828" stroke-width="1"/>
<rect x="894.6" y="148.7" width="4.5" height="3.1" fill="#c62828"/>
<rect x="894.6" y="528.9" width="4.5" height="3.1" fill="#c62828" opacity="0.55"/>
<line x1="904.2" y1="142.5" x2="904.2" y2="151.8" stroke="#2e7d32" stroke-width="1"/>
<rect x="901.9" y="148.7" width="4.5" height="3.1" fill="#2e7d32"/>
<rect x="901.9" y="529.5" width="4.5" height="2.5" fill="#2e7d32" opacity="0.55"/>
<line x1="911.6" y1="145.6" x2="911.6" y2="158.0" stroke="#2e7d32" stroke-width="1"/>
<rect x="909.3" y="152.1" width="4.5" height="5.9" fill="#2e7d32"/>
<rect x="909.3" y="531.1" width="4.5" height="0.9" fill="#2e7d32" opacity="0.55"/>
<line x1="918.9" y1="151.8" x2="918.9" y2="154.9" stroke="#2e7d32" stroke-width="1"/>
<rect x="916.6" y="154.9" width="4.5" height="1.0" fill="#2e7d32"/>
<rect x="916.6" y="531.8" width="4.5" height="0.2" fill="#2e7d32" opacity="0.55"/>
<line x1="926.2" y1="148.6" x2="926.2" y2="157.8" stroke="#c62828" stroke-width="1"/>
<rect x="924.0" y="151.8" width="4.5" height="6.0" fill="#c62828"/>
<rect x="924.0" y="516.1" width="4.5" height="15.9" fill="#c62828" opacity="0.55"/>
<line x1="933.6" y1="148.7" x2="933.6" y2="158.0" stroke="#2e7d32" stroke-width="1"/>
<rect x="931.3" y="154.9" width="4.5" height="3.1" fill="#2e7d32"/>
<rect x="931.3" y="528.0" width="4.5" height="4.0" fill="#2e7d32" opacity="0.55"/>
<line x1="940.9" y1="55.7" x2="940.9" y2="198.3" stroke="#2e7d32" stroke-width="1"/>
<rect x="938.6" y="164.2" width="4.5" height="34.1" fill="#2e7d32"/>
<rect x="938.6" y="501.1" width="4.5" height="30.9" fill="#2e7d32" opacity="0.55"/>
<line x1="948.2" y1="61.9" x2="948.2" y2="172.5" stroke="#2e7d32" stroke-width="1"/>
<rect x="946.0" y="164.2" width="4.5" height="1.0" fill="#2e7d32"/>
<rect x="946.0" y="528.4" width="4.5" height="3.6" fill="#2e7d32" opacity="0.55"/>
<line x1="955.6" y1="157.9" x2="955.6" y2="179.7" stroke="#2e7d32" stroke-width="1"/>
<rect x="953.3" y="158.0" width="4.5" height="6.2" fill="#2e7d32"/>
<rect x="953.3" y="528.8" width="4.5" height="3.2" fill="#2e7d32" opacity="0.55"/>
<line x1="962.9" y1="142.5" x2="962.9" y2="161.1" stroke="#2e7d32" stroke-width="1"/>
<rect x="960.6" y="151.8" width="4.5" height="9.3" fill="#2e7d32"/>
<rect x="960.6" y="526.2" width="4.5" height="5.8" fill="#2e7d32" opacity="0.55"/>
<line x1="970.3" y1="150.2" x2="970.3" y2="173.3" stroke="#c62828" stroke-width="1"/>
<rect x="968.0" y="151.8" width="4.5" height="12.4" fill="#c62828"/>
<rect x="968.0" y="522.4" width="4.5" height="9.6" fill="#c62828" opacity="0.55"/>
<line x1="977.6" y1="156.1" x2="977.6" y2="170.2" stroke="#2e7d32" stroke-width="1"/>
<rect x="975.3" y="167.1" width="4.5" height="1.0" fill="#2e7d32"/>
<rect x="975.3" y="531.0" width="4.5" height="1.0" fill="#2e7d32" opacity="0.55"/>
<line x1="984.9" y1="158.3" x2="984.9" y2="173.3" stroke="#c62828" stroke-width="1"/>
<rect x="982.7" y="158.3" width="4.5" height="11.9" fill="#c62828"/>
<rect x="982.7" y="530.9" width="4.5" height="1.1" fill="#c62828" opacity="0.55"/>
<line x1="992.3" y1="161.4" x2="992.3" y2="170.4" stroke="#2e7d32" stroke-width="1"/>
<rect x="990.0" y="164.5" width="4.5" height="5.7" fill="#2e7d32"/>
<rect x="990.0" y="531.6" width="4.5" height="0.4" fill="#2e7d32" opacity="0.55"/>
<line x1="999.6" y1="150.4" x2="999.6" y2="170.4" stroke="#2e7d32" stroke-width="1"/>
<rect x="997.3" y="161.4" width="4.5" height="4.5" fill="#2e7d32"/>
<rect x="997.3" y="530.9" width="4.5" height="1.1" fill="#2e7d32" opacity="0.55"/>
<line x1="1006.9" y1="149.0" x2="1006.9" y2="170.2" stroke="#2e7d32" stroke-width="1"/>
<rect x="1004.7" y="151.8" width="4.5" height="18.4" fill="#2e7d32"/>
<rect x="1004.7" y="529.7" width="4.5" height="2.3" fill="#2e7d32" opacity="0.55"/>
<line x1="1014.3" y1="149.7" x2="1014.3" y2="163.2" stroke="#c62828" stroke-width="1"/>
<rect x="1012.0" y="158.0" width="4.5" height="2.9" fill="#c62828"/>
<rect x="1012.0" y="531.4" width="4.5" height="0.6" fill="#c62828" opacity="0.55"/>
<line x1="1021.6" y1="151.8" x2="1021.6" y2="160.9" stroke="#2e7d32" stroke-width="1"/>
<rect x="1019.4" y="160.9" width="4.5" height="1.0" fill="#2e7d32"/>
<rect x="1019.4" y="530.8" width="4.5" height="1.2" fill="#2e7d32" opacity="0.55"/>
<line x1="1029.0" y1="149.7" x2="1029.0" y2="163.0" stroke="#c62828" stroke-width="1"/>
<rect x="1026.7" y="157.8" width="4.5" height="5.2" fill="#c62828"/>
<rect x="1026.7" y="530.4" width="4.5" height="1.6" fill="#c62828" opacity="0.55"/>
<line x1="1036.3" y1="149.0" x2="1036.3" y2="164.2" stroke="#2e7d32" stroke-width="1"/>
<rect x="1034.0" y="149.0" width="4.5" height="13.9" fill="#2e7d32"/>
<rect x="1034.0" y="528.3" width="4.5" height="3.7" fill="#2e7d32" opacity="0.55"/>
<line x1="1043.6" y1="96.0" x2="1043.6" y2="189.0" stroke="#c62828" stroke-width="1"/>
<rect x="1041.4" y="151.7" width="4.5" height="26.9" fill="#c62828"/>
<rect x="1041.4" y="468.5" width="4.5" height="63.5" fill="#c62828" opacity="0.55"/>
<line x1="1051.0" y1="161.1" x2="1051.0" y2="192.1" stroke="#2e7d32" stroke-width="1"/>
<rect x="1048.7" y="167.8" width="4.5" height="15.0" fill="#2e7d32"/>
<rect x="1048.7" y="522.7" width="4.5" height="9.3" fill="#2e7d32" opacity="0.55"/>
<line x1="1058.3" y1="164.5" x2="1058.3" y2="173.5" stroke="#c62828" stroke-width="1"/>
<rect x="1056.0" y="170.4" width="4.5" height="2.8" fill="#c62828"/>
<rect x="1056.0" y="532.0" width="4.5" height="0.0" fill="#c62828" opacity="0.55"/>
<line x1="1065.7" y1="147.4" x2="1065.7" y2="179.7" stroke="#2e7d32" stroke-width="1"/>
<rect x="1063.4" y="171.0" width="4.5" height="2.0" fill="#2e7d32"/>
<rect x="1063.4" y="532.0" width="4.5" height="0.0" fill="#2e7d32" opacity="0.55"/>
<line x1="1073.0" y1="167.3" x2="1073.0" y2="176.6" stroke="#2e7d32" stroke-width="1"/>
<rect x="1070.7" y="167.3" width="4.5" height="6.5" fill="#2e7d32"/>
<rect x="1070.7" y="532.0" width="4.5" height="0.0" fill="#2e7d32" opacity="0.55"/>
<line x1="1080.3" y1="167.3" x2="1080.3" y2="167.3" stroke="#2e7d32" stroke-width="1"/>
<rect x="1078.1" y="167.3" width="4.5" height="1.0" fill="#2e7d32"/>
<rect x="1078.1" y="532.0" width="4.5" height="0.0" fill="#2e7d32" opacity="0.55"/>
<line x1="64" y1="532" x2="1084" y2="532" stroke="#ccc"/>
<text x="58" y="420" font-size="9" fill="#999" text-anchor="end">0.4M</text>
<line x1="67.7" y1="532" x2="67.7" y2="536" stroke="#999"/>
<text x="67.7" y="547.0" font-size="9" fill="#666" text-anchor="middle">07/22 04:00</text>
<line x1="236.4" y1="532" x2="236.4" y2="536" stroke="#999"/>
<text x="236.4" y="547.0" font-size="9" fill="#666" text-anchor="middle">11:20</text>
<line x1="405.2" y1="532" x2="405.2" y2="536" stroke="#999"/>
<text x="405.2" y="547.0" font-size="9" fill="#666" text-anchor="middle">13:15</text>
<line x1="574.0" y1="532" x2="574.0" y2="536" stroke="#999"/>
<text x="574.0" y="547.0" font-size="9" fill="#666" text-anchor="middle">15:10</text>
<line x1="742.8" y1="532" x2="742.8" y2="536" stroke="#999"/>
<text x="742.8" y="547.0" font-size="9" fill="#666" text-anchor="middle">17:45</text>
<line x1="911.6" y1="532" x2="911.6" y2="536" stroke="#999"/>
<text x="911.6" y="547.0" font-size="9" fill="#666" text-anchor="middle">19:40</text>
<line x1="1080.3" y1="532" x2="1080.3" y2="536" stroke="#999"/>
<text x="1080.3" y="547.0" font-size="9" fill="#666" text-anchor="middle">07/23 05:31</text>
<line x1="64" y1="142.5" x2="1084" y2="142.5" stroke="#1565c0" stroke-width="1.2" stroke-dasharray="5,4" opacity="0.9"/>
<polygon points="720.8,140.5 714.8,132.1 726.8,132.1" fill="#1565c0"/>
<text x="720.8" y="128.1" font-size="10" font-weight="bold" fill="#1565c0" text-anchor="middle">ENTRY $3.92</text>
<text x="64" y="22" font-size="15" font-weight="bold" fill="#1a1a1a">DOMO - Domo, Inc.</text>
<text x="1084" y="22" font-size="11" fill="#666" text-anchor="end">last $3.84 (+15.7% over window)</text>
<rect x="934" y="28" width="10" height="8" fill="#e8f0fe"/>
<text x="948" y="35" font-size="9" fill="#666">premarket</text>
<rect x="1006" y="28" width="10" height="8" fill="#fff4e0"/>
<text x="1020" y="35" font-size="9" fill="#666">after-hrs</text>
<rect x="852" y="28" width="10" height="8" fill="#1565c0"/>
<text x="866" y="35" font-size="9" fill="#666">entry</text>
</svg>