<svg xmlns="http://www.w3.org/2000/svg" width="1100" height="560" viewBox="0 0 1100 560" font-family="Arial,Helvetica,sans-serif">
<rect width="1100" height="560" fill="white"/>
<rect x="64.0" y="36" width="119.5" height="496.0" fill="#e8f0fe"/>
<rect x="551.0" y="36" width="349.2" height="496.0" fill="#fff4e0"/>
<rect x="900.2" y="36" width="183.8" height="496.0" fill="#e8f0fe"/>
<line x1="64" y1="404.0" x2="1084" y2="404.0" stroke="#e6e6e6"/>
<text x="58" y="407.0" font-size="10" fill="#666" text-anchor="end">$0.85</text>
<line x1="64" y1="312.0" x2="1084" y2="312.0" stroke="#e6e6e6"/>
<text x="58" y="315.0" font-size="10" fill="#666" text-anchor="end">$1.28</text>
<line x1="64" y1="220.0" x2="1084" y2="220.0" stroke="#e6e6e6"/>
<text x="58" y="223.0" font-size="10" fill="#666" text-anchor="end">$1.71</text>
<line x1="64" y1="128.0" x2="1084" y2="128.0" stroke="#e6e6e6"/>
<text x="58" y="131.0" font-size="10" fill="#666" text-anchor="end">$2.13</text>
<line x1="64" y1="36.0" x2="1084" y2="36.0" stroke="#e6e6e6"/>
<text x="58" y="39.0" font-size="10" fill="#666" text-anchor="end">$2.56</text>
<line x1="68.6" y1="379.1" x2="68.6" y2="379.1" stroke="#2e7d32" stroke-width="1"/>
<rect x="65.7" y="379.1" width="5.7" height="1.0" fill="#2e7d32"/>
<rect x="65.7" y="532.0" width="5.7" height="0.0" fill="#2e7d32" opacity="0.55"/>
<line x1="77.8" y1="382.3" x2="77.8" y2="382.3" stroke="#2e7d32" stroke-width="1"/>
<rect x="74.9" y="382.3" width="5.7" height="1.0" fill="#2e7d32"/>
<rect x="74.9" y="532.0" width="5.7" height="0.0" fill="#2e7d32" opacity="0.55"/>
<line x1="87.0" y1="355.4" x2="87.0" y2="384.3" stroke="#c62828" stroke-width="1"/>
<rect x="84.1" y="355.4" width="5.7" height="28.9" fill="#c62828"/>
<rect x="84.1" y="531.9" width="5.7" height="0.1" fill="#c62828" opacity="0.55"/>
<line x1="96.2" y1="378.2" x2="96.2" y2="378.2" stroke="#2e7d32" stroke-width="1"/>
<rect x="93.3" y="378.2" width="5.7" height="1.0" fill="#2e7d32"/>
<rect x="93.3" y="532.0" width="5.7" height="0.0" fill="#2e7d32" opacity="0.55"/>
<line x1="105.4" y1="374.8" x2="105.4" y2="374.8" stroke="#2e7d32" stroke-width="1"/>
<rect x="102.5" y="374.8" width="5.7" height="1.0" fill="#2e7d32"/>
<rect x="102.5" y="532.0" width="5.7" height="0.0" fill="#2e7d32" opacity="0.55"/>
<line x1="114.5" y1="370.5" x2="114.5" y2="370.5" stroke="#2e7d32" stroke-width="1"/>
<rect x="111.7" y="370.5" width="5.7" height="1.0" fill="#2e7d32"/>
<rect x="111.7" y="532.0" width="5.7" height="0.0" fill="#2e7d32" opacity="0.55"/>
<line x1="123.7" y1="370.5" x2="123.7" y2="370.5" stroke="#2e7d32" stroke-width="1"/>
<rect x="120.9" y="370.5" width="5.7" height="1.0" fill="#2e7d32"/>
<rect x="120.9" y="532.0" width="5.7" height="0.0" fill="#2e7d32" opacity="0.55"/>
<line x1="132.9" y1="370.1" x2="132.9" y2="372.6" stroke="#2e7d32" stroke-width="1"/>
<rect x="130.1" y="370.1" width="5.7" height="2.6" fill="#2e7d32"/>
<rect x="130.1" y="532.0" width="5.7" height="0.0" fill="#2e7d32" opacity="0.55"/>
<line x1="142.1" y1="372.5" x2="142.1" y2="372.5" stroke="#2e7d32" stroke-width="1"/>
<rect x="139.3" y="372.5" width="5.7" height="1.0" fill="#2e7d32"/>
<rect x="139.3" y="532.0" width="5.7" height="0.0" fill="#2e7d32" opacity="0.55"/>
<line x1="151.3" y1="368.1" x2="151.3" y2="368.1" stroke="#2e7d32" stroke-width="1"/>
<rect x="148.4" y="368.1" width="5.7" height="1.0" fill="#2e7d32"/>
<rect x="148.4" y="532.0" width="5.7" height="0.0" fill="#2e7d32" opacity="0.55"/>
<line x1="160.5" y1="370.1" x2="160.5" y2="370.1" stroke="#2e7d32" stroke-width="1"/>
<rect x="157.6" y="370.1" width="5.7" height="1.0" fill="#2e7d32"/>
<rect x="157.6" y="532.0" width="5.7" height="0.0" fill="#2e7d32" opacity="0.55"/>
<line x1="169.7" y1="368.1" x2="169.7" y2="368.1" stroke="#2e7d32" stroke-width="1"/>
<rect x="166.8" y="368.1" width="5.7" height="1.0" fill="#2e7d32"/>
<rect x="166.8" y="532.0" width="5.7" height="0.0" fill="#2e7d32" opacity="0.55"/>
<line x1="178.9" y1="368.3" x2="178.9" y2="368.3" stroke="#2e7d32" stroke-width="1"/>
<rect x="176.0" y="368.3" width="5.7" height="1.0" fill="#2e7d32"/>
<rect x="176.0" y="532.0" width="5.7" height="0.0" fill="#2e7d32" opacity="0.55"/>
<line x1="188.1" y1="370.5" x2="188.1" y2="370.5" stroke="#2e7d32" stroke-width="1"/>
<rect x="185.2" y="370.5" width="5.7" height="1.0" fill="#2e7d32"/>
<rect x="185.2" y="531.8" width="5.7" height="0.2" fill="#2e7d32" opacity="0.55"/>
<line x1="197.2" y1="361.9" x2="197.2" y2="361.9" stroke="#2e7d32" stroke-width="1"/>
<rect x="194.4" y="361.9" width="5.7" height="1.0" fill="#2e7d32"/>
<rect x="194.4" y="532.0" width="5.7" height="0.0" fill="#2e7d32" opacity="0.55"/>
<line x1="206.4" y1="357.6" x2="206.4" y2="365.1" stroke="#c62828" stroke-width="1"/>
<rect x="203.6" y="357.6" width="5.7" height="7.5" fill="#c62828"/>
<rect x="203.6" y="531.8" width="5.7" height="0.2" fill="#c62828" opacity="0.55"/>
<line x1="215.6" y1="364.4" x2="215.6" y2="368.3" stroke="#c62828" stroke-width="1"/>
<rect x="212.8" y="366.2" width="5.7" height="2.2" fill="#c62828"/>
<rect x="212.8" y="531.8" width="5.7" height="0.2" fill="#c62828" opacity="0.55"/>
<line x1="224.8" y1="368.3" x2="224.8" y2="370.5" stroke="#2e7d32" stroke-width="1"/>
<rect x="222.0" y="368.3" width="5.7" height="2.2" fill="#2e7d32"/>
<rect x="222.0" y="531.9" width="5.7" height="0.1" fill="#2e7d32" opacity="0.55"/>
<line x1="234.0" y1="368.3" x2="234.0" y2="368.3" stroke="#2e7d32" stroke-width="1"/>
<rect x="231.2" y="368.3" width="5.7" height="1.0" fill="#2e7d32"/>
<rect x="231.2" y="532.0" width="5.7" height="0.0" fill="#2e7d32" opacity="0.55"/>
<line x1="243.2" y1="368.3" x2="243.2" y2="368.3" stroke="#2e7d32" stroke-width="1"/>
<rect x="240.3" y="368.3" width="5.7" height="1.0" fill="#2e7d32"/>
<rect x="240.3" y="532.0" width="5.7" height="0.0" fill="#2e7d32" opacity="0.55"/>
<line x1="252.4" y1="370.5" x2="252.4" y2="370.5" stroke="#2e7d32" stroke-width="1"/>
<rect x="249.5" y="370.5" width="5.7" height="1.0" fill="#2e7d32"/>
<rect x="249.5" y="532.0" width="5.7" height="0.0" fill="#2e7d32" opacity="0.55"/>
<line x1="261.6" y1="364.0" x2="261.6" y2="368.3" stroke="#2e7d32" stroke-width="1"/>
<rect x="258.7" y="364.0" width="5.7" height="2.2" fill="#2e7d32"/>
<rect x="258.7" y="531.4" width="5.7" height="0.6" fill="#2e7d32" opacity="0.55"/>
<line x1="270.8" y1="366.0" x2="270.8" y2="366.0" stroke="#2e7d32" stroke-width="1"/>
<rect x="267.9" y="366.0" width="5.7" height="1.0" fill="#2e7d32"/>
<rect x="267.9" y="531.9" width="5.7" height="0.1" fill="#2e7d32" opacity="0.55"/>
<line x1="279.9" y1="366.2" x2="279.9" y2="366.2" stroke="#2e7d32" stroke-width="1"/>
<rect x="277.1" y="366.2" width="5.7" height="1.0" fill="#2e7d32"/>
<rect x="277.1" y="532.0" width="5.7" height="0.0" fill="#2e7d32" opacity="0.55"/>
<line x1="289.1" y1="371.6" x2="289.1" y2="371.6" stroke="#2e7d32" stroke-width="1"/>
<rect x="286.3" y="371.6" width="5.7" height="1.0" fill="#2e7d32"/>
<rect x="286.3" y="532.0" width="5.7" height="0.0" fill="#2e7d32" opacity="0.55"/>
<line x1="298.3" y1="366.2" x2="298.3" y2="368.3" stroke="#c62828" stroke-width="1"/>
<rect x="295.5" y="366.2" width="5.7" height="2.2" fill="#c62828"/>
<rect x="295.5" y="532.0" width="5.7" height="0.0" fill="#c62828" opacity="0.55"/>
<line x1="307.5" y1="370.5" x2="307.5" y2="370.5" stroke="#2e7d32" stroke-width="1"/>
<rect x="304.7" y="370.5" width="5.7" height="1.0" fill="#2e7d32"/>
<rect x="304.7" y="532.0" width="5.7" height="0.0" fill="#2e7d32" opacity="0.55"/>
<line x1="316.7" y1="370.5" x2="316.7" y2="370.5" stroke="#2e7d32" stroke-width="1"/>
<rect x="313.9" y="370.5" width="5.7" height="1.0" fill="#2e7d32"/>
<rect x="313.9" y="532.0" width="5.7" height="0.0" fill="#2e7d32" opacity="0.55"/>
<line x1="325.9" y1="370.5" x2="325.9" y2="370.5" stroke="#2e7d32" stroke-width="1"/>
<rect x="323.0" y="370.5" width="5.7" height="1.0" fill="#2e7d32"/>
<rect x="323.0" y="532.0" width="5.7" height="0.0" fill="#2e7d32" opacity="0.55"/>
<line x1="335.1" y1="370.5" x2="335.1" y2="370.5" stroke="#2e7d32" stroke-width="1"/>
<rect x="332.2" y="370.5" width="5.7" height="1.0" fill="#2e7d32"/>
<rect x="332.2" y="532.0" width="5.7" height="0.0" fill="#2e7d32" opacity="0.55"/>
<line x1="344.3" y1="367.3" x2="344.3" y2="367.3" stroke="#2e7d32" stroke-width="1"/>
<rect x="341.4" y="367.3" width="5.7" height="1.0" fill="#2e7d32"/>
<rect x="341.4" y="531.9" width="5.7" height="0.1" fill="#2e7d32" opacity="0.55"/>
<line x1="353.5" y1="368.3" x2="353.5" y2="370.5" stroke="#c62828" stroke-width="1"/>
<rect x="350.6" y="368.3" width="5.7" height="2.2" fill="#c62828"/>
<rect x="350.6" y="532.0" width="5.7" height="0.0" fill="#c62828" opacity="0.55"/>
<line x1="362.6" y1="370.5" x2="362.6" y2="370.5" stroke="#2e7d32" stroke-width="1"/>
<rect x="359.8" y="370.5" width="5.7" height="1.0" fill="#2e7d32"/>
<rect x="359.8" y="532.0" width="5.7" height="0.0" fill="#2e7d32" opacity="0.55"/>
<line x1="371.8" y1="368.3" x2="371.8" y2="368.3" stroke="#2e7d32" stroke-width="1"/>
<rect x="369.0" y="368.3" width="5.7" height="1.0" fill="#2e7d32"/>
<rect x="369.0" y="531.9" width="5.7" height="0.1" fill="#2e7d32" opacity="0.55"/>
<line x1="381.0" y1="370.5" x2="381.0" y2="370.5" stroke="#2e7d32" stroke-width="1"/>
<rect x="378.2" y="370.5" width="5.7" height="1.0" fill="#2e7d32"/>
<rect x="378.2" y="532.0" width="5.7" height="0.0" fill="#2e7d32" opacity="0.55"/>
<line x1="390.2" y1="370.5" x2="390.2" y2="370.5" stroke="#2e7d32" stroke-width="1"/>
<rect x="387.4" y="370.5" width="5.7" height="1.0" fill="#2e7d32"/>
<rect x="387.4" y="532.0" width="5.7" height="0.0" fill="#2e7d32" opacity="0.55"/>
<line x1="399.4" y1="370.5" x2="399.4" y2="370.5" stroke="#2e7d32" stroke-width="1"/>
<rect x="396.6" y="370.5" width="5.7" height="1.0" fill="#2e7d32"/>
<rect x="396.6" y="532.0" width="5.7" height="0.0" fill="#2e7d32" opacity="0.55"/>
<line x1="408.6" y1="372.6" x2="408.6" y2="372.6" stroke="#2e7d32" stroke-width="1"/>
<rect x="405.7" y="372.6" width="5.7" height="1.0" fill="#2e7d32"/>
<rect x="405.7" y="532.0" width="5.7" height="0.0" fill="#2e7d32" opacity="0.55"/>
<line x1="417.8" y1="370.5" x2="417.8" y2="370.5" stroke="#2e7d32" stroke-width="1"/>
<rect x="414.9" y="370.5" width="5.7" height="1.0" fill="#2e7d32"/>
<rect x="414.9" y="532.0" width="5.7" height="0.0" fill="#2e7d32" opacity="0.55"/>
<line x1="427.0" y1="368.3" x2="427.0" y2="368.3" stroke="#2e7d32" stroke-width="1"/>
<rect x="424.1" y="368.3" width="5.7" height="1.0" fill="#2e7d32"/>
<rect x="424.1" y="532.0" width="5.7" height="0.0" fill="#2e7d32" opacity="0.55"/>
<line x1="436.2" y1="368.3" x2="436.2" y2="368.3" stroke="#2e7d32" stroke-width="1"/>
<rect x="433.3" y="368.3" width="5.7" height="1.0" fill="#2e7d32"/>
<rect x="433.3" y="532.0" width="5.7" height="0.0" fill="#2e7d32" opacity="0.55"/>
<line x1="445.4" y1="368.3" x2="445.4" y2="368.3" stroke="#2e7d32" stroke-width="1"/>
<rect x="442.5" y="368.3" width="5.7" height="1.0" fill="#2e7d32"/>
<rect x="442.5" y="531.8" width="5.7" height="0.2" fill="#2e7d32" opacity="0.55"/>
<line x1="454.5" y1="368.4" x2="454.5" y2="368.4" stroke="#2e7d32" stroke-width="1"/>
<rect x="451.7" y="368.4" width="5.7" height="1.0" fill="#2e7d32"/>
<rect x="451.7" y="532.0" width="5.7" height="0.0" fill="#2e7d32" opacity="0.55"/>
<line x1="463.7" y1="370.3" x2="463.7" y2="372.6" stroke="#c62828" stroke-width="1"/>
<rect x="460.9" y="370.3" width="5.7" height="2.4" fill="#c62828"/>
<rect x="460.9" y="531.3" width="5.7" height="0.7" fill="#c62828" opacity="0.55"/>
<line x1="472.9" y1="372.7" x2="472.9" y2="372.7" stroke="#2e7d32" stroke-width="1"/>
<rect x="470.1" y="372.7" width="5.7" height="1.0" fill="#2e7d32"/>
<rect x="470.1" y="531.9" width="5.7" height="0.1" fill="#2e7d32" opacity="0.55"/>
<line x1="482.1" y1="368.4" x2="482.1" y2="368.8" stroke="#2e7d32" stroke-width="1"/>
<rect x="479.3" y="368.4" width="5.7" height="1.0" fill="#2e7d32"/>
<rect x="479.3" y="531.9" width="5.7" height="0.1" fill="#2e7d32" opacity="0.55"/>
<line x1="491.3" y1="376.8" x2="491.3" y2="376.8" stroke="#2e7d32" stroke-width="1"/>
<rect x="488.4" y="376.8" width="5.7" height="1.0" fill="#2e7d32"/>
<rect x="488.4" y="532.0" width="5.7" height="0.0" fill="#2e7d32" opacity="0.55"/>
<line x1="500.5" y1="376.8" x2="500.5" y2="376.8" stroke="#2e7d32" stroke-width="1"/>
<rect x="497.6" y="376.8" width="5.7" height="1.0" fill="#2e7d32"/>
<rect x="497.6" y="532.0" width="5.7" height="0.0" fill="#2e7d32" opacity="0.55"/>
<line x1="509.7" y1="374.8" x2="509.7" y2="374.8" stroke="#2e7d32" stroke-width="1"/>
<rect x="506.8" y="374.8" width="5.7" height="1.0" fill="#2e7d32"/>
<rect x="506.8" y="532.0" width="5.7" height="0.0" fill="#2e7d32" opacity="0.55"/>
<line x1="518.9" y1="374.8" x2="518.9" y2="374.8" stroke="#2e7d32" stroke-width="1"/>
<rect x="516.0" y="374.8" width="5.7" height="1.0" fill="#2e7d32"/>
<rect x="516.0" y="531.9" width="5.7" height="0.1" fill="#2e7d32" opacity="0.55"/>
<line x1="528.1" y1="368.4" x2="528.1" y2="372.6" stroke="#2e7d32" stroke-width="1"/>
<rect x="525.2" y="368.4" width="5.7" height="4.3" fill="#2e7d32"/>
<rect x="525.2" y="532.0" width="5.7" height="0.0" fill="#2e7d32" opacity="0.55"/>
<line x1="537.2" y1="373.1" x2="537.2" y2="373.1" stroke="#2e7d32" stroke-width="1"/>
<rect x="534.4" y="373.1" width="5.7" height="1.0" fill="#2e7d32"/>
<rect x="534.4" y="532.0" width="5.7" height="0.0" fill="#2e7d32" opacity="0.55"/>
<line x1="546.4" y1="370.5" x2="546.4" y2="375.6" stroke="#c62828" stroke-width="1"/>
<rect x="543.6" y="370.5" width="5.7" height="5.1" fill="#c62828"/>
<rect x="543.6" y="532.0" width="5.7" height="0.0" fill="#c62828" opacity="0.55"/>
<line x1="555.6" y1="383.1" x2="555.6" y2="383.1" stroke="#2e7d32" stroke-width="1"/>
<rect x="552.8" y="383.1" width="5.7" height="1.0" fill="#2e7d32"/>
<rect x="552.8" y="532.0" width="5.7" height="0.0" fill="#2e7d32" opacity="0.55"/>
<line x1="564.8" y1="383.1" x2="564.8" y2="383.1" stroke="#2e7d32" stroke-width="1"/>
<rect x="562.0" y="383.1" width="5.7" height="1.0" fill="#2e7d32"/>
<rect x="562.0" y="532.0" width="5.7" height="0.0" fill="#2e7d32" opacity="0.55"/>
<line x1="574.0" y1="383.1" x2="574.0" y2="383.1" stroke="#2e7d32" stroke-width="1"/>
<rect x="571.2" y="383.1" width="5.7" height="1.0" fill="#2e7d32"/>
<rect x="571.2" y="532.0" width="5.7" height="0.0" fill="#2e7d32" opacity="0.55"/>
<line x1="583.2" y1="382.3" x2="583.2" y2="382.3" stroke="#2e7d32" stroke-width="1"/>
<rect x="580.3" y="382.3" width="5.7" height="1.0" fill="#2e7d32"/>
<rect x="580.3" y="532.0" width="5.7" height="0.0" fill="#2e7d32" opacity="0.55"/>
<line x1="592.4" y1="379.1" x2="592.4" y2="379.1" stroke="#2e7d32" stroke-width="1"/>
<rect x="589.5" y="379.1" width="5.7" height="1.0" fill="#2e7d32"/>
<rect x="589.5" y="532.0" width="5.7" height="0.0" fill="#2e7d32" opacity="0.55"/>
<line x1="601.6" y1="377.0" x2="601.6" y2="377.0" stroke="#2e7d32" stroke-width="1"/>
<rect x="598.7" y="377.0" width="5.7" height="1.0" fill="#2e7d32"/>
<rect x="598.7" y="532.0" width="5.7" height="0.0" fill="#2e7d32" opacity="0.55"/>
<line x1="610.8" y1="329.5" x2="610.8" y2="377.0" stroke="#2e7d32" stroke-width="1"/>
<rect x="607.9" y="351.1" width="5.7" height="19.4" fill="#2e7d32"/>
<rect x="607.9" y="531.9" width="5.7" height="0.1" fill="#2e7d32" opacity="0.55"/>
<line x1="619.9" y1="329.5" x2="619.9" y2="370.5" stroke="#2e7d32" stroke-width="1"/>
<rect x="617.1" y="342.5" width="5.7" height="28.0" fill="#2e7d32"/>
<rect x="617.1" y="525.7" width="5.7" height="6.3" fill="#2e7d32" opacity="0.55"/>
<line x1="629.1" y1="305.8" x2="629.1" y2="346.8" stroke="#2e7d32" stroke-width="1"/>
<rect x="626.3" y="315.5" width="5.7" height="29.1" fill="#2e7d32"/>
<rect x="626.3" y="509.0" width="5.7" height="23.0" fill="#2e7d32" opacity="0.55"/>
<line x1="638.3" y1="286.4" x2="638.3" y2="329.5" stroke="#2e7d32" stroke-width="1"/>
<rect x="635.5" y="292.9" width="5.7" height="23.7" fill="#2e7d32"/>
<rect x="635.5" y="512.4" width="5.7" height="19.6" fill="#2e7d32" opacity="0.55"/>
<line x1="647.5" y1="256.2" x2="647.5" y2="305.8" stroke="#2e7d32" stroke-width="1"/>
<rect x="644.7" y="263.0" width="5.7" height="29.9" fill="#2e7d32"/>
<rect x="644.7" y="500.5" width="5.7" height="31.5" fill="#2e7d32" opacity="0.55"/>
<line x1="656.7" y1="260.5" x2="656.7" y2="292.9" stroke="#c62828" stroke-width="1"/>
<rect x="653.9" y="264.8" width="5.7" height="19.4" fill="#c62828"/>
<rect x="653.9" y="501.9" width="5.7" height="30.1" fill="#c62828" opacity="0.55"/>
<line x1="665.9" y1="256.2" x2="665.9" y2="297.2" stroke="#2e7d32" stroke-width="1"/>
<rect x="663.0" y="267.0" width="5.7" height="15.1" fill="#2e7d32"/>
<rect x="663.0" y="506.7" width="5.7" height="25.3" fill="#2e7d32" opacity="0.55"/>
<line x1="675.1" y1="223.9" x2="675.1" y2="273.5" stroke="#2e7d32" stroke-width="1"/>
<rect x="672.2" y="239.0" width="5.7" height="28.0" fill="#2e7d32"/>
<rect x="672.2" y="500.9" width="5.7" height="31.1" fill="#2e7d32" opacity="0.55"/>
<line x1="684.3" y1="206.6" x2="684.3" y2="243.3" stroke="#2e7d32" stroke-width="1"/>
<rect x="681.4" y="221.8" width="5.7" height="17.2" fill="#2e7d32"/>
<rect x="681.4" y="497.0" width="5.7" height="35.0" fill="#2e7d32" opacity="0.55"/>
<line x1="693.5" y1="223.9" x2="693.5" y2="275.6" stroke="#c62828" stroke-width="1"/>
<rect x="690.6" y="226.0" width="5.7" height="47.5" fill="#c62828"/>
<rect x="690.6" y="506.5" width="5.7" height="25.5" fill="#c62828" opacity="0.55"/>
<line x1="702.6" y1="254.1" x2="702.6" y2="282.1" stroke="#2e7d32" stroke-width="1"/>
<rect x="699.8" y="268.8" width="5.7" height="6.8" fill="#2e7d32"/>
<rect x="699.8" y="518.7" width="5.7" height="13.3" fill="#2e7d32" opacity="0.55"/>
<line x1="711.8" y1="204.5" x2="711.8" y2="269.2" stroke="#2e7d32" stroke-width="1"/>
<rect x="709.0" y="223.9" width="5.7" height="45.3" fill="#2e7d32"/>
<rect x="709.0" y="499.6" width="5.7" height="32.4" fill="#2e7d32" opacity="0.55"/>
<line x1="721.0" y1="221.7" x2="721.0" y2="264.8" stroke="#c62828" stroke-width="1"/>
<rect x="718.2" y="223.9" width="5.7" height="15.0" fill="#c62828"/>
<rect x="718.2" y="508.4" width="5.7" height="23.6" fill="#c62828" opacity="0.55"/>
<line x1="730.2" y1="217.4" x2="730.2" y2="251.9" stroke="#2e7d32" stroke-width="1"/>
<rect x="727.4" y="232.5" width="5.7" height="6.4" fill="#2e7d32"/>
<rect x="727.4" y="510.9" width="5.7" height="21.1" fill="#2e7d32" opacity="0.55"/>
<line x1="739.4" y1="232.5" x2="739.4" y2="251.9" stroke="#c62828" stroke-width="1"/>
<rect x="736.6" y="232.5" width="5.7" height="15.1" fill="#c62828"/>
<rect x="736.6" y="523.5" width="5.7" height="8.5" fill="#c62828" opacity="0.55"/>
<line x1="748.6" y1="243.3" x2="748.6" y2="264.8" stroke="#c62828" stroke-width="1"/>
<rect x="745.7" y="249.8" width="5.7" height="6.5" fill="#c62828"/>
<rect x="745.7" y="522.9" width="5.7" height="9.1" fill="#c62828" opacity="0.55"/>
<line x1="757.8" y1="213.1" x2="757.8" y2="260.5" stroke="#2e7d32" stroke-width="1"/>
<rect x="754.9" y="237.1" width="5.7" height="19.1" fill="#2e7d32"/>
<rect x="754.9" y="511.9" width="5.7" height="20.1" fill="#2e7d32" opacity="0.55"/>
<line x1="767.0" y1="236.8" x2="767.0" y2="258.4" stroke="#c62828" stroke-width="1"/>
<rect x="764.1" y="236.8" width="5.7" height="15.0" fill="#c62828"/>
<rect x="764.1" y="523.7" width="5.7" height="8.3" fill="#c62828" opacity="0.55"/>
<line x1="776.2" y1="239.0" x2="776.2" y2="262.7" stroke="#c62828" stroke-width="1"/>
<rect x="773.3" y="251.9" width="5.7" height="6.5" fill="#c62828"/>
<rect x="773.3" y="525.6" width="5.7" height="6.4" fill="#c62828" opacity="0.55"/>
<line x1="785.4" y1="249.8" x2="785.4" y2="264.8" stroke="#2e7d32" stroke-width="1"/>
<rect x="782.5" y="255.9" width="5.7" height="1.0" fill="#2e7d32"/>
<rect x="782.5" y="526.9" width="5.7" height="5.1" fill="#2e7d32" opacity="0.55"/>
<line x1="794.5" y1="228.2" x2="794.5" y2="256.2" stroke="#2e7d32" stroke-width="1"/>
<rect x="791.7" y="234.7" width="5.7" height="17.2" fill="#2e7d32"/>
<rect x="791.7" y="523.9" width="5.7" height="8.1" fill="#2e7d32" opacity="0.55"/>
<line x1="803.7" y1="228.2" x2="803.7" y2="245.9" stroke="#c62828" stroke-width="1"/>
<rect x="800.9" y="236.8" width="5.7" height="2.2" fill="#c62828"/>
<rect x="800.9" y="525.5" width="5.7" height="6.5" fill="#c62828" opacity="0.55"/>
<line x1="812.9" y1="236.8" x2="812.9" y2="264.8" stroke="#c62828" stroke-width="1"/>
<rect x="810.1" y="237.2" width="5.7" height="25.5" fill="#c62828"/>
<rect x="810.1" y="526.4" width="5.7" height="5.6" fill="#c62828" opacity="0.55"/>
<line x1="822.1" y1="258.4" x2="822.1" y2="275.6" stroke="#2e7d32" stroke-width="1"/>
<rect x="819.3" y="260.5" width="5.7" height="4.4" fill="#2e7d32"/>
<rect x="819.3" y="525.9" width="5.7" height="6.1" fill="#2e7d32" opacity="0.55"/>
<line x1="831.3" y1="243.3" x2="831.3" y2="260.5" stroke="#2e7d32" stroke-width="1"/>
<rect x="828.4" y="247.6" width="5.7" height="10.8" fill="#2e7d32"/>
<rect x="828.4" y="527.9" width="5.7" height="4.1" fill="#2e7d32" opacity="0.55"/>
<line x1="840.5" y1="247.6" x2="840.5" y2="267.0" stroke="#c62828" stroke-width="1"/>
<rect x="837.6" y="249.7" width="5.7" height="15.1" fill="#c62828"/>
<rect x="837.6" y="528.5" width="5.7" height="3.5" fill="#c62828" opacity="0.55"/>
<line x1="849.7" y1="243.3" x2="849.7" y2="267.0" stroke="#2e7d32" stroke-width="1"/>
<rect x="846.8" y="254.1" width="5.7" height="10.8" fill="#2e7d32"/>
<rect x="846.8" y="528.2" width="5.7" height="3.8" fill="#2e7d32" opacity="0.55"/>
<line x1="858.9" y1="247.6" x2="858.9" y2="260.5" stroke="#2e7d32" stroke-width="1"/>
<rect x="856.0" y="249.8" width="5.7" height="4.2" fill="#2e7d32"/>
<rect x="856.0" y="529.8" width="5.7" height="2.2" fill="#2e7d32" opacity="0.55"/>
<line x1="868.1" y1="204.5" x2="868.1" y2="254.1" stroke="#2e7d32" stroke-width="1"/>
<rect x="865.2" y="215.3" width="5.7" height="34.4" fill="#2e7d32"/>
<rect x="865.2" y="519.5" width="5.7" height="12.5" fill="#2e7d32" opacity="0.55"/>
<line x1="877.2" y1="202.3" x2="877.2" y2="232.5" stroke="#c62828" stroke-width="1"/>
<rect x="874.4" y="215.6" width="5.7" height="10.5" fill="#c62828"/>
<rect x="874.4" y="521.3" width="5.7" height="10.7" fill="#c62828" opacity="0.55"/>
<line x1="886.4" y1="221.7" x2="886.4" y2="245.4" stroke="#c62828" stroke-width="1"/>
<rect x="883.6" y="226.1" width="5.7" height="17.1" fill="#c62828"/>
<rect x="883.6" y="526.7" width="5.7" height="5.3" fill="#c62828" opacity="0.55"/>
<line x1="895.6" y1="234.7" x2="895.6" y2="247.6" stroke="#c62828" stroke-width="1"/>
<rect x="892.8" y="239.0" width="5.7" height="8.6" fill="#c62828"/>
<rect x="892.8" y="526.7" width="5.7" height="5.3" fill="#c62828" opacity="0.55"/>
<line x1="904.8" y1="77.3" x2="904.8" y2="260.5" stroke="#2e7d32" stroke-width="1"/>
<rect x="902.0" y="120.4" width="5.7" height="140.1" fill="#2e7d32"/>
<rect x="902.0" y="412.0" width="5.7" height="120.0" fill="#2e7d32" opacity="0.55"/>
<line x1="914.0" y1="55.7" x2="914.0" y2="226.0" stroke="#2e7d32" stroke-width="1"/>
<rect x="911.2" y="101.2" width="5.7" height="19.4" fill="#2e7d32"/>
<rect x="911.2" y="457.6" width="5.7" height="74.4" fill="#2e7d32" opacity="0.55"/>
<line x1="923.2" y1="98.8" x2="923.2" y2="148.4" stroke="#c62828" stroke-width="1"/>
<rect x="920.3" y="101.2" width="5.7" height="19.4" fill="#c62828"/>
<rect x="920.3" y="502.8" width="5.7" height="29.2" fill="#c62828" opacity="0.55"/>
<line x1="932.4" y1="101.0" x2="932.4" y2="142.0" stroke="#c62828" stroke-width="1"/>
<rect x="929.5" y="120.6" width="5.7" height="17.0" fill="#c62828"/>
<rect x="929.5" y="507.3" width="5.7" height="24.7" fill="#c62828" opacity="0.55"/>
<line x1="941.6" y1="129.0" x2="941.6" y2="167.8" stroke="#c62828" stroke-width="1"/>
<rect x="938.7" y="135.7" width="5.7" height="27.7" fill="#c62828"/>
<rect x="938.7" y="506.4" width="5.7" height="25.6" fill="#c62828" opacity="0.55"/>
<line x1="950.8" y1="150.6" x2="950.8" y2="174.5" stroke="#c62828" stroke-width="1"/>
<rect x="947.9" y="163.3" width="5.7" height="11.2" fill="#c62828"/>
<rect x="947.9" y="514.0" width="5.7" height="18.0" fill="#c62828" opacity="0.55"/>
<line x1="959.9" y1="109.6" x2="959.9" y2="182.9" stroke="#2e7d32" stroke-width="1"/>
<rect x="957.1" y="131.2" width="5.7" height="45.1" fill="#2e7d32"/>
<rect x="957.1" y="482.4" width="5.7" height="49.6" fill="#2e7d32" opacity="0.55"/>
<line x1="969.1" y1="129.0" x2="969.1" y2="152.7" stroke="#c62828" stroke-width="1"/>
<rect x="966.3" y="133.2" width="5.7" height="6.4" fill="#c62828"/>
<rect x="966.3" y="509.1" width="5.7" height="22.9" fill="#c62828" opacity="0.55"/>
<line x1="978.3" y1="135.5" x2="978.3" y2="161.4" stroke="#c62828" stroke-width="1"/>
<rect x="975.5" y="135.7" width="5.7" height="12.7" fill="#c62828"/>
<rect x="975.5" y="521.2" width="5.7" height="10.8" fill="#c62828" opacity="0.55"/>
<line x1="987.5" y1="146.3" x2="987.5" y2="154.9" stroke="#c62828" stroke-width="1"/>
<rect x="984.7" y="148.4" width="5.7" height="2.4" fill="#c62828"/>
<rect x="984.7" y="526.3" width="5.7" height="5.7" fill="#c62828" opacity="0.55"/>
<line x1="996.7" y1="150.6" x2="996.7" y2="172.1" stroke="#c62828" stroke-width="1"/>
<rect x="993.9" y="152.7" width="5.7" height="8.4" fill="#c62828"/>
<rect x="993.9" y="521.0" width="5.7" height="11.0" fill="#c62828" opacity="0.55"/>
<line x1="1005.9" y1="150.6" x2="1005.9" y2="172.1" stroke="#c62828" stroke-width="1"/>
<rect x="1003.0" y="159.4" width="5.7" height="4.0" fill="#c62828"/>
<rect x="1003.0" y="523.5" width="5.7" height="8.5" fill="#c62828" opacity="0.55"/>
<line x1="1015.1" y1="113.9" x2="1015.1" y2="167.8" stroke="#2e7d32" stroke-width="1"/>
<rect x="1012.2" y="118.2" width="5.7" height="45.1" fill="#2e7d32"/>
<rect x="1012.2" y="501.7" width="5.7" height="30.3" fill="#2e7d32" opacity="0.55"/>
<line x1="1024.3" y1="118.2" x2="1024.3" y2="163.5" stroke="#c62828" stroke-width="1"/>
<rect x="1021.4" y="120.4" width="5.7" height="40.8" fill="#c62828"/>
<rect x="1021.4" y="508.7" width="5.7" height="23.3" fill="#c62828" opacity="0.55"/>
<line x1="1033.5" y1="139.8" x2="1033.5" y2="161.4" stroke="#2e7d32" stroke-width="1"/>
<rect x="1030.6" y="142.0" width="5.7" height="17.2" fill="#2e7d32"/>
<rect x="1030.6" y="522.5" width="5.7" height="9.5" fill="#2e7d32" opacity="0.55"/>
<line x1="1042.6" y1="122.5" x2="1042.6" y2="146.5" stroke="#2e7d32" stroke-width="1"/>
<rect x="1039.8" y="137.4" width="5.7" height="4.7" fill="#2e7d32"/>
<rect x="1039.8" y="507.9" width="5.7" height="24.1" fill="#2e7d32" opacity="0.55"/>
<line x1="1051.8" y1="92.4" x2="1051.8" y2="143.9" stroke="#2e7d32" stroke-width="1"/>
<rect x="1049.0" y="103.1" width="5.7" height="36.4" fill="#2e7d32"/>
<rect x="1049.0" y="532.0" width="5.7" height="0.0" fill="#2e7d32" opacity="0.55"/>
<line x1="1061.0" y1="57.9" x2="1061.0" y2="105.3" stroke="#2e7d32" stroke-width="1"/>
<rect x="1058.2" y="98.8" width="5.7" height="6.3" fill="#2e7d32"/>
<rect x="1058.2" y="532.0" width="5.7" height="0.0" fill="#2e7d32" opacity="0.55"/>
<line x1="1070.2" y1="88.1" x2="1070.2" y2="109.6" stroke="#2e7d32" stroke-width="1"/>
<rect x="1067.4" y="90.0" width="5.7" height="10.8" fill="#2e7d32"/>
<rect x="1067.4" y="532.0" width="5.7" height="0.0" fill="#2e7d32" opacity="0.55"/>
<line x1="1079.4" y1="94.8" x2="1079.4" y2="94.8" stroke="#2e7d32" stroke-width="1"/>
<rect x="1076.6" y="94.8" width="5.7" height="1.0" fill="#2e7d32"/>
<rect x="1076.6" y="532.0" width="5.7" height="0.0" fill="#2e7d32" opacity="0.55"/>
<line x1="64" y1="532" x2="1084" y2="532" stroke="#ccc"/>
<text x="58" y="420" font-size="9" fill="#999" text-anchor="end">3.2M</text>
<line x1="68.6" y1="532" x2="68.6" y2="536" stroke="#999"/>
<text x="68.6" y="547.0" font-size="9" fill="#666" text-anchor="middle">07/22 04:00</text>
<line x1="234.0" y1="532" x2="234.0" y2="536" stroke="#999"/>
<text x="234.0" y="547.0" font-size="9" fill="#666" text-anchor="middle">10:45</text>
<line x1="399.4" y1="532" x2="399.4" y2="536" stroke="#999"/>
<text x="399.4" y="547.0" font-size="9" fill="#666" text-anchor="middle">12:35</text>
<line x1="564.8" y1="532" x2="564.8" y2="536" stroke="#999"/>
<text x="564.8" y="547.0" font-size="9" fill="#666" text-anchor="middle">16:05</text>
<line x1="730.2" y1="532" x2="730.2" y2="536" stroke="#999"/>
<text x="730.2" y="547.0" font-size="9" fill="#666" text-anchor="middle">18:25</text>
<line x1="895.6" y1="532" x2="895.6" y2="536" stroke="#999"/>
<text x="895.6" y="547.0" font-size="9" fill="#666" text-anchor="middle">19:55</text>
<line x1="1061.0" y1="532" x2="1061.0" y2="536" stroke="#999"/>
<text x="1061.0" y="547.0" font-size="9" fill="#666" text-anchor="middle">07/23 05:25</text>
<line x1="64" y1="247.6" x2="1084" y2="247.6" stroke="#1565c0" stroke-width="1.2" stroke-dasharray="5,4" opacity="0.9"/>
<polygon points="739.4,245.6 733.4,237.2 745.4,237.2" fill="#1565c0"/>
<text x="739.4" y="233.2" font-size="10" font-weight="bold" fill="#1565c0" text-anchor="middle">ENTRY $1.58</text>
<line x1="64" y1="165.7" x2="1084" y2="165.7" stroke="#ad1457" stroke-width="1.2" stroke-dasharray="5,4" opacity="0.9"/>
<polygon points="959.9,167.7 953.9,176.1 965.9,176.1" fill="#ad1457"/>
<text x="959.9" y="186.1" font-size="10" font-weight="bold" fill="#ad1457" text-anchor="middle">EXIT $1.96</text>
<text x="64" y="22" font-size="15" font-weight="bold" fill="#1a1a1a">LGCL - Lucas GC Limited</text>
<text x="1084" y="22" font-size="11" fill="#666" text-anchor="end">last $2.29 (+135.9% over window)</text>
<rect x="934" y="28" width="10" height="8" fill="#e8f0fe"/>
<text x="948" y="35" font-size="9" fill="#666">premarket</text>
<rect x="1006" y="28" width="10" height="8" fill="#fff4e0"/>
<text x="1020" y="35" font-size="9" fill="#666">after-hrs</text>
<rect x="852" y="28" width="10" height="8" fill="#1565c0"/>
<text x="866" y="35" font-size="9" fill="#666">entry</text>
<rect x="802" y="28" width="10" height="8" fill="#ad1457"/>
<text x="816" y="35" font-size="9" fill="#666">exit</text>
</svg>