<svg xmlns="http://www.w3.org/2000/svg" width="1100" height="560" viewBox="0 0 1100 560" font-family="Arial,Helvetica,sans-serif">
<rect width="1100" height="560" fill="white"/>
<rect x="64.0" y="36" width="241.2" height="496.0" fill="#e8f0fe"/>
<rect x="746.3" y="36" width="199.9" height="496.0" fill="#fff4e0"/>
<rect x="946.2" y="36" width="137.8" height="496.0" fill="#e8f0fe"/>
<line x1="64" y1="404.0" x2="1084" y2="404.0" stroke="#e6e6e6"/>
<text x="58" y="407.0" font-size="10" fill="#666" text-anchor="end">$0.54</text>
<line x1="64" y1="312.0" x2="1084" y2="312.0" stroke="#e6e6e6"/>
<text x="58" y="315.0" font-size="10" fill="#666" text-anchor="end">$0.88</text>
<line x1="64" y1="220.0" x2="1084" y2="220.0" stroke="#e6e6e6"/>
<text x="58" y="223.0" font-size="10" fill="#666" text-anchor="end">$1.22</text>
<line x1="64" y1="128.0" x2="1084" y2="128.0" stroke="#e6e6e6"/>
<text x="58" y="131.0" font-size="10" fill="#666" text-anchor="end">$1.55</text>
<line x1="64" y1="36.0" x2="1084" y2="36.0" stroke="#e6e6e6"/>
<text x="58" y="39.0" font-size="10" fill="#666" text-anchor="end">$1.89</text>
<line x1="67.4" y1="334.5" x2="67.4" y2="341.5" stroke="#c62828" stroke-width="1"/>
<rect x="65.3" y="336.6" width="4.3" height="4.9" fill="#c62828"/>
<rect x="65.3" y="532.0" width="4.3" height="0.0" fill="#c62828" opacity="0.55"/>
<line x1="74.3" y1="335.4" x2="74.3" y2="341.2" stroke="#2e7d32" stroke-width="1"/>
<rect x="72.2" y="335.4" width="4.3" height="5.8" fill="#2e7d32"/>
<rect x="72.2" y="532.0" width="4.3" height="0.0" fill="#2e7d32" opacity="0.55"/>
<line x1="81.2" y1="335.4" x2="81.2" y2="335.4" stroke="#2e7d32" stroke-width="1"/>
<rect x="79.1" y="335.4" width="4.3" height="1.0" fill="#2e7d32"/>
<rect x="79.1" y="532.0" width="4.3" height="0.0" fill="#2e7d32" opacity="0.55"/>
<line x1="88.1" y1="334.0" x2="88.1" y2="334.0" stroke="#2e7d32" stroke-width="1"/>
<rect x="86.0" y="334.0" width="4.3" height="1.0" fill="#2e7d32"/>
<rect x="86.0" y="532.0" width="4.3" height="0.0" fill="#2e7d32" opacity="0.55"/>
<line x1="95.0" y1="334.0" x2="95.0" y2="338.1" stroke="#c62828" stroke-width="1"/>
<rect x="92.9" y="334.0" width="4.3" height="4.1" fill="#c62828"/>
<rect x="92.9" y="532.0" width="4.3" height="0.0" fill="#c62828" opacity="0.55"/>
<line x1="101.9" y1="335.4" x2="101.9" y2="335.4" stroke="#2e7d32" stroke-width="1"/>
<rect x="99.8" y="335.4" width="4.3" height="1.0" fill="#2e7d32"/>
<rect x="99.8" y="532.0" width="4.3" height="0.0" fill="#2e7d32" opacity="0.55"/>
<line x1="108.8" y1="335.4" x2="108.8" y2="335.5" stroke="#2e7d32" stroke-width="1"/>
<rect x="106.7" y="335.4" width="4.3" height="1.0" fill="#2e7d32"/>
<rect x="106.7" y="532.0" width="4.3" height="0.0" fill="#2e7d32" opacity="0.55"/>
<line x1="115.7" y1="335.4" x2="115.7" y2="335.4" stroke="#2e7d32" stroke-width="1"/>
<rect x="113.6" y="335.4" width="4.3" height="1.0" fill="#2e7d32"/>
<rect x="113.6" y="532.0" width="4.3" height="0.0" fill="#2e7d32" opacity="0.55"/>
<line x1="122.6" y1="337.5" x2="122.6" y2="338.1" stroke="#c62828" stroke-width="1"/>
<rect x="120.4" y="337.5" width="4.3" height="1.0" fill="#c62828"/>
<rect x="120.4" y="532.0" width="4.3" height="0.0" fill="#c62828" opacity="0.55"/>
<line x1="129.5" y1="341.7" x2="129.5" y2="341.7" stroke="#2e7d32" stroke-width="1"/>
<rect x="127.3" y="341.7" width="4.3" height="1.0" fill="#2e7d32"/>
<rect x="127.3" y="532.0" width="4.3" height="0.0" fill="#2e7d32" opacity="0.55"/>
<line x1="136.4" y1="342.7" x2="136.4" y2="342.7" stroke="#2e7d32" stroke-width="1"/>
<rect x="134.2" y="342.7" width="4.3" height="1.0" fill="#2e7d32"/>
<rect x="134.2" y="532.0" width="4.3" height="0.0" fill="#2e7d32" opacity="0.55"/>
<line x1="143.3" y1="342.7" x2="143.3" y2="342.7" stroke="#2e7d32" stroke-width="1"/>
<rect x="141.1" y="342.7" width="4.3" height="1.0" fill="#2e7d32"/>
<rect x="141.1" y="532.0" width="4.3" height="0.0" fill="#2e7d32" opacity="0.55"/>
<line x1="150.1" y1="343.6" x2="150.1" y2="343.6" stroke="#2e7d32" stroke-width="1"/>
<rect x="148.0" y="343.6" width="4.3" height="1.0" fill="#2e7d32"/>
<rect x="148.0" y="532.0" width="4.3" height="0.0" fill="#2e7d32" opacity="0.55"/>
<line x1="157.0" y1="343.6" x2="157.0" y2="345.5" stroke="#c62828" stroke-width="1"/>
<rect x="154.9" y="343.6" width="4.3" height="1.9" fill="#c62828"/>
<rect x="154.9" y="532.0" width="4.3" height="0.0" fill="#c62828" opacity="0.55"/>
<line x1="163.9" y1="345.5" x2="163.9" y2="345.5" stroke="#2e7d32" stroke-width="1"/>
<rect x="161.8" y="345.5" width="4.3" height="1.0" fill="#2e7d32"/>
<rect x="161.8" y="532.0" width="4.3" height="0.0" fill="#2e7d32" opacity="0.55"/>
<line x1="170.8" y1="342.7" x2="170.8" y2="342.7" stroke="#2e7d32" stroke-width="1"/>
<rect x="168.7" y="342.7" width="4.3" height="1.0" fill="#2e7d32"/>
<rect x="168.7" y="532.0" width="4.3" height="0.0" fill="#2e7d32" opacity="0.55"/>
<line x1="177.7" y1="345.4" x2="177.7" y2="345.4" stroke="#2e7d32" stroke-width="1"/>
<rect x="175.6" y="345.4" width="4.3" height="1.0" fill="#2e7d32"/>
<rect x="175.6" y="532.0" width="4.3" height="0.0" fill="#2e7d32" opacity="0.55"/>
<line x1="184.6" y1="342.7" x2="184.6" y2="342.7" stroke="#2e7d32" stroke-width="1"/>
<rect x="182.5" y="342.7" width="4.3" height="1.0" fill="#2e7d32"/>
<rect x="182.5" y="532.0" width="4.3" height="0.0" fill="#2e7d32" opacity="0.55"/>
<line x1="191.5" y1="342.7" x2="191.5" y2="342.7" stroke="#2e7d32" stroke-width="1"/>
<rect x="189.4" y="342.7" width="4.3" height="1.0" fill="#2e7d32"/>
<rect x="189.4" y="532.0" width="4.3" height="0.0" fill="#2e7d32" opacity="0.55"/>
<line x1="198.4" y1="345.4" x2="198.4" y2="345.4" stroke="#2e7d32" stroke-width="1"/>
<rect x="196.3" y="345.4" width="4.3" height="1.0" fill="#2e7d32"/>
<rect x="196.3" y="532.0" width="4.3" height="0.0" fill="#2e7d32" opacity="0.55"/>
<line x1="205.3" y1="342.8" x2="205.3" y2="342.8" stroke="#2e7d32" stroke-width="1"/>
<rect x="203.1" y="342.8" width="4.3" height="1.0" fill="#2e7d32"/>
<rect x="203.1" y="532.0" width="4.3" height="0.0" fill="#2e7d32" opacity="0.55"/>
<line x1="212.2" y1="342.7" x2="212.2" y2="342.7" stroke="#2e7d32" stroke-width="1"/>
<rect x="210.0" y="342.7" width="4.3" height="1.0" fill="#2e7d32"/>
<rect x="210.0" y="532.0" width="4.3" height="0.0" fill="#2e7d32" opacity="0.55"/>
<line x1="219.1" y1="342.7" x2="219.1" y2="342.7" stroke="#2e7d32" stroke-width="1"/>
<rect x="216.9" y="342.7" width="4.3" height="1.0" fill="#2e7d32"/>
<rect x="216.9" y="532.0" width="4.3" height="0.0" fill="#2e7d32" opacity="0.55"/>
<line x1="226.0" y1="344.9" x2="226.0" y2="345.4" stroke="#2e7d32" stroke-width="1"/>
<rect x="223.8" y="344.9" width="4.3" height="1.0" fill="#2e7d32"/>
<rect x="223.8" y="532.0" width="4.3" height="0.0" fill="#2e7d32" opacity="0.55"/>
<line x1="232.9" y1="342.8" x2="232.9" y2="343.0" stroke="#2e7d32" stroke-width="1"/>
<rect x="230.7" y="342.8" width="4.3" height="1.0" fill="#2e7d32"/>
<rect x="230.7" y="532.0" width="4.3" height="0.0" fill="#2e7d32" opacity="0.55"/>
<line x1="239.7" y1="346.2" x2="239.7" y2="346.3" stroke="#2e7d32" stroke-width="1"/>
<rect x="237.6" y="346.2" width="4.3" height="1.0" fill="#2e7d32"/>
<rect x="237.6" y="532.0" width="4.3" height="0.0" fill="#2e7d32" opacity="0.55"/>
<line x1="246.6" y1="342.7" x2="246.6" y2="342.7" stroke="#2e7d32" stroke-width="1"/>
<rect x="244.5" y="342.7" width="4.3" height="1.0" fill="#2e7d32"/>
<rect x="244.5" y="532.0" width="4.3" height="0.0" fill="#2e7d32" opacity="0.55"/>
<line x1="253.5" y1="342.7" x2="253.5" y2="342.8" stroke="#2e7d32" stroke-width="1"/>
<rect x="251.4" y="342.7" width="4.3" height="1.0" fill="#2e7d32"/>
<rect x="251.4" y="532.0" width="4.3" height="0.0" fill="#2e7d32" opacity="0.55"/>
<line x1="260.4" y1="343.6" x2="260.4" y2="343.6" stroke="#2e7d32" stroke-width="1"/>
<rect x="258.3" y="343.6" width="4.3" height="1.0" fill="#2e7d32"/>
<rect x="258.3" y="532.0" width="4.3" height="0.0" fill="#2e7d32" opacity="0.55"/>
<line x1="267.3" y1="343.9" x2="267.3" y2="343.9" stroke="#2e7d32" stroke-width="1"/>
<rect x="265.2" y="343.9" width="4.3" height="1.0" fill="#2e7d32"/>
<rect x="265.2" y="532.0" width="4.3" height="0.0" fill="#2e7d32" opacity="0.55"/>
<line x1="274.2" y1="343.6" x2="274.2" y2="346.4" stroke="#c62828" stroke-width="1"/>
<rect x="272.1" y="346.2" width="4.3" height="1.0" fill="#c62828"/>
<rect x="272.1" y="532.0" width="4.3" height="0.0" fill="#c62828" opacity="0.55"/>
<line x1="281.1" y1="346.3" x2="281.1" y2="346.3" stroke="#2e7d32" stroke-width="1"/>
<rect x="279.0" y="346.3" width="4.3" height="1.0" fill="#2e7d32"/>
<rect x="279.0" y="532.0" width="4.3" height="0.0" fill="#2e7d32" opacity="0.55"/>
<line x1="288.0" y1="346.3" x2="288.0" y2="346.4" stroke="#2e7d32" stroke-width="1"/>
<rect x="285.8" y="346.3" width="4.3" height="1.0" fill="#2e7d32"/>
<rect x="285.8" y="532.0" width="4.3" height="0.0" fill="#2e7d32" opacity="0.55"/>
<line x1="294.9" y1="346.3" x2="294.9" y2="346.3" stroke="#2e7d32" stroke-width="1"/>
<rect x="292.7" y="346.3" width="4.3" height="1.0" fill="#2e7d32"/>
<rect x="292.7" y="532.0" width="4.3" height="0.0" fill="#2e7d32" opacity="0.55"/>
<line x1="301.8" y1="346.3" x2="301.8" y2="346.3" stroke="#2e7d32" stroke-width="1"/>
<rect x="299.6" y="346.3" width="4.3" height="1.0" fill="#2e7d32"/>
<rect x="299.6" y="532.0" width="4.3" height="0.0" fill="#2e7d32" opacity="0.55"/>
<line x1="308.7" y1="347.8" x2="308.7" y2="353.2" stroke="#c62828" stroke-width="1"/>
<rect x="306.5" y="349.0" width="4.3" height="1.0" fill="#c62828"/>
<rect x="306.5" y="412.0" width="4.3" height="120.0" fill="#c62828" opacity="0.55"/>
<line x1="315.6" y1="349.0" x2="315.6" y2="351.4" stroke="#c62828" stroke-width="1"/>
<rect x="313.4" y="349.0" width="4.3" height="2.4" fill="#c62828"/>
<rect x="313.4" y="522.6" width="4.3" height="9.4" fill="#c62828" opacity="0.55"/>
<line x1="322.4" y1="353.3" x2="322.4" y2="384.3" stroke="#c62828" stroke-width="1"/>
<rect x="320.3" y="353.3" width="4.3" height="17.8" fill="#c62828"/>
<rect x="320.3" y="473.1" width="4.3" height="58.9" fill="#c62828" opacity="0.55"/>
<line x1="329.3" y1="367.3" x2="329.3" y2="373.4" stroke="#2e7d32" stroke-width="1"/>
<rect x="327.2" y="367.4" width="4.3" height="3.7" fill="#2e7d32"/>
<rect x="327.2" y="518.0" width="4.3" height="14.0" fill="#2e7d32" opacity="0.55"/>
<line x1="336.2" y1="367.3" x2="336.2" y2="371.0" stroke="#2e7d32" stroke-width="1"/>
<rect x="334.1" y="370.3" width="4.3" height="1.0" fill="#2e7d32"/>
<rect x="334.1" y="498.8" width="4.3" height="33.2" fill="#2e7d32" opacity="0.55"/>
<line x1="343.1" y1="366.6" x2="343.1" y2="370.3" stroke="#2e7d32" stroke-width="1"/>
<rect x="341.0" y="367.8" width="4.3" height="2.4" fill="#2e7d32"/>
<rect x="341.0" y="524.2" width="4.3" height="7.8" fill="#2e7d32" opacity="0.55"/>
<line x1="350.0" y1="366.6" x2="350.0" y2="370.3" stroke="#c62828" stroke-width="1"/>
<rect x="347.9" y="366.6" width="4.3" height="1.0" fill="#c62828"/>
<rect x="347.9" y="521.9" width="4.3" height="10.1" fill="#c62828" opacity="0.55"/>
<line x1="356.9" y1="366.6" x2="356.9" y2="370.7" stroke="#c62828" stroke-width="1"/>
<rect x="354.8" y="366.6" width="4.3" height="4.1" fill="#c62828"/>
<rect x="354.8" y="529.9" width="4.3" height="2.1" fill="#c62828" opacity="0.55"/>
<line x1="363.8" y1="362.6" x2="363.8" y2="370.4" stroke="#2e7d32" stroke-width="1"/>
<rect x="361.7" y="362.6" width="4.3" height="6.1" fill="#2e7d32"/>
<rect x="361.7" y="513.6" width="4.3" height="18.4" fill="#2e7d32" opacity="0.55"/>
<line x1="370.7" y1="362.6" x2="370.7" y2="370.4" stroke="#2e7d32" stroke-width="1"/>
<rect x="368.6" y="366.4" width="4.3" height="1.0" fill="#2e7d32"/>
<rect x="368.6" y="513.6" width="4.3" height="18.4" fill="#2e7d32" opacity="0.55"/>
<line x1="377.6" y1="356.1" x2="377.6" y2="362.6" stroke="#2e7d32" stroke-width="1"/>
<rect x="375.4" y="362.6" width="4.3" height="1.0" fill="#2e7d32"/>
<rect x="375.4" y="522.8" width="4.3" height="9.2" fill="#2e7d32" opacity="0.55"/>
<line x1="384.5" y1="354.1" x2="384.5" y2="364.4" stroke="#c62828" stroke-width="1"/>
<rect x="382.3" y="356.1" width="4.3" height="1.0" fill="#c62828"/>
<rect x="382.3" y="484.7" width="4.3" height="47.3" fill="#c62828" opacity="0.55"/>
<line x1="391.4" y1="357.1" x2="391.4" y2="357.1" stroke="#c62828" stroke-width="1"/>
<rect x="389.2" y="357.1" width="4.3" height="1.0" fill="#c62828"/>
<rect x="389.2" y="530.0" width="4.3" height="2.0" fill="#c62828" opacity="0.55"/>
<line x1="398.3" y1="357.1" x2="398.3" y2="357.1" stroke="#2e7d32" stroke-width="1"/>
<rect x="396.1" y="357.1" width="4.3" height="1.0" fill="#2e7d32"/>
<rect x="396.1" y="525.7" width="4.3" height="6.3" fill="#2e7d32" opacity="0.55"/>
<line x1="405.1" y1="357.1" x2="405.1" y2="357.1" stroke="#2e7d32" stroke-width="1"/>
<rect x="403.0" y="357.1" width="4.3" height="1.0" fill="#2e7d32"/>
<rect x="403.0" y="529.0" width="4.3" height="3.0" fill="#2e7d32" opacity="0.55"/>
<line x1="412.0" y1="357.1" x2="412.0" y2="357.1" stroke="#2e7d32" stroke-width="1"/>
<rect x="409.9" y="357.1" width="4.3" height="1.0" fill="#2e7d32"/>
<rect x="409.9" y="516.4" width="4.3" height="15.6" fill="#2e7d32" opacity="0.55"/>
<line x1="418.9" y1="355.2" x2="418.9" y2="357.1" stroke="#2e7d32" stroke-width="1"/>
<rect x="416.8" y="355.2" width="4.3" height="1.9" fill="#2e7d32"/>
<rect x="416.8" y="504.7" width="4.3" height="27.3" fill="#2e7d32" opacity="0.55"/>
<line x1="425.8" y1="357.1" x2="425.8" y2="357.1" stroke="#2e7d32" stroke-width="1"/>
<rect x="423.7" y="357.1" width="4.3" height="1.0" fill="#2e7d32"/>
<rect x="423.7" y="529.1" width="4.3" height="2.9" fill="#2e7d32" opacity="0.55"/>
<line x1="432.7" y1="357.1" x2="432.7" y2="357.1" stroke="#2e7d32" stroke-width="1"/>
<rect x="430.6" y="357.1" width="4.3" height="1.0" fill="#2e7d32"/>
<rect x="430.6" y="452.2" width="4.3" height="79.8" fill="#2e7d32" opacity="0.55"/>
<line x1="439.6" y1="357.1" x2="439.6" y2="357.1" stroke="#2e7d32" stroke-width="1"/>
<rect x="437.5" y="357.1" width="4.3" height="1.0" fill="#2e7d32"/>
<rect x="437.5" y="524.2" width="4.3" height="7.8" fill="#2e7d32" opacity="0.55"/>
<line x1="446.5" y1="357.1" x2="446.5" y2="357.1" stroke="#2e7d32" stroke-width="1"/>
<rect x="444.4" y="357.1" width="4.3" height="1.0" fill="#2e7d32"/>
<rect x="444.4" y="528.3" width="4.3" height="3.7" fill="#2e7d32" opacity="0.55"/>
<line x1="453.4" y1="357.1" x2="453.4" y2="370.4" stroke="#c62828" stroke-width="1"/>
<rect x="451.3" y="357.1" width="4.3" height="13.2" fill="#c62828"/>
<rect x="451.3" y="509.6" width="4.3" height="22.4" fill="#c62828" opacity="0.55"/>
<line x1="460.3" y1="357.7" x2="460.3" y2="367.7" stroke="#c62828" stroke-width="1"/>
<rect x="458.1" y="366.8" width="4.3" height="1.0" fill="#c62828"/>
<rect x="458.1" y="417.0" width="4.3" height="115.0" fill="#c62828" opacity="0.55"/>
<line x1="467.2" y1="357.7" x2="467.2" y2="364.4" stroke="#c62828" stroke-width="1"/>
<rect x="465.0" y="362.4" width="4.3" height="1.0" fill="#c62828"/>
<rect x="465.0" y="524.2" width="4.3" height="7.8" fill="#c62828" opacity="0.55"/>
<line x1="474.1" y1="365.1" x2="474.1" y2="365.1" stroke="#c62828" stroke-width="1"/>
<rect x="471.9" y="365.1" width="4.3" height="1.0" fill="#c62828"/>
<rect x="471.9" y="531.1" width="4.3" height="0.9" fill="#c62828" opacity="0.55"/>
<line x1="481.0" y1="362.6" x2="481.0" y2="362.6" stroke="#2e7d32" stroke-width="1"/>
<rect x="478.8" y="362.6" width="4.3" height="1.0" fill="#2e7d32"/>
<rect x="478.8" y="528.6" width="4.3" height="3.4" fill="#2e7d32" opacity="0.55"/>
<line x1="487.9" y1="365.1" x2="487.9" y2="365.1" stroke="#2e7d32" stroke-width="1"/>
<rect x="485.7" y="365.1" width="4.3" height="1.0" fill="#2e7d32"/>
<rect x="485.7" y="531.4" width="4.3" height="0.6" fill="#2e7d32" opacity="0.55"/>
<line x1="494.7" y1="363.9" x2="494.7" y2="365.1" stroke="#2e7d32" stroke-width="1"/>
<rect x="492.6" y="363.9" width="4.3" height="1.2" fill="#2e7d32"/>
<rect x="492.6" y="530.1" width="4.3" height="1.9" fill="#2e7d32" opacity="0.55"/>
<line x1="501.6" y1="365.1" x2="501.6" y2="367.8" stroke="#c62828" stroke-width="1"/>
<rect x="499.5" y="365.1" width="4.3" height="1.5" fill="#c62828"/>
<rect x="499.5" y="528.1" width="4.3" height="3.9" fill="#c62828" opacity="0.55"/>
<line x1="508.5" y1="366.5" x2="508.5" y2="368.0" stroke="#c62828" stroke-width="1"/>
<rect x="506.4" y="366.5" width="4.3" height="1.5" fill="#c62828"/>
<rect x="506.4" y="527.8" width="4.3" height="4.2" fill="#c62828" opacity="0.55"/>
<line x1="515.4" y1="362.6" x2="515.4" y2="362.6" stroke="#2e7d32" stroke-width="1"/>
<rect x="513.3" y="362.6" width="4.3" height="1.0" fill="#2e7d32"/>
<rect x="513.3" y="529.4" width="4.3" height="2.6" fill="#2e7d32" opacity="0.55"/>
<line x1="522.3" y1="368.0" x2="522.3" y2="368.8" stroke="#2e7d32" stroke-width="1"/>
<rect x="520.2" y="368.0" width="4.3" height="1.0" fill="#2e7d32"/>
<rect x="520.2" y="525.7" width="4.3" height="6.3" fill="#2e7d32" opacity="0.55"/>
<line x1="529.2" y1="368.0" x2="529.2" y2="368.0" stroke="#2e7d32" stroke-width="1"/>
<rect x="527.1" y="368.0" width="4.3" height="1.0" fill="#2e7d32"/>
<rect x="527.1" y="531.3" width="4.3" height="0.7" fill="#2e7d32" opacity="0.55"/>
<line x1="536.1" y1="365.3" x2="536.1" y2="365.3" stroke="#2e7d32" stroke-width="1"/>
<rect x="534.0" y="365.3" width="4.3" height="1.0" fill="#2e7d32"/>
<rect x="534.0" y="530.2" width="4.3" height="1.8" fill="#2e7d32" opacity="0.55"/>
<line x1="543.0" y1="363.2" x2="543.0" y2="368.0" stroke="#c62828" stroke-width="1"/>
<rect x="540.9" y="363.2" width="4.3" height="4.8" fill="#c62828"/>
<rect x="540.9" y="529.6" width="4.3" height="2.4" fill="#c62828" opacity="0.55"/>
<line x1="549.9" y1="367.8" x2="549.9" y2="367.8" stroke="#2e7d32" stroke-width="1"/>
<rect x="547.7" y="367.8" width="4.3" height="1.0" fill="#2e7d32"/>
<rect x="547.7" y="531.6" width="4.3" height="0.4" fill="#2e7d32" opacity="0.55"/>
<line x1="556.8" y1="362.6" x2="556.8" y2="362.6" stroke="#2e7d32" stroke-width="1"/>
<rect x="554.6" y="362.6" width="4.3" height="1.0" fill="#2e7d32"/>
<rect x="554.6" y="531.1" width="4.3" height="0.9" fill="#2e7d32" opacity="0.55"/>
<line x1="563.7" y1="367.6" x2="563.7" y2="367.7" stroke="#c62828" stroke-width="1"/>
<rect x="561.5" y="367.6" width="4.3" height="1.0" fill="#c62828"/>
<rect x="561.5" y="530.5" width="4.3" height="1.5" fill="#c62828" opacity="0.55"/>
<line x1="570.6" y1="364.4" x2="570.6" y2="366.2" stroke="#2e7d32" stroke-width="1"/>
<rect x="568.4" y="366.2" width="4.3" height="1.0" fill="#2e7d32"/>
<rect x="568.4" y="528.7" width="4.3" height="3.3" fill="#2e7d32" opacity="0.55"/>
<line x1="577.4" y1="362.6" x2="577.4" y2="364.4" stroke="#2e7d32" stroke-width="1"/>
<rect x="575.3" y="362.6" width="4.3" height="1.8" fill="#2e7d32"/>
<rect x="575.3" y="530.4" width="4.3" height="1.6" fill="#2e7d32" opacity="0.55"/>
<line x1="584.3" y1="366.0" x2="584.3" y2="366.2" stroke="#c62828" stroke-width="1"/>
<rect x="582.2" y="366.0" width="4.3" height="1.0" fill="#c62828"/>
<rect x="582.2" y="528.8" width="4.3" height="3.2" fill="#c62828" opacity="0.55"/>
<line x1="591.2" y1="366.2" x2="591.2" y2="366.2" stroke="#2e7d32" stroke-width="1"/>
<rect x="589.1" y="366.2" width="4.3" height="1.0" fill="#2e7d32"/>
<rect x="589.1" y="531.2" width="4.3" height="0.8" fill="#2e7d32" opacity="0.55"/>
<line x1="598.1" y1="366.2" x2="598.1" y2="366.2" stroke="#2e7d32" stroke-width="1"/>
<rect x="596.0" y="366.2" width="4.3" height="1.0" fill="#2e7d32"/>
<rect x="596.0" y="531.6" width="4.3" height="0.4" fill="#2e7d32" opacity="0.55"/>
<line x1="605.0" y1="362.6" x2="605.0" y2="366.1" stroke="#2e7d32" stroke-width="1"/>
<rect x="602.9" y="362.6" width="4.3" height="3.6" fill="#2e7d32"/>
<rect x="602.9" y="531.3" width="4.3" height="0.7" fill="#2e7d32" opacity="0.55"/>
<line x1="611.9" y1="363.0" x2="611.9" y2="366.2" stroke="#2e7d32" stroke-width="1"/>
<rect x="609.8" y="363.0" width="4.3" height="1.4" fill="#2e7d32"/>
<rect x="609.8" y="530.3" width="4.3" height="1.7" fill="#2e7d32" opacity="0.55"/>
<line x1="618.8" y1="364.4" x2="618.8" y2="366.0" stroke="#c62828" stroke-width="1"/>
<rect x="616.7" y="364.4" width="4.3" height="1.7" fill="#c62828"/>
<rect x="616.7" y="530.4" width="4.3" height="1.6" fill="#c62828" opacity="0.55"/>
<line x1="625.7" y1="365.3" x2="625.7" y2="365.3" stroke="#2e7d32" stroke-width="1"/>
<rect x="623.6" y="365.3" width="4.3" height="1.0" fill="#2e7d32"/>
<rect x="623.6" y="530.4" width="4.3" height="1.6" fill="#2e7d32" opacity="0.55"/>
<line x1="632.6" y1="365.3" x2="632.6" y2="365.3" stroke="#2e7d32" stroke-width="1"/>
<rect x="630.4" y="365.3" width="4.3" height="1.0" fill="#2e7d32"/>
<rect x="630.4" y="531.5" width="4.3" height="0.5" fill="#2e7d32" opacity="0.55"/>
<line x1="639.5" y1="363.9" x2="639.5" y2="363.9" stroke="#2e7d32" stroke-width="1"/>
<rect x="637.3" y="363.9" width="4.3" height="1.0" fill="#2e7d32"/>
<rect x="637.3" y="530.9" width="4.3" height="1.1" fill="#2e7d32" opacity="0.55"/>
<line x1="646.4" y1="363.9" x2="646.4" y2="365.3" stroke="#c62828" stroke-width="1"/>
<rect x="644.2" y="363.9" width="4.3" height="1.3" fill="#c62828"/>
<rect x="644.2" y="531.5" width="4.3" height="0.5" fill="#c62828" opacity="0.55"/>
<line x1="653.3" y1="364.7" x2="653.3" y2="364.7" stroke="#2e7d32" stroke-width="1"/>
<rect x="651.1" y="364.7" width="4.3" height="1.0" fill="#2e7d32"/>
<rect x="651.1" y="531.0" width="4.3" height="1.0" fill="#2e7d32" opacity="0.55"/>
<line x1="660.1" y1="364.0" x2="660.1" y2="364.7" stroke="#2e7d32" stroke-width="1"/>
<rect x="658.0" y="364.0" width="4.3" height="1.0" fill="#2e7d32"/>
<rect x="658.0" y="530.5" width="4.3" height="1.5" fill="#2e7d32" opacity="0.55"/>
<line x1="667.0" y1="364.7" x2="667.0" y2="364.7" stroke="#2e7d32" stroke-width="1"/>
<rect x="664.9" y="364.7" width="4.3" height="1.0" fill="#2e7d32"/>
<rect x="664.9" y="530.7" width="4.3" height="1.3" fill="#2e7d32" opacity="0.55"/>
<line x1="673.9" y1="364.7" x2="673.9" y2="364.7" stroke="#2e7d32" stroke-width="1"/>
<rect x="671.8" y="364.7" width="4.3" height="1.0" fill="#2e7d32"/>
<rect x="671.8" y="531.3" width="4.3" height="0.7" fill="#2e7d32" opacity="0.55"/>
<line x1="680.8" y1="364.7" x2="680.8" y2="364.7" stroke="#2e7d32" stroke-width="1"/>
<rect x="678.7" y="364.7" width="4.3" height="1.0" fill="#2e7d32"/>
<rect x="678.7" y="530.3" width="4.3" height="1.7" fill="#2e7d32" opacity="0.55"/>
<line x1="687.7" y1="364.7" x2="687.7" y2="364.7" stroke="#2e7d32" stroke-width="1"/>
<rect x="685.6" y="364.7" width="4.3" height="1.0" fill="#2e7d32"/>
<rect x="685.6" y="531.1" width="4.3" height="0.9" fill="#2e7d32" opacity="0.55"/>
<line x1="694.6" y1="364.7" x2="694.6" y2="364.7" stroke="#2e7d32" stroke-width="1"/>
<rect x="692.5" y="364.7" width="4.3" height="1.0" fill="#2e7d32"/>
<rect x="692.5" y="529.0" width="4.3" height="3.0" fill="#2e7d32" opacity="0.55"/>
<line x1="701.5" y1="364.7" x2="701.5" y2="364.7" stroke="#2e7d32" stroke-width="1"/>
<rect x="699.4" y="364.7" width="4.3" height="1.0" fill="#2e7d32"/>
<rect x="699.4" y="530.9" width="4.3" height="1.1" fill="#2e7d32" opacity="0.55"/>
<line x1="708.4" y1="364.7" x2="708.4" y2="364.7" stroke="#2e7d32" stroke-width="1"/>
<rect x="706.3" y="364.7" width="4.3" height="1.0" fill="#2e7d32"/>
<rect x="706.3" y="531.0" width="4.3" height="1.0" fill="#2e7d32" opacity="0.55"/>
<line x1="715.3" y1="364.7" x2="715.3" y2="364.7" stroke="#2e7d32" stroke-width="1"/>
<rect x="713.1" y="364.7" width="4.3" height="1.0" fill="#2e7d32"/>
<rect x="713.1" y="531.6" width="4.3" height="0.4" fill="#2e7d32" opacity="0.55"/>
<line x1="722.2" y1="364.7" x2="722.2" y2="364.7" stroke="#2e7d32" stroke-width="1"/>
<rect x="720.0" y="364.7" width="4.3" height="1.0" fill="#2e7d32"/>
<rect x="720.0" y="529.6" width="4.3" height="2.4" fill="#2e7d32" opacity="0.55"/>
<line x1="729.1" y1="364.3" x2="729.1" y2="364.7" stroke="#2e7d32" stroke-width="1"/>
<rect x="726.9" y="364.3" width="4.3" height="1.0" fill="#2e7d32"/>
<rect x="726.9" y="525.8" width="4.3" height="6.2" fill="#2e7d32" opacity="0.55"/>
<line x1="736.0" y1="363.6" x2="736.0" y2="364.7" stroke="#c62828" stroke-width="1"/>
<rect x="733.8" y="364.3" width="4.3" height="1.0" fill="#c62828"/>
<rect x="733.8" y="522.1" width="4.3" height="9.9" fill="#c62828" opacity="0.55"/>
<line x1="742.9" y1="363.0" x2="742.9" y2="364.5" stroke="#2e7d32" stroke-width="1"/>
<rect x="740.7" y="363.0" width="4.3" height="1.5" fill="#2e7d32"/>
<rect x="740.7" y="525.8" width="4.3" height="6.2" fill="#2e7d32" opacity="0.55"/>
<line x1="749.7" y1="359.7" x2="749.7" y2="364.5" stroke="#2e7d32" stroke-width="1"/>
<rect x="747.6" y="364.5" width="4.3" height="1.0" fill="#2e7d32"/>
<rect x="747.6" y="532.0" width="4.3" height="0.0" fill="#2e7d32" opacity="0.55"/>
<line x1="756.6" y1="364.5" x2="756.6" y2="364.5" stroke="#2e7d32" stroke-width="1"/>
<rect x="754.5" y="364.5" width="4.3" height="1.0" fill="#2e7d32"/>
<rect x="754.5" y="532.0" width="4.3" height="0.0" fill="#2e7d32" opacity="0.55"/>
<line x1="763.5" y1="361.0" x2="763.5" y2="361.0" stroke="#2e7d32" stroke-width="1"/>
<rect x="761.4" y="361.0" width="4.3" height="1.0" fill="#2e7d32"/>
<rect x="761.4" y="532.0" width="4.3" height="0.0" fill="#2e7d32" opacity="0.55"/>
<line x1="770.4" y1="363.9" x2="770.4" y2="363.9" stroke="#2e7d32" stroke-width="1"/>
<rect x="768.3" y="363.9" width="4.3" height="1.0" fill="#2e7d32"/>
<rect x="768.3" y="532.0" width="4.3" height="0.0" fill="#2e7d32" opacity="0.55"/>
<line x1="777.3" y1="363.9" x2="777.3" y2="363.9" stroke="#2e7d32" stroke-width="1"/>
<rect x="775.2" y="363.9" width="4.3" height="1.0" fill="#2e7d32"/>
<rect x="775.2" y="532.0" width="4.3" height="0.0" fill="#2e7d32" opacity="0.55"/>
<line x1="784.2" y1="364.7" x2="784.2" y2="364.7" stroke="#2e7d32" stroke-width="1"/>
<rect x="782.1" y="364.7" width="4.3" height="1.0" fill="#2e7d32"/>
<rect x="782.1" y="532.0" width="4.3" height="0.0" fill="#2e7d32" opacity="0.55"/>
<line x1="791.1" y1="360.8" x2="791.1" y2="360.8" stroke="#2e7d32" stroke-width="1"/>
<rect x="789.0" y="360.8" width="4.3" height="1.0" fill="#2e7d32"/>
<rect x="789.0" y="532.0" width="4.3" height="0.0" fill="#2e7d32" opacity="0.55"/>
<line x1="798.0" y1="359.8" x2="798.0" y2="360.1" stroke="#2e7d32" stroke-width="1"/>
<rect x="795.9" y="359.8" width="4.3" height="1.0" fill="#2e7d32"/>
<rect x="795.9" y="532.0" width="4.3" height="0.0" fill="#2e7d32" opacity="0.55"/>
<line x1="804.9" y1="359.8" x2="804.9" y2="359.8" stroke="#2e7d32" stroke-width="1"/>
<rect x="802.7" y="359.8" width="4.3" height="1.0" fill="#2e7d32"/>
<rect x="802.7" y="532.0" width="4.3" height="0.0" fill="#2e7d32" opacity="0.55"/>
<line x1="811.8" y1="229.5" x2="811.8" y2="351.7" stroke="#2e7d32" stroke-width="1"/>
<rect x="809.6" y="240.2" width="4.3" height="109.7" fill="#2e7d32"/>
<rect x="809.6" y="532.0" width="4.3" height="0.0" fill="#2e7d32" opacity="0.55"/>
<line x1="818.7" y1="199.7" x2="818.7" y2="264.8" stroke="#2e7d32" stroke-width="1"/>
<rect x="816.5" y="215.9" width="4.3" height="24.4" fill="#2e7d32"/>
<rect x="816.5" y="532.0" width="4.3" height="0.0" fill="#2e7d32" opacity="0.55"/>
<line x1="825.6" y1="196.9" x2="825.6" y2="245.8" stroke="#2e7d32" stroke-width="1"/>
<rect x="823.4" y="213.2" width="4.3" height="2.9" fill="#2e7d32"/>
<rect x="823.4" y="532.0" width="4.3" height="0.0" fill="#2e7d32" opacity="0.55"/>
<line x1="832.4" y1="190.6" x2="832.4" y2="229.5" stroke="#2e7d32" stroke-width="1"/>
<rect x="830.3" y="205.1" width="4.3" height="8.1" fill="#2e7d32"/>
<rect x="830.3" y="532.0" width="4.3" height="0.0" fill="#2e7d32" opacity="0.55"/>
<line x1="839.3" y1="137.2" x2="839.3" y2="224.1" stroke="#2e7d32" stroke-width="1"/>
<rect x="837.2" y="145.3" width="4.3" height="59.7" fill="#2e7d32"/>
<rect x="837.2" y="532.0" width="4.3" height="0.0" fill="#2e7d32" opacity="0.55"/>
<line x1="846.2" y1="88.3" x2="846.2" y2="156.2" stroke="#2e7d32" stroke-width="1"/>
<rect x="844.1" y="116.0" width="4.3" height="29.3" fill="#2e7d32"/>
<rect x="844.1" y="532.0" width="4.3" height="0.0" fill="#2e7d32" opacity="0.55"/>
<line x1="853.1" y1="55.7" x2="853.1" y2="118.2" stroke="#2e7d32" stroke-width="1"/>
<rect x="851.0" y="69.3" width="4.3" height="46.3" fill="#2e7d32"/>
<rect x="851.0" y="532.0" width="4.3" height="0.0" fill="#2e7d32" opacity="0.55"/>
<line x1="860.0" y1="66.6" x2="860.0" y2="137.2" stroke="#c62828" stroke-width="1"/>
<rect x="857.9" y="66.6" width="4.3" height="70.6" fill="#c62828"/>
<rect x="857.9" y="532.0" width="4.3" height="0.0" fill="#c62828" opacity="0.55"/>
<line x1="866.9" y1="88.3" x2="866.9" y2="137.2" stroke="#2e7d32" stroke-width="1"/>
<rect x="864.8" y="107.3" width="4.3" height="29.8" fill="#2e7d32"/>
<rect x="864.8" y="532.0" width="4.3" height="0.0" fill="#2e7d32" opacity="0.55"/>
<line x1="873.8" y1="104.6" x2="873.8" y2="142.6" stroke="#c62828" stroke-width="1"/>
<rect x="871.7" y="107.3" width="4.3" height="29.8" fill="#c62828"/>
<rect x="871.7" y="532.0" width="4.3" height="0.0" fill="#c62828" opacity="0.55"/>
<line x1="880.7" y1="120.9" x2="880.7" y2="153.5" stroke="#2e7d32" stroke-width="1"/>
<rect x="878.6" y="129.0" width="4.3" height="5.4" fill="#2e7d32"/>
<rect x="878.6" y="532.0" width="4.3" height="0.0" fill="#2e7d32" opacity="0.55"/>
<line x1="887.6" y1="120.9" x2="887.6" y2="148.0" stroke="#c62828" stroke-width="1"/>
<rect x="885.4" y="131.7" width="4.3" height="10.8" fill="#c62828"/>
<rect x="885.4" y="532.0" width="4.3" height="0.0" fill="#c62828" opacity="0.55"/>
<line x1="894.5" y1="131.7" x2="894.5" y2="145.3" stroke="#c62828" stroke-width="1"/>
<rect x="892.3" y="139.9" width="4.3" height="5.0" fill="#c62828"/>
<rect x="892.3" y="532.0" width="4.3" height="0.0" fill="#c62828" opacity="0.55"/>
<line x1="901.4" y1="134.5" x2="901.4" y2="183.3" stroke="#c62828" stroke-width="1"/>
<rect x="899.2" y="145.2" width="4.3" height="19.2" fill="#c62828"/>
<rect x="899.2" y="532.0" width="4.3" height="0.0" fill="#c62828" opacity="0.55"/>
<line x1="908.3" y1="158.9" x2="908.3" y2="177.9" stroke="#2e7d32" stroke-width="1"/>
<rect x="906.1" y="161.8" width="4.3" height="2.6" fill="#2e7d32"/>
<rect x="906.1" y="532.0" width="4.3" height="0.0" fill="#2e7d32" opacity="0.55"/>
<line x1="915.1" y1="161.6" x2="915.1" y2="177.9" stroke="#c62828" stroke-width="1"/>
<rect x="913.0" y="164.3" width="4.3" height="8.1" fill="#c62828"/>
<rect x="913.0" y="532.0" width="4.3" height="0.0" fill="#c62828" opacity="0.55"/>
<line x1="922.0" y1="167.0" x2="922.0" y2="175.2" stroke="#2e7d32" stroke-width="1"/>
<rect x="919.9" y="167.0" width="4.3" height="2.7" fill="#2e7d32"/>
<rect x="919.9" y="532.0" width="4.3" height="0.0" fill="#2e7d32" opacity="0.55"/>
<line x1="928.9" y1="150.8" x2="928.9" y2="172.5" stroke="#2e7d32" stroke-width="1"/>
<rect x="926.8" y="167.0" width="4.3" height="1.0" fill="#2e7d32"/>
<rect x="926.8" y="532.0" width="4.3" height="0.0" fill="#2e7d32" opacity="0.55"/>
<line x1="935.8" y1="156.2" x2="935.8" y2="172.5" stroke="#c62828" stroke-width="1"/>
<rect x="933.7" y="169.7" width="4.3" height="2.7" fill="#c62828"/>
<rect x="933.7" y="532.0" width="4.3" height="0.0" fill="#c62828" opacity="0.55"/>
<line x1="942.7" y1="158.9" x2="942.7" y2="175.2" stroke="#2e7d32" stroke-width="1"/>
<rect x="940.6" y="164.4" width="4.3" height="5.3" fill="#2e7d32"/>
<rect x="940.6" y="532.0" width="4.3" height="0.0" fill="#2e7d32" opacity="0.55"/>
<line x1="949.6" y1="91.0" x2="949.6" y2="172.5" stroke="#c62828" stroke-width="1"/>
<rect x="947.5" y="129.0" width="4.3" height="43.0" fill="#c62828"/>
<rect x="947.5" y="532.0" width="4.3" height="0.0" fill="#c62828" opacity="0.55"/>
<line x1="956.5" y1="91.0" x2="956.5" y2="180.6" stroke="#c62828" stroke-width="1"/>
<rect x="954.4" y="172.5" width="4.3" height="5.5" fill="#c62828"/>
<rect x="954.4" y="532.0" width="4.3" height="0.0" fill="#c62828" opacity="0.55"/>
<line x1="963.4" y1="177.9" x2="963.4" y2="224.1" stroke="#c62828" stroke-width="1"/>
<rect x="961.3" y="177.9" width="4.3" height="35.3" fill="#c62828"/>
<rect x="961.3" y="532.0" width="4.3" height="0.0" fill="#c62828" opacity="0.55"/>
<line x1="970.3" y1="207.8" x2="970.3" y2="234.9" stroke="#c62828" stroke-width="1"/>
<rect x="968.1" y="215.9" width="4.3" height="11.0" fill="#c62828"/>
<rect x="968.1" y="532.0" width="4.3" height="0.0" fill="#c62828" opacity="0.55"/>
<line x1="977.2" y1="188.8" x2="977.2" y2="229.5" stroke="#2e7d32" stroke-width="1"/>
<rect x="975.0" y="191.6" width="4.3" height="37.9" fill="#2e7d32"/>
<rect x="975.0" y="532.0" width="4.3" height="0.0" fill="#2e7d32" opacity="0.55"/>
<line x1="984.1" y1="191.5" x2="984.1" y2="221.4" stroke="#c62828" stroke-width="1"/>
<rect x="981.9" y="191.5" width="4.3" height="27.1" fill="#c62828"/>
<rect x="981.9" y="532.0" width="4.3" height="0.0" fill="#c62828" opacity="0.55"/>
<line x1="991.0" y1="207.8" x2="991.0" y2="226.8" stroke="#2e7d32" stroke-width="1"/>
<rect x="988.8" y="207.8" width="4.3" height="10.8" fill="#2e7d32"/>
<rect x="988.8" y="532.0" width="4.3" height="0.0" fill="#2e7d32" opacity="0.55"/>
<line x1="997.9" y1="191.5" x2="997.9" y2="210.4" stroke="#2e7d32" stroke-width="1"/>
<rect x="995.7" y="194.2" width="4.3" height="13.6" fill="#2e7d32"/>
<rect x="995.7" y="532.0" width="4.3" height="0.0" fill="#2e7d32" opacity="0.55"/>
<line x1="1004.7" y1="161.6" x2="1004.7" y2="196.9" stroke="#c62828" stroke-width="1"/>
<rect x="1002.6" y="191.6" width="4.3" height="5.3" fill="#c62828"/>
<rect x="1002.6" y="532.0" width="4.3" height="0.0" fill="#c62828" opacity="0.55"/>
<line x1="1011.6" y1="191.5" x2="1011.6" y2="210.5" stroke="#c62828" stroke-width="1"/>
<rect x="1009.5" y="196.8" width="4.3" height="8.2" fill="#c62828"/>
<rect x="1009.5" y="532.0" width="4.3" height="0.0" fill="#c62828" opacity="0.55"/>
<line x1="1018.5" y1="188.8" x2="1018.5" y2="210.5" stroke="#2e7d32" stroke-width="1"/>
<rect x="1016.4" y="191.5" width="4.3" height="11.2" fill="#2e7d32"/>
<rect x="1016.4" y="532.0" width="4.3" height="0.0" fill="#2e7d32" opacity="0.55"/>
<line x1="1025.4" y1="188.8" x2="1025.4" y2="210.5" stroke="#c62828" stroke-width="1"/>
<rect x="1023.3" y="191.5" width="4.3" height="18.5" fill="#c62828"/>
<rect x="1023.3" y="532.0" width="4.3" height="0.0" fill="#c62828" opacity="0.55"/>
<line x1="1032.3" y1="205.1" x2="1032.3" y2="210.5" stroke="#2e7d32" stroke-width="1"/>
<rect x="1030.2" y="205.5" width="4.3" height="2.7" fill="#2e7d32"/>
<rect x="1030.2" y="532.0" width="4.3" height="0.0" fill="#2e7d32" opacity="0.55"/>
<line x1="1039.2" y1="205.1" x2="1039.2" y2="218.6" stroke="#c62828" stroke-width="1"/>
<rect x="1037.1" y="205.5" width="4.3" height="10.8" fill="#c62828"/>
<rect x="1037.1" y="532.0" width="4.3" height="0.0" fill="#c62828" opacity="0.55"/>
<line x1="1046.1" y1="215.9" x2="1046.1" y2="218.6" stroke="#2e7d32" stroke-width="1"/>
<rect x="1044.0" y="218.2" width="4.3" height="1.0" fill="#2e7d32"/>
<rect x="1044.0" y="532.0" width="4.3" height="0.0" fill="#2e7d32" opacity="0.55"/>
<line x1="1053.0" y1="215.9" x2="1053.0" y2="221.4" stroke="#c62828" stroke-width="1"/>
<rect x="1050.9" y="218.3" width="4.3" height="2.7" fill="#c62828"/>
<rect x="1050.9" y="532.0" width="4.3" height="0.0" fill="#c62828" opacity="0.55"/>
<line x1="1059.9" y1="218.6" x2="1059.9" y2="224.1" stroke="#c62828" stroke-width="1"/>
<rect x="1057.7" y="221.4" width="4.3" height="2.4" fill="#c62828"/>
<rect x="1057.7" y="532.0" width="4.3" height="0.0" fill="#c62828" opacity="0.55"/>
<line x1="1066.8" y1="221.4" x2="1066.8" y2="224.1" stroke="#2e7d32" stroke-width="1"/>
<rect x="1064.6" y="221.8" width="4.3" height="2.3" fill="#2e7d32"/>
<rect x="1064.6" y="532.0" width="4.3" height="0.0" fill="#2e7d32" opacity="0.55"/>
<line x1="1073.7" y1="218.6" x2="1073.7" y2="224.1" stroke="#2e7d32" stroke-width="1"/>
<rect x="1071.5" y="221.0" width="4.3" height="1.0" fill="#2e7d32"/>
<rect x="1071.5" y="532.0" width="4.3" height="0.0" fill="#2e7d32" opacity="0.55"/>
<line x1="1080.6" y1="218.6" x2="1080.6" y2="218.6" stroke="#2e7d32" stroke-width="1"/>
<rect x="1078.4" y="218.6" width="4.3" height="1.0" fill="#2e7d32"/>
<rect x="1078.4" y="532.0" width="4.3" height="0.0" fill="#2e7d32" opacity="0.55"/>
<line x1="64" y1="532" x2="1084" y2="532" stroke="#ccc"/>
<text x="58" y="420" font-size="9" fill="#999" text-anchor="end">0.1M</text>
<line x1="67.4" y1="532" x2="67.4" y2="536" stroke="#999"/>
<text x="67.4" y="547.0" font-size="9" fill="#666" text-anchor="middle">06/29 04:00</text>
<line x1="232.9" y1="532" x2="232.9" y2="536" stroke="#999"/>
<text x="232.9" y="547.0" font-size="9" fill="#666" text-anchor="middle">08:05</text>
<line x1="398.3" y1="532" x2="398.3" y2="536" stroke="#999"/>
<text x="398.3" y="547.0" font-size="9" fill="#666" text-anchor="middle">10:40</text>
<line x1="563.7" y1="532" x2="563.7" y2="536" stroke="#999"/>
<text x="563.7" y="547.0" font-size="9" fill="#666" text-anchor="middle">13:20</text>
<line x1="729.1" y1="532" x2="729.1" y2="536" stroke="#999"/>
<text x="729.1" y="547.0" font-size="9" fill="#666" text-anchor="middle">15:45</text>
<line x1="894.5" y1="532" x2="894.5" y2="536" stroke="#999"/>
<text x="894.5" y="547.0" font-size="9" fill="#666" text-anchor="middle">19:20</text>
<line x1="1059.9" y1="532" x2="1059.9" y2="536" stroke="#999"/>
<text x="1059.9" y="547.0" font-size="9" fill="#666" text-anchor="middle">06/30 05:20</text>
<text x="64" y="22" font-size="15" font-weight="bold" fill="#1a1a1a">BTCT - BTC Digital Ltd.</text>
<text x="1084" y="22" font-size="11" fill="#666" text-anchor="end">last $1.22 (+55.3% over window)</text>
<rect x="934" y="28" width="10" height="8" fill="#e8f0fe"/>
<text x="948" y="35" font-size="9" fill="#666">premarket</text>
<rect x="1006" y="28" width="10" height="8" fill="#fff4e0"/>
<text x="1020" y="35" font-size="9" fill="#666">after-hrs</text>
</svg>