<svg xmlns="http://www.w3.org/2000/svg" width="1100" height="560" viewBox="0 0 1100 560" font-family="Arial,Helvetica,sans-serif">
<rect width="1100" height="560" fill="white"/>
<rect x="64.0" y="36" width="68.5" height="496.0" fill="#e8f0fe"/>
<rect x="625.3" y="36" width="328.6" height="496.0" fill="#fff4e0"/>
<rect x="953.9" y="36" width="130.1" height="496.0" fill="#e8f0fe"/>
<line x1="64" y1="404.0" x2="1084" y2="404.0" stroke="#e6e6e6"/>
<text x="58" y="407.0" font-size="10" fill="#666" text-anchor="end">$1.69</text>
<line x1="64" y1="312.0" x2="1084" y2="312.0" stroke="#e6e6e6"/>
<text x="58" y="315.0" font-size="10" fill="#666" text-anchor="end">$1.93</text>
<line x1="64" y1="220.0" x2="1084" y2="220.0" stroke="#e6e6e6"/>
<text x="58" y="223.0" font-size="10" fill="#666" text-anchor="end">$2.17</text>
<line x1="64" y1="128.0" x2="1084" y2="128.0" stroke="#e6e6e6"/>
<text x="58" y="131.0" font-size="10" fill="#666" text-anchor="end">$2.40</text>
<line x1="64" y1="36.0" x2="1084" y2="36.0" stroke="#e6e6e6"/>
<text x="58" y="39.0" font-size="10" fill="#666" text-anchor="end">$2.64</text>
<line x1="67.4" y1="379.8" x2="67.4" y2="379.8" stroke="#2e7d32" stroke-width="1"/>
<rect x="65.3" y="379.8" width="4.2" height="1.0" fill="#2e7d32"/>
<rect x="65.3" y="532.0" width="4.2" height="0.0" fill="#2e7d32" opacity="0.55"/>
<line x1="74.3" y1="382.4" x2="74.3" y2="382.4" stroke="#2e7d32" stroke-width="1"/>
<rect x="72.1" y="382.4" width="4.2" height="1.0" fill="#2e7d32"/>
<rect x="72.1" y="532.0" width="4.2" height="0.0" fill="#2e7d32" opacity="0.55"/>
<line x1="81.1" y1="372.7" x2="81.1" y2="380.4" stroke="#2e7d32" stroke-width="1"/>
<rect x="79.0" y="372.7" width="4.2" height="7.7" fill="#2e7d32"/>
<rect x="79.0" y="532.0" width="4.2" height="0.0" fill="#2e7d32" opacity="0.55"/>
<line x1="88.0" y1="372.7" x2="88.0" y2="372.7" stroke="#2e7d32" stroke-width="1"/>
<rect x="85.8" y="372.7" width="4.2" height="1.0" fill="#2e7d32"/>
<rect x="85.8" y="532.0" width="4.2" height="0.0" fill="#2e7d32" opacity="0.55"/>
<line x1="94.8" y1="345.6" x2="94.8" y2="365.0" stroke="#c62828" stroke-width="1"/>
<rect x="92.7" y="345.6" width="4.2" height="19.3" fill="#c62828"/>
<rect x="92.7" y="532.0" width="4.2" height="0.0" fill="#c62828" opacity="0.55"/>
<line x1="101.7" y1="361.1" x2="101.7" y2="361.1" stroke="#c62828" stroke-width="1"/>
<rect x="99.5" y="361.1" width="4.2" height="1.0" fill="#c62828"/>
<rect x="99.5" y="532.0" width="4.2" height="0.0" fill="#c62828" opacity="0.55"/>
<line x1="108.5" y1="347.9" x2="108.5" y2="372.7" stroke="#c62828" stroke-width="1"/>
<rect x="106.4" y="347.9" width="4.2" height="24.7" fill="#c62828"/>
<rect x="106.4" y="532.0" width="4.2" height="0.0" fill="#c62828" opacity="0.55"/>
<line x1="115.3" y1="380.4" x2="115.3" y2="384.3" stroke="#2e7d32" stroke-width="1"/>
<rect x="113.2" y="380.4" width="4.2" height="3.9" fill="#2e7d32"/>
<rect x="113.2" y="532.0" width="4.2" height="0.0" fill="#2e7d32" opacity="0.55"/>
<line x1="122.2" y1="372.8" x2="122.2" y2="380.1" stroke="#c62828" stroke-width="1"/>
<rect x="120.1" y="372.8" width="4.2" height="7.3" fill="#c62828"/>
<rect x="120.1" y="532.0" width="4.2" height="0.0" fill="#c62828" opacity="0.55"/>
<line x1="129.0" y1="384.3" x2="129.0" y2="384.3" stroke="#2e7d32" stroke-width="1"/>
<rect x="126.9" y="384.3" width="4.2" height="1.0" fill="#2e7d32"/>
<rect x="126.9" y="532.0" width="4.2" height="0.0" fill="#2e7d32" opacity="0.55"/>
<line x1="135.9" y1="349.5" x2="135.9" y2="380.4" stroke="#2e7d32" stroke-width="1"/>
<rect x="133.8" y="353.4" width="4.2" height="27.1" fill="#2e7d32"/>
<rect x="133.8" y="448.4" width="4.2" height="83.6" fill="#2e7d32" opacity="0.55"/>
<line x1="142.7" y1="353.4" x2="142.7" y2="365.0" stroke="#2e7d32" stroke-width="1"/>
<rect x="140.6" y="358.8" width="4.2" height="2.3" fill="#2e7d32"/>
<rect x="140.6" y="498.4" width="4.2" height="33.6" fill="#2e7d32" opacity="0.55"/>
<line x1="149.6" y1="341.8" x2="149.6" y2="361.2" stroke="#2e7d32" stroke-width="1"/>
<rect x="147.4" y="341.8" width="4.2" height="19.4" fill="#2e7d32"/>
<rect x="147.4" y="529.0" width="4.2" height="3.0" fill="#2e7d32" opacity="0.55"/>
<line x1="156.4" y1="345.6" x2="156.4" y2="349.5" stroke="#c62828" stroke-width="1"/>
<rect x="154.3" y="345.6" width="4.2" height="3.9" fill="#c62828"/>
<rect x="154.3" y="525.6" width="4.2" height="6.4" fill="#c62828" opacity="0.55"/>
<line x1="163.3" y1="341.8" x2="163.3" y2="349.5" stroke="#2e7d32" stroke-width="1"/>
<rect x="161.1" y="345.6" width="4.2" height="3.9" fill="#2e7d32"/>
<rect x="161.1" y="520.2" width="4.2" height="11.8" fill="#2e7d32" opacity="0.55"/>
<line x1="170.1" y1="341.8" x2="170.1" y2="343.7" stroke="#c62828" stroke-width="1"/>
<rect x="168.0" y="341.8" width="4.2" height="1.9" fill="#c62828"/>
<rect x="168.0" y="523.8" width="4.2" height="8.2" fill="#c62828" opacity="0.55"/>
<line x1="177.0" y1="337.9" x2="177.0" y2="347.6" stroke="#c62828" stroke-width="1"/>
<rect x="174.8" y="339.8" width="4.2" height="1.9" fill="#c62828"/>
<rect x="174.8" y="507.7" width="4.2" height="24.3" fill="#c62828" opacity="0.55"/>
<line x1="183.8" y1="343.7" x2="183.8" y2="347.6" stroke="#c62828" stroke-width="1"/>
<rect x="181.7" y="343.7" width="4.2" height="3.9" fill="#c62828"/>
<rect x="181.7" y="527.8" width="4.2" height="4.2" fill="#c62828" opacity="0.55"/>
<line x1="190.6" y1="343.7" x2="190.6" y2="349.5" stroke="#2e7d32" stroke-width="1"/>
<rect x="188.5" y="343.7" width="4.2" height="1.9" fill="#2e7d32"/>
<rect x="188.5" y="511.8" width="4.2" height="20.2" fill="#2e7d32" opacity="0.55"/>
<line x1="197.5" y1="343.7" x2="197.5" y2="343.7" stroke="#2e7d32" stroke-width="1"/>
<rect x="195.4" y="343.7" width="4.2" height="1.0" fill="#2e7d32"/>
<rect x="195.4" y="507.8" width="4.2" height="24.2" fill="#2e7d32" opacity="0.55"/>
<line x1="204.3" y1="341.8" x2="204.3" y2="341.8" stroke="#2e7d32" stroke-width="1"/>
<rect x="202.2" y="341.8" width="4.2" height="1.0" fill="#2e7d32"/>
<rect x="202.2" y="532.0" width="4.2" height="0.0" fill="#2e7d32" opacity="0.55"/>
<line x1="211.2" y1="339.5" x2="211.2" y2="340.8" stroke="#c62828" stroke-width="1"/>
<rect x="209.1" y="339.5" width="4.2" height="1.0" fill="#c62828"/>
<rect x="209.1" y="519.3" width="4.2" height="12.7" fill="#c62828" opacity="0.55"/>
<line x1="218.0" y1="336.0" x2="218.0" y2="339.8" stroke="#2e7d32" stroke-width="1"/>
<rect x="215.9" y="336.0" width="4.2" height="3.9" fill="#2e7d32"/>
<rect x="215.9" y="520.9" width="4.2" height="11.1" fill="#2e7d32" opacity="0.55"/>
<line x1="224.9" y1="334.0" x2="224.9" y2="336.0" stroke="#2e7d32" stroke-width="1"/>
<rect x="222.8" y="334.1" width="4.2" height="1.9" fill="#2e7d32"/>
<rect x="222.8" y="521.5" width="4.2" height="10.5" fill="#2e7d32" opacity="0.55"/>
<line x1="231.7" y1="336.0" x2="231.7" y2="337.8" stroke="#c62828" stroke-width="1"/>
<rect x="229.6" y="336.0" width="4.2" height="1.8" fill="#c62828"/>
<rect x="229.6" y="525.2" width="4.2" height="6.8" fill="#c62828" opacity="0.55"/>
<line x1="238.6" y1="337.9" x2="238.6" y2="341.8" stroke="#c62828" stroke-width="1"/>
<rect x="236.4" y="337.9" width="4.2" height="3.9" fill="#c62828"/>
<rect x="236.4" y="523.1" width="4.2" height="8.9" fill="#c62828" opacity="0.55"/>
<line x1="245.4" y1="322.4" x2="245.4" y2="339.8" stroke="#2e7d32" stroke-width="1"/>
<rect x="243.3" y="328.2" width="4.2" height="11.6" fill="#2e7d32"/>
<rect x="243.3" y="412.0" width="4.2" height="120.0" fill="#2e7d32" opacity="0.55"/>
<line x1="252.3" y1="328.2" x2="252.3" y2="328.2" stroke="#2e7d32" stroke-width="1"/>
<rect x="250.1" y="328.2" width="4.2" height="1.0" fill="#2e7d32"/>
<rect x="250.1" y="531.4" width="4.2" height="0.6" fill="#2e7d32" opacity="0.55"/>
<line x1="259.1" y1="330.2" x2="259.1" y2="330.2" stroke="#2e7d32" stroke-width="1"/>
<rect x="257.0" y="330.2" width="4.2" height="1.0" fill="#2e7d32"/>
<rect x="257.0" y="530.9" width="4.2" height="1.1" fill="#2e7d32" opacity="0.55"/>
<line x1="265.9" y1="332.1" x2="265.9" y2="334.0" stroke="#c62828" stroke-width="1"/>
<rect x="263.8" y="332.1" width="4.2" height="1.9" fill="#c62828"/>
<rect x="263.8" y="527.3" width="4.2" height="4.7" fill="#c62828" opacity="0.55"/>
<line x1="272.8" y1="328.2" x2="272.8" y2="332.1" stroke="#c62828" stroke-width="1"/>
<rect x="270.7" y="330.2" width="4.2" height="1.9" fill="#c62828"/>
<rect x="270.7" y="511.5" width="4.2" height="20.5" fill="#c62828" opacity="0.55"/>
<line x1="279.6" y1="332.1" x2="279.6" y2="336.0" stroke="#c62828" stroke-width="1"/>
<rect x="277.5" y="332.1" width="4.2" height="3.9" fill="#c62828"/>
<rect x="277.5" y="530.6" width="4.2" height="1.4" fill="#c62828" opacity="0.55"/>
<line x1="286.5" y1="336.0" x2="286.5" y2="339.8" stroke="#c62828" stroke-width="1"/>
<rect x="284.4" y="336.0" width="4.2" height="3.9" fill="#c62828"/>
<rect x="284.4" y="518.4" width="4.2" height="13.6" fill="#c62828" opacity="0.55"/>
<line x1="293.3" y1="339.2" x2="293.3" y2="339.2" stroke="#2e7d32" stroke-width="1"/>
<rect x="291.2" y="339.2" width="4.2" height="1.0" fill="#2e7d32"/>
<rect x="291.2" y="530.6" width="4.2" height="1.4" fill="#2e7d32" opacity="0.55"/>
<line x1="300.2" y1="332.1" x2="300.2" y2="337.9" stroke="#2e7d32" stroke-width="1"/>
<rect x="298.1" y="336.0" width="4.2" height="1.9" fill="#2e7d32"/>
<rect x="298.1" y="515.3" width="4.2" height="16.7" fill="#2e7d32" opacity="0.55"/>
<line x1="307.0" y1="332.1" x2="307.0" y2="335.4" stroke="#2e7d32" stroke-width="1"/>
<rect x="304.9" y="332.1" width="4.2" height="3.3" fill="#2e7d32"/>
<rect x="304.9" y="514.6" width="4.2" height="17.4" fill="#2e7d32" opacity="0.55"/>
<line x1="313.9" y1="326.3" x2="313.9" y2="331.6" stroke="#2e7d32" stroke-width="1"/>
<rect x="311.7" y="328.9" width="4.2" height="2.7" fill="#2e7d32"/>
<rect x="311.7" y="514.6" width="4.2" height="17.4" fill="#2e7d32" opacity="0.55"/>
<line x1="320.7" y1="328.2" x2="320.7" y2="328.2" stroke="#2e7d32" stroke-width="1"/>
<rect x="318.6" y="328.2" width="4.2" height="1.0" fill="#2e7d32"/>
<rect x="318.6" y="531.5" width="4.2" height="0.5" fill="#2e7d32" opacity="0.55"/>
<line x1="327.6" y1="326.3" x2="327.6" y2="326.3" stroke="#2e7d32" stroke-width="1"/>
<rect x="325.4" y="326.3" width="4.2" height="1.0" fill="#2e7d32"/>
<rect x="325.4" y="524.7" width="4.2" height="7.3" fill="#2e7d32" opacity="0.55"/>
<line x1="334.4" y1="324.4" x2="334.4" y2="324.4" stroke="#2e7d32" stroke-width="1"/>
<rect x="332.3" y="324.4" width="4.2" height="1.0" fill="#2e7d32"/>
<rect x="332.3" y="530.0" width="4.2" height="2.0" fill="#2e7d32" opacity="0.55"/>
<line x1="341.2" y1="324.4" x2="341.2" y2="324.4" stroke="#2e7d32" stroke-width="1"/>
<rect x="339.1" y="324.4" width="4.2" height="1.0" fill="#2e7d32"/>
<rect x="339.1" y="523.3" width="4.2" height="8.7" fill="#2e7d32" opacity="0.55"/>
<line x1="348.1" y1="322.4" x2="348.1" y2="324.4" stroke="#2e7d32" stroke-width="1"/>
<rect x="346.0" y="322.4" width="4.2" height="1.9" fill="#2e7d32"/>
<rect x="346.0" y="531.1" width="4.2" height="0.9" fill="#2e7d32" opacity="0.55"/>
<line x1="354.9" y1="322.5" x2="354.9" y2="324.4" stroke="#c62828" stroke-width="1"/>
<rect x="352.8" y="322.5" width="4.2" height="1.9" fill="#c62828"/>
<rect x="352.8" y="523.0" width="4.2" height="9.0" fill="#c62828" opacity="0.55"/>
<line x1="361.8" y1="318.9" x2="361.8" y2="324.4" stroke="#2e7d32" stroke-width="1"/>
<rect x="359.7" y="318.9" width="4.2" height="5.5" fill="#2e7d32"/>
<rect x="359.7" y="511.6" width="4.2" height="20.4" fill="#2e7d32" opacity="0.55"/>
<line x1="368.6" y1="320.0" x2="368.6" y2="321.6" stroke="#2e7d32" stroke-width="1"/>
<rect x="366.5" y="320.5" width="4.2" height="1.0" fill="#2e7d32"/>
<rect x="366.5" y="523.3" width="4.2" height="8.7" fill="#2e7d32" opacity="0.55"/>
<line x1="375.5" y1="321.6" x2="375.5" y2="321.6" stroke="#2e7d32" stroke-width="1"/>
<rect x="373.4" y="321.6" width="4.2" height="1.0" fill="#2e7d32"/>
<rect x="373.4" y="530.2" width="4.2" height="1.8" fill="#2e7d32" opacity="0.55"/>
<line x1="382.3" y1="318.6" x2="382.3" y2="318.6" stroke="#2e7d32" stroke-width="1"/>
<rect x="380.2" y="318.6" width="4.2" height="1.0" fill="#2e7d32"/>
<rect x="380.2" y="515.7" width="4.2" height="16.3" fill="#2e7d32" opacity="0.55"/>
<line x1="389.2" y1="318.6" x2="389.2" y2="320.5" stroke="#2e7d32" stroke-width="1"/>
<rect x="387.0" y="318.6" width="4.2" height="1.0" fill="#2e7d32"/>
<rect x="387.0" y="523.3" width="4.2" height="8.7" fill="#2e7d32" opacity="0.55"/>
<line x1="396.0" y1="308.9" x2="396.0" y2="315.6" stroke="#2e7d32" stroke-width="1"/>
<rect x="393.9" y="308.9" width="4.2" height="6.7" fill="#2e7d32"/>
<rect x="393.9" y="506.7" width="4.2" height="25.3" fill="#2e7d32" opacity="0.55"/>
<line x1="402.9" y1="308.8" x2="402.9" y2="310.8" stroke="#c62828" stroke-width="1"/>
<rect x="400.7" y="308.9" width="4.2" height="1.9" fill="#c62828"/>
<rect x="400.7" y="513.3" width="4.2" height="18.7" fill="#c62828" opacity="0.55"/>
<line x1="409.7" y1="308.9" x2="409.7" y2="316.6" stroke="#c62828" stroke-width="1"/>
<rect x="407.6" y="308.9" width="4.2" height="1.9" fill="#c62828"/>
<rect x="407.6" y="459.6" width="4.2" height="72.4" fill="#c62828" opacity="0.55"/>
<line x1="416.6" y1="312.8" x2="416.6" y2="312.8" stroke="#2e7d32" stroke-width="1"/>
<rect x="414.4" y="312.8" width="4.2" height="1.0" fill="#2e7d32"/>
<rect x="414.4" y="530.0" width="4.2" height="2.0" fill="#2e7d32" opacity="0.55"/>
<line x1="423.4" y1="310.8" x2="423.4" y2="312.8" stroke="#2e7d32" stroke-width="1"/>
<rect x="421.3" y="310.8" width="4.2" height="1.9" fill="#2e7d32"/>
<rect x="421.3" y="524.9" width="4.2" height="7.1" fill="#2e7d32" opacity="0.55"/>
<line x1="430.2" y1="308.9" x2="430.2" y2="314.7" stroke="#c62828" stroke-width="1"/>
<rect x="428.1" y="308.9" width="4.2" height="3.9" fill="#c62828"/>
<rect x="428.1" y="523.8" width="4.2" height="8.2" fill="#c62828" opacity="0.55"/>
<line x1="437.1" y1="314.7" x2="437.1" y2="320.5" stroke="#c62828" stroke-width="1"/>
<rect x="435.0" y="314.7" width="4.2" height="5.8" fill="#c62828"/>
<rect x="435.0" y="523.9" width="4.2" height="8.1" fill="#c62828" opacity="0.55"/>
<line x1="443.9" y1="314.7" x2="443.9" y2="318.6" stroke="#2e7d32" stroke-width="1"/>
<rect x="441.8" y="314.7" width="4.2" height="3.9" fill="#2e7d32"/>
<rect x="441.8" y="529.0" width="4.2" height="3.0" fill="#2e7d32" opacity="0.55"/>
<line x1="450.8" y1="312.8" x2="450.8" y2="312.8" stroke="#2e7d32" stroke-width="1"/>
<rect x="448.7" y="312.8" width="4.2" height="1.0" fill="#2e7d32"/>
<rect x="448.7" y="520.9" width="4.2" height="11.1" fill="#2e7d32" opacity="0.55"/>
<line x1="457.6" y1="314.3" x2="457.6" y2="316.6" stroke="#c62828" stroke-width="1"/>
<rect x="455.5" y="314.3" width="4.2" height="2.3" fill="#c62828"/>
<rect x="455.5" y="526.8" width="4.2" height="5.2" fill="#c62828" opacity="0.55"/>
<line x1="464.5" y1="316.6" x2="464.5" y2="318.2" stroke="#c62828" stroke-width="1"/>
<rect x="462.3" y="316.6" width="4.2" height="1.6" fill="#c62828"/>
<rect x="462.3" y="530.5" width="4.2" height="1.5" fill="#c62828" opacity="0.55"/>
<line x1="471.3" y1="314.7" x2="471.3" y2="314.7" stroke="#2e7d32" stroke-width="1"/>
<rect x="469.2" y="314.7" width="4.2" height="1.0" fill="#2e7d32"/>
<rect x="469.2" y="529.2" width="4.2" height="2.8" fill="#2e7d32" opacity="0.55"/>
<line x1="478.2" y1="312.8" x2="478.2" y2="318.6" stroke="#2e7d32" stroke-width="1"/>
<rect x="476.0" y="312.8" width="4.2" height="5.8" fill="#2e7d32"/>
<rect x="476.0" y="527.1" width="4.2" height="4.9" fill="#2e7d32" opacity="0.55"/>
<line x1="485.0" y1="310.8" x2="485.0" y2="314.4" stroke="#c62828" stroke-width="1"/>
<rect x="482.9" y="310.8" width="4.2" height="3.5" fill="#c62828"/>
<rect x="482.9" y="531.2" width="4.2" height="0.8" fill="#c62828" opacity="0.55"/>
<line x1="491.9" y1="312.8" x2="491.9" y2="312.8" stroke="#2e7d32" stroke-width="1"/>
<rect x="489.7" y="312.8" width="4.2" height="1.0" fill="#2e7d32"/>
<rect x="489.7" y="528.6" width="4.2" height="3.4" fill="#2e7d32" opacity="0.55"/>
<line x1="498.7" y1="314.7" x2="498.7" y2="318.6" stroke="#c62828" stroke-width="1"/>
<rect x="496.6" y="314.7" width="4.2" height="1.9" fill="#c62828"/>
<rect x="496.6" y="514.5" width="4.2" height="17.5" fill="#c62828" opacity="0.55"/>
<line x1="505.5" y1="318.5" x2="505.5" y2="322.4" stroke="#c62828" stroke-width="1"/>
<rect x="503.4" y="318.6" width="4.2" height="2.2" fill="#c62828"/>
<rect x="503.4" y="510.7" width="4.2" height="21.3" fill="#c62828" opacity="0.55"/>
<line x1="512.4" y1="320.5" x2="512.4" y2="320.5" stroke="#2e7d32" stroke-width="1"/>
<rect x="510.3" y="320.5" width="4.2" height="1.0" fill="#2e7d32"/>
<rect x="510.3" y="532.0" width="4.2" height="0.0" fill="#2e7d32" opacity="0.55"/>
<line x1="519.2" y1="320.5" x2="519.2" y2="320.5" stroke="#2e7d32" stroke-width="1"/>
<rect x="517.1" y="320.5" width="4.2" height="1.0" fill="#2e7d32"/>
<rect x="517.1" y="531.2" width="4.2" height="0.8" fill="#2e7d32" opacity="0.55"/>
<line x1="526.1" y1="318.6" x2="526.1" y2="321.5" stroke="#2e7d32" stroke-width="1"/>
<rect x="524.0" y="318.6" width="4.2" height="3.0" fill="#2e7d32"/>
<rect x="524.0" y="531.0" width="4.2" height="1.0" fill="#2e7d32" opacity="0.55"/>
<line x1="532.9" y1="320.5" x2="532.9" y2="320.5" stroke="#2e7d32" stroke-width="1"/>
<rect x="530.8" y="320.5" width="4.2" height="1.0" fill="#2e7d32"/>
<rect x="530.8" y="529.5" width="4.2" height="2.5" fill="#2e7d32" opacity="0.55"/>
<line x1="539.8" y1="318.6" x2="539.8" y2="320.5" stroke="#2e7d32" stroke-width="1"/>
<rect x="537.6" y="318.6" width="4.2" height="1.9" fill="#2e7d32"/>
<rect x="537.6" y="527.4" width="4.2" height="4.6" fill="#2e7d32" opacity="0.55"/>
<line x1="546.6" y1="316.6" x2="546.6" y2="322.4" stroke="#c62828" stroke-width="1"/>
<rect x="544.5" y="316.6" width="4.2" height="5.8" fill="#c62828"/>
<rect x="544.5" y="528.2" width="4.2" height="3.8" fill="#c62828" opacity="0.55"/>
<line x1="553.5" y1="316.6" x2="553.5" y2="322.4" stroke="#2e7d32" stroke-width="1"/>
<rect x="551.3" y="316.6" width="4.2" height="5.8" fill="#2e7d32"/>
<rect x="551.3" y="501.5" width="4.2" height="30.5" fill="#2e7d32" opacity="0.55"/>
<line x1="560.3" y1="310.8" x2="560.3" y2="315.0" stroke="#2e7d32" stroke-width="1"/>
<rect x="558.2" y="310.8" width="4.2" height="4.2" fill="#2e7d32"/>
<rect x="558.2" y="528.2" width="4.2" height="3.8" fill="#2e7d32" opacity="0.55"/>
<line x1="567.2" y1="307.0" x2="567.2" y2="312.8" stroke="#2e7d32" stroke-width="1"/>
<rect x="565.0" y="307.0" width="4.2" height="5.8" fill="#2e7d32"/>
<rect x="565.0" y="509.4" width="4.2" height="22.6" fill="#2e7d32" opacity="0.55"/>
<line x1="574.0" y1="307.6" x2="574.0" y2="308.9" stroke="#2e7d32" stroke-width="1"/>
<rect x="571.9" y="307.6" width="4.2" height="1.4" fill="#2e7d32"/>
<rect x="571.9" y="529.1" width="4.2" height="2.9" fill="#2e7d32" opacity="0.55"/>
<line x1="580.8" y1="303.1" x2="580.8" y2="307.0" stroke="#2e7d32" stroke-width="1"/>
<rect x="578.7" y="303.1" width="4.2" height="3.9" fill="#2e7d32"/>
<rect x="578.7" y="521.3" width="4.2" height="10.7" fill="#2e7d32" opacity="0.55"/>
<line x1="587.7" y1="291.5" x2="587.7" y2="303.3" stroke="#2e7d32" stroke-width="1"/>
<rect x="585.6" y="293.4" width="4.2" height="9.7" fill="#2e7d32"/>
<rect x="585.6" y="491.2" width="4.2" height="40.8" fill="#2e7d32" opacity="0.55"/>
<line x1="594.5" y1="287.6" x2="594.5" y2="299.2" stroke="#c62828" stroke-width="1"/>
<rect x="592.4" y="289.6" width="4.2" height="3.9" fill="#c62828"/>
<rect x="592.4" y="480.3" width="4.2" height="51.7" fill="#c62828" opacity="0.55"/>
<line x1="601.4" y1="293.4" x2="601.4" y2="298.1" stroke="#c62828" stroke-width="1"/>
<rect x="599.3" y="295.3" width="4.2" height="2.0" fill="#c62828"/>
<rect x="599.3" y="511.8" width="4.2" height="20.2" fill="#c62828" opacity="0.55"/>
<line x1="608.2" y1="295.4" x2="608.2" y2="297.3" stroke="#2e7d32" stroke-width="1"/>
<rect x="606.1" y="295.4" width="4.2" height="1.0" fill="#2e7d32"/>
<rect x="606.1" y="529.5" width="4.2" height="2.5" fill="#2e7d32" opacity="0.55"/>
<line x1="615.1" y1="295.4" x2="615.1" y2="303.1" stroke="#c62828" stroke-width="1"/>
<rect x="613.0" y="295.4" width="4.2" height="5.8" fill="#c62828"/>
<rect x="613.0" y="508.9" width="4.2" height="23.1" fill="#c62828" opacity="0.55"/>
<line x1="621.9" y1="287.6" x2="621.9" y2="301.2" stroke="#2e7d32" stroke-width="1"/>
<rect x="619.8" y="295.4" width="4.2" height="5.8" fill="#2e7d32"/>
<rect x="619.8" y="487.8" width="4.2" height="44.2" fill="#2e7d32" opacity="0.55"/>
<line x1="628.8" y1="291.5" x2="628.8" y2="291.5" stroke="#2e7d32" stroke-width="1"/>
<rect x="626.6" y="291.5" width="4.2" height="1.0" fill="#2e7d32"/>
<rect x="626.6" y="532.0" width="4.2" height="0.0" fill="#2e7d32" opacity="0.55"/>
<line x1="635.6" y1="90.5" x2="635.6" y2="283.8" stroke="#2e7d32" stroke-width="1"/>
<rect x="633.5" y="129.2" width="4.2" height="154.6" fill="#2e7d32"/>
<rect x="633.5" y="532.0" width="4.2" height="0.0" fill="#2e7d32" opacity="0.55"/>
<line x1="642.5" y1="55.7" x2="642.5" y2="167.8" stroke="#2e7d32" stroke-width="1"/>
<rect x="640.3" y="105.9" width="4.2" height="23.3" fill="#2e7d32"/>
<rect x="640.3" y="532.0" width="4.2" height="0.0" fill="#2e7d32" opacity="0.55"/>
<line x1="649.3" y1="59.6" x2="649.3" y2="129.2" stroke="#c62828" stroke-width="1"/>
<rect x="647.2" y="105.9" width="4.2" height="7.3" fill="#c62828"/>
<rect x="647.2" y="532.0" width="4.2" height="0.0" fill="#c62828" opacity="0.55"/>
<line x1="656.1" y1="98.2" x2="656.1" y2="140.8" stroke="#c62828" stroke-width="1"/>
<rect x="654.0" y="113.6" width="4.2" height="19.4" fill="#c62828"/>
<rect x="654.0" y="532.0" width="4.2" height="0.0" fill="#c62828" opacity="0.55"/>
<line x1="663.0" y1="94.4" x2="663.0" y2="194.9" stroke="#c62828" stroke-width="1"/>
<rect x="660.9" y="133.0" width="4.2" height="3.8" fill="#c62828"/>
<rect x="660.9" y="532.0" width="4.2" height="0.0" fill="#c62828" opacity="0.55"/>
<line x1="669.8" y1="117.6" x2="669.8" y2="156.2" stroke="#2e7d32" stroke-width="1"/>
<rect x="667.7" y="133.0" width="4.2" height="3.7" fill="#2e7d32"/>
<rect x="667.7" y="532.0" width="4.2" height="0.0" fill="#2e7d32" opacity="0.55"/>
<line x1="676.7" y1="117.6" x2="676.7" y2="140.8" stroke="#2e7d32" stroke-width="1"/>
<rect x="674.6" y="129.2" width="4.2" height="3.9" fill="#2e7d32"/>
<rect x="674.6" y="532.0" width="4.2" height="0.0" fill="#2e7d32" opacity="0.55"/>
<line x1="683.5" y1="71.2" x2="683.5" y2="129.9" stroke="#2e7d32" stroke-width="1"/>
<rect x="681.4" y="90.5" width="4.2" height="38.8" fill="#2e7d32"/>
<rect x="681.4" y="532.0" width="4.2" height="0.0" fill="#2e7d32" opacity="0.55"/>
<line x1="690.4" y1="75.0" x2="690.4" y2="140.8" stroke="#c62828" stroke-width="1"/>
<rect x="688.3" y="90.5" width="4.2" height="46.4" fill="#c62828"/>
<rect x="688.3" y="532.0" width="4.2" height="0.0" fill="#c62828" opacity="0.55"/>
<line x1="697.2" y1="121.4" x2="697.2" y2="136.9" stroke="#2e7d32" stroke-width="1"/>
<rect x="695.1" y="133.0" width="4.2" height="3.4" fill="#2e7d32"/>
<rect x="695.1" y="532.0" width="4.2" height="0.0" fill="#2e7d32" opacity="0.55"/>
<line x1="704.1" y1="117.6" x2="704.1" y2="136.9" stroke="#2e7d32" stroke-width="1"/>
<rect x="701.9" y="117.6" width="4.2" height="15.5" fill="#2e7d32"/>
<rect x="701.9" y="532.0" width="4.2" height="0.0" fill="#2e7d32" opacity="0.55"/>
<line x1="710.9" y1="117.6" x2="710.9" y2="140.8" stroke="#c62828" stroke-width="1"/>
<rect x="708.8" y="117.6" width="4.2" height="19.3" fill="#c62828"/>
<rect x="708.8" y="532.0" width="4.2" height="0.0" fill="#c62828" opacity="0.55"/>
<line x1="717.8" y1="133.0" x2="717.8" y2="156.2" stroke="#c62828" stroke-width="1"/>
<rect x="715.6" y="136.9" width="4.2" height="3.8" fill="#c62828"/>
<rect x="715.6" y="532.0" width="4.2" height="0.0" fill="#c62828" opacity="0.55"/>
<line x1="724.6" y1="136.9" x2="724.6" y2="163.9" stroke="#c62828" stroke-width="1"/>
<rect x="722.5" y="140.8" width="4.2" height="7.7" fill="#c62828"/>
<rect x="722.5" y="532.0" width="4.2" height="0.0" fill="#c62828" opacity="0.55"/>
<line x1="731.4" y1="129.2" x2="731.4" y2="152.9" stroke="#c62828" stroke-width="1"/>
<rect x="729.3" y="144.6" width="4.2" height="3.9" fill="#c62828"/>
<rect x="729.3" y="532.0" width="4.2" height="0.0" fill="#c62828" opacity="0.55"/>
<line x1="738.3" y1="133.0" x2="738.3" y2="148.5" stroke="#2e7d32" stroke-width="1"/>
<rect x="736.2" y="144.6" width="4.2" height="3.9" fill="#2e7d32"/>
<rect x="736.2" y="532.0" width="4.2" height="0.0" fill="#2e7d32" opacity="0.55"/>
<line x1="745.1" y1="133.0" x2="745.1" y2="152.4" stroke="#c62828" stroke-width="1"/>
<rect x="743.0" y="144.2" width="4.2" height="4.3" fill="#c62828"/>
<rect x="743.0" y="532.0" width="4.2" height="0.0" fill="#c62828" opacity="0.55"/>
<line x1="752.0" y1="133.0" x2="752.0" y2="148.5" stroke="#2e7d32" stroke-width="1"/>
<rect x="749.9" y="144.1" width="4.2" height="1.0" fill="#2e7d32"/>
<rect x="749.9" y="532.0" width="4.2" height="0.0" fill="#2e7d32" opacity="0.55"/>
<line x1="758.8" y1="129.2" x2="758.8" y2="144.6" stroke="#2e7d32" stroke-width="1"/>
<rect x="756.7" y="140.8" width="4.2" height="3.7" fill="#2e7d32"/>
<rect x="756.7" y="532.0" width="4.2" height="0.0" fill="#2e7d32" opacity="0.55"/>
<line x1="765.7" y1="133.0" x2="765.7" y2="156.2" stroke="#c62828" stroke-width="1"/>
<rect x="763.6" y="136.9" width="4.2" height="15.5" fill="#c62828"/>
<rect x="763.6" y="532.0" width="4.2" height="0.0" fill="#c62828" opacity="0.55"/>
<line x1="772.5" y1="136.9" x2="772.5" y2="152.3" stroke="#2e7d32" stroke-width="1"/>
<rect x="770.4" y="140.8" width="4.2" height="11.5" fill="#2e7d32"/>
<rect x="770.4" y="532.0" width="4.2" height="0.0" fill="#2e7d32" opacity="0.55"/>
<line x1="779.4" y1="136.9" x2="779.4" y2="144.6" stroke="#c62828" stroke-width="1"/>
<rect x="777.2" y="140.8" width="4.2" height="3.8" fill="#c62828"/>
<rect x="777.2" y="532.0" width="4.2" height="0.0" fill="#c62828" opacity="0.55"/>
<line x1="786.2" y1="140.8" x2="786.2" y2="148.5" stroke="#c62828" stroke-width="1"/>
<rect x="784.1" y="140.8" width="4.2" height="1.0" fill="#c62828"/>
<rect x="784.1" y="532.0" width="4.2" height="0.0" fill="#c62828" opacity="0.55"/>
<line x1="793.1" y1="136.9" x2="793.1" y2="144.6" stroke="#2e7d32" stroke-width="1"/>
<rect x="790.9" y="140.8" width="4.2" height="3.9" fill="#2e7d32"/>
<rect x="790.9" y="532.0" width="4.2" height="0.0" fill="#2e7d32" opacity="0.55"/>
<line x1="799.9" y1="140.8" x2="799.9" y2="148.5" stroke="#2e7d32" stroke-width="1"/>
<rect x="797.8" y="140.8" width="4.2" height="1.0" fill="#2e7d32"/>
<rect x="797.8" y="532.0" width="4.2" height="0.0" fill="#2e7d32" opacity="0.55"/>
<line x1="806.8" y1="140.8" x2="806.8" y2="148.5" stroke="#c62828" stroke-width="1"/>
<rect x="804.6" y="141.3" width="4.2" height="7.2" fill="#c62828"/>
<rect x="804.6" y="532.0" width="4.2" height="0.0" fill="#c62828" opacity="0.55"/>
<line x1="813.6" y1="140.8" x2="813.6" y2="148.5" stroke="#2e7d32" stroke-width="1"/>
<rect x="811.5" y="144.6" width="4.2" height="3.9" fill="#2e7d32"/>
<rect x="811.5" y="532.0" width="4.2" height="0.0" fill="#2e7d32" opacity="0.55"/>
<line x1="820.4" y1="136.9" x2="820.4" y2="148.5" stroke="#2e7d32" stroke-width="1"/>
<rect x="818.3" y="140.8" width="4.2" height="3.9" fill="#2e7d32"/>
<rect x="818.3" y="532.0" width="4.2" height="0.0" fill="#2e7d32" opacity="0.55"/>
<line x1="827.3" y1="140.8" x2="827.3" y2="144.6" stroke="#c62828" stroke-width="1"/>
<rect x="825.2" y="140.8" width="4.2" height="3.8" fill="#c62828"/>
<rect x="825.2" y="532.0" width="4.2" height="0.0" fill="#c62828" opacity="0.55"/>
<line x1="834.1" y1="144.4" x2="834.1" y2="148.5" stroke="#2e7d32" stroke-width="1"/>
<rect x="832.0" y="144.6" width="4.2" height="1.0" fill="#2e7d32"/>
<rect x="832.0" y="532.0" width="4.2" height="0.0" fill="#2e7d32" opacity="0.55"/>
<line x1="841.0" y1="140.9" x2="841.0" y2="148.5" stroke="#2e7d32" stroke-width="1"/>
<rect x="838.9" y="148.5" width="4.2" height="1.0" fill="#2e7d32"/>
<rect x="838.9" y="532.0" width="4.2" height="0.0" fill="#2e7d32" opacity="0.55"/>
<line x1="847.8" y1="141.3" x2="847.8" y2="148.5" stroke="#2e7d32" stroke-width="1"/>
<rect x="845.7" y="144.6" width="4.2" height="3.9" fill="#2e7d32"/>
<rect x="845.7" y="532.0" width="4.2" height="0.0" fill="#2e7d32" opacity="0.55"/>
<line x1="854.7" y1="133.0" x2="854.7" y2="148.5" stroke="#2e7d32" stroke-width="1"/>
<rect x="852.5" y="133.0" width="4.2" height="15.5" fill="#2e7d32"/>
<rect x="852.5" y="532.0" width="4.2" height="0.0" fill="#2e7d32" opacity="0.55"/>
<line x1="861.5" y1="133.0" x2="861.5" y2="140.8" stroke="#c62828" stroke-width="1"/>
<rect x="859.4" y="133.1" width="4.2" height="7.7" fill="#c62828"/>
<rect x="859.4" y="532.0" width="4.2" height="0.0" fill="#c62828" opacity="0.55"/>
<line x1="868.4" y1="136.9" x2="868.4" y2="144.6" stroke="#2e7d32" stroke-width="1"/>
<rect x="866.2" y="136.9" width="4.2" height="3.9" fill="#2e7d32"/>
<rect x="866.2" y="532.0" width="4.2" height="0.0" fill="#2e7d32" opacity="0.55"/>
<line x1="875.2" y1="129.2" x2="875.2" y2="140.8" stroke="#2e7d32" stroke-width="1"/>
<rect x="873.1" y="133.1" width="4.2" height="7.6" fill="#2e7d32"/>
<rect x="873.1" y="532.0" width="4.2" height="0.0" fill="#2e7d32" opacity="0.55"/>
<line x1="882.1" y1="129.5" x2="882.1" y2="136.9" stroke="#c62828" stroke-width="1"/>
<rect x="879.9" y="133.0" width="4.2" height="1.0" fill="#c62828"/>
<rect x="879.9" y="532.0" width="4.2" height="0.0" fill="#c62828" opacity="0.55"/>
<line x1="888.9" y1="129.2" x2="888.9" y2="140.8" stroke="#c62828" stroke-width="1"/>
<rect x="886.8" y="129.7" width="4.2" height="11.1" fill="#c62828"/>
<rect x="886.8" y="532.0" width="4.2" height="0.0" fill="#c62828" opacity="0.55"/>
<line x1="895.7" y1="136.9" x2="895.7" y2="148.5" stroke="#c62828" stroke-width="1"/>
<rect x="893.6" y="140.6" width="4.2" height="7.8" fill="#c62828"/>
<rect x="893.6" y="532.0" width="4.2" height="0.0" fill="#c62828" opacity="0.55"/>
<line x1="902.6" y1="144.6" x2="902.6" y2="156.2" stroke="#c62828" stroke-width="1"/>
<rect x="900.5" y="148.5" width="4.2" height="7.7" fill="#c62828"/>
<rect x="900.5" y="532.0" width="4.2" height="0.0" fill="#c62828" opacity="0.55"/>
<line x1="909.4" y1="148.6" x2="909.4" y2="156.2" stroke="#2e7d32" stroke-width="1"/>
<rect x="907.3" y="156.2" width="4.2" height="1.0" fill="#2e7d32"/>
<rect x="907.3" y="532.0" width="4.2" height="0.0" fill="#2e7d32" opacity="0.55"/>
<line x1="916.3" y1="148.5" x2="916.3" y2="160.1" stroke="#2e7d32" stroke-width="1"/>
<rect x="914.2" y="156.2" width="4.2" height="3.9" fill="#2e7d32"/>
<rect x="914.2" y="532.0" width="4.2" height="0.0" fill="#2e7d32" opacity="0.55"/>
<line x1="923.1" y1="136.9" x2="923.1" y2="156.0" stroke="#c62828" stroke-width="1"/>
<rect x="921.0" y="148.6" width="4.2" height="3.7" fill="#c62828"/>
<rect x="921.0" y="532.0" width="4.2" height="0.0" fill="#c62828" opacity="0.55"/>
<line x1="930.0" y1="141.1" x2="930.0" y2="152.4" stroke="#2e7d32" stroke-width="1"/>
<rect x="927.9" y="148.5" width="4.2" height="3.9" fill="#2e7d32"/>
<rect x="927.9" y="532.0" width="4.2" height="0.0" fill="#2e7d32" opacity="0.55"/>
<line x1="936.8" y1="152.4" x2="936.8" y2="195.1" stroke="#c62828" stroke-width="1"/>
<rect x="934.7" y="152.4" width="4.2" height="15.5" fill="#c62828"/>
<rect x="934.7" y="532.0" width="4.2" height="0.0" fill="#c62828" opacity="0.55"/>
<line x1="943.7" y1="160.6" x2="943.7" y2="175.5" stroke="#c62828" stroke-width="1"/>
<rect x="941.5" y="167.8" width="4.2" height="7.8" fill="#c62828"/>
<rect x="941.5" y="532.0" width="4.2" height="0.0" fill="#c62828" opacity="0.55"/>
<line x1="950.5" y1="171.7" x2="950.5" y2="198.7" stroke="#c62828" stroke-width="1"/>
<rect x="948.4" y="171.7" width="4.2" height="14.7" fill="#c62828"/>
<rect x="948.4" y="532.0" width="4.2" height="0.0" fill="#c62828" opacity="0.55"/>
<line x1="957.4" y1="156.2" x2="957.4" y2="233.5" stroke="#c62828" stroke-width="1"/>
<rect x="955.2" y="202.6" width="4.2" height="23.0" fill="#c62828"/>
<rect x="955.2" y="532.0" width="4.2" height="0.0" fill="#c62828" opacity="0.55"/>
<line x1="964.2" y1="163.9" x2="964.2" y2="229.7" stroke="#c62828" stroke-width="1"/>
<rect x="962.1" y="225.8" width="4.2" height="3.9" fill="#c62828"/>
<rect x="962.1" y="532.0" width="4.2" height="0.0" fill="#c62828" opacity="0.55"/>
<line x1="971.0" y1="206.5" x2="971.0" y2="229.5" stroke="#2e7d32" stroke-width="1"/>
<rect x="968.9" y="210.5" width="4.2" height="17.3" fill="#2e7d32"/>
<rect x="968.9" y="532.0" width="4.2" height="0.0" fill="#2e7d32" opacity="0.55"/>
<line x1="977.9" y1="214.3" x2="977.9" y2="226.0" stroke="#c62828" stroke-width="1"/>
<rect x="975.8" y="217.9" width="4.2" height="7.9" fill="#c62828"/>
<rect x="975.8" y="532.0" width="4.2" height="0.0" fill="#c62828" opacity="0.55"/>
<line x1="984.7" y1="229.7" x2="984.7" y2="237.4" stroke="#c62828" stroke-width="1"/>
<rect x="982.6" y="233.5" width="4.2" height="3.7" fill="#c62828"/>
<rect x="982.6" y="532.0" width="4.2" height="0.0" fill="#c62828" opacity="0.55"/>
<line x1="991.6" y1="210.3" x2="991.6" y2="240.3" stroke="#2e7d32" stroke-width="1"/>
<rect x="989.5" y="210.3" width="4.2" height="23.2" fill="#2e7d32"/>
<rect x="989.5" y="532.0" width="4.2" height="0.0" fill="#2e7d32" opacity="0.55"/>
<line x1="998.4" y1="211.9" x2="998.4" y2="229.5" stroke="#c62828" stroke-width="1"/>
<rect x="996.3" y="211.9" width="4.2" height="6.2" fill="#c62828"/>
<rect x="996.3" y="532.0" width="4.2" height="0.0" fill="#c62828" opacity="0.55"/>
<line x1="1005.3" y1="210.3" x2="1005.3" y2="218.1" stroke="#2e7d32" stroke-width="1"/>
<rect x="1003.2" y="217.9" width="4.2" height="1.0" fill="#2e7d32"/>
<rect x="1003.2" y="532.0" width="4.2" height="0.0" fill="#2e7d32" opacity="0.55"/>
<line x1="1012.1" y1="210.5" x2="1012.1" y2="229.7" stroke="#c62828" stroke-width="1"/>
<rect x="1010.0" y="218.1" width="4.2" height="3.9" fill="#c62828"/>
<rect x="1010.0" y="532.0" width="4.2" height="0.0" fill="#c62828" opacity="0.55"/>
<line x1="1019.0" y1="221.9" x2="1019.0" y2="229.7" stroke="#c62828" stroke-width="1"/>
<rect x="1016.8" y="221.9" width="4.2" height="7.6" fill="#c62828"/>
<rect x="1016.8" y="532.0" width="4.2" height="0.0" fill="#c62828" opacity="0.55"/>
<line x1="1025.8" y1="229.8" x2="1025.8" y2="248.9" stroke="#2e7d32" stroke-width="1"/>
<rect x="1023.7" y="233.5" width="4.2" height="1.0" fill="#2e7d32"/>
<rect x="1023.7" y="532.0" width="4.2" height="0.0" fill="#2e7d32" opacity="0.55"/>
<line x1="1032.7" y1="221.9" x2="1032.7" y2="241.3" stroke="#c62828" stroke-width="1"/>
<rect x="1030.5" y="233.5" width="4.2" height="7.7" fill="#c62828"/>
<rect x="1030.5" y="532.0" width="4.2" height="0.0" fill="#c62828" opacity="0.55"/>
<line x1="1039.5" y1="241.3" x2="1039.5" y2="260.6" stroke="#c62828" stroke-width="1"/>
<rect x="1037.4" y="245.1" width="4.2" height="11.6" fill="#c62828"/>
<rect x="1037.4" y="532.0" width="4.2" height="0.0" fill="#c62828" opacity="0.55"/>
<line x1="1046.3" y1="249.1" x2="1046.3" y2="256.7" stroke="#2e7d32" stroke-width="1"/>
<rect x="1044.2" y="249.1" width="4.2" height="7.6" fill="#2e7d32"/>
<rect x="1044.2" y="532.0" width="4.2" height="0.0" fill="#2e7d32" opacity="0.55"/>
<line x1="1053.2" y1="241.3" x2="1053.2" y2="256.7" stroke="#c62828" stroke-width="1"/>
<rect x="1051.1" y="252.9" width="4.2" height="3.9" fill="#c62828"/>
<rect x="1051.1" y="532.0" width="4.2" height="0.0" fill="#c62828" opacity="0.55"/>
<line x1="1060.0" y1="241.3" x2="1060.0" y2="256.7" stroke="#2e7d32" stroke-width="1"/>
<rect x="1057.9" y="241.3" width="4.2" height="14.2" fill="#2e7d32"/>
<rect x="1057.9" y="532.0" width="4.2" height="0.0" fill="#2e7d32" opacity="0.55"/>
<line x1="1066.9" y1="229.8" x2="1066.9" y2="249.0" stroke="#c62828" stroke-width="1"/>
<rect x="1064.8" y="229.8" width="4.2" height="19.2" fill="#c62828"/>
<rect x="1064.8" y="532.0" width="4.2" height="0.0" fill="#c62828" opacity="0.55"/>
<line x1="1073.7" y1="252.9" x2="1073.7" y2="256.7" stroke="#c62828" stroke-width="1"/>
<rect x="1071.6" y="252.9" width="4.2" height="3.9" fill="#c62828"/>
<rect x="1071.6" y="532.0" width="4.2" height="0.0" fill="#c62828" opacity="0.55"/>
<line x1="1080.6" y1="256.6" x2="1080.6" y2="256.6" stroke="#2e7d32" stroke-width="1"/>
<rect x="1078.5" y="256.6" width="4.2" height="1.0" fill="#2e7d32"/>
<rect x="1078.5" y="532.0" width="4.2" height="0.0" fill="#2e7d32" opacity="0.55"/>
<line x1="64" y1="532" x2="1084" y2="532" stroke="#ccc"/>
<text x="58" y="420" font-size="9" fill="#999" text-anchor="end">0.1M</text>
<line x1="67.4" y1="532" x2="67.4" y2="536" stroke="#999"/>
<text x="67.4" y="547.0" font-size="9" fill="#666" text-anchor="middle">06/29 07:15</text>
<line x1="231.7" y1="532" x2="231.7" y2="536" stroke="#999"/>
<text x="231.7" y="547.0" font-size="9" fill="#666" text-anchor="middle">10:40</text>
<line x1="396.0" y1="532" x2="396.0" y2="536" stroke="#999"/>
<text x="396.0" y="547.0" font-size="9" fill="#666" text-anchor="middle">12:50</text>
<line x1="560.3" y1="532" x2="560.3" y2="536" stroke="#999"/>
<text x="560.3" y="547.0" font-size="9" fill="#666" text-anchor="middle">15:10</text>
<line x1="724.6" y1="532" x2="724.6" y2="536" stroke="#999"/>
<text x="724.6" y="547.0" font-size="9" fill="#666" text-anchor="middle">17:10</text>
<line x1="888.9" y1="532" x2="888.9" y2="536" stroke="#999"/>
<text x="888.9" y="547.0" font-size="9" fill="#666" text-anchor="middle">19:10</text>
<line x1="1053.2" y1="532" x2="1053.2" y2="536" stroke="#999"/>
<text x="1053.2" y="547.0" font-size="9" fill="#666" text-anchor="middle">06/30 05:10</text>
<text x="64" y="22" font-size="15" font-weight="bold" fill="#1a1a1a">GANX - Gain Therapeutics, Inc.</text>
<text x="1084" y="22" font-size="11" fill="#666" text-anchor="end">last $2.07 (+18.2% over window)</text>
<rect x="934" y="28" width="10" height="8" fill="#e8f0fe"/>
<text x="948" y="35" font-size="9" fill="#666">premarket</text>
<rect x="1006" y="28" width="10" height="8" fill="#fff4e0"/>
<text x="1020" y="35" font-size="9" fill="#666">after-hrs</text>
</svg>