<svg xmlns="http://www.w3.org/2000/svg" width="1100" height="560" viewBox="0 0 1100 560" font-family="Arial,Helvetica,sans-serif">
<rect width="1100" height="560" fill="white"/>
<rect x="64.0" y="36" width="52.2" height="496.0" fill="#e8f0fe"/>
<rect x="469.7" y="36" width="5.8" height="496.0" fill="#fff4e0"/>
<rect x="840.6" y="36" width="243.4" height="496.0" fill="#fff4e0"/>
<line x1="64" y1="404.0" x2="1084" y2="404.0" stroke="#e6e6e6"/>
<text x="58" y="407.0" font-size="10" fill="#666" text-anchor="end">$1.50</text>
<line x1="64" y1="312.0" x2="1084" y2="312.0" stroke="#e6e6e6"/>
<text x="58" y="315.0" font-size="10" fill="#666" text-anchor="end">$1.72</text>
<line x1="64" y1="220.0" x2="1084" y2="220.0" stroke="#e6e6e6"/>
<text x="58" y="223.0" font-size="10" fill="#666" text-anchor="end">$1.95</text>
<line x1="64" y1="128.0" x2="1084" y2="128.0" stroke="#e6e6e6"/>
<text x="58" y="131.0" font-size="10" fill="#666" text-anchor="end">$2.17</text>
<line x1="64" y1="36.0" x2="1084" y2="36.0" stroke="#e6e6e6"/>
<text x="58" y="39.0" font-size="10" fill="#666" text-anchor="end">$2.39</text>
<line x1="66.9" y1="322.1" x2="66.9" y2="338.6" stroke="#c62828" stroke-width="1"/>
<rect x="65.1" y="323.3" width="3.6" height="14.0" fill="#c62828"/>
<rect x="65.1" y="532.0" width="3.6" height="0.0" fill="#c62828" opacity="0.55"/>
<line x1="72.7" y1="336.6" x2="72.7" y2="336.6" stroke="#2e7d32" stroke-width="1"/>
<rect x="70.9" y="336.6" width="3.6" height="1.0" fill="#2e7d32"/>
<rect x="70.9" y="532.0" width="3.6" height="0.0" fill="#2e7d32" opacity="0.55"/>
<line x1="78.5" y1="317.3" x2="78.5" y2="317.3" stroke="#2e7d32" stroke-width="1"/>
<rect x="76.7" y="317.3" width="3.6" height="1.0" fill="#2e7d32"/>
<rect x="76.7" y="532.0" width="3.6" height="0.0" fill="#2e7d32" opacity="0.55"/>
<line x1="84.3" y1="326.2" x2="84.3" y2="326.2" stroke="#2e7d32" stroke-width="1"/>
<rect x="82.5" y="326.2" width="3.6" height="1.0" fill="#2e7d32"/>
<rect x="82.5" y="532.0" width="3.6" height="0.0" fill="#2e7d32" opacity="0.55"/>
<line x1="90.1" y1="336.9" x2="90.1" y2="336.9" stroke="#2e7d32" stroke-width="1"/>
<rect x="88.3" y="336.9" width="3.6" height="1.0" fill="#2e7d32"/>
<rect x="88.3" y="532.0" width="3.6" height="0.0" fill="#2e7d32" opacity="0.55"/>
<line x1="95.9" y1="336.9" x2="95.9" y2="336.9" stroke="#2e7d32" stroke-width="1"/>
<rect x="94.1" y="336.9" width="3.6" height="1.0" fill="#2e7d32"/>
<rect x="94.1" y="532.0" width="3.6" height="0.0" fill="#2e7d32" opacity="0.55"/>
<line x1="101.7" y1="317.8" x2="101.7" y2="317.8" stroke="#2e7d32" stroke-width="1"/>
<rect x="99.9" y="317.8" width="3.6" height="1.0" fill="#2e7d32"/>
<rect x="99.9" y="532.0" width="3.6" height="0.0" fill="#2e7d32" opacity="0.55"/>
<line x1="107.5" y1="322.0" x2="107.5" y2="322.0" stroke="#2e7d32" stroke-width="1"/>
<rect x="105.7" y="322.0" width="3.6" height="1.0" fill="#2e7d32"/>
<rect x="105.7" y="532.0" width="3.6" height="0.0" fill="#2e7d32" opacity="0.55"/>
<line x1="113.3" y1="338.6" x2="113.3" y2="338.6" stroke="#2e7d32" stroke-width="1"/>
<rect x="111.5" y="338.6" width="3.6" height="1.0" fill="#2e7d32"/>
<rect x="111.5" y="532.0" width="3.6" height="0.0" fill="#2e7d32" opacity="0.55"/>
<line x1="119.1" y1="322.0" x2="119.1" y2="322.0" stroke="#2e7d32" stroke-width="1"/>
<rect x="117.3" y="322.0" width="3.6" height="1.0" fill="#2e7d32"/>
<rect x="117.3" y="523.3" width="3.6" height="8.7" fill="#2e7d32" opacity="0.55"/>
<line x1="124.9" y1="326.2" x2="124.9" y2="326.2" stroke="#2e7d32" stroke-width="1"/>
<rect x="123.1" y="326.2" width="3.6" height="1.0" fill="#2e7d32"/>
<rect x="123.1" y="531.6" width="3.6" height="0.4" fill="#2e7d32" opacity="0.55"/>
<line x1="130.6" y1="326.2" x2="130.6" y2="326.2" stroke="#2e7d32" stroke-width="1"/>
<rect x="128.9" y="326.2" width="3.6" height="1.0" fill="#2e7d32"/>
<rect x="128.9" y="531.8" width="3.6" height="0.2" fill="#2e7d32" opacity="0.55"/>
<line x1="136.4" y1="326.2" x2="136.4" y2="326.2" stroke="#2e7d32" stroke-width="1"/>
<rect x="134.6" y="326.2" width="3.6" height="1.0" fill="#2e7d32"/>
<rect x="134.6" y="531.6" width="3.6" height="0.4" fill="#2e7d32" opacity="0.55"/>
<line x1="142.2" y1="326.2" x2="142.2" y2="326.2" stroke="#2e7d32" stroke-width="1"/>
<rect x="140.4" y="326.2" width="3.6" height="1.0" fill="#2e7d32"/>
<rect x="140.4" y="531.7" width="3.6" height="0.3" fill="#2e7d32" opacity="0.55"/>
<line x1="148.0" y1="325.9" x2="148.0" y2="325.9" stroke="#2e7d32" stroke-width="1"/>
<rect x="146.2" y="325.9" width="3.6" height="1.0" fill="#2e7d32"/>
<rect x="146.2" y="531.7" width="3.6" height="0.3" fill="#2e7d32" opacity="0.55"/>
<line x1="153.8" y1="322.0" x2="153.8" y2="324.1" stroke="#2e7d32" stroke-width="1"/>
<rect x="152.0" y="322.0" width="3.6" height="2.1" fill="#2e7d32"/>
<rect x="152.0" y="523.4" width="3.6" height="8.6" fill="#2e7d32" opacity="0.55"/>
<line x1="159.6" y1="317.8" x2="159.6" y2="319.9" stroke="#2e7d32" stroke-width="1"/>
<rect x="157.8" y="317.8" width="3.6" height="2.1" fill="#2e7d32"/>
<rect x="157.8" y="524.0" width="3.6" height="8.0" fill="#2e7d32" opacity="0.55"/>
<line x1="165.4" y1="317.3" x2="165.4" y2="317.3" stroke="#2e7d32" stroke-width="1"/>
<rect x="163.6" y="317.3" width="3.6" height="1.0" fill="#2e7d32"/>
<rect x="163.6" y="532.0" width="3.6" height="0.0" fill="#2e7d32" opacity="0.55"/>
<line x1="171.2" y1="315.8" x2="171.2" y2="317.8" stroke="#c62828" stroke-width="1"/>
<rect x="169.4" y="315.8" width="3.6" height="2.0" fill="#c62828"/>
<rect x="169.4" y="522.9" width="3.6" height="9.1" fill="#c62828" opacity="0.55"/>
<line x1="177.0" y1="315.8" x2="177.0" y2="315.8" stroke="#2e7d32" stroke-width="1"/>
<rect x="175.2" y="315.8" width="3.6" height="1.0" fill="#2e7d32"/>
<rect x="175.2" y="530.7" width="3.6" height="1.3" fill="#2e7d32" opacity="0.55"/>
<line x1="182.8" y1="317.8" x2="182.8" y2="319.9" stroke="#c62828" stroke-width="1"/>
<rect x="181.0" y="317.8" width="3.6" height="2.1" fill="#c62828"/>
<rect x="181.0" y="530.7" width="3.6" height="1.3" fill="#c62828" opacity="0.55"/>
<line x1="188.6" y1="319.9" x2="188.6" y2="324.1" stroke="#c62828" stroke-width="1"/>
<rect x="186.8" y="319.9" width="3.6" height="4.2" fill="#c62828"/>
<rect x="186.8" y="522.6" width="3.6" height="9.4" fill="#c62828" opacity="0.55"/>
<line x1="194.4" y1="324.1" x2="194.4" y2="324.1" stroke="#2e7d32" stroke-width="1"/>
<rect x="192.6" y="324.1" width="3.6" height="1.0" fill="#2e7d32"/>
<rect x="192.6" y="530.0" width="3.6" height="2.0" fill="#2e7d32" opacity="0.55"/>
<line x1="200.2" y1="324.1" x2="200.2" y2="324.1" stroke="#2e7d32" stroke-width="1"/>
<rect x="198.4" y="324.1" width="3.6" height="1.0" fill="#2e7d32"/>
<rect x="198.4" y="531.7" width="3.6" height="0.3" fill="#2e7d32" opacity="0.55"/>
<line x1="206.0" y1="324.1" x2="206.0" y2="324.1" stroke="#2e7d32" stroke-width="1"/>
<rect x="204.2" y="324.1" width="3.6" height="1.0" fill="#2e7d32"/>
<rect x="204.2" y="529.5" width="3.6" height="2.5" fill="#2e7d32" opacity="0.55"/>
<line x1="211.8" y1="324.1" x2="211.8" y2="326.2" stroke="#c62828" stroke-width="1"/>
<rect x="210.0" y="324.1" width="3.6" height="2.1" fill="#c62828"/>
<rect x="210.0" y="532.0" width="3.6" height="0.0" fill="#c62828" opacity="0.55"/>
<line x1="217.6" y1="324.1" x2="217.6" y2="332.4" stroke="#c62828" stroke-width="1"/>
<rect x="215.8" y="326.2" width="3.6" height="6.2" fill="#c62828"/>
<rect x="215.8" y="525.2" width="3.6" height="6.8" fill="#c62828" opacity="0.55"/>
<line x1="223.4" y1="332.4" x2="223.4" y2="346.6" stroke="#c62828" stroke-width="1"/>
<rect x="221.6" y="332.4" width="3.6" height="14.2" fill="#c62828"/>
<rect x="221.6" y="462.7" width="3.6" height="69.3" fill="#c62828" opacity="0.55"/>
<line x1="229.2" y1="346.9" x2="229.2" y2="349.0" stroke="#c62828" stroke-width="1"/>
<rect x="227.4" y="346.9" width="3.6" height="2.1" fill="#c62828"/>
<rect x="227.4" y="524.1" width="3.6" height="7.9" fill="#c62828" opacity="0.55"/>
<line x1="235.0" y1="347.4" x2="235.0" y2="349.0" stroke="#c62828" stroke-width="1"/>
<rect x="233.2" y="347.4" width="3.6" height="1.6" fill="#c62828"/>
<rect x="233.2" y="530.3" width="3.6" height="1.7" fill="#c62828" opacity="0.55"/>
<line x1="240.8" y1="344.8" x2="240.8" y2="349.0" stroke="#2e7d32" stroke-width="1"/>
<rect x="239.0" y="349.0" width="3.6" height="1.0" fill="#2e7d32"/>
<rect x="239.0" y="517.3" width="3.6" height="14.7" fill="#2e7d32" opacity="0.55"/>
<line x1="246.6" y1="349.0" x2="246.6" y2="353.1" stroke="#c62828" stroke-width="1"/>
<rect x="244.8" y="349.0" width="3.6" height="4.2" fill="#c62828"/>
<rect x="244.8" y="528.6" width="3.6" height="3.4" fill="#c62828" opacity="0.55"/>
<line x1="252.4" y1="349.0" x2="252.4" y2="351.1" stroke="#2e7d32" stroke-width="1"/>
<rect x="250.6" y="349.0" width="3.6" height="2.1" fill="#2e7d32"/>
<rect x="250.6" y="528.3" width="3.6" height="3.7" fill="#2e7d32" opacity="0.55"/>
<line x1="258.1" y1="346.9" x2="258.1" y2="349.0" stroke="#2e7d32" stroke-width="1"/>
<rect x="256.4" y="347.3" width="3.6" height="1.0" fill="#2e7d32"/>
<rect x="256.4" y="505.0" width="3.6" height="27.0" fill="#2e7d32" opacity="0.55"/>
<line x1="263.9" y1="349.0" x2="263.9" y2="349.0" stroke="#2e7d32" stroke-width="1"/>
<rect x="262.1" y="349.0" width="3.6" height="1.0" fill="#2e7d32"/>
<rect x="262.1" y="531.8" width="3.6" height="0.2" fill="#2e7d32" opacity="0.55"/>
<line x1="269.7" y1="349.0" x2="269.7" y2="349.0" stroke="#2e7d32" stroke-width="1"/>
<rect x="267.9" y="349.0" width="3.6" height="1.0" fill="#2e7d32"/>
<rect x="267.9" y="531.9" width="3.6" height="0.1" fill="#2e7d32" opacity="0.55"/>
<line x1="275.5" y1="347.2" x2="275.5" y2="349.0" stroke="#2e7d32" stroke-width="1"/>
<rect x="273.7" y="349.0" width="3.6" height="1.0" fill="#2e7d32"/>
<rect x="273.7" y="530.6" width="3.6" height="1.4" fill="#2e7d32" opacity="0.55"/>
<line x1="281.3" y1="344.8" x2="281.3" y2="349.4" stroke="#2e7d32" stroke-width="1"/>
<rect x="279.5" y="346.9" width="3.6" height="2.1" fill="#2e7d32"/>
<rect x="279.5" y="521.7" width="3.6" height="10.3" fill="#2e7d32" opacity="0.55"/>
<line x1="287.1" y1="342.8" x2="287.1" y2="347.0" stroke="#2e7d32" stroke-width="1"/>
<rect x="285.3" y="344.8" width="3.6" height="2.1" fill="#2e7d32"/>
<rect x="285.3" y="505.5" width="3.6" height="26.5" fill="#2e7d32" opacity="0.55"/>
<line x1="292.9" y1="346.1" x2="292.9" y2="349.0" stroke="#c62828" stroke-width="1"/>
<rect x="291.1" y="346.1" width="3.6" height="2.9" fill="#c62828"/>
<rect x="291.1" y="523.9" width="3.6" height="8.1" fill="#c62828" opacity="0.55"/>
<line x1="298.7" y1="349.0" x2="298.7" y2="349.0" stroke="#2e7d32" stroke-width="1"/>
<rect x="296.9" y="349.0" width="3.6" height="1.0" fill="#2e7d32"/>
<rect x="296.9" y="529.0" width="3.6" height="3.0" fill="#2e7d32" opacity="0.55"/>
<line x1="304.5" y1="347.4" x2="304.5" y2="349.0" stroke="#2e7d32" stroke-width="1"/>
<rect x="302.7" y="347.4" width="3.6" height="1.6" fill="#2e7d32"/>
<rect x="302.7" y="532.0" width="3.6" height="0.0" fill="#2e7d32" opacity="0.55"/>
<line x1="310.3" y1="349.0" x2="310.3" y2="349.0" stroke="#2e7d32" stroke-width="1"/>
<rect x="308.5" y="349.0" width="3.6" height="1.0" fill="#2e7d32"/>
<rect x="308.5" y="528.9" width="3.6" height="3.1" fill="#2e7d32" opacity="0.55"/>
<line x1="316.1" y1="347.5" x2="316.1" y2="349.0" stroke="#2e7d32" stroke-width="1"/>
<rect x="314.3" y="349.0" width="3.6" height="1.0" fill="#2e7d32"/>
<rect x="314.3" y="530.9" width="3.6" height="1.1" fill="#2e7d32" opacity="0.55"/>
<line x1="321.9" y1="349.0" x2="321.9" y2="351.1" stroke="#2e7d32" stroke-width="1"/>
<rect x="320.1" y="349.0" width="3.6" height="1.8" fill="#2e7d32"/>
<rect x="320.1" y="529.8" width="3.6" height="2.2" fill="#2e7d32" opacity="0.55"/>
<line x1="327.7" y1="349.0" x2="327.7" y2="351.1" stroke="#2e7d32" stroke-width="1"/>
<rect x="325.9" y="349.0" width="3.6" height="2.1" fill="#2e7d32"/>
<rect x="325.9" y="529.5" width="3.6" height="2.5" fill="#2e7d32" opacity="0.55"/>
<line x1="333.5" y1="346.9" x2="333.5" y2="351.1" stroke="#2e7d32" stroke-width="1"/>
<rect x="331.7" y="349.0" width="3.6" height="2.1" fill="#2e7d32"/>
<rect x="331.7" y="524.8" width="3.6" height="7.2" fill="#2e7d32" opacity="0.55"/>
<line x1="339.3" y1="351.1" x2="339.3" y2="351.1" stroke="#2e7d32" stroke-width="1"/>
<rect x="337.5" y="351.1" width="3.6" height="1.0" fill="#2e7d32"/>
<rect x="337.5" y="530.3" width="3.6" height="1.7" fill="#2e7d32" opacity="0.55"/>
<line x1="345.1" y1="347.3" x2="345.1" y2="351.1" stroke="#2e7d32" stroke-width="1"/>
<rect x="343.3" y="347.3" width="3.6" height="3.7" fill="#2e7d32"/>
<rect x="343.3" y="530.3" width="3.6" height="1.7" fill="#2e7d32" opacity="0.55"/>
<line x1="350.9" y1="346.9" x2="350.9" y2="349.0" stroke="#2e7d32" stroke-width="1"/>
<rect x="349.1" y="349.0" width="3.6" height="1.0" fill="#2e7d32"/>
<rect x="349.1" y="522.2" width="3.6" height="9.8" fill="#2e7d32" opacity="0.55"/>
<line x1="356.7" y1="347.3" x2="356.7" y2="351.1" stroke="#2e7d32" stroke-width="1"/>
<rect x="354.9" y="347.3" width="3.6" height="1.7" fill="#2e7d32"/>
<rect x="354.9" y="530.2" width="3.6" height="1.8" fill="#2e7d32" opacity="0.55"/>
<line x1="362.5" y1="346.9" x2="362.5" y2="351.1" stroke="#2e7d32" stroke-width="1"/>
<rect x="360.7" y="349.0" width="3.6" height="1.0" fill="#2e7d32"/>
<rect x="360.7" y="528.5" width="3.6" height="3.5" fill="#2e7d32" opacity="0.55"/>
<line x1="368.3" y1="344.8" x2="368.3" y2="349.0" stroke="#2e7d32" stroke-width="1"/>
<rect x="366.5" y="346.9" width="3.6" height="1.0" fill="#2e7d32"/>
<rect x="366.5" y="523.7" width="3.6" height="8.3" fill="#2e7d32" opacity="0.55"/>
<line x1="374.1" y1="342.8" x2="374.1" y2="343.2" stroke="#2e7d32" stroke-width="1"/>
<rect x="372.3" y="342.8" width="3.6" height="1.0" fill="#2e7d32"/>
<rect x="372.3" y="529.0" width="3.6" height="3.0" fill="#2e7d32" opacity="0.55"/>
<line x1="379.9" y1="342.8" x2="379.9" y2="346.9" stroke="#c62828" stroke-width="1"/>
<rect x="378.1" y="342.8" width="3.6" height="4.2" fill="#c62828"/>
<rect x="378.1" y="526.9" width="3.6" height="5.1" fill="#c62828" opacity="0.55"/>
<line x1="385.6" y1="344.8" x2="385.6" y2="346.9" stroke="#2e7d32" stroke-width="1"/>
<rect x="383.9" y="344.8" width="3.6" height="2.1" fill="#2e7d32"/>
<rect x="383.9" y="529.5" width="3.6" height="2.5" fill="#2e7d32" opacity="0.55"/>
<line x1="391.4" y1="344.8" x2="391.4" y2="346.9" stroke="#c62828" stroke-width="1"/>
<rect x="389.6" y="344.8" width="3.6" height="2.1" fill="#c62828"/>
<rect x="389.6" y="528.1" width="3.6" height="3.9" fill="#c62828" opacity="0.55"/>
<line x1="397.2" y1="346.1" x2="397.2" y2="351.1" stroke="#c62828" stroke-width="1"/>
<rect x="395.4" y="346.1" width="3.6" height="2.9" fill="#c62828"/>
<rect x="395.4" y="516.8" width="3.6" height="15.2" fill="#c62828" opacity="0.55"/>
<line x1="403.0" y1="349.0" x2="403.0" y2="351.1" stroke="#2e7d32" stroke-width="1"/>
<rect x="401.2" y="349.0" width="3.6" height="1.0" fill="#2e7d32"/>
<rect x="401.2" y="530.6" width="3.6" height="1.4" fill="#2e7d32" opacity="0.55"/>
<line x1="408.8" y1="346.9" x2="408.8" y2="351.1" stroke="#2e7d32" stroke-width="1"/>
<rect x="407.0" y="347.5" width="3.6" height="3.6" fill="#2e7d32"/>
<rect x="407.0" y="523.4" width="3.6" height="8.6" fill="#2e7d32" opacity="0.55"/>
<line x1="414.6" y1="347.0" x2="414.6" y2="351.1" stroke="#c62828" stroke-width="1"/>
<rect x="412.8" y="347.5" width="3.6" height="3.6" fill="#c62828"/>
<rect x="412.8" y="528.2" width="3.6" height="3.8" fill="#c62828" opacity="0.55"/>
<line x1="420.4" y1="349.0" x2="420.4" y2="349.0" stroke="#2e7d32" stroke-width="1"/>
<rect x="418.6" y="349.0" width="3.6" height="1.0" fill="#2e7d32"/>
<rect x="418.6" y="530.8" width="3.6" height="1.2" fill="#2e7d32" opacity="0.55"/>
<line x1="426.2" y1="349.0" x2="426.2" y2="351.1" stroke="#c62828" stroke-width="1"/>
<rect x="424.4" y="350.2" width="3.6" height="1.0" fill="#c62828"/>
<rect x="424.4" y="529.7" width="3.6" height="2.3" fill="#c62828" opacity="0.55"/>
<line x1="432.0" y1="346.9" x2="432.0" y2="349.0" stroke="#2e7d32" stroke-width="1"/>
<rect x="430.2" y="349.0" width="3.6" height="1.0" fill="#2e7d32"/>
<rect x="430.2" y="520.0" width="3.6" height="12.0" fill="#2e7d32" opacity="0.55"/>
<line x1="437.8" y1="347.0" x2="437.8" y2="349.0" stroke="#c62828" stroke-width="1"/>
<rect x="436.0" y="347.0" width="3.6" height="2.0" fill="#c62828"/>
<rect x="436.0" y="530.2" width="3.6" height="1.8" fill="#c62828" opacity="0.55"/>
<line x1="443.6" y1="346.9" x2="443.6" y2="349.0" stroke="#c62828" stroke-width="1"/>
<rect x="441.8" y="346.9" width="3.6" height="2.1" fill="#c62828"/>
<rect x="441.8" y="526.0" width="3.6" height="6.0" fill="#c62828" opacity="0.55"/>
<line x1="449.4" y1="349.0" x2="449.4" y2="350.2" stroke="#2e7d32" stroke-width="1"/>
<rect x="447.6" y="349.0" width="3.6" height="1.0" fill="#2e7d32"/>
<rect x="447.6" y="527.6" width="3.6" height="4.4" fill="#2e7d32" opacity="0.55"/>
<line x1="455.2" y1="346.9" x2="455.2" y2="350.2" stroke="#2e7d32" stroke-width="1"/>
<rect x="453.4" y="346.9" width="3.6" height="2.1" fill="#2e7d32"/>
<rect x="453.4" y="526.9" width="3.6" height="5.1" fill="#2e7d32" opacity="0.55"/>
<line x1="461.0" y1="346.9" x2="461.0" y2="351.1" stroke="#c62828" stroke-width="1"/>
<rect x="459.2" y="346.9" width="3.6" height="4.2" fill="#c62828"/>
<rect x="459.2" y="526.0" width="3.6" height="6.0" fill="#c62828" opacity="0.55"/>
<line x1="466.8" y1="346.9" x2="466.8" y2="351.1" stroke="#2e7d32" stroke-width="1"/>
<rect x="465.0" y="351.1" width="3.6" height="1.0" fill="#2e7d32"/>
<rect x="465.0" y="511.5" width="3.6" height="20.5" fill="#2e7d32" opacity="0.55"/>
<line x1="472.6" y1="351.1" x2="472.6" y2="351.1" stroke="#2e7d32" stroke-width="1"/>
<rect x="470.8" y="351.1" width="3.6" height="1.0" fill="#2e7d32"/>
<rect x="470.8" y="532.0" width="3.6" height="0.0" fill="#2e7d32" opacity="0.55"/>
<line x1="478.4" y1="342.8" x2="478.4" y2="359.4" stroke="#2e7d32" stroke-width="1"/>
<rect x="476.6" y="359.4" width="3.6" height="1.0" fill="#2e7d32"/>
<rect x="476.6" y="453.8" width="3.6" height="78.2" fill="#2e7d32" opacity="0.55"/>
<line x1="484.2" y1="355.8" x2="484.2" y2="367.4" stroke="#c62828" stroke-width="1"/>
<rect x="482.4" y="357.3" width="3.6" height="2.1" fill="#c62828"/>
<rect x="482.4" y="520.2" width="3.6" height="11.8" fill="#c62828" opacity="0.55"/>
<line x1="490.0" y1="359.4" x2="490.0" y2="369.8" stroke="#c62828" stroke-width="1"/>
<rect x="488.2" y="361.4" width="3.6" height="8.3" fill="#c62828"/>
<rect x="488.2" y="525.8" width="3.6" height="6.2" fill="#c62828" opacity="0.55"/>
<line x1="495.8" y1="367.7" x2="495.8" y2="371.8" stroke="#2e7d32" stroke-width="1"/>
<rect x="494.0" y="367.7" width="3.6" height="1.0" fill="#2e7d32"/>
<rect x="494.0" y="510.2" width="3.6" height="21.8" fill="#2e7d32" opacity="0.55"/>
<line x1="501.6" y1="367.7" x2="501.6" y2="376.0" stroke="#c62828" stroke-width="1"/>
<rect x="499.8" y="367.7" width="3.6" height="4.7" fill="#c62828"/>
<rect x="499.8" y="510.7" width="3.6" height="21.3" fill="#c62828" opacity="0.55"/>
<line x1="507.4" y1="371.8" x2="507.4" y2="376.1" stroke="#c62828" stroke-width="1"/>
<rect x="505.6" y="371.8" width="3.6" height="4.2" fill="#c62828"/>
<rect x="505.6" y="504.8" width="3.6" height="27.2" fill="#c62828" opacity="0.55"/>
<line x1="513.1" y1="363.6" x2="513.1" y2="380.1" stroke="#2e7d32" stroke-width="1"/>
<rect x="511.4" y="367.7" width="3.6" height="12.5" fill="#2e7d32"/>
<rect x="511.4" y="491.7" width="3.6" height="40.3" fill="#2e7d32" opacity="0.55"/>
<line x1="518.9" y1="365.6" x2="518.9" y2="367.7" stroke="#c62828" stroke-width="1"/>
<rect x="517.1" y="365.6" width="3.6" height="1.0" fill="#c62828"/>
<rect x="517.1" y="525.2" width="3.6" height="6.8" fill="#c62828" opacity="0.55"/>
<line x1="524.7" y1="367.2" x2="524.7" y2="376.0" stroke="#c62828" stroke-width="1"/>
<rect x="522.9" y="367.2" width="3.6" height="8.8" fill="#c62828"/>
<rect x="522.9" y="502.9" width="3.6" height="29.1" fill="#c62828" opacity="0.55"/>
<line x1="530.5" y1="359.4" x2="530.5" y2="384.3" stroke="#2e7d32" stroke-width="1"/>
<rect x="528.7" y="376.0" width="3.6" height="1.0" fill="#2e7d32"/>
<rect x="528.7" y="412.0" width="3.6" height="120.0" fill="#2e7d32" opacity="0.55"/>
<line x1="536.3" y1="371.8" x2="536.3" y2="380.1" stroke="#2e7d32" stroke-width="1"/>
<rect x="534.5" y="371.8" width="3.6" height="8.3" fill="#2e7d32"/>
<rect x="534.5" y="517.7" width="3.6" height="14.3" fill="#2e7d32" opacity="0.55"/>
<line x1="542.1" y1="365.6" x2="542.1" y2="373.9" stroke="#2e7d32" stroke-width="1"/>
<rect x="540.3" y="367.7" width="3.6" height="6.2" fill="#2e7d32"/>
<rect x="540.3" y="457.1" width="3.6" height="74.9" fill="#2e7d32" opacity="0.55"/>
<line x1="547.9" y1="367.7" x2="547.9" y2="371.8" stroke="#c62828" stroke-width="1"/>
<rect x="546.1" y="367.7" width="3.6" height="2.1" fill="#c62828"/>
<rect x="546.1" y="527.2" width="3.6" height="4.8" fill="#c62828" opacity="0.55"/>
<line x1="553.7" y1="371.8" x2="553.7" y2="371.8" stroke="#2e7d32" stroke-width="1"/>
<rect x="551.9" y="371.8" width="3.6" height="1.0" fill="#2e7d32"/>
<rect x="551.9" y="527.6" width="3.6" height="4.4" fill="#2e7d32" opacity="0.55"/>
<line x1="559.5" y1="371.8" x2="559.5" y2="376.0" stroke="#c62828" stroke-width="1"/>
<rect x="557.7" y="371.8" width="3.6" height="4.2" fill="#c62828"/>
<rect x="557.7" y="509.5" width="3.6" height="22.5" fill="#c62828" opacity="0.55"/>
<line x1="565.3" y1="373.9" x2="565.3" y2="376.0" stroke="#2e7d32" stroke-width="1"/>
<rect x="563.5" y="376.0" width="3.6" height="1.0" fill="#2e7d32"/>
<rect x="563.5" y="528.1" width="3.6" height="3.9" fill="#2e7d32" opacity="0.55"/>
<line x1="571.1" y1="372.1" x2="571.1" y2="376.0" stroke="#c62828" stroke-width="1"/>
<rect x="569.3" y="372.1" width="3.6" height="1.0" fill="#c62828"/>
<rect x="569.3" y="529.6" width="3.6" height="2.4" fill="#c62828" opacity="0.55"/>
<line x1="576.9" y1="365.6" x2="576.9" y2="373.9" stroke="#2e7d32" stroke-width="1"/>
<rect x="575.1" y="367.7" width="3.6" height="6.2" fill="#2e7d32"/>
<rect x="575.1" y="523.4" width="3.6" height="8.6" fill="#2e7d32" opacity="0.55"/>
<line x1="582.7" y1="365.6" x2="582.7" y2="367.7" stroke="#c62828" stroke-width="1"/>
<rect x="580.9" y="365.6" width="3.6" height="2.1" fill="#c62828"/>
<rect x="580.9" y="525.2" width="3.6" height="6.8" fill="#c62828" opacity="0.55"/>
<line x1="588.5" y1="365.6" x2="588.5" y2="367.7" stroke="#c62828" stroke-width="1"/>
<rect x="586.7" y="365.6" width="3.6" height="2.1" fill="#c62828"/>
<rect x="586.7" y="516.2" width="3.6" height="15.8" fill="#c62828" opacity="0.55"/>
<line x1="594.3" y1="369.8" x2="594.3" y2="371.8" stroke="#2e7d32" stroke-width="1"/>
<rect x="592.5" y="369.8" width="3.6" height="2.1" fill="#2e7d32"/>
<rect x="592.5" y="529.7" width="3.6" height="2.3" fill="#2e7d32" opacity="0.55"/>
<line x1="600.1" y1="369.8" x2="600.1" y2="371.8" stroke="#c62828" stroke-width="1"/>
<rect x="598.3" y="369.8" width="3.6" height="2.1" fill="#c62828"/>
<rect x="598.3" y="530.6" width="3.6" height="1.4" fill="#c62828" opacity="0.55"/>
<line x1="605.9" y1="369.8" x2="605.9" y2="369.8" stroke="#2e7d32" stroke-width="1"/>
<rect x="604.1" y="369.8" width="3.6" height="1.0" fill="#2e7d32"/>
<rect x="604.1" y="531.0" width="3.6" height="1.0" fill="#2e7d32" opacity="0.55"/>
<line x1="611.7" y1="367.7" x2="611.7" y2="367.7" stroke="#2e7d32" stroke-width="1"/>
<rect x="609.9" y="367.7" width="3.6" height="1.0" fill="#2e7d32"/>
<rect x="609.9" y="529.4" width="3.6" height="2.6" fill="#2e7d32" opacity="0.55"/>
<line x1="617.5" y1="363.6" x2="617.5" y2="367.7" stroke="#2e7d32" stroke-width="1"/>
<rect x="615.7" y="367.7" width="3.6" height="1.0" fill="#2e7d32"/>
<rect x="615.7" y="524.0" width="3.6" height="8.0" fill="#2e7d32" opacity="0.55"/>
<line x1="623.3" y1="365.3" x2="623.3" y2="367.7" stroke="#c62828" stroke-width="1"/>
<rect x="621.5" y="365.3" width="3.6" height="1.0" fill="#c62828"/>
<rect x="621.5" y="529.3" width="3.6" height="2.7" fill="#c62828" opacity="0.55"/>
<line x1="629.1" y1="362.7" x2="629.1" y2="367.7" stroke="#2e7d32" stroke-width="1"/>
<rect x="627.3" y="363.5" width="3.6" height="2.1" fill="#2e7d32"/>
<rect x="627.3" y="528.0" width="3.6" height="4.0" fill="#2e7d32" opacity="0.55"/>
<line x1="634.9" y1="361.4" x2="634.9" y2="361.4" stroke="#2e7d32" stroke-width="1"/>
<rect x="633.1" y="361.4" width="3.6" height="1.0" fill="#2e7d32"/>
<rect x="633.1" y="531.8" width="3.6" height="0.2" fill="#2e7d32" opacity="0.55"/>
<line x1="640.6" y1="363.5" x2="640.6" y2="363.5" stroke="#2e7d32" stroke-width="1"/>
<rect x="638.9" y="363.5" width="3.6" height="1.0" fill="#2e7d32"/>
<rect x="638.9" y="530.4" width="3.6" height="1.6" fill="#2e7d32" opacity="0.55"/>
<line x1="646.4" y1="359.4" x2="646.4" y2="361.4" stroke="#2e7d32" stroke-width="1"/>
<rect x="644.6" y="359.4" width="3.6" height="1.0" fill="#2e7d32"/>
<rect x="644.6" y="531.1" width="3.6" height="0.9" fill="#2e7d32" opacity="0.55"/>
<line x1="652.2" y1="359.9" x2="652.2" y2="363.5" stroke="#c62828" stroke-width="1"/>
<rect x="650.4" y="359.9" width="3.6" height="3.7" fill="#c62828"/>
<rect x="650.4" y="525.8" width="3.6" height="6.2" fill="#c62828" opacity="0.55"/>
<line x1="658.0" y1="362.4" x2="658.0" y2="362.4" stroke="#2e7d32" stroke-width="1"/>
<rect x="656.2" y="362.4" width="3.6" height="1.0" fill="#2e7d32"/>
<rect x="656.2" y="531.5" width="3.6" height="0.5" fill="#2e7d32" opacity="0.55"/>
<line x1="663.8" y1="359.8" x2="663.8" y2="363.5" stroke="#c62828" stroke-width="1"/>
<rect x="662.0" y="359.8" width="3.6" height="1.7" fill="#c62828"/>
<rect x="662.0" y="528.6" width="3.6" height="3.4" fill="#c62828" opacity="0.55"/>
<line x1="669.6" y1="363.5" x2="669.6" y2="363.5" stroke="#2e7d32" stroke-width="1"/>
<rect x="667.8" y="363.5" width="3.6" height="1.0" fill="#2e7d32"/>
<rect x="667.8" y="531.4" width="3.6" height="0.6" fill="#2e7d32" opacity="0.55"/>
<line x1="675.4" y1="357.3" x2="675.4" y2="363.5" stroke="#2e7d32" stroke-width="1"/>
<rect x="673.6" y="357.3" width="3.6" height="6.2" fill="#2e7d32"/>
<rect x="673.6" y="521.1" width="3.6" height="10.9" fill="#2e7d32" opacity="0.55"/>
<line x1="681.2" y1="357.3" x2="681.2" y2="359.4" stroke="#c62828" stroke-width="1"/>
<rect x="679.4" y="357.3" width="3.6" height="2.1" fill="#c62828"/>
<rect x="679.4" y="523.6" width="3.6" height="8.4" fill="#c62828" opacity="0.55"/>
<line x1="687.0" y1="355.2" x2="687.0" y2="355.2" stroke="#2e7d32" stroke-width="1"/>
<rect x="685.2" y="355.2" width="3.6" height="1.0" fill="#2e7d32"/>
<rect x="685.2" y="530.3" width="3.6" height="1.7" fill="#2e7d32" opacity="0.55"/>
<line x1="692.8" y1="355.2" x2="692.8" y2="355.2" stroke="#2e7d32" stroke-width="1"/>
<rect x="691.0" y="355.2" width="3.6" height="1.0" fill="#2e7d32"/>
<rect x="691.0" y="531.8" width="3.6" height="0.2" fill="#2e7d32" opacity="0.55"/>
<line x1="698.6" y1="355.2" x2="698.6" y2="355.2" stroke="#2e7d32" stroke-width="1"/>
<rect x="696.8" y="355.2" width="3.6" height="1.0" fill="#2e7d32"/>
<rect x="696.8" y="530.8" width="3.6" height="1.2" fill="#2e7d32" opacity="0.55"/>
<line x1="704.4" y1="355.2" x2="704.4" y2="359.4" stroke="#c62828" stroke-width="1"/>
<rect x="702.6" y="355.2" width="3.6" height="4.2" fill="#c62828"/>
<rect x="702.6" y="520.6" width="3.6" height="11.4" fill="#c62828" opacity="0.55"/>
<line x1="710.2" y1="359.4" x2="710.2" y2="359.4" stroke="#2e7d32" stroke-width="1"/>
<rect x="708.4" y="359.4" width="3.6" height="1.0" fill="#2e7d32"/>
<rect x="708.4" y="530.8" width="3.6" height="1.2" fill="#2e7d32" opacity="0.55"/>
<line x1="716.0" y1="357.3" x2="716.0" y2="359.4" stroke="#c62828" stroke-width="1"/>
<rect x="714.2" y="358.5" width="3.6" height="1.0" fill="#c62828"/>
<rect x="714.2" y="530.0" width="3.6" height="2.0" fill="#c62828" opacity="0.55"/>
<line x1="721.8" y1="357.3" x2="721.8" y2="359.4" stroke="#2e7d32" stroke-width="1"/>
<rect x="720.0" y="357.3" width="3.6" height="1.2" fill="#2e7d32"/>
<rect x="720.0" y="530.4" width="3.6" height="1.6" fill="#2e7d32" opacity="0.55"/>
<line x1="727.6" y1="357.3" x2="727.6" y2="357.3" stroke="#2e7d32" stroke-width="1"/>
<rect x="725.8" y="357.3" width="3.6" height="1.0" fill="#2e7d32"/>
<rect x="725.8" y="531.8" width="3.6" height="0.2" fill="#2e7d32" opacity="0.55"/>
<line x1="733.4" y1="359.4" x2="733.4" y2="359.4" stroke="#2e7d32" stroke-width="1"/>
<rect x="731.6" y="359.4" width="3.6" height="1.0" fill="#2e7d32"/>
<rect x="731.6" y="530.8" width="3.6" height="1.2" fill="#2e7d32" opacity="0.55"/>
<line x1="739.2" y1="358.5" x2="739.2" y2="359.4" stroke="#c62828" stroke-width="1"/>
<rect x="737.4" y="358.5" width="3.6" height="1.0" fill="#c62828"/>
<rect x="737.4" y="530.7" width="3.6" height="1.3" fill="#c62828" opacity="0.55"/>
<line x1="745.0" y1="359.4" x2="745.0" y2="359.4" stroke="#2e7d32" stroke-width="1"/>
<rect x="743.2" y="359.4" width="3.6" height="1.0" fill="#2e7d32"/>
<rect x="743.2" y="530.0" width="3.6" height="2.0" fill="#2e7d32" opacity="0.55"/>
<line x1="750.8" y1="359.4" x2="750.8" y2="359.4" stroke="#2e7d32" stroke-width="1"/>
<rect x="749.0" y="359.4" width="3.6" height="1.0" fill="#2e7d32"/>
<rect x="749.0" y="530.7" width="3.6" height="1.3" fill="#2e7d32" opacity="0.55"/>
<line x1="756.6" y1="359.1" x2="756.6" y2="359.4" stroke="#c62828" stroke-width="1"/>
<rect x="754.8" y="359.1" width="3.6" height="1.0" fill="#c62828"/>
<rect x="754.8" y="530.8" width="3.6" height="1.2" fill="#c62828" opacity="0.55"/>
<line x1="762.4" y1="357.3" x2="762.4" y2="359.4" stroke="#c62828" stroke-width="1"/>
<rect x="760.6" y="357.3" width="3.6" height="2.1" fill="#c62828"/>
<rect x="760.6" y="530.3" width="3.6" height="1.7" fill="#c62828" opacity="0.55"/>
<line x1="768.1" y1="359.4" x2="768.1" y2="359.4" stroke="#2e7d32" stroke-width="1"/>
<rect x="766.4" y="359.4" width="3.6" height="1.0" fill="#2e7d32"/>
<rect x="766.4" y="530.8" width="3.6" height="1.2" fill="#2e7d32" opacity="0.55"/>
<line x1="773.9" y1="359.4" x2="773.9" y2="359.4" stroke="#2e7d32" stroke-width="1"/>
<rect x="772.1" y="359.4" width="3.6" height="1.0" fill="#2e7d32"/>
<rect x="772.1" y="530.8" width="3.6" height="1.2" fill="#2e7d32" opacity="0.55"/>
<line x1="779.7" y1="359.4" x2="779.7" y2="359.4" stroke="#2e7d32" stroke-width="1"/>
<rect x="777.9" y="359.4" width="3.6" height="1.0" fill="#2e7d32"/>
<rect x="777.9" y="530.4" width="3.6" height="1.6" fill="#2e7d32" opacity="0.55"/>
<line x1="785.5" y1="358.5" x2="785.5" y2="359.4" stroke="#c62828" stroke-width="1"/>
<rect x="783.7" y="358.5" width="3.6" height="1.0" fill="#c62828"/>
<rect x="783.7" y="530.8" width="3.6" height="1.2" fill="#c62828" opacity="0.55"/>
<line x1="791.3" y1="357.3" x2="791.3" y2="359.4" stroke="#2e7d32" stroke-width="1"/>
<rect x="789.5" y="357.3" width="3.6" height="2.1" fill="#2e7d32"/>
<rect x="789.5" y="531.3" width="3.6" height="0.7" fill="#2e7d32" opacity="0.55"/>
<line x1="797.1" y1="357.3" x2="797.1" y2="359.4" stroke="#c62828" stroke-width="1"/>
<rect x="795.3" y="357.3" width="3.6" height="2.1" fill="#c62828"/>
<rect x="795.3" y="530.8" width="3.6" height="1.2" fill="#c62828" opacity="0.55"/>
<line x1="802.9" y1="357.0" x2="802.9" y2="359.4" stroke="#c62828" stroke-width="1"/>
<rect x="801.1" y="357.0" width="3.6" height="1.0" fill="#c62828"/>
<rect x="801.1" y="530.8" width="3.6" height="1.2" fill="#c62828" opacity="0.55"/>
<line x1="808.7" y1="358.1" x2="808.7" y2="359.4" stroke="#c62828" stroke-width="1"/>
<rect x="806.9" y="358.1" width="3.6" height="1.2" fill="#c62828"/>
<rect x="806.9" y="529.2" width="3.6" height="2.8" fill="#c62828" opacity="0.55"/>
<line x1="814.5" y1="357.3" x2="814.5" y2="359.4" stroke="#c62828" stroke-width="1"/>
<rect x="812.7" y="357.3" width="3.6" height="2.1" fill="#c62828"/>
<rect x="812.7" y="529.9" width="3.6" height="2.1" fill="#c62828" opacity="0.55"/>
<line x1="820.3" y1="357.3" x2="820.3" y2="359.4" stroke="#c62828" stroke-width="1"/>
<rect x="818.5" y="357.3" width="3.6" height="2.1" fill="#c62828"/>
<rect x="818.5" y="530.3" width="3.6" height="1.7" fill="#c62828" opacity="0.55"/>
<line x1="826.1" y1="358.5" x2="826.1" y2="359.4" stroke="#2e7d32" stroke-width="1"/>
<rect x="824.3" y="359.4" width="3.6" height="1.0" fill="#2e7d32"/>
<rect x="824.3" y="525.4" width="3.6" height="6.6" fill="#2e7d32" opacity="0.55"/>
<line x1="831.9" y1="353.1" x2="831.9" y2="359.4" stroke="#2e7d32" stroke-width="1"/>
<rect x="830.1" y="355.2" width="3.6" height="2.1" fill="#2e7d32"/>
<rect x="830.1" y="526.9" width="3.6" height="5.1" fill="#2e7d32" opacity="0.55"/>
<line x1="837.7" y1="353.1" x2="837.7" y2="359.4" stroke="#c62828" stroke-width="1"/>
<rect x="835.9" y="353.1" width="3.6" height="4.2" fill="#c62828"/>
<rect x="835.9" y="513.8" width="3.6" height="18.2" fill="#c62828" opacity="0.55"/>
<line x1="843.5" y1="355.2" x2="843.5" y2="355.2" stroke="#2e7d32" stroke-width="1"/>
<rect x="841.7" y="355.2" width="3.6" height="1.0" fill="#2e7d32"/>
<rect x="841.7" y="532.0" width="3.6" height="0.0" fill="#2e7d32" opacity="0.55"/>
<line x1="849.3" y1="355.2" x2="849.3" y2="355.2" stroke="#2e7d32" stroke-width="1"/>
<rect x="847.5" y="355.2" width="3.6" height="1.0" fill="#2e7d32"/>
<rect x="847.5" y="532.0" width="3.6" height="0.0" fill="#2e7d32" opacity="0.55"/>
<line x1="855.1" y1="355.2" x2="855.1" y2="355.2" stroke="#2e7d32" stroke-width="1"/>
<rect x="853.3" y="355.2" width="3.6" height="1.0" fill="#2e7d32"/>
<rect x="853.3" y="532.0" width="3.6" height="0.0" fill="#2e7d32" opacity="0.55"/>
<line x1="860.9" y1="363.5" x2="860.9" y2="363.5" stroke="#2e7d32" stroke-width="1"/>
<rect x="859.1" y="363.5" width="3.6" height="1.0" fill="#2e7d32"/>
<rect x="859.1" y="532.0" width="3.6" height="0.0" fill="#2e7d32" opacity="0.55"/>
<line x1="866.7" y1="355.2" x2="866.7" y2="355.2" stroke="#2e7d32" stroke-width="1"/>
<rect x="864.9" y="355.2" width="3.6" height="1.0" fill="#2e7d32"/>
<rect x="864.9" y="532.0" width="3.6" height="0.0" fill="#2e7d32" opacity="0.55"/>
<line x1="872.5" y1="72.9" x2="872.5" y2="355.2" stroke="#2e7d32" stroke-width="1"/>
<rect x="870.7" y="88.7" width="3.6" height="266.5" fill="#2e7d32"/>
<rect x="870.7" y="532.0" width="3.6" height="0.0" fill="#2e7d32" opacity="0.55"/>
<line x1="878.3" y1="60.4" x2="878.3" y2="151.8" stroke="#c62828" stroke-width="1"/>
<rect x="876.5" y="87.4" width="3.6" height="43.6" fill="#c62828"/>
<rect x="876.5" y="532.0" width="3.6" height="0.0" fill="#c62828" opacity="0.55"/>
<line x1="884.1" y1="114.5" x2="884.1" y2="160.1" stroke="#c62828" stroke-width="1"/>
<rect x="882.3" y="135.0" width="3.6" height="8.9" fill="#c62828"/>
<rect x="882.3" y="532.0" width="3.6" height="0.0" fill="#c62828" opacity="0.55"/>
<line x1="889.9" y1="122.7" x2="889.9" y2="155.9" stroke="#2e7d32" stroke-width="1"/>
<rect x="888.1" y="126.9" width="3.6" height="20.7" fill="#2e7d32"/>
<rect x="888.1" y="532.0" width="3.6" height="0.0" fill="#2e7d32" opacity="0.55"/>
<line x1="895.6" y1="110.2" x2="895.6" y2="151.8" stroke="#c62828" stroke-width="1"/>
<rect x="893.9" y="126.8" width="3.6" height="4.2" fill="#c62828"/>
<rect x="893.9" y="532.0" width="3.6" height="0.0" fill="#c62828" opacity="0.55"/>
<line x1="901.4" y1="126.8" x2="901.4" y2="151.8" stroke="#c62828" stroke-width="1"/>
<rect x="899.6" y="131.0" width="3.6" height="12.4" fill="#c62828"/>
<rect x="899.6" y="532.0" width="3.6" height="0.0" fill="#c62828" opacity="0.55"/>
<line x1="907.2" y1="77.0" x2="907.2" y2="151.8" stroke="#2e7d32" stroke-width="1"/>
<rect x="905.4" y="98.0" width="3.6" height="45.5" fill="#2e7d32"/>
<rect x="905.4" y="532.0" width="3.6" height="0.0" fill="#2e7d32" opacity="0.55"/>
<line x1="913.0" y1="97.8" x2="913.0" y2="143.5" stroke="#c62828" stroke-width="1"/>
<rect x="911.2" y="97.9" width="3.6" height="33.0" fill="#c62828"/>
<rect x="911.2" y="532.0" width="3.6" height="0.0" fill="#c62828" opacity="0.55"/>
<line x1="918.8" y1="110.2" x2="918.8" y2="143.5" stroke="#2e7d32" stroke-width="1"/>
<rect x="917.0" y="122.8" width="3.6" height="8.1" fill="#2e7d32"/>
<rect x="917.0" y="532.0" width="3.6" height="0.0" fill="#2e7d32" opacity="0.55"/>
<line x1="924.6" y1="97.8" x2="924.6" y2="131.0" stroke="#2e7d32" stroke-width="1"/>
<rect x="922.8" y="114.1" width="3.6" height="12.7" fill="#2e7d32"/>
<rect x="922.8" y="532.0" width="3.6" height="0.0" fill="#2e7d32" opacity="0.55"/>
<line x1="930.4" y1="97.8" x2="930.4" y2="122.7" stroke="#2e7d32" stroke-width="1"/>
<rect x="928.6" y="106.0" width="3.6" height="4.3" fill="#2e7d32"/>
<rect x="928.6" y="532.0" width="3.6" height="0.0" fill="#2e7d32" opacity="0.55"/>
<line x1="936.2" y1="85.3" x2="936.2" y2="114.4" stroke="#2e7d32" stroke-width="1"/>
<rect x="934.4" y="85.7" width="3.6" height="16.2" fill="#2e7d32"/>
<rect x="934.4" y="532.0" width="3.6" height="0.0" fill="#2e7d32" opacity="0.55"/>
<line x1="942.0" y1="81.2" x2="942.0" y2="110.2" stroke="#c62828" stroke-width="1"/>
<rect x="940.2" y="85.3" width="3.6" height="16.6" fill="#c62828"/>
<rect x="940.2" y="532.0" width="3.6" height="0.0" fill="#c62828" opacity="0.55"/>
<line x1="947.8" y1="102.1" x2="947.8" y2="114.4" stroke="#c62828" stroke-width="1"/>
<rect x="946.0" y="106.1" width="3.6" height="8.2" fill="#c62828"/>
<rect x="946.0" y="532.0" width="3.6" height="0.0" fill="#c62828" opacity="0.55"/>
<line x1="953.6" y1="106.1" x2="953.6" y2="118.5" stroke="#2e7d32" stroke-width="1"/>
<rect x="951.8" y="106.3" width="3.6" height="8.1" fill="#2e7d32"/>
<rect x="951.8" y="532.0" width="3.6" height="0.0" fill="#2e7d32" opacity="0.55"/>
<line x1="959.4" y1="97.8" x2="959.4" y2="110.2" stroke="#2e7d32" stroke-width="1"/>
<rect x="957.6" y="110.2" width="3.6" height="1.0" fill="#2e7d32"/>
<rect x="957.6" y="532.0" width="3.6" height="0.0" fill="#2e7d32" opacity="0.55"/>
<line x1="965.2" y1="106.1" x2="965.2" y2="114.4" stroke="#c62828" stroke-width="1"/>
<rect x="963.4" y="106.1" width="3.6" height="4.1" fill="#c62828"/>
<rect x="963.4" y="532.0" width="3.6" height="0.0" fill="#c62828" opacity="0.55"/>
<line x1="971.0" y1="97.8" x2="971.0" y2="110.2" stroke="#2e7d32" stroke-width="1"/>
<rect x="969.2" y="105.5" width="3.6" height="4.7" fill="#2e7d32"/>
<rect x="969.2" y="532.0" width="3.6" height="0.0" fill="#2e7d32" opacity="0.55"/>
<line x1="976.8" y1="101.9" x2="976.8" y2="110.2" stroke="#c62828" stroke-width="1"/>
<rect x="975.0" y="106.1" width="3.6" height="1.0" fill="#c62828"/>
<rect x="975.0" y="532.0" width="3.6" height="0.0" fill="#c62828" opacity="0.55"/>
<line x1="982.6" y1="106.0" x2="982.6" y2="110.2" stroke="#2e7d32" stroke-width="1"/>
<rect x="980.8" y="106.1" width="3.6" height="4.1" fill="#2e7d32"/>
<rect x="980.8" y="532.0" width="3.6" height="0.0" fill="#2e7d32" opacity="0.55"/>
<line x1="988.4" y1="101.9" x2="988.4" y2="110.2" stroke="#2e7d32" stroke-width="1"/>
<rect x="986.6" y="102.2" width="3.6" height="4.0" fill="#2e7d32"/>
<rect x="986.6" y="532.0" width="3.6" height="0.0" fill="#2e7d32" opacity="0.55"/>
<line x1="994.2" y1="97.8" x2="994.2" y2="110.2" stroke="#2e7d32" stroke-width="1"/>
<rect x="992.4" y="97.9" width="3.6" height="7.8" fill="#2e7d32"/>
<rect x="992.4" y="532.0" width="3.6" height="0.0" fill="#2e7d32" opacity="0.55"/>
<line x1="1000.0" y1="77.0" x2="1000.0" y2="101.9" stroke="#2e7d32" stroke-width="1"/>
<rect x="998.2" y="93.6" width="3.6" height="8.3" fill="#2e7d32"/>
<rect x="998.2" y="532.0" width="3.6" height="0.0" fill="#2e7d32" opacity="0.55"/>
<line x1="1005.8" y1="72.9" x2="1005.8" y2="101.9" stroke="#2e7d32" stroke-width="1"/>
<rect x="1004.0" y="81.3" width="3.6" height="8.3" fill="#2e7d32"/>
<rect x="1004.0" y="532.0" width="3.6" height="0.0" fill="#2e7d32" opacity="0.55"/>
<line x1="1011.6" y1="77.1" x2="1011.6" y2="89.5" stroke="#c62828" stroke-width="1"/>
<rect x="1009.8" y="85.2" width="3.6" height="1.0" fill="#c62828"/>
<rect x="1009.8" y="532.0" width="3.6" height="0.0" fill="#c62828" opacity="0.55"/>
<line x1="1017.4" y1="77.0" x2="1017.4" y2="89.5" stroke="#c62828" stroke-width="1"/>
<rect x="1015.6" y="85.3" width="3.6" height="4.2" fill="#c62828"/>
<rect x="1015.6" y="532.0" width="3.6" height="0.0" fill="#c62828" opacity="0.55"/>
<line x1="1023.1" y1="81.2" x2="1023.1" y2="89.4" stroke="#2e7d32" stroke-width="1"/>
<rect x="1021.4" y="81.3" width="3.6" height="8.1" fill="#2e7d32"/>
<rect x="1021.4" y="532.0" width="3.6" height="0.0" fill="#2e7d32" opacity="0.55"/>
<line x1="1028.9" y1="72.9" x2="1028.9" y2="85.3" stroke="#2e7d32" stroke-width="1"/>
<rect x="1027.1" y="81.3" width="3.6" height="4.0" fill="#2e7d32"/>
<rect x="1027.1" y="532.0" width="3.6" height="0.0" fill="#2e7d32" opacity="0.55"/>
<line x1="1034.7" y1="55.7" x2="1034.7" y2="85.3" stroke="#2e7d32" stroke-width="1"/>
<rect x="1032.9" y="60.5" width="3.6" height="20.7" fill="#2e7d32"/>
<rect x="1032.9" y="532.0" width="3.6" height="0.0" fill="#2e7d32" opacity="0.55"/>
<line x1="1040.5" y1="56.3" x2="1040.5" y2="77.0" stroke="#c62828" stroke-width="1"/>
<rect x="1038.7" y="60.9" width="3.6" height="16.1" fill="#c62828"/>
<rect x="1038.7" y="532.0" width="3.6" height="0.0" fill="#c62828" opacity="0.55"/>
<line x1="1046.3" y1="60.5" x2="1046.3" y2="85.3" stroke="#c62828" stroke-width="1"/>
<rect x="1044.5" y="72.9" width="3.6" height="12.4" fill="#c62828"/>
<rect x="1044.5" y="532.0" width="3.6" height="0.0" fill="#c62828" opacity="0.55"/>
<line x1="1052.1" y1="68.7" x2="1052.1" y2="85.3" stroke="#2e7d32" stroke-width="1"/>
<rect x="1050.3" y="77.0" width="3.6" height="8.3" fill="#2e7d32"/>
<rect x="1050.3" y="532.0" width="3.6" height="0.0" fill="#2e7d32" opacity="0.55"/>
<line x1="1057.9" y1="60.4" x2="1057.9" y2="85.3" stroke="#2e7d32" stroke-width="1"/>
<rect x="1056.1" y="68.7" width="3.6" height="8.3" fill="#2e7d32"/>
<rect x="1056.1" y="532.0" width="3.6" height="0.0" fill="#2e7d32" opacity="0.55"/>
<line x1="1063.7" y1="64.6" x2="1063.7" y2="85.3" stroke="#c62828" stroke-width="1"/>
<rect x="1061.9" y="68.7" width="3.6" height="4.4" fill="#c62828"/>
<rect x="1061.9" y="532.0" width="3.6" height="0.0" fill="#c62828" opacity="0.55"/>
<line x1="1069.5" y1="65.1" x2="1069.5" y2="85.3" stroke="#2e7d32" stroke-width="1"/>
<rect x="1067.7" y="68.7" width="3.6" height="4.2" fill="#2e7d32"/>
<rect x="1067.7" y="532.0" width="3.6" height="0.0" fill="#2e7d32" opacity="0.55"/>
<line x1="1075.3" y1="56.3" x2="1075.3" y2="85.3" stroke="#c62828" stroke-width="1"/>
<rect x="1073.5" y="68.7" width="3.6" height="4.2" fill="#c62828"/>
<rect x="1073.5" y="532.0" width="3.6" height="0.0" fill="#c62828" opacity="0.55"/>
<line x1="1081.1" y1="72.9" x2="1081.1" y2="72.9" stroke="#2e7d32" stroke-width="1"/>
<rect x="1079.3" y="72.9" width="3.6" height="1.0" fill="#2e7d32"/>
<rect x="1079.3" y="532.0" width="3.6" height="0.0" fill="#2e7d32" opacity="0.55"/>
<line x1="64" y1="532" x2="1084" y2="532" stroke="#ccc"/>
<text x="58" y="420" font-size="9" fill="#999" text-anchor="end">0.2M</text>
<line x1="66.9" y1="532" x2="66.9" y2="536" stroke="#999"/>
<text x="66.9" y="547.0" font-size="9" fill="#666" text-anchor="middle">07/01 07:00</text>
<line x1="235.0" y1="532" x2="235.0" y2="536" stroke="#999"/>
<text x="235.0" y="547.0" font-size="9" fill="#666" text-anchor="middle">11:45</text>
<line x1="403.0" y1="532" x2="403.0" y2="536" stroke="#999"/>
<text x="403.0" y="547.0" font-size="9" fill="#666" text-anchor="middle">15:00</text>
<line x1="571.1" y1="532" x2="571.1" y2="536" stroke="#999"/>
<text x="571.1" y="547.0" font-size="9" fill="#666" text-anchor="middle">07/02 10:55</text>
<line x1="739.2" y1="532" x2="739.2" y2="536" stroke="#999"/>
<text x="739.2" y="547.0" font-size="9" fill="#666" text-anchor="middle">13:55</text>
<line x1="907.2" y1="532" x2="907.2" y2="536" stroke="#999"/>
<text x="907.2" y="547.0" font-size="9" fill="#666" text-anchor="middle">17:30</text>
<line x1="1075.3" y1="532" x2="1075.3" y2="536" stroke="#999"/>
<text x="1075.3" y="547.0" font-size="9" fill="#666" text-anchor="middle">19:55</text>
<text x="64" y="22" font-size="15" font-weight="bold" fill="#1a1a1a">SEER - Seer, Inc.</text>
<text x="1084" y="22" font-size="11" fill="#666" text-anchor="end">last $2.30 (+35.5% over window)</text>
<rect x="934" y="28" width="10" height="8" fill="#e8f0fe"/>
<text x="948" y="35" font-size="9" fill="#666">premarket</text>
<rect x="1006" y="28" width="10" height="8" fill="#fff4e0"/>
<text x="1020" y="35" font-size="9" fill="#666">after-hrs</text>
</svg>