<svg xmlns="http://www.w3.org/2000/svg" width="1100" height="560" viewBox="0 0 1100 560" font-family="Arial,Helvetica,sans-serif">
<rect width="1100" height="560" fill="white"/>
<rect x="64.0" y="36" width="91.5" height="496.0" fill="#e8f0fe"/>
<rect x="521.7" y="36" width="300.8" height="496.0" fill="#fff4e0"/>
<rect x="822.5" y="36" width="261.5" height="496.0" fill="#e8f0fe"/>
<line x1="64" y1="404.0" x2="1084" y2="404.0" stroke="#e6e6e6"/>
<text x="58" y="407.0" font-size="10" fill="#666" text-anchor="end">$0.70</text>
<line x1="64" y1="312.0" x2="1084" y2="312.0" stroke="#e6e6e6"/>
<text x="58" y="315.0" font-size="10" fill="#666" text-anchor="end">$1.38</text>
<line x1="64" y1="220.0" x2="1084" y2="220.0" stroke="#e6e6e6"/>
<text x="58" y="223.0" font-size="10" fill="#666" text-anchor="end">$2.07</text>
<line x1="64" y1="128.0" x2="1084" y2="128.0" stroke="#e6e6e6"/>
<text x="58" y="131.0" font-size="10" fill="#666" text-anchor="end">$2.75</text>
<line x1="64" y1="36.0" x2="1084" y2="36.0" stroke="#e6e6e6"/>
<text x="58" y="39.0" font-size="10" fill="#666" text-anchor="end">$3.43</text>
<line x1="70.5" y1="239.6" x2="70.5" y2="253.1" stroke="#c62828" stroke-width="1"/>
<rect x="66.5" y="242.3" width="8.1" height="10.8" fill="#c62828"/>
<rect x="66.5" y="532.0" width="8.1" height="0.0" fill="#c62828" opacity="0.55"/>
<line x1="83.6" y1="253.1" x2="83.6" y2="253.1" stroke="#2e7d32" stroke-width="1"/>
<rect x="79.6" y="253.1" width="8.1" height="1.0" fill="#2e7d32"/>
<rect x="79.6" y="532.0" width="8.1" height="0.0" fill="#2e7d32" opacity="0.55"/>
<line x1="96.7" y1="254.5" x2="96.7" y2="254.5" stroke="#2e7d32" stroke-width="1"/>
<rect x="92.6" y="254.5" width="8.1" height="1.0" fill="#2e7d32"/>
<rect x="92.6" y="532.0" width="8.1" height="0.0" fill="#2e7d32" opacity="0.55"/>
<line x1="109.8" y1="270.7" x2="109.8" y2="270.7" stroke="#2e7d32" stroke-width="1"/>
<rect x="105.7" y="270.7" width="8.1" height="1.0" fill="#2e7d32"/>
<rect x="105.7" y="532.0" width="8.1" height="0.0" fill="#2e7d32" opacity="0.55"/>
<line x1="122.8" y1="269.4" x2="122.8" y2="270.7" stroke="#c62828" stroke-width="1"/>
<rect x="118.8" y="269.4" width="8.1" height="1.3" fill="#c62828"/>
<rect x="118.8" y="532.0" width="8.1" height="0.0" fill="#c62828" opacity="0.55"/>
<line x1="135.9" y1="270.7" x2="135.9" y2="270.7" stroke="#2e7d32" stroke-width="1"/>
<rect x="131.9" y="270.7" width="8.1" height="1.0" fill="#2e7d32"/>
<rect x="131.9" y="532.0" width="8.1" height="0.0" fill="#2e7d32" opacity="0.55"/>
<line x1="149.0" y1="267.6" x2="149.0" y2="267.6" stroke="#2e7d32" stroke-width="1"/>
<rect x="144.9" y="267.6" width="8.1" height="1.0" fill="#2e7d32"/>
<rect x="144.9" y="532.0" width="8.1" height="0.0" fill="#2e7d32" opacity="0.55"/>
<line x1="162.1" y1="266.6" x2="162.1" y2="268.0" stroke="#c62828" stroke-width="1"/>
<rect x="158.0" y="266.6" width="8.1" height="1.4" fill="#c62828"/>
<rect x="158.0" y="531.8" width="8.1" height="0.2" fill="#c62828" opacity="0.55"/>
<line x1="175.2" y1="259.9" x2="175.2" y2="259.9" stroke="#2e7d32" stroke-width="1"/>
<rect x="171.1" y="259.9" width="8.1" height="1.0" fill="#2e7d32"/>
<rect x="171.1" y="531.8" width="8.1" height="0.2" fill="#2e7d32" opacity="0.55"/>
<line x1="188.2" y1="269.4" x2="188.2" y2="269.4" stroke="#2e7d32" stroke-width="1"/>
<rect x="184.2" y="269.4" width="8.1" height="1.0" fill="#2e7d32"/>
<rect x="184.2" y="531.9" width="8.1" height="0.1" fill="#2e7d32" opacity="0.55"/>
<line x1="201.3" y1="269.4" x2="201.3" y2="272.1" stroke="#c62828" stroke-width="1"/>
<rect x="197.3" y="269.4" width="8.1" height="2.7" fill="#c62828"/>
<rect x="197.3" y="531.8" width="8.1" height="0.2" fill="#c62828" opacity="0.55"/>
<line x1="214.4" y1="277.5" x2="214.4" y2="327.5" stroke="#c62828" stroke-width="1"/>
<rect x="210.3" y="277.5" width="8.1" height="50.0" fill="#c62828"/>
<rect x="210.3" y="530.6" width="8.1" height="1.4" fill="#c62828" opacity="0.55"/>
<line x1="227.5" y1="361.3" x2="227.5" y2="384.3" stroke="#2e7d32" stroke-width="1"/>
<rect x="223.4" y="361.3" width="8.1" height="23.0" fill="#2e7d32"/>
<rect x="223.4" y="530.4" width="8.1" height="1.6" fill="#2e7d32" opacity="0.55"/>
<line x1="240.5" y1="307.2" x2="240.5" y2="349.1" stroke="#2e7d32" stroke-width="1"/>
<rect x="236.5" y="327.5" width="8.1" height="12.2" fill="#2e7d32"/>
<rect x="236.5" y="530.8" width="8.1" height="1.2" fill="#2e7d32" opacity="0.55"/>
<line x1="253.6" y1="297.8" x2="253.6" y2="331.6" stroke="#2e7d32" stroke-width="1"/>
<rect x="249.6" y="307.9" width="8.1" height="23.7" fill="#2e7d32"/>
<rect x="249.6" y="530.2" width="8.1" height="1.8" fill="#2e7d32" opacity="0.55"/>
<line x1="266.7" y1="305.9" x2="266.7" y2="323.4" stroke="#c62828" stroke-width="1"/>
<rect x="262.6" y="307.2" width="8.1" height="16.1" fill="#c62828"/>
<rect x="262.6" y="531.6" width="8.1" height="0.4" fill="#c62828" opacity="0.55"/>
<line x1="279.8" y1="305.9" x2="279.8" y2="305.9" stroke="#2e7d32" stroke-width="1"/>
<rect x="275.7" y="305.9" width="8.1" height="1.0" fill="#2e7d32"/>
<rect x="275.7" y="531.9" width="8.1" height="0.1" fill="#2e7d32" opacity="0.55"/>
<line x1="292.8" y1="307.2" x2="292.8" y2="311.9" stroke="#c62828" stroke-width="1"/>
<rect x="288.8" y="307.2" width="8.1" height="4.7" fill="#c62828"/>
<rect x="288.8" y="531.5" width="8.1" height="0.5" fill="#c62828" opacity="0.55"/>
<line x1="305.9" y1="299.1" x2="305.9" y2="299.1" stroke="#2e7d32" stroke-width="1"/>
<rect x="301.9" y="299.1" width="8.1" height="1.0" fill="#2e7d32"/>
<rect x="301.9" y="532.0" width="8.1" height="0.0" fill="#2e7d32" opacity="0.55"/>
<line x1="319.0" y1="307.9" x2="319.0" y2="307.9" stroke="#2e7d32" stroke-width="1"/>
<rect x="314.9" y="307.9" width="8.1" height="1.0" fill="#2e7d32"/>
<rect x="314.9" y="532.0" width="8.1" height="0.0" fill="#2e7d32" opacity="0.55"/>
<line x1="332.1" y1="314.0" x2="332.1" y2="316.7" stroke="#2e7d32" stroke-width="1"/>
<rect x="328.0" y="314.0" width="8.1" height="1.4" fill="#2e7d32"/>
<rect x="328.0" y="531.9" width="8.1" height="0.1" fill="#2e7d32" opacity="0.55"/>
<line x1="345.2" y1="315.8" x2="345.2" y2="316.7" stroke="#2e7d32" stroke-width="1"/>
<rect x="341.1" y="315.8" width="8.1" height="1.0" fill="#2e7d32"/>
<rect x="341.1" y="532.0" width="8.1" height="0.0" fill="#2e7d32" opacity="0.55"/>
<line x1="358.2" y1="299.1" x2="358.2" y2="336.9" stroke="#2e7d32" stroke-width="1"/>
<rect x="354.2" y="299.1" width="8.1" height="37.8" fill="#2e7d32"/>
<rect x="354.2" y="531.6" width="8.1" height="0.4" fill="#2e7d32" opacity="0.55"/>
<line x1="371.3" y1="299.1" x2="371.3" y2="300.6" stroke="#2e7d32" stroke-width="1"/>
<rect x="367.3" y="299.1" width="8.1" height="1.5" fill="#2e7d32"/>
<rect x="367.3" y="531.8" width="8.1" height="0.2" fill="#2e7d32" opacity="0.55"/>
<line x1="384.4" y1="305.9" x2="384.4" y2="307.2" stroke="#2e7d32" stroke-width="1"/>
<rect x="380.3" y="305.9" width="8.1" height="1.4" fill="#2e7d32"/>
<rect x="380.3" y="531.7" width="8.1" height="0.3" fill="#2e7d32" opacity="0.55"/>
<line x1="397.5" y1="307.2" x2="397.5" y2="312.6" stroke="#2e7d32" stroke-width="1"/>
<rect x="393.4" y="307.2" width="8.1" height="5.4" fill="#2e7d32"/>
<rect x="393.4" y="531.8" width="8.1" height="0.2" fill="#2e7d32" opacity="0.55"/>
<line x1="410.5" y1="305.9" x2="410.5" y2="307.2" stroke="#2e7d32" stroke-width="1"/>
<rect x="406.5" y="305.9" width="8.1" height="1.4" fill="#2e7d32"/>
<rect x="406.5" y="532.0" width="8.1" height="0.0" fill="#2e7d32" opacity="0.55"/>
<line x1="423.6" y1="307.2" x2="423.6" y2="307.2" stroke="#2e7d32" stroke-width="1"/>
<rect x="419.6" y="307.2" width="8.1" height="1.0" fill="#2e7d32"/>
<rect x="419.6" y="532.0" width="8.1" height="0.0" fill="#2e7d32" opacity="0.55"/>
<line x1="436.7" y1="332.9" x2="436.7" y2="332.9" stroke="#2e7d32" stroke-width="1"/>
<rect x="432.6" y="332.9" width="8.1" height="1.0" fill="#2e7d32"/>
<rect x="432.6" y="531.9" width="8.1" height="0.1" fill="#2e7d32" opacity="0.55"/>
<line x1="449.8" y1="311.3" x2="449.8" y2="311.3" stroke="#2e7d32" stroke-width="1"/>
<rect x="445.7" y="311.3" width="8.1" height="1.0" fill="#2e7d32"/>
<rect x="445.7" y="532.0" width="8.1" height="0.0" fill="#2e7d32" opacity="0.55"/>
<line x1="462.8" y1="321.4" x2="462.8" y2="321.4" stroke="#2e7d32" stroke-width="1"/>
<rect x="458.8" y="321.4" width="8.1" height="1.0" fill="#2e7d32"/>
<rect x="458.8" y="532.0" width="8.1" height="0.0" fill="#2e7d32" opacity="0.55"/>
<line x1="475.9" y1="331.5" x2="475.9" y2="331.5" stroke="#2e7d32" stroke-width="1"/>
<rect x="471.9" y="331.5" width="8.1" height="1.0" fill="#2e7d32"/>
<rect x="471.9" y="531.9" width="8.1" height="0.1" fill="#2e7d32" opacity="0.55"/>
<line x1="489.0" y1="314.0" x2="489.0" y2="314.0" stroke="#2e7d32" stroke-width="1"/>
<rect x="484.9" y="314.0" width="8.1" height="1.0" fill="#2e7d32"/>
<rect x="484.9" y="531.9" width="8.1" height="0.1" fill="#2e7d32" opacity="0.55"/>
<line x1="502.1" y1="312.6" x2="502.1" y2="316.7" stroke="#2e7d32" stroke-width="1"/>
<rect x="498.0" y="312.6" width="8.1" height="4.1" fill="#2e7d32"/>
<rect x="498.0" y="532.0" width="8.1" height="0.0" fill="#2e7d32" opacity="0.55"/>
<line x1="515.2" y1="316.7" x2="515.2" y2="316.7" stroke="#2e7d32" stroke-width="1"/>
<rect x="511.1" y="316.7" width="8.1" height="1.0" fill="#2e7d32"/>
<rect x="511.1" y="532.0" width="8.1" height="0.0" fill="#2e7d32" opacity="0.55"/>
<line x1="528.2" y1="320.1" x2="528.2" y2="326.1" stroke="#c62828" stroke-width="1"/>
<rect x="524.2" y="320.1" width="8.1" height="6.1" fill="#c62828"/>
<rect x="524.2" y="532.0" width="8.1" height="0.0" fill="#c62828" opacity="0.55"/>
<line x1="541.3" y1="326.1" x2="541.3" y2="326.1" stroke="#2e7d32" stroke-width="1"/>
<rect x="537.3" y="326.1" width="8.1" height="1.0" fill="#2e7d32"/>
<rect x="537.3" y="532.0" width="8.1" height="0.0" fill="#2e7d32" opacity="0.55"/>
<line x1="554.4" y1="320.1" x2="554.4" y2="320.1" stroke="#2e7d32" stroke-width="1"/>
<rect x="550.3" y="320.1" width="8.1" height="1.0" fill="#2e7d32"/>
<rect x="550.3" y="532.0" width="8.1" height="0.0" fill="#2e7d32" opacity="0.55"/>
<line x1="567.5" y1="330.2" x2="567.5" y2="334.2" stroke="#c62828" stroke-width="1"/>
<rect x="563.4" y="330.2" width="8.1" height="4.0" fill="#c62828"/>
<rect x="563.4" y="531.9" width="8.1" height="0.1" fill="#c62828" opacity="0.55"/>
<line x1="580.5" y1="331.6" x2="580.5" y2="334.2" stroke="#2e7d32" stroke-width="1"/>
<rect x="576.5" y="331.6" width="8.1" height="2.7" fill="#2e7d32"/>
<rect x="576.5" y="532.0" width="8.1" height="0.0" fill="#2e7d32" opacity="0.55"/>
<line x1="593.6" y1="331.6" x2="593.6" y2="334.2" stroke="#c62828" stroke-width="1"/>
<rect x="589.6" y="331.6" width="8.1" height="1.4" fill="#c62828"/>
<rect x="589.6" y="532.0" width="8.1" height="0.0" fill="#c62828" opacity="0.55"/>
<line x1="606.7" y1="319.4" x2="606.7" y2="334.3" stroke="#c62828" stroke-width="1"/>
<rect x="602.6" y="319.4" width="8.1" height="14.9" fill="#c62828"/>
<rect x="602.6" y="531.9" width="8.1" height="0.1" fill="#c62828" opacity="0.55"/>
<line x1="619.8" y1="332.9" x2="619.8" y2="334.3" stroke="#c62828" stroke-width="1"/>
<rect x="615.7" y="332.9" width="8.1" height="1.2" fill="#c62828"/>
<rect x="615.7" y="532.0" width="8.1" height="0.0" fill="#c62828" opacity="0.55"/>
<line x1="632.8" y1="332.9" x2="632.8" y2="332.9" stroke="#2e7d32" stroke-width="1"/>
<rect x="628.8" y="332.9" width="8.1" height="1.0" fill="#2e7d32"/>
<rect x="628.8" y="532.0" width="8.1" height="0.0" fill="#2e7d32" opacity="0.55"/>
<line x1="645.9" y1="318.0" x2="645.9" y2="323.4" stroke="#c62828" stroke-width="1"/>
<rect x="641.9" y="319.4" width="8.1" height="4.0" fill="#c62828"/>
<rect x="641.9" y="532.0" width="8.1" height="0.0" fill="#c62828" opacity="0.55"/>
<line x1="659.0" y1="318.0" x2="659.0" y2="323.4" stroke="#c62828" stroke-width="1"/>
<rect x="654.9" y="318.0" width="8.1" height="5.4" fill="#c62828"/>
<rect x="654.9" y="532.0" width="8.1" height="0.0" fill="#c62828" opacity="0.55"/>
<line x1="672.1" y1="300.5" x2="672.1" y2="320.7" stroke="#c62828" stroke-width="1"/>
<rect x="668.0" y="315.3" width="8.1" height="5.4" fill="#c62828"/>
<rect x="668.0" y="531.8" width="8.1" height="0.2" fill="#c62828" opacity="0.55"/>
<line x1="685.2" y1="322.1" x2="685.2" y2="330.2" stroke="#c62828" stroke-width="1"/>
<rect x="681.1" y="322.1" width="8.1" height="8.1" fill="#c62828"/>
<rect x="681.1" y="531.9" width="8.1" height="0.1" fill="#c62828" opacity="0.55"/>
<line x1="698.2" y1="330.2" x2="698.2" y2="330.2" stroke="#2e7d32" stroke-width="1"/>
<rect x="694.2" y="330.2" width="8.1" height="1.0" fill="#2e7d32"/>
<rect x="694.2" y="532.0" width="8.1" height="0.0" fill="#2e7d32" opacity="0.55"/>
<line x1="711.3" y1="328.8" x2="711.3" y2="330.2" stroke="#c62828" stroke-width="1"/>
<rect x="707.3" y="328.8" width="8.1" height="1.4" fill="#c62828"/>
<rect x="707.3" y="532.0" width="8.1" height="0.0" fill="#c62828" opacity="0.55"/>
<line x1="724.4" y1="325.0" x2="724.4" y2="325.0" stroke="#2e7d32" stroke-width="1"/>
<rect x="720.3" y="325.0" width="8.1" height="1.0" fill="#2e7d32"/>
<rect x="720.3" y="532.0" width="8.1" height="0.0" fill="#2e7d32" opacity="0.55"/>
<line x1="737.5" y1="330.2" x2="737.5" y2="330.2" stroke="#2e7d32" stroke-width="1"/>
<rect x="733.4" y="330.2" width="8.1" height="1.0" fill="#2e7d32"/>
<rect x="733.4" y="532.0" width="8.1" height="0.0" fill="#2e7d32" opacity="0.55"/>
<line x1="750.5" y1="330.2" x2="750.5" y2="330.2" stroke="#2e7d32" stroke-width="1"/>
<rect x="746.5" y="330.2" width="8.1" height="1.0" fill="#2e7d32"/>
<rect x="746.5" y="532.0" width="8.1" height="0.0" fill="#2e7d32" opacity="0.55"/>
<line x1="763.6" y1="330.2" x2="763.6" y2="330.2" stroke="#2e7d32" stroke-width="1"/>
<rect x="759.6" y="330.2" width="8.1" height="1.0" fill="#2e7d32"/>
<rect x="759.6" y="532.0" width="8.1" height="0.0" fill="#2e7d32" opacity="0.55"/>
<line x1="776.7" y1="301.8" x2="776.7" y2="328.8" stroke="#2e7d32" stroke-width="1"/>
<rect x="772.6" y="328.8" width="8.1" height="1.0" fill="#2e7d32"/>
<rect x="772.6" y="532.0" width="8.1" height="0.0" fill="#2e7d32" opacity="0.55"/>
<line x1="789.8" y1="303.2" x2="789.8" y2="304.5" stroke="#2e7d32" stroke-width="1"/>
<rect x="785.7" y="303.2" width="8.1" height="1.4" fill="#2e7d32"/>
<rect x="785.7" y="532.0" width="8.1" height="0.0" fill="#2e7d32" opacity="0.55"/>
<line x1="802.8" y1="323.4" x2="802.8" y2="323.4" stroke="#2e7d32" stroke-width="1"/>
<rect x="798.8" y="323.4" width="8.1" height="1.0" fill="#2e7d32"/>
<rect x="798.8" y="532.0" width="8.1" height="0.0" fill="#2e7d32" opacity="0.55"/>
<line x1="815.9" y1="324.8" x2="815.9" y2="324.8" stroke="#2e7d32" stroke-width="1"/>
<rect x="811.9" y="324.8" width="8.1" height="1.0" fill="#2e7d32"/>
<rect x="811.9" y="532.0" width="8.1" height="0.0" fill="#2e7d32" opacity="0.55"/>
<line x1="829.0" y1="55.7" x2="829.0" y2="266.6" stroke="#2e7d32" stroke-width="1"/>
<rect x="824.9" y="189.3" width="8.1" height="59.7" fill="#2e7d32"/>
<rect x="824.9" y="424.5" width="8.1" height="107.5" fill="#2e7d32" opacity="0.55"/>
<line x1="842.1" y1="143.6" x2="842.1" y2="208.5" stroke="#2e7d32" stroke-width="1"/>
<rect x="838.0" y="187.0" width="8.1" height="2.4" fill="#2e7d32"/>
<rect x="838.0" y="412.0" width="8.1" height="120.0" fill="#2e7d32" opacity="0.55"/>
<line x1="855.2" y1="149.0" x2="855.2" y2="319.4" stroke="#2e7d32" stroke-width="1"/>
<rect x="851.1" y="170.6" width="8.1" height="16.3" fill="#2e7d32"/>
<rect x="851.1" y="447.1" width="8.1" height="84.9" fill="#2e7d32" opacity="0.55"/>
<line x1="868.2" y1="165.2" x2="868.2" y2="189.6" stroke="#c62828" stroke-width="1"/>
<rect x="864.2" y="169.4" width="8.1" height="16.2" fill="#c62828"/>
<rect x="864.2" y="491.8" width="8.1" height="40.2" fill="#c62828" opacity="0.55"/>
<line x1="881.3" y1="185.6" x2="881.3" y2="211.2" stroke="#c62828" stroke-width="1"/>
<rect x="877.3" y="185.8" width="8.1" height="2.6" fill="#c62828"/>
<rect x="877.3" y="473.9" width="8.1" height="58.1" fill="#c62828" opacity="0.55"/>
<line x1="894.4" y1="174.7" x2="894.4" y2="199.0" stroke="#2e7d32" stroke-width="1"/>
<rect x="890.3" y="185.5" width="8.1" height="4.0" fill="#2e7d32"/>
<rect x="890.3" y="495.3" width="8.1" height="36.7" fill="#2e7d32" opacity="0.55"/>
<line x1="907.5" y1="159.8" x2="907.5" y2="195.0" stroke="#2e7d32" stroke-width="1"/>
<rect x="903.4" y="165.3" width="8.1" height="20.1" fill="#2e7d32"/>
<rect x="903.4" y="466.3" width="8.1" height="65.7" fill="#2e7d32" opacity="0.55"/>
<line x1="920.5" y1="151.7" x2="920.5" y2="180.1" stroke="#c62828" stroke-width="1"/>
<rect x="916.5" y="165.5" width="8.1" height="9.5" fill="#c62828"/>
<rect x="916.5" y="465.0" width="8.1" height="67.0" fill="#c62828" opacity="0.55"/>
<line x1="933.6" y1="172.0" x2="933.6" y2="189.6" stroke="#c62828" stroke-width="1"/>
<rect x="929.6" y="176.0" width="8.1" height="12.4" fill="#c62828"/>
<rect x="929.6" y="495.1" width="8.1" height="36.9" fill="#c62828" opacity="0.55"/>
<line x1="946.7" y1="173.4" x2="946.7" y2="196.6" stroke="#2e7d32" stroke-width="1"/>
<rect x="942.6" y="175.9" width="8.1" height="12.5" fill="#2e7d32"/>
<rect x="942.6" y="498.0" width="8.1" height="34.0" fill="#2e7d32" opacity="0.55"/>
<line x1="959.8" y1="174.8" x2="959.8" y2="188.2" stroke="#c62828" stroke-width="1"/>
<rect x="955.7" y="175.9" width="8.1" height="8.2" fill="#c62828"/>
<rect x="955.7" y="517.1" width="8.1" height="14.9" fill="#c62828" opacity="0.55"/>
<line x1="972.8" y1="183.1" x2="972.8" y2="196.3" stroke="#c62828" stroke-width="1"/>
<rect x="968.8" y="183.1" width="8.1" height="13.2" fill="#c62828"/>
<rect x="968.8" y="514.8" width="8.1" height="17.2" fill="#c62828" opacity="0.55"/>
<line x1="985.9" y1="195.0" x2="985.9" y2="209.9" stroke="#c62828" stroke-width="1"/>
<rect x="981.9" y="196.3" width="8.1" height="6.5" fill="#c62828"/>
<rect x="981.9" y="508.4" width="8.1" height="23.6" fill="#c62828" opacity="0.55"/>
<line x1="999.0" y1="201.7" x2="999.0" y2="227.4" stroke="#c62828" stroke-width="1"/>
<rect x="994.9" y="202.0" width="8.1" height="11.6" fill="#c62828"/>
<rect x="994.9" y="495.4" width="8.1" height="36.6" fill="#c62828" opacity="0.55"/>
<line x1="1012.1" y1="200.4" x2="1012.1" y2="219.3" stroke="#2e7d32" stroke-width="1"/>
<rect x="1008.0" y="210.0" width="8.1" height="2.8" fill="#2e7d32"/>
<rect x="1008.0" y="500.3" width="8.1" height="31.7" fill="#2e7d32" opacity="0.55"/>
<line x1="1025.2" y1="209.9" x2="1025.2" y2="219.1" stroke="#c62828" stroke-width="1"/>
<rect x="1021.1" y="210.1" width="8.1" height="2.5" fill="#c62828"/>
<rect x="1021.1" y="519.3" width="8.1" height="12.7" fill="#c62828" opacity="0.55"/>
<line x1="1038.2" y1="212.6" x2="1038.2" y2="222.0" stroke="#c62828" stroke-width="1"/>
<rect x="1034.2" y="213.7" width="8.1" height="2.9" fill="#c62828"/>
<rect x="1034.2" y="532.0" width="8.1" height="0.0" fill="#c62828" opacity="0.55"/>
<line x1="1051.3" y1="216.6" x2="1051.3" y2="235.5" stroke="#c62828" stroke-width="1"/>
<rect x="1047.3" y="216.6" width="8.1" height="18.7" fill="#c62828"/>
<rect x="1047.3" y="532.0" width="8.1" height="0.0" fill="#c62828" opacity="0.55"/>
<line x1="1064.4" y1="231.5" x2="1064.4" y2="235.5" stroke="#2e7d32" stroke-width="1"/>
<rect x="1060.3" y="232.9" width="8.1" height="2.4" fill="#2e7d32"/>
<rect x="1060.3" y="532.0" width="8.1" height="0.0" fill="#2e7d32" opacity="0.55"/>
<line x1="1077.5" y1="234.2" x2="1077.5" y2="234.2" stroke="#2e7d32" stroke-width="1"/>
<rect x="1073.4" y="234.2" width="8.1" height="1.0" fill="#2e7d32"/>
<rect x="1073.4" y="532.0" width="8.1" height="0.0" fill="#2e7d32" opacity="0.55"/>
<line x1="64" y1="532" x2="1084" y2="532" stroke="#ccc"/>
<text x="68" y="421" font-size="9" fill="#555" text-anchor="start">1.4M</text>
<line x1="70.5" y1="532" x2="70.5" y2="536" stroke="#999"/>
<text x="70.5" y="547.0" font-size="9" fill="#666" text-anchor="middle">09/08 04:25</text>
<line x1="240.5" y1="532" x2="240.5" y2="536" stroke="#999"/>
<text x="240.5" y="547.0" font-size="9" fill="#666" text-anchor="middle">11:05</text>
<line x1="410.5" y1="532" x2="410.5" y2="536" stroke="#999"/>
<text x="410.5" y="547.0" font-size="9" fill="#666" text-anchor="middle">12:50</text>
<line x1="580.5" y1="532" x2="580.5" y2="536" stroke="#999"/>
<text x="580.5" y="547.0" font-size="9" fill="#666" text-anchor="middle">16:20</text>
<line x1="750.5" y1="532" x2="750.5" y2="536" stroke="#999"/>
<text x="750.5" y="547.0" font-size="9" fill="#666" text-anchor="middle">19:15</text>
<line x1="920.5" y1="532" x2="920.5" y2="536" stroke="#999"/>
<text x="920.5" y="547.0" font-size="9" fill="#666" text-anchor="middle">09/09 04:35</text>
<text x="64" y="22" font-size="15" font-weight="bold" fill="#1a1a1a">YMAT - J-Star Holding Co., Ltd.</text>
<text x="1084" y="22" font-size="11" fill="#666" text-anchor="end">last $1.96 (+3.2% over window)</text>
<rect x="934" y="28" width="10" height="8" fill="#e8f0fe"/>
<text x="948" y="35" font-size="9" fill="#666">premarket</text>
<rect x="1006" y="28" width="10" height="8" fill="#fff4e0"/>
<text x="1020" y="35" font-size="9" fill="#666">after-hrs</text>
</svg>