<svg xmlns="http://www.w3.org/2000/svg" width="1100" height="560" viewBox="0 0 1100 560" font-family="Arial,Helvetica,sans-serif">
<rect width="1100" height="560" fill="white"/>
<rect x="64.0" y="36" width="227.9" height="496.0" fill="#e8f0fe"/>
<rect x="696.5" y="36" width="273.5" height="496.0" fill="#fff4e0"/>
<rect x="970.0" y="36" width="114.0" height="496.0" fill="#e8f0fe"/>
<line x1="64" y1="404.0" x2="1084" y2="404.0" stroke="#e6e6e6"/>
<text x="58" y="407.0" font-size="10" fill="#666" text-anchor="end">$1.29</text>
<line x1="64" y1="312.0" x2="1084" y2="312.0" stroke="#e6e6e6"/>
<text x="58" y="315.0" font-size="10" fill="#666" text-anchor="end">$3.44</text>
<line x1="64" y1="220.0" x2="1084" y2="220.0" stroke="#e6e6e6"/>
<text x="58" y="223.0" font-size="10" fill="#666" text-anchor="end">$5.59</text>
<line x1="64" y1="128.0" x2="1084" y2="128.0" stroke="#e6e6e6"/>
<text x="58" y="131.0" font-size="10" fill="#666" text-anchor="end">$7.73</text>
<line x1="64" y1="36.0" x2="1084" y2="36.0" stroke="#e6e6e6"/>
<text x="58" y="39.0" font-size="10" fill="#666" text-anchor="end">$9.88</text>
<line x1="66.8" y1="308.9" x2="66.8" y2="323.9" stroke="#c62828" stroke-width="1"/>
<rect x="65.1" y="308.9" width="3.5" height="14.1" fill="#c62828"/>
<rect x="65.1" y="532.0" width="3.5" height="0.0" fill="#c62828" opacity="0.55"/>
<line x1="72.5" y1="309.7" x2="72.5" y2="328.6" stroke="#2e7d32" stroke-width="1"/>
<rect x="70.8" y="317.5" width="3.5" height="11.1" fill="#2e7d32"/>
<rect x="70.8" y="532.0" width="3.5" height="0.0" fill="#2e7d32" opacity="0.55"/>
<line x1="78.2" y1="322.2" x2="78.2" y2="330.7" stroke="#c62828" stroke-width="1"/>
<rect x="76.5" y="322.2" width="3.5" height="6.4" fill="#c62828"/>
<rect x="76.5" y="532.0" width="3.5" height="0.0" fill="#c62828" opacity="0.55"/>
<line x1="83.9" y1="328.6" x2="83.9" y2="332.0" stroke="#c62828" stroke-width="1"/>
<rect x="82.2" y="328.6" width="3.5" height="3.4" fill="#c62828"/>
<rect x="82.2" y="532.0" width="3.5" height="0.0" fill="#c62828" opacity="0.55"/>
<line x1="89.6" y1="332.9" x2="89.6" y2="337.2" stroke="#2e7d32" stroke-width="1"/>
<rect x="87.9" y="332.9" width="3.5" height="4.3" fill="#2e7d32"/>
<rect x="87.9" y="532.0" width="3.5" height="0.0" fill="#2e7d32" opacity="0.55"/>
<line x1="95.3" y1="333.3" x2="95.3" y2="335.4" stroke="#c62828" stroke-width="1"/>
<rect x="93.6" y="333.3" width="3.5" height="2.1" fill="#c62828"/>
<rect x="93.6" y="532.0" width="3.5" height="0.0" fill="#c62828" opacity="0.55"/>
<line x1="101.0" y1="335.9" x2="101.0" y2="336.3" stroke="#2e7d32" stroke-width="1"/>
<rect x="99.3" y="335.9" width="3.5" height="1.0" fill="#2e7d32"/>
<rect x="99.3" y="532.0" width="3.5" height="0.0" fill="#2e7d32" opacity="0.55"/>
<line x1="106.7" y1="338.9" x2="106.7" y2="339.3" stroke="#2e7d32" stroke-width="1"/>
<rect x="105.0" y="338.9" width="3.5" height="1.0" fill="#2e7d32"/>
<rect x="105.0" y="532.0" width="3.5" height="0.0" fill="#2e7d32" opacity="0.55"/>
<line x1="112.4" y1="335.0" x2="112.4" y2="335.0" stroke="#2e7d32" stroke-width="1"/>
<rect x="110.7" y="335.0" width="3.5" height="1.0" fill="#2e7d32"/>
<rect x="110.7" y="532.0" width="3.5" height="0.0" fill="#2e7d32" opacity="0.55"/>
<line x1="118.1" y1="335.0" x2="118.1" y2="335.0" stroke="#2e7d32" stroke-width="1"/>
<rect x="116.4" y="335.0" width="3.5" height="1.0" fill="#2e7d32"/>
<rect x="116.4" y="532.0" width="3.5" height="0.0" fill="#2e7d32" opacity="0.55"/>
<line x1="123.8" y1="338.4" x2="123.8" y2="338.4" stroke="#2e7d32" stroke-width="1"/>
<rect x="122.1" y="338.4" width="3.5" height="1.0" fill="#2e7d32"/>
<rect x="122.1" y="532.0" width="3.5" height="0.0" fill="#2e7d32" opacity="0.55"/>
<line x1="129.5" y1="338.0" x2="129.5" y2="338.0" stroke="#2e7d32" stroke-width="1"/>
<rect x="127.8" y="338.0" width="3.5" height="1.0" fill="#2e7d32"/>
<rect x="127.8" y="532.0" width="3.5" height="0.0" fill="#2e7d32" opacity="0.55"/>
<line x1="135.2" y1="342.5" x2="135.2" y2="343.6" stroke="#2e7d32" stroke-width="1"/>
<rect x="133.5" y="342.5" width="3.5" height="1.1" fill="#2e7d32"/>
<rect x="133.5" y="532.0" width="3.5" height="0.0" fill="#2e7d32" opacity="0.55"/>
<line x1="140.9" y1="347.8" x2="140.9" y2="347.8" stroke="#2e7d32" stroke-width="1"/>
<rect x="139.2" y="347.8" width="3.5" height="1.0" fill="#2e7d32"/>
<rect x="139.2" y="532.0" width="3.5" height="0.0" fill="#2e7d32" opacity="0.55"/>
<line x1="146.6" y1="347.1" x2="146.6" y2="347.1" stroke="#2e7d32" stroke-width="1"/>
<rect x="144.9" y="347.1" width="3.5" height="1.0" fill="#2e7d32"/>
<rect x="144.9" y="532.0" width="3.5" height="0.0" fill="#2e7d32" opacity="0.55"/>
<line x1="152.3" y1="339.9" x2="152.3" y2="341.4" stroke="#c62828" stroke-width="1"/>
<rect x="150.6" y="339.9" width="3.5" height="1.5" fill="#c62828"/>
<rect x="150.6" y="532.0" width="3.5" height="0.0" fill="#c62828" opacity="0.55"/>
<line x1="158.0" y1="339.3" x2="158.0" y2="339.7" stroke="#c62828" stroke-width="1"/>
<rect x="156.3" y="339.3" width="3.5" height="1.0" fill="#c62828"/>
<rect x="156.3" y="532.0" width="3.5" height="0.0" fill="#c62828" opacity="0.55"/>
<line x1="163.7" y1="342.7" x2="163.7" y2="342.7" stroke="#c62828" stroke-width="1"/>
<rect x="162.0" y="342.7" width="3.5" height="1.0" fill="#c62828"/>
<rect x="162.0" y="532.0" width="3.5" height="0.0" fill="#c62828" opacity="0.55"/>
<line x1="169.4" y1="342.8" x2="169.4" y2="342.8" stroke="#2e7d32" stroke-width="1"/>
<rect x="167.7" y="342.8" width="3.5" height="1.0" fill="#2e7d32"/>
<rect x="167.7" y="532.0" width="3.5" height="0.0" fill="#2e7d32" opacity="0.55"/>
<line x1="175.1" y1="343.2" x2="175.1" y2="343.2" stroke="#2e7d32" stroke-width="1"/>
<rect x="173.4" y="343.2" width="3.5" height="1.0" fill="#2e7d32"/>
<rect x="173.4" y="532.0" width="3.5" height="0.0" fill="#2e7d32" opacity="0.55"/>
<line x1="180.8" y1="342.7" x2="180.8" y2="348.7" stroke="#2e7d32" stroke-width="1"/>
<rect x="179.0" y="342.7" width="3.5" height="6.0" fill="#2e7d32"/>
<rect x="179.0" y="532.0" width="3.5" height="0.0" fill="#2e7d32" opacity="0.55"/>
<line x1="186.5" y1="346.6" x2="186.5" y2="346.6" stroke="#2e7d32" stroke-width="1"/>
<rect x="184.7" y="346.6" width="3.5" height="1.0" fill="#2e7d32"/>
<rect x="184.7" y="532.0" width="3.5" height="0.0" fill="#2e7d32" opacity="0.55"/>
<line x1="192.2" y1="345.7" x2="192.2" y2="346.6" stroke="#c62828" stroke-width="1"/>
<rect x="190.4" y="345.7" width="3.5" height="1.0" fill="#c62828"/>
<rect x="190.4" y="532.0" width="3.5" height="0.0" fill="#c62828" opacity="0.55"/>
<line x1="197.9" y1="339.7" x2="197.9" y2="343.6" stroke="#c62828" stroke-width="1"/>
<rect x="196.1" y="343.2" width="3.5" height="1.0" fill="#c62828"/>
<rect x="196.1" y="532.0" width="3.5" height="0.0" fill="#c62828" opacity="0.55"/>
<line x1="203.6" y1="343.6" x2="203.6" y2="343.6" stroke="#2e7d32" stroke-width="1"/>
<rect x="201.8" y="343.6" width="3.5" height="1.0" fill="#2e7d32"/>
<rect x="201.8" y="532.0" width="3.5" height="0.0" fill="#2e7d32" opacity="0.55"/>
<line x1="209.3" y1="343.6" x2="209.3" y2="343.6" stroke="#2e7d32" stroke-width="1"/>
<rect x="207.5" y="343.6" width="3.5" height="1.0" fill="#2e7d32"/>
<rect x="207.5" y="532.0" width="3.5" height="0.0" fill="#2e7d32" opacity="0.55"/>
<line x1="215.0" y1="342.7" x2="215.0" y2="342.7" stroke="#2e7d32" stroke-width="1"/>
<rect x="213.2" y="342.7" width="3.5" height="1.0" fill="#2e7d32"/>
<rect x="213.2" y="532.0" width="3.5" height="0.0" fill="#2e7d32" opacity="0.55"/>
<line x1="220.7" y1="343.6" x2="220.7" y2="343.6" stroke="#2e7d32" stroke-width="1"/>
<rect x="218.9" y="343.6" width="3.5" height="1.0" fill="#2e7d32"/>
<rect x="218.9" y="532.0" width="3.5" height="0.0" fill="#2e7d32" opacity="0.55"/>
<line x1="226.4" y1="343.6" x2="226.4" y2="343.6" stroke="#c62828" stroke-width="1"/>
<rect x="224.6" y="343.6" width="3.5" height="1.0" fill="#c62828"/>
<rect x="224.6" y="532.0" width="3.5" height="0.0" fill="#c62828" opacity="0.55"/>
<line x1="232.1" y1="341.4" x2="232.1" y2="341.4" stroke="#2e7d32" stroke-width="1"/>
<rect x="230.3" y="341.4" width="3.5" height="1.0" fill="#2e7d32"/>
<rect x="230.3" y="532.0" width="3.5" height="0.0" fill="#2e7d32" opacity="0.55"/>
<line x1="237.8" y1="340.2" x2="237.8" y2="342.7" stroke="#c62828" stroke-width="1"/>
<rect x="236.0" y="340.2" width="3.5" height="1.0" fill="#c62828"/>
<rect x="236.0" y="532.0" width="3.5" height="0.0" fill="#c62828" opacity="0.55"/>
<line x1="243.5" y1="342.7" x2="243.5" y2="347.0" stroke="#c62828" stroke-width="1"/>
<rect x="241.7" y="342.7" width="3.5" height="4.3" fill="#c62828"/>
<rect x="241.7" y="532.0" width="3.5" height="0.0" fill="#c62828" opacity="0.55"/>
<line x1="249.2" y1="344.9" x2="249.2" y2="344.9" stroke="#2e7d32" stroke-width="1"/>
<rect x="247.4" y="344.9" width="3.5" height="1.0" fill="#2e7d32"/>
<rect x="247.4" y="532.0" width="3.5" height="0.0" fill="#2e7d32" opacity="0.55"/>
<line x1="254.9" y1="344.9" x2="254.9" y2="346.6" stroke="#2e7d32" stroke-width="1"/>
<rect x="253.1" y="344.9" width="3.5" height="1.7" fill="#2e7d32"/>
<rect x="253.1" y="532.0" width="3.5" height="0.0" fill="#2e7d32" opacity="0.55"/>
<line x1="260.6" y1="344.9" x2="260.6" y2="344.9" stroke="#2e7d32" stroke-width="1"/>
<rect x="258.8" y="344.9" width="3.5" height="1.0" fill="#2e7d32"/>
<rect x="258.8" y="532.0" width="3.5" height="0.0" fill="#2e7d32" opacity="0.55"/>
<line x1="266.3" y1="340.2" x2="266.3" y2="340.2" stroke="#2e7d32" stroke-width="1"/>
<rect x="264.5" y="340.2" width="3.5" height="1.0" fill="#2e7d32"/>
<rect x="264.5" y="532.0" width="3.5" height="0.0" fill="#2e7d32" opacity="0.55"/>
<line x1="272.0" y1="344.9" x2="272.0" y2="344.9" stroke="#2e7d32" stroke-width="1"/>
<rect x="270.2" y="344.9" width="3.5" height="1.0" fill="#2e7d32"/>
<rect x="270.2" y="532.0" width="3.5" height="0.0" fill="#2e7d32" opacity="0.55"/>
<line x1="277.7" y1="344.9" x2="277.7" y2="344.9" stroke="#2e7d32" stroke-width="1"/>
<rect x="275.9" y="344.9" width="3.5" height="1.0" fill="#2e7d32"/>
<rect x="275.9" y="532.0" width="3.5" height="0.0" fill="#2e7d32" opacity="0.55"/>
<line x1="283.4" y1="344.9" x2="283.4" y2="344.9" stroke="#2e7d32" stroke-width="1"/>
<rect x="281.6" y="344.9" width="3.5" height="1.0" fill="#2e7d32"/>
<rect x="281.6" y="532.0" width="3.5" height="0.0" fill="#2e7d32" opacity="0.55"/>
<line x1="289.1" y1="341.0" x2="289.1" y2="344.9" stroke="#2e7d32" stroke-width="1"/>
<rect x="287.3" y="341.1" width="3.5" height="3.8" fill="#2e7d32"/>
<rect x="287.3" y="532.0" width="3.5" height="0.0" fill="#2e7d32" opacity="0.55"/>
<line x1="294.8" y1="341.4" x2="294.8" y2="344.4" stroke="#2e7d32" stroke-width="1"/>
<rect x="293.0" y="341.4" width="3.5" height="1.7" fill="#2e7d32"/>
<rect x="293.0" y="428.8" width="3.5" height="103.2" fill="#2e7d32" opacity="0.55"/>
<line x1="300.5" y1="347.4" x2="300.5" y2="352.2" stroke="#c62828" stroke-width="1"/>
<rect x="298.7" y="347.4" width="3.5" height="4.3" fill="#c62828"/>
<rect x="298.7" y="510.3" width="3.5" height="21.7" fill="#c62828" opacity="0.55"/>
<line x1="306.2" y1="351.7" x2="306.2" y2="360.3" stroke="#c62828" stroke-width="1"/>
<rect x="304.4" y="351.7" width="3.5" height="4.1" fill="#c62828"/>
<rect x="304.4" y="461.9" width="3.5" height="70.1" fill="#c62828" opacity="0.55"/>
<line x1="311.9" y1="353.0" x2="311.9" y2="358.2" stroke="#2e7d32" stroke-width="1"/>
<rect x="310.1" y="353.0" width="3.5" height="5.1" fill="#2e7d32"/>
<rect x="310.1" y="528.7" width="3.5" height="3.3" fill="#2e7d32" opacity="0.55"/>
<line x1="317.6" y1="353.0" x2="317.6" y2="356.4" stroke="#c62828" stroke-width="1"/>
<rect x="315.8" y="353.9" width="3.5" height="1.0" fill="#c62828"/>
<rect x="315.8" y="526.4" width="3.5" height="5.6" fill="#c62828" opacity="0.55"/>
<line x1="323.3" y1="353.4" x2="323.3" y2="355.2" stroke="#c62828" stroke-width="1"/>
<rect x="321.5" y="353.9" width="3.5" height="1.3" fill="#c62828"/>
<rect x="321.5" y="518.4" width="3.5" height="13.6" fill="#c62828" opacity="0.55"/>
<line x1="329.0" y1="354.3" x2="329.0" y2="354.7" stroke="#c62828" stroke-width="1"/>
<rect x="327.2" y="354.3" width="3.5" height="1.0" fill="#c62828"/>
<rect x="327.2" y="527.4" width="3.5" height="4.6" fill="#c62828" opacity="0.55"/>
<line x1="334.7" y1="355.6" x2="334.7" y2="355.6" stroke="#2e7d32" stroke-width="1"/>
<rect x="332.9" y="355.6" width="3.5" height="1.0" fill="#2e7d32"/>
<rect x="332.9" y="530.5" width="3.5" height="1.5" fill="#2e7d32" opacity="0.55"/>
<line x1="340.4" y1="353.9" x2="340.4" y2="353.9" stroke="#2e7d32" stroke-width="1"/>
<rect x="338.6" y="353.9" width="3.5" height="1.0" fill="#2e7d32"/>
<rect x="338.6" y="532.0" width="3.5" height="0.0" fill="#2e7d32" opacity="0.55"/>
<line x1="346.1" y1="354.5" x2="346.1" y2="355.2" stroke="#c62828" stroke-width="1"/>
<rect x="344.3" y="354.5" width="3.5" height="1.0" fill="#c62828"/>
<rect x="344.3" y="531.0" width="3.5" height="1.0" fill="#c62828" opacity="0.55"/>
<line x1="351.8" y1="353.9" x2="351.8" y2="355.2" stroke="#c62828" stroke-width="1"/>
<rect x="350.0" y="353.9" width="3.5" height="1.3" fill="#c62828"/>
<rect x="350.0" y="529.3" width="3.5" height="2.7" fill="#c62828" opacity="0.55"/>
<line x1="357.5" y1="354.9" x2="357.5" y2="354.9" stroke="#2e7d32" stroke-width="1"/>
<rect x="355.7" y="354.9" width="3.5" height="1.0" fill="#2e7d32"/>
<rect x="355.7" y="531.5" width="3.5" height="0.5" fill="#2e7d32" opacity="0.55"/>
<line x1="363.2" y1="355.2" x2="363.2" y2="355.9" stroke="#c62828" stroke-width="1"/>
<rect x="361.4" y="355.2" width="3.5" height="1.0" fill="#c62828"/>
<rect x="361.4" y="495.0" width="3.5" height="37.0" fill="#c62828" opacity="0.55"/>
<line x1="368.9" y1="355.6" x2="368.9" y2="356.0" stroke="#2e7d32" stroke-width="1"/>
<rect x="367.1" y="355.6" width="3.5" height="1.0" fill="#2e7d32"/>
<rect x="367.1" y="525.2" width="3.5" height="6.8" fill="#2e7d32" opacity="0.55"/>
<line x1="374.6" y1="355.2" x2="374.6" y2="356.0" stroke="#c62828" stroke-width="1"/>
<rect x="372.8" y="355.6" width="3.5" height="1.0" fill="#c62828"/>
<rect x="372.8" y="508.2" width="3.5" height="23.8" fill="#c62828" opacity="0.55"/>
<line x1="380.3" y1="356.0" x2="380.3" y2="356.0" stroke="#2e7d32" stroke-width="1"/>
<rect x="378.5" y="356.0" width="3.5" height="1.0" fill="#2e7d32"/>
<rect x="378.5" y="530.3" width="3.5" height="1.7" fill="#2e7d32" opacity="0.55"/>
<line x1="386.0" y1="356.0" x2="386.0" y2="356.9" stroke="#2e7d32" stroke-width="1"/>
<rect x="384.2" y="356.1" width="3.5" height="1.0" fill="#2e7d32"/>
<rect x="384.2" y="524.1" width="3.5" height="7.9" fill="#2e7d32" opacity="0.55"/>
<line x1="391.7" y1="356.0" x2="391.7" y2="356.9" stroke="#c62828" stroke-width="1"/>
<rect x="389.9" y="356.0" width="3.5" height="1.0" fill="#c62828"/>
<rect x="389.9" y="525.0" width="3.5" height="7.0" fill="#c62828" opacity="0.55"/>
<line x1="397.4" y1="356.2" x2="397.4" y2="356.4" stroke="#2e7d32" stroke-width="1"/>
<rect x="395.6" y="356.4" width="3.5" height="1.0" fill="#2e7d32"/>
<rect x="395.6" y="526.8" width="3.5" height="5.2" fill="#2e7d32" opacity="0.55"/>
<line x1="403.1" y1="356.4" x2="403.1" y2="356.4" stroke="#2e7d32" stroke-width="1"/>
<rect x="401.3" y="356.4" width="3.5" height="1.0" fill="#2e7d32"/>
<rect x="401.3" y="531.8" width="3.5" height="0.2" fill="#2e7d32" opacity="0.55"/>
<line x1="408.7" y1="356.0" x2="408.7" y2="356.2" stroke="#2e7d32" stroke-width="1"/>
<rect x="407.0" y="356.2" width="3.5" height="1.0" fill="#2e7d32"/>
<rect x="407.0" y="527.4" width="3.5" height="4.6" fill="#2e7d32" opacity="0.55"/>
<line x1="414.4" y1="356.0" x2="414.4" y2="356.4" stroke="#c62828" stroke-width="1"/>
<rect x="412.7" y="356.2" width="3.5" height="1.0" fill="#c62828"/>
<rect x="412.7" y="526.0" width="3.5" height="6.0" fill="#c62828" opacity="0.55"/>
<line x1="420.1" y1="356.4" x2="420.1" y2="361.6" stroke="#c62828" stroke-width="1"/>
<rect x="418.4" y="356.4" width="3.5" height="5.1" fill="#c62828"/>
<rect x="418.4" y="412.0" width="3.5" height="120.0" fill="#c62828" opacity="0.55"/>
<line x1="425.8" y1="359.0" x2="425.8" y2="377.0" stroke="#c62828" stroke-width="1"/>
<rect x="424.1" y="359.0" width="3.5" height="17.6" fill="#c62828"/>
<rect x="424.1" y="449.4" width="3.5" height="82.6" fill="#c62828" opacity="0.55"/>
<line x1="431.5" y1="366.3" x2="431.5" y2="384.3" stroke="#2e7d32" stroke-width="1"/>
<rect x="429.8" y="373.6" width="3.5" height="3.9" fill="#2e7d32"/>
<rect x="429.8" y="449.2" width="3.5" height="82.8" fill="#2e7d32" opacity="0.55"/>
<line x1="437.2" y1="371.4" x2="437.2" y2="376.6" stroke="#c62828" stroke-width="1"/>
<rect x="435.5" y="371.9" width="3.5" height="4.5" fill="#c62828"/>
<rect x="435.5" y="512.5" width="3.5" height="19.5" fill="#c62828" opacity="0.55"/>
<line x1="442.9" y1="373.6" x2="442.9" y2="376.6" stroke="#2e7d32" stroke-width="1"/>
<rect x="441.2" y="375.1" width="3.5" height="1.5" fill="#2e7d32"/>
<rect x="441.2" y="520.2" width="3.5" height="11.8" fill="#2e7d32" opacity="0.55"/>
<line x1="448.6" y1="373.1" x2="448.6" y2="376.1" stroke="#2e7d32" stroke-width="1"/>
<rect x="446.9" y="373.1" width="3.5" height="1.0" fill="#2e7d32"/>
<rect x="446.9" y="522.0" width="3.5" height="10.0" fill="#2e7d32" opacity="0.55"/>
<line x1="454.3" y1="366.1" x2="454.3" y2="372.7" stroke="#2e7d32" stroke-width="1"/>
<rect x="452.6" y="371.5" width="3.5" height="1.2" fill="#2e7d32"/>
<rect x="452.6" y="515.6" width="3.5" height="16.4" fill="#2e7d32" opacity="0.55"/>
<line x1="460.0" y1="370.1" x2="460.0" y2="371.0" stroke="#c62828" stroke-width="1"/>
<rect x="458.3" y="370.1" width="3.5" height="1.0" fill="#c62828"/>
<rect x="458.3" y="516.1" width="3.5" height="15.9" fill="#c62828" opacity="0.55"/>
<line x1="465.7" y1="370.6" x2="465.7" y2="371.6" stroke="#c62828" stroke-width="1"/>
<rect x="464.0" y="370.8" width="3.5" height="1.0" fill="#c62828"/>
<rect x="464.0" y="522.0" width="3.5" height="10.0" fill="#c62828" opacity="0.55"/>
<line x1="471.4" y1="369.7" x2="471.4" y2="372.7" stroke="#2e7d32" stroke-width="1"/>
<rect x="469.7" y="369.7" width="3.5" height="1.9" fill="#2e7d32"/>
<rect x="469.7" y="526.9" width="3.5" height="5.1" fill="#2e7d32" opacity="0.55"/>
<line x1="477.1" y1="371.2" x2="477.1" y2="372.3" stroke="#2e7d32" stroke-width="1"/>
<rect x="475.4" y="371.4" width="3.5" height="1.0" fill="#2e7d32"/>
<rect x="475.4" y="526.8" width="3.5" height="5.2" fill="#2e7d32" opacity="0.55"/>
<line x1="482.8" y1="371.4" x2="482.8" y2="373.6" stroke="#c62828" stroke-width="1"/>
<rect x="481.1" y="371.4" width="3.5" height="2.1" fill="#c62828"/>
<rect x="481.1" y="527.8" width="3.5" height="4.2" fill="#c62828" opacity="0.55"/>
<line x1="488.5" y1="368.6" x2="488.5" y2="373.6" stroke="#2e7d32" stroke-width="1"/>
<rect x="486.8" y="368.6" width="3.5" height="4.9" fill="#2e7d32"/>
<rect x="486.8" y="513.9" width="3.5" height="18.1" fill="#2e7d32" opacity="0.55"/>
<line x1="494.2" y1="368.6" x2="494.2" y2="370.6" stroke="#c62828" stroke-width="1"/>
<rect x="492.5" y="368.6" width="3.5" height="1.5" fill="#c62828"/>
<rect x="492.5" y="528.4" width="3.5" height="3.6" fill="#c62828" opacity="0.55"/>
<line x1="499.9" y1="370.2" x2="499.9" y2="370.6" stroke="#c62828" stroke-width="1"/>
<rect x="498.2" y="370.2" width="3.5" height="1.0" fill="#c62828"/>
<rect x="498.2" y="526.4" width="3.5" height="5.6" fill="#c62828" opacity="0.55"/>
<line x1="505.6" y1="371.0" x2="505.6" y2="371.9" stroke="#2e7d32" stroke-width="1"/>
<rect x="503.9" y="371.0" width="3.5" height="1.0" fill="#2e7d32"/>
<rect x="503.9" y="528.2" width="3.5" height="3.8" fill="#2e7d32" opacity="0.55"/>
<line x1="511.3" y1="370.1" x2="511.3" y2="371.9" stroke="#c62828" stroke-width="1"/>
<rect x="509.6" y="370.1" width="3.5" height="1.7" fill="#c62828"/>
<rect x="509.6" y="530.3" width="3.5" height="1.7" fill="#c62828" opacity="0.55"/>
<line x1="517.0" y1="370.6" x2="517.0" y2="371.9" stroke="#2e7d32" stroke-width="1"/>
<rect x="515.3" y="371.9" width="3.5" height="1.0" fill="#2e7d32"/>
<rect x="515.3" y="529.2" width="3.5" height="2.8" fill="#2e7d32" opacity="0.55"/>
<line x1="522.7" y1="371.9" x2="522.7" y2="372.7" stroke="#c62828" stroke-width="1"/>
<rect x="520.9" y="372.2" width="3.5" height="1.0" fill="#c62828"/>
<rect x="520.9" y="527.1" width="3.5" height="4.9" fill="#c62828" opacity="0.55"/>
<line x1="528.4" y1="373.1" x2="528.4" y2="373.1" stroke="#2e7d32" stroke-width="1"/>
<rect x="526.6" y="373.1" width="3.5" height="1.0" fill="#2e7d32"/>
<rect x="526.6" y="531.6" width="3.5" height="0.4" fill="#2e7d32" opacity="0.55"/>
<line x1="534.1" y1="372.7" x2="534.1" y2="373.1" stroke="#2e7d32" stroke-width="1"/>
<rect x="532.3" y="372.7" width="3.5" height="1.0" fill="#2e7d32"/>
<rect x="532.3" y="524.1" width="3.5" height="7.9" fill="#2e7d32" opacity="0.55"/>
<line x1="539.8" y1="372.7" x2="539.8" y2="373.6" stroke="#c62828" stroke-width="1"/>
<rect x="538.0" y="372.7" width="3.5" height="1.0" fill="#c62828"/>
<rect x="538.0" y="519.4" width="3.5" height="12.6" fill="#c62828" opacity="0.55"/>
<line x1="545.5" y1="372.7" x2="545.5" y2="373.6" stroke="#2e7d32" stroke-width="1"/>
<rect x="543.7" y="373.1" width="3.5" height="1.0" fill="#2e7d32"/>
<rect x="543.7" y="528.6" width="3.5" height="3.4" fill="#2e7d32" opacity="0.55"/>
<line x1="551.2" y1="369.7" x2="551.2" y2="373.1" stroke="#2e7d32" stroke-width="1"/>
<rect x="549.4" y="372.7" width="3.5" height="1.0" fill="#2e7d32"/>
<rect x="549.4" y="521.0" width="3.5" height="11.0" fill="#2e7d32" opacity="0.55"/>
<line x1="556.9" y1="370.1" x2="556.9" y2="371.9" stroke="#2e7d32" stroke-width="1"/>
<rect x="555.1" y="371.0" width="3.5" height="1.0" fill="#2e7d32"/>
<rect x="555.1" y="524.5" width="3.5" height="7.5" fill="#2e7d32" opacity="0.55"/>
<line x1="562.6" y1="369.3" x2="562.6" y2="371.0" stroke="#c62828" stroke-width="1"/>
<rect x="560.8" y="370.6" width="3.5" height="1.0" fill="#c62828"/>
<rect x="560.8" y="514.9" width="3.5" height="17.1" fill="#c62828" opacity="0.55"/>
<line x1="568.3" y1="370.6" x2="568.3" y2="372.3" stroke="#c62828" stroke-width="1"/>
<rect x="566.5" y="370.6" width="3.5" height="1.7" fill="#c62828"/>
<rect x="566.5" y="529.6" width="3.5" height="2.4" fill="#c62828" opacity="0.55"/>
<line x1="574.0" y1="370.6" x2="574.0" y2="372.2" stroke="#2e7d32" stroke-width="1"/>
<rect x="572.2" y="371.4" width="3.5" height="1.0" fill="#2e7d32"/>
<rect x="572.2" y="526.5" width="3.5" height="5.5" fill="#2e7d32" opacity="0.55"/>
<line x1="579.7" y1="370.6" x2="579.7" y2="371.9" stroke="#c62828" stroke-width="1"/>
<rect x="577.9" y="370.9" width="3.5" height="1.0" fill="#c62828"/>
<rect x="577.9" y="527.5" width="3.5" height="4.5" fill="#c62828" opacity="0.55"/>
<line x1="585.4" y1="371.9" x2="585.4" y2="373.1" stroke="#c62828" stroke-width="1"/>
<rect x="583.6" y="371.9" width="3.5" height="1.3" fill="#c62828"/>
<rect x="583.6" y="518.9" width="3.5" height="13.1" fill="#c62828" opacity="0.55"/>
<line x1="591.1" y1="372.3" x2="591.1" y2="373.6" stroke="#c62828" stroke-width="1"/>
<rect x="589.3" y="372.7" width="3.5" height="1.0" fill="#c62828"/>
<rect x="589.3" y="452.9" width="3.5" height="79.1" fill="#c62828" opacity="0.55"/>
<line x1="596.8" y1="372.7" x2="596.8" y2="377.9" stroke="#2e7d32" stroke-width="1"/>
<rect x="595.0" y="372.7" width="3.5" height="1.0" fill="#2e7d32"/>
<rect x="595.0" y="503.3" width="3.5" height="28.7" fill="#2e7d32" opacity="0.55"/>
<line x1="602.5" y1="371.6" x2="602.5" y2="374.4" stroke="#2e7d32" stroke-width="1"/>
<rect x="600.7" y="371.6" width="3.5" height="1.5" fill="#2e7d32"/>
<rect x="600.7" y="530.4" width="3.5" height="1.6" fill="#2e7d32" opacity="0.55"/>
<line x1="608.2" y1="373.5" x2="608.2" y2="375.7" stroke="#c62828" stroke-width="1"/>
<rect x="606.4" y="373.6" width="3.5" height="2.1" fill="#c62828"/>
<rect x="606.4" y="530.2" width="3.5" height="1.8" fill="#c62828" opacity="0.55"/>
<line x1="613.9" y1="372.7" x2="613.9" y2="374.0" stroke="#2e7d32" stroke-width="1"/>
<rect x="612.1" y="372.7" width="3.5" height="1.3" fill="#2e7d32"/>
<rect x="612.1" y="531.4" width="3.5" height="0.6" fill="#2e7d32" opacity="0.55"/>
<line x1="619.6" y1="372.7" x2="619.6" y2="373.6" stroke="#c62828" stroke-width="1"/>
<rect x="617.8" y="372.7" width="3.5" height="1.0" fill="#c62828"/>
<rect x="617.8" y="530.6" width="3.5" height="1.4" fill="#c62828" opacity="0.55"/>
<line x1="625.3" y1="370.8" x2="625.3" y2="375.7" stroke="#2e7d32" stroke-width="1"/>
<rect x="623.5" y="371.0" width="3.5" height="3.2" fill="#2e7d32"/>
<rect x="623.5" y="525.3" width="3.5" height="6.7" fill="#2e7d32" opacity="0.55"/>
<line x1="631.0" y1="373.6" x2="631.0" y2="375.7" stroke="#2e7d32" stroke-width="1"/>
<rect x="629.2" y="374.9" width="3.5" height="1.0" fill="#2e7d32"/>
<rect x="629.2" y="530.6" width="3.5" height="1.4" fill="#2e7d32" opacity="0.55"/>
<line x1="636.7" y1="369.7" x2="636.7" y2="375.3" stroke="#c62828" stroke-width="1"/>
<rect x="634.9" y="369.7" width="3.5" height="5.6" fill="#c62828"/>
<rect x="634.9" y="529.5" width="3.5" height="2.5" fill="#c62828" opacity="0.55"/>
<line x1="642.4" y1="373.6" x2="642.4" y2="374.4" stroke="#c62828" stroke-width="1"/>
<rect x="640.6" y="373.6" width="3.5" height="1.0" fill="#c62828"/>
<rect x="640.6" y="529.7" width="3.5" height="2.3" fill="#c62828" opacity="0.55"/>
<line x1="648.1" y1="372.3" x2="648.1" y2="373.4" stroke="#c62828" stroke-width="1"/>
<rect x="646.3" y="372.3" width="3.5" height="1.0" fill="#c62828"/>
<rect x="646.3" y="528.7" width="3.5" height="3.3" fill="#c62828" opacity="0.55"/>
<line x1="653.8" y1="371.4" x2="653.8" y2="371.4" stroke="#2e7d32" stroke-width="1"/>
<rect x="652.0" y="371.4" width="3.5" height="1.0" fill="#2e7d32"/>
<rect x="652.0" y="530.9" width="3.5" height="1.1" fill="#2e7d32" opacity="0.55"/>
<line x1="659.5" y1="371.4" x2="659.5" y2="374.9" stroke="#c62828" stroke-width="1"/>
<rect x="657.7" y="371.4" width="3.5" height="3.4" fill="#c62828"/>
<rect x="657.7" y="520.5" width="3.5" height="11.5" fill="#c62828" opacity="0.55"/>
<line x1="665.2" y1="371.4" x2="665.2" y2="374.9" stroke="#c62828" stroke-width="1"/>
<rect x="663.4" y="371.4" width="3.5" height="3.0" fill="#c62828"/>
<rect x="663.4" y="528.1" width="3.5" height="3.9" fill="#c62828" opacity="0.55"/>
<line x1="670.9" y1="372.9" x2="670.9" y2="375.7" stroke="#c62828" stroke-width="1"/>
<rect x="669.1" y="374.4" width="3.5" height="1.3" fill="#c62828"/>
<rect x="669.1" y="527.7" width="3.5" height="4.3" fill="#c62828" opacity="0.55"/>
<line x1="676.6" y1="372.7" x2="676.6" y2="375.7" stroke="#c62828" stroke-width="1"/>
<rect x="674.8" y="372.7" width="3.5" height="2.1" fill="#c62828"/>
<rect x="674.8" y="524.2" width="3.5" height="7.8" fill="#c62828" opacity="0.55"/>
<line x1="682.3" y1="374.4" x2="682.3" y2="374.4" stroke="#2e7d32" stroke-width="1"/>
<rect x="680.5" y="374.4" width="3.5" height="1.0" fill="#2e7d32"/>
<rect x="680.5" y="531.8" width="3.5" height="0.2" fill="#2e7d32" opacity="0.55"/>
<line x1="688.0" y1="372.3" x2="688.0" y2="374.4" stroke="#2e7d32" stroke-width="1"/>
<rect x="686.2" y="372.7" width="3.5" height="1.5" fill="#2e7d32"/>
<rect x="686.2" y="522.1" width="3.5" height="9.9" fill="#2e7d32" opacity="0.55"/>
<line x1="693.7" y1="365.0" x2="693.7" y2="373.6" stroke="#2e7d32" stroke-width="1"/>
<rect x="691.9" y="370.1" width="3.5" height="2.1" fill="#2e7d32"/>
<rect x="691.9" y="480.8" width="3.5" height="51.2" fill="#2e7d32" opacity="0.55"/>
<line x1="699.4" y1="361.8" x2="699.4" y2="370.1" stroke="#2e7d32" stroke-width="1"/>
<rect x="697.6" y="370.1" width="3.5" height="1.0" fill="#2e7d32"/>
<rect x="697.6" y="532.0" width="3.5" height="0.0" fill="#2e7d32" opacity="0.55"/>
<line x1="705.1" y1="356.4" x2="705.1" y2="369.3" stroke="#2e7d32" stroke-width="1"/>
<rect x="703.3" y="356.4" width="3.5" height="12.8" fill="#2e7d32"/>
<rect x="703.3" y="532.0" width="3.5" height="0.0" fill="#2e7d32" opacity="0.55"/>
<line x1="710.8" y1="340.2" x2="710.8" y2="367.6" stroke="#c62828" stroke-width="1"/>
<rect x="709.0" y="356.4" width="3.5" height="11.1" fill="#c62828"/>
<rect x="709.0" y="532.0" width="3.5" height="0.0" fill="#c62828" opacity="0.55"/>
<line x1="716.5" y1="353.9" x2="716.5" y2="365.9" stroke="#2e7d32" stroke-width="1"/>
<rect x="714.7" y="353.9" width="3.5" height="12.0" fill="#2e7d32"/>
<rect x="714.7" y="532.0" width="3.5" height="0.0" fill="#2e7d32" opacity="0.55"/>
<line x1="722.2" y1="353.9" x2="722.2" y2="360.3" stroke="#c62828" stroke-width="1"/>
<rect x="720.4" y="353.9" width="3.5" height="3.4" fill="#c62828"/>
<rect x="720.4" y="532.0" width="3.5" height="0.0" fill="#c62828" opacity="0.55"/>
<line x1="727.9" y1="356.0" x2="727.9" y2="360.7" stroke="#c62828" stroke-width="1"/>
<rect x="726.1" y="357.3" width="3.5" height="1.0" fill="#c62828"/>
<rect x="726.1" y="532.0" width="3.5" height="0.0" fill="#c62828" opacity="0.55"/>
<line x1="733.6" y1="346.2" x2="733.6" y2="359.0" stroke="#2e7d32" stroke-width="1"/>
<rect x="731.8" y="347.0" width="3.5" height="7.7" fill="#2e7d32"/>
<rect x="731.8" y="532.0" width="3.5" height="0.0" fill="#2e7d32" opacity="0.55"/>
<line x1="739.3" y1="339.7" x2="739.3" y2="356.4" stroke="#2e7d32" stroke-width="1"/>
<rect x="737.5" y="344.4" width="3.5" height="1.8" fill="#2e7d32"/>
<rect x="737.5" y="532.0" width="3.5" height="0.0" fill="#2e7d32" opacity="0.55"/>
<line x1="744.9" y1="341.9" x2="744.9" y2="352.6" stroke="#c62828" stroke-width="1"/>
<rect x="743.2" y="342.3" width="3.5" height="6.4" fill="#c62828"/>
<rect x="743.2" y="532.0" width="3.5" height="0.0" fill="#c62828" opacity="0.55"/>
<line x1="750.6" y1="347.9" x2="750.6" y2="356.4" stroke="#c62828" stroke-width="1"/>
<rect x="748.9" y="348.7" width="3.5" height="7.3" fill="#c62828"/>
<rect x="748.9" y="532.0" width="3.5" height="0.0" fill="#c62828" opacity="0.55"/>
<line x1="756.3" y1="353.0" x2="756.3" y2="356.4" stroke="#2e7d32" stroke-width="1"/>
<rect x="754.6" y="355.6" width="3.5" height="1.0" fill="#2e7d32"/>
<rect x="754.6" y="532.0" width="3.5" height="0.0" fill="#2e7d32" opacity="0.55"/>
<line x1="762.0" y1="355.6" x2="762.0" y2="360.7" stroke="#c62828" stroke-width="1"/>
<rect x="760.3" y="356.0" width="3.5" height="1.3" fill="#c62828"/>
<rect x="760.3" y="532.0" width="3.5" height="0.0" fill="#c62828" opacity="0.55"/>
<line x1="767.7" y1="355.6" x2="767.7" y2="360.3" stroke="#2e7d32" stroke-width="1"/>
<rect x="766.0" y="355.6" width="3.5" height="1.7" fill="#2e7d32"/>
<rect x="766.0" y="532.0" width="3.5" height="0.0" fill="#2e7d32" opacity="0.55"/>
<line x1="773.4" y1="353.9" x2="773.4" y2="359.4" stroke="#c62828" stroke-width="1"/>
<rect x="771.7" y="354.7" width="3.5" height="4.7" fill="#c62828"/>
<rect x="771.7" y="532.0" width="3.5" height="0.0" fill="#c62828" opacity="0.55"/>
<line x1="779.1" y1="358.2" x2="779.1" y2="359.9" stroke="#2e7d32" stroke-width="1"/>
<rect x="777.4" y="358.2" width="3.5" height="1.3" fill="#2e7d32"/>
<rect x="777.4" y="532.0" width="3.5" height="0.0" fill="#2e7d32" opacity="0.55"/>
<line x1="784.8" y1="353.4" x2="784.8" y2="357.7" stroke="#2e7d32" stroke-width="1"/>
<rect x="783.1" y="353.9" width="3.5" height="3.9" fill="#2e7d32"/>
<rect x="783.1" y="532.0" width="3.5" height="0.0" fill="#2e7d32" opacity="0.55"/>
<line x1="790.5" y1="354.3" x2="790.5" y2="357.3" stroke="#2e7d32" stroke-width="1"/>
<rect x="788.8" y="354.7" width="3.5" height="2.6" fill="#2e7d32"/>
<rect x="788.8" y="532.0" width="3.5" height="0.0" fill="#2e7d32" opacity="0.55"/>
<line x1="796.2" y1="353.5" x2="796.2" y2="357.3" stroke="#c62828" stroke-width="1"/>
<rect x="794.5" y="354.7" width="3.5" height="1.7" fill="#c62828"/>
<rect x="794.5" y="532.0" width="3.5" height="0.0" fill="#c62828" opacity="0.55"/>
<line x1="801.9" y1="351.3" x2="801.9" y2="356.4" stroke="#2e7d32" stroke-width="1"/>
<rect x="800.2" y="352.6" width="3.5" height="1.7" fill="#2e7d32"/>
<rect x="800.2" y="532.0" width="3.5" height="0.0" fill="#2e7d32" opacity="0.55"/>
<line x1="807.6" y1="347.9" x2="807.6" y2="353.4" stroke="#2e7d32" stroke-width="1"/>
<rect x="805.9" y="350.0" width="3.5" height="3.4" fill="#2e7d32"/>
<rect x="805.9" y="532.0" width="3.5" height="0.0" fill="#2e7d32" opacity="0.55"/>
<line x1="813.3" y1="348.7" x2="813.3" y2="352.2" stroke="#c62828" stroke-width="1"/>
<rect x="811.6" y="350.0" width="3.5" height="1.3" fill="#c62828"/>
<rect x="811.6" y="532.0" width="3.5" height="0.0" fill="#c62828" opacity="0.55"/>
<line x1="819.0" y1="335.0" x2="819.0" y2="350.9" stroke="#2e7d32" stroke-width="1"/>
<rect x="817.3" y="335.0" width="3.5" height="15.9" fill="#2e7d32"/>
<rect x="817.3" y="532.0" width="3.5" height="0.0" fill="#2e7d32" opacity="0.55"/>
<line x1="824.7" y1="288.3" x2="824.7" y2="337.2" stroke="#2e7d32" stroke-width="1"/>
<rect x="823.0" y="295.2" width="3.5" height="42.0" fill="#2e7d32"/>
<rect x="823.0" y="532.0" width="3.5" height="0.0" fill="#2e7d32" opacity="0.55"/>
<line x1="830.4" y1="266.5" x2="830.4" y2="306.3" stroke="#2e7d32" stroke-width="1"/>
<rect x="828.7" y="271.6" width="3.5" height="23.1" fill="#2e7d32"/>
<rect x="828.7" y="532.0" width="3.5" height="0.0" fill="#2e7d32" opacity="0.55"/>
<line x1="836.1" y1="193.7" x2="836.1" y2="282.8" stroke="#2e7d32" stroke-width="1"/>
<rect x="834.4" y="203.1" width="3.5" height="68.9" fill="#2e7d32"/>
<rect x="834.4" y="532.0" width="3.5" height="0.0" fill="#2e7d32" opacity="0.55"/>
<line x1="841.8" y1="202.2" x2="841.8" y2="254.1" stroke="#c62828" stroke-width="1"/>
<rect x="840.1" y="202.7" width="3.5" height="26.1" fill="#c62828"/>
<rect x="840.1" y="532.0" width="3.5" height="0.0" fill="#c62828" opacity="0.55"/>
<line x1="847.5" y1="164.5" x2="847.5" y2="242.9" stroke="#2e7d32" stroke-width="1"/>
<rect x="845.8" y="178.3" width="3.5" height="50.5" fill="#2e7d32"/>
<rect x="845.8" y="532.0" width="3.5" height="0.0" fill="#2e7d32" opacity="0.55"/>
<line x1="853.2" y1="159.4" x2="853.2" y2="202.2" stroke="#c62828" stroke-width="1"/>
<rect x="851.5" y="178.2" width="3.5" height="2.5" fill="#c62828"/>
<rect x="851.5" y="532.0" width="3.5" height="0.0" fill="#c62828" opacity="0.55"/>
<line x1="858.9" y1="169.2" x2="858.9" y2="209.9" stroke="#c62828" stroke-width="1"/>
<rect x="857.1" y="179.9" width="3.5" height="5.6" fill="#c62828"/>
<rect x="857.1" y="532.0" width="3.5" height="0.0" fill="#c62828" opacity="0.55"/>
<line x1="864.6" y1="180.8" x2="864.6" y2="221.1" stroke="#c62828" stroke-width="1"/>
<rect x="862.8" y="183.8" width="3.5" height="33.0" fill="#c62828"/>
<rect x="862.8" y="532.0" width="3.5" height="0.0" fill="#c62828" opacity="0.55"/>
<line x1="870.3" y1="129.8" x2="870.3" y2="217.2" stroke="#2e7d32" stroke-width="1"/>
<rect x="868.5" y="146.5" width="3.5" height="70.5" fill="#2e7d32"/>
<rect x="868.5" y="532.0" width="3.5" height="0.0" fill="#2e7d32" opacity="0.55"/>
<line x1="876.0" y1="133.7" x2="876.0" y2="170.5" stroke="#c62828" stroke-width="1"/>
<rect x="874.2" y="146.5" width="3.5" height="11.6" fill="#c62828"/>
<rect x="874.2" y="532.0" width="3.5" height="0.0" fill="#c62828" opacity="0.55"/>
<line x1="881.7" y1="142.2" x2="881.7" y2="176.5" stroke="#2e7d32" stroke-width="1"/>
<rect x="879.9" y="153.4" width="3.5" height="4.7" fill="#2e7d32"/>
<rect x="879.9" y="532.0" width="3.5" height="0.0" fill="#2e7d32" opacity="0.55"/>
<line x1="887.4" y1="135.8" x2="887.4" y2="163.7" stroke="#2e7d32" stroke-width="1"/>
<rect x="885.6" y="150.9" width="3.5" height="2.1" fill="#2e7d32"/>
<rect x="885.6" y="532.0" width="3.5" height="0.0" fill="#2e7d32" opacity="0.55"/>
<line x1="893.1" y1="133.7" x2="893.1" y2="156.8" stroke="#c62828" stroke-width="1"/>
<rect x="891.3" y="150.9" width="3.5" height="1.2" fill="#c62828"/>
<rect x="891.3" y="532.0" width="3.5" height="0.0" fill="#c62828" opacity="0.55"/>
<line x1="898.8" y1="144.0" x2="898.8" y2="177.4" stroke="#c62828" stroke-width="1"/>
<rect x="897.0" y="152.1" width="3.5" height="5.1" fill="#c62828"/>
<rect x="897.0" y="532.0" width="3.5" height="0.0" fill="#c62828" opacity="0.55"/>
<line x1="904.5" y1="155.5" x2="904.5" y2="175.7" stroke="#c62828" stroke-width="1"/>
<rect x="902.7" y="156.5" width="3.5" height="5.6" fill="#c62828"/>
<rect x="902.7" y="532.0" width="3.5" height="0.0" fill="#c62828" opacity="0.55"/>
<line x1="910.2" y1="156.8" x2="910.2" y2="178.2" stroke="#c62828" stroke-width="1"/>
<rect x="908.4" y="161.6" width="3.5" height="6.8" fill="#c62828"/>
<rect x="908.4" y="532.0" width="3.5" height="0.0" fill="#c62828" opacity="0.55"/>
<line x1="915.9" y1="157.2" x2="915.9" y2="172.2" stroke="#2e7d32" stroke-width="1"/>
<rect x="914.1" y="168.0" width="3.5" height="1.0" fill="#2e7d32"/>
<rect x="914.1" y="532.0" width="3.5" height="0.0" fill="#2e7d32" opacity="0.55"/>
<line x1="921.6" y1="164.1" x2="921.6" y2="190.7" stroke="#c62828" stroke-width="1"/>
<rect x="919.8" y="171.3" width="3.5" height="16.7" fill="#c62828"/>
<rect x="919.8" y="532.0" width="3.5" height="0.0" fill="#c62828" opacity="0.55"/>
<line x1="927.3" y1="180.8" x2="927.3" y2="210.8" stroke="#c62828" stroke-width="1"/>
<rect x="925.5" y="188.5" width="3.5" height="13.7" fill="#c62828"/>
<rect x="925.5" y="532.0" width="3.5" height="0.0" fill="#c62828" opacity="0.55"/>
<line x1="933.0" y1="190.7" x2="933.0" y2="206.9" stroke="#2e7d32" stroke-width="1"/>
<rect x="931.2" y="194.5" width="3.5" height="7.7" fill="#2e7d32"/>
<rect x="931.2" y="532.0" width="3.5" height="0.0" fill="#2e7d32" opacity="0.55"/>
<line x1="938.7" y1="188.1" x2="938.7" y2="205.2" stroke="#c62828" stroke-width="1"/>
<rect x="936.9" y="193.7" width="3.5" height="7.7" fill="#c62828"/>
<rect x="936.9" y="532.0" width="3.5" height="0.0" fill="#c62828" opacity="0.55"/>
<line x1="944.4" y1="193.7" x2="944.4" y2="203.1" stroke="#2e7d32" stroke-width="1"/>
<rect x="942.6" y="196.7" width="3.5" height="3.4" fill="#2e7d32"/>
<rect x="942.6" y="532.0" width="3.5" height="0.0" fill="#2e7d32" opacity="0.55"/>
<line x1="950.1" y1="192.8" x2="950.1" y2="200.1" stroke="#2e7d32" stroke-width="1"/>
<rect x="948.3" y="196.2" width="3.5" height="1.0" fill="#2e7d32"/>
<rect x="948.3" y="532.0" width="3.5" height="0.0" fill="#2e7d32" opacity="0.55"/>
<line x1="955.8" y1="195.4" x2="955.8" y2="208.6" stroke="#c62828" stroke-width="1"/>
<rect x="954.0" y="195.4" width="3.5" height="8.2" fill="#c62828"/>
<rect x="954.0" y="532.0" width="3.5" height="0.0" fill="#c62828" opacity="0.55"/>
<line x1="961.5" y1="204.4" x2="961.5" y2="234.4" stroke="#c62828" stroke-width="1"/>
<rect x="959.7" y="207.4" width="3.5" height="14.1" fill="#c62828"/>
<rect x="959.7" y="532.0" width="3.5" height="0.0" fill="#c62828" opacity="0.55"/>
<line x1="967.2" y1="204.4" x2="967.2" y2="223.2" stroke="#2e7d32" stroke-width="1"/>
<rect x="965.4" y="209.0" width="3.5" height="12.5" fill="#2e7d32"/>
<rect x="965.4" y="532.0" width="3.5" height="0.0" fill="#2e7d32" opacity="0.55"/>
<line x1="972.9" y1="55.7" x2="972.9" y2="221.5" stroke="#c62828" stroke-width="1"/>
<rect x="971.1" y="148.2" width="3.5" height="66.8" fill="#c62828"/>
<rect x="971.1" y="532.0" width="3.5" height="0.0" fill="#c62828" opacity="0.55"/>
<line x1="978.6" y1="132.0" x2="978.6" y2="251.1" stroke="#c62828" stroke-width="1"/>
<rect x="976.8" y="213.4" width="3.5" height="20.1" fill="#c62828"/>
<rect x="976.8" y="532.0" width="3.5" height="0.0" fill="#c62828" opacity="0.55"/>
<line x1="984.3" y1="217.6" x2="984.3" y2="244.2" stroke="#2e7d32" stroke-width="1"/>
<rect x="982.5" y="230.5" width="3.5" height="3.0" fill="#2e7d32"/>
<rect x="982.5" y="532.0" width="3.5" height="0.0" fill="#2e7d32" opacity="0.55"/>
<line x1="990.0" y1="215.1" x2="990.0" y2="230.9" stroke="#2e7d32" stroke-width="1"/>
<rect x="988.2" y="222.0" width="3.5" height="8.9" fill="#2e7d32"/>
<rect x="988.2" y="532.0" width="3.5" height="0.0" fill="#2e7d32" opacity="0.55"/>
<line x1="995.7" y1="207.8" x2="995.7" y2="230.1" stroke="#2e7d32" stroke-width="1"/>
<rect x="993.9" y="211.6" width="3.5" height="10.5" fill="#2e7d32"/>
<rect x="993.9" y="532.0" width="3.5" height="0.0" fill="#2e7d32" opacity="0.55"/>
<line x1="1001.4" y1="208.6" x2="1001.4" y2="232.2" stroke="#c62828" stroke-width="1"/>
<rect x="999.6" y="211.3" width="3.5" height="16.2" fill="#c62828"/>
<rect x="999.6" y="532.0" width="3.5" height="0.0" fill="#c62828" opacity="0.55"/>
<line x1="1007.1" y1="224.1" x2="1007.1" y2="237.3" stroke="#c62828" stroke-width="1"/>
<rect x="1005.3" y="227.5" width="3.5" height="3.4" fill="#c62828"/>
<rect x="1005.3" y="532.0" width="3.5" height="0.0" fill="#c62828" opacity="0.55"/>
<line x1="1012.8" y1="216.4" x2="1012.8" y2="235.6" stroke="#2e7d32" stroke-width="1"/>
<rect x="1011.0" y="225.0" width="3.5" height="6.8" fill="#2e7d32"/>
<rect x="1011.0" y="532.0" width="3.5" height="0.0" fill="#2e7d32" opacity="0.55"/>
<line x1="1018.5" y1="221.5" x2="1018.5" y2="230.5" stroke="#c62828" stroke-width="1"/>
<rect x="1016.7" y="225.4" width="3.5" height="5.1" fill="#c62828"/>
<rect x="1016.7" y="532.0" width="3.5" height="0.0" fill="#c62828" opacity="0.55"/>
<line x1="1024.2" y1="221.9" x2="1024.2" y2="230.5" stroke="#c62828" stroke-width="1"/>
<rect x="1022.4" y="230.1" width="3.5" height="1.0" fill="#c62828"/>
<rect x="1022.4" y="532.0" width="3.5" height="0.0" fill="#c62828" opacity="0.55"/>
<line x1="1029.9" y1="218.5" x2="1029.9" y2="232.2" stroke="#2e7d32" stroke-width="1"/>
<rect x="1028.1" y="226.6" width="3.5" height="3.5" fill="#2e7d32"/>
<rect x="1028.1" y="532.0" width="3.5" height="0.0" fill="#2e7d32" opacity="0.55"/>
<line x1="1035.6" y1="221.5" x2="1035.6" y2="232.2" stroke="#2e7d32" stroke-width="1"/>
<rect x="1033.8" y="225.3" width="3.5" height="1.8" fill="#2e7d32"/>
<rect x="1033.8" y="532.0" width="3.5" height="0.0" fill="#2e7d32" opacity="0.55"/>
<line x1="1041.3" y1="225.4" x2="1041.3" y2="251.0" stroke="#c62828" stroke-width="1"/>
<rect x="1039.5" y="225.4" width="3.5" height="21.8" fill="#c62828"/>
<rect x="1039.5" y="532.0" width="3.5" height="0.0" fill="#c62828" opacity="0.55"/>
<line x1="1047.0" y1="236.0" x2="1047.0" y2="247.2" stroke="#2e7d32" stroke-width="1"/>
<rect x="1045.2" y="241.6" width="3.5" height="5.6" fill="#2e7d32"/>
<rect x="1045.2" y="532.0" width="3.5" height="0.0" fill="#2e7d32" opacity="0.55"/>
<line x1="1052.7" y1="233.5" x2="1052.7" y2="244.2" stroke="#2e7d32" stroke-width="1"/>
<rect x="1050.9" y="238.2" width="3.5" height="3.4" fill="#2e7d32"/>
<rect x="1050.9" y="532.0" width="3.5" height="0.0" fill="#2e7d32" opacity="0.55"/>
<line x1="1058.4" y1="237.3" x2="1058.4" y2="244.2" stroke="#c62828" stroke-width="1"/>
<rect x="1056.6" y="238.6" width="3.5" height="5.6" fill="#c62828"/>
<rect x="1056.6" y="532.0" width="3.5" height="0.0" fill="#c62828" opacity="0.55"/>
<line x1="1064.1" y1="244.2" x2="1064.1" y2="265.2" stroke="#c62828" stroke-width="1"/>
<rect x="1062.3" y="244.6" width="3.5" height="15.9" fill="#c62828"/>
<rect x="1062.3" y="532.0" width="3.5" height="0.0" fill="#c62828" opacity="0.55"/>
<line x1="1069.8" y1="253.2" x2="1069.8" y2="260.9" stroke="#2e7d32" stroke-width="1"/>
<rect x="1068.0" y="260.1" width="3.5" height="1.0" fill="#2e7d32"/>
<rect x="1068.0" y="532.0" width="3.5" height="0.0" fill="#2e7d32" opacity="0.55"/>
<line x1="1075.5" y1="259.6" x2="1075.5" y2="265.6" stroke="#c62828" stroke-width="1"/>
<rect x="1073.7" y="260.0" width="3.5" height="2.6" fill="#c62828"/>
<rect x="1073.7" y="532.0" width="3.5" height="0.0" fill="#c62828" opacity="0.55"/>
<line x1="1081.2" y1="262.6" x2="1081.2" y2="262.6" stroke="#2e7d32" stroke-width="1"/>
<rect x="1079.4" y="262.6" width="3.5" height="1.0" fill="#2e7d32"/>
<rect x="1079.4" y="532.0" width="3.5" height="0.0" fill="#2e7d32" opacity="0.55"/>
<line x1="64" y1="532" x2="1084" y2="532" stroke="#ccc"/>
<text x="58" y="420" font-size="9" fill="#999" text-anchor="end">0.1M</text>
<line x1="66.8" y1="532" x2="66.8" y2="536" stroke="#999"/>
<text x="66.8" y="547.0" font-size="9" fill="#666" text-anchor="middle">07/01 04:00</text>
<line x1="232.1" y1="532" x2="232.1" y2="536" stroke="#999"/>
<text x="232.1" y="547.0" font-size="9" fill="#666" text-anchor="middle">08:15</text>
<line x1="397.4" y1="532" x2="397.4" y2="536" stroke="#999"/>
<text x="397.4" y="547.0" font-size="9" fill="#666" text-anchor="middle">11:00</text>
<line x1="562.6" y1="532" x2="562.6" y2="536" stroke="#999"/>
<text x="562.6" y="547.0" font-size="9" fill="#666" text-anchor="middle">13:30</text>
<line x1="727.9" y1="532" x2="727.9" y2="536" stroke="#999"/>
<text x="727.9" y="547.0" font-size="9" fill="#666" text-anchor="middle">16:25</text>
<line x1="893.1" y1="532" x2="893.1" y2="536" stroke="#999"/>
<text x="893.1" y="547.0" font-size="9" fill="#666" text-anchor="middle">18:50</text>
<line x1="1058.4" y1="532" x2="1058.4" y2="536" stroke="#999"/>
<text x="1058.4" y="547.0" font-size="9" fill="#666" text-anchor="middle">07/02 05:15</text>
<text x="64" y="22" font-size="15" font-weight="bold" fill="#1a1a1a">USDE - StablecoinX Inc.</text>
<text x="1084" y="22" font-size="11" fill="#666" text-anchor="end">last $4.59 (+30.8% over window)</text>
<rect x="934" y="28" width="10" height="8" fill="#e8f0fe"/>
<text x="948" y="35" font-size="9" fill="#666">premarket</text>
<rect x="1006" y="28" width="10" height="8" fill="#fff4e0"/>
<text x="1020" y="35" font-size="9" fill="#666">after-hrs</text>
</svg>