<svg xmlns="http://www.w3.org/2000/svg" width="1100" height="560" viewBox="0 0 1100 560" font-family="Arial,Helvetica,sans-serif">
<rect width="1100" height="560" fill="white"/>
<rect x="64.0" y="36" width="168.4" height="496.0" fill="#e8f0fe"/>
<rect x="457.0" y="36" width="449.2" height="496.0" fill="#fff4e0"/>
<rect x="906.2" y="36" width="177.8" height="496.0" fill="#e8f0fe"/>
<line x1="64" y1="404.0" x2="1084" y2="404.0" stroke="#e6e6e6"/>
<text x="58" y="407.0" font-size="10" fill="#666" text-anchor="end">$0.62</text>
<line x1="64" y1="312.0" x2="1084" y2="312.0" stroke="#e6e6e6"/>
<text x="58" y="315.0" font-size="10" fill="#666" text-anchor="end">$0.95</text>
<line x1="64" y1="220.0" x2="1084" y2="220.0" stroke="#e6e6e6"/>
<text x="58" y="223.0" font-size="10" fill="#666" text-anchor="end">$1.29</text>
<line x1="64" y1="128.0" x2="1084" y2="128.0" stroke="#e6e6e6"/>
<text x="58" y="131.0" font-size="10" fill="#666" text-anchor="end">$1.63</text>
<line x1="64" y1="36.0" x2="1084" y2="36.0" stroke="#e6e6e6"/>
<text x="58" y="39.0" font-size="10" fill="#666" text-anchor="end">$1.96</text>
<line x1="68.7" y1="324.0" x2="68.7" y2="384.3" stroke="#2e7d32" stroke-width="1"/>
<rect x="65.8" y="355.0" width="5.8" height="3.0" fill="#2e7d32"/>
<rect x="65.8" y="531.0" width="5.8" height="1.0" fill="#2e7d32" opacity="0.55"/>
<line x1="78.0" y1="332.6" x2="78.0" y2="371.4" stroke="#2e7d32" stroke-width="1"/>
<rect x="75.1" y="349.9" width="5.8" height="21.5" fill="#2e7d32"/>
<rect x="75.1" y="531.8" width="5.8" height="0.2" fill="#2e7d32" opacity="0.55"/>
<line x1="87.4" y1="324.8" x2="87.4" y2="367.9" stroke="#c62828" stroke-width="1"/>
<rect x="84.5" y="345.5" width="5.8" height="8.6" fill="#c62828"/>
<rect x="84.5" y="530.8" width="5.8" height="1.2" fill="#c62828" opacity="0.55"/>
<line x1="96.8" y1="337.7" x2="96.8" y2="365.1" stroke="#2e7d32" stroke-width="1"/>
<rect x="93.9" y="343.1" width="5.8" height="11.0" fill="#2e7d32"/>
<rect x="93.9" y="531.9" width="5.8" height="0.1" fill="#2e7d32" opacity="0.55"/>
<line x1="106.1" y1="343.1" x2="106.1" y2="365.1" stroke="#c62828" stroke-width="1"/>
<rect x="103.2" y="343.1" width="5.8" height="21.8" fill="#c62828"/>
<rect x="103.2" y="531.3" width="5.8" height="0.7" fill="#c62828" opacity="0.55"/>
<line x1="115.5" y1="359.6" x2="115.5" y2="378.7" stroke="#c62828" stroke-width="1"/>
<rect x="112.6" y="359.6" width="5.8" height="19.1" fill="#c62828"/>
<rect x="112.6" y="532.0" width="5.8" height="0.0" fill="#c62828" opacity="0.55"/>
<line x1="124.8" y1="374.0" x2="124.8" y2="378.5" stroke="#2e7d32" stroke-width="1"/>
<rect x="121.9" y="378.4" width="5.8" height="1.0" fill="#2e7d32"/>
<rect x="121.9" y="531.9" width="5.8" height="0.1" fill="#2e7d32" opacity="0.55"/>
<line x1="134.2" y1="372.3" x2="134.2" y2="372.3" stroke="#2e7d32" stroke-width="1"/>
<rect x="131.3" y="372.3" width="5.8" height="1.0" fill="#2e7d32"/>
<rect x="131.3" y="532.0" width="5.8" height="0.0" fill="#2e7d32" opacity="0.55"/>
<line x1="143.5" y1="371.9" x2="143.5" y2="371.9" stroke="#2e7d32" stroke-width="1"/>
<rect x="140.6" y="371.9" width="5.8" height="1.0" fill="#2e7d32"/>
<rect x="140.6" y="532.0" width="5.8" height="0.0" fill="#2e7d32" opacity="0.55"/>
<line x1="152.9" y1="359.6" x2="152.9" y2="360.6" stroke="#2e7d32" stroke-width="1"/>
<rect x="150.0" y="359.6" width="5.8" height="1.0" fill="#2e7d32"/>
<rect x="150.0" y="531.9" width="5.8" height="0.1" fill="#2e7d32" opacity="0.55"/>
<line x1="162.3" y1="359.7" x2="162.3" y2="359.7" stroke="#2e7d32" stroke-width="1"/>
<rect x="159.4" y="359.7" width="5.8" height="1.0" fill="#2e7d32"/>
<rect x="159.4" y="532.0" width="5.8" height="0.0" fill="#2e7d32" opacity="0.55"/>
<line x1="171.6" y1="362.4" x2="171.6" y2="362.4" stroke="#2e7d32" stroke-width="1"/>
<rect x="168.7" y="362.4" width="5.8" height="1.0" fill="#2e7d32"/>
<rect x="168.7" y="532.0" width="5.8" height="0.0" fill="#2e7d32" opacity="0.55"/>
<line x1="181.0" y1="359.6" x2="181.0" y2="359.6" stroke="#2e7d32" stroke-width="1"/>
<rect x="178.1" y="359.6" width="5.8" height="1.0" fill="#2e7d32"/>
<rect x="178.1" y="531.9" width="5.8" height="0.1" fill="#2e7d32" opacity="0.55"/>
<line x1="190.3" y1="359.5" x2="190.3" y2="359.5" stroke="#2e7d32" stroke-width="1"/>
<rect x="187.4" y="359.5" width="5.8" height="1.0" fill="#2e7d32"/>
<rect x="187.4" y="532.0" width="5.8" height="0.0" fill="#2e7d32" opacity="0.55"/>
<line x1="199.7" y1="359.4" x2="199.7" y2="359.4" stroke="#2e7d32" stroke-width="1"/>
<rect x="196.8" y="359.4" width="5.8" height="1.0" fill="#2e7d32"/>
<rect x="196.8" y="532.0" width="5.8" height="0.0" fill="#2e7d32" opacity="0.55"/>
<line x1="209.0" y1="354.2" x2="209.0" y2="354.2" stroke="#2e7d32" stroke-width="1"/>
<rect x="206.1" y="354.2" width="5.8" height="1.0" fill="#2e7d32"/>
<rect x="206.1" y="532.0" width="5.8" height="0.0" fill="#2e7d32" opacity="0.55"/>
<line x1="218.4" y1="346.2" x2="218.4" y2="346.2" stroke="#2e7d32" stroke-width="1"/>
<rect x="215.5" y="346.2" width="5.8" height="1.0" fill="#2e7d32"/>
<rect x="215.5" y="532.0" width="5.8" height="0.0" fill="#2e7d32" opacity="0.55"/>
<line x1="227.8" y1="346.2" x2="227.8" y2="346.2" stroke="#2e7d32" stroke-width="1"/>
<rect x="224.9" y="346.2" width="5.8" height="1.0" fill="#2e7d32"/>
<rect x="224.9" y="532.0" width="5.8" height="0.0" fill="#2e7d32" opacity="0.55"/>
<line x1="237.1" y1="358.3" x2="237.1" y2="359.3" stroke="#2e7d32" stroke-width="1"/>
<rect x="234.2" y="358.3" width="5.8" height="1.1" fill="#2e7d32"/>
<rect x="234.2" y="528.4" width="5.8" height="3.6" fill="#2e7d32" opacity="0.55"/>
<line x1="246.5" y1="359.3" x2="246.5" y2="359.3" stroke="#2e7d32" stroke-width="1"/>
<rect x="243.6" y="359.3" width="5.8" height="1.0" fill="#2e7d32"/>
<rect x="243.6" y="532.0" width="5.8" height="0.0" fill="#2e7d32" opacity="0.55"/>
<line x1="255.8" y1="354.2" x2="255.8" y2="354.2" stroke="#2e7d32" stroke-width="1"/>
<rect x="252.9" y="354.2" width="5.8" height="1.0" fill="#2e7d32"/>
<rect x="252.9" y="532.0" width="5.8" height="0.0" fill="#2e7d32" opacity="0.55"/>
<line x1="265.2" y1="352.8" x2="265.2" y2="354.2" stroke="#2e7d32" stroke-width="1"/>
<rect x="262.3" y="352.8" width="5.8" height="1.4" fill="#2e7d32"/>
<rect x="262.3" y="531.9" width="5.8" height="0.1" fill="#2e7d32" opacity="0.55"/>
<line x1="274.6" y1="346.2" x2="274.6" y2="346.3" stroke="#2e7d32" stroke-width="1"/>
<rect x="271.6" y="346.3" width="5.8" height="1.0" fill="#2e7d32"/>
<rect x="271.6" y="532.0" width="5.8" height="0.0" fill="#2e7d32" opacity="0.55"/>
<line x1="283.9" y1="354.2" x2="283.9" y2="354.2" stroke="#2e7d32" stroke-width="1"/>
<rect x="281.0" y="354.2" width="5.8" height="1.0" fill="#2e7d32"/>
<rect x="281.0" y="532.0" width="5.8" height="0.0" fill="#2e7d32" opacity="0.55"/>
<line x1="293.3" y1="352.8" x2="293.3" y2="354.2" stroke="#2e7d32" stroke-width="1"/>
<rect x="290.4" y="354.1" width="5.8" height="1.0" fill="#2e7d32"/>
<rect x="290.4" y="532.0" width="5.8" height="0.0" fill="#2e7d32" opacity="0.55"/>
<line x1="302.6" y1="354.1" x2="302.6" y2="354.2" stroke="#c62828" stroke-width="1"/>
<rect x="299.7" y="354.1" width="5.8" height="1.0" fill="#c62828"/>
<rect x="299.7" y="532.0" width="5.8" height="0.0" fill="#c62828" opacity="0.55"/>
<line x1="312.0" y1="354.2" x2="312.0" y2="356.9" stroke="#2e7d32" stroke-width="1"/>
<rect x="309.1" y="354.2" width="5.8" height="2.7" fill="#2e7d32"/>
<rect x="309.1" y="532.0" width="5.8" height="0.0" fill="#2e7d32" opacity="0.55"/>
<line x1="321.3" y1="354.2" x2="321.3" y2="354.2" stroke="#2e7d32" stroke-width="1"/>
<rect x="318.4" y="354.2" width="5.8" height="1.0" fill="#2e7d32"/>
<rect x="318.4" y="532.0" width="5.8" height="0.0" fill="#2e7d32" opacity="0.55"/>
<line x1="330.7" y1="354.4" x2="330.7" y2="354.4" stroke="#2e7d32" stroke-width="1"/>
<rect x="327.8" y="354.4" width="5.8" height="1.0" fill="#2e7d32"/>
<rect x="327.8" y="532.0" width="5.8" height="0.0" fill="#2e7d32" opacity="0.55"/>
<line x1="340.1" y1="354.4" x2="340.1" y2="356.9" stroke="#c62828" stroke-width="1"/>
<rect x="337.2" y="354.4" width="5.8" height="2.5" fill="#c62828"/>
<rect x="337.2" y="532.0" width="5.8" height="0.0" fill="#c62828" opacity="0.55"/>
<line x1="349.4" y1="353.9" x2="349.4" y2="353.9" stroke="#2e7d32" stroke-width="1"/>
<rect x="346.5" y="353.9" width="5.8" height="1.0" fill="#2e7d32"/>
<rect x="346.5" y="532.0" width="5.8" height="0.0" fill="#2e7d32" opacity="0.55"/>
<line x1="358.8" y1="348.7" x2="358.8" y2="359.1" stroke="#2e7d32" stroke-width="1"/>
<rect x="355.9" y="353.8" width="5.8" height="5.3" fill="#2e7d32"/>
<rect x="355.9" y="531.9" width="5.8" height="0.1" fill="#2e7d32" opacity="0.55"/>
<line x1="368.1" y1="358.8" x2="368.1" y2="358.8" stroke="#2e7d32" stroke-width="1"/>
<rect x="365.2" y="358.8" width="5.8" height="1.0" fill="#2e7d32"/>
<rect x="365.2" y="532.0" width="5.8" height="0.0" fill="#2e7d32" opacity="0.55"/>
<line x1="377.5" y1="353.9" x2="377.5" y2="353.9" stroke="#2e7d32" stroke-width="1"/>
<rect x="374.6" y="353.9" width="5.8" height="1.0" fill="#2e7d32"/>
<rect x="374.6" y="532.0" width="5.8" height="0.0" fill="#2e7d32" opacity="0.55"/>
<line x1="386.8" y1="353.9" x2="386.8" y2="353.9" stroke="#2e7d32" stroke-width="1"/>
<rect x="383.9" y="353.9" width="5.8" height="1.0" fill="#2e7d32"/>
<rect x="383.9" y="532.0" width="5.8" height="0.0" fill="#2e7d32" opacity="0.55"/>
<line x1="396.2" y1="353.9" x2="396.2" y2="353.9" stroke="#2e7d32" stroke-width="1"/>
<rect x="393.3" y="353.9" width="5.8" height="1.0" fill="#2e7d32"/>
<rect x="393.3" y="532.0" width="5.8" height="0.0" fill="#2e7d32" opacity="0.55"/>
<line x1="405.6" y1="346.5" x2="405.6" y2="348.7" stroke="#2e7d32" stroke-width="1"/>
<rect x="402.7" y="346.5" width="5.8" height="2.2" fill="#2e7d32"/>
<rect x="402.7" y="531.8" width="5.8" height="0.2" fill="#2e7d32" opacity="0.55"/>
<line x1="414.9" y1="356.8" x2="414.9" y2="356.8" stroke="#2e7d32" stroke-width="1"/>
<rect x="412.0" y="356.8" width="5.8" height="1.0" fill="#2e7d32"/>
<rect x="412.0" y="532.0" width="5.8" height="0.0" fill="#2e7d32" opacity="0.55"/>
<line x1="424.3" y1="344.2" x2="424.3" y2="349.2" stroke="#2e7d32" stroke-width="1"/>
<rect x="421.4" y="346.9" width="5.8" height="2.2" fill="#2e7d32"/>
<rect x="421.4" y="531.8" width="5.8" height="0.2" fill="#2e7d32" opacity="0.55"/>
<line x1="433.6" y1="344.3" x2="433.6" y2="349.2" stroke="#c62828" stroke-width="1"/>
<rect x="430.7" y="344.3" width="5.8" height="3.5" fill="#c62828"/>
<rect x="430.7" y="531.9" width="5.8" height="0.1" fill="#c62828" opacity="0.55"/>
<line x1="443.0" y1="317.3" x2="443.0" y2="338.8" stroke="#2e7d32" stroke-width="1"/>
<rect x="440.1" y="321.3" width="5.8" height="17.5" fill="#2e7d32"/>
<rect x="440.1" y="531.0" width="5.8" height="1.0" fill="#2e7d32" opacity="0.55"/>
<line x1="452.3" y1="316.1" x2="452.3" y2="329.4" stroke="#2e7d32" stroke-width="1"/>
<rect x="449.4" y="316.3" width="5.8" height="7.2" fill="#2e7d32"/>
<rect x="449.4" y="531.3" width="5.8" height="0.7" fill="#2e7d32" opacity="0.55"/>
<line x1="461.7" y1="274.8" x2="461.7" y2="322.6" stroke="#2e7d32" stroke-width="1"/>
<rect x="458.8" y="285.7" width="5.8" height="33.0" fill="#2e7d32"/>
<rect x="458.8" y="527.2" width="5.8" height="4.8" fill="#2e7d32" opacity="0.55"/>
<line x1="471.1" y1="181.7" x2="471.1" y2="288.5" stroke="#2e7d32" stroke-width="1"/>
<rect x="468.2" y="214.5" width="5.8" height="72.6" fill="#2e7d32"/>
<rect x="468.2" y="452.3" width="5.8" height="79.7" fill="#2e7d32" opacity="0.55"/>
<line x1="480.4" y1="165.2" x2="480.4" y2="247.4" stroke="#2e7d32" stroke-width="1"/>
<rect x="477.5" y="192.6" width="5.8" height="21.9" fill="#2e7d32"/>
<rect x="477.5" y="446.9" width="5.8" height="85.1" fill="#2e7d32" opacity="0.55"/>
<line x1="489.8" y1="162.5" x2="489.8" y2="225.5" stroke="#c62828" stroke-width="1"/>
<rect x="486.9" y="193.0" width="5.8" height="32.4" fill="#c62828"/>
<rect x="486.9" y="497.1" width="5.8" height="34.9" fill="#c62828" opacity="0.55"/>
<line x1="499.1" y1="148.8" x2="499.1" y2="228.2" stroke="#2e7d32" stroke-width="1"/>
<rect x="496.2" y="165.3" width="5.8" height="60.1" fill="#2e7d32"/>
<rect x="496.2" y="459.1" width="5.8" height="72.9" fill="#2e7d32" opacity="0.55"/>
<line x1="508.5" y1="157.0" x2="508.5" y2="198.1" stroke="#c62828" stroke-width="1"/>
<rect x="505.6" y="167.9" width="5.8" height="1.0" fill="#c62828"/>
<rect x="505.6" y="496.8" width="5.8" height="35.2" fill="#c62828" opacity="0.55"/>
<line x1="517.9" y1="137.9" x2="517.9" y2="189.9" stroke="#2e7d32" stroke-width="1"/>
<rect x="515.0" y="146.5" width="5.8" height="24.2" fill="#2e7d32"/>
<rect x="515.0" y="479.8" width="5.8" height="52.2" fill="#2e7d32" opacity="0.55"/>
<line x1="527.2" y1="110.5" x2="527.2" y2="157.0" stroke="#2e7d32" stroke-width="1"/>
<rect x="524.3" y="115.5" width="5.8" height="30.7" fill="#2e7d32"/>
<rect x="524.3" y="468.6" width="5.8" height="63.4" fill="#2e7d32" opacity="0.55"/>
<line x1="536.6" y1="113.2" x2="536.6" y2="159.8" stroke="#c62828" stroke-width="1"/>
<rect x="533.7" y="113.6" width="5.8" height="35.2" fill="#c62828"/>
<rect x="533.7" y="491.8" width="5.8" height="40.2" fill="#c62828" opacity="0.55"/>
<line x1="545.9" y1="140.6" x2="545.9" y2="195.4" stroke="#c62828" stroke-width="1"/>
<rect x="543.0" y="146.1" width="5.8" height="10.9" fill="#c62828"/>
<rect x="543.0" y="496.0" width="5.8" height="36.0" fill="#c62828" opacity="0.55"/>
<line x1="555.3" y1="151.5" x2="555.3" y2="176.2" stroke="#c62828" stroke-width="1"/>
<rect x="552.4" y="154.8" width="5.8" height="2.2" fill="#c62828"/>
<rect x="552.4" y="518.8" width="5.8" height="13.2" fill="#c62828" opacity="0.55"/>
<line x1="564.6" y1="151.5" x2="564.6" y2="170.7" stroke="#c62828" stroke-width="1"/>
<rect x="561.7" y="154.3" width="5.8" height="5.5" fill="#c62828"/>
<rect x="561.7" y="514.1" width="5.8" height="17.9" fill="#c62828" opacity="0.55"/>
<line x1="574.0" y1="157.0" x2="574.0" y2="211.8" stroke="#c62828" stroke-width="1"/>
<rect x="571.1" y="157.0" width="5.8" height="41.2" fill="#c62828"/>
<rect x="571.1" y="506.2" width="5.8" height="25.8" fill="#c62828" opacity="0.55"/>
<line x1="583.4" y1="198.1" x2="583.4" y2="228.2" stroke="#c62828" stroke-width="1"/>
<rect x="580.5" y="200.8" width="5.8" height="24.8" fill="#c62828"/>
<rect x="580.5" y="509.0" width="5.8" height="23.0" fill="#c62828" opacity="0.55"/>
<line x1="592.7" y1="203.6" x2="592.7" y2="228.2" stroke="#2e7d32" stroke-width="1"/>
<rect x="589.8" y="209.0" width="5.8" height="16.4" fill="#2e7d32"/>
<rect x="589.8" y="517.8" width="5.8" height="14.2" fill="#2e7d32" opacity="0.55"/>
<line x1="602.1" y1="209.0" x2="602.1" y2="222.7" stroke="#c62828" stroke-width="1"/>
<rect x="599.2" y="209.0" width="5.8" height="11.0" fill="#c62828"/>
<rect x="599.2" y="523.1" width="5.8" height="8.9" fill="#c62828" opacity="0.55"/>
<line x1="611.4" y1="220.0" x2="611.4" y2="250.1" stroke="#c62828" stroke-width="1"/>
<rect x="608.5" y="220.1" width="5.8" height="8.1" fill="#c62828"/>
<rect x="608.5" y="517.3" width="5.8" height="14.7" fill="#c62828" opacity="0.55"/>
<line x1="620.8" y1="225.5" x2="620.8" y2="239.2" stroke="#c62828" stroke-width="1"/>
<rect x="617.9" y="228.2" width="5.8" height="5.7" fill="#c62828"/>
<rect x="617.9" y="525.9" width="5.8" height="6.1" fill="#c62828" opacity="0.55"/>
<line x1="630.1" y1="220.0" x2="630.1" y2="244.6" stroke="#2e7d32" stroke-width="1"/>
<rect x="627.2" y="225.5" width="5.8" height="10.7" fill="#2e7d32"/>
<rect x="627.2" y="526.1" width="5.8" height="5.9" fill="#2e7d32" opacity="0.55"/>
<line x1="639.5" y1="217.3" x2="639.5" y2="233.7" stroke="#c62828" stroke-width="1"/>
<rect x="636.6" y="222.7" width="5.8" height="2.7" fill="#c62828"/>
<rect x="636.6" y="527.5" width="5.8" height="4.5" fill="#c62828" opacity="0.55"/>
<line x1="648.9" y1="217.3" x2="648.9" y2="231.0" stroke="#2e7d32" stroke-width="1"/>
<rect x="646.0" y="220.0" width="5.8" height="8.2" fill="#2e7d32"/>
<rect x="646.0" y="527.9" width="5.8" height="4.1" fill="#2e7d32" opacity="0.55"/>
<line x1="658.2" y1="211.8" x2="658.2" y2="231.0" stroke="#c62828" stroke-width="1"/>
<rect x="655.3" y="222.7" width="5.8" height="2.7" fill="#c62828"/>
<rect x="655.3" y="526.5" width="5.8" height="5.5" fill="#c62828" opacity="0.55"/>
<line x1="667.6" y1="220.0" x2="667.6" y2="233.7" stroke="#2e7d32" stroke-width="1"/>
<rect x="664.7" y="222.5" width="5.8" height="3.0" fill="#2e7d32"/>
<rect x="664.7" y="528.3" width="5.8" height="3.7" fill="#2e7d32" opacity="0.55"/>
<line x1="676.9" y1="214.5" x2="676.9" y2="231.0" stroke="#c62828" stroke-width="1"/>
<rect x="674.0" y="222.7" width="5.8" height="8.2" fill="#c62828"/>
<rect x="674.0" y="529.8" width="5.8" height="2.2" fill="#c62828" opacity="0.55"/>
<line x1="686.3" y1="217.3" x2="686.3" y2="231.0" stroke="#2e7d32" stroke-width="1"/>
<rect x="683.4" y="220.0" width="5.8" height="11.0" fill="#2e7d32"/>
<rect x="683.4" y="529.5" width="5.8" height="2.5" fill="#2e7d32" opacity="0.55"/>
<line x1="695.7" y1="214.5" x2="695.7" y2="225.5" stroke="#2e7d32" stroke-width="1"/>
<rect x="692.8" y="214.7" width="5.8" height="5.3" fill="#2e7d32"/>
<rect x="692.8" y="527.4" width="5.8" height="4.6" fill="#2e7d32" opacity="0.55"/>
<line x1="705.0" y1="189.9" x2="705.0" y2="217.3" stroke="#2e7d32" stroke-width="1"/>
<rect x="702.1" y="190.0" width="5.8" height="24.6" fill="#2e7d32"/>
<rect x="702.1" y="515.5" width="5.8" height="16.5" fill="#2e7d32" opacity="0.55"/>
<line x1="714.4" y1="162.5" x2="714.4" y2="192.6" stroke="#2e7d32" stroke-width="1"/>
<rect x="711.5" y="187.1" width="5.8" height="2.8" fill="#2e7d32"/>
<rect x="711.5" y="507.5" width="5.8" height="24.5" fill="#2e7d32" opacity="0.55"/>
<line x1="723.7" y1="162.5" x2="723.7" y2="189.9" stroke="#2e7d32" stroke-width="1"/>
<rect x="720.8" y="170.7" width="5.8" height="16.3" fill="#2e7d32"/>
<rect x="720.8" y="516.8" width="5.8" height="15.2" fill="#2e7d32" opacity="0.55"/>
<line x1="733.1" y1="170.7" x2="733.1" y2="203.6" stroke="#c62828" stroke-width="1"/>
<rect x="730.2" y="170.7" width="5.8" height="30.1" fill="#c62828"/>
<rect x="730.2" y="522.0" width="5.8" height="10.0" fill="#c62828" opacity="0.55"/>
<line x1="742.4" y1="192.6" x2="742.4" y2="203.6" stroke="#2e7d32" stroke-width="1"/>
<rect x="739.5" y="192.6" width="5.8" height="5.5" fill="#2e7d32"/>
<rect x="739.5" y="528.4" width="5.8" height="3.6" fill="#2e7d32" opacity="0.55"/>
<line x1="751.8" y1="192.6" x2="751.8" y2="214.5" stroke="#c62828" stroke-width="1"/>
<rect x="748.9" y="195.4" width="5.8" height="13.7" fill="#c62828"/>
<rect x="748.9" y="527.0" width="5.8" height="5.0" fill="#c62828" opacity="0.55"/>
<line x1="761.2" y1="195.4" x2="761.2" y2="214.5" stroke="#2e7d32" stroke-width="1"/>
<rect x="758.3" y="203.6" width="5.8" height="2.7" fill="#2e7d32"/>
<rect x="758.3" y="529.0" width="5.8" height="3.0" fill="#2e7d32" opacity="0.55"/>
<line x1="770.5" y1="203.6" x2="770.5" y2="214.5" stroke="#c62828" stroke-width="1"/>
<rect x="767.6" y="209.0" width="5.8" height="5.5" fill="#c62828"/>
<rect x="767.6" y="530.3" width="5.8" height="1.7" fill="#c62828" opacity="0.55"/>
<line x1="779.9" y1="200.8" x2="779.9" y2="214.5" stroke="#2e7d32" stroke-width="1"/>
<rect x="777.0" y="203.6" width="5.8" height="8.2" fill="#2e7d32"/>
<rect x="777.0" y="529.9" width="5.8" height="2.1" fill="#2e7d32" opacity="0.55"/>
<line x1="789.2" y1="203.6" x2="789.2" y2="209.0" stroke="#2e7d32" stroke-width="1"/>
<rect x="786.3" y="203.8" width="5.8" height="2.5" fill="#2e7d32"/>
<rect x="786.3" y="530.4" width="5.8" height="1.6" fill="#2e7d32" opacity="0.55"/>
<line x1="798.6" y1="203.6" x2="798.6" y2="217.3" stroke="#c62828" stroke-width="1"/>
<rect x="795.7" y="203.7" width="5.8" height="13.6" fill="#c62828"/>
<rect x="795.7" y="529.9" width="5.8" height="2.1" fill="#c62828" opacity="0.55"/>
<line x1="807.9" y1="214.5" x2="807.9" y2="222.7" stroke="#c62828" stroke-width="1"/>
<rect x="805.0" y="217.2" width="5.8" height="5.5" fill="#c62828"/>
<rect x="805.0" y="528.8" width="5.8" height="3.2" fill="#c62828" opacity="0.55"/>
<line x1="817.3" y1="220.0" x2="817.3" y2="225.5" stroke="#c62828" stroke-width="1"/>
<rect x="814.4" y="222.7" width="5.8" height="2.8" fill="#c62828"/>
<rect x="814.4" y="529.6" width="5.8" height="2.4" fill="#c62828" opacity="0.55"/>
<line x1="826.7" y1="211.8" x2="826.7" y2="225.5" stroke="#2e7d32" stroke-width="1"/>
<rect x="823.8" y="211.8" width="5.8" height="11.0" fill="#2e7d32"/>
<rect x="823.8" y="529.9" width="5.8" height="2.1" fill="#2e7d32" opacity="0.55"/>
<line x1="836.0" y1="211.8" x2="836.0" y2="222.7" stroke="#c62828" stroke-width="1"/>
<rect x="833.1" y="214.5" width="5.8" height="5.3" fill="#c62828"/>
<rect x="833.1" y="530.6" width="5.8" height="1.4" fill="#c62828" opacity="0.55"/>
<line x1="845.4" y1="206.3" x2="845.4" y2="220.0" stroke="#2e7d32" stroke-width="1"/>
<rect x="842.5" y="211.8" width="5.8" height="7.7" fill="#2e7d32"/>
<rect x="842.5" y="530.1" width="5.8" height="1.9" fill="#2e7d32" opacity="0.55"/>
<line x1="854.7" y1="206.3" x2="854.7" y2="211.8" stroke="#2e7d32" stroke-width="1"/>
<rect x="851.8" y="206.3" width="5.8" height="2.7" fill="#2e7d32"/>
<rect x="851.8" y="530.6" width="5.8" height="1.4" fill="#2e7d32" opacity="0.55"/>
<line x1="864.1" y1="206.4" x2="864.1" y2="214.5" stroke="#c62828" stroke-width="1"/>
<rect x="861.2" y="209.0" width="5.8" height="5.4" fill="#c62828"/>
<rect x="861.2" y="531.1" width="5.8" height="0.9" fill="#c62828" opacity="0.55"/>
<line x1="873.4" y1="211.8" x2="873.4" y2="222.7" stroke="#c62828" stroke-width="1"/>
<rect x="870.5" y="211.8" width="5.8" height="2.7" fill="#c62828"/>
<rect x="870.5" y="530.5" width="5.8" height="1.5" fill="#c62828" opacity="0.55"/>
<line x1="882.8" y1="211.8" x2="882.8" y2="222.7" stroke="#c62828" stroke-width="1"/>
<rect x="879.9" y="214.5" width="5.8" height="5.6" fill="#c62828"/>
<rect x="879.9" y="530.2" width="5.8" height="1.8" fill="#c62828" opacity="0.55"/>
<line x1="892.2" y1="212.6" x2="892.2" y2="225.5" stroke="#c62828" stroke-width="1"/>
<rect x="889.3" y="222.7" width="5.8" height="1.0" fill="#c62828"/>
<rect x="889.3" y="530.7" width="5.8" height="1.3" fill="#c62828" opacity="0.55"/>
<line x1="901.5" y1="217.3" x2="901.5" y2="228.2" stroke="#2e7d32" stroke-width="1"/>
<rect x="898.6" y="220.0" width="5.8" height="1.0" fill="#2e7d32"/>
<rect x="898.6" y="528.6" width="5.8" height="3.4" fill="#2e7d32" opacity="0.55"/>
<line x1="910.9" y1="55.7" x2="910.9" y2="206.3" stroke="#2e7d32" stroke-width="1"/>
<rect x="908.0" y="118.7" width="5.8" height="71.5" fill="#2e7d32"/>
<rect x="908.0" y="412.0" width="5.8" height="120.0" fill="#2e7d32" opacity="0.55"/>
<line x1="920.2" y1="74.9" x2="920.2" y2="189.9" stroke="#2e7d32" stroke-width="1"/>
<rect x="917.3" y="116.2" width="5.8" height="2.5" fill="#2e7d32"/>
<rect x="917.3" y="474.5" width="5.8" height="57.5" fill="#2e7d32" opacity="0.55"/>
<line x1="929.6" y1="116.0" x2="929.6" y2="151.5" stroke="#c62828" stroke-width="1"/>
<rect x="926.7" y="116.3" width="5.8" height="21.6" fill="#c62828"/>
<rect x="926.7" y="501.4" width="5.8" height="30.6" fill="#c62828" opacity="0.55"/>
<line x1="939.0" y1="102.3" x2="939.0" y2="154.3" stroke="#2e7d32" stroke-width="1"/>
<rect x="936.1" y="138.2" width="5.8" height="2.2" fill="#2e7d32"/>
<rect x="936.1" y="479.8" width="5.8" height="52.2" fill="#2e7d32" opacity="0.55"/>
<line x1="948.3" y1="124.2" x2="948.3" y2="148.8" stroke="#c62828" stroke-width="1"/>
<rect x="945.4" y="135.4" width="5.8" height="5.5" fill="#c62828"/>
<rect x="945.4" y="515.0" width="5.8" height="17.0" fill="#c62828" opacity="0.55"/>
<line x1="957.7" y1="132.4" x2="957.7" y2="168.0" stroke="#c62828" stroke-width="1"/>
<rect x="954.8" y="140.9" width="5.8" height="26.8" fill="#c62828"/>
<rect x="954.8" y="514.9" width="5.8" height="17.1" fill="#c62828" opacity="0.55"/>
<line x1="967.0" y1="159.8" x2="967.0" y2="211.8" stroke="#c62828" stroke-width="1"/>
<rect x="964.1" y="165.2" width="5.8" height="43.8" fill="#c62828"/>
<rect x="964.1" y="496.6" width="5.8" height="35.4" fill="#c62828" opacity="0.55"/>
<line x1="976.4" y1="195.4" x2="976.4" y2="211.8" stroke="#2e7d32" stroke-width="1"/>
<rect x="973.5" y="198.1" width="5.8" height="13.7" fill="#2e7d32"/>
<rect x="973.5" y="518.6" width="5.8" height="13.4" fill="#2e7d32" opacity="0.55"/>
<line x1="985.7" y1="173.5" x2="985.7" y2="200.8" stroke="#2e7d32" stroke-width="1"/>
<rect x="982.8" y="176.5" width="5.8" height="21.6" fill="#2e7d32"/>
<rect x="982.8" y="517.4" width="5.8" height="14.6" fill="#2e7d32" opacity="0.55"/>
<line x1="995.1" y1="170.7" x2="995.1" y2="198.1" stroke="#c62828" stroke-width="1"/>
<rect x="992.2" y="176.2" width="5.8" height="8.2" fill="#c62828"/>
<rect x="992.2" y="517.0" width="5.8" height="15.0" fill="#c62828" opacity="0.55"/>
<line x1="1004.5" y1="176.2" x2="1004.5" y2="192.6" stroke="#c62828" stroke-width="1"/>
<rect x="1001.6" y="181.7" width="5.8" height="3.0" fill="#c62828"/>
<rect x="1001.6" y="526.0" width="5.8" height="6.0" fill="#c62828" opacity="0.55"/>
<line x1="1013.8" y1="184.4" x2="1013.8" y2="195.4" stroke="#c62828" stroke-width="1"/>
<rect x="1010.9" y="184.4" width="5.8" height="11.0" fill="#c62828"/>
<rect x="1010.9" y="528.2" width="5.8" height="3.8" fill="#c62828" opacity="0.55"/>
<line x1="1023.2" y1="181.7" x2="1023.2" y2="195.4" stroke="#2e7d32" stroke-width="1"/>
<rect x="1020.3" y="184.1" width="5.8" height="11.2" fill="#2e7d32"/>
<rect x="1020.3" y="526.7" width="5.8" height="5.3" fill="#2e7d32" opacity="0.55"/>
<line x1="1032.5" y1="170.7" x2="1032.5" y2="184.4" stroke="#2e7d32" stroke-width="1"/>
<rect x="1029.6" y="176.2" width="5.8" height="5.7" fill="#2e7d32"/>
<rect x="1029.6" y="524.9" width="5.8" height="7.1" fill="#2e7d32" opacity="0.55"/>
<line x1="1041.9" y1="173.1" x2="1041.9" y2="200.8" stroke="#2e7d32" stroke-width="1"/>
<rect x="1039.0" y="173.5" width="5.8" height="5.5" fill="#2e7d32"/>
<rect x="1039.0" y="523.3" width="5.8" height="8.7" fill="#2e7d32" opacity="0.55"/>
<line x1="1051.2" y1="151.5" x2="1051.2" y2="173.5" stroke="#2e7d32" stroke-width="1"/>
<rect x="1048.3" y="165.5" width="5.8" height="7.9" fill="#2e7d32"/>
<rect x="1048.3" y="511.2" width="5.8" height="20.8" fill="#2e7d32" opacity="0.55"/>
<line x1="1060.6" y1="165.2" x2="1060.6" y2="184.4" stroke="#c62828" stroke-width="1"/>
<rect x="1057.7" y="167.7" width="5.8" height="1.0" fill="#c62828"/>
<rect x="1057.7" y="532.0" width="5.8" height="0.0" fill="#c62828" opacity="0.55"/>
<line x1="1070.0" y1="159.8" x2="1070.0" y2="170.7" stroke="#2e7d32" stroke-width="1"/>
<rect x="1067.1" y="162.8" width="5.8" height="5.5" fill="#2e7d32"/>
<rect x="1067.1" y="532.0" width="5.8" height="0.0" fill="#2e7d32" opacity="0.55"/>
<line x1="1079.3" y1="165.5" x2="1079.3" y2="165.5" stroke="#2e7d32" stroke-width="1"/>
<rect x="1076.4" y="165.5" width="5.8" height="1.0" fill="#2e7d32"/>
<rect x="1076.4" y="532.0" width="5.8" height="0.0" fill="#2e7d32" opacity="0.55"/>
<line x1="64" y1="532" x2="1084" y2="532" stroke="#ccc"/>
<text x="58" y="420" font-size="9" fill="#999" text-anchor="end">4.9M</text>
<line x1="68.7" y1="532" x2="68.7" y2="536" stroke="#999"/>
<text x="68.7" y="547.0" font-size="9" fill="#666" text-anchor="middle">07/20 07:00</text>
<line x1="237.1" y1="532" x2="237.1" y2="536" stroke="#999"/>
<text x="237.1" y="547.0" font-size="9" fill="#666" text-anchor="middle">09:30</text>
<line x1="405.6" y1="532" x2="405.6" y2="536" stroke="#999"/>
<text x="405.6" y="547.0" font-size="9" fill="#666" text-anchor="middle">15:10</text>
<line x1="574.0" y1="532" x2="574.0" y2="536" stroke="#999"/>
<text x="574.0" y="547.0" font-size="9" fill="#666" text-anchor="middle">17:00</text>
<line x1="742.4" y1="532" x2="742.4" y2="536" stroke="#999"/>
<text x="742.4" y="547.0" font-size="9" fill="#666" text-anchor="middle">18:30</text>
<line x1="910.9" y1="532" x2="910.9" y2="536" stroke="#999"/>
<text x="910.9" y="547.0" font-size="9" fill="#666" text-anchor="middle">07/21 04:00</text>
<line x1="1079.3" y1="532" x2="1079.3" y2="536" stroke="#999"/>
<text x="1079.3" y="547.0" font-size="9" fill="#666" text-anchor="middle">05:30</text>
<text x="64" y="22" font-size="15" font-weight="bold" fill="#1a1a1a">HIHO - Highway Holdings Limited</text>
<text x="1084" y="22" font-size="11" fill="#666" text-anchor="end">last $1.49 (+89.4% over window)</text>
<rect x="934" y="28" width="10" height="8" fill="#e8f0fe"/>
<text x="948" y="35" font-size="9" fill="#666">premarket</text>
<rect x="1006" y="28" width="10" height="8" fill="#fff4e0"/>
<text x="1020" y="35" font-size="9" fill="#666">after-hrs</text>
</svg>