<svg xmlns="http://www.w3.org/2000/svg" width="1100" height="560" viewBox="0 0 1100 560" font-family="Arial,Helvetica,sans-serif">
<rect width="1100" height="560" fill="white"/>
<rect x="64.0" y="36" width="92.7" height="496.0" fill="#e8f0fe"/>
<rect x="411.7" y="36" width="452.0" height="496.0" fill="#fff4e0"/>
<rect x="863.8" y="36" width="220.2" height="496.0" fill="#e8f0fe"/>
<line x1="64" y1="404.0" x2="1084" y2="404.0" stroke="#e6e6e6"/>
<text x="58" y="407.0" font-size="10" fill="#666" text-anchor="end">$0.75</text>
<line x1="64" y1="312.0" x2="1084" y2="312.0" stroke="#e6e6e6"/>
<text x="58" y="315.0" font-size="10" fill="#666" text-anchor="end">$0.90</text>
<line x1="64" y1="220.0" x2="1084" y2="220.0" stroke="#e6e6e6"/>
<text x="58" y="223.0" font-size="10" fill="#666" text-anchor="end">$1.06</text>
<line x1="64" y1="128.0" x2="1084" y2="128.0" stroke="#e6e6e6"/>
<text x="58" y="131.0" font-size="10" fill="#666" text-anchor="end">$1.21</text>
<line x1="64" y1="36.0" x2="1084" y2="36.0" stroke="#e6e6e6"/>
<text x="58" y="39.0" font-size="10" fill="#666" text-anchor="end">$1.36</text>
<line x1="69.8" y1="310.1" x2="69.8" y2="310.1" stroke="#2e7d32" stroke-width="1"/>
<rect x="66.2" y="310.1" width="7.2" height="1.0" fill="#2e7d32"/>
<rect x="66.2" y="532.0" width="7.2" height="0.0" fill="#2e7d32" opacity="0.55"/>
<line x1="81.4" y1="310.1" x2="81.4" y2="310.1" stroke="#2e7d32" stroke-width="1"/>
<rect x="77.8" y="310.1" width="7.2" height="1.0" fill="#2e7d32"/>
<rect x="77.8" y="532.0" width="7.2" height="0.0" fill="#2e7d32" opacity="0.55"/>
<line x1="93.0" y1="288.7" x2="93.0" y2="288.7" stroke="#2e7d32" stroke-width="1"/>
<rect x="89.4" y="288.7" width="7.2" height="1.0" fill="#2e7d32"/>
<rect x="89.4" y="531.9" width="7.2" height="0.1" fill="#2e7d32" opacity="0.55"/>
<line x1="104.6" y1="288.7" x2="104.6" y2="288.7" stroke="#2e7d32" stroke-width="1"/>
<rect x="101.0" y="288.7" width="7.2" height="1.0" fill="#2e7d32"/>
<rect x="101.0" y="532.0" width="7.2" height="0.0" fill="#2e7d32" opacity="0.55"/>
<line x1="116.2" y1="288.7" x2="116.2" y2="288.7" stroke="#2e7d32" stroke-width="1"/>
<rect x="112.6" y="288.7" width="7.2" height="1.0" fill="#2e7d32"/>
<rect x="112.6" y="531.5" width="7.2" height="0.5" fill="#2e7d32" opacity="0.55"/>
<line x1="127.8" y1="288.7" x2="127.8" y2="288.7" stroke="#2e7d32" stroke-width="1"/>
<rect x="124.2" y="288.7" width="7.2" height="1.0" fill="#2e7d32"/>
<rect x="124.2" y="532.0" width="7.2" height="0.0" fill="#2e7d32" opacity="0.55"/>
<line x1="139.3" y1="288.8" x2="139.3" y2="289.0" stroke="#2e7d32" stroke-width="1"/>
<rect x="135.7" y="288.8" width="7.2" height="1.0" fill="#2e7d32"/>
<rect x="135.7" y="532.0" width="7.2" height="0.0" fill="#2e7d32" opacity="0.55"/>
<line x1="150.9" y1="288.8" x2="150.9" y2="288.8" stroke="#2e7d32" stroke-width="1"/>
<rect x="147.3" y="288.8" width="7.2" height="1.0" fill="#2e7d32"/>
<rect x="147.3" y="532.0" width="7.2" height="0.0" fill="#2e7d32" opacity="0.55"/>
<line x1="162.5" y1="309.7" x2="162.5" y2="322.5" stroke="#2e7d32" stroke-width="1"/>
<rect x="158.9" y="309.7" width="7.2" height="12.8" fill="#2e7d32"/>
<rect x="158.9" y="531.1" width="7.2" height="0.9" fill="#2e7d32" opacity="0.55"/>
<line x1="174.1" y1="312.6" x2="174.1" y2="314.8" stroke="#c62828" stroke-width="1"/>
<rect x="170.5" y="312.6" width="7.2" height="2.2" fill="#c62828"/>
<rect x="170.5" y="531.8" width="7.2" height="0.2" fill="#c62828" opacity="0.55"/>
<line x1="185.7" y1="318.1" x2="185.7" y2="318.1" stroke="#2e7d32" stroke-width="1"/>
<rect x="182.1" y="318.1" width="7.2" height="1.0" fill="#2e7d32"/>
<rect x="182.1" y="532.0" width="7.2" height="0.0" fill="#2e7d32" opacity="0.55"/>
<line x1="197.3" y1="323.0" x2="197.3" y2="323.0" stroke="#2e7d32" stroke-width="1"/>
<rect x="193.7" y="323.0" width="7.2" height="1.0" fill="#2e7d32"/>
<rect x="193.7" y="532.0" width="7.2" height="0.0" fill="#2e7d32" opacity="0.55"/>
<line x1="208.9" y1="323.0" x2="208.9" y2="323.0" stroke="#2e7d32" stroke-width="1"/>
<rect x="205.3" y="323.0" width="7.2" height="1.0" fill="#2e7d32"/>
<rect x="205.3" y="532.0" width="7.2" height="0.0" fill="#2e7d32" opacity="0.55"/>
<line x1="220.5" y1="319.8" x2="220.5" y2="319.8" stroke="#2e7d32" stroke-width="1"/>
<rect x="216.9" y="319.8" width="7.2" height="1.0" fill="#2e7d32"/>
<rect x="216.9" y="532.0" width="7.2" height="0.0" fill="#2e7d32" opacity="0.55"/>
<line x1="232.1" y1="319.8" x2="232.1" y2="319.8" stroke="#2e7d32" stroke-width="1"/>
<rect x="228.5" y="319.8" width="7.2" height="1.0" fill="#2e7d32"/>
<rect x="228.5" y="532.0" width="7.2" height="0.0" fill="#2e7d32" opacity="0.55"/>
<line x1="243.7" y1="313.2" x2="243.7" y2="313.2" stroke="#2e7d32" stroke-width="1"/>
<rect x="240.1" y="313.2" width="7.2" height="1.0" fill="#2e7d32"/>
<rect x="240.1" y="532.0" width="7.2" height="0.0" fill="#2e7d32" opacity="0.55"/>
<line x1="255.2" y1="313.2" x2="255.2" y2="313.2" stroke="#2e7d32" stroke-width="1"/>
<rect x="251.7" y="313.2" width="7.2" height="1.0" fill="#2e7d32"/>
<rect x="251.7" y="531.9" width="7.2" height="0.1" fill="#2e7d32" opacity="0.55"/>
<line x1="266.8" y1="313.8" x2="266.8" y2="313.8" stroke="#2e7d32" stroke-width="1"/>
<rect x="263.2" y="313.8" width="7.2" height="1.0" fill="#2e7d32"/>
<rect x="263.2" y="532.0" width="7.2" height="0.0" fill="#2e7d32" opacity="0.55"/>
<line x1="278.4" y1="318.6" x2="278.4" y2="318.6" stroke="#2e7d32" stroke-width="1"/>
<rect x="274.8" y="318.6" width="7.2" height="1.0" fill="#2e7d32"/>
<rect x="274.8" y="532.0" width="7.2" height="0.0" fill="#2e7d32" opacity="0.55"/>
<line x1="290.0" y1="330.5" x2="290.0" y2="330.5" stroke="#2e7d32" stroke-width="1"/>
<rect x="286.4" y="330.5" width="7.2" height="1.0" fill="#2e7d32"/>
<rect x="286.4" y="531.9" width="7.2" height="0.1" fill="#2e7d32" opacity="0.55"/>
<line x1="301.6" y1="330.5" x2="301.6" y2="330.6" stroke="#2e7d32" stroke-width="1"/>
<rect x="298.0" y="330.5" width="7.2" height="1.0" fill="#2e7d32"/>
<rect x="298.0" y="531.7" width="7.2" height="0.3" fill="#2e7d32" opacity="0.55"/>
<line x1="313.2" y1="320.1" x2="313.2" y2="320.1" stroke="#2e7d32" stroke-width="1"/>
<rect x="309.6" y="320.1" width="7.2" height="1.0" fill="#2e7d32"/>
<rect x="309.6" y="532.0" width="7.2" height="0.0" fill="#2e7d32" opacity="0.55"/>
<line x1="324.8" y1="320.1" x2="324.8" y2="320.1" stroke="#2e7d32" stroke-width="1"/>
<rect x="321.2" y="320.1" width="7.2" height="1.0" fill="#2e7d32"/>
<rect x="321.2" y="531.8" width="7.2" height="0.2" fill="#2e7d32" opacity="0.55"/>
<line x1="336.4" y1="330.5" x2="336.4" y2="330.5" stroke="#2e7d32" stroke-width="1"/>
<rect x="332.8" y="330.5" width="7.2" height="1.0" fill="#2e7d32"/>
<rect x="332.8" y="532.0" width="7.2" height="0.0" fill="#2e7d32" opacity="0.55"/>
<line x1="348.0" y1="330.5" x2="348.0" y2="333.0" stroke="#2e7d32" stroke-width="1"/>
<rect x="344.4" y="330.5" width="7.2" height="2.4" fill="#2e7d32"/>
<rect x="344.4" y="531.9" width="7.2" height="0.1" fill="#2e7d32" opacity="0.55"/>
<line x1="359.6" y1="327.2" x2="359.6" y2="330.0" stroke="#2e7d32" stroke-width="1"/>
<rect x="356.0" y="327.2" width="7.2" height="2.8" fill="#2e7d32"/>
<rect x="356.0" y="532.0" width="7.2" height="0.0" fill="#2e7d32" opacity="0.55"/>
<line x1="371.2" y1="324.1" x2="371.2" y2="324.1" stroke="#2e7d32" stroke-width="1"/>
<rect x="367.6" y="324.1" width="7.2" height="1.0" fill="#2e7d32"/>
<rect x="367.6" y="531.9" width="7.2" height="0.1" fill="#2e7d32" opacity="0.55"/>
<line x1="382.8" y1="327.6" x2="382.8" y2="329.3" stroke="#c62828" stroke-width="1"/>
<rect x="379.2" y="329.0" width="7.2" height="1.0" fill="#c62828"/>
<rect x="379.2" y="532.0" width="7.2" height="0.0" fill="#c62828" opacity="0.55"/>
<line x1="394.3" y1="325.8" x2="394.3" y2="330.4" stroke="#c62828" stroke-width="1"/>
<rect x="390.7" y="325.8" width="7.2" height="2.4" fill="#c62828"/>
<rect x="390.7" y="531.5" width="7.2" height="0.5" fill="#c62828" opacity="0.55"/>
<line x1="405.9" y1="324.6" x2="405.9" y2="326.1" stroke="#c62828" stroke-width="1"/>
<rect x="402.3" y="324.6" width="7.2" height="1.5" fill="#c62828"/>
<rect x="402.3" y="531.9" width="7.2" height="0.1" fill="#c62828" opacity="0.55"/>
<line x1="417.5" y1="326.1" x2="417.5" y2="333.0" stroke="#2e7d32" stroke-width="1"/>
<rect x="413.9" y="326.1" width="7.2" height="6.9" fill="#2e7d32"/>
<rect x="413.9" y="532.0" width="7.2" height="0.0" fill="#2e7d32" opacity="0.55"/>
<line x1="429.1" y1="326.1" x2="429.1" y2="326.1" stroke="#2e7d32" stroke-width="1"/>
<rect x="425.5" y="326.1" width="7.2" height="1.0" fill="#2e7d32"/>
<rect x="425.5" y="532.0" width="7.2" height="0.0" fill="#2e7d32" opacity="0.55"/>
<line x1="440.7" y1="326.1" x2="440.7" y2="326.1" stroke="#2e7d32" stroke-width="1"/>
<rect x="437.1" y="326.1" width="7.2" height="1.0" fill="#2e7d32"/>
<rect x="437.1" y="532.0" width="7.2" height="0.0" fill="#2e7d32" opacity="0.55"/>
<line x1="452.3" y1="306.7" x2="452.3" y2="310.3" stroke="#c62828" stroke-width="1"/>
<rect x="448.7" y="306.7" width="7.2" height="3.6" fill="#c62828"/>
<rect x="448.7" y="531.4" width="7.2" height="0.6" fill="#c62828" opacity="0.55"/>
<line x1="463.9" y1="217.0" x2="463.9" y2="306.7" stroke="#2e7d32" stroke-width="1"/>
<rect x="460.3" y="223.0" width="7.2" height="83.7" fill="#2e7d32"/>
<rect x="460.3" y="518.1" width="7.2" height="13.9" fill="#2e7d32" opacity="0.55"/>
<line x1="475.5" y1="220.6" x2="475.5" y2="270.8" stroke="#c62828" stroke-width="1"/>
<rect x="471.9" y="223.0" width="7.2" height="24.0" fill="#c62828"/>
<rect x="471.9" y="509.9" width="7.2" height="22.1" fill="#c62828" opacity="0.55"/>
<line x1="487.1" y1="240.9" x2="487.1" y2="276.8" stroke="#2e7d32" stroke-width="1"/>
<rect x="483.5" y="241.1" width="7.2" height="5.8" fill="#2e7d32"/>
<rect x="483.5" y="524.2" width="7.2" height="7.8" fill="#2e7d32" opacity="0.55"/>
<line x1="498.7" y1="121.4" x2="498.7" y2="252.8" stroke="#2e7d32" stroke-width="1"/>
<rect x="495.1" y="139.4" width="7.2" height="101.7" fill="#2e7d32"/>
<rect x="495.1" y="437.9" width="7.2" height="94.1" fill="#2e7d32" opacity="0.55"/>
<line x1="510.3" y1="73.6" x2="510.3" y2="169.2" stroke="#2e7d32" stroke-width="1"/>
<rect x="506.7" y="91.6" width="7.2" height="47.7" fill="#2e7d32"/>
<rect x="506.7" y="421.1" width="7.2" height="110.9" fill="#2e7d32" opacity="0.55"/>
<line x1="521.8" y1="79.6" x2="521.8" y2="145.3" stroke="#c62828" stroke-width="1"/>
<rect x="518.2" y="91.6" width="7.2" height="47.7" fill="#c62828"/>
<rect x="518.2" y="441.5" width="7.2" height="90.5" fill="#c62828" opacity="0.55"/>
<line x1="533.4" y1="61.7" x2="533.4" y2="145.3" stroke="#2e7d32" stroke-width="1"/>
<rect x="529.8" y="67.6" width="7.2" height="71.6" fill="#2e7d32"/>
<rect x="529.8" y="454.1" width="7.2" height="77.9" fill="#2e7d32" opacity="0.55"/>
<line x1="545.0" y1="55.7" x2="545.0" y2="133.4" stroke="#c62828" stroke-width="1"/>
<rect x="541.4" y="61.7" width="7.2" height="53.9" fill="#c62828"/>
<rect x="541.4" y="453.5" width="7.2" height="78.5" fill="#c62828" opacity="0.55"/>
<line x1="556.6" y1="115.5" x2="556.6" y2="217.0" stroke="#c62828" stroke-width="1"/>
<rect x="553.0" y="121.4" width="7.2" height="71.7" fill="#c62828"/>
<rect x="553.0" y="454.4" width="7.2" height="77.6" fill="#c62828" opacity="0.55"/>
<line x1="568.2" y1="163.3" x2="568.2" y2="211.1" stroke="#2e7d32" stroke-width="1"/>
<rect x="564.6" y="169.4" width="7.2" height="23.7" fill="#2e7d32"/>
<rect x="564.6" y="495.2" width="7.2" height="36.8" fill="#2e7d32" opacity="0.55"/>
<line x1="579.8" y1="163.3" x2="579.8" y2="211.1" stroke="#c62828" stroke-width="1"/>
<rect x="576.2" y="169.4" width="7.2" height="29.8" fill="#c62828"/>
<rect x="576.2" y="508.3" width="7.2" height="23.7" fill="#c62828" opacity="0.55"/>
<line x1="591.4" y1="181.2" x2="591.4" y2="205.1" stroke="#2e7d32" stroke-width="1"/>
<rect x="587.8" y="187.3" width="7.2" height="11.8" fill="#2e7d32"/>
<rect x="587.8" y="520.9" width="7.2" height="11.1" fill="#2e7d32" opacity="0.55"/>
<line x1="603.0" y1="187.3" x2="603.0" y2="211.1" stroke="#c62828" stroke-width="1"/>
<rect x="599.4" y="190.2" width="7.2" height="14.9" fill="#c62828"/>
<rect x="599.4" y="519.3" width="7.2" height="12.7" fill="#c62828" opacity="0.55"/>
<line x1="614.6" y1="205.1" x2="614.6" y2="259.9" stroke="#c62828" stroke-width="1"/>
<rect x="611.0" y="211.1" width="7.2" height="41.8" fill="#c62828"/>
<rect x="611.0" y="500.2" width="7.2" height="31.8" fill="#c62828" opacity="0.55"/>
<line x1="626.2" y1="229.0" x2="626.2" y2="262.5" stroke="#2e7d32" stroke-width="1"/>
<rect x="622.6" y="247.0" width="7.2" height="12.4" fill="#2e7d32"/>
<rect x="622.6" y="524.8" width="7.2" height="7.2" fill="#2e7d32" opacity="0.55"/>
<line x1="637.8" y1="211.1" x2="637.8" y2="264.8" stroke="#2e7d32" stroke-width="1"/>
<rect x="634.2" y="217.0" width="7.2" height="35.9" fill="#2e7d32"/>
<rect x="634.2" y="518.0" width="7.2" height="14.0" fill="#2e7d32" opacity="0.55"/>
<line x1="649.3" y1="181.2" x2="649.3" y2="229.0" stroke="#2e7d32" stroke-width="1"/>
<rect x="645.7" y="193.1" width="7.2" height="23.8" fill="#2e7d32"/>
<rect x="645.7" y="517.0" width="7.2" height="15.0" fill="#2e7d32" opacity="0.55"/>
<line x1="660.9" y1="175.2" x2="660.9" y2="211.1" stroke="#2e7d32" stroke-width="1"/>
<rect x="657.3" y="193.0" width="7.2" height="1.0" fill="#2e7d32"/>
<rect x="657.3" y="518.7" width="7.2" height="13.3" fill="#2e7d32" opacity="0.55"/>
<line x1="672.5" y1="163.3" x2="672.5" y2="205.1" stroke="#2e7d32" stroke-width="1"/>
<rect x="668.9" y="175.2" width="7.2" height="17.9" fill="#2e7d32"/>
<rect x="668.9" y="517.4" width="7.2" height="14.6" fill="#2e7d32" opacity="0.55"/>
<line x1="684.1" y1="175.2" x2="684.1" y2="240.9" stroke="#c62828" stroke-width="1"/>
<rect x="680.5" y="175.4" width="7.2" height="53.6" fill="#c62828"/>
<rect x="680.5" y="519.9" width="7.2" height="12.1" fill="#c62828" opacity="0.55"/>
<line x1="695.7" y1="199.1" x2="695.7" y2="232.0" stroke="#2e7d32" stroke-width="1"/>
<rect x="692.1" y="216.9" width="7.2" height="12.1" fill="#2e7d32"/>
<rect x="692.1" y="527.7" width="7.2" height="4.3" fill="#2e7d32" opacity="0.55"/>
<line x1="707.3" y1="169.2" x2="707.3" y2="217.0" stroke="#2e7d32" stroke-width="1"/>
<rect x="703.7" y="187.2" width="7.2" height="29.9" fill="#2e7d32"/>
<rect x="703.7" y="516.6" width="7.2" height="15.4" fill="#2e7d32" opacity="0.55"/>
<line x1="718.9" y1="169.2" x2="718.9" y2="223.0" stroke="#c62828" stroke-width="1"/>
<rect x="715.3" y="187.2" width="7.2" height="23.9" fill="#c62828"/>
<rect x="715.3" y="520.1" width="7.2" height="11.9" fill="#c62828" opacity="0.55"/>
<line x1="730.5" y1="199.1" x2="730.5" y2="211.1" stroke="#2e7d32" stroke-width="1"/>
<rect x="726.9" y="199.1" width="7.2" height="6.0" fill="#2e7d32"/>
<rect x="726.9" y="528.8" width="7.2" height="3.2" fill="#2e7d32" opacity="0.55"/>
<line x1="742.1" y1="199.1" x2="742.1" y2="223.0" stroke="#c62828" stroke-width="1"/>
<rect x="738.5" y="199.1" width="7.2" height="17.9" fill="#c62828"/>
<rect x="738.5" y="525.9" width="7.2" height="6.1" fill="#c62828" opacity="0.55"/>
<line x1="753.7" y1="175.2" x2="753.7" y2="222.9" stroke="#2e7d32" stroke-width="1"/>
<rect x="750.1" y="175.4" width="7.2" height="47.4" fill="#2e7d32"/>
<rect x="750.1" y="527.7" width="7.2" height="4.3" fill="#2e7d32" opacity="0.55"/>
<line x1="765.2" y1="181.2" x2="765.2" y2="205.1" stroke="#c62828" stroke-width="1"/>
<rect x="761.7" y="181.2" width="7.2" height="17.9" fill="#c62828"/>
<rect x="761.7" y="527.2" width="7.2" height="4.8" fill="#c62828" opacity="0.55"/>
<line x1="776.8" y1="133.4" x2="776.8" y2="202.1" stroke="#2e7d32" stroke-width="1"/>
<rect x="773.2" y="169.2" width="7.2" height="32.9" fill="#2e7d32"/>
<rect x="773.2" y="514.4" width="7.2" height="17.6" fill="#2e7d32" opacity="0.55"/>
<line x1="788.4" y1="151.3" x2="788.4" y2="181.2" stroke="#c62828" stroke-width="1"/>
<rect x="784.8" y="163.3" width="7.2" height="6.0" fill="#c62828"/>
<rect x="784.8" y="521.6" width="7.2" height="10.4" fill="#c62828" opacity="0.55"/>
<line x1="800.0" y1="163.3" x2="800.0" y2="175.2" stroke="#2e7d32" stroke-width="1"/>
<rect x="796.4" y="169.3" width="7.2" height="5.9" fill="#2e7d32"/>
<rect x="796.4" y="525.9" width="7.2" height="6.1" fill="#2e7d32" opacity="0.55"/>
<line x1="811.6" y1="151.3" x2="811.6" y2="175.2" stroke="#2e7d32" stroke-width="1"/>
<rect x="808.0" y="151.3" width="7.2" height="23.9" fill="#2e7d32"/>
<rect x="808.0" y="527.8" width="7.2" height="4.2" fill="#2e7d32" opacity="0.55"/>
<line x1="823.2" y1="127.4" x2="823.2" y2="181.2" stroke="#c62828" stroke-width="1"/>
<rect x="819.6" y="151.3" width="7.2" height="6.0" fill="#c62828"/>
<rect x="819.6" y="518.4" width="7.2" height="13.6" fill="#c62828" opacity="0.55"/>
<line x1="834.8" y1="151.3" x2="834.8" y2="181.2" stroke="#c62828" stroke-width="1"/>
<rect x="831.2" y="157.1" width="7.2" height="1.0" fill="#c62828"/>
<rect x="831.2" y="524.3" width="7.2" height="7.7" fill="#c62828" opacity="0.55"/>
<line x1="846.4" y1="151.7" x2="846.4" y2="175.2" stroke="#c62828" stroke-width="1"/>
<rect x="842.8" y="157.3" width="7.2" height="6.0" fill="#c62828"/>
<rect x="842.8" y="529.5" width="7.2" height="2.5" fill="#c62828" opacity="0.55"/>
<line x1="858.0" y1="145.3" x2="858.0" y2="169.2" stroke="#c62828" stroke-width="1"/>
<rect x="854.4" y="163.3" width="7.2" height="6.0" fill="#c62828"/>
<rect x="854.4" y="519.8" width="7.2" height="12.2" fill="#c62828" opacity="0.55"/>
<line x1="869.6" y1="85.6" x2="869.6" y2="252.9" stroke="#c62828" stroke-width="1"/>
<rect x="866.0" y="127.4" width="7.2" height="71.3" fill="#c62828"/>
<rect x="866.0" y="412.0" width="7.2" height="120.0" fill="#c62828" opacity="0.55"/>
<line x1="881.2" y1="97.5" x2="881.2" y2="240.9" stroke="#c62828" stroke-width="1"/>
<rect x="877.6" y="193.1" width="7.2" height="18.3" fill="#c62828"/>
<rect x="877.6" y="506.4" width="7.2" height="25.6" fill="#c62828" opacity="0.55"/>
<line x1="892.8" y1="205.1" x2="892.8" y2="211.6" stroke="#2e7d32" stroke-width="1"/>
<rect x="889.2" y="205.1" width="7.2" height="6.4" fill="#2e7d32"/>
<rect x="889.2" y="519.3" width="7.2" height="12.7" fill="#2e7d32" opacity="0.55"/>
<line x1="904.3" y1="187.2" x2="904.3" y2="223.0" stroke="#c62828" stroke-width="1"/>
<rect x="900.7" y="211.1" width="7.2" height="6.0" fill="#c62828"/>
<rect x="900.7" y="513.4" width="7.2" height="18.6" fill="#c62828" opacity="0.55"/>
<line x1="915.9" y1="205.1" x2="915.9" y2="223.0" stroke="#2e7d32" stroke-width="1"/>
<rect x="912.3" y="210.5" width="7.2" height="7.2" fill="#2e7d32"/>
<rect x="912.3" y="523.4" width="7.2" height="8.6" fill="#2e7d32" opacity="0.55"/>
<line x1="927.5" y1="193.1" x2="927.5" y2="211.1" stroke="#2e7d32" stroke-width="1"/>
<rect x="923.9" y="204.6" width="7.2" height="6.5" fill="#2e7d32"/>
<rect x="923.9" y="521.0" width="7.2" height="11.0" fill="#2e7d32" opacity="0.55"/>
<line x1="939.1" y1="199.5" x2="939.1" y2="235.0" stroke="#c62828" stroke-width="1"/>
<rect x="935.5" y="199.7" width="7.2" height="34.7" fill="#c62828"/>
<rect x="935.5" y="515.7" width="7.2" height="16.3" fill="#c62828" opacity="0.55"/>
<line x1="950.7" y1="229.0" x2="950.7" y2="252.9" stroke="#c62828" stroke-width="1"/>
<rect x="947.1" y="235.0" width="7.2" height="17.9" fill="#c62828"/>
<rect x="947.1" y="517.5" width="7.2" height="14.5" fill="#c62828" opacity="0.55"/>
<line x1="962.3" y1="252.9" x2="962.3" y2="312.6" stroke="#c62828" stroke-width="1"/>
<rect x="958.7" y="252.9" width="7.2" height="44.8" fill="#c62828"/>
<rect x="958.7" y="506.4" width="7.2" height="25.6" fill="#c62828" opacity="0.55"/>
<line x1="973.9" y1="277.8" x2="973.9" y2="298.0" stroke="#2e7d32" stroke-width="1"/>
<rect x="970.3" y="288.1" width="7.2" height="9.6" fill="#2e7d32"/>
<rect x="970.3" y="523.8" width="7.2" height="8.2" fill="#2e7d32" opacity="0.55"/>
<line x1="985.5" y1="283.6" x2="985.5" y2="288.1" stroke="#c62828" stroke-width="1"/>
<rect x="981.9" y="284.1" width="7.2" height="2.6" fill="#c62828"/>
<rect x="981.9" y="529.5" width="7.2" height="2.5" fill="#c62828" opacity="0.55"/>
<line x1="997.1" y1="286.7" x2="997.1" y2="312.6" stroke="#c62828" stroke-width="1"/>
<rect x="993.5" y="286.8" width="7.2" height="25.8" fill="#c62828"/>
<rect x="993.5" y="519.4" width="7.2" height="12.6" fill="#c62828" opacity="0.55"/>
<line x1="1008.7" y1="306.0" x2="1008.7" y2="364.9" stroke="#c62828" stroke-width="1"/>
<rect x="1005.1" y="312.6" width="7.2" height="47.8" fill="#c62828"/>
<rect x="1005.1" y="492.7" width="7.2" height="39.3" fill="#c62828" opacity="0.55"/>
<line x1="1020.3" y1="342.6" x2="1020.3" y2="364.9" stroke="#2e7d32" stroke-width="1"/>
<rect x="1016.7" y="344.4" width="7.2" height="16.1" fill="#2e7d32"/>
<rect x="1016.7" y="514.3" width="7.2" height="17.7" fill="#2e7d32" opacity="0.55"/>
<line x1="1031.8" y1="324.6" x2="1031.8" y2="384.3" stroke="#c62828" stroke-width="1"/>
<rect x="1028.2" y="344.2" width="7.2" height="28.1" fill="#c62828"/>
<rect x="1028.2" y="511.3" width="7.2" height="20.7" fill="#c62828" opacity="0.55"/>
<line x1="1043.4" y1="349.2" x2="1043.4" y2="372.3" stroke="#2e7d32" stroke-width="1"/>
<rect x="1039.8" y="349.2" width="7.2" height="23.1" fill="#2e7d32"/>
<rect x="1039.8" y="527.4" width="7.2" height="4.6" fill="#2e7d32" opacity="0.55"/>
<line x1="1055.0" y1="349.2" x2="1055.0" y2="366.3" stroke="#c62828" stroke-width="1"/>
<rect x="1051.4" y="354.4" width="7.2" height="9.0" fill="#c62828"/>
<rect x="1051.4" y="532.0" width="7.2" height="0.0" fill="#c62828" opacity="0.55"/>
<line x1="1066.6" y1="354.6" x2="1066.6" y2="366.3" stroke="#2e7d32" stroke-width="1"/>
<rect x="1063.0" y="362.5" width="7.2" height="1.0" fill="#2e7d32"/>
<rect x="1063.0" y="532.0" width="7.2" height="0.0" fill="#2e7d32" opacity="0.55"/>
<line x1="1078.2" y1="354.8" x2="1078.2" y2="354.8" stroke="#2e7d32" stroke-width="1"/>
<rect x="1074.6" y="354.8" width="7.2" height="1.0" fill="#2e7d32"/>
<rect x="1074.6" y="532.0" width="7.2" height="0.0" fill="#2e7d32" opacity="0.55"/>
<line x1="64" y1="532" x2="1084" y2="532" stroke="#ccc"/>
<text x="58" y="420" font-size="9" fill="#999" text-anchor="end">1.0M</text>
<line x1="69.8" y1="532" x2="69.8" y2="536" stroke="#999"/>
<text x="69.8" y="547.0" font-size="9" fill="#666" text-anchor="middle">07/20 04:00</text>
<line x1="232.1" y1="532" x2="232.1" y2="536" stroke="#999"/>
<text x="232.1" y="547.0" font-size="9" fill="#666" text-anchor="middle">12:20</text>
<line x1="394.3" y1="532" x2="394.3" y2="536" stroke="#999"/>
<text x="394.3" y="547.0" font-size="9" fill="#666" text-anchor="middle">15:45</text>
<line x1="556.6" y1="532" x2="556.6" y2="536" stroke="#999"/>
<text x="556.6" y="547.0" font-size="9" fill="#666" text-anchor="middle">17:45</text>
<line x1="718.9" y1="532" x2="718.9" y2="536" stroke="#999"/>
<text x="718.9" y="547.0" font-size="9" fill="#666" text-anchor="middle">18:55</text>
<line x1="881.2" y1="532" x2="881.2" y2="536" stroke="#999"/>
<text x="881.2" y="547.0" font-size="9" fill="#666" text-anchor="middle">07/21 04:05</text>
<line x1="1043.4" y1="532" x2="1043.4" y2="536" stroke="#999"/>
<text x="1043.4" y="547.0" font-size="9" fill="#666" text-anchor="middle">05:15</text>
<text x="64" y="22" font-size="15" font-weight="bold" fill="#1a1a1a">PAPL - PAPL</text>
<text x="1084" y="22" font-size="11" fill="#666" text-anchor="end">last $0.83 (-8.3% over window)</text>
<rect x="934" y="28" width="10" height="8" fill="#e8f0fe"/>
<text x="948" y="35" font-size="9" fill="#666">premarket</text>
<rect x="1006" y="28" width="10" height="8" fill="#fff4e0"/>
<text x="1020" y="35" font-size="9" fill="#666">after-hrs</text>
</svg>