<svg xmlns="http://www.w3.org/2000/svg" width="1100" height="560" viewBox="0 0 1100 560" font-family="Arial,Helvetica,sans-serif">
<rect width="1100" height="560" fill="white"/>
<rect x="64.0" y="36" width="46.9" height="496.0" fill="#e8f0fe"/>
<rect x="357.1" y="36" width="504.1" height="496.0" fill="#fff4e0"/>
<rect x="861.2" y="36" width="222.8" height="496.0" fill="#e8f0fe"/>
<line x1="64" y1="404.0" x2="1084" y2="404.0" stroke="#e6e6e6"/>
<text x="58" y="407.0" font-size="10" fill="#666" text-anchor="end">$0.91</text>
<line x1="64" y1="312.0" x2="1084" y2="312.0" stroke="#e6e6e6"/>
<text x="58" y="315.0" font-size="10" fill="#666" text-anchor="end">$1.10</text>
<line x1="64" y1="220.0" x2="1084" y2="220.0" stroke="#e6e6e6"/>
<text x="58" y="223.0" font-size="10" fill="#666" text-anchor="end">$1.29</text>
<line x1="64" y1="128.0" x2="1084" y2="128.0" stroke="#e6e6e6"/>
<text x="58" y="131.0" font-size="10" fill="#666" text-anchor="end">$1.48</text>
<line x1="64" y1="36.0" x2="1084" y2="36.0" stroke="#e6e6e6"/>
<text x="58" y="39.0" font-size="10" fill="#666" text-anchor="end">$1.67</text>
<line x1="69.9" y1="338.0" x2="69.9" y2="338.0" stroke="#2e7d32" stroke-width="1"/>
<rect x="66.2" y="338.0" width="7.3" height="1.0" fill="#2e7d32"/>
<rect x="66.2" y="532.0" width="7.3" height="0.0" fill="#2e7d32" opacity="0.55"/>
<line x1="81.6" y1="343.0" x2="81.6" y2="343.0" stroke="#2e7d32" stroke-width="1"/>
<rect x="78.0" y="343.0" width="7.3" height="1.0" fill="#2e7d32"/>
<rect x="78.0" y="532.0" width="7.3" height="0.0" fill="#2e7d32" opacity="0.55"/>
<line x1="93.3" y1="343.0" x2="93.3" y2="343.0" stroke="#2e7d32" stroke-width="1"/>
<rect x="89.7" y="343.0" width="7.3" height="1.0" fill="#2e7d32"/>
<rect x="89.7" y="532.0" width="7.3" height="0.0" fill="#2e7d32" opacity="0.55"/>
<line x1="105.0" y1="352.6" x2="105.0" y2="352.6" stroke="#2e7d32" stroke-width="1"/>
<rect x="101.4" y="352.6" width="7.3" height="1.0" fill="#2e7d32"/>
<rect x="101.4" y="532.0" width="7.3" height="0.0" fill="#2e7d32" opacity="0.55"/>
<line x1="116.8" y1="362.4" x2="116.8" y2="362.4" stroke="#2e7d32" stroke-width="1"/>
<rect x="113.1" y="362.4" width="7.3" height="1.0" fill="#2e7d32"/>
<rect x="113.1" y="512.0" width="7.3" height="20.0" fill="#2e7d32" opacity="0.55"/>
<line x1="128.5" y1="352.6" x2="128.5" y2="352.6" stroke="#2e7d32" stroke-width="1"/>
<rect x="124.8" y="352.6" width="7.3" height="1.0" fill="#2e7d32"/>
<rect x="124.8" y="526.2" width="7.3" height="5.8" fill="#2e7d32" opacity="0.55"/>
<line x1="140.2" y1="338.0" x2="140.2" y2="358.0" stroke="#2e7d32" stroke-width="1"/>
<rect x="136.6" y="338.0" width="7.3" height="20.0" fill="#2e7d32"/>
<rect x="136.6" y="419.5" width="7.3" height="112.5" fill="#2e7d32" opacity="0.55"/>
<line x1="151.9" y1="362.4" x2="151.9" y2="362.4" stroke="#2e7d32" stroke-width="1"/>
<rect x="148.3" y="362.4" width="7.3" height="1.0" fill="#2e7d32"/>
<rect x="148.3" y="521.2" width="7.3" height="10.8" fill="#2e7d32" opacity="0.55"/>
<line x1="163.7" y1="362.4" x2="163.7" y2="362.4" stroke="#2e7d32" stroke-width="1"/>
<rect x="160.0" y="362.4" width="7.3" height="1.0" fill="#2e7d32"/>
<rect x="160.0" y="511.1" width="7.3" height="20.9" fill="#2e7d32" opacity="0.55"/>
<line x1="175.4" y1="362.4" x2="175.4" y2="362.4" stroke="#2e7d32" stroke-width="1"/>
<rect x="171.7" y="362.4" width="7.3" height="1.0" fill="#2e7d32"/>
<rect x="171.7" y="519.3" width="7.3" height="12.7" fill="#2e7d32" opacity="0.55"/>
<line x1="187.1" y1="342.9" x2="187.1" y2="342.9" stroke="#2e7d32" stroke-width="1"/>
<rect x="183.5" y="342.9" width="7.3" height="1.0" fill="#2e7d32"/>
<rect x="183.5" y="529.6" width="7.3" height="2.4" fill="#2e7d32" opacity="0.55"/>
<line x1="198.8" y1="350.2" x2="198.8" y2="376.8" stroke="#c62828" stroke-width="1"/>
<rect x="195.2" y="350.2" width="7.3" height="13.2" fill="#c62828"/>
<rect x="195.2" y="412.0" width="7.3" height="120.0" fill="#c62828" opacity="0.55"/>
<line x1="210.6" y1="372.1" x2="210.6" y2="384.3" stroke="#c62828" stroke-width="1"/>
<rect x="206.9" y="372.1" width="7.3" height="11.1" fill="#c62828"/>
<rect x="206.9" y="455.3" width="7.3" height="76.7" fill="#c62828" opacity="0.55"/>
<line x1="222.3" y1="361.0" x2="222.3" y2="361.0" stroke="#2e7d32" stroke-width="1"/>
<rect x="218.6" y="361.0" width="7.3" height="1.0" fill="#2e7d32"/>
<rect x="218.6" y="531.0" width="7.3" height="1.0" fill="#2e7d32" opacity="0.55"/>
<line x1="234.0" y1="352.7" x2="234.0" y2="352.7" stroke="#2e7d32" stroke-width="1"/>
<rect x="230.4" y="352.7" width="7.3" height="1.0" fill="#2e7d32"/>
<rect x="230.4" y="529.2" width="7.3" height="2.8" fill="#2e7d32" opacity="0.55"/>
<line x1="245.7" y1="357.5" x2="245.7" y2="357.5" stroke="#2e7d32" stroke-width="1"/>
<rect x="242.1" y="357.5" width="7.3" height="1.0" fill="#2e7d32"/>
<rect x="242.1" y="530.9" width="7.3" height="1.1" fill="#2e7d32" opacity="0.55"/>
<line x1="257.4" y1="352.6" x2="257.4" y2="352.6" stroke="#2e7d32" stroke-width="1"/>
<rect x="253.8" y="352.6" width="7.3" height="1.0" fill="#2e7d32"/>
<rect x="253.8" y="529.6" width="7.3" height="2.4" fill="#2e7d32" opacity="0.55"/>
<line x1="269.2" y1="362.4" x2="269.2" y2="362.4" stroke="#2e7d32" stroke-width="1"/>
<rect x="265.5" y="362.4" width="7.3" height="1.0" fill="#2e7d32"/>
<rect x="265.5" y="529.9" width="7.3" height="2.1" fill="#2e7d32" opacity="0.55"/>
<line x1="280.9" y1="362.4" x2="280.9" y2="362.4" stroke="#2e7d32" stroke-width="1"/>
<rect x="277.3" y="362.4" width="7.3" height="1.0" fill="#2e7d32"/>
<rect x="277.3" y="526.4" width="7.3" height="5.6" fill="#2e7d32" opacity="0.55"/>
<line x1="292.6" y1="372.1" x2="292.6" y2="372.1" stroke="#2e7d32" stroke-width="1"/>
<rect x="289.0" y="372.1" width="7.3" height="1.0" fill="#2e7d32"/>
<rect x="289.0" y="528.2" width="7.3" height="3.8" fill="#2e7d32" opacity="0.55"/>
<line x1="304.3" y1="362.4" x2="304.3" y2="362.4" stroke="#2e7d32" stroke-width="1"/>
<rect x="300.7" y="362.4" width="7.3" height="1.0" fill="#2e7d32"/>
<rect x="300.7" y="514.3" width="7.3" height="17.7" fill="#2e7d32" opacity="0.55"/>
<line x1="316.1" y1="362.4" x2="316.1" y2="362.4" stroke="#2e7d32" stroke-width="1"/>
<rect x="312.4" y="362.4" width="7.3" height="1.0" fill="#2e7d32"/>
<rect x="312.4" y="528.3" width="7.3" height="3.7" fill="#2e7d32" opacity="0.55"/>
<line x1="327.8" y1="362.4" x2="327.8" y2="362.4" stroke="#2e7d32" stroke-width="1"/>
<rect x="324.2" y="362.4" width="7.3" height="1.0" fill="#2e7d32"/>
<rect x="324.2" y="531.0" width="7.3" height="1.0" fill="#2e7d32" opacity="0.55"/>
<line x1="339.5" y1="357.5" x2="339.5" y2="357.5" stroke="#2e7d32" stroke-width="1"/>
<rect x="335.9" y="357.5" width="7.3" height="1.0" fill="#2e7d32"/>
<rect x="335.9" y="528.1" width="7.3" height="3.9" fill="#2e7d32" opacity="0.55"/>
<line x1="351.2" y1="347.8" x2="351.2" y2="347.8" stroke="#2e7d32" stroke-width="1"/>
<rect x="347.6" y="347.8" width="7.3" height="1.0" fill="#2e7d32"/>
<rect x="347.6" y="528.3" width="7.3" height="3.7" fill="#2e7d32" opacity="0.55"/>
<line x1="363.0" y1="352.6" x2="363.0" y2="352.6" stroke="#2e7d32" stroke-width="1"/>
<rect x="359.3" y="352.6" width="7.3" height="1.0" fill="#2e7d32"/>
<rect x="359.3" y="532.0" width="7.3" height="0.0" fill="#2e7d32" opacity="0.55"/>
<line x1="374.7" y1="352.6" x2="374.7" y2="352.6" stroke="#2e7d32" stroke-width="1"/>
<rect x="371.1" y="352.6" width="7.3" height="1.0" fill="#2e7d32"/>
<rect x="371.1" y="532.0" width="7.3" height="0.0" fill="#2e7d32" opacity="0.55"/>
<line x1="386.4" y1="342.9" x2="386.4" y2="342.9" stroke="#2e7d32" stroke-width="1"/>
<rect x="382.8" y="342.9" width="7.3" height="1.0" fill="#2e7d32"/>
<rect x="382.8" y="532.0" width="7.3" height="0.0" fill="#2e7d32" opacity="0.55"/>
<line x1="398.1" y1="323.4" x2="398.1" y2="348.8" stroke="#2e7d32" stroke-width="1"/>
<rect x="394.5" y="323.4" width="7.3" height="25.2" fill="#2e7d32"/>
<rect x="394.5" y="532.0" width="7.3" height="0.0" fill="#2e7d32" opacity="0.55"/>
<line x1="409.9" y1="338.1" x2="409.9" y2="338.1" stroke="#2e7d32" stroke-width="1"/>
<rect x="406.2" y="338.1" width="7.3" height="1.0" fill="#2e7d32"/>
<rect x="406.2" y="532.0" width="7.3" height="0.0" fill="#2e7d32" opacity="0.55"/>
<line x1="421.6" y1="338.0" x2="421.6" y2="342.9" stroke="#2e7d32" stroke-width="1"/>
<rect x="418.0" y="338.0" width="7.3" height="4.9" fill="#2e7d32"/>
<rect x="418.0" y="532.0" width="7.3" height="0.0" fill="#2e7d32" opacity="0.55"/>
<line x1="433.3" y1="308.8" x2="433.3" y2="338.0" stroke="#2e7d32" stroke-width="1"/>
<rect x="429.7" y="312.7" width="7.3" height="10.7" fill="#2e7d32"/>
<rect x="429.7" y="532.0" width="7.3" height="0.0" fill="#2e7d32" opacity="0.55"/>
<line x1="445.0" y1="308.8" x2="445.0" y2="347.8" stroke="#c62828" stroke-width="1"/>
<rect x="441.4" y="312.4" width="7.3" height="30.5" fill="#c62828"/>
<rect x="441.4" y="532.0" width="7.3" height="0.0" fill="#c62828" opacity="0.55"/>
<line x1="456.8" y1="128.7" x2="456.8" y2="323.9" stroke="#2e7d32" stroke-width="1"/>
<rect x="453.1" y="167.8" width="7.3" height="156.1" fill="#2e7d32"/>
<rect x="453.1" y="532.0" width="7.3" height="0.0" fill="#2e7d32" opacity="0.55"/>
<line x1="468.5" y1="123.9" x2="468.5" y2="221.2" stroke="#2e7d32" stroke-width="1"/>
<rect x="464.8" y="138.5" width="7.3" height="14.6" fill="#2e7d32"/>
<rect x="464.8" y="532.0" width="7.3" height="0.0" fill="#2e7d32" opacity="0.55"/>
<line x1="480.2" y1="94.7" x2="480.2" y2="182.3" stroke="#c62828" stroke-width="1"/>
<rect x="476.6" y="143.2" width="7.3" height="39.0" fill="#c62828"/>
<rect x="476.6" y="532.0" width="7.3" height="0.0" fill="#c62828" opacity="0.55"/>
<line x1="491.9" y1="177.4" x2="491.9" y2="235.8" stroke="#c62828" stroke-width="1"/>
<rect x="488.3" y="182.2" width="7.3" height="34.1" fill="#c62828"/>
<rect x="488.3" y="532.0" width="7.3" height="0.0" fill="#c62828" opacity="0.55"/>
<line x1="503.7" y1="182.3" x2="503.7" y2="226.1" stroke="#2e7d32" stroke-width="1"/>
<rect x="500.0" y="192.0" width="7.3" height="19.5" fill="#2e7d32"/>
<rect x="500.0" y="532.0" width="7.3" height="0.0" fill="#2e7d32" opacity="0.55"/>
<line x1="515.4" y1="187.1" x2="515.4" y2="216.3" stroke="#c62828" stroke-width="1"/>
<rect x="511.7" y="196.9" width="7.3" height="14.6" fill="#c62828"/>
<rect x="511.7" y="532.0" width="7.3" height="0.0" fill="#c62828" opacity="0.55"/>
<line x1="527.1" y1="211.4" x2="527.1" y2="265.0" stroke="#c62828" stroke-width="1"/>
<rect x="523.5" y="211.4" width="7.3" height="38.8" fill="#c62828"/>
<rect x="523.5" y="532.0" width="7.3" height="0.0" fill="#c62828" opacity="0.55"/>
<line x1="538.8" y1="226.2" x2="538.8" y2="250.4" stroke="#2e7d32" stroke-width="1"/>
<rect x="535.2" y="231.0" width="7.3" height="19.3" fill="#2e7d32"/>
<rect x="535.2" y="532.0" width="7.3" height="0.0" fill="#2e7d32" opacity="0.55"/>
<line x1="550.6" y1="206.6" x2="550.6" y2="255.3" stroke="#2e7d32" stroke-width="1"/>
<rect x="546.9" y="221.6" width="7.3" height="14.2" fill="#2e7d32"/>
<rect x="546.9" y="532.0" width="7.3" height="0.0" fill="#2e7d32" opacity="0.55"/>
<line x1="562.3" y1="196.9" x2="562.3" y2="226.1" stroke="#2e7d32" stroke-width="1"/>
<rect x="558.6" y="211.3" width="7.3" height="14.7" fill="#2e7d32"/>
<rect x="558.6" y="532.0" width="7.3" height="0.0" fill="#2e7d32" opacity="0.55"/>
<line x1="574.0" y1="206.6" x2="574.0" y2="240.7" stroke="#c62828" stroke-width="1"/>
<rect x="570.4" y="211.4" width="7.3" height="29.3" fill="#c62828"/>
<rect x="570.4" y="532.0" width="7.3" height="0.0" fill="#c62828" opacity="0.55"/>
<line x1="585.7" y1="235.5" x2="585.7" y2="255.3" stroke="#c62828" stroke-width="1"/>
<rect x="582.1" y="240.7" width="7.3" height="4.8" fill="#c62828"/>
<rect x="582.1" y="532.0" width="7.3" height="0.0" fill="#c62828" opacity="0.55"/>
<line x1="597.4" y1="231.0" x2="597.4" y2="250.4" stroke="#c62828" stroke-width="1"/>
<rect x="593.8" y="235.9" width="7.3" height="1.0" fill="#c62828"/>
<rect x="593.8" y="532.0" width="7.3" height="0.0" fill="#c62828" opacity="0.55"/>
<line x1="609.2" y1="221.2" x2="609.2" y2="245.6" stroke="#2e7d32" stroke-width="1"/>
<rect x="605.5" y="221.2" width="7.3" height="14.7" fill="#2e7d32"/>
<rect x="605.5" y="532.0" width="7.3" height="0.0" fill="#2e7d32" opacity="0.55"/>
<line x1="620.9" y1="201.8" x2="620.9" y2="231.0" stroke="#2e7d32" stroke-width="1"/>
<rect x="617.3" y="206.6" width="7.3" height="24.3" fill="#2e7d32"/>
<rect x="617.3" y="532.0" width="7.3" height="0.0" fill="#2e7d32" opacity="0.55"/>
<line x1="632.6" y1="201.7" x2="632.6" y2="235.8" stroke="#c62828" stroke-width="1"/>
<rect x="629.0" y="201.8" width="7.3" height="29.2" fill="#c62828"/>
<rect x="629.0" y="532.0" width="7.3" height="0.0" fill="#c62828" opacity="0.55"/>
<line x1="644.3" y1="216.3" x2="644.3" y2="235.8" stroke="#2e7d32" stroke-width="1"/>
<rect x="640.7" y="221.7" width="7.3" height="9.3" fill="#2e7d32"/>
<rect x="640.7" y="532.0" width="7.3" height="0.0" fill="#2e7d32" opacity="0.55"/>
<line x1="656.1" y1="221.2" x2="656.1" y2="231.0" stroke="#2e7d32" stroke-width="1"/>
<rect x="652.4" y="225.9" width="7.3" height="1.0" fill="#2e7d32"/>
<rect x="652.4" y="532.0" width="7.3" height="0.0" fill="#2e7d32" opacity="0.55"/>
<line x1="667.8" y1="206.6" x2="667.8" y2="226.1" stroke="#2e7d32" stroke-width="1"/>
<rect x="664.2" y="216.2" width="7.3" height="9.9" fill="#2e7d32"/>
<rect x="664.2" y="532.0" width="7.3" height="0.0" fill="#2e7d32" opacity="0.55"/>
<line x1="679.5" y1="206.6" x2="679.5" y2="216.3" stroke="#c62828" stroke-width="1"/>
<rect x="675.9" y="211.8" width="7.3" height="4.6" fill="#c62828"/>
<rect x="675.9" y="532.0" width="7.3" height="0.0" fill="#c62828" opacity="0.55"/>
<line x1="691.2" y1="211.5" x2="691.2" y2="235.8" stroke="#c62828" stroke-width="1"/>
<rect x="687.6" y="211.5" width="7.3" height="4.8" fill="#c62828"/>
<rect x="687.6" y="532.0" width="7.3" height="0.0" fill="#c62828" opacity="0.55"/>
<line x1="703.0" y1="211.5" x2="703.0" y2="216.5" stroke="#2e7d32" stroke-width="1"/>
<rect x="699.3" y="216.3" width="7.3" height="1.0" fill="#2e7d32"/>
<rect x="699.3" y="532.0" width="7.3" height="0.0" fill="#2e7d32" opacity="0.55"/>
<line x1="714.7" y1="201.7" x2="714.7" y2="216.3" stroke="#2e7d32" stroke-width="1"/>
<rect x="711.1" y="201.7" width="7.3" height="9.7" fill="#2e7d32"/>
<rect x="711.1" y="532.0" width="7.3" height="0.0" fill="#2e7d32" opacity="0.55"/>
<line x1="726.4" y1="201.7" x2="726.4" y2="216.3" stroke="#c62828" stroke-width="1"/>
<rect x="722.8" y="211.5" width="7.3" height="4.8" fill="#c62828"/>
<rect x="722.8" y="532.0" width="7.3" height="0.0" fill="#c62828" opacity="0.55"/>
<line x1="738.1" y1="201.7" x2="738.1" y2="216.2" stroke="#2e7d32" stroke-width="1"/>
<rect x="734.5" y="201.7" width="7.3" height="14.5" fill="#2e7d32"/>
<rect x="734.5" y="532.0" width="7.3" height="0.0" fill="#2e7d32" opacity="0.55"/>
<line x1="749.9" y1="201.7" x2="749.9" y2="211.5" stroke="#2e7d32" stroke-width="1"/>
<rect x="746.2" y="206.6" width="7.3" height="1.0" fill="#2e7d32"/>
<rect x="746.2" y="532.0" width="7.3" height="0.0" fill="#2e7d32" opacity="0.55"/>
<line x1="761.6" y1="187.1" x2="761.6" y2="206.6" stroke="#2e7d32" stroke-width="1"/>
<rect x="758.0" y="192.0" width="7.3" height="14.7" fill="#2e7d32"/>
<rect x="758.0" y="532.0" width="7.3" height="0.0" fill="#2e7d32" opacity="0.55"/>
<line x1="773.3" y1="177.4" x2="773.3" y2="201.7" stroke="#2e7d32" stroke-width="1"/>
<rect x="769.7" y="192.0" width="7.3" height="1.0" fill="#2e7d32"/>
<rect x="769.7" y="532.0" width="7.3" height="0.0" fill="#2e7d32" opacity="0.55"/>
<line x1="785.0" y1="133.6" x2="785.0" y2="196.7" stroke="#2e7d32" stroke-width="1"/>
<rect x="781.4" y="143.4" width="7.3" height="48.5" fill="#2e7d32"/>
<rect x="781.4" y="532.0" width="7.3" height="0.0" fill="#2e7d32" opacity="0.55"/>
<line x1="796.8" y1="138.5" x2="796.8" y2="187.1" stroke="#c62828" stroke-width="1"/>
<rect x="793.1" y="148.2" width="7.3" height="34.1" fill="#c62828"/>
<rect x="793.1" y="532.0" width="7.3" height="0.0" fill="#c62828" opacity="0.55"/>
<line x1="808.5" y1="162.8" x2="808.5" y2="187.1" stroke="#2e7d32" stroke-width="1"/>
<rect x="804.8" y="172.4" width="7.3" height="5.0" fill="#2e7d32"/>
<rect x="804.8" y="532.0" width="7.3" height="0.0" fill="#2e7d32" opacity="0.55"/>
<line x1="820.2" y1="167.7" x2="820.2" y2="187.1" stroke="#c62828" stroke-width="1"/>
<rect x="816.6" y="172.5" width="7.3" height="14.6" fill="#c62828"/>
<rect x="816.6" y="532.0" width="7.3" height="0.0" fill="#c62828" opacity="0.55"/>
<line x1="831.9" y1="167.7" x2="831.9" y2="187.1" stroke="#2e7d32" stroke-width="1"/>
<rect x="828.3" y="167.7" width="7.3" height="19.1" fill="#2e7d32"/>
<rect x="828.3" y="532.0" width="7.3" height="0.0" fill="#2e7d32" opacity="0.55"/>
<line x1="843.7" y1="167.7" x2="843.7" y2="187.1" stroke="#c62828" stroke-width="1"/>
<rect x="840.0" y="167.7" width="7.3" height="14.6" fill="#c62828"/>
<rect x="840.0" y="532.0" width="7.3" height="0.0" fill="#c62828" opacity="0.55"/>
<line x1="855.4" y1="167.7" x2="855.4" y2="187.1" stroke="#2e7d32" stroke-width="1"/>
<rect x="851.7" y="177.4" width="7.3" height="1.0" fill="#2e7d32"/>
<rect x="851.7" y="532.0" width="7.3" height="0.0" fill="#2e7d32" opacity="0.55"/>
<line x1="867.1" y1="55.7" x2="867.1" y2="231.0" stroke="#c62828" stroke-width="1"/>
<rect x="863.5" y="80.1" width="7.3" height="117.0" fill="#c62828"/>
<rect x="863.5" y="532.0" width="7.3" height="0.0" fill="#c62828" opacity="0.55"/>
<line x1="878.8" y1="75.2" x2="878.8" y2="201.7" stroke="#2e7d32" stroke-width="1"/>
<rect x="875.2" y="177.5" width="7.3" height="19.6" fill="#2e7d32"/>
<rect x="875.2" y="532.0" width="7.3" height="0.0" fill="#2e7d32" opacity="0.55"/>
<line x1="890.6" y1="55.8" x2="890.6" y2="182.3" stroke="#2e7d32" stroke-width="1"/>
<rect x="886.9" y="148.2" width="7.3" height="33.9" fill="#2e7d32"/>
<rect x="886.9" y="532.0" width="7.3" height="0.0" fill="#2e7d32" opacity="0.55"/>
<line x1="902.3" y1="109.3" x2="902.3" y2="153.7" stroke="#2e7d32" stroke-width="1"/>
<rect x="898.6" y="128.7" width="7.3" height="19.5" fill="#2e7d32"/>
<rect x="898.6" y="532.0" width="7.3" height="0.0" fill="#2e7d32" opacity="0.55"/>
<line x1="914.0" y1="123.9" x2="914.0" y2="148.7" stroke="#c62828" stroke-width="1"/>
<rect x="910.4" y="133.5" width="7.3" height="4.9" fill="#c62828"/>
<rect x="910.4" y="532.0" width="7.3" height="0.0" fill="#c62828" opacity="0.55"/>
<line x1="925.7" y1="137.9" x2="925.7" y2="182.3" stroke="#c62828" stroke-width="1"/>
<rect x="922.1" y="137.9" width="7.3" height="14.7" fill="#c62828"/>
<rect x="922.1" y="532.0" width="7.3" height="0.0" fill="#c62828" opacity="0.55"/>
<line x1="937.4" y1="148.7" x2="937.4" y2="172.5" stroke="#c62828" stroke-width="1"/>
<rect x="933.8" y="148.7" width="7.3" height="14.2" fill="#c62828"/>
<rect x="933.8" y="532.0" width="7.3" height="0.0" fill="#c62828" opacity="0.55"/>
<line x1="949.2" y1="133.6" x2="949.2" y2="167.7" stroke="#2e7d32" stroke-width="1"/>
<rect x="945.5" y="158.0" width="7.3" height="4.8" fill="#2e7d32"/>
<rect x="945.5" y="532.0" width="7.3" height="0.0" fill="#2e7d32" opacity="0.55"/>
<line x1="960.9" y1="157.9" x2="960.9" y2="172.5" stroke="#c62828" stroke-width="1"/>
<rect x="957.3" y="157.9" width="7.3" height="14.1" fill="#c62828"/>
<rect x="957.3" y="532.0" width="7.3" height="0.0" fill="#c62828" opacity="0.55"/>
<line x1="972.6" y1="162.2" x2="972.6" y2="182.3" stroke="#c62828" stroke-width="1"/>
<rect x="969.0" y="172.5" width="7.3" height="4.9" fill="#c62828"/>
<rect x="969.0" y="532.0" width="7.3" height="0.0" fill="#c62828" opacity="0.55"/>
<line x1="984.3" y1="153.1" x2="984.3" y2="177.4" stroke="#2e7d32" stroke-width="1"/>
<rect x="980.7" y="163.3" width="7.3" height="9.7" fill="#2e7d32"/>
<rect x="980.7" y="532.0" width="7.3" height="0.0" fill="#2e7d32" opacity="0.55"/>
<line x1="996.1" y1="162.8" x2="996.1" y2="192.0" stroke="#c62828" stroke-width="1"/>
<rect x="992.4" y="163.4" width="7.3" height="18.4" fill="#c62828"/>
<rect x="992.4" y="532.0" width="7.3" height="0.0" fill="#c62828" opacity="0.55"/>
<line x1="1007.8" y1="177.8" x2="1007.8" y2="201.7" stroke="#c62828" stroke-width="1"/>
<rect x="1004.2" y="182.3" width="7.3" height="5.1" fill="#c62828"/>
<rect x="1004.2" y="532.0" width="7.3" height="0.0" fill="#c62828" opacity="0.55"/>
<line x1="1019.5" y1="182.3" x2="1019.5" y2="206.6" stroke="#2e7d32" stroke-width="1"/>
<rect x="1015.9" y="187.1" width="7.3" height="1.0" fill="#2e7d32"/>
<rect x="1015.9" y="532.0" width="7.3" height="0.0" fill="#2e7d32" opacity="0.55"/>
<line x1="1031.2" y1="192.0" x2="1031.2" y2="231.0" stroke="#c62828" stroke-width="1"/>
<rect x="1027.6" y="192.0" width="7.3" height="29.2" fill="#c62828"/>
<rect x="1027.6" y="532.0" width="7.3" height="0.0" fill="#c62828" opacity="0.55"/>
<line x1="1043.0" y1="211.5" x2="1043.0" y2="231.0" stroke="#c62828" stroke-width="1"/>
<rect x="1039.3" y="216.3" width="7.3" height="14.3" fill="#c62828"/>
<rect x="1039.3" y="532.0" width="7.3" height="0.0" fill="#c62828" opacity="0.55"/>
<line x1="1054.7" y1="201.7" x2="1054.7" y2="231.0" stroke="#2e7d32" stroke-width="1"/>
<rect x="1051.1" y="220.7" width="7.3" height="10.2" fill="#2e7d32"/>
<rect x="1051.1" y="532.0" width="7.3" height="0.0" fill="#2e7d32" opacity="0.55"/>
<line x1="1066.4" y1="192.0" x2="1066.4" y2="221.2" stroke="#2e7d32" stroke-width="1"/>
<rect x="1062.8" y="196.9" width="7.3" height="24.3" fill="#2e7d32"/>
<rect x="1062.8" y="532.0" width="7.3" height="0.0" fill="#2e7d32" opacity="0.55"/>
<line x1="1078.1" y1="201.7" x2="1078.1" y2="201.7" stroke="#2e7d32" stroke-width="1"/>
<rect x="1074.5" y="201.7" width="7.3" height="1.0" fill="#2e7d32"/>
<rect x="1074.5" y="532.0" width="7.3" height="0.0" fill="#2e7d32" opacity="0.55"/>
<line x1="64" y1="532" x2="1084" y2="532" stroke="#ccc"/>
<text x="58" y="420" font-size="9" fill="#999" text-anchor="end">0.0M</text>
<line x1="69.9" y1="532" x2="69.9" y2="536" stroke="#999"/>
<text x="69.9" y="547.0" font-size="9" fill="#666" text-anchor="middle">07/07 04:00</text>
<line x1="234.0" y1="532" x2="234.0" y2="536" stroke="#999"/>
<text x="234.0" y="547.0" font-size="9" fill="#666" text-anchor="middle">13:35</text>
<line x1="398.1" y1="532" x2="398.1" y2="536" stroke="#999"/>
<text x="398.1" y="547.0" font-size="9" fill="#666" text-anchor="middle">16:30</text>
<line x1="562.3" y1="532" x2="562.3" y2="536" stroke="#999"/>
<text x="562.3" y="547.0" font-size="9" fill="#666" text-anchor="middle">17:50</text>
<line x1="726.4" y1="532" x2="726.4" y2="536" stroke="#999"/>
<text x="726.4" y="547.0" font-size="9" fill="#666" text-anchor="middle">19:00</text>
<line x1="890.6" y1="532" x2="890.6" y2="536" stroke="#999"/>
<text x="890.6" y="547.0" font-size="9" fill="#666" text-anchor="middle">07/08 04:10</text>
<line x1="1054.7" y1="532" x2="1054.7" y2="536" stroke="#999"/>
<text x="1054.7" y="547.0" font-size="9" fill="#666" text-anchor="middle">05:20</text>
<text x="64" y="22" font-size="15" font-weight="bold" fill="#1a1a1a">DCX - Digital Currency X Technology Inc.</text>
<text x="1084" y="22" font-size="11" fill="#666" text-anchor="end">last $1.33 (+26.7% over window)</text>
<rect x="934" y="28" width="10" height="8" fill="#e8f0fe"/>
<text x="948" y="35" font-size="9" fill="#666">premarket</text>
<rect x="1006" y="28" width="10" height="8" fill="#fff4e0"/>
<text x="1020" y="35" font-size="9" fill="#666">after-hrs</text>
</svg>