<svg xmlns="http://www.w3.org/2000/svg" width="1100" height="560" viewBox="0 0 1100 560" font-family="Arial,Helvetica,sans-serif">
<rect width="1100" height="560" fill="white"/>
<rect x="64.0" y="36" width="13.4" height="496.0" fill="#e8f0fe"/>
<rect x="238.5" y="36" width="590.5" height="496.0" fill="#fff4e0"/>
<rect x="829.0" y="36" width="255.0" height="496.0" fill="#e8f0fe"/>
<line x1="64" y1="404.0" x2="1084" y2="404.0" stroke="#e6e6e6"/>
<text x="58" y="407.0" font-size="10" fill="#666" text-anchor="end">$2.38</text>
<line x1="64" y1="312.0" x2="1084" y2="312.0" stroke="#e6e6e6"/>
<text x="58" y="315.0" font-size="10" fill="#666" text-anchor="end">$2.99</text>
<line x1="64" y1="220.0" x2="1084" y2="220.0" stroke="#e6e6e6"/>
<text x="58" y="223.0" font-size="10" fill="#666" text-anchor="end">$3.60</text>
<line x1="64" y1="128.0" x2="1084" y2="128.0" stroke="#e6e6e6"/>
<text x="58" y="131.0" font-size="10" fill="#666" text-anchor="end">$4.21</text>
<line x1="64" y1="36.0" x2="1084" y2="36.0" stroke="#e6e6e6"/>
<text x="58" y="39.0" font-size="10" fill="#666" text-anchor="end">$4.82</text>
<line x1="70.7" y1="366.2" x2="70.7" y2="366.2" stroke="#2e7d32" stroke-width="1"/>
<rect x="66.6" y="366.2" width="8.3" height="1.0" fill="#2e7d32"/>
<rect x="66.6" y="532.0" width="8.3" height="0.0" fill="#2e7d32" opacity="0.55"/>
<line x1="84.1" y1="354.9" x2="84.1" y2="364.7" stroke="#2e7d32" stroke-width="1"/>
<rect x="80.0" y="354.9" width="8.3" height="9.8" fill="#2e7d32"/>
<rect x="80.0" y="412.0" width="8.3" height="120.0" fill="#2e7d32" opacity="0.55"/>
<line x1="97.6" y1="363.2" x2="97.6" y2="373.7" stroke="#2e7d32" stroke-width="1"/>
<rect x="93.4" y="363.2" width="8.3" height="10.6" fill="#2e7d32"/>
<rect x="93.4" y="520.1" width="8.3" height="11.9" fill="#2e7d32" opacity="0.55"/>
<line x1="111.0" y1="373.0" x2="111.0" y2="373.0" stroke="#2e7d32" stroke-width="1"/>
<rect x="106.8" y="373.0" width="8.3" height="1.0" fill="#2e7d32"/>
<rect x="106.8" y="504.4" width="8.3" height="27.6" fill="#2e7d32" opacity="0.55"/>
<line x1="124.4" y1="376.7" x2="124.4" y2="376.7" stroke="#2e7d32" stroke-width="1"/>
<rect x="120.2" y="376.7" width="8.3" height="1.0" fill="#2e7d32"/>
<rect x="120.2" y="499.3" width="8.3" height="32.7" fill="#2e7d32" opacity="0.55"/>
<line x1="137.8" y1="366.2" x2="137.8" y2="366.2" stroke="#2e7d32" stroke-width="1"/>
<rect x="133.7" y="366.2" width="8.3" height="1.0" fill="#2e7d32"/>
<rect x="133.7" y="512.4" width="8.3" height="19.6" fill="#2e7d32" opacity="0.55"/>
<line x1="151.2" y1="369.2" x2="151.2" y2="369.2" stroke="#2e7d32" stroke-width="1"/>
<rect x="147.1" y="369.2" width="8.3" height="1.0" fill="#2e7d32"/>
<rect x="147.1" y="480.7" width="8.3" height="51.3" fill="#2e7d32" opacity="0.55"/>
<line x1="164.7" y1="369.2" x2="164.7" y2="369.2" stroke="#2e7d32" stroke-width="1"/>
<rect x="160.5" y="369.2" width="8.3" height="1.0" fill="#2e7d32"/>
<rect x="160.5" y="517.0" width="8.3" height="15.0" fill="#2e7d32" opacity="0.55"/>
<line x1="178.1" y1="364.7" x2="178.1" y2="369.2" stroke="#2e7d32" stroke-width="1"/>
<rect x="173.9" y="364.7" width="8.3" height="4.5" fill="#2e7d32"/>
<rect x="173.9" y="497.9" width="8.3" height="34.1" fill="#2e7d32" opacity="0.55"/>
<line x1="191.5" y1="384.3" x2="191.5" y2="384.3" stroke="#2e7d32" stroke-width="1"/>
<rect x="187.3" y="384.3" width="8.3" height="1.0" fill="#2e7d32"/>
<rect x="187.3" y="525.1" width="8.3" height="6.9" fill="#2e7d32" opacity="0.55"/>
<line x1="204.9" y1="364.7" x2="204.9" y2="364.7" stroke="#2e7d32" stroke-width="1"/>
<rect x="200.8" y="364.7" width="8.3" height="1.0" fill="#2e7d32"/>
<rect x="200.8" y="492.2" width="8.3" height="39.8" fill="#2e7d32" opacity="0.55"/>
<line x1="218.3" y1="376.0" x2="218.3" y2="376.7" stroke="#c62828" stroke-width="1"/>
<rect x="214.2" y="376.0" width="8.3" height="1.0" fill="#c62828"/>
<rect x="214.2" y="498.4" width="8.3" height="33.6" fill="#c62828" opacity="0.55"/>
<line x1="231.8" y1="381.3" x2="231.8" y2="381.3" stroke="#2e7d32" stroke-width="1"/>
<rect x="227.6" y="381.3" width="8.3" height="1.0" fill="#2e7d32"/>
<rect x="227.6" y="498.1" width="8.3" height="33.9" fill="#2e7d32" opacity="0.55"/>
<line x1="245.2" y1="382.8" x2="245.2" y2="382.8" stroke="#2e7d32" stroke-width="1"/>
<rect x="241.0" y="382.8" width="8.3" height="1.0" fill="#2e7d32"/>
<rect x="241.0" y="532.0" width="8.3" height="0.0" fill="#2e7d32" opacity="0.55"/>
<line x1="258.6" y1="384.3" x2="258.6" y2="384.3" stroke="#2e7d32" stroke-width="1"/>
<rect x="254.4" y="384.3" width="8.3" height="1.0" fill="#2e7d32"/>
<rect x="254.4" y="532.0" width="8.3" height="0.0" fill="#2e7d32" opacity="0.55"/>
<line x1="272.0" y1="355.6" x2="272.0" y2="355.6" stroke="#2e7d32" stroke-width="1"/>
<rect x="267.9" y="355.6" width="8.3" height="1.0" fill="#2e7d32"/>
<rect x="267.9" y="532.0" width="8.3" height="0.0" fill="#2e7d32" opacity="0.55"/>
<line x1="285.4" y1="55.7" x2="285.4" y2="355.9" stroke="#2e7d32" stroke-width="1"/>
<rect x="281.3" y="143.1" width="8.3" height="212.5" fill="#2e7d32"/>
<rect x="281.3" y="532.0" width="8.3" height="0.0" fill="#2e7d32" opacity="0.55"/>
<line x1="298.9" y1="88.9" x2="298.9" y2="165.7" stroke="#2e7d32" stroke-width="1"/>
<rect x="294.7" y="132.3" width="8.3" height="13.9" fill="#2e7d32"/>
<rect x="294.7" y="532.0" width="8.3" height="0.0" fill="#2e7d32" opacity="0.55"/>
<line x1="312.3" y1="128.1" x2="312.3" y2="292.3" stroke="#c62828" stroke-width="1"/>
<rect x="308.1" y="131.1" width="8.3" height="126.7" fill="#c62828"/>
<rect x="308.1" y="532.0" width="8.3" height="0.0" fill="#c62828" opacity="0.55"/>
<line x1="325.7" y1="223.0" x2="325.7" y2="260.8" stroke="#2e7d32" stroke-width="1"/>
<rect x="321.6" y="257.7" width="8.3" height="1.5" fill="#2e7d32"/>
<rect x="321.6" y="532.0" width="8.3" height="0.0" fill="#2e7d32" opacity="0.55"/>
<line x1="339.1" y1="241.1" x2="339.1" y2="289.3" stroke="#c62828" stroke-width="1"/>
<rect x="335.0" y="253.2" width="8.3" height="4.5" fill="#c62828"/>
<rect x="335.0" y="532.0" width="8.3" height="0.0" fill="#c62828" opacity="0.55"/>
<line x1="352.6" y1="203.4" x2="352.6" y2="265.4" stroke="#2e7d32" stroke-width="1"/>
<rect x="348.4" y="209.4" width="8.3" height="43.7" fill="#2e7d32"/>
<rect x="348.4" y="532.0" width="8.3" height="0.0" fill="#2e7d32" opacity="0.55"/>
<line x1="366.0" y1="207.9" x2="366.0" y2="271.2" stroke="#c62828" stroke-width="1"/>
<rect x="361.8" y="212.4" width="8.3" height="52.8" fill="#c62828"/>
<rect x="361.8" y="532.0" width="8.3" height="0.0" fill="#c62828" opacity="0.55"/>
<line x1="379.4" y1="257.7" x2="379.4" y2="272.8" stroke="#c62828" stroke-width="1"/>
<rect x="375.2" y="260.7" width="8.3" height="12.1" fill="#c62828"/>
<rect x="375.2" y="532.0" width="8.3" height="0.0" fill="#c62828" opacity="0.55"/>
<line x1="392.8" y1="268.2" x2="392.8" y2="298.4" stroke="#c62828" stroke-width="1"/>
<rect x="388.7" y="269.7" width="8.3" height="13.6" fill="#c62828"/>
<rect x="388.7" y="532.0" width="8.3" height="0.0" fill="#c62828" opacity="0.55"/>
<line x1="406.2" y1="229.0" x2="406.2" y2="298.4" stroke="#2e7d32" stroke-width="1"/>
<rect x="402.1" y="236.2" width="8.3" height="50.1" fill="#2e7d32"/>
<rect x="402.1" y="532.0" width="8.3" height="0.0" fill="#2e7d32" opacity="0.55"/>
<line x1="419.7" y1="233.6" x2="419.7" y2="266.7" stroke="#c62828" stroke-width="1"/>
<rect x="415.5" y="236.2" width="8.3" height="14.0" fill="#c62828"/>
<rect x="415.5" y="532.0" width="8.3" height="0.0" fill="#c62828" opacity="0.55"/>
<line x1="433.1" y1="249.8" x2="433.1" y2="271.2" stroke="#c62828" stroke-width="1"/>
<rect x="428.9" y="249.8" width="8.3" height="11.0" fill="#c62828"/>
<rect x="428.9" y="532.0" width="8.3" height="0.0" fill="#c62828" opacity="0.55"/>
<line x1="446.5" y1="241.1" x2="446.5" y2="268.2" stroke="#2e7d32" stroke-width="1"/>
<rect x="442.3" y="250.1" width="8.3" height="15.1" fill="#2e7d32"/>
<rect x="442.3" y="532.0" width="8.3" height="0.0" fill="#2e7d32" opacity="0.55"/>
<line x1="459.9" y1="218.5" x2="459.9" y2="262.2" stroke="#2e7d32" stroke-width="1"/>
<rect x="455.8" y="218.5" width="8.3" height="31.7" fill="#2e7d32"/>
<rect x="455.8" y="532.0" width="8.3" height="0.0" fill="#2e7d32" opacity="0.55"/>
<line x1="473.3" y1="182.3" x2="473.3" y2="226.0" stroke="#2e7d32" stroke-width="1"/>
<rect x="469.2" y="214.0" width="8.3" height="7.5" fill="#2e7d32"/>
<rect x="469.2" y="532.0" width="8.3" height="0.0" fill="#2e7d32" opacity="0.55"/>
<line x1="486.8" y1="197.4" x2="486.8" y2="241.1" stroke="#2e7d32" stroke-width="1"/>
<rect x="482.6" y="198.9" width="8.3" height="14.6" fill="#2e7d32"/>
<rect x="482.6" y="532.0" width="8.3" height="0.0" fill="#2e7d32" opacity="0.55"/>
<line x1="500.2" y1="189.9" x2="500.2" y2="238.1" stroke="#c62828" stroke-width="1"/>
<rect x="496.0" y="200.4" width="8.3" height="34.0" fill="#c62828"/>
<rect x="496.0" y="532.0" width="8.3" height="0.0" fill="#c62828" opacity="0.55"/>
<line x1="513.6" y1="185.3" x2="513.6" y2="235.1" stroke="#2e7d32" stroke-width="1"/>
<rect x="509.4" y="198.9" width="8.3" height="35.5" fill="#2e7d32"/>
<rect x="509.4" y="532.0" width="8.3" height="0.0" fill="#2e7d32" opacity="0.55"/>
<line x1="527.0" y1="168.8" x2="527.0" y2="198.9" stroke="#2e7d32" stroke-width="1"/>
<rect x="522.9" y="168.8" width="8.3" height="28.6" fill="#2e7d32"/>
<rect x="522.9" y="532.0" width="8.3" height="0.0" fill="#2e7d32" opacity="0.55"/>
<line x1="540.4" y1="168.8" x2="540.4" y2="211.0" stroke="#c62828" stroke-width="1"/>
<rect x="536.3" y="168.8" width="8.3" height="28.6" fill="#c62828"/>
<rect x="536.3" y="532.0" width="8.3" height="0.0" fill="#c62828" opacity="0.55"/>
<line x1="553.9" y1="174.8" x2="553.9" y2="207.9" stroke="#2e7d32" stroke-width="1"/>
<rect x="549.7" y="187.1" width="8.3" height="10.3" fill="#2e7d32"/>
<rect x="549.7" y="532.0" width="8.3" height="0.0" fill="#2e7d32" opacity="0.55"/>
<line x1="567.3" y1="180.8" x2="567.3" y2="207.9" stroke="#c62828" stroke-width="1"/>
<rect x="563.1" y="185.3" width="8.3" height="16.2" fill="#c62828"/>
<rect x="563.1" y="532.0" width="8.3" height="0.0" fill="#c62828" opacity="0.55"/>
<line x1="580.7" y1="197.4" x2="580.7" y2="217.0" stroke="#c62828" stroke-width="1"/>
<rect x="576.5" y="201.8" width="8.3" height="9.1" fill="#c62828"/>
<rect x="576.5" y="532.0" width="8.3" height="0.0" fill="#c62828" opacity="0.55"/>
<line x1="594.1" y1="192.9" x2="594.1" y2="211.0" stroke="#2e7d32" stroke-width="1"/>
<rect x="590.0" y="194.4" width="8.3" height="16.5" fill="#2e7d32"/>
<rect x="590.0" y="532.0" width="8.3" height="0.0" fill="#2e7d32" opacity="0.55"/>
<line x1="607.6" y1="189.9" x2="607.6" y2="203.4" stroke="#2e7d32" stroke-width="1"/>
<rect x="603.4" y="189.9" width="8.3" height="4.6" fill="#2e7d32"/>
<rect x="603.4" y="532.0" width="8.3" height="0.0" fill="#2e7d32" opacity="0.55"/>
<line x1="621.0" y1="182.3" x2="621.0" y2="198.9" stroke="#c62828" stroke-width="1"/>
<rect x="616.8" y="189.9" width="8.3" height="8.9" fill="#c62828"/>
<rect x="616.8" y="532.0" width="8.3" height="0.0" fill="#c62828" opacity="0.55"/>
<line x1="634.4" y1="197.6" x2="634.4" y2="217.0" stroke="#c62828" stroke-width="1"/>
<rect x="630.2" y="197.6" width="8.3" height="7.3" fill="#c62828"/>
<rect x="630.2" y="532.0" width="8.3" height="0.0" fill="#c62828" opacity="0.55"/>
<line x1="647.8" y1="191.4" x2="647.8" y2="204.9" stroke="#2e7d32" stroke-width="1"/>
<rect x="643.7" y="193.0" width="8.3" height="10.4" fill="#2e7d32"/>
<rect x="643.7" y="532.0" width="8.3" height="0.0" fill="#2e7d32" opacity="0.55"/>
<line x1="661.2" y1="191.4" x2="661.2" y2="209.4" stroke="#c62828" stroke-width="1"/>
<rect x="657.1" y="192.9" width="8.3" height="5.7" fill="#c62828"/>
<rect x="657.1" y="532.0" width="8.3" height="0.0" fill="#c62828" opacity="0.55"/>
<line x1="674.7" y1="200.4" x2="674.7" y2="218.5" stroke="#c62828" stroke-width="1"/>
<rect x="670.5" y="200.4" width="8.3" height="17.9" fill="#c62828"/>
<rect x="670.5" y="532.0" width="8.3" height="0.0" fill="#c62828" opacity="0.55"/>
<line x1="688.1" y1="210.8" x2="688.1" y2="232.1" stroke="#c62828" stroke-width="1"/>
<rect x="683.9" y="218.4" width="8.3" height="1.7" fill="#c62828"/>
<rect x="683.9" y="532.0" width="8.3" height="0.0" fill="#c62828" opacity="0.55"/>
<line x1="701.5" y1="211.0" x2="701.5" y2="221.5" stroke="#2e7d32" stroke-width="1"/>
<rect x="697.3" y="218.5" width="8.3" height="1.5" fill="#2e7d32"/>
<rect x="697.3" y="532.0" width="8.3" height="0.0" fill="#2e7d32" opacity="0.55"/>
<line x1="714.9" y1="204.0" x2="714.9" y2="217.0" stroke="#2e7d32" stroke-width="1"/>
<rect x="710.8" y="206.4" width="8.3" height="6.0" fill="#2e7d32"/>
<rect x="710.8" y="532.0" width="8.3" height="0.0" fill="#2e7d32" opacity="0.55"/>
<line x1="728.3" y1="203.4" x2="728.3" y2="212.5" stroke="#c62828" stroke-width="1"/>
<rect x="724.2" y="206.4" width="8.3" height="3.0" fill="#c62828"/>
<rect x="724.2" y="532.0" width="8.3" height="0.0" fill="#c62828" opacity="0.55"/>
<line x1="741.8" y1="209.4" x2="741.8" y2="220.0" stroke="#c62828" stroke-width="1"/>
<rect x="737.6" y="211.0" width="8.3" height="9.0" fill="#c62828"/>
<rect x="737.6" y="532.0" width="8.3" height="0.0" fill="#c62828" opacity="0.55"/>
<line x1="755.2" y1="212.5" x2="755.2" y2="223.0" stroke="#2e7d32" stroke-width="1"/>
<rect x="751.0" y="214.0" width="8.3" height="6.0" fill="#2e7d32"/>
<rect x="751.0" y="532.0" width="8.3" height="0.0" fill="#2e7d32" opacity="0.55"/>
<line x1="768.6" y1="207.9" x2="768.6" y2="221.5" stroke="#c62828" stroke-width="1"/>
<rect x="764.4" y="214.0" width="8.3" height="4.6" fill="#c62828"/>
<rect x="764.4" y="532.0" width="8.3" height="0.0" fill="#c62828" opacity="0.55"/>
<line x1="782.0" y1="212.5" x2="782.0" y2="221.5" stroke="#2e7d32" stroke-width="1"/>
<rect x="777.9" y="214.5" width="8.3" height="5.5" fill="#2e7d32"/>
<rect x="777.9" y="532.0" width="8.3" height="0.0" fill="#2e7d32" opacity="0.55"/>
<line x1="795.4" y1="207.6" x2="795.4" y2="217.0" stroke="#2e7d32" stroke-width="1"/>
<rect x="791.3" y="211.0" width="8.3" height="3.4" fill="#2e7d32"/>
<rect x="791.3" y="532.0" width="8.3" height="0.0" fill="#2e7d32" opacity="0.55"/>
<line x1="808.9" y1="211.0" x2="808.9" y2="223.0" stroke="#c62828" stroke-width="1"/>
<rect x="804.7" y="216.5" width="8.3" height="2.0" fill="#c62828"/>
<rect x="804.7" y="532.0" width="8.3" height="0.0" fill="#c62828" opacity="0.55"/>
<line x1="822.3" y1="186.8" x2="822.3" y2="218.5" stroke="#2e7d32" stroke-width="1"/>
<rect x="818.1" y="195.9" width="8.3" height="22.5" fill="#2e7d32"/>
<rect x="818.1" y="532.0" width="8.3" height="0.0" fill="#2e7d32" opacity="0.55"/>
<line x1="835.7" y1="80.7" x2="835.7" y2="257.7" stroke="#2e7d32" stroke-width="1"/>
<rect x="831.5" y="137.2" width="8.3" height="72.3" fill="#2e7d32"/>
<rect x="831.5" y="532.0" width="8.3" height="0.0" fill="#2e7d32" opacity="0.55"/>
<line x1="849.1" y1="101.0" x2="849.1" y2="253.2" stroke="#2e7d32" stroke-width="1"/>
<rect x="845.0" y="111.0" width="8.3" height="29.2" fill="#2e7d32"/>
<rect x="845.0" y="532.0" width="8.3" height="0.0" fill="#2e7d32" opacity="0.55"/>
<line x1="862.6" y1="84.4" x2="862.6" y2="141.6" stroke="#2e7d32" stroke-width="1"/>
<rect x="858.4" y="97.9" width="8.3" height="13.0" fill="#2e7d32"/>
<rect x="858.4" y="532.0" width="8.3" height="0.0" fill="#2e7d32" opacity="0.55"/>
<line x1="876.0" y1="76.8" x2="876.0" y2="125.4" stroke="#2e7d32" stroke-width="1"/>
<rect x="871.8" y="81.3" width="8.3" height="18.2" fill="#2e7d32"/>
<rect x="871.8" y="532.0" width="8.3" height="0.0" fill="#2e7d32" opacity="0.55"/>
<line x1="889.4" y1="73.8" x2="889.4" y2="130.2" stroke="#c62828" stroke-width="1"/>
<rect x="885.2" y="81.4" width="8.3" height="28.2" fill="#c62828"/>
<rect x="885.2" y="532.0" width="8.3" height="0.0" fill="#c62828" opacity="0.55"/>
<line x1="902.8" y1="109.3" x2="902.8" y2="159.7" stroke="#c62828" stroke-width="1"/>
<rect x="898.7" y="109.7" width="8.3" height="28.7" fill="#c62828"/>
<rect x="898.7" y="532.0" width="8.3" height="0.0" fill="#c62828" opacity="0.55"/>
<line x1="916.2" y1="99.6" x2="916.2" y2="137.1" stroke="#2e7d32" stroke-width="1"/>
<rect x="912.1" y="107.0" width="8.3" height="30.0" fill="#2e7d32"/>
<rect x="912.1" y="532.0" width="8.3" height="0.0" fill="#2e7d32" opacity="0.55"/>
<line x1="929.7" y1="107.0" x2="929.7" y2="131.1" stroke="#c62828" stroke-width="1"/>
<rect x="925.5" y="108.5" width="8.3" height="19.5" fill="#c62828"/>
<rect x="925.5" y="532.0" width="8.3" height="0.0" fill="#c62828" opacity="0.55"/>
<line x1="943.1" y1="105.2" x2="943.1" y2="147.7" stroke="#c62828" stroke-width="1"/>
<rect x="938.9" y="127.9" width="8.3" height="18.3" fill="#c62828"/>
<rect x="938.9" y="532.0" width="8.3" height="0.0" fill="#c62828" opacity="0.55"/>
<line x1="956.5" y1="117.6" x2="956.5" y2="146.0" stroke="#2e7d32" stroke-width="1"/>
<rect x="952.3" y="138.0" width="8.3" height="7.9" fill="#2e7d32"/>
<rect x="952.3" y="532.0" width="8.3" height="0.0" fill="#2e7d32" opacity="0.55"/>
<line x1="969.9" y1="128.1" x2="969.9" y2="149.2" stroke="#c62828" stroke-width="1"/>
<rect x="965.8" y="138.3" width="8.3" height="2.7" fill="#c62828"/>
<rect x="965.8" y="532.0" width="8.3" height="0.0" fill="#c62828" opacity="0.55"/>
<line x1="983.3" y1="140.1" x2="983.3" y2="179.3" stroke="#c62828" stroke-width="1"/>
<rect x="979.2" y="141.2" width="8.3" height="23.1" fill="#c62828"/>
<rect x="979.2" y="532.0" width="8.3" height="0.0" fill="#c62828" opacity="0.55"/>
<line x1="996.8" y1="143.3" x2="996.8" y2="180.8" stroke="#c62828" stroke-width="1"/>
<rect x="992.6" y="167.2" width="8.3" height="6.1" fill="#c62828"/>
<rect x="992.6" y="532.0" width="8.3" height="0.0" fill="#c62828" opacity="0.55"/>
<line x1="1010.2" y1="166.7" x2="1010.2" y2="206.4" stroke="#c62828" stroke-width="1"/>
<rect x="1006.0" y="171.8" width="8.3" height="34.7" fill="#c62828"/>
<rect x="1006.0" y="532.0" width="8.3" height="0.0" fill="#c62828" opacity="0.55"/>
<line x1="1023.6" y1="193.1" x2="1023.6" y2="214.0" stroke="#2e7d32" stroke-width="1"/>
<rect x="1019.4" y="203.1" width="8.3" height="3.3" fill="#2e7d32"/>
<rect x="1019.4" y="532.0" width="8.3" height="0.0" fill="#2e7d32" opacity="0.55"/>
<line x1="1037.0" y1="181.1" x2="1037.0" y2="206.3" stroke="#2e7d32" stroke-width="1"/>
<rect x="1032.9" y="183.5" width="8.3" height="19.6" fill="#2e7d32"/>
<rect x="1032.9" y="532.0" width="8.3" height="0.0" fill="#2e7d32" opacity="0.55"/>
<line x1="1050.4" y1="167.2" x2="1050.4" y2="195.1" stroke="#c62828" stroke-width="1"/>
<rect x="1046.3" y="183.6" width="8.3" height="10.7" fill="#c62828"/>
<rect x="1046.3" y="532.0" width="8.3" height="0.0" fill="#c62828" opacity="0.55"/>
<line x1="1063.9" y1="185.3" x2="1063.9" y2="198.9" stroke="#c62828" stroke-width="1"/>
<rect x="1059.7" y="192.9" width="8.3" height="3.8" fill="#c62828"/>
<rect x="1059.7" y="532.0" width="8.3" height="0.0" fill="#c62828" opacity="0.55"/>
<line x1="1077.3" y1="205.2" x2="1077.3" y2="205.2" stroke="#2e7d32" stroke-width="1"/>
<rect x="1073.1" y="205.2" width="8.3" height="1.0" fill="#2e7d32"/>
<rect x="1073.1" y="532.0" width="8.3" height="0.0" fill="#2e7d32" opacity="0.55"/>
<line x1="64" y1="532" x2="1084" y2="532" stroke="#ccc"/>
<text x="58" y="420" font-size="9" fill="#999" text-anchor="end">0.0M</text>
<line x1="70.7" y1="532" x2="70.7" y2="536" stroke="#999"/>
<text x="70.7" y="547.0" font-size="9" fill="#666" text-anchor="middle">07/07 04:00</text>
<line x1="231.8" y1="532" x2="231.8" y2="536" stroke="#999"/>
<text x="231.8" y="547.0" font-size="9" fill="#666" text-anchor="middle">15:55</text>
<line x1="392.8" y1="532" x2="392.8" y2="536" stroke="#999"/>
<text x="392.8" y="547.0" font-size="9" fill="#666" text-anchor="middle">17:15</text>
<line x1="553.9" y1="532" x2="553.9" y2="536" stroke="#999"/>
<text x="553.9" y="547.0" font-size="9" fill="#666" text-anchor="middle">18:15</text>
<line x1="714.9" y1="532" x2="714.9" y2="536" stroke="#999"/>
<text x="714.9" y="547.0" font-size="9" fill="#666" text-anchor="middle">19:15</text>
<line x1="876.0" y1="532" x2="876.0" y2="536" stroke="#999"/>
<text x="876.0" y="547.0" font-size="9" fill="#666" text-anchor="middle">07/08 04:15</text>
<line x1="1037.0" y1="532" x2="1037.0" y2="536" stroke="#999"/>
<text x="1037.0" y="547.0" font-size="9" fill="#666" text-anchor="middle">05:15</text>
<text x="64" y="22" font-size="15" font-weight="bold" fill="#1a1a1a">IOTR - iOThree Limited</text>
<text x="1084" y="22" font-size="11" fill="#666" text-anchor="end">last $3.70 (+40.6% over window)</text>
<rect x="934" y="28" width="10" height="8" fill="#e8f0fe"/>
<text x="948" y="35" font-size="9" fill="#666">premarket</text>
<rect x="1006" y="28" width="10" height="8" fill="#fff4e0"/>
<text x="1020" y="35" font-size="9" fill="#666">after-hrs</text>
</svg>