<svg xmlns="http://www.w3.org/2000/svg" width="1100" height="560" viewBox="0 0 1100 560" font-family="Arial,Helvetica,sans-serif">
<rect width="1100" height="560" fill="white"/>
<rect x="64.0" y="36" width="327.3" height="496.0" fill="#e8f0fe"/>
<rect x="816.7" y="36" width="180.0" height="496.0" fill="#fff4e0"/>
<rect x="996.7" y="36" width="87.3" height="496.0" fill="#e8f0fe"/>
<line x1="64" y1="404.0" x2="1084" y2="404.0" stroke="#e6e6e6"/>
<text x="58" y="407.0" font-size="10" fill="#666" text-anchor="end">$2.10</text>
<line x1="64" y1="312.0" x2="1084" y2="312.0" stroke="#e6e6e6"/>
<text x="58" y="315.0" font-size="10" fill="#666" text-anchor="end">$2.14</text>
<line x1="64" y1="220.0" x2="1084" y2="220.0" stroke="#e6e6e6"/>
<text x="58" y="223.0" font-size="10" fill="#666" text-anchor="end">$2.17</text>
<line x1="64" y1="128.0" x2="1084" y2="128.0" stroke="#e6e6e6"/>
<text x="58" y="131.0" font-size="10" fill="#666" text-anchor="end">$2.20</text>
<line x1="64" y1="36.0" x2="1084" y2="36.0" stroke="#e6e6e6"/>
<text x="58" y="39.0" font-size="10" fill="#666" text-anchor="end">$2.24</text>
<line x1="66.7" y1="60.6" x2="66.7" y2="384.3" stroke="#c62828" stroke-width="1"/>
<rect x="65.0" y="60.6" width="3.4" height="267.8" fill="#c62828"/>
<rect x="65.0" y="532.0" width="3.4" height="0.0" fill="#c62828" opacity="0.55"/>
<line x1="72.2" y1="268.2" x2="72.2" y2="384.3" stroke="#c62828" stroke-width="1"/>
<rect x="70.5" y="302.1" width="3.4" height="20.8" fill="#c62828"/>
<rect x="70.5" y="532.0" width="3.4" height="0.0" fill="#c62828" opacity="0.55"/>
<line x1="77.6" y1="270.7" x2="77.6" y2="273.7" stroke="#2e7d32" stroke-width="1"/>
<rect x="75.9" y="273.7" width="3.4" height="1.0" fill="#2e7d32"/>
<rect x="75.9" y="532.0" width="3.4" height="0.0" fill="#2e7d32" opacity="0.55"/>
<line x1="83.1" y1="244.6" x2="83.1" y2="273.7" stroke="#2e7d32" stroke-width="1"/>
<rect x="81.4" y="244.6" width="3.4" height="29.0" fill="#2e7d32"/>
<rect x="81.4" y="532.0" width="3.4" height="0.0" fill="#2e7d32" opacity="0.55"/>
<line x1="88.5" y1="220.0" x2="88.5" y2="221.1" stroke="#2e7d32" stroke-width="1"/>
<rect x="86.9" y="220.0" width="3.4" height="1.0" fill="#2e7d32"/>
<rect x="86.9" y="532.0" width="3.4" height="0.0" fill="#2e7d32" opacity="0.55"/>
<line x1="94.0" y1="261.9" x2="94.0" y2="261.9" stroke="#2e7d32" stroke-width="1"/>
<rect x="92.3" y="261.9" width="3.4" height="1.0" fill="#2e7d32"/>
<rect x="92.3" y="532.0" width="3.4" height="0.0" fill="#2e7d32" opacity="0.55"/>
<line x1="99.5" y1="263.8" x2="99.5" y2="274.8" stroke="#c62828" stroke-width="1"/>
<rect x="97.8" y="263.8" width="3.4" height="11.0" fill="#c62828"/>
<rect x="97.8" y="532.0" width="3.4" height="0.0" fill="#c62828" opacity="0.55"/>
<line x1="104.9" y1="257.0" x2="104.9" y2="263.8" stroke="#2e7d32" stroke-width="1"/>
<rect x="103.2" y="263.8" width="3.4" height="1.0" fill="#2e7d32"/>
<rect x="103.2" y="532.0" width="3.4" height="0.0" fill="#2e7d32" opacity="0.55"/>
<line x1="110.4" y1="247.4" x2="110.4" y2="247.4" stroke="#2e7d32" stroke-width="1"/>
<rect x="108.7" y="247.4" width="3.4" height="1.0" fill="#2e7d32"/>
<rect x="108.7" y="532.0" width="3.4" height="0.0" fill="#2e7d32" opacity="0.55"/>
<line x1="115.8" y1="247.4" x2="115.8" y2="247.4" stroke="#2e7d32" stroke-width="1"/>
<rect x="114.1" y="247.4" width="3.4" height="1.0" fill="#2e7d32"/>
<rect x="114.1" y="532.0" width="3.4" height="0.0" fill="#2e7d32" opacity="0.55"/>
<line x1="121.3" y1="273.7" x2="121.3" y2="301.0" stroke="#2e7d32" stroke-width="1"/>
<rect x="119.6" y="273.7" width="3.4" height="22.5" fill="#2e7d32"/>
<rect x="119.6" y="532.0" width="3.4" height="0.0" fill="#2e7d32" opacity="0.55"/>
<line x1="126.7" y1="273.7" x2="126.7" y2="274.8" stroke="#2e7d32" stroke-width="1"/>
<rect x="125.0" y="273.7" width="3.4" height="1.1" fill="#2e7d32"/>
<rect x="125.0" y="532.0" width="3.4" height="0.0" fill="#2e7d32" opacity="0.55"/>
<line x1="132.2" y1="273.7" x2="132.2" y2="274.8" stroke="#2e7d32" stroke-width="1"/>
<rect x="130.5" y="273.7" width="3.4" height="1.0" fill="#2e7d32"/>
<rect x="130.5" y="532.0" width="3.4" height="0.0" fill="#2e7d32" opacity="0.55"/>
<line x1="137.6" y1="273.7" x2="137.6" y2="273.7" stroke="#2e7d32" stroke-width="1"/>
<rect x="135.9" y="273.7" width="3.4" height="1.0" fill="#2e7d32"/>
<rect x="135.9" y="532.0" width="3.4" height="0.0" fill="#2e7d32" opacity="0.55"/>
<line x1="143.1" y1="274.8" x2="143.1" y2="274.8" stroke="#2e7d32" stroke-width="1"/>
<rect x="141.4" y="274.8" width="3.4" height="1.0" fill="#2e7d32"/>
<rect x="141.4" y="532.0" width="3.4" height="0.0" fill="#2e7d32" opacity="0.55"/>
<line x1="148.5" y1="274.8" x2="148.5" y2="301.0" stroke="#2e7d32" stroke-width="1"/>
<rect x="146.9" y="274.8" width="3.4" height="26.3" fill="#2e7d32"/>
<rect x="146.9" y="532.0" width="3.4" height="0.0" fill="#2e7d32" opacity="0.55"/>
<line x1="154.0" y1="274.8" x2="154.0" y2="274.8" stroke="#2e7d32" stroke-width="1"/>
<rect x="152.3" y="274.8" width="3.4" height="1.0" fill="#2e7d32"/>
<rect x="152.3" y="532.0" width="3.4" height="0.0" fill="#2e7d32" opacity="0.55"/>
<line x1="159.5" y1="274.8" x2="159.5" y2="274.8" stroke="#2e7d32" stroke-width="1"/>
<rect x="157.8" y="274.8" width="3.4" height="1.0" fill="#2e7d32"/>
<rect x="157.8" y="532.0" width="3.4" height="0.0" fill="#2e7d32" opacity="0.55"/>
<line x1="164.9" y1="273.7" x2="164.9" y2="273.7" stroke="#2e7d32" stroke-width="1"/>
<rect x="163.2" y="273.7" width="3.4" height="1.0" fill="#2e7d32"/>
<rect x="163.2" y="532.0" width="3.4" height="0.0" fill="#2e7d32" opacity="0.55"/>
<line x1="170.4" y1="273.7" x2="170.4" y2="274.8" stroke="#c62828" stroke-width="1"/>
<rect x="168.7" y="273.7" width="3.4" height="1.1" fill="#c62828"/>
<rect x="168.7" y="532.0" width="3.4" height="0.0" fill="#c62828" opacity="0.55"/>
<line x1="175.8" y1="220.0" x2="175.8" y2="301.0" stroke="#c62828" stroke-width="1"/>
<rect x="174.1" y="220.0" width="3.4" height="81.0" fill="#c62828"/>
<rect x="174.1" y="532.0" width="3.4" height="0.0" fill="#c62828" opacity="0.55"/>
<line x1="181.3" y1="301.0" x2="181.3" y2="301.0" stroke="#2e7d32" stroke-width="1"/>
<rect x="179.6" y="301.0" width="3.4" height="1.0" fill="#2e7d32"/>
<rect x="179.6" y="532.0" width="3.4" height="0.0" fill="#2e7d32" opacity="0.55"/>
<line x1="186.7" y1="302.1" x2="186.7" y2="356.9" stroke="#2e7d32" stroke-width="1"/>
<rect x="185.0" y="302.1" width="3.4" height="1.0" fill="#2e7d32"/>
<rect x="185.0" y="532.0" width="3.4" height="0.0" fill="#2e7d32" opacity="0.55"/>
<line x1="192.2" y1="274.8" x2="192.2" y2="301.0" stroke="#2e7d32" stroke-width="1"/>
<rect x="190.5" y="274.8" width="3.4" height="26.3" fill="#2e7d32"/>
<rect x="190.5" y="532.0" width="3.4" height="0.0" fill="#2e7d32" opacity="0.55"/>
<line x1="197.6" y1="301.0" x2="197.6" y2="301.0" stroke="#2e7d32" stroke-width="1"/>
<rect x="195.9" y="301.0" width="3.4" height="1.0" fill="#2e7d32"/>
<rect x="195.9" y="532.0" width="3.4" height="0.0" fill="#2e7d32" opacity="0.55"/>
<line x1="203.1" y1="301.0" x2="203.1" y2="356.9" stroke="#c62828" stroke-width="1"/>
<rect x="201.4" y="301.0" width="3.4" height="55.9" fill="#c62828"/>
<rect x="201.4" y="532.0" width="3.4" height="0.0" fill="#c62828" opacity="0.55"/>
<line x1="208.5" y1="350.3" x2="208.5" y2="356.9" stroke="#2e7d32" stroke-width="1"/>
<rect x="206.9" y="350.3" width="3.4" height="6.6" fill="#2e7d32"/>
<rect x="206.9" y="532.0" width="3.4" height="0.0" fill="#2e7d32" opacity="0.55"/>
<line x1="214.0" y1="355.8" x2="214.0" y2="356.9" stroke="#2e7d32" stroke-width="1"/>
<rect x="212.3" y="356.9" width="3.4" height="1.0" fill="#2e7d32"/>
<rect x="212.3" y="532.0" width="3.4" height="0.0" fill="#2e7d32" opacity="0.55"/>
<line x1="219.5" y1="303.2" x2="219.5" y2="355.8" stroke="#2e7d32" stroke-width="1"/>
<rect x="217.8" y="303.2" width="3.4" height="52.6" fill="#2e7d32"/>
<rect x="217.8" y="532.0" width="3.4" height="0.0" fill="#2e7d32" opacity="0.55"/>
<line x1="224.9" y1="350.3" x2="224.9" y2="350.3" stroke="#2e7d32" stroke-width="1"/>
<rect x="223.2" y="350.3" width="3.4" height="1.0" fill="#2e7d32"/>
<rect x="223.2" y="532.0" width="3.4" height="0.0" fill="#2e7d32" opacity="0.55"/>
<line x1="230.4" y1="356.9" x2="230.4" y2="356.9" stroke="#2e7d32" stroke-width="1"/>
<rect x="228.7" y="356.9" width="3.4" height="1.0" fill="#2e7d32"/>
<rect x="228.7" y="532.0" width="3.4" height="0.0" fill="#2e7d32" opacity="0.55"/>
<line x1="235.8" y1="220.0" x2="235.8" y2="309.3" stroke="#2e7d32" stroke-width="1"/>
<rect x="234.1" y="274.8" width="3.4" height="34.5" fill="#2e7d32"/>
<rect x="234.1" y="532.0" width="3.4" height="0.0" fill="#2e7d32" opacity="0.55"/>
<line x1="241.3" y1="246.3" x2="241.3" y2="247.4" stroke="#2e7d32" stroke-width="1"/>
<rect x="239.6" y="246.6" width="3.4" height="1.0" fill="#2e7d32"/>
<rect x="239.6" y="532.0" width="3.4" height="0.0" fill="#2e7d32" opacity="0.55"/>
<line x1="246.7" y1="246.3" x2="246.7" y2="246.3" stroke="#2e7d32" stroke-width="1"/>
<rect x="245.0" y="246.3" width="3.4" height="1.0" fill="#2e7d32"/>
<rect x="245.0" y="532.0" width="3.4" height="0.0" fill="#2e7d32" opacity="0.55"/>
<line x1="252.2" y1="148.5" x2="252.2" y2="225.5" stroke="#2e7d32" stroke-width="1"/>
<rect x="250.5" y="192.6" width="3.4" height="27.4" fill="#2e7d32"/>
<rect x="250.5" y="532.0" width="3.4" height="0.0" fill="#2e7d32" opacity="0.55"/>
<line x1="257.6" y1="139.0" x2="257.6" y2="192.6" stroke="#c62828" stroke-width="1"/>
<rect x="255.9" y="145.0" width="3.4" height="47.6" fill="#c62828"/>
<rect x="255.9" y="532.0" width="3.4" height="0.0" fill="#c62828" opacity="0.55"/>
<line x1="263.1" y1="165.2" x2="263.1" y2="192.6" stroke="#2e7d32" stroke-width="1"/>
<rect x="261.4" y="189.1" width="3.4" height="3.6" fill="#2e7d32"/>
<rect x="261.4" y="532.0" width="3.4" height="0.0" fill="#2e7d32" opacity="0.55"/>
<line x1="268.5" y1="165.2" x2="268.5" y2="192.6" stroke="#2e7d32" stroke-width="1"/>
<rect x="266.9" y="165.2" width="3.4" height="1.0" fill="#2e7d32"/>
<rect x="266.9" y="532.0" width="3.4" height="0.0" fill="#2e7d32" opacity="0.55"/>
<line x1="274.0" y1="165.2" x2="274.0" y2="247.4" stroke="#c62828" stroke-width="1"/>
<rect x="272.3" y="165.2" width="3.4" height="82.1" fill="#c62828"/>
<rect x="272.3" y="532.0" width="3.4" height="0.0" fill="#c62828" opacity="0.55"/>
<line x1="279.5" y1="274.8" x2="279.5" y2="274.8" stroke="#2e7d32" stroke-width="1"/>
<rect x="277.8" y="274.8" width="3.4" height="1.0" fill="#2e7d32"/>
<rect x="277.8" y="532.0" width="3.4" height="0.0" fill="#2e7d32" opacity="0.55"/>
<line x1="284.9" y1="273.7" x2="284.9" y2="274.8" stroke="#c62828" stroke-width="1"/>
<rect x="283.2" y="273.7" width="3.4" height="1.1" fill="#c62828"/>
<rect x="283.2" y="532.0" width="3.4" height="0.0" fill="#c62828" opacity="0.55"/>
<line x1="290.4" y1="246.3" x2="290.4" y2="273.7" stroke="#2e7d32" stroke-width="1"/>
<rect x="288.7" y="246.3" width="3.4" height="27.4" fill="#2e7d32"/>
<rect x="288.7" y="532.0" width="3.4" height="0.0" fill="#2e7d32" opacity="0.55"/>
<line x1="295.8" y1="220.0" x2="295.8" y2="274.8" stroke="#2e7d32" stroke-width="1"/>
<rect x="294.1" y="247.4" width="3.4" height="27.4" fill="#2e7d32"/>
<rect x="294.1" y="532.0" width="3.4" height="0.0" fill="#2e7d32" opacity="0.55"/>
<line x1="301.3" y1="137.9" x2="301.3" y2="274.8" stroke="#2e7d32" stroke-width="1"/>
<rect x="299.6" y="165.2" width="3.4" height="27.4" fill="#2e7d32"/>
<rect x="299.6" y="532.0" width="3.4" height="0.0" fill="#2e7d32" opacity="0.55"/>
<line x1="306.7" y1="138.7" x2="306.7" y2="165.2" stroke="#2e7d32" stroke-width="1"/>
<rect x="305.0" y="138.7" width="3.4" height="26.6" fill="#2e7d32"/>
<rect x="305.0" y="532.0" width="3.4" height="0.0" fill="#2e7d32" opacity="0.55"/>
<line x1="312.2" y1="137.9" x2="312.2" y2="165.2" stroke="#c62828" stroke-width="1"/>
<rect x="310.5" y="164.1" width="3.4" height="1.1" fill="#c62828"/>
<rect x="310.5" y="532.0" width="3.4" height="0.0" fill="#c62828" opacity="0.55"/>
<line x1="317.6" y1="137.9" x2="317.6" y2="165.2" stroke="#2e7d32" stroke-width="1"/>
<rect x="315.9" y="165.2" width="3.4" height="1.0" fill="#2e7d32"/>
<rect x="315.9" y="532.0" width="3.4" height="0.0" fill="#2e7d32" opacity="0.55"/>
<line x1="323.1" y1="137.9" x2="323.1" y2="165.2" stroke="#2e7d32" stroke-width="1"/>
<rect x="321.4" y="137.9" width="3.4" height="27.4" fill="#2e7d32"/>
<rect x="321.4" y="532.0" width="3.4" height="0.0" fill="#2e7d32" opacity="0.55"/>
<line x1="328.5" y1="137.9" x2="328.5" y2="165.2" stroke="#c62828" stroke-width="1"/>
<rect x="326.9" y="137.9" width="3.4" height="27.4" fill="#c62828"/>
<rect x="326.9" y="532.0" width="3.4" height="0.0" fill="#c62828" opacity="0.55"/>
<line x1="334.0" y1="137.9" x2="334.0" y2="164.1" stroke="#2e7d32" stroke-width="1"/>
<rect x="332.3" y="137.9" width="3.4" height="26.3" fill="#2e7d32"/>
<rect x="332.3" y="532.0" width="3.4" height="0.0" fill="#2e7d32" opacity="0.55"/>
<line x1="339.5" y1="55.7" x2="339.5" y2="139.0" stroke="#2e7d32" stroke-width="1"/>
<rect x="337.8" y="66.4" width="3.4" height="72.6" fill="#2e7d32"/>
<rect x="337.8" y="532.0" width="3.4" height="0.0" fill="#2e7d32" opacity="0.55"/>
<line x1="344.9" y1="84.2" x2="344.9" y2="165.2" stroke="#c62828" stroke-width="1"/>
<rect x="343.2" y="85.3" width="3.4" height="52.6" fill="#c62828"/>
<rect x="343.2" y="532.0" width="3.4" height="0.0" fill="#c62828" opacity="0.55"/>
<line x1="350.4" y1="83.1" x2="350.4" y2="137.9" stroke="#2e7d32" stroke-width="1"/>
<rect x="348.7" y="137.9" width="3.4" height="1.0" fill="#2e7d32"/>
<rect x="348.7" y="532.0" width="3.4" height="0.0" fill="#2e7d32" opacity="0.55"/>
<line x1="355.8" y1="84.2" x2="355.8" y2="137.9" stroke="#2e7d32" stroke-width="1"/>
<rect x="354.1" y="84.2" width="3.4" height="53.7" fill="#2e7d32"/>
<rect x="354.1" y="532.0" width="3.4" height="0.0" fill="#2e7d32" opacity="0.55"/>
<line x1="361.3" y1="83.1" x2="361.3" y2="137.9" stroke="#2e7d32" stroke-width="1"/>
<rect x="359.6" y="136.8" width="3.4" height="1.1" fill="#2e7d32"/>
<rect x="359.6" y="532.0" width="3.4" height="0.0" fill="#2e7d32" opacity="0.55"/>
<line x1="366.7" y1="83.1" x2="366.7" y2="137.9" stroke="#2e7d32" stroke-width="1"/>
<rect x="365.0" y="88.6" width="3.4" height="49.3" fill="#2e7d32"/>
<rect x="365.0" y="532.0" width="3.4" height="0.0" fill="#2e7d32" opacity="0.55"/>
<line x1="372.2" y1="84.2" x2="372.2" y2="136.8" stroke="#2e7d32" stroke-width="1"/>
<rect x="370.5" y="93.2" width="3.4" height="43.5" fill="#2e7d32"/>
<rect x="370.5" y="532.0" width="3.4" height="0.0" fill="#2e7d32" opacity="0.55"/>
<line x1="377.6" y1="130.7" x2="377.6" y2="165.2" stroke="#c62828" stroke-width="1"/>
<rect x="375.9" y="130.7" width="3.4" height="34.5" fill="#c62828"/>
<rect x="375.9" y="532.0" width="3.4" height="0.0" fill="#c62828" opacity="0.55"/>
<line x1="383.1" y1="89.7" x2="383.1" y2="165.2" stroke="#c62828" stroke-width="1"/>
<rect x="381.4" y="158.7" width="3.4" height="6.6" fill="#c62828"/>
<rect x="381.4" y="532.0" width="3.4" height="0.0" fill="#c62828" opacity="0.55"/>
<line x1="388.5" y1="138.4" x2="388.5" y2="247.4" stroke="#2e7d32" stroke-width="1"/>
<rect x="386.9" y="165.2" width="3.4" height="54.8" fill="#2e7d32"/>
<rect x="386.9" y="532.0" width="3.4" height="0.0" fill="#2e7d32" opacity="0.55"/>
<line x1="394.0" y1="139.5" x2="394.0" y2="219.5" stroke="#c62828" stroke-width="1"/>
<rect x="392.3" y="165.2" width="3.4" height="41.1" fill="#c62828"/>
<rect x="392.3" y="412.0" width="3.4" height="120.0" fill="#c62828" opacity="0.55"/>
<line x1="399.5" y1="195.1" x2="399.5" y2="247.4" stroke="#c62828" stroke-width="1"/>
<rect x="397.8" y="206.3" width="3.4" height="15.6" fill="#c62828"/>
<rect x="397.8" y="520.5" width="3.4" height="11.5" fill="#c62828" opacity="0.55"/>
<line x1="404.9" y1="233.7" x2="404.9" y2="274.8" stroke="#c62828" stroke-width="1"/>
<rect x="403.2" y="233.7" width="3.4" height="16.2" fill="#c62828"/>
<rect x="403.2" y="507.7" width="3.4" height="24.3" fill="#c62828" opacity="0.55"/>
<line x1="410.4" y1="220.0" x2="410.4" y2="274.8" stroke="#2e7d32" stroke-width="1"/>
<rect x="408.7" y="220.0" width="3.4" height="27.4" fill="#2e7d32"/>
<rect x="408.7" y="521.8" width="3.4" height="10.2" fill="#2e7d32" opacity="0.55"/>
<line x1="415.8" y1="220.0" x2="415.8" y2="247.4" stroke="#2e7d32" stroke-width="1"/>
<rect x="414.1" y="233.7" width="3.4" height="1.0" fill="#2e7d32"/>
<rect x="414.1" y="528.5" width="3.4" height="3.5" fill="#2e7d32" opacity="0.55"/>
<line x1="421.3" y1="220.0" x2="421.3" y2="274.8" stroke="#c62828" stroke-width="1"/>
<rect x="419.6" y="244.4" width="3.4" height="30.4" fill="#c62828"/>
<rect x="419.6" y="503.6" width="3.4" height="28.4" fill="#c62828" opacity="0.55"/>
<line x1="426.7" y1="250.4" x2="426.7" y2="329.5" stroke="#c62828" stroke-width="1"/>
<rect x="425.0" y="261.1" width="3.4" height="27.4" fill="#c62828"/>
<rect x="425.0" y="503.8" width="3.4" height="28.2" fill="#c62828" opacity="0.55"/>
<line x1="432.2" y1="247.4" x2="432.2" y2="301.9" stroke="#2e7d32" stroke-width="1"/>
<rect x="430.5" y="261.1" width="3.4" height="27.4" fill="#2e7d32"/>
<rect x="430.5" y="520.3" width="3.4" height="11.7" fill="#2e7d32" opacity="0.55"/>
<line x1="437.6" y1="247.4" x2="437.6" y2="274.5" stroke="#2e7d32" stroke-width="1"/>
<rect x="435.9" y="248.2" width="3.4" height="12.9" fill="#2e7d32"/>
<rect x="435.9" y="529.6" width="3.4" height="2.4" fill="#2e7d32" opacity="0.55"/>
<line x1="443.1" y1="247.4" x2="443.1" y2="274.2" stroke="#c62828" stroke-width="1"/>
<rect x="441.4" y="261.1" width="3.4" height="13.1" fill="#c62828"/>
<rect x="441.4" y="528.0" width="3.4" height="4.0" fill="#c62828" opacity="0.55"/>
<line x1="448.5" y1="220.0" x2="448.5" y2="274.8" stroke="#2e7d32" stroke-width="1"/>
<rect x="446.9" y="220.0" width="3.4" height="41.1" fill="#2e7d32"/>
<rect x="446.9" y="525.7" width="3.4" height="6.3" fill="#2e7d32" opacity="0.55"/>
<line x1="454.0" y1="220.0" x2="454.0" y2="247.4" stroke="#c62828" stroke-width="1"/>
<rect x="452.3" y="233.7" width="3.4" height="13.7" fill="#c62828"/>
<rect x="452.3" y="529.5" width="3.4" height="2.5" fill="#c62828" opacity="0.55"/>
<line x1="459.5" y1="222.7" x2="459.5" y2="247.4" stroke="#2e7d32" stroke-width="1"/>
<rect x="457.8" y="233.7" width="3.4" height="1.0" fill="#2e7d32"/>
<rect x="457.8" y="528.3" width="3.4" height="3.7" fill="#2e7d32" opacity="0.55"/>
<line x1="464.9" y1="233.7" x2="464.9" y2="247.4" stroke="#2e7d32" stroke-width="1"/>
<rect x="463.2" y="233.7" width="3.4" height="13.4" fill="#2e7d32"/>
<rect x="463.2" y="530.3" width="3.4" height="1.7" fill="#2e7d32" opacity="0.55"/>
<line x1="470.4" y1="220.0" x2="470.4" y2="247.4" stroke="#2e7d32" stroke-width="1"/>
<rect x="468.7" y="233.7" width="3.4" height="13.7" fill="#2e7d32"/>
<rect x="468.7" y="527.1" width="3.4" height="4.9" fill="#2e7d32" opacity="0.55"/>
<line x1="475.8" y1="220.3" x2="475.8" y2="247.4" stroke="#2e7d32" stroke-width="1"/>
<rect x="474.1" y="233.7" width="3.4" height="1.0" fill="#2e7d32"/>
<rect x="474.1" y="530.5" width="3.4" height="1.5" fill="#2e7d32" opacity="0.55"/>
<line x1="481.3" y1="223.3" x2="481.3" y2="247.4" stroke="#c62828" stroke-width="1"/>
<rect x="479.6" y="223.3" width="3.4" height="10.4" fill="#c62828"/>
<rect x="479.6" y="530.7" width="3.4" height="1.3" fill="#c62828" opacity="0.55"/>
<line x1="486.7" y1="233.7" x2="486.7" y2="247.4" stroke="#2e7d32" stroke-width="1"/>
<rect x="485.0" y="247.1" width="3.4" height="1.0" fill="#2e7d32"/>
<rect x="485.0" y="530.8" width="3.4" height="1.2" fill="#2e7d32" opacity="0.55"/>
<line x1="492.2" y1="223.3" x2="492.2" y2="247.4" stroke="#2e7d32" stroke-width="1"/>
<rect x="490.5" y="233.7" width="3.4" height="11.0" fill="#2e7d32"/>
<rect x="490.5" y="527.9" width="3.4" height="4.1" fill="#2e7d32" opacity="0.55"/>
<line x1="497.6" y1="220.0" x2="497.6" y2="233.7" stroke="#2e7d32" stroke-width="1"/>
<rect x="495.9" y="233.7" width="3.4" height="1.0" fill="#2e7d32"/>
<rect x="495.9" y="531.6" width="3.4" height="0.4" fill="#2e7d32" opacity="0.55"/>
<line x1="503.1" y1="192.6" x2="503.1" y2="233.7" stroke="#2e7d32" stroke-width="1"/>
<rect x="501.4" y="192.6" width="3.4" height="41.1" fill="#2e7d32"/>
<rect x="501.4" y="527.7" width="3.4" height="4.3" fill="#2e7d32" opacity="0.55"/>
<line x1="508.5" y1="165.2" x2="508.5" y2="206.3" stroke="#2e7d32" stroke-width="1"/>
<rect x="506.9" y="192.6" width="3.4" height="13.7" fill="#2e7d32"/>
<rect x="506.9" y="521.0" width="3.4" height="11.0" fill="#2e7d32" opacity="0.55"/>
<line x1="514.0" y1="170.7" x2="514.0" y2="178.9" stroke="#2e7d32" stroke-width="1"/>
<rect x="512.3" y="178.9" width="3.4" height="1.0" fill="#2e7d32"/>
<rect x="512.3" y="530.8" width="3.4" height="1.2" fill="#2e7d32" opacity="0.55"/>
<line x1="519.5" y1="178.9" x2="519.5" y2="220.0" stroke="#c62828" stroke-width="1"/>
<rect x="517.8" y="178.9" width="3.4" height="27.4" fill="#c62828"/>
<rect x="517.8" y="528.3" width="3.4" height="3.7" fill="#c62828" opacity="0.55"/>
<line x1="524.9" y1="206.3" x2="524.9" y2="220.0" stroke="#2e7d32" stroke-width="1"/>
<rect x="523.2" y="206.3" width="3.4" height="1.0" fill="#2e7d32"/>
<rect x="523.2" y="531.2" width="3.4" height="0.8" fill="#2e7d32" opacity="0.55"/>
<line x1="530.4" y1="198.1" x2="530.4" y2="219.7" stroke="#2e7d32" stroke-width="1"/>
<rect x="528.7" y="198.1" width="3.4" height="8.2" fill="#2e7d32"/>
<rect x="528.7" y="531.6" width="3.4" height="0.4" fill="#2e7d32" opacity="0.55"/>
<line x1="535.8" y1="206.3" x2="535.8" y2="233.7" stroke="#c62828" stroke-width="1"/>
<rect x="534.1" y="206.3" width="3.4" height="22.5" fill="#c62828"/>
<rect x="534.1" y="527.5" width="3.4" height="4.5" fill="#c62828" opacity="0.55"/>
<line x1="541.3" y1="220.0" x2="541.3" y2="247.4" stroke="#2e7d32" stroke-width="1"/>
<rect x="539.6" y="233.7" width="3.4" height="1.0" fill="#2e7d32"/>
<rect x="539.6" y="529.8" width="3.4" height="2.2" fill="#2e7d32" opacity="0.55"/>
<line x1="546.7" y1="220.0" x2="546.7" y2="247.1" stroke="#c62828" stroke-width="1"/>
<rect x="545.0" y="223.3" width="3.4" height="10.4" fill="#c62828"/>
<rect x="545.0" y="531.0" width="3.4" height="1.0" fill="#c62828" opacity="0.55"/>
<line x1="552.2" y1="206.3" x2="552.2" y2="247.4" stroke="#2e7d32" stroke-width="1"/>
<rect x="550.5" y="206.3" width="3.4" height="27.4" fill="#2e7d32"/>
<rect x="550.5" y="528.5" width="3.4" height="3.5" fill="#2e7d32" opacity="0.55"/>
<line x1="557.6" y1="206.3" x2="557.6" y2="220.0" stroke="#2e7d32" stroke-width="1"/>
<rect x="555.9" y="219.7" width="3.4" height="1.0" fill="#2e7d32"/>
<rect x="555.9" y="525.0" width="3.4" height="7.0" fill="#2e7d32" opacity="0.55"/>
<line x1="563.1" y1="206.3" x2="563.1" y2="220.0" stroke="#c62828" stroke-width="1"/>
<rect x="561.4" y="206.3" width="3.4" height="13.7" fill="#c62828"/>
<rect x="561.4" y="530.4" width="3.4" height="1.6" fill="#c62828" opacity="0.55"/>
<line x1="568.5" y1="192.6" x2="568.5" y2="206.3" stroke="#2e7d32" stroke-width="1"/>
<rect x="566.9" y="192.6" width="3.4" height="13.7" fill="#2e7d32"/>
<rect x="566.9" y="526.2" width="3.4" height="5.8" fill="#2e7d32" opacity="0.55"/>
<line x1="574.0" y1="192.6" x2="574.0" y2="206.3" stroke="#2e7d32" stroke-width="1"/>
<rect x="572.3" y="192.6" width="3.4" height="13.7" fill="#2e7d32"/>
<rect x="572.3" y="525.4" width="3.4" height="6.6" fill="#2e7d32" opacity="0.55"/>
<line x1="579.5" y1="192.6" x2="579.5" y2="220.0" stroke="#c62828" stroke-width="1"/>
<rect x="577.8" y="192.6" width="3.4" height="13.7" fill="#c62828"/>
<rect x="577.8" y="529.5" width="3.4" height="2.5" fill="#c62828" opacity="0.55"/>
<line x1="584.9" y1="192.6" x2="584.9" y2="206.3" stroke="#2e7d32" stroke-width="1"/>
<rect x="583.2" y="192.6" width="3.4" height="13.7" fill="#2e7d32"/>
<rect x="583.2" y="528.1" width="3.4" height="3.9" fill="#2e7d32" opacity="0.55"/>
<line x1="590.4" y1="192.6" x2="590.4" y2="219.7" stroke="#2e7d32" stroke-width="1"/>
<rect x="588.7" y="192.9" width="3.4" height="26.8" fill="#2e7d32"/>
<rect x="588.7" y="530.6" width="3.4" height="1.4" fill="#2e7d32" opacity="0.55"/>
<line x1="595.8" y1="192.6" x2="595.8" y2="217.0" stroke="#2e7d32" stroke-width="1"/>
<rect x="594.1" y="192.6" width="3.4" height="24.4" fill="#2e7d32"/>
<rect x="594.1" y="531.2" width="3.4" height="0.8" fill="#2e7d32" opacity="0.55"/>
<line x1="601.3" y1="192.6" x2="601.3" y2="220.0" stroke="#c62828" stroke-width="1"/>
<rect x="599.6" y="192.6" width="3.4" height="13.7" fill="#c62828"/>
<rect x="599.6" y="530.8" width="3.4" height="1.2" fill="#c62828" opacity="0.55"/>
<line x1="606.7" y1="192.6" x2="606.7" y2="206.3" stroke="#c62828" stroke-width="1"/>
<rect x="605.0" y="192.6" width="3.4" height="13.7" fill="#c62828"/>
<rect x="605.0" y="531.3" width="3.4" height="0.7" fill="#c62828" opacity="0.55"/>
<line x1="612.2" y1="165.2" x2="612.2" y2="206.3" stroke="#2e7d32" stroke-width="1"/>
<rect x="610.5" y="178.9" width="3.4" height="27.4" fill="#2e7d32"/>
<rect x="610.5" y="525.3" width="3.4" height="6.7" fill="#2e7d32" opacity="0.55"/>
<line x1="617.6" y1="165.2" x2="617.6" y2="192.6" stroke="#2e7d32" stroke-width="1"/>
<rect x="615.9" y="165.2" width="3.4" height="13.7" fill="#2e7d32"/>
<rect x="615.9" y="531.3" width="3.4" height="0.7" fill="#2e7d32" opacity="0.55"/>
<line x1="623.1" y1="167.7" x2="623.1" y2="192.6" stroke="#c62828" stroke-width="1"/>
<rect x="621.4" y="178.9" width="3.4" height="13.7" fill="#c62828"/>
<rect x="621.4" y="531.6" width="3.4" height="0.4" fill="#c62828" opacity="0.55"/>
<line x1="628.5" y1="165.2" x2="628.5" y2="192.6" stroke="#c62828" stroke-width="1"/>
<rect x="626.9" y="178.9" width="3.4" height="13.7" fill="#c62828"/>
<rect x="626.9" y="531.6" width="3.4" height="0.4" fill="#c62828" opacity="0.55"/>
<line x1="634.0" y1="165.2" x2="634.0" y2="192.6" stroke="#c62828" stroke-width="1"/>
<rect x="632.3" y="178.9" width="3.4" height="13.7" fill="#c62828"/>
<rect x="632.3" y="531.1" width="3.4" height="0.9" fill="#c62828" opacity="0.55"/>
<line x1="639.5" y1="137.9" x2="639.5" y2="189.1" stroke="#2e7d32" stroke-width="1"/>
<rect x="637.8" y="165.2" width="3.4" height="1.0" fill="#2e7d32"/>
<rect x="637.8" y="525.2" width="3.4" height="6.8" fill="#2e7d32" opacity="0.55"/>
<line x1="644.9" y1="137.9" x2="644.9" y2="165.2" stroke="#c62828" stroke-width="1"/>
<rect x="643.2" y="142.8" width="3.4" height="22.5" fill="#c62828"/>
<rect x="643.2" y="529.9" width="3.4" height="2.1" fill="#c62828" opacity="0.55"/>
<line x1="650.4" y1="137.9" x2="650.4" y2="165.2" stroke="#c62828" stroke-width="1"/>
<rect x="648.7" y="151.5" width="3.4" height="13.7" fill="#c62828"/>
<rect x="648.7" y="529.6" width="3.4" height="2.4" fill="#c62828" opacity="0.55"/>
<line x1="655.8" y1="137.9" x2="655.8" y2="165.2" stroke="#2e7d32" stroke-width="1"/>
<rect x="654.1" y="165.2" width="3.4" height="1.0" fill="#2e7d32"/>
<rect x="654.1" y="529.0" width="3.4" height="3.0" fill="#2e7d32" opacity="0.55"/>
<line x1="661.3" y1="137.9" x2="661.3" y2="165.2" stroke="#2e7d32" stroke-width="1"/>
<rect x="659.6" y="151.5" width="3.4" height="13.7" fill="#2e7d32"/>
<rect x="659.6" y="520.7" width="3.4" height="11.3" fill="#2e7d32" opacity="0.55"/>
<line x1="666.7" y1="151.5" x2="666.7" y2="192.6" stroke="#c62828" stroke-width="1"/>
<rect x="665.0" y="165.0" width="3.4" height="14.0" fill="#c62828"/>
<rect x="665.0" y="524.2" width="3.4" height="7.8" fill="#c62828" opacity="0.55"/>
<line x1="672.2" y1="178.9" x2="672.2" y2="192.6" stroke="#c62828" stroke-width="1"/>
<rect x="670.5" y="178.9" width="3.4" height="13.7" fill="#c62828"/>
<rect x="670.5" y="530.2" width="3.4" height="1.8" fill="#c62828" opacity="0.55"/>
<line x1="677.6" y1="165.2" x2="677.6" y2="178.9" stroke="#2e7d32" stroke-width="1"/>
<rect x="675.9" y="165.2" width="3.4" height="13.7" fill="#2e7d32"/>
<rect x="675.9" y="529.1" width="3.4" height="2.9" fill="#2e7d32" opacity="0.55"/>
<line x1="683.1" y1="165.2" x2="683.1" y2="178.9" stroke="#2e7d32" stroke-width="1"/>
<rect x="681.4" y="165.2" width="3.4" height="13.7" fill="#2e7d32"/>
<rect x="681.4" y="530.8" width="3.4" height="1.2" fill="#2e7d32" opacity="0.55"/>
<line x1="688.5" y1="165.2" x2="688.5" y2="192.6" stroke="#c62828" stroke-width="1"/>
<rect x="686.9" y="178.9" width="3.4" height="13.7" fill="#c62828"/>
<rect x="686.9" y="529.4" width="3.4" height="2.6" fill="#c62828" opacity="0.55"/>
<line x1="694.0" y1="165.2" x2="694.0" y2="192.6" stroke="#2e7d32" stroke-width="1"/>
<rect x="692.3" y="165.2" width="3.4" height="27.4" fill="#2e7d32"/>
<rect x="692.3" y="530.8" width="3.4" height="1.2" fill="#2e7d32" opacity="0.55"/>
<line x1="699.5" y1="165.2" x2="699.5" y2="192.6" stroke="#2e7d32" stroke-width="1"/>
<rect x="697.8" y="192.6" width="3.4" height="1.0" fill="#2e7d32"/>
<rect x="697.8" y="531.7" width="3.4" height="0.3" fill="#2e7d32" opacity="0.55"/>
<line x1="704.9" y1="151.5" x2="704.9" y2="178.9" stroke="#2e7d32" stroke-width="1"/>
<rect x="703.2" y="165.2" width="3.4" height="13.7" fill="#2e7d32"/>
<rect x="703.2" y="522.9" width="3.4" height="9.1" fill="#2e7d32" opacity="0.55"/>
<line x1="710.4" y1="119.8" x2="710.4" y2="165.2" stroke="#2e7d32" stroke-width="1"/>
<rect x="708.7" y="124.2" width="3.4" height="41.1" fill="#2e7d32"/>
<rect x="708.7" y="526.9" width="3.4" height="5.1" fill="#2e7d32" opacity="0.55"/>
<line x1="715.8" y1="96.8" x2="715.8" y2="124.2" stroke="#2e7d32" stroke-width="1"/>
<rect x="714.1" y="96.8" width="3.4" height="27.4" fill="#2e7d32"/>
<rect x="714.1" y="528.8" width="3.4" height="3.2" fill="#2e7d32" opacity="0.55"/>
<line x1="721.3" y1="83.1" x2="721.3" y2="110.5" stroke="#c62828" stroke-width="1"/>
<rect x="719.6" y="83.1" width="3.4" height="27.4" fill="#c62828"/>
<rect x="719.6" y="526.9" width="3.4" height="5.1" fill="#c62828" opacity="0.55"/>
<line x1="726.7" y1="83.1" x2="726.7" y2="124.2" stroke="#c62828" stroke-width="1"/>
<rect x="725.0" y="96.8" width="3.4" height="13.7" fill="#c62828"/>
<rect x="725.0" y="503.5" width="3.4" height="28.5" fill="#c62828" opacity="0.55"/>
<line x1="732.2" y1="96.8" x2="732.2" y2="137.6" stroke="#c62828" stroke-width="1"/>
<rect x="730.5" y="110.5" width="3.4" height="13.7" fill="#c62828"/>
<rect x="730.5" y="522.8" width="3.4" height="9.2" fill="#c62828" opacity="0.55"/>
<line x1="737.6" y1="110.5" x2="737.6" y2="137.9" stroke="#2e7d32" stroke-width="1"/>
<rect x="735.9" y="124.2" width="3.4" height="1.0" fill="#2e7d32"/>
<rect x="735.9" y="519.1" width="3.4" height="12.9" fill="#2e7d32" opacity="0.55"/>
<line x1="743.1" y1="110.5" x2="743.1" y2="137.9" stroke="#2e7d32" stroke-width="1"/>
<rect x="741.4" y="137.9" width="3.4" height="1.0" fill="#2e7d32"/>
<rect x="741.4" y="528.5" width="3.4" height="3.5" fill="#2e7d32" opacity="0.55"/>
<line x1="748.5" y1="137.9" x2="748.5" y2="137.9" stroke="#2e7d32" stroke-width="1"/>
<rect x="746.9" y="137.9" width="3.4" height="1.0" fill="#2e7d32"/>
<rect x="746.9" y="531.6" width="3.4" height="0.4" fill="#2e7d32" opacity="0.55"/>
<line x1="754.0" y1="124.2" x2="754.0" y2="137.9" stroke="#2e7d32" stroke-width="1"/>
<rect x="752.3" y="132.4" width="3.4" height="5.5" fill="#2e7d32"/>
<rect x="752.3" y="529.2" width="3.4" height="2.8" fill="#2e7d32" opacity="0.55"/>
<line x1="759.5" y1="110.5" x2="759.5" y2="137.9" stroke="#2e7d32" stroke-width="1"/>
<rect x="757.8" y="137.9" width="3.4" height="1.0" fill="#2e7d32"/>
<rect x="757.8" y="510.3" width="3.4" height="21.7" fill="#2e7d32" opacity="0.55"/>
<line x1="764.9" y1="114.3" x2="764.9" y2="137.9" stroke="#2e7d32" stroke-width="1"/>
<rect x="763.2" y="124.2" width="3.4" height="1.0" fill="#2e7d32"/>
<rect x="763.2" y="525.6" width="3.4" height="6.4" fill="#2e7d32" opacity="0.55"/>
<line x1="770.4" y1="124.2" x2="770.4" y2="137.9" stroke="#2e7d32" stroke-width="1"/>
<rect x="768.7" y="137.6" width="3.4" height="1.0" fill="#2e7d32"/>
<rect x="768.7" y="526.4" width="3.4" height="5.6" fill="#2e7d32" opacity="0.55"/>
<line x1="775.8" y1="134.3" x2="775.8" y2="165.2" stroke="#c62828" stroke-width="1"/>
<rect x="774.1" y="137.9" width="3.4" height="13.7" fill="#c62828"/>
<rect x="774.1" y="529.8" width="3.4" height="2.2" fill="#c62828" opacity="0.55"/>
<line x1="781.3" y1="137.9" x2="781.3" y2="165.2" stroke="#2e7d32" stroke-width="1"/>
<rect x="779.6" y="151.5" width="3.4" height="1.0" fill="#2e7d32"/>
<rect x="779.6" y="530.4" width="3.4" height="1.6" fill="#2e7d32" opacity="0.55"/>
<line x1="786.7" y1="137.9" x2="786.7" y2="165.2" stroke="#c62828" stroke-width="1"/>
<rect x="785.0" y="151.5" width="3.4" height="13.7" fill="#c62828"/>
<rect x="785.0" y="511.0" width="3.4" height="21.0" fill="#c62828" opacity="0.55"/>
<line x1="792.2" y1="151.5" x2="792.2" y2="165.2" stroke="#2e7d32" stroke-width="1"/>
<rect x="790.5" y="165.2" width="3.4" height="1.0" fill="#2e7d32"/>
<rect x="790.5" y="526.3" width="3.4" height="5.7" fill="#2e7d32" opacity="0.55"/>
<line x1="797.6" y1="162.5" x2="797.6" y2="165.2" stroke="#2e7d32" stroke-width="1"/>
<rect x="795.9" y="162.5" width="3.4" height="2.7" fill="#2e7d32"/>
<rect x="795.9" y="530.1" width="3.4" height="1.9" fill="#2e7d32" opacity="0.55"/>
<line x1="803.1" y1="137.9" x2="803.1" y2="165.2" stroke="#2e7d32" stroke-width="1"/>
<rect x="801.4" y="137.9" width="3.4" height="27.4" fill="#2e7d32"/>
<rect x="801.4" y="528.8" width="3.4" height="3.2" fill="#2e7d32" opacity="0.55"/>
<line x1="808.5" y1="110.5" x2="808.5" y2="165.2" stroke="#2e7d32" stroke-width="1"/>
<rect x="806.9" y="110.5" width="3.4" height="41.1" fill="#2e7d32"/>
<rect x="806.9" y="522.1" width="3.4" height="9.9" fill="#2e7d32" opacity="0.55"/>
<line x1="814.0" y1="69.4" x2="814.0" y2="110.5" stroke="#2e7d32" stroke-width="1"/>
<rect x="812.3" y="83.1" width="3.4" height="27.4" fill="#2e7d32"/>
<rect x="812.3" y="506.8" width="3.4" height="25.2" fill="#2e7d32" opacity="0.55"/>
<line x1="819.5" y1="83.1" x2="819.5" y2="110.5" stroke="#2e7d32" stroke-width="1"/>
<rect x="817.8" y="83.1" width="3.4" height="1.0" fill="#2e7d32"/>
<rect x="817.8" y="532.0" width="3.4" height="0.0" fill="#2e7d32" opacity="0.55"/>
<line x1="824.9" y1="83.1" x2="824.9" y2="192.6" stroke="#c62828" stroke-width="1"/>
<rect x="823.2" y="83.1" width="3.4" height="100.8" fill="#c62828"/>
<rect x="823.2" y="532.0" width="3.4" height="0.0" fill="#c62828" opacity="0.55"/>
<line x1="830.4" y1="183.0" x2="830.4" y2="192.6" stroke="#c62828" stroke-width="1"/>
<rect x="828.7" y="183.0" width="3.4" height="9.6" fill="#c62828"/>
<rect x="828.7" y="532.0" width="3.4" height="0.0" fill="#c62828" opacity="0.55"/>
<line x1="835.8" y1="110.5" x2="835.8" y2="110.5" stroke="#2e7d32" stroke-width="1"/>
<rect x="834.1" y="110.5" width="3.4" height="1.0" fill="#2e7d32"/>
<rect x="834.1" y="532.0" width="3.4" height="0.0" fill="#2e7d32" opacity="0.55"/>
<line x1="841.3" y1="110.5" x2="841.3" y2="192.6" stroke="#2e7d32" stroke-width="1"/>
<rect x="839.6" y="110.5" width="3.4" height="82.1" fill="#2e7d32"/>
<rect x="839.6" y="532.0" width="3.4" height="0.0" fill="#2e7d32" opacity="0.55"/>
<line x1="846.7" y1="185.5" x2="846.7" y2="185.5" stroke="#2e7d32" stroke-width="1"/>
<rect x="845.0" y="185.5" width="3.4" height="1.0" fill="#2e7d32"/>
<rect x="845.0" y="532.0" width="3.4" height="0.0" fill="#2e7d32" opacity="0.55"/>
<line x1="852.2" y1="192.6" x2="852.2" y2="192.6" stroke="#2e7d32" stroke-width="1"/>
<rect x="850.5" y="192.6" width="3.4" height="1.0" fill="#2e7d32"/>
<rect x="850.5" y="532.0" width="3.4" height="0.0" fill="#2e7d32" opacity="0.55"/>
<line x1="857.6" y1="192.6" x2="857.6" y2="192.6" stroke="#2e7d32" stroke-width="1"/>
<rect x="855.9" y="192.6" width="3.4" height="1.0" fill="#2e7d32"/>
<rect x="855.9" y="532.0" width="3.4" height="0.0" fill="#2e7d32" opacity="0.55"/>
<line x1="863.1" y1="189.9" x2="863.1" y2="192.6" stroke="#c62828" stroke-width="1"/>
<rect x="861.4" y="189.9" width="3.4" height="2.7" fill="#c62828"/>
<rect x="861.4" y="532.0" width="3.4" height="0.0" fill="#c62828" opacity="0.55"/>
<line x1="868.5" y1="190.7" x2="868.5" y2="192.6" stroke="#2e7d32" stroke-width="1"/>
<rect x="866.9" y="192.6" width="3.4" height="1.0" fill="#2e7d32"/>
<rect x="866.9" y="532.0" width="3.4" height="0.0" fill="#2e7d32" opacity="0.55"/>
<line x1="874.0" y1="192.6" x2="874.0" y2="192.6" stroke="#2e7d32" stroke-width="1"/>
<rect x="872.3" y="192.6" width="3.4" height="1.0" fill="#2e7d32"/>
<rect x="872.3" y="532.0" width="3.4" height="0.0" fill="#2e7d32" opacity="0.55"/>
<line x1="879.5" y1="192.6" x2="879.5" y2="192.6" stroke="#2e7d32" stroke-width="1"/>
<rect x="877.8" y="192.6" width="3.4" height="1.0" fill="#2e7d32"/>
<rect x="877.8" y="532.0" width="3.4" height="0.0" fill="#2e7d32" opacity="0.55"/>
<line x1="884.9" y1="191.5" x2="884.9" y2="191.5" stroke="#2e7d32" stroke-width="1"/>
<rect x="883.2" y="191.5" width="3.4" height="1.0" fill="#2e7d32"/>
<rect x="883.2" y="532.0" width="3.4" height="0.0" fill="#2e7d32" opacity="0.55"/>
<line x1="890.4" y1="183.0" x2="890.4" y2="183.0" stroke="#2e7d32" stroke-width="1"/>
<rect x="888.7" y="183.0" width="3.4" height="1.0" fill="#2e7d32"/>
<rect x="888.7" y="532.0" width="3.4" height="0.0" fill="#2e7d32" opacity="0.55"/>
<line x1="895.8" y1="83.1" x2="895.8" y2="110.5" stroke="#2e7d32" stroke-width="1"/>
<rect x="894.1" y="83.1" width="3.4" height="27.4" fill="#2e7d32"/>
<rect x="894.1" y="532.0" width="3.4" height="0.0" fill="#2e7d32" opacity="0.55"/>
<line x1="901.3" y1="83.1" x2="901.3" y2="137.9" stroke="#c62828" stroke-width="1"/>
<rect x="899.6" y="83.1" width="3.4" height="54.8" fill="#c62828"/>
<rect x="899.6" y="532.0" width="3.4" height="0.0" fill="#c62828" opacity="0.55"/>
<line x1="906.7" y1="110.5" x2="906.7" y2="192.6" stroke="#2e7d32" stroke-width="1"/>
<rect x="905.0" y="110.5" width="3.4" height="82.1" fill="#2e7d32"/>
<rect x="905.0" y="532.0" width="3.4" height="0.0" fill="#2e7d32" opacity="0.55"/>
<line x1="912.2" y1="83.1" x2="912.2" y2="83.1" stroke="#2e7d32" stroke-width="1"/>
<rect x="910.5" y="83.1" width="3.4" height="1.0" fill="#2e7d32"/>
<rect x="910.5" y="532.0" width="3.4" height="0.0" fill="#2e7d32" opacity="0.55"/>
<line x1="917.6" y1="110.5" x2="917.6" y2="110.5" stroke="#2e7d32" stroke-width="1"/>
<rect x="915.9" y="110.5" width="3.4" height="1.0" fill="#2e7d32"/>
<rect x="915.9" y="532.0" width="3.4" height="0.0" fill="#2e7d32" opacity="0.55"/>
<line x1="923.1" y1="137.9" x2="923.1" y2="192.6" stroke="#c62828" stroke-width="1"/>
<rect x="921.4" y="165.2" width="3.4" height="27.4" fill="#c62828"/>
<rect x="921.4" y="532.0" width="3.4" height="0.0" fill="#c62828" opacity="0.55"/>
<line x1="928.5" y1="165.2" x2="928.5" y2="192.6" stroke="#2e7d32" stroke-width="1"/>
<rect x="926.9" y="165.2" width="3.4" height="27.4" fill="#2e7d32"/>
<rect x="926.9" y="532.0" width="3.4" height="0.0" fill="#2e7d32" opacity="0.55"/>
<line x1="934.0" y1="110.5" x2="934.0" y2="192.6" stroke="#2e7d32" stroke-width="1"/>
<rect x="932.3" y="110.5" width="3.4" height="82.1" fill="#2e7d32"/>
<rect x="932.3" y="532.0" width="3.4" height="0.0" fill="#2e7d32" opacity="0.55"/>
<line x1="939.5" y1="86.4" x2="939.5" y2="90.2" stroke="#c62828" stroke-width="1"/>
<rect x="937.8" y="86.4" width="3.4" height="3.8" fill="#c62828"/>
<rect x="937.8" y="532.0" width="3.4" height="0.0" fill="#c62828" opacity="0.55"/>
<line x1="944.9" y1="83.1" x2="944.9" y2="83.1" stroke="#2e7d32" stroke-width="1"/>
<rect x="943.2" y="83.1" width="3.4" height="1.0" fill="#2e7d32"/>
<rect x="943.2" y="532.0" width="3.4" height="0.0" fill="#2e7d32" opacity="0.55"/>
<line x1="950.4" y1="137.9" x2="950.4" y2="137.9" stroke="#2e7d32" stroke-width="1"/>
<rect x="948.7" y="137.9" width="3.4" height="1.0" fill="#2e7d32"/>
<rect x="948.7" y="532.0" width="3.4" height="0.0" fill="#2e7d32" opacity="0.55"/>
<line x1="955.8" y1="137.9" x2="955.8" y2="137.9" stroke="#2e7d32" stroke-width="1"/>
<rect x="954.1" y="137.9" width="3.4" height="1.0" fill="#2e7d32"/>
<rect x="954.1" y="532.0" width="3.4" height="0.0" fill="#2e7d32" opacity="0.55"/>
<line x1="961.3" y1="110.5" x2="961.3" y2="110.5" stroke="#2e7d32" stroke-width="1"/>
<rect x="959.6" y="110.5" width="3.4" height="1.0" fill="#2e7d32"/>
<rect x="959.6" y="532.0" width="3.4" height="0.0" fill="#2e7d32" opacity="0.55"/>
<line x1="966.7" y1="136.5" x2="966.7" y2="136.5" stroke="#2e7d32" stroke-width="1"/>
<rect x="965.0" y="136.5" width="3.4" height="1.0" fill="#2e7d32"/>
<rect x="965.0" y="532.0" width="3.4" height="0.0" fill="#2e7d32" opacity="0.55"/>
<line x1="972.2" y1="110.5" x2="972.2" y2="137.9" stroke="#2e7d32" stroke-width="1"/>
<rect x="970.5" y="110.5" width="3.4" height="27.4" fill="#2e7d32"/>
<rect x="970.5" y="532.0" width="3.4" height="0.0" fill="#2e7d32" opacity="0.55"/>
<line x1="977.6" y1="137.9" x2="977.6" y2="137.9" stroke="#2e7d32" stroke-width="1"/>
<rect x="975.9" y="137.9" width="3.4" height="1.0" fill="#2e7d32"/>
<rect x="975.9" y="532.0" width="3.4" height="0.0" fill="#2e7d32" opacity="0.55"/>
<line x1="983.1" y1="137.6" x2="983.1" y2="137.6" stroke="#2e7d32" stroke-width="1"/>
<rect x="981.4" y="137.6" width="3.4" height="1.0" fill="#2e7d32"/>
<rect x="981.4" y="532.0" width="3.4" height="0.0" fill="#2e7d32" opacity="0.55"/>
<line x1="988.5" y1="83.1" x2="988.5" y2="83.1" stroke="#2e7d32" stroke-width="1"/>
<rect x="986.9" y="83.1" width="3.4" height="1.0" fill="#2e7d32"/>
<rect x="986.9" y="532.0" width="3.4" height="0.0" fill="#2e7d32" opacity="0.55"/>
<line x1="994.0" y1="83.1" x2="994.0" y2="83.1" stroke="#2e7d32" stroke-width="1"/>
<rect x="992.3" y="83.1" width="3.4" height="1.0" fill="#2e7d32"/>
<rect x="992.3" y="532.0" width="3.4" height="0.0" fill="#2e7d32" opacity="0.55"/>
<line x1="999.5" y1="69.4" x2="999.5" y2="274.8" stroke="#c62828" stroke-width="1"/>
<rect x="997.8" y="192.6" width="3.4" height="27.4" fill="#c62828"/>
<rect x="997.8" y="532.0" width="3.4" height="0.0" fill="#c62828" opacity="0.55"/>
<line x1="1004.9" y1="165.2" x2="1004.9" y2="192.6" stroke="#c62828" stroke-width="1"/>
<rect x="1003.2" y="165.2" width="3.4" height="27.4" fill="#c62828"/>
<rect x="1003.2" y="532.0" width="3.4" height="0.0" fill="#c62828" opacity="0.55"/>
<line x1="1010.4" y1="183.9" x2="1010.4" y2="183.9" stroke="#2e7d32" stroke-width="1"/>
<rect x="1008.7" y="183.9" width="3.4" height="1.0" fill="#2e7d32"/>
<rect x="1008.7" y="532.0" width="3.4" height="0.0" fill="#2e7d32" opacity="0.55"/>
<line x1="1015.8" y1="165.2" x2="1015.8" y2="165.2" stroke="#2e7d32" stroke-width="1"/>
<rect x="1014.1" y="165.2" width="3.4" height="1.0" fill="#2e7d32"/>
<rect x="1014.1" y="532.0" width="3.4" height="0.0" fill="#2e7d32" opacity="0.55"/>
<line x1="1021.3" y1="165.2" x2="1021.3" y2="165.2" stroke="#2e7d32" stroke-width="1"/>
<rect x="1019.6" y="165.2" width="3.4" height="1.0" fill="#2e7d32"/>
<rect x="1019.6" y="532.0" width="3.4" height="0.0" fill="#2e7d32" opacity="0.55"/>
<line x1="1026.7" y1="165.2" x2="1026.7" y2="165.2" stroke="#2e7d32" stroke-width="1"/>
<rect x="1025.0" y="165.2" width="3.4" height="1.0" fill="#2e7d32"/>
<rect x="1025.0" y="532.0" width="3.4" height="0.0" fill="#2e7d32" opacity="0.55"/>
<line x1="1032.2" y1="84.2" x2="1032.2" y2="84.2" stroke="#2e7d32" stroke-width="1"/>
<rect x="1030.5" y="84.2" width="3.4" height="1.0" fill="#2e7d32"/>
<rect x="1030.5" y="532.0" width="3.4" height="0.0" fill="#2e7d32" opacity="0.55"/>
<line x1="1037.6" y1="165.2" x2="1037.6" y2="165.2" stroke="#2e7d32" stroke-width="1"/>
<rect x="1035.9" y="165.2" width="3.4" height="1.0" fill="#2e7d32"/>
<rect x="1035.9" y="532.0" width="3.4" height="0.0" fill="#2e7d32" opacity="0.55"/>
<line x1="1043.1" y1="165.2" x2="1043.1" y2="165.2" stroke="#2e7d32" stroke-width="1"/>
<rect x="1041.4" y="165.2" width="3.4" height="1.0" fill="#2e7d32"/>
<rect x="1041.4" y="532.0" width="3.4" height="0.0" fill="#2e7d32" opacity="0.55"/>
<line x1="1048.5" y1="137.9" x2="1048.5" y2="209.0" stroke="#c62828" stroke-width="1"/>
<rect x="1046.9" y="137.9" width="3.4" height="71.2" fill="#c62828"/>
<rect x="1046.9" y="532.0" width="3.4" height="0.0" fill="#c62828" opacity="0.55"/>
<line x1="1054.0" y1="110.5" x2="1054.0" y2="211.2" stroke="#2e7d32" stroke-width="1"/>
<rect x="1052.3" y="209.0" width="3.4" height="2.2" fill="#2e7d32"/>
<rect x="1052.3" y="532.0" width="3.4" height="0.0" fill="#2e7d32" opacity="0.55"/>
<line x1="1059.5" y1="211.2" x2="1059.5" y2="211.2" stroke="#2e7d32" stroke-width="1"/>
<rect x="1057.8" y="211.2" width="3.4" height="1.0" fill="#2e7d32"/>
<rect x="1057.8" y="532.0" width="3.4" height="0.0" fill="#2e7d32" opacity="0.55"/>
<line x1="1064.9" y1="193.7" x2="1064.9" y2="218.9" stroke="#2e7d32" stroke-width="1"/>
<rect x="1063.2" y="193.7" width="3.4" height="25.2" fill="#2e7d32"/>
<rect x="1063.2" y="532.0" width="3.4" height="0.0" fill="#2e7d32" opacity="0.55"/>
<line x1="1070.4" y1="217.0" x2="1070.4" y2="220.0" stroke="#c62828" stroke-width="1"/>
<rect x="1068.7" y="217.0" width="3.4" height="3.0" fill="#c62828"/>
<rect x="1068.7" y="532.0" width="3.4" height="0.0" fill="#c62828" opacity="0.55"/>
<line x1="1075.8" y1="218.9" x2="1075.8" y2="218.9" stroke="#2e7d32" stroke-width="1"/>
<rect x="1074.1" y="218.9" width="3.4" height="1.0" fill="#2e7d32"/>
<rect x="1074.1" y="532.0" width="3.4" height="0.0" fill="#2e7d32" opacity="0.55"/>
<line x1="1081.3" y1="220.0" x2="1081.3" y2="220.0" stroke="#2e7d32" stroke-width="1"/>
<rect x="1079.6" y="220.0" width="3.4" height="1.0" fill="#2e7d32"/>
<rect x="1079.6" y="532.0" width="3.4" height="0.0" fill="#2e7d32" opacity="0.55"/>
<line x1="64" y1="532" x2="1084" y2="532" stroke="#ccc"/>
<text x="58" y="420" font-size="9" fill="#999" text-anchor="end">0.3M</text>
<line x1="66.7" y1="532" x2="66.7" y2="536" stroke="#999"/>
<text x="66.7" y="547.0" font-size="9" fill="#666" text-anchor="middle">07/07 04:00</text>
<line x1="235.8" y1="532" x2="235.8" y2="536" stroke="#999"/>
<text x="235.8" y="547.0" font-size="9" fill="#666" text-anchor="middle">07:00</text>
<line x1="404.9" y1="532" x2="404.9" y2="536" stroke="#999"/>
<text x="404.9" y="547.0" font-size="9" fill="#666" text-anchor="middle">09:40</text>
<line x1="574.0" y1="532" x2="574.0" y2="536" stroke="#999"/>
<text x="574.0" y="547.0" font-size="9" fill="#666" text-anchor="middle">12:15</text>
<line x1="743.1" y1="532" x2="743.1" y2="536" stroke="#999"/>
<text x="743.1" y="547.0" font-size="9" fill="#666" text-anchor="middle">14:50</text>
<line x1="912.2" y1="532" x2="912.2" y2="536" stroke="#999"/>
<text x="912.2" y="547.0" font-size="9" fill="#666" text-anchor="middle">18:10</text>
<line x1="1081.3" y1="532" x2="1081.3" y2="536" stroke="#999"/>
<text x="1081.3" y="547.0" font-size="9" fill="#666" text-anchor="middle">07/08 05:26</text>
<text x="64" y="22" font-size="15" font-weight="bold" fill="#1a1a1a">SEER - Seer, Inc.</text>
<text x="1084" y="22" font-size="11" fill="#666" text-anchor="end">last $2.17 (-2.6% over window)</text>
<rect x="934" y="28" width="10" height="8" fill="#e8f0fe"/>
<text x="948" y="35" font-size="9" fill="#666">premarket</text>
<rect x="1006" y="28" width="10" height="8" fill="#fff4e0"/>
<text x="1020" y="35" font-size="9" fill="#666">after-hrs</text>
</svg>