<svg xmlns="http://www.w3.org/2000/svg" width="1100" height="560" viewBox="0 0 1100 560" font-family="Arial,Helvetica,sans-serif">
<rect width="1100" height="560" fill="white"/>
<rect x="64.0" y="36" width="36.9" height="496.0" fill="#e8f0fe"/>
<rect x="285.2" y="36" width="565.3" height="496.0" fill="#fff4e0"/>
<rect x="850.5" y="36" width="233.5" height="496.0" fill="#e8f0fe"/>
<line x1="64" y1="404.0" x2="1084" y2="404.0" stroke="#e6e6e6"/>
<text x="58" y="407.0" font-size="10" fill="#666" text-anchor="end">$4.78</text>
<line x1="64" y1="312.0" x2="1084" y2="312.0" stroke="#e6e6e6"/>
<text x="58" y="315.0" font-size="10" fill="#666" text-anchor="end">$5.79</text>
<line x1="64" y1="220.0" x2="1084" y2="220.0" stroke="#e6e6e6"/>
<text x="58" y="223.0" font-size="10" fill="#666" text-anchor="end">$6.79</text>
<line x1="64" y1="128.0" x2="1084" y2="128.0" stroke="#e6e6e6"/>
<text x="58" y="131.0" font-size="10" fill="#666" text-anchor="end">$7.80</text>
<line x1="64" y1="36.0" x2="1084" y2="36.0" stroke="#e6e6e6"/>
<text x="58" y="39.0" font-size="10" fill="#666" text-anchor="end">$8.81</text>
<line x1="70.1" y1="366.0" x2="70.1" y2="366.0" stroke="#2e7d32" stroke-width="1"/>
<rect x="66.3" y="366.0" width="7.6" height="1.0" fill="#2e7d32"/>
<rect x="66.3" y="532.0" width="7.6" height="0.0" fill="#2e7d32" opacity="0.55"/>
<line x1="82.4" y1="356.8" x2="82.4" y2="374.2" stroke="#2e7d32" stroke-width="1"/>
<rect x="78.6" y="356.8" width="7.6" height="17.4" fill="#2e7d32"/>
<rect x="78.6" y="532.0" width="7.6" height="0.0" fill="#2e7d32" opacity="0.55"/>
<line x1="94.7" y1="374.3" x2="94.7" y2="374.3" stroke="#2e7d32" stroke-width="1"/>
<rect x="90.9" y="374.3" width="7.6" height="1.0" fill="#2e7d32"/>
<rect x="90.9" y="532.0" width="7.6" height="0.0" fill="#2e7d32" opacity="0.55"/>
<line x1="107.0" y1="375.1" x2="107.0" y2="375.1" stroke="#2e7d32" stroke-width="1"/>
<rect x="103.2" y="375.1" width="7.6" height="1.0" fill="#2e7d32"/>
<rect x="103.2" y="497.9" width="7.6" height="34.1" fill="#2e7d32" opacity="0.55"/>
<line x1="119.3" y1="384.3" x2="119.3" y2="384.3" stroke="#2e7d32" stroke-width="1"/>
<rect x="115.5" y="384.3" width="7.6" height="1.0" fill="#2e7d32"/>
<rect x="115.5" y="522.1" width="7.6" height="9.9" fill="#2e7d32" opacity="0.55"/>
<line x1="131.6" y1="383.8" x2="131.6" y2="383.8" stroke="#2e7d32" stroke-width="1"/>
<rect x="127.8" y="383.8" width="7.6" height="1.0" fill="#2e7d32"/>
<rect x="127.8" y="482.7" width="7.6" height="49.3" fill="#2e7d32" opacity="0.55"/>
<line x1="143.9" y1="383.8" x2="143.9" y2="383.8" stroke="#2e7d32" stroke-width="1"/>
<rect x="140.1" y="383.8" width="7.6" height="1.0" fill="#2e7d32"/>
<rect x="140.1" y="485.0" width="7.6" height="47.0" fill="#2e7d32" opacity="0.55"/>
<line x1="156.2" y1="384.3" x2="156.2" y2="384.3" stroke="#2e7d32" stroke-width="1"/>
<rect x="152.4" y="384.3" width="7.6" height="1.0" fill="#2e7d32"/>
<rect x="152.4" y="480.9" width="7.6" height="51.1" fill="#2e7d32" opacity="0.55"/>
<line x1="168.5" y1="354.1" x2="168.5" y2="354.1" stroke="#2e7d32" stroke-width="1"/>
<rect x="164.6" y="354.1" width="7.6" height="1.0" fill="#2e7d32"/>
<rect x="164.6" y="456.5" width="7.6" height="75.5" fill="#2e7d32" opacity="0.55"/>
<line x1="180.7" y1="356.8" x2="180.7" y2="356.8" stroke="#2e7d32" stroke-width="1"/>
<rect x="176.9" y="356.8" width="7.6" height="1.0" fill="#2e7d32"/>
<rect x="176.9" y="513.5" width="7.6" height="18.5" fill="#2e7d32" opacity="0.55"/>
<line x1="193.0" y1="309.2" x2="193.0" y2="309.2" stroke="#2e7d32" stroke-width="1"/>
<rect x="189.2" y="309.2" width="7.6" height="1.0" fill="#2e7d32"/>
<rect x="189.2" y="529.5" width="7.6" height="2.5" fill="#2e7d32" opacity="0.55"/>
<line x1="205.3" y1="298.3" x2="205.3" y2="328.5" stroke="#2e7d32" stroke-width="1"/>
<rect x="201.5" y="305.6" width="7.6" height="13.7" fill="#2e7d32"/>
<rect x="201.5" y="412.0" width="7.6" height="120.0" fill="#2e7d32" opacity="0.55"/>
<line x1="217.6" y1="311.1" x2="217.6" y2="323.7" stroke="#c62828" stroke-width="1"/>
<rect x="213.8" y="311.1" width="7.6" height="2.7" fill="#c62828"/>
<rect x="213.8" y="478.4" width="7.6" height="53.6" fill="#c62828" opacity="0.55"/>
<line x1="229.9" y1="320.2" x2="229.9" y2="329.4" stroke="#c62828" stroke-width="1"/>
<rect x="226.1" y="320.2" width="7.6" height="1.4" fill="#c62828"/>
<rect x="226.1" y="507.3" width="7.6" height="24.7" fill="#c62828" opacity="0.55"/>
<line x1="242.2" y1="320.2" x2="242.2" y2="327.5" stroke="#c62828" stroke-width="1"/>
<rect x="238.4" y="321.6" width="7.6" height="3.7" fill="#c62828"/>
<rect x="238.4" y="465.5" width="7.6" height="66.5" fill="#c62828" opacity="0.55"/>
<line x1="254.5" y1="324.3" x2="254.5" y2="338.5" stroke="#c62828" stroke-width="1"/>
<rect x="250.7" y="324.3" width="7.6" height="5.1" fill="#c62828"/>
<rect x="250.7" y="511.3" width="7.6" height="20.7" fill="#c62828" opacity="0.55"/>
<line x1="266.8" y1="325.7" x2="266.8" y2="334.4" stroke="#2e7d32" stroke-width="1"/>
<rect x="263.0" y="325.7" width="7.6" height="1.0" fill="#2e7d32"/>
<rect x="263.0" y="419.6" width="7.6" height="112.4" fill="#2e7d32" opacity="0.55"/>
<line x1="279.1" y1="301.9" x2="279.1" y2="320.2" stroke="#2e7d32" stroke-width="1"/>
<rect x="275.3" y="303.7" width="7.6" height="16.5" fill="#2e7d32"/>
<rect x="275.3" y="478.6" width="7.6" height="53.4" fill="#2e7d32" opacity="0.55"/>
<line x1="291.3" y1="299.2" x2="291.3" y2="329.4" stroke="#2e7d32" stroke-width="1"/>
<rect x="287.5" y="326.6" width="7.6" height="2.7" fill="#2e7d32"/>
<rect x="287.5" y="532.0" width="7.6" height="0.0" fill="#2e7d32" opacity="0.55"/>
<line x1="303.6" y1="302.8" x2="303.6" y2="328.5" stroke="#2e7d32" stroke-width="1"/>
<rect x="299.8" y="320.2" width="7.6" height="8.2" fill="#2e7d32"/>
<rect x="299.8" y="532.0" width="7.6" height="0.0" fill="#2e7d32" opacity="0.55"/>
<line x1="315.9" y1="318.4" x2="315.9" y2="326.6" stroke="#2e7d32" stroke-width="1"/>
<rect x="312.1" y="318.4" width="7.6" height="8.2" fill="#2e7d32"/>
<rect x="312.1" y="532.0" width="7.6" height="0.0" fill="#2e7d32" opacity="0.55"/>
<line x1="328.2" y1="305.6" x2="328.2" y2="310.2" stroke="#2e7d32" stroke-width="1"/>
<rect x="324.4" y="305.6" width="7.6" height="4.6" fill="#2e7d32"/>
<rect x="324.4" y="532.0" width="7.6" height="0.0" fill="#2e7d32" opacity="0.55"/>
<line x1="340.5" y1="242.4" x2="340.5" y2="302.8" stroke="#2e7d32" stroke-width="1"/>
<rect x="336.7" y="277.4" width="7.6" height="22.3" fill="#2e7d32"/>
<rect x="336.7" y="532.0" width="7.6" height="0.0" fill="#2e7d32" opacity="0.55"/>
<line x1="352.8" y1="279.0" x2="352.8" y2="320.2" stroke="#c62828" stroke-width="1"/>
<rect x="349.0" y="279.7" width="7.6" height="40.5" fill="#c62828"/>
<rect x="349.0" y="532.0" width="7.6" height="0.0" fill="#c62828" opacity="0.55"/>
<line x1="365.1" y1="311.1" x2="365.1" y2="324.8" stroke="#2e7d32" stroke-width="1"/>
<rect x="361.3" y="315.6" width="7.6" height="9.2" fill="#2e7d32"/>
<rect x="361.3" y="532.0" width="7.6" height="0.0" fill="#2e7d32" opacity="0.55"/>
<line x1="377.4" y1="311.1" x2="377.4" y2="322.0" stroke="#2e7d32" stroke-width="1"/>
<rect x="373.6" y="311.1" width="7.6" height="9.2" fill="#2e7d32"/>
<rect x="373.6" y="532.0" width="7.6" height="0.0" fill="#2e7d32" opacity="0.55"/>
<line x1="389.7" y1="292.8" x2="389.7" y2="319.4" stroke="#2e7d32" stroke-width="1"/>
<rect x="385.9" y="293.7" width="7.6" height="17.4" fill="#2e7d32"/>
<rect x="385.9" y="532.0" width="7.6" height="0.0" fill="#2e7d32" opacity="0.55"/>
<line x1="402.0" y1="283.6" x2="402.0" y2="293.7" stroke="#2e7d32" stroke-width="1"/>
<rect x="398.1" y="292.8" width="7.6" height="1.0" fill="#2e7d32"/>
<rect x="398.1" y="532.0" width="7.6" height="0.0" fill="#2e7d32" opacity="0.55"/>
<line x1="414.2" y1="260.7" x2="414.2" y2="288.2" stroke="#2e7d32" stroke-width="1"/>
<rect x="410.4" y="269.9" width="7.6" height="14.6" fill="#2e7d32"/>
<rect x="410.4" y="532.0" width="7.6" height="0.0" fill="#2e7d32" opacity="0.55"/>
<line x1="426.5" y1="242.4" x2="426.5" y2="296.4" stroke="#c62828" stroke-width="1"/>
<rect x="422.7" y="269.9" width="7.6" height="11.9" fill="#c62828"/>
<rect x="422.7" y="532.0" width="7.6" height="0.0" fill="#c62828" opacity="0.55"/>
<line x1="438.8" y1="266.2" x2="438.8" y2="286.4" stroke="#2e7d32" stroke-width="1"/>
<rect x="435.0" y="270.8" width="7.6" height="3.8" fill="#2e7d32"/>
<rect x="435.0" y="532.0" width="7.6" height="0.0" fill="#2e7d32" opacity="0.55"/>
<line x1="451.1" y1="265.3" x2="451.1" y2="281.7" stroke="#2e7d32" stroke-width="1"/>
<rect x="447.3" y="274.5" width="7.6" height="4.6" fill="#2e7d32"/>
<rect x="447.3" y="532.0" width="7.6" height="0.0" fill="#2e7d32" opacity="0.55"/>
<line x1="463.4" y1="252.5" x2="463.4" y2="276.1" stroke="#2e7d32" stroke-width="1"/>
<rect x="459.6" y="258.0" width="7.6" height="18.1" fill="#2e7d32"/>
<rect x="459.6" y="532.0" width="7.6" height="0.0" fill="#2e7d32" opacity="0.55"/>
<line x1="475.7" y1="172.9" x2="475.7" y2="265.3" stroke="#2e7d32" stroke-width="1"/>
<rect x="471.9" y="214.1" width="7.6" height="46.7" fill="#2e7d32"/>
<rect x="471.9" y="532.0" width="7.6" height="0.0" fill="#2e7d32" opacity="0.55"/>
<line x1="488.0" y1="207.6" x2="488.0" y2="272.6" stroke="#c62828" stroke-width="1"/>
<rect x="484.2" y="219.5" width="7.6" height="49.4" fill="#c62828"/>
<rect x="484.2" y="532.0" width="7.6" height="0.0" fill="#c62828" opacity="0.55"/>
<line x1="500.3" y1="247.0" x2="500.3" y2="272.6" stroke="#2e7d32" stroke-width="1"/>
<rect x="496.5" y="259.8" width="7.6" height="12.3" fill="#2e7d32"/>
<rect x="496.5" y="532.0" width="7.6" height="0.0" fill="#2e7d32" opacity="0.55"/>
<line x1="512.6" y1="243.3" x2="512.6" y2="272.6" stroke="#2e7d32" stroke-width="1"/>
<rect x="508.7" y="252.5" width="7.6" height="8.2" fill="#2e7d32"/>
<rect x="508.7" y="532.0" width="7.6" height="0.0" fill="#2e7d32" opacity="0.55"/>
<line x1="524.8" y1="248.8" x2="524.8" y2="265.3" stroke="#c62828" stroke-width="1"/>
<rect x="521.0" y="248.9" width="7.6" height="4.5" fill="#c62828"/>
<rect x="521.0" y="532.0" width="7.6" height="0.0" fill="#c62828" opacity="0.55"/>
<line x1="537.1" y1="251.6" x2="537.1" y2="274.5" stroke="#c62828" stroke-width="1"/>
<rect x="533.3" y="254.3" width="7.6" height="16.9" fill="#c62828"/>
<rect x="533.3" y="532.0" width="7.6" height="0.0" fill="#c62828" opacity="0.55"/>
<line x1="549.4" y1="257.1" x2="549.4" y2="271.7" stroke="#2e7d32" stroke-width="1"/>
<rect x="545.6" y="264.4" width="7.6" height="7.3" fill="#2e7d32"/>
<rect x="545.6" y="532.0" width="7.6" height="0.0" fill="#2e7d32" opacity="0.55"/>
<line x1="561.7" y1="264.4" x2="561.7" y2="270.8" stroke="#c62828" stroke-width="1"/>
<rect x="557.9" y="267.1" width="7.6" height="1.8" fill="#c62828"/>
<rect x="557.9" y="532.0" width="7.6" height="0.0" fill="#c62828" opacity="0.55"/>
<line x1="574.0" y1="260.7" x2="574.0" y2="283.9" stroke="#2e7d32" stroke-width="1"/>
<rect x="570.2" y="264.4" width="7.6" height="3.7" fill="#2e7d32"/>
<rect x="570.2" y="532.0" width="7.6" height="0.0" fill="#2e7d32" opacity="0.55"/>
<line x1="586.3" y1="251.6" x2="586.3" y2="264.4" stroke="#c62828" stroke-width="1"/>
<rect x="582.5" y="261.6" width="7.6" height="2.7" fill="#c62828"/>
<rect x="582.5" y="532.0" width="7.6" height="0.0" fill="#c62828" opacity="0.55"/>
<line x1="598.6" y1="238.7" x2="598.6" y2="266.2" stroke="#c62828" stroke-width="1"/>
<rect x="594.8" y="252.5" width="7.6" height="12.8" fill="#c62828"/>
<rect x="594.8" y="532.0" width="7.6" height="0.0" fill="#c62828" opacity="0.55"/>
<line x1="610.9" y1="254.3" x2="610.9" y2="277.2" stroke="#2e7d32" stroke-width="1"/>
<rect x="607.1" y="256.1" width="7.6" height="13.7" fill="#2e7d32"/>
<rect x="607.1" y="532.0" width="7.6" height="0.0" fill="#2e7d32" opacity="0.55"/>
<line x1="623.2" y1="243.3" x2="623.2" y2="265.3" stroke="#2e7d32" stroke-width="1"/>
<rect x="619.3" y="245.2" width="7.6" height="11.0" fill="#2e7d32"/>
<rect x="619.3" y="532.0" width="7.6" height="0.0" fill="#2e7d32" opacity="0.55"/>
<line x1="635.4" y1="239.7" x2="635.4" y2="256.2" stroke="#c62828" stroke-width="1"/>
<rect x="631.6" y="239.7" width="7.6" height="16.5" fill="#c62828"/>
<rect x="631.6" y="532.0" width="7.6" height="0.0" fill="#c62828" opacity="0.55"/>
<line x1="647.7" y1="241.5" x2="647.7" y2="256.1" stroke="#c62828" stroke-width="1"/>
<rect x="643.9" y="248.8" width="7.6" height="1.8" fill="#c62828"/>
<rect x="643.9" y="532.0" width="7.6" height="0.0" fill="#c62828" opacity="0.55"/>
<line x1="660.0" y1="215.0" x2="660.0" y2="243.5" stroke="#2e7d32" stroke-width="1"/>
<rect x="656.2" y="223.2" width="7.6" height="20.1" fill="#2e7d32"/>
<rect x="656.2" y="532.0" width="7.6" height="0.0" fill="#2e7d32" opacity="0.55"/>
<line x1="672.3" y1="187.5" x2="672.3" y2="228.7" stroke="#c62828" stroke-width="1"/>
<rect x="668.5" y="215.0" width="7.6" height="1.0" fill="#c62828"/>
<rect x="668.5" y="532.0" width="7.6" height="0.0" fill="#c62828" opacity="0.55"/>
<line x1="684.6" y1="178.4" x2="684.6" y2="215.9" stroke="#2e7d32" stroke-width="1"/>
<rect x="680.8" y="178.4" width="7.6" height="37.5" fill="#2e7d32"/>
<rect x="680.8" y="532.0" width="7.6" height="0.0" fill="#2e7d32" opacity="0.55"/>
<line x1="696.9" y1="128.0" x2="696.9" y2="183.8" stroke="#2e7d32" stroke-width="1"/>
<rect x="693.1" y="133.5" width="7.6" height="50.3" fill="#2e7d32"/>
<rect x="693.1" y="532.0" width="7.6" height="0.0" fill="#2e7d32" opacity="0.55"/>
<line x1="709.2" y1="91.4" x2="709.2" y2="171.0" stroke="#2e7d32" stroke-width="1"/>
<rect x="705.4" y="108.8" width="7.6" height="21.5" fill="#2e7d32"/>
<rect x="705.4" y="532.0" width="7.6" height="0.0" fill="#2e7d32" opacity="0.55"/>
<line x1="721.5" y1="84.1" x2="721.5" y2="121.6" stroke="#2e7d32" stroke-width="1"/>
<rect x="717.7" y="103.3" width="7.6" height="5.5" fill="#2e7d32"/>
<rect x="717.7" y="532.0" width="7.6" height="0.0" fill="#2e7d32" opacity="0.55"/>
<line x1="733.8" y1="88.7" x2="733.8" y2="146.3" stroke="#2e7d32" stroke-width="1"/>
<rect x="729.9" y="103.3" width="7.6" height="3.7" fill="#2e7d32"/>
<rect x="729.9" y="532.0" width="7.6" height="0.0" fill="#2e7d32" opacity="0.55"/>
<line x1="746.0" y1="99.6" x2="746.0" y2="135.3" stroke="#c62828" stroke-width="1"/>
<rect x="742.2" y="106.1" width="7.6" height="4.7" fill="#c62828"/>
<rect x="742.2" y="532.0" width="7.6" height="0.0" fill="#c62828" opacity="0.55"/>
<line x1="758.3" y1="91.4" x2="758.3" y2="118.9" stroke="#2e7d32" stroke-width="1"/>
<rect x="754.5" y="95.1" width="7.6" height="15.6" fill="#2e7d32"/>
<rect x="754.5" y="532.0" width="7.6" height="0.0" fill="#2e7d32" opacity="0.55"/>
<line x1="770.6" y1="95.1" x2="770.6" y2="124.4" stroke="#c62828" stroke-width="1"/>
<rect x="766.8" y="95.9" width="7.6" height="27.5" fill="#c62828"/>
<rect x="766.8" y="532.0" width="7.6" height="0.0" fill="#c62828" opacity="0.55"/>
<line x1="782.9" y1="85.9" x2="782.9" y2="124.4" stroke="#2e7d32" stroke-width="1"/>
<rect x="779.1" y="96.0" width="7.6" height="27.4" fill="#2e7d32"/>
<rect x="779.1" y="532.0" width="7.6" height="0.0" fill="#2e7d32" opacity="0.55"/>
<line x1="795.2" y1="86.8" x2="795.2" y2="108.8" stroke="#c62828" stroke-width="1"/>
<rect x="791.4" y="97.8" width="7.6" height="1.0" fill="#c62828"/>
<rect x="791.4" y="532.0" width="7.6" height="0.0" fill="#c62828" opacity="0.55"/>
<line x1="807.5" y1="87.7" x2="807.5" y2="102.4" stroke="#c62828" stroke-width="1"/>
<rect x="803.7" y="95.2" width="7.6" height="3.2" fill="#c62828"/>
<rect x="803.7" y="532.0" width="7.6" height="0.0" fill="#c62828" opacity="0.55"/>
<line x1="819.8" y1="55.7" x2="819.8" y2="100.6" stroke="#2e7d32" stroke-width="1"/>
<rect x="816.0" y="64.5" width="7.6" height="35.1" fill="#2e7d32"/>
<rect x="816.0" y="532.0" width="7.6" height="0.0" fill="#2e7d32" opacity="0.55"/>
<line x1="832.1" y1="57.6" x2="832.1" y2="90.5" stroke="#c62828" stroke-width="1"/>
<rect x="828.3" y="67.6" width="7.6" height="11.0" fill="#c62828"/>
<rect x="828.3" y="532.0" width="7.6" height="0.0" fill="#c62828" opacity="0.55"/>
<line x1="844.4" y1="74.2" x2="844.4" y2="94.2" stroke="#c62828" stroke-width="1"/>
<rect x="840.6" y="76.8" width="7.6" height="14.6" fill="#c62828"/>
<rect x="840.6" y="532.0" width="7.6" height="0.0" fill="#c62828" opacity="0.55"/>
<line x1="856.7" y1="161.0" x2="856.7" y2="257.1" stroke="#c62828" stroke-width="1"/>
<rect x="852.8" y="208.6" width="7.6" height="1.7" fill="#c62828"/>
<rect x="852.8" y="532.0" width="7.6" height="0.0" fill="#c62828" opacity="0.55"/>
<line x1="868.9" y1="161.0" x2="868.9" y2="259.8" stroke="#c62828" stroke-width="1"/>
<rect x="865.1" y="211.3" width="7.6" height="13.6" fill="#c62828"/>
<rect x="865.1" y="532.0" width="7.6" height="0.0" fill="#c62828" opacity="0.55"/>
<line x1="881.2" y1="207.6" x2="881.2" y2="232.4" stroke="#c62828" stroke-width="1"/>
<rect x="877.4" y="222.3" width="7.6" height="6.4" fill="#c62828"/>
<rect x="877.4" y="532.0" width="7.6" height="0.0" fill="#c62828" opacity="0.55"/>
<line x1="893.5" y1="228.7" x2="893.5" y2="272.2" stroke="#c62828" stroke-width="1"/>
<rect x="889.7" y="231.4" width="7.6" height="39.2" fill="#c62828"/>
<rect x="889.7" y="532.0" width="7.6" height="0.0" fill="#c62828" opacity="0.55"/>
<line x1="905.8" y1="235.1" x2="905.8" y2="265.3" stroke="#2e7d32" stroke-width="1"/>
<rect x="902.0" y="264.4" width="7.6" height="1.0" fill="#2e7d32"/>
<rect x="902.0" y="532.0" width="7.6" height="0.0" fill="#2e7d32" opacity="0.55"/>
<line x1="918.1" y1="257.5" x2="918.1" y2="269.8" stroke="#c62828" stroke-width="1"/>
<rect x="914.3" y="264.3" width="7.6" height="2.0" fill="#c62828"/>
<rect x="914.3" y="532.0" width="7.6" height="0.0" fill="#c62828" opacity="0.55"/>
<line x1="930.4" y1="252.4" x2="930.4" y2="276.3" stroke="#2e7d32" stroke-width="1"/>
<rect x="926.6" y="252.4" width="7.6" height="13.7" fill="#2e7d32"/>
<rect x="926.6" y="532.0" width="7.6" height="0.0" fill="#2e7d32" opacity="0.55"/>
<line x1="942.7" y1="236.4" x2="942.7" y2="269.9" stroke="#c62828" stroke-width="1"/>
<rect x="938.9" y="252.4" width="7.6" height="6.5" fill="#c62828"/>
<rect x="938.9" y="532.0" width="7.6" height="0.0" fill="#c62828" opacity="0.55"/>
<line x1="955.0" y1="251.6" x2="955.0" y2="260.7" stroke="#c62828" stroke-width="1"/>
<rect x="951.2" y="256.0" width="7.6" height="1.0" fill="#c62828"/>
<rect x="951.2" y="532.0" width="7.6" height="0.0" fill="#c62828" opacity="0.55"/>
<line x1="967.3" y1="248.9" x2="967.3" y2="265.3" stroke="#c62828" stroke-width="1"/>
<rect x="963.4" y="255.4" width="7.6" height="7.6" fill="#c62828"/>
<rect x="963.4" y="532.0" width="7.6" height="0.0" fill="#c62828" opacity="0.55"/>
<line x1="979.5" y1="247.0" x2="979.5" y2="274.5" stroke="#2e7d32" stroke-width="1"/>
<rect x="975.7" y="250.0" width="7.6" height="15.3" fill="#2e7d32"/>
<rect x="975.7" y="532.0" width="7.6" height="0.0" fill="#2e7d32" opacity="0.55"/>
<line x1="991.8" y1="237.8" x2="991.8" y2="252.4" stroke="#2e7d32" stroke-width="1"/>
<rect x="988.0" y="238.1" width="7.6" height="12.0" fill="#2e7d32"/>
<rect x="988.0" y="532.0" width="7.6" height="0.0" fill="#2e7d32" opacity="0.55"/>
<line x1="1004.1" y1="235.7" x2="1004.1" y2="251.7" stroke="#2e7d32" stroke-width="1"/>
<rect x="1000.3" y="242.4" width="7.6" height="7.3" fill="#2e7d32"/>
<rect x="1000.3" y="532.0" width="7.6" height="0.0" fill="#2e7d32" opacity="0.55"/>
<line x1="1016.4" y1="243.3" x2="1016.4" y2="252.5" stroke="#c62828" stroke-width="1"/>
<rect x="1012.6" y="243.3" width="7.6" height="9.1" fill="#c62828"/>
<rect x="1012.6" y="532.0" width="7.6" height="0.0" fill="#c62828" opacity="0.55"/>
<line x1="1028.7" y1="242.4" x2="1028.7" y2="252.4" stroke="#2e7d32" stroke-width="1"/>
<rect x="1024.9" y="251.3" width="7.6" height="1.0" fill="#2e7d32"/>
<rect x="1024.9" y="532.0" width="7.6" height="0.0" fill="#2e7d32" opacity="0.55"/>
<line x1="1041.0" y1="251.1" x2="1041.0" y2="251.6" stroke="#c62828" stroke-width="1"/>
<rect x="1037.2" y="251.1" width="7.6" height="1.0" fill="#c62828"/>
<rect x="1037.2" y="532.0" width="7.6" height="0.0" fill="#c62828" opacity="0.55"/>
<line x1="1053.3" y1="237.8" x2="1053.3" y2="255.2" stroke="#2e7d32" stroke-width="1"/>
<rect x="1049.5" y="252.4" width="7.6" height="1.9" fill="#2e7d32"/>
<rect x="1049.5" y="532.0" width="7.6" height="0.0" fill="#2e7d32" opacity="0.55"/>
<line x1="1065.6" y1="243.1" x2="1065.6" y2="251.1" stroke="#c62828" stroke-width="1"/>
<rect x="1061.8" y="243.1" width="7.6" height="7.7" fill="#c62828"/>
<rect x="1061.8" y="532.0" width="7.6" height="0.0" fill="#c62828" opacity="0.55"/>
<line x1="1077.9" y1="247.9" x2="1077.9" y2="247.9" stroke="#2e7d32" stroke-width="1"/>
<rect x="1074.0" y="247.9" width="7.6" height="1.0" fill="#2e7d32"/>
<rect x="1074.0" y="532.0" width="7.6" height="0.0" fill="#2e7d32" opacity="0.55"/>
<line x1="64" y1="532" x2="1084" y2="532" stroke="#ccc"/>
<text x="58" y="420" font-size="9" fill="#999" text-anchor="end">0.0M</text>
<line x1="70.1" y1="532" x2="70.1" y2="536" stroke="#999"/>
<text x="70.1" y="547.0" font-size="9" fill="#666" text-anchor="middle">07/07 04:00</text>
<line x1="229.9" y1="532" x2="229.9" y2="536" stroke="#999"/>
<text x="229.9" y="547.0" font-size="9" fill="#666" text-anchor="middle">15:35</text>
<line x1="389.7" y1="532" x2="389.7" y2="536" stroke="#999"/>
<text x="389.7" y="547.0" font-size="9" fill="#666" text-anchor="middle">16:50</text>
<line x1="549.4" y1="532" x2="549.4" y2="536" stroke="#999"/>
<text x="549.4" y="547.0" font-size="9" fill="#666" text-anchor="middle">17:55</text>
<line x1="709.2" y1="532" x2="709.2" y2="536" stroke="#999"/>
<text x="709.2" y="547.0" font-size="9" fill="#666" text-anchor="middle">19:00</text>
<line x1="868.9" y1="532" x2="868.9" y2="536" stroke="#999"/>
<text x="868.9" y="547.0" font-size="9" fill="#666" text-anchor="middle">07/08 04:05</text>
<line x1="1028.7" y1="532" x2="1028.7" y2="536" stroke="#999"/>
<text x="1028.7" y="547.0" font-size="9" fill="#666" text-anchor="middle">05:10</text>
<text x="64" y="22" font-size="15" font-weight="bold" fill="#1a1a1a">VEEE - Twin Vee Powercats Co.</text>
<text x="1084" y="22" font-size="11" fill="#666" text-anchor="end">last $6.49 (+24.8% over window)</text>
<rect x="934" y="28" width="10" height="8" fill="#e8f0fe"/>
<text x="948" y="35" font-size="9" fill="#666">premarket</text>
<rect x="1006" y="28" width="10" height="8" fill="#fff4e0"/>
<text x="1020" y="35" font-size="9" fill="#666">after-hrs</text>
</svg>