<svg xmlns="http://www.w3.org/2000/svg" width="1100" height="560" viewBox="0 0 1100 560" font-family="Arial,Helvetica,sans-serif">
<rect width="1100" height="560" fill="white"/>
<rect x="64.0" y="36" width="39.2" height="496.0" fill="#e8f0fe"/>
<rect x="260.2" y="36" width="575.4" height="496.0" fill="#fff4e0"/>
<rect x="835.5" y="36" width="248.5" height="496.0" fill="#e8f0fe"/>
<line x1="64" y1="404.0" x2="1084" y2="404.0" stroke="#e6e6e6"/>
<text x="58" y="407.0" font-size="10" fill="#666" text-anchor="end">$1.68</text>
<line x1="64" y1="312.0" x2="1084" y2="312.0" stroke="#e6e6e6"/>
<text x="58" y="315.0" font-size="10" fill="#666" text-anchor="end">$2.04</text>
<line x1="64" y1="220.0" x2="1084" y2="220.0" stroke="#e6e6e6"/>
<text x="58" y="223.0" font-size="10" fill="#666" text-anchor="end">$2.40</text>
<line x1="64" y1="128.0" x2="1084" y2="128.0" stroke="#e6e6e6"/>
<text x="58" y="131.0" font-size="10" fill="#666" text-anchor="end">$2.77</text>
<line x1="64" y1="36.0" x2="1084" y2="36.0" stroke="#e6e6e6"/>
<text x="58" y="39.0" font-size="10" fill="#666" text-anchor="end">$3.13</text>
<line x1="70.5" y1="377.4" x2="70.5" y2="377.4" stroke="#2e7d32" stroke-width="1"/>
<rect x="66.5" y="377.4" width="8.1" height="1.0" fill="#2e7d32"/>
<rect x="66.5" y="532.0" width="8.1" height="0.0" fill="#2e7d32" opacity="0.55"/>
<line x1="83.6" y1="351.2" x2="83.6" y2="351.4" stroke="#2e7d32" stroke-width="1"/>
<rect x="79.6" y="351.2" width="8.1" height="1.0" fill="#2e7d32"/>
<rect x="79.6" y="532.0" width="8.1" height="0.0" fill="#2e7d32" opacity="0.55"/>
<line x1="96.7" y1="358.9" x2="96.7" y2="358.9" stroke="#2e7d32" stroke-width="1"/>
<rect x="92.6" y="358.9" width="8.1" height="1.0" fill="#2e7d32"/>
<rect x="92.6" y="532.0" width="8.1" height="0.0" fill="#2e7d32" opacity="0.55"/>
<line x1="109.8" y1="366.5" x2="109.8" y2="384.3" stroke="#2e7d32" stroke-width="1"/>
<rect x="105.7" y="366.5" width="8.1" height="17.8" fill="#2e7d32"/>
<rect x="105.7" y="420.0" width="8.1" height="112.0" fill="#2e7d32" opacity="0.55"/>
<line x1="122.8" y1="374.1" x2="122.8" y2="384.3" stroke="#2e7d32" stroke-width="1"/>
<rect x="118.8" y="374.1" width="8.1" height="10.2" fill="#2e7d32"/>
<rect x="118.8" y="462.0" width="8.1" height="70.0" fill="#2e7d32" opacity="0.55"/>
<line x1="135.9" y1="384.3" x2="135.9" y2="384.3" stroke="#2e7d32" stroke-width="1"/>
<rect x="131.9" y="384.3" width="8.1" height="1.0" fill="#2e7d32"/>
<rect x="131.9" y="511.5" width="8.1" height="20.5" fill="#2e7d32" opacity="0.55"/>
<line x1="149.0" y1="374.1" x2="149.0" y2="374.1" stroke="#2e7d32" stroke-width="1"/>
<rect x="144.9" y="374.1" width="8.1" height="1.0" fill="#2e7d32"/>
<rect x="144.9" y="412.0" width="8.1" height="120.0" fill="#2e7d32" opacity="0.55"/>
<line x1="162.1" y1="384.3" x2="162.1" y2="384.3" stroke="#2e7d32" stroke-width="1"/>
<rect x="158.0" y="384.3" width="8.1" height="1.0" fill="#2e7d32"/>
<rect x="158.0" y="487.2" width="8.1" height="44.8" fill="#2e7d32" opacity="0.55"/>
<line x1="175.2" y1="363.9" x2="175.2" y2="363.9" stroke="#2e7d32" stroke-width="1"/>
<rect x="171.1" y="363.9" width="8.1" height="1.0" fill="#2e7d32"/>
<rect x="171.1" y="443.7" width="8.1" height="88.3" fill="#2e7d32" opacity="0.55"/>
<line x1="188.2" y1="375.7" x2="188.2" y2="375.7" stroke="#2e7d32" stroke-width="1"/>
<rect x="184.2" y="375.7" width="8.1" height="1.0" fill="#2e7d32"/>
<rect x="184.2" y="517.9" width="8.1" height="14.1" fill="#2e7d32" opacity="0.55"/>
<line x1="201.3" y1="377.9" x2="201.3" y2="377.9" stroke="#2e7d32" stroke-width="1"/>
<rect x="197.3" y="377.9" width="8.1" height="1.0" fill="#2e7d32"/>
<rect x="197.3" y="479.4" width="8.1" height="52.6" fill="#2e7d32" opacity="0.55"/>
<line x1="214.4" y1="376.0" x2="214.4" y2="376.0" stroke="#2e7d32" stroke-width="1"/>
<rect x="210.3" y="376.0" width="8.1" height="1.0" fill="#2e7d32"/>
<rect x="210.3" y="516.5" width="8.1" height="15.5" fill="#2e7d32" opacity="0.55"/>
<line x1="227.5" y1="374.1" x2="227.5" y2="374.1" stroke="#2e7d32" stroke-width="1"/>
<rect x="223.4" y="374.1" width="8.1" height="1.0" fill="#2e7d32"/>
<rect x="223.4" y="495.0" width="8.1" height="37.0" fill="#2e7d32" opacity="0.55"/>
<line x1="240.5" y1="374.1" x2="240.5" y2="374.1" stroke="#2e7d32" stroke-width="1"/>
<rect x="236.5" y="374.1" width="8.1" height="1.0" fill="#2e7d32"/>
<rect x="236.5" y="474.2" width="8.1" height="57.8" fill="#2e7d32" opacity="0.55"/>
<line x1="253.6" y1="376.6" x2="253.6" y2="379.2" stroke="#c62828" stroke-width="1"/>
<rect x="249.6" y="376.6" width="8.1" height="2.5" fill="#c62828"/>
<rect x="249.6" y="460.9" width="8.1" height="71.1" fill="#c62828" opacity="0.55"/>
<line x1="266.7" y1="379.2" x2="266.7" y2="379.2" stroke="#2e7d32" stroke-width="1"/>
<rect x="262.6" y="379.2" width="8.1" height="1.0" fill="#2e7d32"/>
<rect x="262.6" y="532.0" width="8.1" height="0.0" fill="#2e7d32" opacity="0.55"/>
<line x1="279.8" y1="379.2" x2="279.8" y2="379.2" stroke="#2e7d32" stroke-width="1"/>
<rect x="275.7" y="379.2" width="8.1" height="1.0" fill="#2e7d32"/>
<rect x="275.7" y="532.0" width="8.1" height="0.0" fill="#2e7d32" opacity="0.55"/>
<line x1="292.8" y1="171.0" x2="292.8" y2="371.9" stroke="#2e7d32" stroke-width="1"/>
<rect x="288.8" y="246.7" width="8.1" height="119.4" fill="#2e7d32"/>
<rect x="288.8" y="532.0" width="8.1" height="0.0" fill="#2e7d32" opacity="0.55"/>
<line x1="305.9" y1="195.8" x2="305.9" y2="259.5" stroke="#2e7d32" stroke-width="1"/>
<rect x="301.9" y="216.9" width="8.1" height="22.8" fill="#2e7d32"/>
<rect x="301.9" y="532.0" width="8.1" height="0.0" fill="#2e7d32" opacity="0.55"/>
<line x1="319.0" y1="165.2" x2="319.0" y2="226.4" stroke="#2e7d32" stroke-width="1"/>
<rect x="314.9" y="192.1" width="8.1" height="24.4" fill="#2e7d32"/>
<rect x="314.9" y="532.0" width="8.1" height="0.0" fill="#2e7d32" opacity="0.55"/>
<line x1="332.1" y1="188.2" x2="332.1" y2="246.7" stroke="#c62828" stroke-width="1"/>
<rect x="328.0" y="188.3" width="8.1" height="50.8" fill="#c62828"/>
<rect x="328.0" y="532.0" width="8.1" height="0.0" fill="#c62828" opacity="0.55"/>
<line x1="345.2" y1="213.6" x2="345.2" y2="246.7" stroke="#c62828" stroke-width="1"/>
<rect x="341.1" y="236.6" width="8.1" height="4.8" fill="#c62828"/>
<rect x="341.1" y="532.0" width="8.1" height="0.0" fill="#c62828" opacity="0.55"/>
<line x1="358.2" y1="228.9" x2="358.2" y2="259.5" stroke="#2e7d32" stroke-width="1"/>
<rect x="354.2" y="238.9" width="8.1" height="1.6" fill="#2e7d32"/>
<rect x="354.2" y="532.0" width="8.1" height="0.0" fill="#2e7d32" opacity="0.55"/>
<line x1="371.3" y1="183.1" x2="371.3" y2="251.8" stroke="#2e7d32" stroke-width="1"/>
<rect x="367.3" y="188.2" width="8.1" height="50.9" fill="#2e7d32"/>
<rect x="367.3" y="532.0" width="8.1" height="0.0" fill="#2e7d32" opacity="0.55"/>
<line x1="384.4" y1="147.4" x2="384.4" y2="213.6" stroke="#2e7d32" stroke-width="1"/>
<rect x="380.3" y="188.2" width="8.1" height="1.0" fill="#2e7d32"/>
<rect x="380.3" y="532.0" width="8.1" height="0.0" fill="#2e7d32" opacity="0.55"/>
<line x1="397.5" y1="180.5" x2="397.5" y2="239.1" stroke="#c62828" stroke-width="1"/>
<rect x="393.4" y="188.0" width="8.1" height="41.0" fill="#c62828"/>
<rect x="393.4" y="532.0" width="8.1" height="0.0" fill="#c62828" opacity="0.55"/>
<line x1="410.5" y1="208.5" x2="410.5" y2="236.6" stroke="#2e7d32" stroke-width="1"/>
<rect x="406.5" y="223.8" width="8.1" height="5.5" fill="#2e7d32"/>
<rect x="406.5" y="532.0" width="8.1" height="0.0" fill="#2e7d32" opacity="0.55"/>
<line x1="423.6" y1="198.3" x2="423.6" y2="239.1" stroke="#2e7d32" stroke-width="1"/>
<rect x="419.6" y="208.6" width="8.1" height="15.7" fill="#2e7d32"/>
<rect x="419.6" y="532.0" width="8.1" height="0.0" fill="#2e7d32" opacity="0.55"/>
<line x1="436.7" y1="188.2" x2="436.7" y2="228.9" stroke="#2e7d32" stroke-width="1"/>
<rect x="432.6" y="193.2" width="8.1" height="15.4" fill="#2e7d32"/>
<rect x="432.6" y="532.0" width="8.1" height="0.0" fill="#2e7d32" opacity="0.55"/>
<line x1="449.8" y1="188.2" x2="449.8" y2="241.7" stroke="#c62828" stroke-width="1"/>
<rect x="445.7" y="188.2" width="8.1" height="50.9" fill="#c62828"/>
<rect x="445.7" y="532.0" width="8.1" height="0.0" fill="#c62828" opacity="0.55"/>
<line x1="462.8" y1="203.4" x2="462.8" y2="244.2" stroke="#2e7d32" stroke-width="1"/>
<rect x="458.8" y="228.9" width="8.1" height="10.2" fill="#2e7d32"/>
<rect x="458.8" y="532.0" width="8.1" height="0.0" fill="#2e7d32" opacity="0.55"/>
<line x1="475.9" y1="218.7" x2="475.9" y2="236.6" stroke="#2e7d32" stroke-width="1"/>
<rect x="471.9" y="226.3" width="8.1" height="1.0" fill="#2e7d32"/>
<rect x="471.9" y="532.0" width="8.1" height="0.0" fill="#2e7d32" opacity="0.55"/>
<line x1="489.0" y1="218.7" x2="489.0" y2="236.6" stroke="#c62828" stroke-width="1"/>
<rect x="484.9" y="223.8" width="8.1" height="12.8" fill="#c62828"/>
<rect x="484.9" y="532.0" width="8.1" height="0.0" fill="#c62828" opacity="0.55"/>
<line x1="502.1" y1="226.4" x2="502.1" y2="239.1" stroke="#2e7d32" stroke-width="1"/>
<rect x="498.0" y="233.9" width="8.1" height="2.9" fill="#2e7d32"/>
<rect x="498.0" y="532.0" width="8.1" height="0.0" fill="#2e7d32" opacity="0.55"/>
<line x1="515.2" y1="208.6" x2="515.2" y2="234.0" stroke="#2e7d32" stroke-width="1"/>
<rect x="511.1" y="221.3" width="8.1" height="10.3" fill="#2e7d32"/>
<rect x="511.1" y="532.0" width="8.1" height="0.0" fill="#2e7d32" opacity="0.55"/>
<line x1="528.2" y1="221.3" x2="528.2" y2="234.0" stroke="#c62828" stroke-width="1"/>
<rect x="524.2" y="221.7" width="8.1" height="7.2" fill="#c62828"/>
<rect x="524.2" y="532.0" width="8.1" height="0.0" fill="#c62828" opacity="0.55"/>
<line x1="541.3" y1="216.2" x2="541.3" y2="231.5" stroke="#2e7d32" stroke-width="1"/>
<rect x="537.3" y="218.8" width="8.1" height="10.1" fill="#2e7d32"/>
<rect x="537.3" y="532.0" width="8.1" height="0.0" fill="#2e7d32" opacity="0.55"/>
<line x1="554.4" y1="218.7" x2="554.4" y2="228.9" stroke="#c62828" stroke-width="1"/>
<rect x="550.3" y="221.3" width="8.1" height="7.6" fill="#c62828"/>
<rect x="550.3" y="532.0" width="8.1" height="0.0" fill="#c62828" opacity="0.55"/>
<line x1="567.5" y1="226.4" x2="567.5" y2="231.5" stroke="#c62828" stroke-width="1"/>
<rect x="563.4" y="226.4" width="8.1" height="2.5" fill="#c62828"/>
<rect x="563.4" y="532.0" width="8.1" height="0.0" fill="#c62828" opacity="0.55"/>
<line x1="580.5" y1="226.4" x2="580.5" y2="241.7" stroke="#c62828" stroke-width="1"/>
<rect x="576.5" y="228.9" width="8.1" height="10.2" fill="#c62828"/>
<rect x="576.5" y="532.0" width="8.1" height="0.0" fill="#c62828" opacity="0.55"/>
<line x1="593.6" y1="234.0" x2="593.6" y2="254.4" stroke="#2e7d32" stroke-width="1"/>
<rect x="589.6" y="234.0" width="8.1" height="5.1" fill="#2e7d32"/>
<rect x="589.6" y="532.0" width="8.1" height="0.0" fill="#2e7d32" opacity="0.55"/>
<line x1="606.7" y1="234.0" x2="606.7" y2="246.7" stroke="#c62828" stroke-width="1"/>
<rect x="602.6" y="236.6" width="8.1" height="5.1" fill="#c62828"/>
<rect x="602.6" y="532.0" width="8.1" height="0.0" fill="#c62828" opacity="0.55"/>
<line x1="619.8" y1="239.1" x2="619.8" y2="259.5" stroke="#c62828" stroke-width="1"/>
<rect x="615.7" y="244.2" width="8.1" height="10.2" fill="#c62828"/>
<rect x="615.7" y="532.0" width="8.1" height="0.0" fill="#c62828" opacity="0.55"/>
<line x1="632.8" y1="249.3" x2="632.8" y2="262.0" stroke="#c62828" stroke-width="1"/>
<rect x="628.8" y="254.4" width="8.1" height="5.0" fill="#c62828"/>
<rect x="628.8" y="532.0" width="8.1" height="0.0" fill="#c62828" opacity="0.55"/>
<line x1="645.9" y1="259.4" x2="645.9" y2="272.2" stroke="#c62828" stroke-width="1"/>
<rect x="641.9" y="259.4" width="8.1" height="10.2" fill="#c62828"/>
<rect x="641.9" y="532.0" width="8.1" height="0.0" fill="#c62828" opacity="0.55"/>
<line x1="659.0" y1="267.1" x2="659.0" y2="277.3" stroke="#c62828" stroke-width="1"/>
<rect x="654.9" y="267.1" width="8.1" height="5.1" fill="#c62828"/>
<rect x="654.9" y="532.0" width="8.1" height="0.0" fill="#c62828" opacity="0.55"/>
<line x1="672.1" y1="254.4" x2="672.1" y2="279.9" stroke="#2e7d32" stroke-width="1"/>
<rect x="668.0" y="254.4" width="8.1" height="17.8" fill="#2e7d32"/>
<rect x="668.0" y="532.0" width="8.1" height="0.0" fill="#2e7d32" opacity="0.55"/>
<line x1="685.2" y1="234.0" x2="685.2" y2="267.1" stroke="#2e7d32" stroke-width="1"/>
<rect x="681.1" y="241.7" width="8.1" height="17.8" fill="#2e7d32"/>
<rect x="681.1" y="532.0" width="8.1" height="0.0" fill="#2e7d32" opacity="0.55"/>
<line x1="698.2" y1="239.1" x2="698.2" y2="262.2" stroke="#c62828" stroke-width="1"/>
<rect x="694.2" y="239.1" width="8.1" height="7.6" fill="#c62828"/>
<rect x="694.2" y="532.0" width="8.1" height="0.0" fill="#c62828" opacity="0.55"/>
<line x1="711.3" y1="246.7" x2="711.3" y2="262.0" stroke="#c62828" stroke-width="1"/>
<rect x="707.3" y="246.7" width="8.1" height="7.6" fill="#c62828"/>
<rect x="707.3" y="532.0" width="8.1" height="0.0" fill="#c62828" opacity="0.55"/>
<line x1="724.4" y1="239.7" x2="724.4" y2="254.4" stroke="#2e7d32" stroke-width="1"/>
<rect x="720.3" y="241.7" width="8.1" height="12.7" fill="#2e7d32"/>
<rect x="720.3" y="532.0" width="8.1" height="0.0" fill="#2e7d32" opacity="0.55"/>
<line x1="737.5" y1="236.6" x2="737.5" y2="246.7" stroke="#c62828" stroke-width="1"/>
<rect x="733.4" y="241.7" width="8.1" height="2.5" fill="#c62828"/>
<rect x="733.4" y="532.0" width="8.1" height="0.0" fill="#c62828" opacity="0.55"/>
<line x1="750.5" y1="241.7" x2="750.5" y2="254.4" stroke="#c62828" stroke-width="1"/>
<rect x="746.5" y="244.2" width="8.1" height="2.5" fill="#c62828"/>
<rect x="746.5" y="532.0" width="8.1" height="0.0" fill="#c62828" opacity="0.55"/>
<line x1="763.6" y1="216.2" x2="763.6" y2="246.7" stroke="#2e7d32" stroke-width="1"/>
<rect x="759.6" y="219.2" width="8.1" height="27.6" fill="#2e7d32"/>
<rect x="759.6" y="532.0" width="8.1" height="0.0" fill="#2e7d32" opacity="0.55"/>
<line x1="776.7" y1="218.7" x2="776.7" y2="234.0" stroke="#c62828" stroke-width="1"/>
<rect x="772.6" y="218.7" width="8.1" height="2.5" fill="#c62828"/>
<rect x="772.6" y="532.0" width="8.1" height="0.0" fill="#c62828" opacity="0.55"/>
<line x1="789.8" y1="211.1" x2="789.8" y2="228.9" stroke="#c62828" stroke-width="1"/>
<rect x="785.7" y="221.3" width="8.1" height="3.1" fill="#c62828"/>
<rect x="785.7" y="532.0" width="8.1" height="0.0" fill="#c62828" opacity="0.55"/>
<line x1="802.8" y1="216.2" x2="802.8" y2="226.4" stroke="#2e7d32" stroke-width="1"/>
<rect x="798.8" y="218.7" width="8.1" height="5.1" fill="#2e7d32"/>
<rect x="798.8" y="532.0" width="8.1" height="0.0" fill="#2e7d32" opacity="0.55"/>
<line x1="815.9" y1="218.7" x2="815.9" y2="231.5" stroke="#c62828" stroke-width="1"/>
<rect x="811.9" y="218.7" width="8.1" height="10.2" fill="#c62828"/>
<rect x="811.9" y="532.0" width="8.1" height="0.0" fill="#c62828" opacity="0.55"/>
<line x1="829.0" y1="213.7" x2="829.0" y2="231.5" stroke="#2e7d32" stroke-width="1"/>
<rect x="824.9" y="221.3" width="8.1" height="7.6" fill="#2e7d32"/>
<rect x="824.9" y="532.0" width="8.1" height="0.0" fill="#2e7d32" opacity="0.55"/>
<line x1="842.1" y1="55.7" x2="842.1" y2="216.2" stroke="#2e7d32" stroke-width="1"/>
<rect x="838.0" y="96.6" width="8.1" height="45.7" fill="#2e7d32"/>
<rect x="838.0" y="532.0" width="8.1" height="0.0" fill="#2e7d32" opacity="0.55"/>
<line x1="855.2" y1="72.6" x2="855.2" y2="139.8" stroke="#c62828" stroke-width="1"/>
<rect x="851.1" y="97.7" width="8.1" height="17.3" fill="#c62828"/>
<rect x="851.1" y="532.0" width="8.1" height="0.0" fill="#c62828" opacity="0.55"/>
<line x1="868.2" y1="73.5" x2="868.2" y2="129.6" stroke="#2e7d32" stroke-width="1"/>
<rect x="864.2" y="96.3" width="8.1" height="18.0" fill="#2e7d32"/>
<rect x="864.2" y="532.0" width="8.1" height="0.0" fill="#2e7d32" opacity="0.55"/>
<line x1="881.3" y1="86.3" x2="881.3" y2="127.0" stroke="#c62828" stroke-width="1"/>
<rect x="877.3" y="96.3" width="8.1" height="18.2" fill="#c62828"/>
<rect x="877.3" y="532.0" width="8.1" height="0.0" fill="#c62828" opacity="0.55"/>
<line x1="894.4" y1="81.2" x2="894.4" y2="116.8" stroke="#2e7d32" stroke-width="1"/>
<rect x="890.3" y="103.8" width="8.1" height="11.3" fill="#2e7d32"/>
<rect x="890.3" y="532.0" width="8.1" height="0.0" fill="#2e7d32" opacity="0.55"/>
<line x1="907.5" y1="101.6" x2="907.5" y2="139.8" stroke="#c62828" stroke-width="1"/>
<rect x="903.4" y="101.7" width="8.1" height="27.6" fill="#c62828"/>
<rect x="903.4" y="532.0" width="8.1" height="0.0" fill="#c62828" opacity="0.55"/>
<line x1="920.5" y1="119.4" x2="920.5" y2="144.9" stroke="#2e7d32" stroke-width="1"/>
<rect x="916.5" y="120.0" width="8.1" height="7.2" fill="#2e7d32"/>
<rect x="916.5" y="532.0" width="8.1" height="0.0" fill="#2e7d32" opacity="0.55"/>
<line x1="933.6" y1="119.4" x2="933.6" y2="152.5" stroke="#c62828" stroke-width="1"/>
<rect x="929.6" y="119.5" width="8.1" height="22.8" fill="#c62828"/>
<rect x="929.6" y="532.0" width="8.1" height="0.0" fill="#c62828" opacity="0.55"/>
<line x1="946.7" y1="140.3" x2="946.7" y2="170.3" stroke="#c62828" stroke-width="1"/>
<rect x="942.6" y="140.3" width="8.1" height="22.7" fill="#c62828"/>
<rect x="942.6" y="532.0" width="8.1" height="0.0" fill="#c62828" opacity="0.55"/>
<line x1="959.8" y1="155.0" x2="959.8" y2="170.3" stroke="#c62828" stroke-width="1"/>
<rect x="955.7" y="163.1" width="8.1" height="4.7" fill="#c62828"/>
<rect x="955.7" y="532.0" width="8.1" height="0.0" fill="#c62828" opacity="0.55"/>
<line x1="972.8" y1="157.6" x2="972.8" y2="180.5" stroke="#c62828" stroke-width="1"/>
<rect x="968.8" y="165.3" width="8.1" height="12.5" fill="#c62828"/>
<rect x="968.8" y="532.0" width="8.1" height="0.0" fill="#c62828" opacity="0.55"/>
<line x1="985.9" y1="155.0" x2="985.9" y2="180.5" stroke="#2e7d32" stroke-width="1"/>
<rect x="981.9" y="160.3" width="8.1" height="16.8" fill="#2e7d32"/>
<rect x="981.9" y="532.0" width="8.1" height="0.0" fill="#2e7d32" opacity="0.55"/>
<line x1="999.0" y1="147.4" x2="999.0" y2="170.3" stroke="#c62828" stroke-width="1"/>
<rect x="994.9" y="160.9" width="8.1" height="6.0" fill="#c62828"/>
<rect x="994.9" y="532.0" width="8.1" height="0.0" fill="#c62828" opacity="0.55"/>
<line x1="1012.1" y1="162.7" x2="1012.1" y2="175.4" stroke="#c62828" stroke-width="1"/>
<rect x="1008.0" y="167.0" width="8.1" height="3.3" fill="#c62828"/>
<rect x="1008.0" y="532.0" width="8.1" height="0.0" fill="#c62828" opacity="0.55"/>
<line x1="1025.2" y1="170.3" x2="1025.2" y2="195.8" stroke="#c62828" stroke-width="1"/>
<rect x="1021.1" y="172.0" width="8.1" height="13.9" fill="#c62828"/>
<rect x="1021.1" y="532.0" width="8.1" height="0.0" fill="#c62828" opacity="0.55"/>
<line x1="1038.2" y1="183.1" x2="1038.2" y2="195.8" stroke="#c62828" stroke-width="1"/>
<rect x="1034.2" y="187.3" width="8.1" height="6.9" fill="#c62828"/>
<rect x="1034.2" y="532.0" width="8.1" height="0.0" fill="#c62828" opacity="0.55"/>
<line x1="1051.3" y1="188.2" x2="1051.3" y2="203.3" stroke="#c62828" stroke-width="1"/>
<rect x="1047.3" y="193.4" width="8.1" height="4.2" fill="#c62828"/>
<rect x="1047.3" y="532.0" width="8.1" height="0.0" fill="#c62828" opacity="0.55"/>
<line x1="1064.4" y1="178.0" x2="1064.4" y2="196.7" stroke="#2e7d32" stroke-width="1"/>
<rect x="1060.3" y="185.6" width="8.1" height="10.4" fill="#2e7d32"/>
<rect x="1060.3" y="532.0" width="8.1" height="0.0" fill="#2e7d32" opacity="0.55"/>
<line x1="1077.5" y1="178.9" x2="1077.5" y2="178.9" stroke="#2e7d32" stroke-width="1"/>
<rect x="1073.4" y="178.9" width="8.1" height="1.0" fill="#2e7d32"/>
<rect x="1073.4" y="532.0" width="8.1" height="0.0" fill="#2e7d32" opacity="0.55"/>
<line x1="64" y1="532" x2="1084" y2="532" stroke="#ccc"/>
<text x="58" y="420" font-size="9" fill="#999" text-anchor="end">0.0M</text>
<line x1="70.5" y1="532" x2="70.5" y2="536" stroke="#999"/>
<text x="70.5" y="547.0" font-size="9" fill="#666" text-anchor="middle">07/08 05:05</text>
<line x1="240.5" y1="532" x2="240.5" y2="536" stroke="#999"/>
<text x="240.5" y="547.0" font-size="9" fill="#666" text-anchor="middle">15:50</text>
<line x1="410.5" y1="532" x2="410.5" y2="536" stroke="#999"/>
<text x="410.5" y="547.0" font-size="9" fill="#666" text-anchor="middle">17:15</text>
<line x1="580.5" y1="532" x2="580.5" y2="536" stroke="#999"/>
<text x="580.5" y="547.0" font-size="9" fill="#666" text-anchor="middle">18:20</text>
<line x1="750.5" y1="532" x2="750.5" y2="536" stroke="#999"/>
<text x="750.5" y="547.0" font-size="9" fill="#666" text-anchor="middle">19:25</text>
<line x1="920.5" y1="532" x2="920.5" y2="536" stroke="#999"/>
<text x="920.5" y="547.0" font-size="9" fill="#666" text-anchor="middle">07/09 04:30</text>
<text x="64" y="22" font-size="15" font-weight="bold" fill="#1a1a1a">RPGL - Republic Power Group Limited</text>
<text x="1084" y="22" font-size="11" fill="#666" text-anchor="end">last $2.57 (+43.6% over window)</text>
<rect x="934" y="28" width="10" height="8" fill="#e8f0fe"/>
<text x="948" y="35" font-size="9" fill="#666">premarket</text>
<rect x="1006" y="28" width="10" height="8" fill="#fff4e0"/>
<text x="1020" y="35" font-size="9" fill="#666">after-hrs</text>
</svg>