<svg xmlns="http://www.w3.org/2000/svg" width="1100" height="560" viewBox="0 0 1100 560" font-family="Arial,Helvetica,sans-serif">
<rect width="1100" height="560" fill="white"/>
<rect x="64.0" y="36" width="204.0" height="496.0" fill="#e8f0fe"/>
<rect x="603.1" y="36" width="342.4" height="496.0" fill="#fff4e0"/>
<rect x="945.6" y="36" width="138.4" height="496.0" fill="#e8f0fe"/>
<line x1="64" y1="404.0" x2="1084" y2="404.0" stroke="#e6e6e6"/>
<text x="58" y="407.0" font-size="10" fill="#666" text-anchor="end">$1.82</text>
<line x1="64" y1="312.0" x2="1084" y2="312.0" stroke="#e6e6e6"/>
<text x="58" y="315.0" font-size="10" fill="#666" text-anchor="end">$2.09</text>
<line x1="64" y1="220.0" x2="1084" y2="220.0" stroke="#e6e6e6"/>
<text x="58" y="223.0" font-size="10" fill="#666" text-anchor="end">$2.36</text>
<line x1="64" y1="128.0" x2="1084" y2="128.0" stroke="#e6e6e6"/>
<text x="58" y="131.0" font-size="10" fill="#666" text-anchor="end">$2.64</text>
<line x1="64" y1="36.0" x2="1084" y2="36.0" stroke="#e6e6e6"/>
<text x="58" y="39.0" font-size="10" fill="#666" text-anchor="end">$2.91</text>
<line x1="67.6" y1="323.3" x2="67.6" y2="326.7" stroke="#2e7d32" stroke-width="1"/>
<rect x="65.4" y="323.3" width="4.5" height="3.4" fill="#2e7d32"/>
<rect x="65.4" y="532.0" width="4.5" height="0.0" fill="#2e7d32" opacity="0.55"/>
<line x1="74.9" y1="316.7" x2="74.9" y2="316.7" stroke="#2e7d32" stroke-width="1"/>
<rect x="72.7" y="316.7" width="4.5" height="1.0" fill="#2e7d32"/>
<rect x="72.7" y="532.0" width="4.5" height="0.0" fill="#2e7d32" opacity="0.55"/>
<line x1="82.2" y1="319.9" x2="82.2" y2="319.9" stroke="#2e7d32" stroke-width="1"/>
<rect x="80.0" y="319.9" width="4.5" height="1.0" fill="#2e7d32"/>
<rect x="80.0" y="532.0" width="4.5" height="0.0" fill="#2e7d32" opacity="0.55"/>
<line x1="89.5" y1="319.9" x2="89.5" y2="319.9" stroke="#2e7d32" stroke-width="1"/>
<rect x="87.2" y="319.9" width="4.5" height="1.0" fill="#2e7d32"/>
<rect x="87.2" y="532.0" width="4.5" height="0.0" fill="#2e7d32" opacity="0.55"/>
<line x1="96.8" y1="319.9" x2="96.8" y2="319.9" stroke="#2e7d32" stroke-width="1"/>
<rect x="94.5" y="319.9" width="4.5" height="1.0" fill="#2e7d32"/>
<rect x="94.5" y="532.0" width="4.5" height="0.0" fill="#2e7d32" opacity="0.55"/>
<line x1="104.1" y1="319.9" x2="104.1" y2="319.9" stroke="#2e7d32" stroke-width="1"/>
<rect x="101.8" y="319.9" width="4.5" height="1.0" fill="#2e7d32"/>
<rect x="101.8" y="532.0" width="4.5" height="0.0" fill="#2e7d32" opacity="0.55"/>
<line x1="111.4" y1="311.1" x2="111.4" y2="311.1" stroke="#2e7d32" stroke-width="1"/>
<rect x="109.1" y="311.1" width="4.5" height="1.0" fill="#2e7d32"/>
<rect x="109.1" y="532.0" width="4.5" height="0.0" fill="#2e7d32" opacity="0.55"/>
<line x1="118.6" y1="311.1" x2="118.6" y2="311.1" stroke="#2e7d32" stroke-width="1"/>
<rect x="116.4" y="311.1" width="4.5" height="1.0" fill="#2e7d32"/>
<rect x="116.4" y="532.0" width="4.5" height="0.0" fill="#2e7d32" opacity="0.55"/>
<line x1="125.9" y1="311.1" x2="125.9" y2="324.5" stroke="#2e7d32" stroke-width="1"/>
<rect x="123.7" y="316.5" width="4.5" height="8.0" fill="#2e7d32"/>
<rect x="123.7" y="532.0" width="4.5" height="0.0" fill="#2e7d32" opacity="0.55"/>
<line x1="133.2" y1="316.5" x2="133.2" y2="316.5" stroke="#2e7d32" stroke-width="1"/>
<rect x="131.0" y="316.5" width="4.5" height="1.0" fill="#2e7d32"/>
<rect x="131.0" y="532.0" width="4.5" height="0.0" fill="#2e7d32" opacity="0.55"/>
<line x1="140.5" y1="323.3" x2="140.5" y2="323.3" stroke="#2e7d32" stroke-width="1"/>
<rect x="138.2" y="323.3" width="4.5" height="1.0" fill="#2e7d32"/>
<rect x="138.2" y="532.0" width="4.5" height="0.0" fill="#2e7d32" opacity="0.55"/>
<line x1="147.8" y1="323.2" x2="147.8" y2="323.2" stroke="#2e7d32" stroke-width="1"/>
<rect x="145.5" y="323.2" width="4.5" height="1.0" fill="#2e7d32"/>
<rect x="145.5" y="532.0" width="4.5" height="0.0" fill="#2e7d32" opacity="0.55"/>
<line x1="155.1" y1="323.3" x2="155.1" y2="323.3" stroke="#2e7d32" stroke-width="1"/>
<rect x="152.8" y="323.3" width="4.5" height="1.0" fill="#2e7d32"/>
<rect x="152.8" y="532.0" width="4.5" height="0.0" fill="#2e7d32" opacity="0.55"/>
<line x1="162.4" y1="323.2" x2="162.4" y2="323.2" stroke="#2e7d32" stroke-width="1"/>
<rect x="160.1" y="323.2" width="4.5" height="1.0" fill="#2e7d32"/>
<rect x="160.1" y="532.0" width="4.5" height="0.0" fill="#2e7d32" opacity="0.55"/>
<line x1="169.6" y1="323.2" x2="169.6" y2="323.2" stroke="#2e7d32" stroke-width="1"/>
<rect x="167.4" y="323.2" width="4.5" height="1.0" fill="#2e7d32"/>
<rect x="167.4" y="532.0" width="4.5" height="0.0" fill="#2e7d32" opacity="0.55"/>
<line x1="176.9" y1="316.5" x2="176.9" y2="316.5" stroke="#2e7d32" stroke-width="1"/>
<rect x="174.7" y="316.5" width="4.5" height="1.0" fill="#2e7d32"/>
<rect x="174.7" y="532.0" width="4.5" height="0.0" fill="#2e7d32" opacity="0.55"/>
<line x1="184.2" y1="323.2" x2="184.2" y2="323.2" stroke="#2e7d32" stroke-width="1"/>
<rect x="182.0" y="323.2" width="4.5" height="1.0" fill="#2e7d32"/>
<rect x="182.0" y="532.0" width="4.5" height="0.0" fill="#2e7d32" opacity="0.55"/>
<line x1="191.5" y1="323.3" x2="191.5" y2="323.3" stroke="#2e7d32" stroke-width="1"/>
<rect x="189.2" y="323.3" width="4.5" height="1.0" fill="#2e7d32"/>
<rect x="189.2" y="532.0" width="4.5" height="0.0" fill="#2e7d32" opacity="0.55"/>
<line x1="198.8" y1="316.7" x2="198.8" y2="316.7" stroke="#2e7d32" stroke-width="1"/>
<rect x="196.5" y="316.7" width="4.5" height="1.0" fill="#2e7d32"/>
<rect x="196.5" y="532.0" width="4.5" height="0.0" fill="#2e7d32" opacity="0.55"/>
<line x1="206.1" y1="316.5" x2="206.1" y2="316.5" stroke="#2e7d32" stroke-width="1"/>
<rect x="203.8" y="316.5" width="4.5" height="1.0" fill="#2e7d32"/>
<rect x="203.8" y="532.0" width="4.5" height="0.0" fill="#2e7d32" opacity="0.55"/>
<line x1="213.4" y1="316.6" x2="213.4" y2="316.6" stroke="#2e7d32" stroke-width="1"/>
<rect x="211.1" y="316.6" width="4.5" height="1.0" fill="#2e7d32"/>
<rect x="211.1" y="532.0" width="4.5" height="0.0" fill="#2e7d32" opacity="0.55"/>
<line x1="220.6" y1="316.5" x2="220.6" y2="316.6" stroke="#2e7d32" stroke-width="1"/>
<rect x="218.4" y="316.5" width="4.5" height="1.0" fill="#2e7d32"/>
<rect x="218.4" y="532.0" width="4.5" height="0.0" fill="#2e7d32" opacity="0.55"/>
<line x1="227.9" y1="317.4" x2="227.9" y2="317.4" stroke="#2e7d32" stroke-width="1"/>
<rect x="225.7" y="317.4" width="4.5" height="1.0" fill="#2e7d32"/>
<rect x="225.7" y="532.0" width="4.5" height="0.0" fill="#2e7d32" opacity="0.55"/>
<line x1="235.2" y1="317.4" x2="235.2" y2="317.4" stroke="#2e7d32" stroke-width="1"/>
<rect x="233.0" y="317.4" width="4.5" height="1.0" fill="#2e7d32"/>
<rect x="233.0" y="532.0" width="4.5" height="0.0" fill="#2e7d32" opacity="0.55"/>
<line x1="242.5" y1="303.0" x2="242.5" y2="303.0" stroke="#2e7d32" stroke-width="1"/>
<rect x="240.2" y="303.0" width="4.5" height="1.0" fill="#2e7d32"/>
<rect x="240.2" y="532.0" width="4.5" height="0.0" fill="#2e7d32" opacity="0.55"/>
<line x1="249.8" y1="317.0" x2="249.8" y2="319.9" stroke="#c62828" stroke-width="1"/>
<rect x="247.5" y="317.0" width="4.5" height="2.9" fill="#c62828"/>
<rect x="247.5" y="532.0" width="4.5" height="0.0" fill="#c62828" opacity="0.55"/>
<line x1="257.1" y1="331.0" x2="257.1" y2="331.0" stroke="#2e7d32" stroke-width="1"/>
<rect x="254.8" y="331.0" width="4.5" height="1.0" fill="#2e7d32"/>
<rect x="254.8" y="532.0" width="4.5" height="0.0" fill="#2e7d32" opacity="0.55"/>
<line x1="264.4" y1="318.7" x2="264.4" y2="333.5" stroke="#c62828" stroke-width="1"/>
<rect x="262.1" y="318.7" width="4.5" height="14.8" fill="#c62828"/>
<rect x="262.1" y="532.0" width="4.5" height="0.0" fill="#c62828" opacity="0.55"/>
<line x1="271.6" y1="336.5" x2="271.6" y2="336.9" stroke="#2e7d32" stroke-width="1"/>
<rect x="269.4" y="336.5" width="4.5" height="1.0" fill="#2e7d32"/>
<rect x="269.4" y="500.4" width="4.5" height="31.6" fill="#2e7d32" opacity="0.55"/>
<line x1="278.9" y1="308.1" x2="278.9" y2="336.9" stroke="#c62828" stroke-width="1"/>
<rect x="276.7" y="308.1" width="4.5" height="28.8" fill="#c62828"/>
<rect x="276.7" y="515.3" width="4.5" height="16.7" fill="#c62828" opacity="0.55"/>
<line x1="286.2" y1="323.3" x2="286.2" y2="323.3" stroke="#2e7d32" stroke-width="1"/>
<rect x="284.0" y="323.3" width="4.5" height="1.0" fill="#2e7d32"/>
<rect x="284.0" y="530.9" width="4.5" height="1.1" fill="#2e7d32" opacity="0.55"/>
<line x1="293.5" y1="323.3" x2="293.5" y2="323.3" stroke="#2e7d32" stroke-width="1"/>
<rect x="291.2" y="323.3" width="4.5" height="1.0" fill="#2e7d32"/>
<rect x="291.2" y="530.8" width="4.5" height="1.2" fill="#2e7d32" opacity="0.55"/>
<line x1="300.8" y1="333.5" x2="300.8" y2="333.5" stroke="#2e7d32" stroke-width="1"/>
<rect x="298.5" y="333.5" width="4.5" height="1.0" fill="#2e7d32"/>
<rect x="298.5" y="528.9" width="4.5" height="3.1" fill="#2e7d32" opacity="0.55"/>
<line x1="308.1" y1="328.4" x2="308.1" y2="328.4" stroke="#2e7d32" stroke-width="1"/>
<rect x="305.8" y="328.4" width="4.5" height="1.0" fill="#2e7d32"/>
<rect x="305.8" y="530.3" width="4.5" height="1.7" fill="#2e7d32" opacity="0.55"/>
<line x1="315.4" y1="328.4" x2="315.4" y2="328.4" stroke="#2e7d32" stroke-width="1"/>
<rect x="313.1" y="328.4" width="4.5" height="1.0" fill="#2e7d32"/>
<rect x="313.1" y="529.9" width="4.5" height="2.1" fill="#2e7d32" opacity="0.55"/>
<line x1="322.6" y1="325.0" x2="322.6" y2="336.9" stroke="#2e7d32" stroke-width="1"/>
<rect x="320.4" y="325.0" width="4.5" height="11.9" fill="#2e7d32"/>
<rect x="320.4" y="504.2" width="4.5" height="27.8" fill="#2e7d32" opacity="0.55"/>
<line x1="329.9" y1="316.5" x2="329.9" y2="336.9" stroke="#2e7d32" stroke-width="1"/>
<rect x="327.7" y="316.5" width="4.5" height="20.3" fill="#2e7d32"/>
<rect x="327.7" y="525.6" width="4.5" height="6.4" fill="#2e7d32" opacity="0.55"/>
<line x1="337.2" y1="342.1" x2="337.2" y2="342.1" stroke="#2e7d32" stroke-width="1"/>
<rect x="335.0" y="342.1" width="4.5" height="1.0" fill="#2e7d32"/>
<rect x="335.0" y="527.6" width="4.5" height="4.4" fill="#2e7d32" opacity="0.55"/>
<line x1="344.5" y1="330.1" x2="344.5" y2="336.9" stroke="#2e7d32" stroke-width="1"/>
<rect x="342.2" y="330.1" width="4.5" height="6.8" fill="#2e7d32"/>
<rect x="342.2" y="524.8" width="4.5" height="7.2" fill="#2e7d32" opacity="0.55"/>
<line x1="351.8" y1="341.9" x2="351.8" y2="357.1" stroke="#2e7d32" stroke-width="1"/>
<rect x="349.5" y="341.9" width="4.5" height="1.7" fill="#2e7d32"/>
<rect x="349.5" y="480.1" width="4.5" height="51.9" fill="#2e7d32" opacity="0.55"/>
<line x1="359.1" y1="353.8" x2="359.1" y2="353.8" stroke="#2e7d32" stroke-width="1"/>
<rect x="356.8" y="353.8" width="4.5" height="1.0" fill="#2e7d32"/>
<rect x="356.8" y="530.7" width="4.5" height="1.3" fill="#2e7d32" opacity="0.55"/>
<line x1="366.4" y1="351.1" x2="366.4" y2="351.1" stroke="#2e7d32" stroke-width="1"/>
<rect x="364.1" y="351.1" width="4.5" height="1.0" fill="#2e7d32"/>
<rect x="364.1" y="530.4" width="4.5" height="1.6" fill="#2e7d32" opacity="0.55"/>
<line x1="373.6" y1="347.0" x2="373.6" y2="353.8" stroke="#c62828" stroke-width="1"/>
<rect x="371.4" y="347.0" width="4.5" height="1.9" fill="#c62828"/>
<rect x="371.4" y="522.0" width="4.5" height="10.0" fill="#c62828" opacity="0.55"/>
<line x1="380.9" y1="355.5" x2="380.9" y2="370.7" stroke="#c62828" stroke-width="1"/>
<rect x="378.7" y="355.5" width="4.5" height="15.2" fill="#c62828"/>
<rect x="378.7" y="482.2" width="4.5" height="49.8" fill="#c62828" opacity="0.55"/>
<line x1="388.2" y1="370.7" x2="388.2" y2="377.5" stroke="#c62828" stroke-width="1"/>
<rect x="386.0" y="370.7" width="4.5" height="6.7" fill="#c62828"/>
<rect x="386.0" y="511.6" width="4.5" height="20.4" fill="#c62828" opacity="0.55"/>
<line x1="395.5" y1="364.0" x2="395.5" y2="377.5" stroke="#c62828" stroke-width="1"/>
<rect x="393.2" y="372.4" width="4.5" height="5.1" fill="#c62828"/>
<rect x="393.2" y="496.1" width="4.5" height="35.9" fill="#c62828" opacity="0.55"/>
<line x1="402.8" y1="375.8" x2="402.8" y2="384.3" stroke="#2e7d32" stroke-width="1"/>
<rect x="400.5" y="375.8" width="4.5" height="1.7" fill="#2e7d32"/>
<rect x="400.5" y="515.4" width="4.5" height="16.6" fill="#2e7d32" opacity="0.55"/>
<line x1="410.1" y1="370.8" x2="410.1" y2="370.8" stroke="#2e7d32" stroke-width="1"/>
<rect x="407.8" y="370.8" width="4.5" height="1.0" fill="#2e7d32"/>
<rect x="407.8" y="527.2" width="4.5" height="4.8" fill="#2e7d32" opacity="0.55"/>
<line x1="417.4" y1="374.8" x2="417.4" y2="384.3" stroke="#c62828" stroke-width="1"/>
<rect x="415.1" y="374.8" width="4.5" height="9.5" fill="#c62828"/>
<rect x="415.1" y="516.7" width="4.5" height="15.3" fill="#c62828" opacity="0.55"/>
<line x1="424.6" y1="379.4" x2="424.6" y2="379.4" stroke="#2e7d32" stroke-width="1"/>
<rect x="422.4" y="379.4" width="4.5" height="1.0" fill="#2e7d32"/>
<rect x="422.4" y="528.5" width="4.5" height="3.5" fill="#2e7d32" opacity="0.55"/>
<line x1="431.9" y1="379.2" x2="431.9" y2="384.3" stroke="#c62828" stroke-width="1"/>
<rect x="429.7" y="379.2" width="4.5" height="3.4" fill="#c62828"/>
<rect x="429.7" y="510.8" width="4.5" height="21.2" fill="#c62828" opacity="0.55"/>
<line x1="439.2" y1="380.9" x2="439.2" y2="380.9" stroke="#2e7d32" stroke-width="1"/>
<rect x="437.0" y="380.9" width="4.5" height="1.0" fill="#2e7d32"/>
<rect x="437.0" y="530.2" width="4.5" height="1.8" fill="#2e7d32" opacity="0.55"/>
<line x1="446.5" y1="370.7" x2="446.5" y2="377.5" stroke="#2e7d32" stroke-width="1"/>
<rect x="444.2" y="370.7" width="4.5" height="6.8" fill="#2e7d32"/>
<rect x="444.2" y="514.0" width="4.5" height="18.0" fill="#2e7d32" opacity="0.55"/>
<line x1="453.8" y1="377.5" x2="453.8" y2="377.5" stroke="#2e7d32" stroke-width="1"/>
<rect x="451.5" y="377.5" width="4.5" height="1.0" fill="#2e7d32"/>
<rect x="451.5" y="522.4" width="4.5" height="9.6" fill="#2e7d32" opacity="0.55"/>
<line x1="461.1" y1="374.1" x2="461.1" y2="374.1" stroke="#2e7d32" stroke-width="1"/>
<rect x="458.8" y="374.1" width="4.5" height="1.0" fill="#2e7d32"/>
<rect x="458.8" y="530.5" width="4.5" height="1.5" fill="#2e7d32" opacity="0.55"/>
<line x1="468.4" y1="357.2" x2="468.4" y2="370.7" stroke="#2e7d32" stroke-width="1"/>
<rect x="466.1" y="357.2" width="4.5" height="13.5" fill="#2e7d32"/>
<rect x="466.1" y="412.0" width="4.5" height="120.0" fill="#2e7d32" opacity="0.55"/>
<line x1="475.6" y1="367.3" x2="475.6" y2="372.4" stroke="#c62828" stroke-width="1"/>
<rect x="473.4" y="367.3" width="4.5" height="5.1" fill="#c62828"/>
<rect x="473.4" y="530.8" width="4.5" height="1.2" fill="#c62828" opacity="0.55"/>
<line x1="482.9" y1="367.3" x2="482.9" y2="367.3" stroke="#2e7d32" stroke-width="1"/>
<rect x="480.7" y="367.3" width="4.5" height="1.0" fill="#2e7d32"/>
<rect x="480.7" y="531.4" width="4.5" height="0.6" fill="#2e7d32" opacity="0.55"/>
<line x1="490.2" y1="367.3" x2="490.2" y2="367.3" stroke="#2e7d32" stroke-width="1"/>
<rect x="488.0" y="367.3" width="4.5" height="1.0" fill="#2e7d32"/>
<rect x="488.0" y="509.6" width="4.5" height="22.4" fill="#2e7d32" opacity="0.55"/>
<line x1="497.5" y1="333.5" x2="497.5" y2="360.6" stroke="#2e7d32" stroke-width="1"/>
<rect x="495.2" y="336.9" width="4.5" height="23.7" fill="#2e7d32"/>
<rect x="495.2" y="454.4" width="4.5" height="77.6" fill="#2e7d32" opacity="0.55"/>
<line x1="504.8" y1="347.0" x2="504.8" y2="347.0" stroke="#2e7d32" stroke-width="1"/>
<rect x="502.5" y="347.0" width="4.5" height="1.0" fill="#2e7d32"/>
<rect x="502.5" y="530.2" width="4.5" height="1.8" fill="#2e7d32" opacity="0.55"/>
<line x1="512.1" y1="337.1" x2="512.1" y2="337.1" stroke="#2e7d32" stroke-width="1"/>
<rect x="509.8" y="337.1" width="4.5" height="1.0" fill="#2e7d32"/>
<rect x="509.8" y="527.0" width="4.5" height="5.0" fill="#2e7d32" opacity="0.55"/>
<line x1="519.4" y1="343.6" x2="519.4" y2="343.6" stroke="#2e7d32" stroke-width="1"/>
<rect x="517.1" y="343.6" width="4.5" height="1.0" fill="#2e7d32"/>
<rect x="517.1" y="526.3" width="4.5" height="5.7" fill="#2e7d32" opacity="0.55"/>
<line x1="526.6" y1="336.9" x2="526.6" y2="336.9" stroke="#2e7d32" stroke-width="1"/>
<rect x="524.4" y="336.9" width="4.5" height="1.0" fill="#2e7d32"/>
<rect x="524.4" y="507.6" width="4.5" height="24.4" fill="#2e7d32" opacity="0.55"/>
<line x1="533.9" y1="319.9" x2="533.9" y2="333.5" stroke="#2e7d32" stroke-width="1"/>
<rect x="531.7" y="321.6" width="4.5" height="11.9" fill="#2e7d32"/>
<rect x="531.7" y="520.8" width="4.5" height="11.2" fill="#2e7d32" opacity="0.55"/>
<line x1="541.2" y1="316.5" x2="541.2" y2="323.3" stroke="#c62828" stroke-width="1"/>
<rect x="539.0" y="316.5" width="4.5" height="6.8" fill="#c62828"/>
<rect x="539.0" y="530.1" width="4.5" height="1.9" fill="#c62828" opacity="0.55"/>
<line x1="548.5" y1="323.3" x2="548.5" y2="323.3" stroke="#2e7d32" stroke-width="1"/>
<rect x="546.2" y="323.3" width="4.5" height="1.0" fill="#2e7d32"/>
<rect x="546.2" y="523.6" width="4.5" height="8.4" fill="#2e7d32" opacity="0.55"/>
<line x1="555.8" y1="326.7" x2="555.8" y2="326.7" stroke="#2e7d32" stroke-width="1"/>
<rect x="553.5" y="326.7" width="4.5" height="1.0" fill="#2e7d32"/>
<rect x="553.5" y="525.1" width="4.5" height="6.9" fill="#2e7d32" opacity="0.55"/>
<line x1="563.1" y1="318.2" x2="563.1" y2="318.2" stroke="#2e7d32" stroke-width="1"/>
<rect x="560.8" y="318.2" width="4.5" height="1.0" fill="#2e7d32"/>
<rect x="560.8" y="531.4" width="4.5" height="0.6" fill="#2e7d32" opacity="0.55"/>
<line x1="570.4" y1="316.5" x2="570.4" y2="316.5" stroke="#2e7d32" stroke-width="1"/>
<rect x="568.1" y="316.5" width="4.5" height="1.0" fill="#2e7d32"/>
<rect x="568.1" y="521.9" width="4.5" height="10.1" fill="#2e7d32" opacity="0.55"/>
<line x1="577.6" y1="323.3" x2="577.6" y2="323.3" stroke="#2e7d32" stroke-width="1"/>
<rect x="575.4" y="323.3" width="4.5" height="1.0" fill="#2e7d32"/>
<rect x="575.4" y="525.3" width="4.5" height="6.7" fill="#2e7d32" opacity="0.55"/>
<line x1="584.9" y1="316.5" x2="584.9" y2="316.5" stroke="#2e7d32" stroke-width="1"/>
<rect x="582.7" y="316.5" width="4.5" height="1.0" fill="#2e7d32"/>
<rect x="582.7" y="530.7" width="4.5" height="1.3" fill="#2e7d32" opacity="0.55"/>
<line x1="592.2" y1="316.5" x2="592.2" y2="316.5" stroke="#2e7d32" stroke-width="1"/>
<rect x="590.0" y="316.5" width="4.5" height="1.0" fill="#2e7d32"/>
<rect x="590.0" y="531.6" width="4.5" height="0.4" fill="#2e7d32" opacity="0.55"/>
<line x1="599.5" y1="306.4" x2="599.5" y2="316.5" stroke="#2e7d32" stroke-width="1"/>
<rect x="597.2" y="306.4" width="4.5" height="10.2" fill="#2e7d32"/>
<rect x="597.2" y="514.8" width="4.5" height="17.2" fill="#2e7d32" opacity="0.55"/>
<line x1="606.8" y1="306.4" x2="606.8" y2="306.4" stroke="#2e7d32" stroke-width="1"/>
<rect x="604.5" y="306.4" width="4.5" height="1.0" fill="#2e7d32"/>
<rect x="604.5" y="532.0" width="4.5" height="0.0" fill="#2e7d32" opacity="0.55"/>
<line x1="614.1" y1="306.4" x2="614.1" y2="306.4" stroke="#2e7d32" stroke-width="1"/>
<rect x="611.8" y="306.4" width="4.5" height="1.0" fill="#2e7d32"/>
<rect x="611.8" y="532.0" width="4.5" height="0.0" fill="#2e7d32" opacity="0.55"/>
<line x1="621.4" y1="164.1" x2="621.4" y2="306.4" stroke="#2e7d32" stroke-width="1"/>
<rect x="619.1" y="191.2" width="4.5" height="88.0" fill="#2e7d32"/>
<rect x="619.1" y="532.0" width="4.5" height="0.0" fill="#2e7d32" opacity="0.55"/>
<line x1="628.6" y1="116.7" x2="628.6" y2="248.8" stroke="#2e7d32" stroke-width="1"/>
<rect x="626.4" y="136.9" width="4.5" height="57.6" fill="#2e7d32"/>
<rect x="626.4" y="532.0" width="4.5" height="0.0" fill="#2e7d32" opacity="0.55"/>
<line x1="635.9" y1="93.0" x2="635.9" y2="170.9" stroke="#2e7d32" stroke-width="1"/>
<rect x="633.7" y="114.3" width="4.5" height="19.3" fill="#2e7d32"/>
<rect x="633.7" y="532.0" width="4.5" height="0.0" fill="#2e7d32" opacity="0.55"/>
<line x1="643.2" y1="99.7" x2="643.2" y2="174.3" stroke="#c62828" stroke-width="1"/>
<rect x="641.0" y="116.7" width="4.5" height="13.5" fill="#c62828"/>
<rect x="641.0" y="532.0" width="4.5" height="0.0" fill="#c62828" opacity="0.55"/>
<line x1="650.5" y1="126.8" x2="650.5" y2="211.5" stroke="#c62828" stroke-width="1"/>
<rect x="648.2" y="130.2" width="4.5" height="81.3" fill="#c62828"/>
<rect x="648.2" y="532.0" width="4.5" height="0.0" fill="#c62828" opacity="0.55"/>
<line x1="657.8" y1="184.4" x2="657.8" y2="221.7" stroke="#2e7d32" stroke-width="1"/>
<rect x="655.5" y="194.6" width="4.5" height="13.5" fill="#2e7d32"/>
<rect x="655.5" y="532.0" width="4.5" height="0.0" fill="#2e7d32" opacity="0.55"/>
<line x1="665.1" y1="133.6" x2="665.1" y2="218.3" stroke="#2e7d32" stroke-width="1"/>
<rect x="662.8" y="143.8" width="4.5" height="50.8" fill="#2e7d32"/>
<rect x="662.8" y="532.0" width="4.5" height="0.0" fill="#2e7d32" opacity="0.55"/>
<line x1="672.4" y1="99.7" x2="672.4" y2="167.5" stroke="#2e7d32" stroke-width="1"/>
<rect x="670.1" y="126.8" width="4.5" height="16.9" fill="#2e7d32"/>
<rect x="670.1" y="532.0" width="4.5" height="0.0" fill="#2e7d32" opacity="0.55"/>
<line x1="679.6" y1="62.5" x2="679.6" y2="130.2" stroke="#2e7d32" stroke-width="1"/>
<rect x="677.4" y="62.5" width="4.5" height="67.7" fill="#2e7d32"/>
<rect x="677.4" y="532.0" width="4.5" height="0.0" fill="#2e7d32" opacity="0.55"/>
<line x1="686.9" y1="55.7" x2="686.9" y2="133.6" stroke="#c62828" stroke-width="1"/>
<rect x="684.7" y="62.5" width="4.5" height="64.5" fill="#c62828"/>
<rect x="684.7" y="532.0" width="4.5" height="0.0" fill="#c62828" opacity="0.55"/>
<line x1="694.2" y1="113.3" x2="694.2" y2="143.8" stroke="#c62828" stroke-width="1"/>
<rect x="692.0" y="126.8" width="4.5" height="6.7" fill="#c62828"/>
<rect x="692.0" y="532.0" width="4.5" height="0.0" fill="#c62828" opacity="0.55"/>
<line x1="701.5" y1="120.1" x2="701.5" y2="160.7" stroke="#c62828" stroke-width="1"/>
<rect x="699.2" y="133.5" width="4.5" height="6.9" fill="#c62828"/>
<rect x="699.2" y="532.0" width="4.5" height="0.0" fill="#c62828" opacity="0.55"/>
<line x1="708.8" y1="109.9" x2="708.8" y2="143.8" stroke="#2e7d32" stroke-width="1"/>
<rect x="706.5" y="115.0" width="4.5" height="26.1" fill="#2e7d32"/>
<rect x="706.5" y="532.0" width="4.5" height="0.0" fill="#2e7d32" opacity="0.55"/>
<line x1="716.1" y1="103.1" x2="716.1" y2="177.7" stroke="#c62828" stroke-width="1"/>
<rect x="713.8" y="115.0" width="4.5" height="42.3" fill="#c62828"/>
<rect x="713.8" y="532.0" width="4.5" height="0.0" fill="#c62828" opacity="0.55"/>
<line x1="723.4" y1="150.6" x2="723.4" y2="191.2" stroke="#2e7d32" stroke-width="1"/>
<rect x="721.1" y="153.9" width="4.5" height="6.7" fill="#2e7d32"/>
<rect x="721.1" y="532.0" width="4.5" height="0.0" fill="#2e7d32" opacity="0.55"/>
<line x1="730.6" y1="153.9" x2="730.6" y2="181.0" stroke="#c62828" stroke-width="1"/>
<rect x="728.4" y="154.0" width="4.5" height="6.7" fill="#c62828"/>
<rect x="728.4" y="532.0" width="4.5" height="0.0" fill="#c62828" opacity="0.55"/>
<line x1="737.9" y1="147.2" x2="737.9" y2="181.1" stroke="#c62828" stroke-width="1"/>
<rect x="735.7" y="157.3" width="4.5" height="4.4" fill="#c62828"/>
<rect x="735.7" y="532.0" width="4.5" height="0.0" fill="#c62828" opacity="0.55"/>
<line x1="745.2" y1="143.8" x2="745.2" y2="170.9" stroke="#2e7d32" stroke-width="1"/>
<rect x="743.0" y="164.1" width="4.5" height="1.0" fill="#2e7d32"/>
<rect x="743.0" y="532.0" width="4.5" height="0.0" fill="#2e7d32" opacity="0.55"/>
<line x1="752.5" y1="160.7" x2="752.5" y2="177.7" stroke="#2e7d32" stroke-width="1"/>
<rect x="750.2" y="160.7" width="4.5" height="1.0" fill="#2e7d32"/>
<rect x="750.2" y="532.0" width="4.5" height="0.0" fill="#2e7d32" opacity="0.55"/>
<line x1="759.8" y1="143.8" x2="759.8" y2="164.1" stroke="#2e7d32" stroke-width="1"/>
<rect x="757.5" y="143.8" width="4.5" height="19.3" fill="#2e7d32"/>
<rect x="757.5" y="532.0" width="4.5" height="0.0" fill="#2e7d32" opacity="0.55"/>
<line x1="767.1" y1="143.8" x2="767.1" y2="187.9" stroke="#c62828" stroke-width="1"/>
<rect x="764.8" y="143.8" width="4.5" height="37.2" fill="#c62828"/>
<rect x="764.8" y="532.0" width="4.5" height="0.0" fill="#c62828" opacity="0.55"/>
<line x1="774.4" y1="157.3" x2="774.4" y2="184.4" stroke="#2e7d32" stroke-width="1"/>
<rect x="772.1" y="167.6" width="4.5" height="10.1" fill="#2e7d32"/>
<rect x="772.1" y="532.0" width="4.5" height="0.0" fill="#2e7d32" opacity="0.55"/>
<line x1="781.6" y1="160.7" x2="781.6" y2="170.9" stroke="#2e7d32" stroke-width="1"/>
<rect x="779.4" y="164.1" width="4.5" height="6.8" fill="#2e7d32"/>
<rect x="779.4" y="532.0" width="4.5" height="0.0" fill="#2e7d32" opacity="0.55"/>
<line x1="788.9" y1="150.6" x2="788.9" y2="170.9" stroke="#2e7d32" stroke-width="1"/>
<rect x="786.7" y="157.3" width="4.5" height="13.6" fill="#2e7d32"/>
<rect x="786.7" y="532.0" width="4.5" height="0.0" fill="#2e7d32" opacity="0.55"/>
<line x1="796.2" y1="153.9" x2="796.2" y2="177.7" stroke="#c62828" stroke-width="1"/>
<rect x="794.0" y="157.3" width="4.5" height="20.3" fill="#c62828"/>
<rect x="794.0" y="532.0" width="4.5" height="0.0" fill="#c62828" opacity="0.55"/>
<line x1="803.5" y1="164.1" x2="803.5" y2="181.0" stroke="#2e7d32" stroke-width="1"/>
<rect x="801.2" y="174.3" width="4.5" height="3.4" fill="#2e7d32"/>
<rect x="801.2" y="532.0" width="4.5" height="0.0" fill="#2e7d32" opacity="0.55"/>
<line x1="810.8" y1="167.5" x2="810.8" y2="184.4" stroke="#2e7d32" stroke-width="1"/>
<rect x="808.5" y="170.8" width="4.5" height="6.4" fill="#2e7d32"/>
<rect x="808.5" y="532.0" width="4.5" height="0.0" fill="#2e7d32" opacity="0.55"/>
<line x1="818.1" y1="164.1" x2="818.1" y2="177.7" stroke="#c62828" stroke-width="1"/>
<rect x="815.8" y="170.9" width="4.5" height="3.4" fill="#c62828"/>
<rect x="815.8" y="532.0" width="4.5" height="0.0" fill="#c62828" opacity="0.55"/>
<line x1="825.4" y1="170.9" x2="825.4" y2="184.4" stroke="#2e7d32" stroke-width="1"/>
<rect x="823.1" y="174.3" width="4.5" height="1.0" fill="#2e7d32"/>
<rect x="823.1" y="532.0" width="4.5" height="0.0" fill="#2e7d32" opacity="0.55"/>
<line x1="832.6" y1="130.2" x2="832.6" y2="174.3" stroke="#2e7d32" stroke-width="1"/>
<rect x="830.4" y="147.2" width="4.5" height="27.1" fill="#2e7d32"/>
<rect x="830.4" y="532.0" width="4.5" height="0.0" fill="#2e7d32" opacity="0.55"/>
<line x1="839.9" y1="133.6" x2="839.9" y2="157.3" stroke="#c62828" stroke-width="1"/>
<rect x="837.7" y="143.8" width="4.5" height="6.8" fill="#c62828"/>
<rect x="837.7" y="532.0" width="4.5" height="0.0" fill="#c62828" opacity="0.55"/>
<line x1="847.2" y1="150.6" x2="847.2" y2="164.1" stroke="#c62828" stroke-width="1"/>
<rect x="845.0" y="150.6" width="4.5" height="6.8" fill="#c62828"/>
<rect x="845.0" y="532.0" width="4.5" height="0.0" fill="#c62828" opacity="0.55"/>
<line x1="854.5" y1="140.4" x2="854.5" y2="170.9" stroke="#2e7d32" stroke-width="1"/>
<rect x="852.2" y="141.5" width="4.5" height="19.4" fill="#2e7d32"/>
<rect x="852.2" y="532.0" width="4.5" height="0.0" fill="#2e7d32" opacity="0.55"/>
<line x1="861.8" y1="140.4" x2="861.8" y2="157.3" stroke="#c62828" stroke-width="1"/>
<rect x="859.5" y="143.7" width="4.5" height="10.3" fill="#c62828"/>
<rect x="859.5" y="532.0" width="4.5" height="0.0" fill="#c62828" opacity="0.55"/>
<line x1="869.1" y1="153.9" x2="869.1" y2="164.1" stroke="#2e7d32" stroke-width="1"/>
<rect x="866.8" y="153.9" width="4.5" height="1.0" fill="#2e7d32"/>
<rect x="866.8" y="532.0" width="4.5" height="0.0" fill="#2e7d32" opacity="0.55"/>
<line x1="876.4" y1="153.9" x2="876.4" y2="167.5" stroke="#c62828" stroke-width="1"/>
<rect x="874.1" y="154.0" width="4.5" height="7.2" fill="#c62828"/>
<rect x="874.1" y="532.0" width="4.5" height="0.0" fill="#c62828" opacity="0.55"/>
<line x1="883.6" y1="157.3" x2="883.6" y2="167.5" stroke="#2e7d32" stroke-width="1"/>
<rect x="881.4" y="160.7" width="4.5" height="6.8" fill="#2e7d32"/>
<rect x="881.4" y="532.0" width="4.5" height="0.0" fill="#2e7d32" opacity="0.55"/>
<line x1="890.9" y1="157.3" x2="890.9" y2="167.5" stroke="#c62828" stroke-width="1"/>
<rect x="888.7" y="157.3" width="4.5" height="10.2" fill="#c62828"/>
<rect x="888.7" y="532.0" width="4.5" height="0.0" fill="#c62828" opacity="0.55"/>
<line x1="898.2" y1="157.3" x2="898.2" y2="167.5" stroke="#2e7d32" stroke-width="1"/>
<rect x="896.0" y="160.7" width="4.5" height="6.7" fill="#2e7d32"/>
<rect x="896.0" y="532.0" width="4.5" height="0.0" fill="#2e7d32" opacity="0.55"/>
<line x1="905.5" y1="150.6" x2="905.5" y2="165.1" stroke="#2e7d32" stroke-width="1"/>
<rect x="903.2" y="160.7" width="4.5" height="1.0" fill="#2e7d32"/>
<rect x="903.2" y="532.0" width="4.5" height="0.0" fill="#2e7d32" opacity="0.55"/>
<line x1="912.8" y1="150.6" x2="912.8" y2="160.7" stroke="#2e7d32" stroke-width="1"/>
<rect x="910.5" y="153.9" width="4.5" height="6.8" fill="#2e7d32"/>
<rect x="910.5" y="532.0" width="4.5" height="0.0" fill="#2e7d32" opacity="0.55"/>
<line x1="920.1" y1="137.0" x2="920.1" y2="157.3" stroke="#2e7d32" stroke-width="1"/>
<rect x="917.8" y="140.4" width="4.5" height="13.5" fill="#2e7d32"/>
<rect x="917.8" y="532.0" width="4.5" height="0.0" fill="#2e7d32" opacity="0.55"/>
<line x1="927.4" y1="137.1" x2="927.4" y2="153.9" stroke="#c62828" stroke-width="1"/>
<rect x="925.1" y="140.4" width="4.5" height="6.8" fill="#c62828"/>
<rect x="925.1" y="532.0" width="4.5" height="0.0" fill="#c62828" opacity="0.55"/>
<line x1="934.6" y1="143.8" x2="934.6" y2="157.3" stroke="#c62828" stroke-width="1"/>
<rect x="932.4" y="147.3" width="4.5" height="3.3" fill="#c62828"/>
<rect x="932.4" y="532.0" width="4.5" height="0.0" fill="#c62828" opacity="0.55"/>
<line x1="941.9" y1="126.8" x2="941.9" y2="147.2" stroke="#2e7d32" stroke-width="1"/>
<rect x="939.7" y="130.2" width="4.5" height="16.9" fill="#2e7d32"/>
<rect x="939.7" y="532.0" width="4.5" height="0.0" fill="#2e7d32" opacity="0.55"/>
<line x1="949.2" y1="113.3" x2="949.2" y2="231.9" stroke="#c62828" stroke-width="1"/>
<rect x="947.0" y="140.5" width="4.5" height="40.7" fill="#c62828"/>
<rect x="947.0" y="532.0" width="4.5" height="0.0" fill="#c62828" opacity="0.55"/>
<line x1="956.5" y1="184.0" x2="956.5" y2="214.9" stroke="#c62828" stroke-width="1"/>
<rect x="954.2" y="184.4" width="4.5" height="10.8" fill="#c62828"/>
<rect x="954.2" y="532.0" width="4.5" height="0.0" fill="#c62828" opacity="0.55"/>
<line x1="963.8" y1="181.9" x2="963.8" y2="204.8" stroke="#c62828" stroke-width="1"/>
<rect x="961.5" y="197.8" width="4.5" height="6.7" fill="#c62828"/>
<rect x="961.5" y="532.0" width="4.5" height="0.0" fill="#c62828" opacity="0.55"/>
<line x1="971.1" y1="201.4" x2="971.1" y2="218.3" stroke="#c62828" stroke-width="1"/>
<rect x="968.8" y="204.4" width="4.5" height="1.0" fill="#c62828"/>
<rect x="968.8" y="532.0" width="4.5" height="0.0" fill="#c62828" opacity="0.55"/>
<line x1="978.4" y1="191.2" x2="978.4" y2="208.1" stroke="#2e7d32" stroke-width="1"/>
<rect x="976.1" y="194.0" width="4.5" height="14.0" fill="#2e7d32"/>
<rect x="976.1" y="532.0" width="4.5" height="0.0" fill="#2e7d32" opacity="0.55"/>
<line x1="985.6" y1="191.2" x2="985.6" y2="194.6" stroke="#c62828" stroke-width="1"/>
<rect x="983.4" y="194.4" width="4.5" height="1.0" fill="#c62828"/>
<rect x="983.4" y="532.0" width="4.5" height="0.0" fill="#c62828" opacity="0.55"/>
<line x1="992.9" y1="170.9" x2="992.9" y2="194.6" stroke="#2e7d32" stroke-width="1"/>
<rect x="990.7" y="170.9" width="4.5" height="20.5" fill="#2e7d32"/>
<rect x="990.7" y="532.0" width="4.5" height="0.0" fill="#2e7d32" opacity="0.55"/>
<line x1="1000.2" y1="147.2" x2="1000.2" y2="181.0" stroke="#2e7d32" stroke-width="1"/>
<rect x="998.0" y="160.7" width="4.5" height="13.5" fill="#2e7d32"/>
<rect x="998.0" y="532.0" width="4.5" height="0.0" fill="#2e7d32" opacity="0.55"/>
<line x1="1007.5" y1="157.2" x2="1007.5" y2="198.0" stroke="#c62828" stroke-width="1"/>
<rect x="1005.2" y="160.7" width="4.5" height="33.9" fill="#c62828"/>
<rect x="1005.2" y="532.0" width="4.5" height="0.0" fill="#c62828" opacity="0.55"/>
<line x1="1014.8" y1="191.2" x2="1014.8" y2="208.1" stroke="#c62828" stroke-width="1"/>
<rect x="1012.5" y="194.6" width="4.5" height="10.0" fill="#c62828"/>
<rect x="1012.5" y="532.0" width="4.5" height="0.0" fill="#c62828" opacity="0.55"/>
<line x1="1022.1" y1="201.4" x2="1022.1" y2="214.9" stroke="#c62828" stroke-width="1"/>
<rect x="1019.8" y="201.5" width="4.5" height="7.6" fill="#c62828"/>
<rect x="1019.8" y="532.0" width="4.5" height="0.0" fill="#c62828" opacity="0.55"/>
<line x1="1029.4" y1="198.0" x2="1029.4" y2="211.5" stroke="#2e7d32" stroke-width="1"/>
<rect x="1027.1" y="201.2" width="4.5" height="10.3" fill="#2e7d32"/>
<rect x="1027.1" y="532.0" width="4.5" height="0.0" fill="#2e7d32" opacity="0.55"/>
<line x1="1036.6" y1="194.6" x2="1036.6" y2="201.4" stroke="#c62828" stroke-width="1"/>
<rect x="1034.4" y="198.2" width="4.5" height="3.2" fill="#c62828"/>
<rect x="1034.4" y="532.0" width="4.5" height="0.0" fill="#c62828" opacity="0.55"/>
<line x1="1043.9" y1="198.0" x2="1043.9" y2="211.5" stroke="#c62828" stroke-width="1"/>
<rect x="1041.7" y="201.4" width="4.5" height="10.2" fill="#c62828"/>
<rect x="1041.7" y="532.0" width="4.5" height="0.0" fill="#c62828" opacity="0.55"/>
<line x1="1051.2" y1="194.8" x2="1051.2" y2="221.7" stroke="#2e7d32" stroke-width="1"/>
<rect x="1049.0" y="201.4" width="4.5" height="10.2" fill="#2e7d32"/>
<rect x="1049.0" y="532.0" width="4.5" height="0.0" fill="#2e7d32" opacity="0.55"/>
<line x1="1058.5" y1="198.2" x2="1058.5" y2="211.5" stroke="#c62828" stroke-width="1"/>
<rect x="1056.2" y="198.2" width="4.5" height="12.9" fill="#c62828"/>
<rect x="1056.2" y="532.0" width="4.5" height="0.0" fill="#c62828" opacity="0.55"/>
<line x1="1065.8" y1="201.4" x2="1065.8" y2="211.5" stroke="#2e7d32" stroke-width="1"/>
<rect x="1063.5" y="204.9" width="4.5" height="6.4" fill="#2e7d32"/>
<rect x="1063.5" y="532.0" width="4.5" height="0.0" fill="#2e7d32" opacity="0.55"/>
<line x1="1073.1" y1="204.8" x2="1073.1" y2="208.1" stroke="#c62828" stroke-width="1"/>
<rect x="1070.8" y="204.8" width="4.5" height="3.2" fill="#c62828"/>
<rect x="1070.8" y="532.0" width="4.5" height="0.0" fill="#c62828" opacity="0.55"/>
<line x1="1080.4" y1="211.4" x2="1080.4" y2="211.4" stroke="#2e7d32" stroke-width="1"/>
<rect x="1078.1" y="211.4" width="4.5" height="1.0" fill="#2e7d32"/>
<rect x="1078.1" y="532.0" width="4.5" height="0.0" fill="#2e7d32" opacity="0.55"/>
<line x1="64" y1="532" x2="1084" y2="532" stroke="#ccc"/>
<text x="58" y="420" font-size="9" fill="#999" text-anchor="end">0.0M</text>
<line x1="67.6" y1="532" x2="67.6" y2="536" stroke="#999"/>
<text x="67.6" y="547.0" font-size="9" fill="#666" text-anchor="middle">07/08 04:00</text>
<line x1="235.2" y1="532" x2="235.2" y2="536" stroke="#999"/>
<text x="235.2" y="547.0" font-size="9" fill="#666" text-anchor="middle">08:55</text>
<line x1="402.8" y1="532" x2="402.8" y2="536" stroke="#999"/>
<text x="402.8" y="547.0" font-size="9" fill="#666" text-anchor="middle">11:35</text>
<line x1="570.4" y1="532" x2="570.4" y2="536" stroke="#999"/>
<text x="570.4" y="547.0" font-size="9" fill="#666" text-anchor="middle">14:45</text>
<line x1="737.9" y1="532" x2="737.9" y2="536" stroke="#999"/>
<text x="737.9" y="547.0" font-size="9" fill="#666" text-anchor="middle">17:35</text>
<line x1="905.5" y1="532" x2="905.5" y2="536" stroke="#999"/>
<text x="905.5" y="547.0" font-size="9" fill="#666" text-anchor="middle">19:30</text>
<line x1="1073.1" y1="532" x2="1073.1" y2="536" stroke="#999"/>
<text x="1073.1" y="547.0" font-size="9" fill="#666" text-anchor="middle">07/09 05:25</text>
<text x="64" y="22" font-size="15" font-weight="bold" fill="#1a1a1a">SUNE - SUNation Energy Inc.</text>
<text x="1084" y="22" font-size="11" fill="#666" text-anchor="end">last $2.39 (+16.6% over window)</text>
<rect x="934" y="28" width="10" height="8" fill="#e8f0fe"/>
<text x="948" y="35" font-size="9" fill="#666">premarket</text>
<rect x="1006" y="28" width="10" height="8" fill="#fff4e0"/>
<text x="1020" y="35" font-size="9" fill="#666">after-hrs</text>
</svg>