<svg xmlns="http://www.w3.org/2000/svg" width="1100" height="560" viewBox="0 0 1100 560" font-family="Arial,Helvetica,sans-serif">
<rect width="1100" height="560" fill="white"/>
<rect x="64.0" y="36" width="120.8" height="496.0" fill="#e8f0fe"/>
<rect x="399.5" y="36" width="275.1" height="496.0" fill="#fff4e0"/>
<rect x="674.7" y="36" width="409.3" height="496.0" fill="#e8f0fe"/>
<line x1="64" y1="404.0" x2="1084" y2="404.0" stroke="#e6e6e6"/>
<text x="58" y="407.0" font-size="10" fill="#666" text-anchor="end">$1.11</text>
<line x1="64" y1="312.0" x2="1084" y2="312.0" stroke="#e6e6e6"/>
<text x="58" y="315.0" font-size="10" fill="#666" text-anchor="end">$1.50</text>
<line x1="64" y1="220.0" x2="1084" y2="220.0" stroke="#e6e6e6"/>
<text x="58" y="223.0" font-size="10" fill="#666" text-anchor="end">$1.89</text>
<line x1="64" y1="128.0" x2="1084" y2="128.0" stroke="#e6e6e6"/>
<text x="58" y="131.0" font-size="10" fill="#666" text-anchor="end">$2.28</text>
<line x1="64" y1="36.0" x2="1084" y2="36.0" stroke="#e6e6e6"/>
<text x="58" y="39.0" font-size="10" fill="#666" text-anchor="end">$2.67</text>
<line x1="67.4" y1="339.7" x2="67.4" y2="339.7" stroke="#2e7d32" stroke-width="1"/>
<rect x="65.3" y="339.7" width="4.2" height="1.0" fill="#2e7d32"/>
<rect x="65.3" y="532.0" width="4.2" height="0.0" fill="#2e7d32" opacity="0.55"/>
<line x1="74.1" y1="353.5" x2="74.1" y2="353.5" stroke="#2e7d32" stroke-width="1"/>
<rect x="72.0" y="353.5" width="4.2" height="1.0" fill="#2e7d32"/>
<rect x="72.0" y="532.0" width="4.2" height="0.0" fill="#2e7d32" opacity="0.55"/>
<line x1="80.8" y1="316.2" x2="80.8" y2="316.2" stroke="#2e7d32" stroke-width="1"/>
<rect x="78.7" y="316.2" width="4.2" height="1.0" fill="#2e7d32"/>
<rect x="78.7" y="532.0" width="4.2" height="0.0" fill="#2e7d32" opacity="0.55"/>
<line x1="87.5" y1="318.6" x2="87.5" y2="321.9" stroke="#c62828" stroke-width="1"/>
<rect x="85.4" y="318.6" width="4.2" height="3.4" fill="#c62828"/>
<rect x="85.4" y="532.0" width="4.2" height="0.0" fill="#c62828" opacity="0.55"/>
<line x1="94.2" y1="318.6" x2="94.2" y2="318.6" stroke="#2e7d32" stroke-width="1"/>
<rect x="92.1" y="318.6" width="4.2" height="1.0" fill="#2e7d32"/>
<rect x="92.1" y="532.0" width="4.2" height="0.0" fill="#2e7d32" opacity="0.55"/>
<line x1="100.9" y1="346.5" x2="100.9" y2="346.5" stroke="#2e7d32" stroke-width="1"/>
<rect x="98.8" y="346.5" width="4.2" height="1.0" fill="#2e7d32"/>
<rect x="98.8" y="532.0" width="4.2" height="0.0" fill="#2e7d32" opacity="0.55"/>
<line x1="107.6" y1="346.7" x2="107.6" y2="346.7" stroke="#2e7d32" stroke-width="1"/>
<rect x="105.5" y="346.7" width="4.2" height="1.0" fill="#2e7d32"/>
<rect x="105.5" y="532.0" width="4.2" height="0.0" fill="#2e7d32" opacity="0.55"/>
<line x1="114.3" y1="318.6" x2="114.3" y2="346.7" stroke="#2e7d32" stroke-width="1"/>
<rect x="112.2" y="318.6" width="4.2" height="28.2" fill="#2e7d32"/>
<rect x="112.2" y="532.0" width="4.2" height="0.0" fill="#2e7d32" opacity="0.55"/>
<line x1="121.0" y1="342.0" x2="121.0" y2="342.0" stroke="#2e7d32" stroke-width="1"/>
<rect x="119.0" y="342.0" width="4.2" height="1.0" fill="#2e7d32"/>
<rect x="119.0" y="532.0" width="4.2" height="0.0" fill="#2e7d32" opacity="0.55"/>
<line x1="127.8" y1="342.0" x2="127.8" y2="349.1" stroke="#c62828" stroke-width="1"/>
<rect x="125.7" y="342.0" width="4.2" height="7.0" fill="#c62828"/>
<rect x="125.7" y="532.0" width="4.2" height="0.0" fill="#c62828" opacity="0.55"/>
<line x1="134.5" y1="349.1" x2="134.5" y2="360.0" stroke="#c62828" stroke-width="1"/>
<rect x="132.4" y="349.1" width="4.2" height="10.9" fill="#c62828"/>
<rect x="132.4" y="532.0" width="4.2" height="0.0" fill="#c62828" opacity="0.55"/>
<line x1="141.2" y1="358.8" x2="141.2" y2="358.8" stroke="#2e7d32" stroke-width="1"/>
<rect x="139.1" y="358.8" width="4.2" height="1.0" fill="#2e7d32"/>
<rect x="139.1" y="532.0" width="4.2" height="0.0" fill="#2e7d32" opacity="0.55"/>
<line x1="147.9" y1="358.8" x2="147.9" y2="358.8" stroke="#2e7d32" stroke-width="1"/>
<rect x="145.8" y="358.8" width="4.2" height="1.0" fill="#2e7d32"/>
<rect x="145.8" y="532.0" width="4.2" height="0.0" fill="#2e7d32" opacity="0.55"/>
<line x1="154.6" y1="358.8" x2="154.6" y2="358.8" stroke="#2e7d32" stroke-width="1"/>
<rect x="152.5" y="358.8" width="4.2" height="1.0" fill="#2e7d32"/>
<rect x="152.5" y="532.0" width="4.2" height="0.0" fill="#2e7d32" opacity="0.55"/>
<line x1="161.3" y1="360.8" x2="161.3" y2="360.8" stroke="#2e7d32" stroke-width="1"/>
<rect x="159.2" y="360.8" width="4.2" height="1.0" fill="#2e7d32"/>
<rect x="159.2" y="532.0" width="4.2" height="0.0" fill="#2e7d32" opacity="0.55"/>
<line x1="168.0" y1="358.8" x2="168.0" y2="358.8" stroke="#2e7d32" stroke-width="1"/>
<rect x="165.9" y="358.8" width="4.2" height="1.0" fill="#2e7d32"/>
<rect x="165.9" y="532.0" width="4.2" height="0.0" fill="#2e7d32" opacity="0.55"/>
<line x1="174.7" y1="352.3" x2="174.7" y2="352.3" stroke="#2e7d32" stroke-width="1"/>
<rect x="172.6" y="352.3" width="4.2" height="1.0" fill="#2e7d32"/>
<rect x="172.6" y="532.0" width="4.2" height="0.0" fill="#2e7d32" opacity="0.55"/>
<line x1="181.4" y1="353.8" x2="181.4" y2="353.8" stroke="#2e7d32" stroke-width="1"/>
<rect x="179.4" y="353.8" width="4.2" height="1.0" fill="#2e7d32"/>
<rect x="179.4" y="532.0" width="4.2" height="0.0" fill="#2e7d32" opacity="0.55"/>
<line x1="188.1" y1="344.4" x2="188.1" y2="344.4" stroke="#2e7d32" stroke-width="1"/>
<rect x="186.1" y="344.4" width="4.2" height="1.0" fill="#2e7d32"/>
<rect x="186.1" y="519.2" width="4.2" height="12.8" fill="#2e7d32" opacity="0.55"/>
<line x1="194.9" y1="342.0" x2="194.9" y2="351.4" stroke="#c62828" stroke-width="1"/>
<rect x="192.8" y="342.0" width="4.2" height="9.4" fill="#c62828"/>
<rect x="192.8" y="525.5" width="4.2" height="6.5" fill="#c62828" opacity="0.55"/>
<line x1="201.6" y1="339.6" x2="201.6" y2="339.6" stroke="#2e7d32" stroke-width="1"/>
<rect x="199.5" y="339.6" width="4.2" height="1.0" fill="#2e7d32"/>
<rect x="199.5" y="529.5" width="4.2" height="2.5" fill="#2e7d32" opacity="0.55"/>
<line x1="208.3" y1="342.0" x2="208.3" y2="342.0" stroke="#2e7d32" stroke-width="1"/>
<rect x="206.2" y="342.0" width="4.2" height="1.0" fill="#2e7d32"/>
<rect x="206.2" y="530.9" width="4.2" height="1.1" fill="#2e7d32" opacity="0.55"/>
<line x1="215.0" y1="347.3" x2="215.0" y2="347.3" stroke="#2e7d32" stroke-width="1"/>
<rect x="212.9" y="347.3" width="4.2" height="1.0" fill="#2e7d32"/>
<rect x="212.9" y="531.2" width="4.2" height="0.8" fill="#2e7d32" opacity="0.55"/>
<line x1="221.7" y1="348.4" x2="221.7" y2="348.4" stroke="#2e7d32" stroke-width="1"/>
<rect x="219.6" y="348.4" width="4.2" height="1.0" fill="#2e7d32"/>
<rect x="219.6" y="531.4" width="4.2" height="0.6" fill="#2e7d32" opacity="0.55"/>
<line x1="228.4" y1="349.1" x2="228.4" y2="349.1" stroke="#2e7d32" stroke-width="1"/>
<rect x="226.3" y="349.1" width="4.2" height="1.0" fill="#2e7d32"/>
<rect x="226.3" y="530.7" width="4.2" height="1.3" fill="#2e7d32" opacity="0.55"/>
<line x1="235.1" y1="348.8" x2="235.1" y2="349.1" stroke="#2e7d32" stroke-width="1"/>
<rect x="233.0" y="348.8" width="4.2" height="1.0" fill="#2e7d32"/>
<rect x="233.0" y="517.4" width="4.2" height="14.6" fill="#2e7d32" opacity="0.55"/>
<line x1="241.8" y1="348.9" x2="241.8" y2="348.9" stroke="#2e7d32" stroke-width="1"/>
<rect x="239.7" y="348.9" width="4.2" height="1.0" fill="#2e7d32"/>
<rect x="239.7" y="532.0" width="4.2" height="0.0" fill="#2e7d32" opacity="0.55"/>
<line x1="248.5" y1="344.4" x2="248.5" y2="344.4" stroke="#2e7d32" stroke-width="1"/>
<rect x="246.5" y="344.4" width="4.2" height="1.0" fill="#2e7d32"/>
<rect x="246.5" y="531.2" width="4.2" height="0.8" fill="#2e7d32" opacity="0.55"/>
<line x1="255.2" y1="349.1" x2="255.2" y2="360.8" stroke="#c62828" stroke-width="1"/>
<rect x="253.2" y="349.1" width="4.2" height="9.4" fill="#c62828"/>
<rect x="253.2" y="498.6" width="4.2" height="33.4" fill="#c62828" opacity="0.55"/>
<line x1="262.0" y1="360.6" x2="262.0" y2="360.8" stroke="#2e7d32" stroke-width="1"/>
<rect x="259.9" y="360.6" width="4.2" height="1.0" fill="#2e7d32"/>
<rect x="259.9" y="505.0" width="4.2" height="27.0" fill="#2e7d32" opacity="0.55"/>
<line x1="268.7" y1="360.8" x2="268.7" y2="360.8" stroke="#2e7d32" stroke-width="1"/>
<rect x="266.6" y="360.8" width="4.2" height="1.0" fill="#2e7d32"/>
<rect x="266.6" y="530.0" width="4.2" height="2.0" fill="#2e7d32" opacity="0.55"/>
<line x1="275.4" y1="362.0" x2="275.4" y2="362.0" stroke="#2e7d32" stroke-width="1"/>
<rect x="273.3" y="362.0" width="4.2" height="1.0" fill="#2e7d32"/>
<rect x="273.3" y="531.2" width="4.2" height="0.8" fill="#2e7d32" opacity="0.55"/>
<line x1="282.1" y1="365.5" x2="282.1" y2="365.5" stroke="#2e7d32" stroke-width="1"/>
<rect x="280.0" y="365.5" width="4.2" height="1.0" fill="#2e7d32"/>
<rect x="280.0" y="519.9" width="4.2" height="12.1" fill="#2e7d32" opacity="0.55"/>
<line x1="288.8" y1="359.0" x2="288.8" y2="359.0" stroke="#2e7d32" stroke-width="1"/>
<rect x="286.7" y="359.0" width="4.2" height="1.0" fill="#2e7d32"/>
<rect x="286.7" y="526.3" width="4.2" height="5.7" fill="#2e7d32" opacity="0.55"/>
<line x1="295.5" y1="362.0" x2="295.5" y2="362.0" stroke="#2e7d32" stroke-width="1"/>
<rect x="293.4" y="362.0" width="4.2" height="1.0" fill="#2e7d32"/>
<rect x="293.4" y="531.5" width="4.2" height="0.5" fill="#2e7d32" opacity="0.55"/>
<line x1="302.2" y1="363.2" x2="302.2" y2="363.2" stroke="#2e7d32" stroke-width="1"/>
<rect x="300.1" y="363.2" width="4.2" height="1.0" fill="#2e7d32"/>
<rect x="300.1" y="531.0" width="4.2" height="1.0" fill="#2e7d32" opacity="0.55"/>
<line x1="308.9" y1="365.5" x2="308.9" y2="365.5" stroke="#2e7d32" stroke-width="1"/>
<rect x="306.9" y="365.5" width="4.2" height="1.0" fill="#2e7d32"/>
<rect x="306.9" y="529.1" width="4.2" height="2.9" fill="#2e7d32" opacity="0.55"/>
<line x1="315.6" y1="364.3" x2="315.6" y2="364.3" stroke="#2e7d32" stroke-width="1"/>
<rect x="313.6" y="364.3" width="4.2" height="1.0" fill="#2e7d32"/>
<rect x="313.6" y="530.1" width="4.2" height="1.9" fill="#2e7d32" opacity="0.55"/>
<line x1="322.4" y1="363.2" x2="322.4" y2="363.2" stroke="#2e7d32" stroke-width="1"/>
<rect x="320.3" y="363.2" width="4.2" height="1.0" fill="#2e7d32"/>
<rect x="320.3" y="530.5" width="4.2" height="1.5" fill="#2e7d32" opacity="0.55"/>
<line x1="329.1" y1="360.8" x2="329.1" y2="360.8" stroke="#2e7d32" stroke-width="1"/>
<rect x="327.0" y="360.8" width="4.2" height="1.0" fill="#2e7d32"/>
<rect x="327.0" y="529.4" width="4.2" height="2.6" fill="#2e7d32" opacity="0.55"/>
<line x1="335.8" y1="358.5" x2="335.8" y2="358.5" stroke="#2e7d32" stroke-width="1"/>
<rect x="333.7" y="358.5" width="4.2" height="1.0" fill="#2e7d32"/>
<rect x="333.7" y="528.0" width="4.2" height="4.0" fill="#2e7d32" opacity="0.55"/>
<line x1="342.5" y1="363.2" x2="342.5" y2="379.6" stroke="#c62828" stroke-width="1"/>
<rect x="340.4" y="363.2" width="4.2" height="11.7" fill="#c62828"/>
<rect x="340.4" y="412.0" width="4.2" height="120.0" fill="#c62828" opacity="0.55"/>
<line x1="349.2" y1="379.6" x2="349.2" y2="380.8" stroke="#c62828" stroke-width="1"/>
<rect x="347.1" y="379.6" width="4.2" height="1.2" fill="#c62828"/>
<rect x="347.1" y="526.3" width="4.2" height="5.7" fill="#c62828" opacity="0.55"/>
<line x1="355.9" y1="378.4" x2="355.9" y2="378.4" stroke="#2e7d32" stroke-width="1"/>
<rect x="353.8" y="378.4" width="4.2" height="1.0" fill="#2e7d32"/>
<rect x="353.8" y="529.0" width="4.2" height="3.0" fill="#2e7d32" opacity="0.55"/>
<line x1="362.6" y1="379.6" x2="362.6" y2="379.6" stroke="#2e7d32" stroke-width="1"/>
<rect x="360.5" y="379.6" width="4.2" height="1.0" fill="#2e7d32"/>
<rect x="360.5" y="531.4" width="4.2" height="0.6" fill="#2e7d32" opacity="0.55"/>
<line x1="369.3" y1="379.6" x2="369.3" y2="379.6" stroke="#2e7d32" stroke-width="1"/>
<rect x="367.2" y="379.6" width="4.2" height="1.0" fill="#2e7d32"/>
<rect x="367.2" y="528.8" width="4.2" height="3.2" fill="#2e7d32" opacity="0.55"/>
<line x1="376.0" y1="379.6" x2="376.0" y2="379.6" stroke="#2e7d32" stroke-width="1"/>
<rect x="374.0" y="379.6" width="4.2" height="1.0" fill="#2e7d32"/>
<rect x="374.0" y="530.7" width="4.2" height="1.3" fill="#2e7d32" opacity="0.55"/>
<line x1="382.8" y1="374.9" x2="382.8" y2="379.6" stroke="#2e7d32" stroke-width="1"/>
<rect x="380.7" y="374.9" width="4.2" height="4.7" fill="#2e7d32"/>
<rect x="380.7" y="524.3" width="4.2" height="7.7" fill="#2e7d32" opacity="0.55"/>
<line x1="389.5" y1="374.9" x2="389.5" y2="376.1" stroke="#c62828" stroke-width="1"/>
<rect x="387.4" y="374.9" width="4.2" height="1.2" fill="#c62828"/>
<rect x="387.4" y="510.4" width="4.2" height="21.6" fill="#c62828" opacity="0.55"/>
<line x1="396.2" y1="374.9" x2="396.2" y2="381.9" stroke="#c62828" stroke-width="1"/>
<rect x="394.1" y="374.9" width="4.2" height="2.3" fill="#c62828"/>
<rect x="394.1" y="521.0" width="4.2" height="11.0" fill="#c62828" opacity="0.55"/>
<line x1="402.9" y1="372.6" x2="402.9" y2="372.6" stroke="#2e7d32" stroke-width="1"/>
<rect x="400.8" y="372.6" width="4.2" height="1.0" fill="#2e7d32"/>
<rect x="400.8" y="532.0" width="4.2" height="0.0" fill="#2e7d32" opacity="0.55"/>
<line x1="409.6" y1="372.6" x2="409.6" y2="376.1" stroke="#c62828" stroke-width="1"/>
<rect x="407.5" y="372.6" width="4.2" height="3.5" fill="#c62828"/>
<rect x="407.5" y="532.0" width="4.2" height="0.0" fill="#c62828" opacity="0.55"/>
<line x1="416.3" y1="370.2" x2="416.3" y2="370.2" stroke="#2e7d32" stroke-width="1"/>
<rect x="414.2" y="370.2" width="4.2" height="1.0" fill="#2e7d32"/>
<rect x="414.2" y="532.0" width="4.2" height="0.0" fill="#2e7d32" opacity="0.55"/>
<line x1="423.0" y1="301.8" x2="423.0" y2="384.3" stroke="#2e7d32" stroke-width="1"/>
<rect x="420.9" y="346.7" width="4.2" height="35.2" fill="#2e7d32"/>
<rect x="420.9" y="532.0" width="4.2" height="0.0" fill="#2e7d32" opacity="0.55"/>
<line x1="429.7" y1="325.6" x2="429.7" y2="367.9" stroke="#2e7d32" stroke-width="1"/>
<rect x="427.6" y="335.0" width="4.2" height="9.4" fill="#2e7d32"/>
<rect x="427.6" y="532.0" width="4.2" height="0.0" fill="#2e7d32" opacity="0.55"/>
<line x1="436.4" y1="297.5" x2="436.4" y2="335.0" stroke="#2e7d32" stroke-width="1"/>
<rect x="434.4" y="302.1" width="4.2" height="30.5" fill="#2e7d32"/>
<rect x="434.4" y="532.0" width="4.2" height="0.0" fill="#2e7d32" opacity="0.55"/>
<line x1="443.1" y1="266.9" x2="443.1" y2="320.9" stroke="#c62828" stroke-width="1"/>
<rect x="441.1" y="299.8" width="4.2" height="9.4" fill="#c62828"/>
<rect x="441.1" y="532.0" width="4.2" height="0.0" fill="#c62828" opacity="0.55"/>
<line x1="449.9" y1="304.5" x2="449.9" y2="339.7" stroke="#c62828" stroke-width="1"/>
<rect x="447.8" y="311.5" width="4.2" height="25.8" fill="#c62828"/>
<rect x="447.8" y="532.0" width="4.2" height="0.0" fill="#c62828" opacity="0.55"/>
<line x1="456.6" y1="332.7" x2="456.6" y2="358.5" stroke="#c62828" stroke-width="1"/>
<rect x="454.5" y="337.3" width="4.2" height="4.7" fill="#c62828"/>
<rect x="454.5" y="532.0" width="4.2" height="0.0" fill="#c62828" opacity="0.55"/>
<line x1="463.3" y1="297.4" x2="463.3" y2="346.7" stroke="#2e7d32" stroke-width="1"/>
<rect x="461.2" y="304.5" width="4.2" height="37.6" fill="#2e7d32"/>
<rect x="461.2" y="532.0" width="4.2" height="0.0" fill="#2e7d32" opacity="0.55"/>
<line x1="470.0" y1="297.4" x2="470.0" y2="330.3" stroke="#c62828" stroke-width="1"/>
<rect x="467.9" y="309.2" width="4.2" height="7.0" fill="#c62828"/>
<rect x="467.9" y="532.0" width="4.2" height="0.0" fill="#c62828" opacity="0.55"/>
<line x1="476.7" y1="311.6" x2="476.7" y2="325.6" stroke="#c62828" stroke-width="1"/>
<rect x="474.6" y="316.2" width="4.2" height="4.7" fill="#c62828"/>
<rect x="474.6" y="532.0" width="4.2" height="0.0" fill="#c62828" opacity="0.55"/>
<line x1="483.4" y1="320.9" x2="483.4" y2="337.3" stroke="#c62828" stroke-width="1"/>
<rect x="481.3" y="320.9" width="4.2" height="9.4" fill="#c62828"/>
<rect x="481.3" y="532.0" width="4.2" height="0.0" fill="#c62828" opacity="0.55"/>
<line x1="490.1" y1="276.3" x2="490.1" y2="330.3" stroke="#2e7d32" stroke-width="1"/>
<rect x="488.0" y="280.6" width="4.2" height="49.8" fill="#2e7d32"/>
<rect x="488.0" y="532.0" width="4.2" height="0.0" fill="#2e7d32" opacity="0.55"/>
<line x1="496.8" y1="259.9" x2="496.8" y2="299.8" stroke="#2e7d32" stroke-width="1"/>
<rect x="494.7" y="271.7" width="4.2" height="7.0" fill="#2e7d32"/>
<rect x="494.7" y="532.0" width="4.2" height="0.0" fill="#2e7d32" opacity="0.55"/>
<line x1="503.5" y1="257.6" x2="503.5" y2="290.4" stroke="#c62828" stroke-width="1"/>
<rect x="501.5" y="271.6" width="4.2" height="14.1" fill="#c62828"/>
<rect x="501.5" y="532.0" width="4.2" height="0.0" fill="#c62828" opacity="0.55"/>
<line x1="510.2" y1="285.7" x2="510.2" y2="299.8" stroke="#2e7d32" stroke-width="1"/>
<rect x="508.2" y="288.1" width="4.2" height="1.0" fill="#2e7d32"/>
<rect x="508.2" y="532.0" width="4.2" height="0.0" fill="#2e7d32" opacity="0.55"/>
<line x1="517.0" y1="281.0" x2="517.0" y2="297.4" stroke="#c62828" stroke-width="1"/>
<rect x="514.9" y="288.1" width="4.2" height="4.5" fill="#c62828"/>
<rect x="514.9" y="532.0" width="4.2" height="0.0" fill="#c62828" opacity="0.55"/>
<line x1="523.7" y1="290.4" x2="523.7" y2="309.2" stroke="#c62828" stroke-width="1"/>
<rect x="521.6" y="292.7" width="4.2" height="2.4" fill="#c62828"/>
<rect x="521.6" y="532.0" width="4.2" height="0.0" fill="#c62828" opacity="0.55"/>
<line x1="530.4" y1="294.2" x2="530.4" y2="309.2" stroke="#c62828" stroke-width="1"/>
<rect x="528.3" y="295.1" width="4.2" height="14.0" fill="#c62828"/>
<rect x="528.3" y="532.0" width="4.2" height="0.0" fill="#c62828" opacity="0.55"/>
<line x1="537.1" y1="297.4" x2="537.1" y2="318.6" stroke="#2e7d32" stroke-width="1"/>
<rect x="535.0" y="299.8" width="4.2" height="7.3" fill="#2e7d32"/>
<rect x="535.0" y="532.0" width="4.2" height="0.0" fill="#2e7d32" opacity="0.55"/>
<line x1="543.8" y1="292.8" x2="543.8" y2="306.8" stroke="#c62828" stroke-width="1"/>
<rect x="541.7" y="297.4" width="4.2" height="2.3" fill="#c62828"/>
<rect x="541.7" y="532.0" width="4.2" height="0.0" fill="#c62828" opacity="0.55"/>
<line x1="550.5" y1="302.1" x2="550.5" y2="307.1" stroke="#c62828" stroke-width="1"/>
<rect x="548.4" y="302.2" width="4.2" height="1.0" fill="#c62828"/>
<rect x="548.4" y="532.0" width="4.2" height="0.0" fill="#c62828" opacity="0.55"/>
<line x1="557.2" y1="269.3" x2="557.2" y2="309.1" stroke="#2e7d32" stroke-width="1"/>
<rect x="555.1" y="271.6" width="4.2" height="30.6" fill="#2e7d32"/>
<rect x="555.1" y="532.0" width="4.2" height="0.0" fill="#2e7d32" opacity="0.55"/>
<line x1="563.9" y1="269.3" x2="563.9" y2="293.0" stroke="#c62828" stroke-width="1"/>
<rect x="561.9" y="269.5" width="4.2" height="11.1" fill="#c62828"/>
<rect x="561.9" y="532.0" width="4.2" height="0.0" fill="#c62828" opacity="0.55"/>
<line x1="570.6" y1="257.6" x2="570.6" y2="290.4" stroke="#2e7d32" stroke-width="1"/>
<rect x="568.6" y="257.6" width="4.2" height="21.2" fill="#2e7d32"/>
<rect x="568.6" y="532.0" width="4.2" height="0.0" fill="#2e7d32" opacity="0.55"/>
<line x1="577.4" y1="241.1" x2="577.4" y2="276.3" stroke="#c62828" stroke-width="1"/>
<rect x="575.3" y="259.7" width="4.2" height="1.0" fill="#c62828"/>
<rect x="575.3" y="532.0" width="4.2" height="0.0" fill="#c62828" opacity="0.55"/>
<line x1="584.1" y1="238.8" x2="584.1" y2="269.3" stroke="#2e7d32" stroke-width="1"/>
<rect x="582.0" y="250.5" width="4.2" height="9.4" fill="#2e7d32"/>
<rect x="582.0" y="532.0" width="4.2" height="0.0" fill="#2e7d32" opacity="0.55"/>
<line x1="590.8" y1="248.2" x2="590.8" y2="285.7" stroke="#c62828" stroke-width="1"/>
<rect x="588.7" y="248.2" width="4.2" height="35.2" fill="#c62828"/>
<rect x="588.7" y="532.0" width="4.2" height="0.0" fill="#c62828" opacity="0.55"/>
<line x1="597.5" y1="271.6" x2="597.5" y2="290.4" stroke="#c62828" stroke-width="1"/>
<rect x="595.4" y="283.3" width="4.2" height="1.0" fill="#c62828"/>
<rect x="595.4" y="532.0" width="4.2" height="0.0" fill="#c62828" opacity="0.55"/>
<line x1="604.2" y1="255.2" x2="604.2" y2="283.4" stroke="#2e7d32" stroke-width="1"/>
<rect x="602.1" y="259.9" width="4.2" height="18.8" fill="#2e7d32"/>
<rect x="602.1" y="532.0" width="4.2" height="0.0" fill="#2e7d32" opacity="0.55"/>
<line x1="610.9" y1="257.6" x2="610.9" y2="274.0" stroke="#c62828" stroke-width="1"/>
<rect x="608.8" y="257.9" width="4.2" height="2.0" fill="#c62828"/>
<rect x="608.8" y="532.0" width="4.2" height="0.0" fill="#c62828" opacity="0.55"/>
<line x1="617.6" y1="256.4" x2="617.6" y2="276.3" stroke="#c62828" stroke-width="1"/>
<rect x="615.5" y="262.2" width="4.2" height="7.0" fill="#c62828"/>
<rect x="615.5" y="532.0" width="4.2" height="0.0" fill="#c62828" opacity="0.55"/>
<line x1="624.3" y1="266.9" x2="624.3" y2="281.0" stroke="#2e7d32" stroke-width="1"/>
<rect x="622.2" y="267.0" width="4.2" height="2.3" fill="#2e7d32"/>
<rect x="622.2" y="532.0" width="4.2" height="0.0" fill="#2e7d32" opacity="0.55"/>
<line x1="631.0" y1="266.9" x2="631.0" y2="274.0" stroke="#2e7d32" stroke-width="1"/>
<rect x="629.0" y="269.3" width="4.2" height="1.0" fill="#2e7d32"/>
<rect x="629.0" y="532.0" width="4.2" height="0.0" fill="#2e7d32" opacity="0.55"/>
<line x1="637.8" y1="248.2" x2="637.8" y2="269.3" stroke="#2e7d32" stroke-width="1"/>
<rect x="635.7" y="250.5" width="4.2" height="18.8" fill="#2e7d32"/>
<rect x="635.7" y="532.0" width="4.2" height="0.0" fill="#2e7d32" opacity="0.55"/>
<line x1="644.5" y1="243.5" x2="644.5" y2="262.2" stroke="#c62828" stroke-width="1"/>
<rect x="642.4" y="250.5" width="4.2" height="4.7" fill="#c62828"/>
<rect x="642.4" y="532.0" width="4.2" height="0.0" fill="#c62828" opacity="0.55"/>
<line x1="651.2" y1="236.4" x2="651.2" y2="262.2" stroke="#2e7d32" stroke-width="1"/>
<rect x="649.1" y="241.1" width="4.2" height="16.4" fill="#2e7d32"/>
<rect x="649.1" y="532.0" width="4.2" height="0.0" fill="#2e7d32" opacity="0.55"/>
<line x1="657.9" y1="231.7" x2="657.9" y2="252.9" stroke="#c62828" stroke-width="1"/>
<rect x="655.8" y="238.8" width="4.2" height="7.0" fill="#c62828"/>
<rect x="655.8" y="532.0" width="4.2" height="0.0" fill="#c62828" opacity="0.55"/>
<line x1="664.6" y1="238.8" x2="664.6" y2="248.2" stroke="#2e7d32" stroke-width="1"/>
<rect x="662.5" y="241.1" width="4.2" height="5.0" fill="#2e7d32"/>
<rect x="662.5" y="532.0" width="4.2" height="0.0" fill="#2e7d32" opacity="0.55"/>
<line x1="671.3" y1="238.8" x2="671.3" y2="255.2" stroke="#c62828" stroke-width="1"/>
<rect x="669.2" y="238.8" width="4.2" height="14.4" fill="#c62828"/>
<rect x="669.2" y="532.0" width="4.2" height="0.0" fill="#c62828" opacity="0.55"/>
<line x1="678.0" y1="55.7" x2="678.0" y2="227.0" stroke="#c62828" stroke-width="1"/>
<rect x="675.9" y="177.8" width="4.2" height="39.7" fill="#c62828"/>
<rect x="675.9" y="532.0" width="4.2" height="0.0" fill="#c62828" opacity="0.55"/>
<line x1="684.7" y1="170.7" x2="684.7" y2="231.7" stroke="#c62828" stroke-width="1"/>
<rect x="682.6" y="215.3" width="4.2" height="4.9" fill="#c62828"/>
<rect x="682.6" y="532.0" width="4.2" height="0.0" fill="#c62828" opacity="0.55"/>
<line x1="691.4" y1="170.7" x2="691.4" y2="224.7" stroke="#2e7d32" stroke-width="1"/>
<rect x="689.4" y="175.4" width="4.2" height="46.9" fill="#2e7d32"/>
<rect x="689.4" y="532.0" width="4.2" height="0.0" fill="#2e7d32" opacity="0.55"/>
<line x1="698.1" y1="161.5" x2="698.1" y2="210.5" stroke="#c62828" stroke-width="1"/>
<rect x="696.1" y="175.4" width="4.2" height="2.5" fill="#c62828"/>
<rect x="696.1" y="532.0" width="4.2" height="0.0" fill="#c62828" opacity="0.55"/>
<line x1="704.9" y1="177.8" x2="704.9" y2="208.3" stroke="#c62828" stroke-width="1"/>
<rect x="702.8" y="177.8" width="4.2" height="23.4" fill="#c62828"/>
<rect x="702.8" y="532.0" width="4.2" height="0.0" fill="#c62828" opacity="0.55"/>
<line x1="711.6" y1="184.8" x2="711.6" y2="203.6" stroke="#2e7d32" stroke-width="1"/>
<rect x="709.5" y="196.8" width="4.2" height="4.4" fill="#2e7d32"/>
<rect x="709.5" y="532.0" width="4.2" height="0.0" fill="#2e7d32" opacity="0.55"/>
<line x1="718.3" y1="128.2" x2="718.3" y2="196.5" stroke="#2e7d32" stroke-width="1"/>
<rect x="716.2" y="147.5" width="4.2" height="48.9" fill="#2e7d32"/>
<rect x="716.2" y="532.0" width="4.2" height="0.0" fill="#2e7d32" opacity="0.55"/>
<line x1="725.0" y1="79.2" x2="725.0" y2="149.6" stroke="#2e7d32" stroke-width="1"/>
<rect x="722.9" y="121.6" width="4.2" height="28.0" fill="#2e7d32"/>
<rect x="722.9" y="532.0" width="4.2" height="0.0" fill="#2e7d32" opacity="0.55"/>
<line x1="731.7" y1="121.5" x2="731.7" y2="173.1" stroke="#c62828" stroke-width="1"/>
<rect x="729.6" y="123.5" width="4.2" height="33.1" fill="#c62828"/>
<rect x="729.6" y="532.0" width="4.2" height="0.0" fill="#c62828" opacity="0.55"/>
<line x1="738.4" y1="137.9" x2="738.4" y2="194.2" stroke="#c62828" stroke-width="1"/>
<rect x="736.3" y="156.4" width="4.2" height="28.4" fill="#c62828"/>
<rect x="736.3" y="532.0" width="4.2" height="0.0" fill="#c62828" opacity="0.55"/>
<line x1="745.1" y1="177.8" x2="745.1" y2="205.9" stroke="#2e7d32" stroke-width="1"/>
<rect x="743.0" y="184.6" width="4.2" height="1.0" fill="#2e7d32"/>
<rect x="743.0" y="532.0" width="4.2" height="0.0" fill="#2e7d32" opacity="0.55"/>
<line x1="751.8" y1="177.9" x2="751.8" y2="194.2" stroke="#2e7d32" stroke-width="1"/>
<rect x="749.7" y="180.2" width="4.2" height="4.3" fill="#2e7d32"/>
<rect x="749.7" y="532.0" width="4.2" height="0.0" fill="#2e7d32" opacity="0.55"/>
<line x1="758.5" y1="159.0" x2="758.5" y2="191.7" stroke="#2e7d32" stroke-width="1"/>
<rect x="756.5" y="166.0" width="4.2" height="14.1" fill="#2e7d32"/>
<rect x="756.5" y="532.0" width="4.2" height="0.0" fill="#2e7d32" opacity="0.55"/>
<line x1="765.2" y1="142.6" x2="765.2" y2="191.8" stroke="#c62828" stroke-width="1"/>
<rect x="763.2" y="166.3" width="4.2" height="18.8" fill="#c62828"/>
<rect x="763.2" y="532.0" width="4.2" height="0.0" fill="#c62828" opacity="0.55"/>
<line x1="772.0" y1="182.5" x2="772.0" y2="191.8" stroke="#2e7d32" stroke-width="1"/>
<rect x="769.9" y="187.0" width="4.2" height="1.0" fill="#2e7d32"/>
<rect x="769.9" y="532.0" width="4.2" height="0.0" fill="#2e7d32" opacity="0.55"/>
<line x1="778.7" y1="175.4" x2="778.7" y2="187.1" stroke="#c62828" stroke-width="1"/>
<rect x="776.6" y="184.9" width="4.2" height="2.0" fill="#c62828"/>
<rect x="776.6" y="532.0" width="4.2" height="0.0" fill="#c62828" opacity="0.55"/>
<line x1="785.4" y1="185.0" x2="785.4" y2="198.9" stroke="#c62828" stroke-width="1"/>
<rect x="783.3" y="185.0" width="4.2" height="11.3" fill="#c62828"/>
<rect x="783.3" y="532.0" width="4.2" height="0.0" fill="#c62828" opacity="0.55"/>
<line x1="792.1" y1="187.1" x2="792.1" y2="196.5" stroke="#2e7d32" stroke-width="1"/>
<rect x="790.0" y="194.0" width="4.2" height="1.0" fill="#2e7d32"/>
<rect x="790.0" y="532.0" width="4.2" height="0.0" fill="#2e7d32" opacity="0.55"/>
<line x1="798.8" y1="191.9" x2="798.8" y2="210.6" stroke="#c62828" stroke-width="1"/>
<rect x="796.7" y="192.0" width="4.2" height="2.3" fill="#c62828"/>
<rect x="796.7" y="532.0" width="4.2" height="0.0" fill="#c62828" opacity="0.55"/>
<line x1="805.5" y1="189.5" x2="805.5" y2="201.2" stroke="#2e7d32" stroke-width="1"/>
<rect x="803.4" y="189.5" width="4.2" height="4.9" fill="#2e7d32"/>
<rect x="803.4" y="532.0" width="4.2" height="0.0" fill="#2e7d32" opacity="0.55"/>
<line x1="812.2" y1="175.4" x2="812.2" y2="198.8" stroke="#c62828" stroke-width="1"/>
<rect x="810.1" y="187.1" width="4.2" height="2.2" fill="#c62828"/>
<rect x="810.1" y="532.0" width="4.2" height="0.0" fill="#c62828" opacity="0.55"/>
<line x1="818.9" y1="184.9" x2="818.9" y2="194.2" stroke="#c62828" stroke-width="1"/>
<rect x="816.9" y="189.3" width="4.2" height="4.9" fill="#c62828"/>
<rect x="816.9" y="532.0" width="4.2" height="0.0" fill="#c62828" opacity="0.55"/>
<line x1="825.6" y1="184.8" x2="825.6" y2="198.9" stroke="#2e7d32" stroke-width="1"/>
<rect x="823.6" y="189.7" width="4.2" height="2.3" fill="#2e7d32"/>
<rect x="823.6" y="532.0" width="4.2" height="0.0" fill="#2e7d32" opacity="0.55"/>
<line x1="832.4" y1="189.5" x2="832.4" y2="201.2" stroke="#c62828" stroke-width="1"/>
<rect x="830.3" y="189.5" width="4.2" height="2.6" fill="#c62828"/>
<rect x="830.3" y="532.0" width="4.2" height="0.0" fill="#c62828" opacity="0.55"/>
<line x1="839.1" y1="187.1" x2="839.1" y2="198.9" stroke="#2e7d32" stroke-width="1"/>
<rect x="837.0" y="191.7" width="4.2" height="1.0" fill="#2e7d32"/>
<rect x="837.0" y="532.0" width="4.2" height="0.0" fill="#2e7d32" opacity="0.55"/>
<line x1="845.8" y1="189.5" x2="845.8" y2="201.1" stroke="#c62828" stroke-width="1"/>
<rect x="843.7" y="189.5" width="4.2" height="7.1" fill="#c62828"/>
<rect x="843.7" y="532.0" width="4.2" height="0.0" fill="#c62828" opacity="0.55"/>
<line x1="852.5" y1="194.2" x2="852.5" y2="205.9" stroke="#c62828" stroke-width="1"/>
<rect x="850.4" y="198.8" width="4.2" height="2.5" fill="#c62828"/>
<rect x="850.4" y="532.0" width="4.2" height="0.0" fill="#c62828" opacity="0.55"/>
<line x1="859.2" y1="201.2" x2="859.2" y2="217.7" stroke="#c62828" stroke-width="1"/>
<rect x="857.1" y="203.5" width="4.2" height="4.8" fill="#c62828"/>
<rect x="857.1" y="532.0" width="4.2" height="0.0" fill="#c62828" opacity="0.55"/>
<line x1="865.9" y1="191.8" x2="865.9" y2="210.5" stroke="#2e7d32" stroke-width="1"/>
<rect x="863.8" y="192.1" width="4.2" height="16.2" fill="#2e7d32"/>
<rect x="863.8" y="532.0" width="4.2" height="0.0" fill="#2e7d32" opacity="0.55"/>
<line x1="872.6" y1="191.8" x2="872.6" y2="203.6" stroke="#c62828" stroke-width="1"/>
<rect x="870.5" y="194.1" width="4.2" height="2.7" fill="#c62828"/>
<rect x="870.5" y="532.0" width="4.2" height="0.0" fill="#c62828" opacity="0.55"/>
<line x1="879.3" y1="192.1" x2="879.3" y2="201.2" stroke="#2e7d32" stroke-width="1"/>
<rect x="877.2" y="196.3" width="4.2" height="1.0" fill="#2e7d32"/>
<rect x="877.2" y="532.0" width="4.2" height="0.0" fill="#2e7d32" opacity="0.55"/>
<line x1="886.0" y1="182.4" x2="886.0" y2="201.2" stroke="#c62828" stroke-width="1"/>
<rect x="884.0" y="194.5" width="4.2" height="4.4" fill="#c62828"/>
<rect x="884.0" y="532.0" width="4.2" height="0.0" fill="#c62828" opacity="0.55"/>
<line x1="892.8" y1="194.2" x2="892.8" y2="203.6" stroke="#c62828" stroke-width="1"/>
<rect x="890.7" y="196.7" width="4.2" height="2.4" fill="#c62828"/>
<rect x="890.7" y="532.0" width="4.2" height="0.0" fill="#c62828" opacity="0.55"/>
<line x1="899.5" y1="199.1" x2="899.5" y2="208.3" stroke="#c62828" stroke-width="1"/>
<rect x="897.4" y="199.1" width="4.2" height="2.1" fill="#c62828"/>
<rect x="897.4" y="532.0" width="4.2" height="0.0" fill="#c62828" opacity="0.55"/>
<line x1="906.2" y1="196.5" x2="906.2" y2="208.3" stroke="#c62828" stroke-width="1"/>
<rect x="904.1" y="201.0" width="4.2" height="5.1" fill="#c62828"/>
<rect x="904.1" y="532.0" width="4.2" height="0.0" fill="#c62828" opacity="0.55"/>
<line x1="912.9" y1="203.6" x2="912.9" y2="213.0" stroke="#c62828" stroke-width="1"/>
<rect x="910.8" y="205.9" width="4.2" height="6.8" fill="#c62828"/>
<rect x="910.8" y="532.0" width="4.2" height="0.0" fill="#c62828" opacity="0.55"/>
<line x1="919.6" y1="208.3" x2="919.6" y2="227.0" stroke="#c62828" stroke-width="1"/>
<rect x="917.5" y="210.6" width="4.2" height="11.7" fill="#c62828"/>
<rect x="917.5" y="532.0" width="4.2" height="0.0" fill="#c62828" opacity="0.55"/>
<line x1="926.3" y1="222.3" x2="926.3" y2="236.4" stroke="#c62828" stroke-width="1"/>
<rect x="924.2" y="222.5" width="4.2" height="2.3" fill="#c62828"/>
<rect x="924.2" y="532.0" width="4.2" height="0.0" fill="#c62828" opacity="0.55"/>
<line x1="933.0" y1="220.0" x2="933.0" y2="229.4" stroke="#2e7d32" stroke-width="1"/>
<rect x="930.9" y="222.3" width="4.2" height="4.6" fill="#2e7d32"/>
<rect x="930.9" y="532.0" width="4.2" height="0.0" fill="#2e7d32" opacity="0.55"/>
<line x1="939.7" y1="208.3" x2="939.7" y2="224.7" stroke="#2e7d32" stroke-width="1"/>
<rect x="937.6" y="215.3" width="4.2" height="7.0" fill="#2e7d32"/>
<rect x="937.6" y="532.0" width="4.2" height="0.0" fill="#2e7d32" opacity="0.55"/>
<line x1="946.4" y1="208.3" x2="946.4" y2="224.6" stroke="#c62828" stroke-width="1"/>
<rect x="944.4" y="213.0" width="4.2" height="9.2" fill="#c62828"/>
<rect x="944.4" y="532.0" width="4.2" height="0.0" fill="#c62828" opacity="0.55"/>
<line x1="953.1" y1="220.0" x2="953.1" y2="234.1" stroke="#c62828" stroke-width="1"/>
<rect x="951.1" y="220.4" width="4.2" height="13.6" fill="#c62828"/>
<rect x="951.1" y="532.0" width="4.2" height="0.0" fill="#c62828" opacity="0.55"/>
<line x1="959.9" y1="215.3" x2="959.9" y2="234.1" stroke="#2e7d32" stroke-width="1"/>
<rect x="957.8" y="217.6" width="4.2" height="16.1" fill="#2e7d32"/>
<rect x="957.8" y="532.0" width="4.2" height="0.0" fill="#2e7d32" opacity="0.55"/>
<line x1="966.6" y1="217.3" x2="966.6" y2="229.4" stroke="#c62828" stroke-width="1"/>
<rect x="964.5" y="217.3" width="4.2" height="6.5" fill="#c62828"/>
<rect x="964.5" y="532.0" width="4.2" height="0.0" fill="#c62828" opacity="0.55"/>
<line x1="973.3" y1="208.3" x2="973.3" y2="224.7" stroke="#2e7d32" stroke-width="1"/>
<rect x="971.2" y="217.6" width="4.2" height="5.0" fill="#2e7d32"/>
<rect x="971.2" y="532.0" width="4.2" height="0.0" fill="#2e7d32" opacity="0.55"/>
<line x1="980.0" y1="217.4" x2="980.0" y2="227.0" stroke="#c62828" stroke-width="1"/>
<rect x="977.9" y="217.7" width="4.2" height="9.4" fill="#c62828"/>
<rect x="977.9" y="532.0" width="4.2" height="0.0" fill="#c62828" opacity="0.55"/>
<line x1="986.7" y1="217.7" x2="986.7" y2="229.4" stroke="#c62828" stroke-width="1"/>
<rect x="984.6" y="225.0" width="4.2" height="1.3" fill="#c62828"/>
<rect x="984.6" y="532.0" width="4.2" height="0.0" fill="#c62828" opacity="0.55"/>
<line x1="993.4" y1="222.3" x2="993.4" y2="229.4" stroke="#c62828" stroke-width="1"/>
<rect x="991.3" y="225.0" width="4.2" height="2.0" fill="#c62828"/>
<rect x="991.3" y="532.0" width="4.2" height="0.0" fill="#c62828" opacity="0.55"/>
<line x1="1000.1" y1="222.3" x2="1000.1" y2="248.2" stroke="#c62828" stroke-width="1"/>
<rect x="998.0" y="224.7" width="4.2" height="23.3" fill="#c62828"/>
<rect x="998.0" y="532.0" width="4.2" height="0.0" fill="#c62828" opacity="0.55"/>
<line x1="1006.8" y1="243.5" x2="1006.8" y2="257.6" stroke="#2e7d32" stroke-width="1"/>
<rect x="1004.7" y="247.9" width="4.2" height="1.0" fill="#2e7d32"/>
<rect x="1004.7" y="532.0" width="4.2" height="0.0" fill="#2e7d32" opacity="0.55"/>
<line x1="1013.5" y1="238.8" x2="1013.5" y2="248.2" stroke="#2e7d32" stroke-width="1"/>
<rect x="1011.5" y="245.9" width="4.2" height="2.1" fill="#2e7d32"/>
<rect x="1011.5" y="532.0" width="4.2" height="0.0" fill="#2e7d32" opacity="0.55"/>
<line x1="1020.2" y1="243.5" x2="1020.2" y2="257.6" stroke="#c62828" stroke-width="1"/>
<rect x="1018.2" y="248.1" width="4.2" height="4.7" fill="#c62828"/>
<rect x="1018.2" y="532.0" width="4.2" height="0.0" fill="#c62828" opacity="0.55"/>
<line x1="1027.0" y1="210.6" x2="1027.0" y2="252.9" stroke="#2e7d32" stroke-width="1"/>
<rect x="1024.9" y="217.6" width="4.2" height="35.2" fill="#2e7d32"/>
<rect x="1024.9" y="532.0" width="4.2" height="0.0" fill="#2e7d32" opacity="0.55"/>
<line x1="1033.7" y1="198.9" x2="1033.7" y2="255.2" stroke="#c62828" stroke-width="1"/>
<rect x="1031.6" y="217.7" width="4.2" height="11.7" fill="#c62828"/>
<rect x="1031.6" y="532.0" width="4.2" height="0.0" fill="#c62828" opacity="0.55"/>
<line x1="1040.4" y1="229.4" x2="1040.4" y2="245.8" stroke="#c62828" stroke-width="1"/>
<rect x="1038.3" y="234.3" width="4.2" height="11.2" fill="#c62828"/>
<rect x="1038.3" y="532.0" width="4.2" height="0.0" fill="#c62828" opacity="0.55"/>
<line x1="1047.1" y1="241.1" x2="1047.1" y2="264.6" stroke="#c62828" stroke-width="1"/>
<rect x="1045.0" y="245.8" width="4.2" height="1.0" fill="#c62828"/>
<rect x="1045.0" y="532.0" width="4.2" height="0.0" fill="#c62828" opacity="0.55"/>
<line x1="1053.8" y1="236.4" x2="1053.8" y2="245.8" stroke="#2e7d32" stroke-width="1"/>
<rect x="1051.7" y="236.4" width="4.2" height="9.4" fill="#2e7d32"/>
<rect x="1051.7" y="532.0" width="4.2" height="0.0" fill="#2e7d32" opacity="0.55"/>
<line x1="1060.5" y1="231.7" x2="1060.5" y2="243.5" stroke="#2e7d32" stroke-width="1"/>
<rect x="1058.4" y="234.1" width="4.2" height="2.3" fill="#2e7d32"/>
<rect x="1058.4" y="532.0" width="4.2" height="0.0" fill="#2e7d32" opacity="0.55"/>
<line x1="1067.2" y1="234.1" x2="1067.2" y2="243.5" stroke="#c62828" stroke-width="1"/>
<rect x="1065.1" y="234.1" width="4.2" height="6.9" fill="#c62828"/>
<rect x="1065.1" y="532.0" width="4.2" height="0.0" fill="#c62828" opacity="0.55"/>
<line x1="1073.9" y1="229.4" x2="1073.9" y2="241.1" stroke="#2e7d32" stroke-width="1"/>
<rect x="1071.9" y="234.1" width="4.2" height="4.7" fill="#2e7d32"/>
<rect x="1071.9" y="532.0" width="4.2" height="0.0" fill="#2e7d32" opacity="0.55"/>
<line x1="1080.6" y1="224.9" x2="1080.6" y2="224.9" stroke="#2e7d32" stroke-width="1"/>
<rect x="1078.6" y="224.9" width="4.2" height="1.0" fill="#2e7d32"/>
<rect x="1078.6" y="532.0" width="4.2" height="0.0" fill="#2e7d32" opacity="0.55"/>
<line x1="64" y1="532" x2="1084" y2="532" stroke="#ccc"/>
<text x="58" y="420" font-size="9" fill="#999" text-anchor="end">0.0M</text>
<line x1="67.4" y1="532" x2="67.4" y2="536" stroke="#999"/>
<text x="67.4" y="547.0" font-size="9" fill="#666" text-anchor="middle">06/25 04:00</text>
<line x1="235.1" y1="532" x2="235.1" y2="536" stroke="#999"/>
<text x="235.1" y="547.0" font-size="9" fill="#666" text-anchor="middle">10:30</text>
<line x1="402.9" y1="532" x2="402.9" y2="536" stroke="#999"/>
<text x="402.9" y="547.0" font-size="9" fill="#666" text-anchor="middle">16:00</text>
<line x1="570.6" y1="532" x2="570.6" y2="536" stroke="#999"/>
<text x="570.6" y="547.0" font-size="9" fill="#666" text-anchor="middle">18:40</text>
<line x1="738.4" y1="532" x2="738.4" y2="536" stroke="#999"/>
<text x="738.4" y="547.0" font-size="9" fill="#666" text-anchor="middle">06/26 04:45</text>
<line x1="906.2" y1="532" x2="906.2" y2="536" stroke="#999"/>
<text x="906.2" y="547.0" font-size="9" fill="#666" text-anchor="middle">06:50</text>
<line x1="1073.9" y1="532" x2="1073.9" y2="536" stroke="#999"/>
<text x="1073.9" y="547.0" font-size="9" fill="#666" text-anchor="middle">08:55</text>
<text x="64" y="22" font-size="15" font-weight="bold" fill="#1a1a1a">IVF - INVO Fertility, Inc.</text>
<text x="1084" y="22" font-size="11" fill="#666" text-anchor="end">last $1.87 (+35.5% over window)</text>
<rect x="934" y="28" width="10" height="8" fill="#e8f0fe"/>
<text x="948" y="35" font-size="9" fill="#666">premarket</text>
<rect x="1006" y="28" width="10" height="8" fill="#fff4e0"/>
<text x="1020" y="35" font-size="9" fill="#666">after-hrs</text>
</svg>