<svg xmlns="http://www.w3.org/2000/svg" width="1100" height="560" viewBox="0 0 1100 560" font-family="Arial,Helvetica,sans-serif">
<rect width="1100" height="560" fill="white"/>
<rect x="64.0" y="36" width="202.1" height="496.0" fill="#e8f0fe"/>
<rect x="439.3" y="36" width="461.9" height="496.0" fill="#fff4e0"/>
<rect x="901.2" y="36" width="182.8" height="496.0" fill="#e8f0fe"/>
<line x1="64" y1="404.0" x2="1084" y2="404.0" stroke="#e6e6e6"/>
<text x="58" y="407.0" font-size="10" fill="#666" text-anchor="end">$2.36</text>
<line x1="64" y1="312.0" x2="1084" y2="312.0" stroke="#e6e6e6"/>
<text x="58" y="315.0" font-size="10" fill="#666" text-anchor="end">$3.03</text>
<line x1="64" y1="220.0" x2="1084" y2="220.0" stroke="#e6e6e6"/>
<text x="58" y="223.0" font-size="10" fill="#666" text-anchor="end">$3.70</text>
<line x1="64" y1="128.0" x2="1084" y2="128.0" stroke="#e6e6e6"/>
<text x="58" y="131.0" font-size="10" fill="#666" text-anchor="end">$4.37</text>
<line x1="64" y1="36.0" x2="1084" y2="36.0" stroke="#e6e6e6"/>
<text x="58" y="39.0" font-size="10" fill="#666" text-anchor="end">$5.04</text>
<line x1="68.8" y1="370.6" x2="68.8" y2="370.6" stroke="#2e7d32" stroke-width="1"/>
<rect x="65.8" y="370.6" width="6.0" height="1.0" fill="#2e7d32"/>
<rect x="65.8" y="532.0" width="6.0" height="0.0" fill="#2e7d32" opacity="0.55"/>
<line x1="78.4" y1="370.6" x2="78.4" y2="370.6" stroke="#2e7d32" stroke-width="1"/>
<rect x="75.5" y="370.6" width="6.0" height="1.0" fill="#2e7d32"/>
<rect x="75.5" y="532.0" width="6.0" height="0.0" fill="#2e7d32" opacity="0.55"/>
<line x1="88.1" y1="369.5" x2="88.1" y2="369.5" stroke="#2e7d32" stroke-width="1"/>
<rect x="85.1" y="369.5" width="6.0" height="1.0" fill="#2e7d32"/>
<rect x="85.1" y="532.0" width="6.0" height="0.0" fill="#2e7d32" opacity="0.55"/>
<line x1="97.7" y1="369.5" x2="97.7" y2="369.5" stroke="#2e7d32" stroke-width="1"/>
<rect x="94.7" y="369.5" width="6.0" height="1.0" fill="#2e7d32"/>
<rect x="94.7" y="532.0" width="6.0" height="0.0" fill="#2e7d32" opacity="0.55"/>
<line x1="107.3" y1="370.6" x2="107.3" y2="370.6" stroke="#2e7d32" stroke-width="1"/>
<rect x="104.3" y="370.6" width="6.0" height="1.0" fill="#2e7d32"/>
<rect x="104.3" y="532.0" width="6.0" height="0.0" fill="#2e7d32" opacity="0.55"/>
<line x1="116.9" y1="370.6" x2="116.9" y2="370.6" stroke="#2e7d32" stroke-width="1"/>
<rect x="113.9" y="370.6" width="6.0" height="1.0" fill="#2e7d32"/>
<rect x="113.9" y="532.0" width="6.0" height="0.0" fill="#2e7d32" opacity="0.55"/>
<line x1="126.5" y1="377.4" x2="126.5" y2="377.4" stroke="#2e7d32" stroke-width="1"/>
<rect x="123.6" y="377.4" width="6.0" height="1.0" fill="#2e7d32"/>
<rect x="123.6" y="532.0" width="6.0" height="0.0" fill="#2e7d32" opacity="0.55"/>
<line x1="136.2" y1="382.1" x2="136.2" y2="382.1" stroke="#2e7d32" stroke-width="1"/>
<rect x="133.2" y="382.1" width="6.0" height="1.0" fill="#2e7d32"/>
<rect x="133.2" y="532.0" width="6.0" height="0.0" fill="#2e7d32" opacity="0.55"/>
<line x1="145.8" y1="381.5" x2="145.8" y2="381.5" stroke="#2e7d32" stroke-width="1"/>
<rect x="142.8" y="381.5" width="6.0" height="1.0" fill="#2e7d32"/>
<rect x="142.8" y="532.0" width="6.0" height="0.0" fill="#2e7d32" opacity="0.55"/>
<line x1="155.4" y1="381.5" x2="155.4" y2="382.5" stroke="#c62828" stroke-width="1"/>
<rect x="152.4" y="381.5" width="6.0" height="1.0" fill="#c62828"/>
<rect x="152.4" y="532.0" width="6.0" height="0.0" fill="#c62828" opacity="0.55"/>
<line x1="165.0" y1="381.5" x2="165.0" y2="381.5" stroke="#2e7d32" stroke-width="1"/>
<rect x="162.1" y="381.5" width="6.0" height="1.0" fill="#2e7d32"/>
<rect x="162.1" y="532.0" width="6.0" height="0.0" fill="#2e7d32" opacity="0.55"/>
<line x1="174.7" y1="382.0" x2="174.7" y2="384.3" stroke="#2e7d32" stroke-width="1"/>
<rect x="171.7" y="382.0" width="6.0" height="2.3" fill="#2e7d32"/>
<rect x="171.7" y="532.0" width="6.0" height="0.0" fill="#2e7d32" opacity="0.55"/>
<line x1="184.3" y1="376.1" x2="184.3" y2="379.3" stroke="#2e7d32" stroke-width="1"/>
<rect x="181.3" y="376.1" width="6.0" height="3.2" fill="#2e7d32"/>
<rect x="181.3" y="532.0" width="6.0" height="0.0" fill="#2e7d32" opacity="0.55"/>
<line x1="193.9" y1="380.2" x2="193.9" y2="380.2" stroke="#2e7d32" stroke-width="1"/>
<rect x="190.9" y="380.2" width="6.0" height="1.0" fill="#2e7d32"/>
<rect x="190.9" y="532.0" width="6.0" height="0.0" fill="#2e7d32" opacity="0.55"/>
<line x1="203.5" y1="380.2" x2="203.5" y2="380.2" stroke="#2e7d32" stroke-width="1"/>
<rect x="200.5" y="380.2" width="6.0" height="1.0" fill="#2e7d32"/>
<rect x="200.5" y="532.0" width="6.0" height="0.0" fill="#2e7d32" opacity="0.55"/>
<line x1="213.2" y1="380.0" x2="213.2" y2="380.0" stroke="#2e7d32" stroke-width="1"/>
<rect x="210.2" y="380.0" width="6.0" height="1.0" fill="#2e7d32"/>
<rect x="210.2" y="532.0" width="6.0" height="0.0" fill="#2e7d32" opacity="0.55"/>
<line x1="222.8" y1="378.8" x2="222.8" y2="378.8" stroke="#2e7d32" stroke-width="1"/>
<rect x="219.8" y="378.8" width="6.0" height="1.0" fill="#2e7d32"/>
<rect x="219.8" y="532.0" width="6.0" height="0.0" fill="#2e7d32" opacity="0.55"/>
<line x1="232.4" y1="377.3" x2="232.4" y2="377.3" stroke="#2e7d32" stroke-width="1"/>
<rect x="229.4" y="377.3" width="6.0" height="1.0" fill="#2e7d32"/>
<rect x="229.4" y="532.0" width="6.0" height="0.0" fill="#2e7d32" opacity="0.55"/>
<line x1="242.0" y1="376.1" x2="242.0" y2="376.1" stroke="#2e7d32" stroke-width="1"/>
<rect x="239.0" y="376.1" width="6.0" height="1.0" fill="#2e7d32"/>
<rect x="239.0" y="532.0" width="6.0" height="0.0" fill="#2e7d32" opacity="0.55"/>
<line x1="251.6" y1="372.0" x2="251.6" y2="372.0" stroke="#2e7d32" stroke-width="1"/>
<rect x="248.7" y="372.0" width="6.0" height="1.0" fill="#2e7d32"/>
<rect x="248.7" y="532.0" width="6.0" height="0.0" fill="#2e7d32" opacity="0.55"/>
<line x1="261.3" y1="376.1" x2="261.3" y2="380.2" stroke="#c62828" stroke-width="1"/>
<rect x="258.3" y="376.1" width="6.0" height="4.1" fill="#c62828"/>
<rect x="258.3" y="532.0" width="6.0" height="0.0" fill="#c62828" opacity="0.55"/>
<line x1="270.9" y1="370.6" x2="270.9" y2="380.2" stroke="#2e7d32" stroke-width="1"/>
<rect x="267.9" y="370.6" width="6.0" height="9.6" fill="#2e7d32"/>
<rect x="267.9" y="531.4" width="6.0" height="0.6" fill="#2e7d32" opacity="0.55"/>
<line x1="280.5" y1="375.4" x2="280.5" y2="375.4" stroke="#2e7d32" stroke-width="1"/>
<rect x="277.5" y="375.4" width="6.0" height="1.0" fill="#2e7d32"/>
<rect x="277.5" y="532.0" width="6.0" height="0.0" fill="#2e7d32" opacity="0.55"/>
<line x1="290.1" y1="380.2" x2="290.1" y2="380.2" stroke="#2e7d32" stroke-width="1"/>
<rect x="287.1" y="380.2" width="6.0" height="1.0" fill="#2e7d32"/>
<rect x="287.1" y="531.9" width="6.0" height="0.1" fill="#2e7d32" opacity="0.55"/>
<line x1="299.8" y1="380.2" x2="299.8" y2="380.2" stroke="#2e7d32" stroke-width="1"/>
<rect x="296.8" y="380.2" width="6.0" height="1.0" fill="#2e7d32"/>
<rect x="296.8" y="532.0" width="6.0" height="0.0" fill="#2e7d32" opacity="0.55"/>
<line x1="309.4" y1="375.4" x2="309.4" y2="375.4" stroke="#2e7d32" stroke-width="1"/>
<rect x="306.4" y="375.4" width="6.0" height="1.0" fill="#2e7d32"/>
<rect x="306.4" y="532.0" width="6.0" height="0.0" fill="#2e7d32" opacity="0.55"/>
<line x1="319.0" y1="374.7" x2="319.0" y2="374.7" stroke="#2e7d32" stroke-width="1"/>
<rect x="316.0" y="374.7" width="6.0" height="1.0" fill="#2e7d32"/>
<rect x="316.0" y="531.7" width="6.0" height="0.3" fill="#2e7d32" opacity="0.55"/>
<line x1="328.6" y1="370.6" x2="328.6" y2="370.6" stroke="#2e7d32" stroke-width="1"/>
<rect x="325.6" y="370.6" width="6.0" height="1.0" fill="#2e7d32"/>
<rect x="325.6" y="532.0" width="6.0" height="0.0" fill="#2e7d32" opacity="0.55"/>
<line x1="338.2" y1="374.7" x2="338.2" y2="374.7" stroke="#2e7d32" stroke-width="1"/>
<rect x="335.3" y="374.7" width="6.0" height="1.0" fill="#2e7d32"/>
<rect x="335.3" y="532.0" width="6.0" height="0.0" fill="#2e7d32" opacity="0.55"/>
<line x1="347.9" y1="374.7" x2="347.9" y2="374.7" stroke="#2e7d32" stroke-width="1"/>
<rect x="344.9" y="374.7" width="6.0" height="1.0" fill="#2e7d32"/>
<rect x="344.9" y="531.9" width="6.0" height="0.1" fill="#2e7d32" opacity="0.55"/>
<line x1="357.5" y1="374.7" x2="357.5" y2="374.7" stroke="#2e7d32" stroke-width="1"/>
<rect x="354.5" y="374.7" width="6.0" height="1.0" fill="#2e7d32"/>
<rect x="354.5" y="531.9" width="6.0" height="0.1" fill="#2e7d32" opacity="0.55"/>
<line x1="367.1" y1="380.2" x2="367.1" y2="380.2" stroke="#2e7d32" stroke-width="1"/>
<rect x="364.1" y="380.2" width="6.0" height="1.0" fill="#2e7d32"/>
<rect x="364.1" y="531.9" width="6.0" height="0.1" fill="#2e7d32" opacity="0.55"/>
<line x1="376.7" y1="377.4" x2="376.7" y2="382.9" stroke="#2e7d32" stroke-width="1"/>
<rect x="373.8" y="377.4" width="6.0" height="4.1" fill="#2e7d32"/>
<rect x="373.8" y="531.8" width="6.0" height="0.2" fill="#2e7d32" opacity="0.55"/>
<line x1="386.4" y1="377.4" x2="386.4" y2="377.4" stroke="#2e7d32" stroke-width="1"/>
<rect x="383.4" y="377.4" width="6.0" height="1.0" fill="#2e7d32"/>
<rect x="383.4" y="531.9" width="6.0" height="0.1" fill="#2e7d32" opacity="0.55"/>
<line x1="396.0" y1="379.5" x2="396.0" y2="379.5" stroke="#2e7d32" stroke-width="1"/>
<rect x="393.0" y="379.5" width="6.0" height="1.0" fill="#2e7d32"/>
<rect x="393.0" y="532.0" width="6.0" height="0.0" fill="#2e7d32" opacity="0.55"/>
<line x1="405.6" y1="379.5" x2="405.6" y2="379.5" stroke="#2e7d32" stroke-width="1"/>
<rect x="402.6" y="379.5" width="6.0" height="1.0" fill="#2e7d32"/>
<rect x="402.6" y="532.0" width="6.0" height="0.0" fill="#2e7d32" opacity="0.55"/>
<line x1="415.2" y1="376.1" x2="415.2" y2="379.5" stroke="#2e7d32" stroke-width="1"/>
<rect x="412.2" y="376.1" width="6.0" height="3.4" fill="#2e7d32"/>
<rect x="412.2" y="532.0" width="6.0" height="0.0" fill="#2e7d32" opacity="0.55"/>
<line x1="424.8" y1="376.1" x2="424.8" y2="376.1" stroke="#2e7d32" stroke-width="1"/>
<rect x="421.9" y="376.1" width="6.0" height="1.0" fill="#2e7d32"/>
<rect x="421.9" y="532.0" width="6.0" height="0.0" fill="#2e7d32" opacity="0.55"/>
<line x1="434.5" y1="378.8" x2="434.5" y2="378.8" stroke="#2e7d32" stroke-width="1"/>
<rect x="431.5" y="378.8" width="6.0" height="1.0" fill="#2e7d32"/>
<rect x="431.5" y="532.0" width="6.0" height="0.0" fill="#2e7d32" opacity="0.55"/>
<line x1="444.1" y1="381.5" x2="444.1" y2="381.5" stroke="#2e7d32" stroke-width="1"/>
<rect x="441.1" y="381.5" width="6.0" height="1.0" fill="#2e7d32"/>
<rect x="441.1" y="531.9" width="6.0" height="0.1" fill="#2e7d32" opacity="0.55"/>
<line x1="453.7" y1="299.4" x2="453.7" y2="374.7" stroke="#2e7d32" stroke-width="1"/>
<rect x="450.7" y="304.9" width="6.0" height="69.8" fill="#2e7d32"/>
<rect x="450.7" y="528.1" width="6.0" height="3.9" fill="#2e7d32" opacity="0.55"/>
<line x1="463.3" y1="291.2" x2="463.3" y2="370.6" stroke="#c62828" stroke-width="1"/>
<rect x="460.4" y="306.3" width="6.0" height="50.7" fill="#c62828"/>
<rect x="460.4" y="517.4" width="6.0" height="14.6" fill="#c62828" opacity="0.55"/>
<line x1="473.0" y1="318.6" x2="473.0" y2="366.5" stroke="#c62828" stroke-width="1"/>
<rect x="470.0" y="356.9" width="6.0" height="2.7" fill="#c62828"/>
<rect x="470.0" y="525.8" width="6.0" height="6.2" fill="#c62828" opacity="0.55"/>
<line x1="482.6" y1="347.3" x2="482.6" y2="362.4" stroke="#2e7d32" stroke-width="1"/>
<rect x="479.6" y="351.4" width="6.0" height="11.0" fill="#2e7d32"/>
<rect x="479.6" y="530.3" width="6.0" height="1.7" fill="#2e7d32" opacity="0.55"/>
<line x1="492.2" y1="352.8" x2="492.2" y2="363.8" stroke="#c62828" stroke-width="1"/>
<rect x="489.2" y="355.5" width="6.0" height="1.0" fill="#c62828"/>
<rect x="489.2" y="531.1" width="6.0" height="0.9" fill="#c62828" opacity="0.55"/>
<line x1="501.8" y1="351.4" x2="501.8" y2="362.4" stroke="#2e7d32" stroke-width="1"/>
<rect x="498.8" y="354.2" width="6.0" height="2.7" fill="#2e7d32"/>
<rect x="498.8" y="531.4" width="6.0" height="0.6" fill="#2e7d32" opacity="0.55"/>
<line x1="511.5" y1="350.1" x2="511.5" y2="356.9" stroke="#c62828" stroke-width="1"/>
<rect x="508.5" y="354.2" width="6.0" height="2.5" fill="#c62828"/>
<rect x="508.5" y="531.2" width="6.0" height="0.8" fill="#c62828" opacity="0.55"/>
<line x1="521.1" y1="343.2" x2="521.1" y2="362.4" stroke="#2e7d32" stroke-width="1"/>
<rect x="518.1" y="343.2" width="6.0" height="12.3" fill="#2e7d32"/>
<rect x="518.1" y="531.6" width="6.0" height="0.4" fill="#2e7d32" opacity="0.55"/>
<line x1="530.7" y1="336.4" x2="530.7" y2="362.4" stroke="#c62828" stroke-width="1"/>
<rect x="527.7" y="344.6" width="6.0" height="5.5" fill="#c62828"/>
<rect x="527.7" y="530.9" width="6.0" height="1.1" fill="#c62828" opacity="0.55"/>
<line x1="540.3" y1="343.2" x2="540.3" y2="352.8" stroke="#2e7d32" stroke-width="1"/>
<rect x="537.3" y="343.3" width="6.0" height="9.5" fill="#2e7d32"/>
<rect x="537.3" y="531.7" width="6.0" height="0.3" fill="#2e7d32" opacity="0.55"/>
<line x1="549.9" y1="313.1" x2="549.9" y2="343.2" stroke="#2e7d32" stroke-width="1"/>
<rect x="547.0" y="326.7" width="6.0" height="16.5" fill="#2e7d32"/>
<rect x="547.0" y="524.2" width="6.0" height="7.8" fill="#2e7d32" opacity="0.55"/>
<line x1="559.6" y1="319.9" x2="559.6" y2="335.0" stroke="#c62828" stroke-width="1"/>
<rect x="556.6" y="324.0" width="6.0" height="2.7" fill="#c62828"/>
<rect x="556.6" y="528.3" width="6.0" height="3.7" fill="#c62828" opacity="0.55"/>
<line x1="569.2" y1="326.8" x2="569.2" y2="347.3" stroke="#c62828" stroke-width="1"/>
<rect x="566.2" y="327.0" width="6.0" height="13.5" fill="#c62828"/>
<rect x="566.2" y="529.9" width="6.0" height="2.1" fill="#c62828" opacity="0.55"/>
<line x1="578.8" y1="326.8" x2="578.8" y2="340.5" stroke="#c62828" stroke-width="1"/>
<rect x="575.8" y="335.5" width="6.0" height="4.9" fill="#c62828"/>
<rect x="575.8" y="530.9" width="6.0" height="1.1" fill="#c62828" opacity="0.55"/>
<line x1="588.4" y1="332.3" x2="588.4" y2="346.7" stroke="#2e7d32" stroke-width="1"/>
<rect x="585.5" y="333.6" width="6.0" height="6.8" fill="#2e7d32"/>
<rect x="585.5" y="531.5" width="6.0" height="0.5" fill="#2e7d32" opacity="0.55"/>
<line x1="598.1" y1="333.6" x2="598.1" y2="356.9" stroke="#c62828" stroke-width="1"/>
<rect x="595.1" y="334.5" width="6.0" height="14.2" fill="#c62828"/>
<rect x="595.1" y="531.0" width="6.0" height="1.0" fill="#c62828" opacity="0.55"/>
<line x1="607.7" y1="343.2" x2="607.7" y2="358.3" stroke="#2e7d32" stroke-width="1"/>
<rect x="604.7" y="343.2" width="6.0" height="12.3" fill="#2e7d32"/>
<rect x="604.7" y="531.6" width="6.0" height="0.4" fill="#2e7d32" opacity="0.55"/>
<line x1="617.3" y1="315.9" x2="617.3" y2="350.1" stroke="#2e7d32" stroke-width="1"/>
<rect x="614.3" y="317.2" width="6.0" height="17.8" fill="#2e7d32"/>
<rect x="614.3" y="529.6" width="6.0" height="2.4" fill="#2e7d32" opacity="0.55"/>
<line x1="626.9" y1="317.2" x2="626.9" y2="333.6" stroke="#c62828" stroke-width="1"/>
<rect x="623.9" y="317.2" width="6.0" height="16.4" fill="#c62828"/>
<rect x="623.9" y="531.5" width="6.0" height="0.5" fill="#c62828" opacity="0.55"/>
<line x1="636.5" y1="332.3" x2="636.5" y2="340.5" stroke="#2e7d32" stroke-width="1"/>
<rect x="633.6" y="332.3" width="6.0" height="1.4" fill="#2e7d32"/>
<rect x="633.6" y="531.8" width="6.0" height="0.2" fill="#2e7d32" opacity="0.55"/>
<line x1="646.2" y1="332.3" x2="646.2" y2="346.0" stroke="#2e7d32" stroke-width="1"/>
<rect x="643.2" y="333.6" width="6.0" height="2.7" fill="#2e7d32"/>
<rect x="643.2" y="531.4" width="6.0" height="0.6" fill="#2e7d32" opacity="0.55"/>
<line x1="655.8" y1="317.2" x2="655.8" y2="333.6" stroke="#2e7d32" stroke-width="1"/>
<rect x="652.8" y="326.8" width="6.0" height="6.8" fill="#2e7d32"/>
<rect x="652.8" y="531.1" width="6.0" height="0.9" fill="#2e7d32" opacity="0.55"/>
<line x1="665.4" y1="325.4" x2="665.4" y2="343.2" stroke="#c62828" stroke-width="1"/>
<rect x="662.4" y="326.8" width="6.0" height="12.3" fill="#c62828"/>
<rect x="662.4" y="531.1" width="6.0" height="0.9" fill="#c62828" opacity="0.55"/>
<line x1="675.0" y1="325.4" x2="675.0" y2="333.6" stroke="#c62828" stroke-width="1"/>
<rect x="672.1" y="332.2" width="6.0" height="1.4" fill="#c62828"/>
<rect x="672.1" y="531.5" width="6.0" height="0.5" fill="#c62828" opacity="0.55"/>
<line x1="684.7" y1="325.4" x2="684.7" y2="333.6" stroke="#2e7d32" stroke-width="1"/>
<rect x="681.7" y="330.9" width="6.0" height="2.7" fill="#2e7d32"/>
<rect x="681.7" y="531.9" width="6.0" height="0.1" fill="#2e7d32" opacity="0.55"/>
<line x1="694.3" y1="325.4" x2="694.3" y2="330.9" stroke="#2e7d32" stroke-width="1"/>
<rect x="691.3" y="325.4" width="6.0" height="5.4" fill="#2e7d32"/>
<rect x="691.3" y="531.8" width="6.0" height="0.2" fill="#2e7d32" opacity="0.55"/>
<line x1="703.9" y1="325.4" x2="703.9" y2="333.6" stroke="#c62828" stroke-width="1"/>
<rect x="700.9" y="325.4" width="6.0" height="8.0" fill="#c62828"/>
<rect x="700.9" y="531.8" width="6.0" height="0.2" fill="#c62828" opacity="0.55"/>
<line x1="713.5" y1="325.4" x2="713.5" y2="336.4" stroke="#2e7d32" stroke-width="1"/>
<rect x="710.5" y="326.7" width="6.0" height="1.0" fill="#2e7d32"/>
<rect x="710.5" y="531.7" width="6.0" height="0.3" fill="#2e7d32" opacity="0.55"/>
<line x1="723.2" y1="325.4" x2="723.2" y2="330.9" stroke="#c62828" stroke-width="1"/>
<rect x="720.2" y="325.4" width="6.0" height="5.5" fill="#c62828"/>
<rect x="720.2" y="531.8" width="6.0" height="0.2" fill="#c62828" opacity="0.55"/>
<line x1="732.8" y1="326.8" x2="732.8" y2="335.0" stroke="#c62828" stroke-width="1"/>
<rect x="729.8" y="326.8" width="6.0" height="5.6" fill="#c62828"/>
<rect x="729.8" y="531.8" width="6.0" height="0.2" fill="#c62828" opacity="0.55"/>
<line x1="742.4" y1="329.5" x2="742.4" y2="335.0" stroke="#2e7d32" stroke-width="1"/>
<rect x="739.4" y="329.5" width="6.0" height="4.3" fill="#2e7d32"/>
<rect x="739.4" y="531.8" width="6.0" height="0.2" fill="#2e7d32" opacity="0.55"/>
<line x1="752.0" y1="329.5" x2="752.0" y2="330.9" stroke="#c62828" stroke-width="1"/>
<rect x="749.0" y="329.5" width="6.0" height="1.0" fill="#c62828"/>
<rect x="749.0" y="531.9" width="6.0" height="0.1" fill="#c62828" opacity="0.55"/>
<line x1="761.6" y1="329.5" x2="761.6" y2="335.0" stroke="#2e7d32" stroke-width="1"/>
<rect x="758.7" y="330.9" width="6.0" height="1.0" fill="#2e7d32"/>
<rect x="758.7" y="531.8" width="6.0" height="0.2" fill="#2e7d32" opacity="0.55"/>
<line x1="771.3" y1="326.8" x2="771.3" y2="329.5" stroke="#2e7d32" stroke-width="1"/>
<rect x="768.3" y="328.2" width="6.0" height="1.4" fill="#2e7d32"/>
<rect x="768.3" y="531.9" width="6.0" height="0.1" fill="#2e7d32" opacity="0.55"/>
<line x1="780.9" y1="328.2" x2="780.9" y2="335.0" stroke="#c62828" stroke-width="1"/>
<rect x="777.9" y="328.2" width="6.0" height="1.3" fill="#c62828"/>
<rect x="777.9" y="531.8" width="6.0" height="0.2" fill="#c62828" opacity="0.55"/>
<line x1="790.5" y1="326.8" x2="790.5" y2="328.2" stroke="#2e7d32" stroke-width="1"/>
<rect x="787.5" y="327.0" width="6.0" height="1.2" fill="#2e7d32"/>
<rect x="787.5" y="531.7" width="6.0" height="0.3" fill="#2e7d32" opacity="0.55"/>
<line x1="800.1" y1="319.9" x2="800.1" y2="333.6" stroke="#2e7d32" stroke-width="1"/>
<rect x="797.1" y="319.9" width="6.0" height="6.8" fill="#2e7d32"/>
<rect x="797.1" y="531.4" width="6.0" height="0.6" fill="#2e7d32" opacity="0.55"/>
<line x1="809.8" y1="292.6" x2="809.8" y2="329.5" stroke="#2e7d32" stroke-width="1"/>
<rect x="806.8" y="306.2" width="6.0" height="16.5" fill="#2e7d32"/>
<rect x="806.8" y="528.7" width="6.0" height="3.3" fill="#2e7d32" opacity="0.55"/>
<line x1="819.4" y1="274.8" x2="819.4" y2="324.0" stroke="#2e7d32" stroke-width="1"/>
<rect x="816.4" y="274.8" width="6.0" height="31.5" fill="#2e7d32"/>
<rect x="816.4" y="528.7" width="6.0" height="3.3" fill="#2e7d32" opacity="0.55"/>
<line x1="829.0" y1="196.7" x2="829.0" y2="277.5" stroke="#2e7d32" stroke-width="1"/>
<rect x="826.0" y="248.8" width="6.0" height="27.4" fill="#2e7d32"/>
<rect x="826.0" y="509.5" width="6.0" height="22.5" fill="#2e7d32" opacity="0.55"/>
<line x1="838.6" y1="229.6" x2="838.6" y2="263.8" stroke="#2e7d32" stroke-width="1"/>
<rect x="835.6" y="231.0" width="6.0" height="17.8" fill="#2e7d32"/>
<rect x="835.6" y="520.7" width="6.0" height="11.3" fill="#2e7d32" opacity="0.55"/>
<line x1="848.2" y1="231.0" x2="848.2" y2="262.4" stroke="#c62828" stroke-width="1"/>
<rect x="845.3" y="231.0" width="6.0" height="26.0" fill="#c62828"/>
<rect x="845.3" y="525.7" width="6.0" height="6.3" fill="#c62828" opacity="0.55"/>
<line x1="857.9" y1="250.1" x2="857.9" y2="274.8" stroke="#c62828" stroke-width="1"/>
<rect x="854.9" y="257.0" width="6.0" height="5.5" fill="#c62828"/>
<rect x="854.9" y="527.5" width="6.0" height="4.5" fill="#c62828" opacity="0.55"/>
<line x1="867.5" y1="237.8" x2="867.5" y2="269.3" stroke="#2e7d32" stroke-width="1"/>
<rect x="864.5" y="241.9" width="6.0" height="20.5" fill="#2e7d32"/>
<rect x="864.5" y="527.8" width="6.0" height="4.2" fill="#2e7d32" opacity="0.55"/>
<line x1="877.1" y1="228.2" x2="877.1" y2="244.6" stroke="#2e7d32" stroke-width="1"/>
<rect x="874.1" y="236.1" width="6.0" height="4.5" fill="#2e7d32"/>
<rect x="874.1" y="528.0" width="6.0" height="4.0" fill="#2e7d32" opacity="0.55"/>
<line x1="886.7" y1="213.2" x2="886.7" y2="241.9" stroke="#2e7d32" stroke-width="1"/>
<rect x="883.8" y="229.6" width="6.0" height="12.3" fill="#2e7d32"/>
<rect x="883.8" y="514.4" width="6.0" height="17.6" fill="#2e7d32" opacity="0.55"/>
<line x1="896.4" y1="220.0" x2="896.4" y2="244.6" stroke="#c62828" stroke-width="1"/>
<rect x="893.4" y="226.8" width="6.0" height="1.0" fill="#c62828"/>
<rect x="893.4" y="529.3" width="6.0" height="2.7" fill="#c62828" opacity="0.55"/>
<line x1="906.0" y1="55.7" x2="906.0" y2="215.9" stroke="#c62828" stroke-width="1"/>
<rect x="903.0" y="138.1" width="6.0" height="46.3" fill="#c62828"/>
<rect x="903.0" y="412.0" width="6.0" height="120.0" fill="#c62828" opacity="0.55"/>
<line x1="915.6" y1="166.6" x2="915.6" y2="222.7" stroke="#c62828" stroke-width="1"/>
<rect x="912.6" y="185.8" width="6.0" height="11.0" fill="#c62828"/>
<rect x="912.6" y="494.9" width="6.0" height="37.1" fill="#c62828" opacity="0.55"/>
<line x1="925.2" y1="178.9" x2="925.2" y2="206.3" stroke="#2e7d32" stroke-width="1"/>
<rect x="922.2" y="196.7" width="6.0" height="4.1" fill="#2e7d32"/>
<rect x="922.2" y="513.0" width="6.0" height="19.0" fill="#2e7d32" opacity="0.55"/>
<line x1="934.8" y1="183.0" x2="934.8" y2="214.5" stroke="#2e7d32" stroke-width="1"/>
<rect x="931.9" y="187.1" width="6.0" height="9.6" fill="#2e7d32"/>
<rect x="931.9" y="512.3" width="6.0" height="19.7" fill="#2e7d32" opacity="0.55"/>
<line x1="944.5" y1="185.8" x2="944.5" y2="204.9" stroke="#c62828" stroke-width="1"/>
<rect x="941.5" y="187.1" width="6.0" height="13.5" fill="#c62828"/>
<rect x="941.5" y="521.3" width="6.0" height="10.7" fill="#c62828" opacity="0.55"/>
<line x1="954.1" y1="196.7" x2="954.1" y2="213.2" stroke="#c62828" stroke-width="1"/>
<rect x="951.1" y="199.5" width="6.0" height="8.2" fill="#c62828"/>
<rect x="951.1" y="521.5" width="6.0" height="10.5" fill="#c62828" opacity="0.55"/>
<line x1="963.7" y1="165.2" x2="963.7" y2="208.7" stroke="#2e7d32" stroke-width="1"/>
<rect x="960.7" y="166.6" width="6.0" height="41.1" fill="#2e7d32"/>
<rect x="960.7" y="501.8" width="6.0" height="30.2" fill="#2e7d32" opacity="0.55"/>
<line x1="973.3" y1="163.9" x2="973.3" y2="197.8" stroke="#c62828" stroke-width="1"/>
<rect x="970.4" y="166.6" width="6.0" height="30.0" fill="#c62828"/>
<rect x="970.4" y="505.2" width="6.0" height="26.8" fill="#c62828" opacity="0.55"/>
<line x1="983.0" y1="195.4" x2="983.0" y2="206.3" stroke="#c62828" stroke-width="1"/>
<rect x="980.0" y="196.7" width="6.0" height="6.8" fill="#c62828"/>
<rect x="980.0" y="520.7" width="6.0" height="11.3" fill="#c62828" opacity="0.55"/>
<line x1="992.6" y1="195.4" x2="992.6" y2="207.7" stroke="#2e7d32" stroke-width="1"/>
<rect x="989.6" y="202.2" width="6.0" height="1.4" fill="#2e7d32"/>
<rect x="989.6" y="525.3" width="6.0" height="6.7" fill="#2e7d32" opacity="0.55"/>
<line x1="1002.2" y1="202.2" x2="1002.2" y2="219.9" stroke="#c62828" stroke-width="1"/>
<rect x="999.2" y="203.6" width="6.0" height="2.8" fill="#c62828"/>
<rect x="999.2" y="522.5" width="6.0" height="9.5" fill="#c62828" opacity="0.55"/>
<line x1="1011.8" y1="189.9" x2="1011.8" y2="210.4" stroke="#2e7d32" stroke-width="1"/>
<rect x="1008.8" y="195.3" width="6.0" height="11.1" fill="#2e7d32"/>
<rect x="1008.8" y="520.9" width="6.0" height="11.1" fill="#2e7d32" opacity="0.55"/>
<line x1="1021.5" y1="195.4" x2="1021.5" y2="213.2" stroke="#c62828" stroke-width="1"/>
<rect x="1018.5" y="195.4" width="6.0" height="17.8" fill="#c62828"/>
<rect x="1018.5" y="524.8" width="6.0" height="7.2" fill="#c62828" opacity="0.55"/>
<line x1="1031.1" y1="207.7" x2="1031.1" y2="230.9" stroke="#c62828" stroke-width="1"/>
<rect x="1028.1" y="213.1" width="6.0" height="6.7" fill="#c62828"/>
<rect x="1028.1" y="520.2" width="6.0" height="11.8" fill="#c62828" opacity="0.55"/>
<line x1="1040.7" y1="220.0" x2="1040.7" y2="236.4" stroke="#c62828" stroke-width="1"/>
<rect x="1037.7" y="220.0" width="6.0" height="16.4" fill="#c62828"/>
<rect x="1037.7" y="519.6" width="6.0" height="12.4" fill="#c62828" opacity="0.55"/>
<line x1="1050.3" y1="222.7" x2="1050.3" y2="241.9" stroke="#c62828" stroke-width="1"/>
<rect x="1047.3" y="235.1" width="6.0" height="4.1" fill="#c62828"/>
<rect x="1047.3" y="521.8" width="6.0" height="10.2" fill="#c62828" opacity="0.55"/>
<line x1="1059.9" y1="228.5" x2="1059.9" y2="239.1" stroke="#2e7d32" stroke-width="1"/>
<rect x="1057.0" y="231.0" width="6.0" height="6.7" fill="#2e7d32"/>
<rect x="1057.0" y="532.0" width="6.0" height="0.0" fill="#2e7d32" opacity="0.55"/>
<line x1="1069.6" y1="228.2" x2="1069.6" y2="237.8" stroke="#c62828" stroke-width="1"/>
<rect x="1066.6" y="230.7" width="6.0" height="5.6" fill="#c62828"/>
<rect x="1066.6" y="532.0" width="6.0" height="0.0" fill="#c62828" opacity="0.55"/>
<line x1="1079.2" y1="229.6" x2="1079.2" y2="229.6" stroke="#2e7d32" stroke-width="1"/>
<rect x="1076.2" y="229.6" width="6.0" height="1.0" fill="#2e7d32"/>
<rect x="1076.2" y="532.0" width="6.0" height="0.0" fill="#2e7d32" opacity="0.55"/>
<line x1="64" y1="532" x2="1084" y2="532" stroke="#ccc"/>
<text x="58" y="420" font-size="9" fill="#999" text-anchor="end">1.5M</text>
<line x1="68.8" y1="532" x2="68.8" y2="536" stroke="#999"/>
<text x="68.8" y="547.0" font-size="9" fill="#666" text-anchor="middle">07/15 04:10</text>
<line x1="232.4" y1="532" x2="232.4" y2="536" stroke="#999"/>
<text x="232.4" y="547.0" font-size="9" fill="#666" text-anchor="middle">08:50</text>
<line x1="396.0" y1="532" x2="396.0" y2="536" stroke="#999"/>
<text x="396.0" y="547.0" font-size="9" fill="#666" text-anchor="middle">15:30</text>
<line x1="559.6" y1="532" x2="559.6" y2="536" stroke="#999"/>
<text x="559.6" y="547.0" font-size="9" fill="#666" text-anchor="middle">17:00</text>
<line x1="723.2" y1="532" x2="723.2" y2="536" stroke="#999"/>
<text x="723.2" y="547.0" font-size="9" fill="#666" text-anchor="middle">18:25</text>
<line x1="886.7" y1="532" x2="886.7" y2="536" stroke="#999"/>
<text x="886.7" y="547.0" font-size="9" fill="#666" text-anchor="middle">19:50</text>
<line x1="1050.3" y1="532" x2="1050.3" y2="536" stroke="#999"/>
<text x="1050.3" y="547.0" font-size="9" fill="#666" text-anchor="middle">07/16 05:15</text>
<text x="64" y="22" font-size="15" font-weight="bold" fill="#1a1a1a">ATPC - Agape ATP Corporation</text>
<text x="1084" y="22" font-size="11" fill="#666" text-anchor="end">last $3.63 (+39.6% over window)</text>
<rect x="934" y="28" width="10" height="8" fill="#e8f0fe"/>
<text x="948" y="35" font-size="9" fill="#666">premarket</text>
<rect x="1006" y="28" width="10" height="8" fill="#fff4e0"/>
<text x="1020" y="35" font-size="9" fill="#666">after-hrs</text>
</svg>