<svg xmlns="http://www.w3.org/2000/svg" width="1100" height="560" viewBox="0 0 1100 560" font-family="Arial,Helvetica,sans-serif">
<rect width="1100" height="560" fill="white"/>
<rect x="64.0" y="36" width="97.1" height="496.0" fill="#e8f0fe"/>
<rect x="501.1" y="36" width="582.9" height="496.0" fill="#fff4e0"/>
<line x1="64" y1="404.0" x2="1084" y2="404.0" stroke="#e6e6e6"/>
<text x="58" y="407.0" font-size="10" fill="#666" text-anchor="end">$3.33</text>
<line x1="64" y1="312.0" x2="1084" y2="312.0" stroke="#e6e6e6"/>
<text x="58" y="315.0" font-size="10" fill="#666" text-anchor="end">$4.58</text>
<line x1="64" y1="220.0" x2="1084" y2="220.0" stroke="#e6e6e6"/>
<text x="58" y="223.0" font-size="10" fill="#666" text-anchor="end">$5.83</text>
<line x1="64" y1="128.0" x2="1084" y2="128.0" stroke="#e6e6e6"/>
<text x="58" y="131.0" font-size="10" fill="#666" text-anchor="end">$7.09</text>
<line x1="64" y1="36.0" x2="1084" y2="36.0" stroke="#e6e6e6"/>
<text x="58" y="39.0" font-size="10" fill="#666" text-anchor="end">$8.34</text>
<line x1="72.1" y1="360.0" x2="72.1" y2="360.0" stroke="#2e7d32" stroke-width="1"/>
<rect x="67.1" y="360.0" width="10.0" height="1.0" fill="#2e7d32"/>
<rect x="67.1" y="532.0" width="10.0" height="0.0" fill="#2e7d32" opacity="0.55"/>
<line x1="88.3" y1="374.7" x2="88.3" y2="374.7" stroke="#2e7d32" stroke-width="1"/>
<rect x="83.3" y="374.7" width="10.0" height="1.0" fill="#2e7d32"/>
<rect x="83.3" y="532.0" width="10.0" height="0.0" fill="#2e7d32" opacity="0.55"/>
<line x1="104.5" y1="383.6" x2="104.5" y2="383.6" stroke="#2e7d32" stroke-width="1"/>
<rect x="99.5" y="383.6" width="10.0" height="1.0" fill="#2e7d32"/>
<rect x="99.5" y="532.0" width="10.0" height="0.0" fill="#2e7d32" opacity="0.55"/>
<line x1="120.7" y1="360.0" x2="120.7" y2="362.2" stroke="#2e7d32" stroke-width="1"/>
<rect x="115.6" y="360.0" width="10.0" height="2.2" fill="#2e7d32"/>
<rect x="115.6" y="531.9" width="10.0" height="0.1" fill="#2e7d32" opacity="0.55"/>
<line x1="136.9" y1="352.7" x2="136.9" y2="352.7" stroke="#2e7d32" stroke-width="1"/>
<rect x="131.8" y="352.7" width="10.0" height="1.0" fill="#2e7d32"/>
<rect x="131.8" y="532.0" width="10.0" height="0.0" fill="#2e7d32" opacity="0.55"/>
<line x1="153.0" y1="352.7" x2="153.0" y2="352.7" stroke="#2e7d32" stroke-width="1"/>
<rect x="148.0" y="352.7" width="10.0" height="1.0" fill="#2e7d32"/>
<rect x="148.0" y="532.0" width="10.0" height="0.0" fill="#2e7d32" opacity="0.55"/>
<line x1="169.2" y1="344.6" x2="169.2" y2="362.2" stroke="#2e7d32" stroke-width="1"/>
<rect x="164.2" y="354.9" width="10.0" height="7.4" fill="#2e7d32"/>
<rect x="164.2" y="531.3" width="10.0" height="0.7" fill="#2e7d32" opacity="0.55"/>
<line x1="185.4" y1="364.8" x2="185.4" y2="364.8" stroke="#2e7d32" stroke-width="1"/>
<rect x="180.4" y="364.8" width="10.0" height="1.0" fill="#2e7d32"/>
<rect x="180.4" y="531.9" width="10.0" height="0.1" fill="#2e7d32" opacity="0.55"/>
<line x1="201.6" y1="367.0" x2="201.6" y2="378.4" stroke="#c62828" stroke-width="1"/>
<rect x="196.6" y="367.0" width="10.0" height="10.7" fill="#c62828"/>
<rect x="196.6" y="531.7" width="10.0" height="0.3" fill="#c62828" opacity="0.55"/>
<line x1="217.8" y1="368.9" x2="217.8" y2="376.9" stroke="#2e7d32" stroke-width="1"/>
<rect x="212.8" y="369.6" width="10.0" height="5.1" fill="#2e7d32"/>
<rect x="212.8" y="531.5" width="10.0" height="0.5" fill="#2e7d32" opacity="0.55"/>
<line x1="234.0" y1="377.3" x2="234.0" y2="377.3" stroke="#2e7d32" stroke-width="1"/>
<rect x="229.0" y="377.3" width="10.0" height="1.0" fill="#2e7d32"/>
<rect x="229.0" y="531.9" width="10.0" height="0.1" fill="#2e7d32" opacity="0.55"/>
<line x1="250.2" y1="377.3" x2="250.2" y2="377.3" stroke="#2e7d32" stroke-width="1"/>
<rect x="245.2" y="377.3" width="10.0" height="1.0" fill="#2e7d32"/>
<rect x="245.2" y="531.8" width="10.0" height="0.2" fill="#2e7d32" opacity="0.55"/>
<line x1="266.4" y1="376.2" x2="266.4" y2="378.4" stroke="#2e7d32" stroke-width="1"/>
<rect x="261.4" y="376.2" width="10.0" height="2.2" fill="#2e7d32"/>
<rect x="261.4" y="531.7" width="10.0" height="0.3" fill="#2e7d32" opacity="0.55"/>
<line x1="282.6" y1="371.1" x2="282.6" y2="371.1" stroke="#2e7d32" stroke-width="1"/>
<rect x="277.6" y="371.1" width="10.0" height="1.0" fill="#2e7d32"/>
<rect x="277.6" y="531.9" width="10.0" height="0.1" fill="#2e7d32" opacity="0.55"/>
<line x1="298.8" y1="376.9" x2="298.8" y2="384.3" stroke="#c62828" stroke-width="1"/>
<rect x="293.7" y="376.9" width="10.0" height="7.4" fill="#c62828"/>
<rect x="293.7" y="531.9" width="10.0" height="0.1" fill="#c62828" opacity="0.55"/>
<line x1="315.0" y1="376.9" x2="315.0" y2="376.9" stroke="#2e7d32" stroke-width="1"/>
<rect x="309.9" y="376.9" width="10.0" height="1.0" fill="#2e7d32"/>
<rect x="309.9" y="532.0" width="10.0" height="0.0" fill="#2e7d32" opacity="0.55"/>
<line x1="331.1" y1="376.2" x2="331.1" y2="376.2" stroke="#2e7d32" stroke-width="1"/>
<rect x="326.1" y="376.2" width="10.0" height="1.0" fill="#2e7d32"/>
<rect x="326.1" y="532.0" width="10.0" height="0.0" fill="#2e7d32" opacity="0.55"/>
<line x1="347.3" y1="379.9" x2="347.3" y2="379.9" stroke="#2e7d32" stroke-width="1"/>
<rect x="342.3" y="379.9" width="10.0" height="1.0" fill="#2e7d32"/>
<rect x="342.3" y="531.9" width="10.0" height="0.1" fill="#2e7d32" opacity="0.55"/>
<line x1="363.5" y1="368.1" x2="363.5" y2="374.0" stroke="#2e7d32" stroke-width="1"/>
<rect x="358.5" y="368.1" width="10.0" height="5.9" fill="#2e7d32"/>
<rect x="358.5" y="531.8" width="10.0" height="0.2" fill="#2e7d32" opacity="0.55"/>
<line x1="379.7" y1="371.1" x2="379.7" y2="371.1" stroke="#2e7d32" stroke-width="1"/>
<rect x="374.7" y="371.1" width="10.0" height="1.0" fill="#2e7d32"/>
<rect x="374.7" y="531.9" width="10.0" height="0.1" fill="#2e7d32" opacity="0.55"/>
<line x1="395.9" y1="370.3" x2="395.9" y2="370.3" stroke="#2e7d32" stroke-width="1"/>
<rect x="390.9" y="370.3" width="10.0" height="1.0" fill="#2e7d32"/>
<rect x="390.9" y="532.0" width="10.0" height="0.0" fill="#2e7d32" opacity="0.55"/>
<line x1="412.1" y1="370.3" x2="412.1" y2="370.3" stroke="#2e7d32" stroke-width="1"/>
<rect x="407.1" y="370.3" width="10.0" height="1.0" fill="#2e7d32"/>
<rect x="407.1" y="532.0" width="10.0" height="0.0" fill="#2e7d32" opacity="0.55"/>
<line x1="428.3" y1="368.1" x2="428.3" y2="368.1" stroke="#2e7d32" stroke-width="1"/>
<rect x="423.3" y="368.1" width="10.0" height="1.0" fill="#2e7d32"/>
<rect x="423.3" y="532.0" width="10.0" height="0.0" fill="#2e7d32" opacity="0.55"/>
<line x1="444.5" y1="363.7" x2="444.5" y2="363.7" stroke="#2e7d32" stroke-width="1"/>
<rect x="439.5" y="363.7" width="10.0" height="1.0" fill="#2e7d32"/>
<rect x="439.5" y="532.0" width="10.0" height="0.0" fill="#2e7d32" opacity="0.55"/>
<line x1="460.7" y1="363.7" x2="460.7" y2="363.7" stroke="#2e7d32" stroke-width="1"/>
<rect x="455.6" y="363.7" width="10.0" height="1.0" fill="#2e7d32"/>
<rect x="455.6" y="531.9" width="10.0" height="0.1" fill="#2e7d32" opacity="0.55"/>
<line x1="476.9" y1="368.1" x2="476.9" y2="369.6" stroke="#c62828" stroke-width="1"/>
<rect x="471.8" y="368.1" width="10.0" height="1.5" fill="#c62828"/>
<rect x="471.8" y="531.9" width="10.0" height="0.1" fill="#c62828" opacity="0.55"/>
<line x1="493.0" y1="372.5" x2="493.0" y2="372.5" stroke="#2e7d32" stroke-width="1"/>
<rect x="488.0" y="372.5" width="10.0" height="1.0" fill="#2e7d32"/>
<rect x="488.0" y="531.8" width="10.0" height="0.2" fill="#2e7d32" opacity="0.55"/>
<line x1="509.2" y1="378.4" x2="509.2" y2="378.4" stroke="#2e7d32" stroke-width="1"/>
<rect x="504.2" y="378.4" width="10.0" height="1.0" fill="#2e7d32"/>
<rect x="504.2" y="532.0" width="10.0" height="0.0" fill="#2e7d32" opacity="0.55"/>
<line x1="525.4" y1="378.4" x2="525.4" y2="378.4" stroke="#2e7d32" stroke-width="1"/>
<rect x="520.4" y="378.4" width="10.0" height="1.0" fill="#2e7d32"/>
<rect x="520.4" y="532.0" width="10.0" height="0.0" fill="#2e7d32" opacity="0.55"/>
<line x1="541.6" y1="369.5" x2="541.6" y2="369.5" stroke="#2e7d32" stroke-width="1"/>
<rect x="536.6" y="369.5" width="10.0" height="1.0" fill="#2e7d32"/>
<rect x="536.6" y="532.0" width="10.0" height="0.0" fill="#2e7d32" opacity="0.55"/>
<line x1="557.8" y1="378.4" x2="557.8" y2="378.4" stroke="#2e7d32" stroke-width="1"/>
<rect x="552.8" y="378.4" width="10.0" height="1.0" fill="#2e7d32"/>
<rect x="552.8" y="532.0" width="10.0" height="0.0" fill="#2e7d32" opacity="0.55"/>
<line x1="574.0" y1="382.8" x2="574.0" y2="383.6" stroke="#c62828" stroke-width="1"/>
<rect x="569.0" y="382.8" width="10.0" height="1.0" fill="#c62828"/>
<rect x="569.0" y="532.0" width="10.0" height="0.0" fill="#c62828" opacity="0.55"/>
<line x1="590.2" y1="260.8" x2="590.2" y2="368.8" stroke="#2e7d32" stroke-width="1"/>
<rect x="585.2" y="299.8" width="10.0" height="69.1" fill="#2e7d32"/>
<rect x="585.2" y="513.1" width="10.0" height="18.9" fill="#2e7d32" opacity="0.55"/>
<line x1="606.4" y1="252.0" x2="606.4" y2="312.2" stroke="#2e7d32" stroke-width="1"/>
<rect x="601.4" y="272.6" width="10.0" height="23.5" fill="#2e7d32"/>
<rect x="601.4" y="456.3" width="10.0" height="75.7" fill="#2e7d32" opacity="0.55"/>
<line x1="622.6" y1="244.6" x2="622.6" y2="285.1" stroke="#2e7d32" stroke-width="1"/>
<rect x="617.6" y="258.9" width="10.0" height="15.2" fill="#2e7d32"/>
<rect x="617.6" y="457.6" width="10.0" height="74.4" fill="#2e7d32" opacity="0.55"/>
<line x1="638.8" y1="207.9" x2="638.8" y2="259.3" stroke="#2e7d32" stroke-width="1"/>
<rect x="633.7" y="225.5" width="10.0" height="33.8" fill="#2e7d32"/>
<rect x="633.7" y="433.4" width="10.0" height="98.6" fill="#2e7d32" opacity="0.55"/>
<line x1="655.0" y1="196.8" x2="655.0" y2="237.3" stroke="#2e7d32" stroke-width="1"/>
<rect x="649.9" y="220.4" width="10.0" height="5.1" fill="#2e7d32"/>
<rect x="649.9" y="454.0" width="10.0" height="78.0" fill="#2e7d32" opacity="0.55"/>
<line x1="671.1" y1="210.1" x2="671.1" y2="258.6" stroke="#c62828" stroke-width="1"/>
<rect x="666.1" y="220.4" width="10.0" height="30.9" fill="#c62828"/>
<rect x="666.1" y="482.3" width="10.0" height="49.7" fill="#c62828" opacity="0.55"/>
<line x1="687.3" y1="224.8" x2="687.3" y2="269.6" stroke="#2e7d32" stroke-width="1"/>
<rect x="682.3" y="237.3" width="10.0" height="14.0" fill="#2e7d32"/>
<rect x="682.3" y="491.8" width="10.0" height="40.2" fill="#2e7d32" opacity="0.55"/>
<line x1="703.5" y1="185.8" x2="703.5" y2="238.7" stroke="#2e7d32" stroke-width="1"/>
<rect x="698.5" y="197.6" width="10.0" height="41.2" fill="#2e7d32"/>
<rect x="698.5" y="417.1" width="10.0" height="114.9" fill="#2e7d32" opacity="0.55"/>
<line x1="719.7" y1="152.0" x2="719.7" y2="216.7" stroke="#2e7d32" stroke-width="1"/>
<rect x="714.7" y="166.7" width="10.0" height="31.6" fill="#2e7d32"/>
<rect x="714.7" y="451.2" width="10.0" height="80.8" fill="#2e7d32" opacity="0.55"/>
<line x1="735.9" y1="168.2" x2="735.9" y2="195.4" stroke="#c62828" stroke-width="1"/>
<rect x="730.9" y="168.2" width="10.0" height="14.8" fill="#c62828"/>
<rect x="730.9" y="462.6" width="10.0" height="69.4" fill="#c62828" opacity="0.55"/>
<line x1="752.1" y1="163.8" x2="752.1" y2="189.5" stroke="#2e7d32" stroke-width="1"/>
<rect x="747.1" y="180.7" width="10.0" height="1.0" fill="#2e7d32"/>
<rect x="747.1" y="495.4" width="10.0" height="36.6" fill="#2e7d32" opacity="0.55"/>
<line x1="768.3" y1="163.8" x2="768.3" y2="189.5" stroke="#2e7d32" stroke-width="1"/>
<rect x="763.3" y="170.4" width="10.0" height="9.6" fill="#2e7d32"/>
<rect x="763.3" y="503.1" width="10.0" height="28.9" fill="#2e7d32" opacity="0.55"/>
<line x1="784.5" y1="81.4" x2="784.5" y2="178.5" stroke="#2e7d32" stroke-width="1"/>
<rect x="779.5" y="104.1" width="10.0" height="64.1" fill="#2e7d32"/>
<rect x="779.5" y="422.5" width="10.0" height="109.5" fill="#2e7d32" opacity="0.55"/>
<line x1="800.7" y1="64.5" x2="800.7" y2="124.1" stroke="#2e7d32" stroke-width="1"/>
<rect x="795.6" y="91.8" width="10.0" height="12.4" fill="#2e7d32"/>
<rect x="795.6" y="412.0" width="10.0" height="120.0" fill="#2e7d32" opacity="0.55"/>
<line x1="816.9" y1="55.7" x2="816.9" y2="105.0" stroke="#2e7d32" stroke-width="1"/>
<rect x="811.8" y="71.0" width="10.0" height="21.5" fill="#2e7d32"/>
<rect x="811.8" y="440.8" width="10.0" height="91.2" fill="#2e7d32" opacity="0.55"/>
<line x1="833.0" y1="66.7" x2="833.0" y2="106.4" stroke="#c62828" stroke-width="1"/>
<rect x="828.0" y="70.4" width="10.0" height="28.6" fill="#c62828"/>
<rect x="828.0" y="481.5" width="10.0" height="50.5" fill="#c62828" opacity="0.55"/>
<line x1="849.2" y1="75.6" x2="849.2" y2="106.4" stroke="#2e7d32" stroke-width="1"/>
<rect x="844.2" y="89.5" width="10.0" height="9.0" fill="#2e7d32"/>
<rect x="844.2" y="497.0" width="10.0" height="35.0" fill="#2e7d32" opacity="0.55"/>
<line x1="865.4" y1="81.4" x2="865.4" y2="132.2" stroke="#c62828" stroke-width="1"/>
<rect x="860.4" y="88.8" width="10.0" height="20.7" fill="#c62828"/>
<rect x="860.4" y="481.5" width="10.0" height="50.5" fill="#c62828" opacity="0.55"/>
<line x1="881.6" y1="90.3" x2="881.6" y2="126.3" stroke="#2e7d32" stroke-width="1"/>
<rect x="876.6" y="92.6" width="10.0" height="16.8" fill="#2e7d32"/>
<rect x="876.6" y="505.1" width="10.0" height="26.9" fill="#2e7d32" opacity="0.55"/>
<line x1="897.8" y1="90.3" x2="897.8" y2="115.9" stroke="#c62828" stroke-width="1"/>
<rect x="892.8" y="90.7" width="10.0" height="21.6" fill="#c62828"/>
<rect x="892.8" y="506.0" width="10.0" height="26.0" fill="#c62828" opacity="0.55"/>
<line x1="914.0" y1="105.0" x2="914.0" y2="121.1" stroke="#c62828" stroke-width="1"/>
<rect x="909.0" y="108.6" width="10.0" height="5.1" fill="#c62828"/>
<rect x="909.0" y="519.6" width="10.0" height="12.4" fill="#c62828" opacity="0.55"/>
<line x1="930.2" y1="105.0" x2="930.2" y2="127.0" stroke="#c62828" stroke-width="1"/>
<rect x="925.2" y="114.3" width="10.0" height="1.0" fill="#c62828"/>
<rect x="925.2" y="510.2" width="10.0" height="21.8" fill="#c62828" opacity="0.55"/>
<line x1="946.4" y1="113.8" x2="946.4" y2="134.4" stroke="#c62828" stroke-width="1"/>
<rect x="941.4" y="114.5" width="10.0" height="5.1" fill="#c62828"/>
<rect x="941.4" y="509.9" width="10.0" height="22.1" fill="#c62828" opacity="0.55"/>
<line x1="962.6" y1="114.5" x2="962.6" y2="152.7" stroke="#c62828" stroke-width="1"/>
<rect x="957.6" y="121.1" width="10.0" height="25.8" fill="#c62828"/>
<rect x="957.6" y="511.5" width="10.0" height="20.5" fill="#c62828" opacity="0.55"/>
<line x1="978.8" y1="136.6" x2="978.8" y2="157.9" stroke="#2e7d32" stroke-width="1"/>
<rect x="973.7" y="139.5" width="10.0" height="9.5" fill="#2e7d32"/>
<rect x="973.7" y="508.6" width="10.0" height="23.4" fill="#2e7d32" opacity="0.55"/>
<line x1="995.0" y1="127.0" x2="995.0" y2="152.7" stroke="#2e7d32" stroke-width="1"/>
<rect x="989.9" y="133.0" width="10.0" height="6.5" fill="#2e7d32"/>
<rect x="989.9" y="513.8" width="10.0" height="18.2" fill="#2e7d32" opacity="0.55"/>
<line x1="1011.1" y1="132.9" x2="1011.1" y2="153.5" stroke="#c62828" stroke-width="1"/>
<rect x="1006.1" y="132.9" width="10.0" height="6.6" fill="#c62828"/>
<rect x="1006.1" y="519.7" width="10.0" height="12.3" fill="#c62828" opacity="0.55"/>
<line x1="1027.3" y1="132.2" x2="1027.3" y2="149.1" stroke="#c62828" stroke-width="1"/>
<rect x="1022.3" y="138.0" width="10.0" height="1.0" fill="#c62828"/>
<rect x="1022.3" y="522.0" width="10.0" height="10.0" fill="#c62828" opacity="0.55"/>
<line x1="1043.5" y1="130.7" x2="1043.5" y2="146.9" stroke="#2e7d32" stroke-width="1"/>
<rect x="1038.5" y="132.5" width="10.0" height="13.7" fill="#2e7d32"/>
<rect x="1038.5" y="524.4" width="10.0" height="7.6" fill="#2e7d32" opacity="0.55"/>
<line x1="1059.7" y1="119.7" x2="1059.7" y2="145.3" stroke="#2e7d32" stroke-width="1"/>
<rect x="1054.7" y="125.5" width="10.0" height="6.9" fill="#2e7d32"/>
<rect x="1054.7" y="519.7" width="10.0" height="12.3" fill="#2e7d32" opacity="0.55"/>
<line x1="1075.9" y1="112.3" x2="1075.9" y2="131.4" stroke="#2e7d32" stroke-width="1"/>
<rect x="1070.9" y="112.3" width="10.0" height="13.3" fill="#2e7d32"/>
<rect x="1070.9" y="514.7" width="10.0" height="17.3" fill="#2e7d32" opacity="0.55"/>
<line x1="64" y1="532" x2="1084" y2="532" stroke="#ccc"/>
<text x="68" y="421" font-size="9" fill="#555" text-anchor="start">0.7M</text>
<line x1="72.1" y1="532" x2="72.1" y2="536" stroke="#999"/>
<text x="72.1" y="547.0" font-size="9" fill="#666" text-anchor="middle">08/05 05:00</text>
<line x1="234.0" y1="532" x2="234.0" y2="536" stroke="#999"/>
<text x="234.0" y="547.0" font-size="9" fill="#666" text-anchor="middle">11:00</text>
<line x1="395.9" y1="532" x2="395.9" y2="536" stroke="#999"/>
<text x="395.9" y="547.0" font-size="9" fill="#666" text-anchor="middle">13:20</text>
<line x1="557.8" y1="532" x2="557.8" y2="536" stroke="#999"/>
<text x="557.8" y="547.0" font-size="9" fill="#666" text-anchor="middle">16:25</text>
<line x1="719.7" y1="532" x2="719.7" y2="536" stroke="#999"/>
<text x="719.7" y="547.0" font-size="9" fill="#666" text-anchor="middle">18:05</text>
<line x1="881.6" y1="532" x2="881.6" y2="536" stroke="#999"/>
<text x="881.6" y="547.0" font-size="9" fill="#666" text-anchor="middle">18:55</text>
<line x1="1043.5" y1="532" x2="1043.5" y2="536" stroke="#999"/>
<text x="1043.5" y="547.0" font-size="9" fill="#666" text-anchor="middle">19:45</text>
<text x="64" y="22" font-size="15" font-weight="bold" fill="#1a1a1a">CLRO - ClearOne, Inc.</text>
<text x="1084" y="22" font-size="11" fill="#666" text-anchor="end">last $7.30 (+85.8% over window)</text>
<rect x="934" y="28" width="10" height="8" fill="#e8f0fe"/>
<text x="948" y="35" font-size="9" fill="#666">premarket</text>
<rect x="1006" y="28" width="10" height="8" fill="#fff4e0"/>
<text x="1020" y="35" font-size="9" fill="#666">after-hrs</text>
</svg>