<svg xmlns="http://www.w3.org/2000/svg" width="1100" height="560" viewBox="0 0 1100 560" font-family="Arial,Helvetica,sans-serif">
<rect width="1100" height="560" fill="white"/>
<rect x="64.0" y="36" width="125.0" height="496.0" fill="#e8f0fe"/>
<rect x="656.3" y="36" width="296.1" height="496.0" fill="#fff4e0"/>
<rect x="952.4" y="36" width="131.6" height="496.0" fill="#e8f0fe"/>
<line x1="64" y1="404.0" x2="1084" y2="404.0" stroke="#e6e6e6"/>
<text x="58" y="407.0" font-size="10" fill="#666" text-anchor="end">$0.65</text>
<line x1="64" y1="312.0" x2="1084" y2="312.0" stroke="#e6e6e6"/>
<text x="58" y="315.0" font-size="10" fill="#666" text-anchor="end">$0.89</text>
<line x1="64" y1="220.0" x2="1084" y2="220.0" stroke="#e6e6e6"/>
<text x="58" y="223.0" font-size="10" fill="#666" text-anchor="end">$1.14</text>
<line x1="64" y1="128.0" x2="1084" y2="128.0" stroke="#e6e6e6"/>
<text x="58" y="131.0" font-size="10" fill="#666" text-anchor="end">$1.39</text>
<line x1="64" y1="36.0" x2="1084" y2="36.0" stroke="#e6e6e6"/>
<text x="58" y="39.0" font-size="10" fill="#666" text-anchor="end">$1.63</text>
<line x1="67.3" y1="375.7" x2="67.3" y2="375.7" stroke="#2e7d32" stroke-width="1"/>
<rect x="65.3" y="375.7" width="4.1" height="1.0" fill="#2e7d32"/>
<rect x="65.3" y="532.0" width="4.1" height="0.0" fill="#2e7d32" opacity="0.55"/>
<line x1="73.9" y1="292.4" x2="73.9" y2="380.6" stroke="#2e7d32" stroke-width="1"/>
<rect x="71.8" y="369.4" width="4.1" height="1.0" fill="#2e7d32"/>
<rect x="71.8" y="521.5" width="4.1" height="10.5" fill="#2e7d32" opacity="0.55"/>
<line x1="80.5" y1="365.1" x2="80.5" y2="374.4" stroke="#c62828" stroke-width="1"/>
<rect x="78.4" y="369.4" width="4.1" height="4.7" fill="#c62828"/>
<rect x="78.4" y="530.0" width="4.1" height="2.0" fill="#c62828" opacity="0.55"/>
<line x1="87.0" y1="368.6" x2="87.0" y2="380.3" stroke="#c62828" stroke-width="1"/>
<rect x="85.0" y="374.7" width="4.1" height="4.1" fill="#c62828"/>
<rect x="85.0" y="531.4" width="4.1" height="0.6" fill="#c62828" opacity="0.55"/>
<line x1="93.6" y1="373.1" x2="93.6" y2="380.3" stroke="#c62828" stroke-width="1"/>
<rect x="91.6" y="378.8" width="4.1" height="1.4" fill="#c62828"/>
<rect x="91.6" y="531.0" width="4.1" height="1.0" fill="#c62828" opacity="0.55"/>
<line x1="100.2" y1="378.9" x2="100.2" y2="380.2" stroke="#c62828" stroke-width="1"/>
<rect x="98.2" y="378.9" width="4.1" height="1.0" fill="#c62828"/>
<rect x="98.2" y="530.8" width="4.1" height="1.2" fill="#c62828" opacity="0.55"/>
<line x1="106.8" y1="372.5" x2="106.8" y2="374.0" stroke="#2e7d32" stroke-width="1"/>
<rect x="104.7" y="372.5" width="4.1" height="1.5" fill="#2e7d32"/>
<rect x="104.7" y="531.5" width="4.1" height="0.5" fill="#2e7d32" opacity="0.55"/>
<line x1="113.4" y1="365.7" x2="113.4" y2="373.1" stroke="#c62828" stroke-width="1"/>
<rect x="111.3" y="365.7" width="4.1" height="7.4" fill="#c62828"/>
<rect x="111.3" y="531.8" width="4.1" height="0.2" fill="#c62828" opacity="0.55"/>
<line x1="119.9" y1="377.8" x2="119.9" y2="380.9" stroke="#c62828" stroke-width="1"/>
<rect x="117.9" y="377.8" width="4.1" height="1.4" fill="#c62828"/>
<rect x="117.9" y="531.5" width="4.1" height="0.5" fill="#c62828" opacity="0.55"/>
<line x1="126.5" y1="373.1" x2="126.5" y2="384.3" stroke="#c62828" stroke-width="1"/>
<rect x="124.5" y="381.1" width="4.1" height="3.2" fill="#c62828"/>
<rect x="124.5" y="531.6" width="4.1" height="0.4" fill="#c62828" opacity="0.55"/>
<line x1="133.1" y1="369.4" x2="133.1" y2="376.8" stroke="#c62828" stroke-width="1"/>
<rect x="131.1" y="373.1" width="4.1" height="3.7" fill="#c62828"/>
<rect x="131.1" y="531.2" width="4.1" height="0.8" fill="#c62828" opacity="0.55"/>
<line x1="139.7" y1="376.8" x2="139.7" y2="380.6" stroke="#c62828" stroke-width="1"/>
<rect x="137.6" y="376.8" width="4.1" height="3.7" fill="#c62828"/>
<rect x="137.6" y="531.6" width="4.1" height="0.4" fill="#c62828" opacity="0.55"/>
<line x1="146.3" y1="373.1" x2="146.3" y2="376.9" stroke="#2e7d32" stroke-width="1"/>
<rect x="144.2" y="373.1" width="4.1" height="3.8" fill="#2e7d32"/>
<rect x="144.2" y="531.9" width="4.1" height="0.1" fill="#2e7d32" opacity="0.55"/>
<line x1="152.8" y1="354.4" x2="152.8" y2="370.5" stroke="#2e7d32" stroke-width="1"/>
<rect x="150.8" y="361.8" width="4.1" height="8.7" fill="#2e7d32"/>
<rect x="150.8" y="528.6" width="4.1" height="3.4" fill="#2e7d32" opacity="0.55"/>
<line x1="159.4" y1="357.7" x2="159.4" y2="368.0" stroke="#c62828" stroke-width="1"/>
<rect x="157.4" y="357.7" width="4.1" height="8.1" fill="#c62828"/>
<rect x="157.4" y="531.2" width="4.1" height="0.8" fill="#c62828" opacity="0.55"/>
<line x1="166.0" y1="357.0" x2="166.0" y2="363.7" stroke="#c62828" stroke-width="1"/>
<rect x="164.0" y="360.9" width="4.1" height="1.0" fill="#c62828"/>
<rect x="164.0" y="530.6" width="4.1" height="1.4" fill="#c62828" opacity="0.55"/>
<line x1="172.6" y1="361.9" x2="172.6" y2="363.8" stroke="#2e7d32" stroke-width="1"/>
<rect x="170.5" y="361.9" width="4.1" height="1.4" fill="#2e7d32"/>
<rect x="170.5" y="531.8" width="4.1" height="0.2" fill="#2e7d32" opacity="0.55"/>
<line x1="179.2" y1="361.9" x2="179.2" y2="365.7" stroke="#2e7d32" stroke-width="1"/>
<rect x="177.1" y="361.9" width="4.1" height="3.7" fill="#2e7d32"/>
<rect x="177.1" y="531.7" width="4.1" height="0.3" fill="#2e7d32" opacity="0.55"/>
<line x1="185.7" y1="358.1" x2="185.7" y2="362.8" stroke="#2e7d32" stroke-width="1"/>
<rect x="183.7" y="358.1" width="4.1" height="3.7" fill="#2e7d32"/>
<rect x="183.7" y="531.6" width="4.1" height="0.4" fill="#2e7d32" opacity="0.55"/>
<line x1="192.3" y1="358.2" x2="192.3" y2="365.2" stroke="#c62828" stroke-width="1"/>
<rect x="190.3" y="360.1" width="4.1" height="4.2" fill="#c62828"/>
<rect x="190.3" y="506.1" width="4.1" height="25.9" fill="#c62828" opacity="0.55"/>
<line x1="198.9" y1="364.3" x2="198.9" y2="366.6" stroke="#c62828" stroke-width="1"/>
<rect x="196.9" y="364.3" width="4.1" height="2.3" fill="#c62828"/>
<rect x="196.9" y="531.8" width="4.1" height="0.2" fill="#c62828" opacity="0.55"/>
<line x1="205.5" y1="347.0" x2="205.5" y2="364.4" stroke="#2e7d32" stroke-width="1"/>
<rect x="203.4" y="360.9" width="4.1" height="3.5" fill="#2e7d32"/>
<rect x="203.4" y="529.5" width="4.1" height="2.5" fill="#2e7d32" opacity="0.55"/>
<line x1="212.1" y1="354.4" x2="212.1" y2="360.9" stroke="#c62828" stroke-width="1"/>
<rect x="210.0" y="354.5" width="4.1" height="1.1" fill="#c62828"/>
<rect x="210.0" y="531.6" width="4.1" height="0.4" fill="#c62828" opacity="0.55"/>
<line x1="218.6" y1="350.7" x2="218.6" y2="365.6" stroke="#2e7d32" stroke-width="1"/>
<rect x="216.6" y="354.4" width="4.1" height="1.2" fill="#2e7d32"/>
<rect x="216.6" y="531.3" width="4.1" height="0.7" fill="#2e7d32" opacity="0.55"/>
<line x1="225.2" y1="354.4" x2="225.2" y2="358.1" stroke="#2e7d32" stroke-width="1"/>
<rect x="223.2" y="354.5" width="4.1" height="3.7" fill="#2e7d32"/>
<rect x="223.2" y="532.0" width="4.1" height="0.0" fill="#2e7d32" opacity="0.55"/>
<line x1="231.8" y1="360.4" x2="231.8" y2="360.4" stroke="#2e7d32" stroke-width="1"/>
<rect x="229.8" y="360.4" width="4.1" height="1.0" fill="#2e7d32"/>
<rect x="229.8" y="531.9" width="4.1" height="0.1" fill="#2e7d32" opacity="0.55"/>
<line x1="238.4" y1="354.4" x2="238.4" y2="365.6" stroke="#2e7d32" stroke-width="1"/>
<rect x="236.3" y="354.4" width="4.1" height="1.0" fill="#2e7d32"/>
<rect x="236.3" y="531.2" width="4.1" height="0.8" fill="#2e7d32" opacity="0.55"/>
<line x1="245.0" y1="350.8" x2="245.0" y2="354.4" stroke="#2e7d32" stroke-width="1"/>
<rect x="242.9" y="354.4" width="4.1" height="1.0" fill="#2e7d32"/>
<rect x="242.9" y="531.9" width="4.1" height="0.1" fill="#2e7d32" opacity="0.55"/>
<line x1="251.5" y1="349.9" x2="251.5" y2="354.4" stroke="#2e7d32" stroke-width="1"/>
<rect x="249.5" y="349.9" width="4.1" height="1.0" fill="#2e7d32"/>
<rect x="249.5" y="531.7" width="4.1" height="0.3" fill="#2e7d32" opacity="0.55"/>
<line x1="258.1" y1="347.2" x2="258.1" y2="349.9" stroke="#c62828" stroke-width="1"/>
<rect x="256.1" y="349.9" width="4.1" height="1.0" fill="#c62828"/>
<rect x="256.1" y="531.9" width="4.1" height="0.1" fill="#c62828" opacity="0.55"/>
<line x1="264.7" y1="335.7" x2="264.7" y2="359.5" stroke="#2e7d32" stroke-width="1"/>
<rect x="262.7" y="337.6" width="4.1" height="12.0" fill="#2e7d32"/>
<rect x="262.7" y="530.8" width="4.1" height="1.2" fill="#2e7d32" opacity="0.55"/>
<line x1="271.3" y1="314.1" x2="271.3" y2="346.8" stroke="#2e7d32" stroke-width="1"/>
<rect x="269.3" y="322.7" width="4.1" height="24.1" fill="#2e7d32"/>
<rect x="269.3" y="529.4" width="4.1" height="2.6" fill="#2e7d32" opacity="0.55"/>
<line x1="277.9" y1="321.9" x2="277.9" y2="365.1" stroke="#c62828" stroke-width="1"/>
<rect x="275.8" y="322.7" width="4.1" height="28.0" fill="#c62828"/>
<rect x="275.8" y="528.2" width="4.1" height="3.8" fill="#c62828" opacity="0.55"/>
<line x1="284.5" y1="335.8" x2="284.5" y2="361.9" stroke="#2e7d32" stroke-width="1"/>
<rect x="282.4" y="351.5" width="4.1" height="10.3" fill="#2e7d32"/>
<rect x="282.4" y="531.1" width="4.1" height="0.9" fill="#2e7d32" opacity="0.55"/>
<line x1="291.0" y1="347.4" x2="291.0" y2="359.5" stroke="#c62828" stroke-width="1"/>
<rect x="289.0" y="347.7" width="4.1" height="1.8" fill="#c62828"/>
<rect x="289.0" y="530.8" width="4.1" height="1.2" fill="#c62828" opacity="0.55"/>
<line x1="297.6" y1="354.4" x2="297.6" y2="361.9" stroke="#c62828" stroke-width="1"/>
<rect x="295.6" y="357.9" width="4.1" height="2.8" fill="#c62828"/>
<rect x="295.6" y="531.5" width="4.1" height="0.5" fill="#c62828" opacity="0.55"/>
<line x1="304.2" y1="352.4" x2="304.2" y2="365.6" stroke="#2e7d32" stroke-width="1"/>
<rect x="302.2" y="352.4" width="4.1" height="8.3" fill="#2e7d32"/>
<rect x="302.2" y="531.5" width="4.1" height="0.5" fill="#2e7d32" opacity="0.55"/>
<line x1="310.8" y1="339.5" x2="310.8" y2="360.9" stroke="#2e7d32" stroke-width="1"/>
<rect x="308.7" y="345.7" width="4.1" height="5.9" fill="#2e7d32"/>
<rect x="308.7" y="530.8" width="4.1" height="1.2" fill="#2e7d32" opacity="0.55"/>
<line x1="317.4" y1="339.5" x2="317.4" y2="346.9" stroke="#c62828" stroke-width="1"/>
<rect x="315.3" y="339.5" width="4.1" height="1.0" fill="#c62828"/>
<rect x="315.3" y="531.7" width="4.1" height="0.3" fill="#c62828" opacity="0.55"/>
<line x1="323.9" y1="342.5" x2="323.9" y2="361.5" stroke="#c62828" stroke-width="1"/>
<rect x="321.9" y="342.5" width="4.1" height="14.0" fill="#c62828"/>
<rect x="321.9" y="531.7" width="4.1" height="0.3" fill="#c62828" opacity="0.55"/>
<line x1="330.5" y1="354.4" x2="330.5" y2="354.4" stroke="#2e7d32" stroke-width="1"/>
<rect x="328.5" y="354.4" width="4.1" height="1.0" fill="#2e7d32"/>
<rect x="328.5" y="532.0" width="4.1" height="0.0" fill="#2e7d32" opacity="0.55"/>
<line x1="337.1" y1="339.5" x2="337.1" y2="354.4" stroke="#c62828" stroke-width="1"/>
<rect x="335.1" y="345.5" width="4.1" height="9.0" fill="#c62828"/>
<rect x="335.1" y="531.9" width="4.1" height="0.1" fill="#c62828" opacity="0.55"/>
<line x1="343.7" y1="343.2" x2="343.7" y2="345.1" stroke="#2e7d32" stroke-width="1"/>
<rect x="341.6" y="343.2" width="4.1" height="1.9" fill="#2e7d32"/>
<rect x="341.6" y="531.9" width="4.1" height="0.1" fill="#2e7d32" opacity="0.55"/>
<line x1="350.3" y1="343.2" x2="350.3" y2="346.9" stroke="#2e7d32" stroke-width="1"/>
<rect x="348.2" y="346.9" width="4.1" height="1.0" fill="#2e7d32"/>
<rect x="348.2" y="531.7" width="4.1" height="0.3" fill="#2e7d32" opacity="0.55"/>
<line x1="356.8" y1="343.3" x2="356.8" y2="350.9" stroke="#c62828" stroke-width="1"/>
<rect x="354.8" y="343.3" width="4.1" height="5.5" fill="#c62828"/>
<rect x="354.8" y="531.7" width="4.1" height="0.3" fill="#c62828" opacity="0.55"/>
<line x1="363.4" y1="350.7" x2="363.4" y2="354.4" stroke="#c62828" stroke-width="1"/>
<rect x="361.4" y="350.7" width="4.1" height="3.7" fill="#c62828"/>
<rect x="361.4" y="531.9" width="4.1" height="0.1" fill="#c62828" opacity="0.55"/>
<line x1="370.0" y1="351.8" x2="370.0" y2="351.8" stroke="#2e7d32" stroke-width="1"/>
<rect x="368.0" y="351.8" width="4.1" height="1.0" fill="#2e7d32"/>
<rect x="368.0" y="532.0" width="4.1" height="0.0" fill="#2e7d32" opacity="0.55"/>
<line x1="376.6" y1="354.0" x2="376.6" y2="361.9" stroke="#c62828" stroke-width="1"/>
<rect x="374.5" y="354.4" width="4.1" height="3.7" fill="#c62828"/>
<rect x="374.5" y="531.5" width="4.1" height="0.5" fill="#c62828" opacity="0.55"/>
<line x1="383.2" y1="356.3" x2="383.2" y2="364.0" stroke="#c62828" stroke-width="1"/>
<rect x="381.1" y="356.3" width="4.1" height="1.1" fill="#c62828"/>
<rect x="381.1" y="531.8" width="4.1" height="0.2" fill="#c62828" opacity="0.55"/>
<line x1="389.7" y1="360.7" x2="389.7" y2="360.7" stroke="#2e7d32" stroke-width="1"/>
<rect x="387.7" y="360.7" width="4.1" height="1.0" fill="#2e7d32"/>
<rect x="387.7" y="531.9" width="4.1" height="0.1" fill="#2e7d32" opacity="0.55"/>
<line x1="396.3" y1="358.1" x2="396.3" y2="363.8" stroke="#c62828" stroke-width="1"/>
<rect x="394.3" y="358.1" width="4.1" height="5.6" fill="#c62828"/>
<rect x="394.3" y="532.0" width="4.1" height="0.0" fill="#c62828" opacity="0.55"/>
<line x1="402.9" y1="360.6" x2="402.9" y2="361.9" stroke="#2e7d32" stroke-width="1"/>
<rect x="400.9" y="360.6" width="4.1" height="1.3" fill="#2e7d32"/>
<rect x="400.9" y="531.9" width="4.1" height="0.1" fill="#2e7d32" opacity="0.55"/>
<line x1="409.5" y1="363.0" x2="409.5" y2="369.7" stroke="#c62828" stroke-width="1"/>
<rect x="407.4" y="363.0" width="4.1" height="6.7" fill="#c62828"/>
<rect x="407.4" y="532.0" width="4.1" height="0.0" fill="#c62828" opacity="0.55"/>
<line x1="416.1" y1="364.2" x2="416.1" y2="382.3" stroke="#c62828" stroke-width="1"/>
<rect x="414.0" y="364.2" width="4.1" height="11.1" fill="#c62828"/>
<rect x="414.0" y="531.0" width="4.1" height="1.0" fill="#c62828" opacity="0.55"/>
<line x1="422.6" y1="361.9" x2="422.6" y2="374.9" stroke="#2e7d32" stroke-width="1"/>
<rect x="420.6" y="361.9" width="4.1" height="9.6" fill="#2e7d32"/>
<rect x="420.6" y="531.3" width="4.1" height="0.7" fill="#2e7d32" opacity="0.55"/>
<line x1="429.2" y1="366.1" x2="429.2" y2="366.1" stroke="#2e7d32" stroke-width="1"/>
<rect x="427.2" y="366.1" width="4.1" height="1.0" fill="#2e7d32"/>
<rect x="427.2" y="532.0" width="4.1" height="0.0" fill="#2e7d32" opacity="0.55"/>
<line x1="435.8" y1="367.9" x2="435.8" y2="370.4" stroke="#c62828" stroke-width="1"/>
<rect x="433.8" y="369.4" width="4.1" height="1.0" fill="#c62828"/>
<rect x="433.8" y="531.5" width="4.1" height="0.5" fill="#c62828" opacity="0.55"/>
<line x1="442.4" y1="369.4" x2="442.4" y2="372.1" stroke="#c62828" stroke-width="1"/>
<rect x="440.3" y="369.4" width="4.1" height="2.8" fill="#c62828"/>
<rect x="440.3" y="531.9" width="4.1" height="0.1" fill="#c62828" opacity="0.55"/>
<line x1="449.0" y1="370.8" x2="449.0" y2="370.8" stroke="#2e7d32" stroke-width="1"/>
<rect x="446.9" y="370.8" width="4.1" height="1.0" fill="#2e7d32"/>
<rect x="446.9" y="532.0" width="4.1" height="0.0" fill="#2e7d32" opacity="0.55"/>
<line x1="455.5" y1="370.9" x2="455.5" y2="371.2" stroke="#c62828" stroke-width="1"/>
<rect x="453.5" y="370.9" width="4.1" height="1.0" fill="#c62828"/>
<rect x="453.5" y="531.9" width="4.1" height="0.1" fill="#c62828" opacity="0.55"/>
<line x1="462.1" y1="367.6" x2="462.1" y2="372.6" stroke="#2e7d32" stroke-width="1"/>
<rect x="460.1" y="370.5" width="4.1" height="2.1" fill="#2e7d32"/>
<rect x="460.1" y="531.8" width="4.1" height="0.2" fill="#2e7d32" opacity="0.55"/>
<line x1="468.7" y1="350.7" x2="468.7" y2="369.5" stroke="#2e7d32" stroke-width="1"/>
<rect x="466.7" y="350.7" width="4.1" height="15.3" fill="#2e7d32"/>
<rect x="466.7" y="531.4" width="4.1" height="0.6" fill="#2e7d32" opacity="0.55"/>
<line x1="475.3" y1="365.5" x2="475.3" y2="365.5" stroke="#2e7d32" stroke-width="1"/>
<rect x="473.3" y="365.5" width="4.1" height="1.0" fill="#2e7d32"/>
<rect x="473.3" y="531.9" width="4.1" height="0.1" fill="#2e7d32" opacity="0.55"/>
<line x1="481.9" y1="358.4" x2="481.9" y2="373.1" stroke="#2e7d32" stroke-width="1"/>
<rect x="479.8" y="361.9" width="4.1" height="11.2" fill="#2e7d32"/>
<rect x="479.8" y="532.0" width="4.1" height="0.0" fill="#2e7d32" opacity="0.55"/>
<line x1="488.5" y1="346.9" x2="488.5" y2="361.9" stroke="#2e7d32" stroke-width="1"/>
<rect x="486.4" y="346.9" width="4.1" height="11.2" fill="#2e7d32"/>
<rect x="486.4" y="531.3" width="4.1" height="0.7" fill="#2e7d32" opacity="0.55"/>
<line x1="495.0" y1="330.7" x2="495.0" y2="360.0" stroke="#2e7d32" stroke-width="1"/>
<rect x="493.0" y="351.0" width="4.1" height="9.0" fill="#2e7d32"/>
<rect x="493.0" y="530.9" width="4.1" height="1.1" fill="#2e7d32" opacity="0.55"/>
<line x1="501.6" y1="332.0" x2="501.6" y2="345.1" stroke="#2e7d32" stroke-width="1"/>
<rect x="499.6" y="339.5" width="4.1" height="5.6" fill="#2e7d32"/>
<rect x="499.6" y="531.6" width="4.1" height="0.4" fill="#2e7d32" opacity="0.55"/>
<line x1="508.2" y1="339.5" x2="508.2" y2="339.5" stroke="#2e7d32" stroke-width="1"/>
<rect x="506.2" y="339.5" width="4.1" height="1.0" fill="#2e7d32"/>
<rect x="506.2" y="531.9" width="4.1" height="0.1" fill="#2e7d32" opacity="0.55"/>
<line x1="514.8" y1="351.4" x2="514.8" y2="361.4" stroke="#2e7d32" stroke-width="1"/>
<rect x="512.7" y="351.4" width="4.1" height="10.0" fill="#2e7d32"/>
<rect x="512.7" y="532.0" width="4.1" height="0.0" fill="#2e7d32" opacity="0.55"/>
<line x1="521.4" y1="352.3" x2="521.4" y2="361.6" stroke="#c62828" stroke-width="1"/>
<rect x="519.3" y="352.3" width="4.1" height="9.3" fill="#c62828"/>
<rect x="519.3" y="531.8" width="4.1" height="0.2" fill="#c62828" opacity="0.55"/>
<line x1="527.9" y1="341.6" x2="527.9" y2="341.6" stroke="#2e7d32" stroke-width="1"/>
<rect x="525.9" y="341.6" width="4.1" height="1.0" fill="#2e7d32"/>
<rect x="525.9" y="532.0" width="4.1" height="0.0" fill="#2e7d32" opacity="0.55"/>
<line x1="534.5" y1="335.9" x2="534.5" y2="348.8" stroke="#c62828" stroke-width="1"/>
<rect x="532.5" y="335.9" width="4.1" height="11.1" fill="#c62828"/>
<rect x="532.5" y="531.9" width="4.1" height="0.1" fill="#c62828" opacity="0.55"/>
<line x1="541.1" y1="343.2" x2="541.1" y2="343.2" stroke="#2e7d32" stroke-width="1"/>
<rect x="539.1" y="343.2" width="4.1" height="1.0" fill="#2e7d32"/>
<rect x="539.1" y="532.0" width="4.1" height="0.0" fill="#2e7d32" opacity="0.55"/>
<line x1="547.7" y1="332.0" x2="547.7" y2="348.5" stroke="#c62828" stroke-width="1"/>
<rect x="545.6" y="343.2" width="4.1" height="5.3" fill="#c62828"/>
<rect x="545.6" y="531.9" width="4.1" height="0.1" fill="#c62828" opacity="0.55"/>
<line x1="554.3" y1="332.1" x2="554.3" y2="332.1" stroke="#2e7d32" stroke-width="1"/>
<rect x="552.2" y="332.1" width="4.1" height="1.0" fill="#2e7d32"/>
<rect x="552.2" y="531.9" width="4.1" height="0.1" fill="#2e7d32" opacity="0.55"/>
<line x1="560.8" y1="333.9" x2="560.8" y2="343.3" stroke="#c62828" stroke-width="1"/>
<rect x="558.8" y="338.0" width="4.1" height="5.2" fill="#c62828"/>
<rect x="558.8" y="531.7" width="4.1" height="0.3" fill="#c62828" opacity="0.55"/>
<line x1="567.4" y1="348.3" x2="567.4" y2="348.8" stroke="#2e7d32" stroke-width="1"/>
<rect x="565.4" y="348.3" width="4.1" height="1.0" fill="#2e7d32"/>
<rect x="565.4" y="531.8" width="4.1" height="0.2" fill="#2e7d32" opacity="0.55"/>
<line x1="574.0" y1="343.2" x2="574.0" y2="344.1" stroke="#2e7d32" stroke-width="1"/>
<rect x="572.0" y="343.2" width="4.1" height="1.0" fill="#2e7d32"/>
<rect x="572.0" y="531.9" width="4.1" height="0.1" fill="#2e7d32" opacity="0.55"/>
<line x1="580.6" y1="346.9" x2="580.6" y2="346.9" stroke="#2e7d32" stroke-width="1"/>
<rect x="578.5" y="346.9" width="4.1" height="1.0" fill="#2e7d32"/>
<rect x="578.5" y="532.0" width="4.1" height="0.0" fill="#2e7d32" opacity="0.55"/>
<line x1="587.2" y1="343.2" x2="587.2" y2="343.2" stroke="#2e7d32" stroke-width="1"/>
<rect x="585.1" y="343.2" width="4.1" height="1.0" fill="#2e7d32"/>
<rect x="585.1" y="532.0" width="4.1" height="0.0" fill="#2e7d32" opacity="0.55"/>
<line x1="593.7" y1="317.2" x2="593.7" y2="338.3" stroke="#2e7d32" stroke-width="1"/>
<rect x="591.7" y="320.9" width="4.1" height="11.2" fill="#2e7d32"/>
<rect x="591.7" y="529.8" width="4.1" height="2.2" fill="#2e7d32" opacity="0.55"/>
<line x1="600.3" y1="317.1" x2="600.3" y2="329.9" stroke="#2e7d32" stroke-width="1"/>
<rect x="598.3" y="318.2" width="4.1" height="7.1" fill="#2e7d32"/>
<rect x="598.3" y="530.4" width="4.1" height="1.6" fill="#2e7d32" opacity="0.55"/>
<line x1="606.9" y1="302.9" x2="606.9" y2="322.1" stroke="#2e7d32" stroke-width="1"/>
<rect x="604.9" y="313.3" width="4.1" height="2.7" fill="#2e7d32"/>
<rect x="604.9" y="526.1" width="4.1" height="5.9" fill="#2e7d32" opacity="0.55"/>
<line x1="613.5" y1="309.6" x2="613.5" y2="328.3" stroke="#2e7d32" stroke-width="1"/>
<rect x="611.4" y="311.7" width="4.1" height="1.6" fill="#2e7d32"/>
<rect x="611.4" y="528.8" width="4.1" height="3.2" fill="#2e7d32" opacity="0.55"/>
<line x1="620.1" y1="302.9" x2="620.1" y2="320.8" stroke="#2e7d32" stroke-width="1"/>
<rect x="618.0" y="309.6" width="4.1" height="1.0" fill="#2e7d32"/>
<rect x="618.0" y="527.0" width="4.1" height="5.0" fill="#2e7d32" opacity="0.55"/>
<line x1="626.6" y1="308.0" x2="626.6" y2="350.7" stroke="#c62828" stroke-width="1"/>
<rect x="624.6" y="311.7" width="4.1" height="11.1" fill="#c62828"/>
<rect x="624.6" y="527.4" width="4.1" height="4.6" fill="#c62828" opacity="0.55"/>
<line x1="633.2" y1="311.5" x2="633.2" y2="338.9" stroke="#c62828" stroke-width="1"/>
<rect x="631.2" y="328.3" width="4.1" height="3.7" fill="#c62828"/>
<rect x="631.2" y="530.5" width="4.1" height="1.5" fill="#c62828" opacity="0.55"/>
<line x1="639.8" y1="323.5" x2="639.8" y2="337.4" stroke="#2e7d32" stroke-width="1"/>
<rect x="637.8" y="323.6" width="4.1" height="8.4" fill="#2e7d32"/>
<rect x="637.8" y="530.9" width="4.1" height="1.1" fill="#2e7d32" opacity="0.55"/>
<line x1="646.4" y1="325.6" x2="646.4" y2="335.7" stroke="#c62828" stroke-width="1"/>
<rect x="644.3" y="325.8" width="4.1" height="6.3" fill="#c62828"/>
<rect x="644.3" y="531.5" width="4.1" height="0.5" fill="#c62828" opacity="0.55"/>
<line x1="653.0" y1="318.9" x2="653.0" y2="332.1" stroke="#2e7d32" stroke-width="1"/>
<rect x="650.9" y="332.0" width="4.1" height="1.0" fill="#2e7d32"/>
<rect x="650.9" y="529.7" width="4.1" height="2.3" fill="#2e7d32" opacity="0.55"/>
<line x1="659.5" y1="317.6" x2="659.5" y2="332.0" stroke="#c62828" stroke-width="1"/>
<rect x="657.5" y="323.9" width="4.1" height="1.0" fill="#c62828"/>
<rect x="657.5" y="531.7" width="4.1" height="0.3" fill="#c62828" opacity="0.55"/>
<line x1="666.1" y1="325.7" x2="666.1" y2="332.0" stroke="#c62828" stroke-width="1"/>
<rect x="664.1" y="331.9" width="4.1" height="1.0" fill="#c62828"/>
<rect x="664.1" y="531.4" width="4.1" height="0.6" fill="#c62828" opacity="0.55"/>
<line x1="672.7" y1="325.7" x2="672.7" y2="332.0" stroke="#2e7d32" stroke-width="1"/>
<rect x="670.7" y="331.9" width="4.1" height="1.0" fill="#2e7d32"/>
<rect x="670.7" y="531.8" width="4.1" height="0.2" fill="#2e7d32" opacity="0.55"/>
<line x1="679.3" y1="332.0" x2="679.3" y2="332.0" stroke="#2e7d32" stroke-width="1"/>
<rect x="677.3" y="332.0" width="4.1" height="1.0" fill="#2e7d32"/>
<rect x="677.3" y="531.8" width="4.1" height="0.2" fill="#2e7d32" opacity="0.55"/>
<line x1="685.9" y1="321.6" x2="685.9" y2="331.6" stroke="#2e7d32" stroke-width="1"/>
<rect x="683.8" y="321.6" width="4.1" height="10.0" fill="#2e7d32"/>
<rect x="683.8" y="532.0" width="4.1" height="0.0" fill="#2e7d32" opacity="0.55"/>
<line x1="692.5" y1="328.0" x2="692.5" y2="330.8" stroke="#c62828" stroke-width="1"/>
<rect x="690.4" y="328.0" width="4.1" height="2.8" fill="#c62828"/>
<rect x="690.4" y="531.8" width="4.1" height="0.2" fill="#c62828" opacity="0.55"/>
<line x1="699.0" y1="331.9" x2="699.0" y2="332.0" stroke="#c62828" stroke-width="1"/>
<rect x="697.0" y="331.9" width="4.1" height="1.0" fill="#c62828"/>
<rect x="697.0" y="531.8" width="4.1" height="0.2" fill="#c62828" opacity="0.55"/>
<line x1="705.6" y1="328.2" x2="705.6" y2="332.0" stroke="#2e7d32" stroke-width="1"/>
<rect x="703.6" y="328.2" width="4.1" height="3.8" fill="#2e7d32"/>
<rect x="703.6" y="531.9" width="4.1" height="0.1" fill="#2e7d32" opacity="0.55"/>
<line x1="712.2" y1="332.0" x2="712.2" y2="332.0" stroke="#c62828" stroke-width="1"/>
<rect x="710.2" y="332.0" width="4.1" height="1.0" fill="#c62828"/>
<rect x="710.2" y="531.8" width="4.1" height="0.2" fill="#c62828" opacity="0.55"/>
<line x1="718.8" y1="332.0" x2="718.8" y2="335.7" stroke="#c62828" stroke-width="1"/>
<rect x="716.7" y="332.0" width="4.1" height="3.7" fill="#c62828"/>
<rect x="716.7" y="531.7" width="4.1" height="0.3" fill="#c62828" opacity="0.55"/>
<line x1="725.4" y1="335.7" x2="725.4" y2="335.7" stroke="#2e7d32" stroke-width="1"/>
<rect x="723.3" y="335.7" width="4.1" height="1.0" fill="#2e7d32"/>
<rect x="723.3" y="532.0" width="4.1" height="0.0" fill="#2e7d32" opacity="0.55"/>
<line x1="731.9" y1="339.5" x2="731.9" y2="339.5" stroke="#2e7d32" stroke-width="1"/>
<rect x="729.9" y="339.5" width="4.1" height="1.0" fill="#2e7d32"/>
<rect x="729.9" y="531.9" width="4.1" height="0.1" fill="#2e7d32" opacity="0.55"/>
<line x1="738.5" y1="343.2" x2="738.5" y2="343.2" stroke="#2e7d32" stroke-width="1"/>
<rect x="736.5" y="343.2" width="4.1" height="1.0" fill="#2e7d32"/>
<rect x="736.5" y="532.0" width="4.1" height="0.0" fill="#2e7d32" opacity="0.55"/>
<line x1="745.1" y1="343.2" x2="745.1" y2="350.7" stroke="#c62828" stroke-width="1"/>
<rect x="743.1" y="343.2" width="4.1" height="7.5" fill="#c62828"/>
<rect x="743.1" y="531.8" width="4.1" height="0.2" fill="#c62828" opacity="0.55"/>
<line x1="751.7" y1="350.7" x2="751.7" y2="354.4" stroke="#2e7d32" stroke-width="1"/>
<rect x="749.6" y="350.7" width="4.1" height="1.0" fill="#2e7d32"/>
<rect x="749.6" y="531.8" width="4.1" height="0.2" fill="#2e7d32" opacity="0.55"/>
<line x1="758.3" y1="253.6" x2="758.3" y2="350.7" stroke="#2e7d32" stroke-width="1"/>
<rect x="756.2" y="268.5" width="4.1" height="82.1" fill="#2e7d32"/>
<rect x="756.2" y="516.2" width="4.1" height="15.8" fill="#2e7d32" opacity="0.55"/>
<line x1="764.8" y1="227.5" x2="764.8" y2="283.5" stroke="#2e7d32" stroke-width="1"/>
<rect x="762.8" y="246.1" width="4.1" height="22.4" fill="#2e7d32"/>
<rect x="762.8" y="496.5" width="4.1" height="35.5" fill="#2e7d32" opacity="0.55"/>
<line x1="771.4" y1="223.7" x2="771.4" y2="268.5" stroke="#2e7d32" stroke-width="1"/>
<rect x="769.4" y="238.7" width="4.1" height="7.4" fill="#2e7d32"/>
<rect x="769.4" y="483.1" width="4.1" height="48.9" fill="#2e7d32" opacity="0.55"/>
<line x1="778.0" y1="234.9" x2="778.0" y2="279.7" stroke="#c62828" stroke-width="1"/>
<rect x="776.0" y="239.2" width="4.1" height="39.0" fill="#c62828"/>
<rect x="776.0" y="504.9" width="4.1" height="27.1" fill="#c62828" opacity="0.55"/>
<line x1="784.6" y1="253.6" x2="784.6" y2="283.5" stroke="#2e7d32" stroke-width="1"/>
<rect x="782.5" y="264.8" width="4.1" height="13.0" fill="#2e7d32"/>
<rect x="782.5" y="514.5" width="4.1" height="17.5" fill="#2e7d32" opacity="0.55"/>
<line x1="791.2" y1="257.3" x2="791.2" y2="276.0" stroke="#c62828" stroke-width="1"/>
<rect x="789.1" y="261.1" width="4.1" height="14.2" fill="#c62828"/>
<rect x="789.1" y="523.5" width="4.1" height="8.5" fill="#c62828" opacity="0.55"/>
<line x1="797.7" y1="257.3" x2="797.7" y2="275.2" stroke="#2e7d32" stroke-width="1"/>
<rect x="795.7" y="268.8" width="4.1" height="3.5" fill="#2e7d32"/>
<rect x="795.7" y="527.9" width="4.1" height="4.1" fill="#2e7d32" opacity="0.55"/>
<line x1="804.3" y1="257.3" x2="804.3" y2="272.3" stroke="#2e7d32" stroke-width="1"/>
<rect x="802.3" y="261.3" width="4.1" height="7.2" fill="#2e7d32"/>
<rect x="802.3" y="527.7" width="4.1" height="4.3" fill="#2e7d32" opacity="0.55"/>
<line x1="810.9" y1="261.1" x2="810.9" y2="274.9" stroke="#c62828" stroke-width="1"/>
<rect x="808.9" y="261.1" width="4.1" height="3.7" fill="#c62828"/>
<rect x="808.9" y="525.5" width="4.1" height="6.5" fill="#c62828" opacity="0.55"/>
<line x1="817.5" y1="257.3" x2="817.5" y2="274.9" stroke="#2e7d32" stroke-width="1"/>
<rect x="815.4" y="261.1" width="4.1" height="1.0" fill="#2e7d32"/>
<rect x="815.4" y="528.0" width="4.1" height="4.0" fill="#2e7d32" opacity="0.55"/>
<line x1="824.1" y1="261.1" x2="824.1" y2="274.6" stroke="#c62828" stroke-width="1"/>
<rect x="822.0" y="261.1" width="4.1" height="11.1" fill="#c62828"/>
<rect x="822.0" y="530.0" width="4.1" height="2.0" fill="#c62828" opacity="0.55"/>
<line x1="830.6" y1="272.2" x2="830.6" y2="274.6" stroke="#c62828" stroke-width="1"/>
<rect x="828.6" y="272.3" width="4.1" height="1.9" fill="#c62828"/>
<rect x="828.6" y="530.5" width="4.1" height="1.5" fill="#c62828" opacity="0.55"/>
<line x1="837.2" y1="264.8" x2="837.2" y2="274.6" stroke="#2e7d32" stroke-width="1"/>
<rect x="835.2" y="265.3" width="4.1" height="8.8" fill="#2e7d32"/>
<rect x="835.2" y="531.0" width="4.1" height="1.0" fill="#2e7d32" opacity="0.55"/>
<line x1="843.8" y1="238.7" x2="843.8" y2="268.5" stroke="#2e7d32" stroke-width="1"/>
<rect x="841.8" y="246.1" width="4.1" height="22.4" fill="#2e7d32"/>
<rect x="841.8" y="520.4" width="4.1" height="11.6" fill="#2e7d32" opacity="0.55"/>
<line x1="850.4" y1="238.7" x2="850.4" y2="257.3" stroke="#c62828" stroke-width="1"/>
<rect x="848.3" y="246.1" width="4.1" height="7.4" fill="#c62828"/>
<rect x="848.3" y="523.1" width="4.1" height="8.9" fill="#c62828" opacity="0.55"/>
<line x1="857.0" y1="186.4" x2="857.0" y2="253.6" stroke="#2e7d32" stroke-width="1"/>
<rect x="854.9" y="198.0" width="4.1" height="51.9" fill="#2e7d32"/>
<rect x="854.9" y="506.5" width="4.1" height="25.5" fill="#2e7d32" opacity="0.55"/>
<line x1="863.5" y1="190.1" x2="863.5" y2="212.5" stroke="#2e7d32" stroke-width="1"/>
<rect x="861.5" y="198.2" width="4.1" height="3.2" fill="#2e7d32"/>
<rect x="861.5" y="497.2" width="4.1" height="34.8" fill="#2e7d32" opacity="0.55"/>
<line x1="870.1" y1="175.2" x2="870.1" y2="231.2" stroke="#c62828" stroke-width="1"/>
<rect x="868.1" y="197.6" width="4.1" height="22.4" fill="#c62828"/>
<rect x="868.1" y="492.5" width="4.1" height="39.5" fill="#c62828" opacity="0.55"/>
<line x1="876.7" y1="193.9" x2="876.7" y2="234.9" stroke="#2e7d32" stroke-width="1"/>
<rect x="874.7" y="194.1" width="4.1" height="22.1" fill="#2e7d32"/>
<rect x="874.7" y="510.9" width="4.1" height="21.1" fill="#2e7d32" opacity="0.55"/>
<line x1="883.3" y1="171.5" x2="883.3" y2="205.1" stroke="#2e7d32" stroke-width="1"/>
<rect x="881.3" y="190.1" width="4.1" height="7.1" fill="#2e7d32"/>
<rect x="881.3" y="505.4" width="4.1" height="26.6" fill="#2e7d32" opacity="0.55"/>
<line x1="889.9" y1="156.5" x2="889.9" y2="193.9" stroke="#2e7d32" stroke-width="1"/>
<rect x="887.8" y="175.1" width="4.1" height="15.0" fill="#2e7d32"/>
<rect x="887.8" y="496.5" width="4.1" height="35.5" fill="#2e7d32" opacity="0.55"/>
<line x1="896.5" y1="164.0" x2="896.5" y2="186.4" stroke="#c62828" stroke-width="1"/>
<rect x="894.4" y="171.5" width="4.1" height="3.8" fill="#c62828"/>
<rect x="894.4" y="514.1" width="4.1" height="17.9" fill="#c62828" opacity="0.55"/>
<line x1="903.0" y1="137.9" x2="903.0" y2="182.7" stroke="#2e7d32" stroke-width="1"/>
<rect x="901.0" y="156.5" width="4.1" height="18.7" fill="#2e7d32"/>
<rect x="901.0" y="494.0" width="4.1" height="38.0" fill="#2e7d32" opacity="0.55"/>
<line x1="909.6" y1="137.9" x2="909.6" y2="171.5" stroke="#2e7d32" stroke-width="1"/>
<rect x="907.6" y="149.2" width="4.1" height="7.2" fill="#2e7d32"/>
<rect x="907.6" y="501.6" width="4.1" height="30.4" fill="#2e7d32" opacity="0.55"/>
<line x1="916.2" y1="149.1" x2="916.2" y2="171.5" stroke="#c62828" stroke-width="1"/>
<rect x="914.2" y="149.1" width="4.1" height="14.7" fill="#c62828"/>
<rect x="914.2" y="512.8" width="4.1" height="19.2" fill="#c62828" opacity="0.55"/>
<line x1="922.8" y1="156.5" x2="922.8" y2="171.5" stroke="#2e7d32" stroke-width="1"/>
<rect x="920.7" y="163.9" width="4.1" height="1.0" fill="#2e7d32"/>
<rect x="920.7" y="521.1" width="4.1" height="10.9" fill="#2e7d32" opacity="0.55"/>
<line x1="929.4" y1="160.3" x2="929.4" y2="182.7" stroke="#c62828" stroke-width="1"/>
<rect x="927.3" y="160.8" width="4.1" height="10.7" fill="#c62828"/>
<rect x="927.3" y="518.3" width="4.1" height="13.7" fill="#c62828" opacity="0.55"/>
<line x1="935.9" y1="164.0" x2="935.9" y2="178.9" stroke="#c62828" stroke-width="1"/>
<rect x="933.9" y="171.6" width="4.1" height="3.6" fill="#c62828"/>
<rect x="933.9" y="515.4" width="4.1" height="16.6" fill="#c62828" opacity="0.55"/>
<line x1="942.5" y1="160.3" x2="942.5" y2="178.9" stroke="#2e7d32" stroke-width="1"/>
<rect x="940.5" y="167.7" width="4.1" height="7.5" fill="#2e7d32"/>
<rect x="940.5" y="522.9" width="4.1" height="9.1" fill="#2e7d32" opacity="0.55"/>
<line x1="949.1" y1="160.3" x2="949.1" y2="178.9" stroke="#2e7d32" stroke-width="1"/>
<rect x="947.1" y="164.0" width="4.1" height="3.9" fill="#2e7d32"/>
<rect x="947.1" y="520.2" width="4.1" height="11.8" fill="#2e7d32" opacity="0.55"/>
<line x1="955.7" y1="55.7" x2="955.7" y2="145.3" stroke="#c62828" stroke-width="1"/>
<rect x="953.6" y="113.4" width="4.1" height="5.8" fill="#c62828"/>
<rect x="953.6" y="412.0" width="4.1" height="120.0" fill="#c62828" opacity="0.55"/>
<line x1="962.3" y1="108.0" x2="962.3" y2="130.4" stroke="#2e7d32" stroke-width="1"/>
<rect x="960.2" y="111.7" width="4.1" height="10.9" fill="#2e7d32"/>
<rect x="960.2" y="507.8" width="4.1" height="24.2" fill="#2e7d32" opacity="0.55"/>
<line x1="968.8" y1="93.1" x2="968.8" y2="119.2" stroke="#2e7d32" stroke-width="1"/>
<rect x="966.8" y="104.7" width="4.1" height="10.8" fill="#2e7d32"/>
<rect x="966.8" y="506.9" width="4.1" height="25.1" fill="#2e7d32" opacity="0.55"/>
<line x1="975.4" y1="66.9" x2="975.4" y2="115.5" stroke="#2e7d32" stroke-width="1"/>
<rect x="973.4" y="92.7" width="4.1" height="12.0" fill="#2e7d32"/>
<rect x="973.4" y="474.0" width="4.1" height="58.0" fill="#2e7d32" opacity="0.55"/>
<line x1="982.0" y1="78.1" x2="982.0" y2="104.3" stroke="#c62828" stroke-width="1"/>
<rect x="980.0" y="89.7" width="4.1" height="11.2" fill="#c62828"/>
<rect x="980.0" y="499.3" width="4.1" height="32.7" fill="#c62828" opacity="0.55"/>
<line x1="988.6" y1="85.6" x2="988.6" y2="130.4" stroke="#c62828" stroke-width="1"/>
<rect x="986.5" y="104.3" width="4.1" height="22.4" fill="#c62828"/>
<rect x="986.5" y="494.2" width="4.1" height="37.8" fill="#c62828" opacity="0.55"/>
<line x1="995.2" y1="122.9" x2="995.2" y2="134.1" stroke="#2e7d32" stroke-width="1"/>
<rect x="993.1" y="123.4" width="4.1" height="3.3" fill="#2e7d32"/>
<rect x="993.1" y="518.0" width="4.1" height="14.0" fill="#2e7d32" opacity="0.55"/>
<line x1="1001.7" y1="119.2" x2="1001.7" y2="141.6" stroke="#c62828" stroke-width="1"/>
<rect x="999.7" y="122.9" width="4.1" height="11.2" fill="#c62828"/>
<rect x="999.7" y="514.7" width="4.1" height="17.3" fill="#c62828" opacity="0.55"/>
<line x1="1008.3" y1="134.1" x2="1008.3" y2="160.3" stroke="#c62828" stroke-width="1"/>
<rect x="1006.3" y="134.1" width="4.1" height="11.2" fill="#c62828"/>
<rect x="1006.3" y="510.0" width="4.1" height="22.0" fill="#c62828" opacity="0.55"/>
<line x1="1014.9" y1="134.1" x2="1014.9" y2="160.3" stroke="#c62828" stroke-width="1"/>
<rect x="1012.9" y="145.3" width="4.1" height="14.4" fill="#c62828"/>
<rect x="1012.9" y="517.0" width="4.1" height="15.0" fill="#c62828" opacity="0.55"/>
<line x1="1021.5" y1="134.1" x2="1021.5" y2="171.5" stroke="#c62828" stroke-width="1"/>
<rect x="1019.4" y="156.9" width="4.1" height="14.6" fill="#c62828"/>
<rect x="1019.4" y="513.0" width="4.1" height="19.0" fill="#c62828" opacity="0.55"/>
<line x1="1028.1" y1="152.8" x2="1028.1" y2="171.5" stroke="#2e7d32" stroke-width="1"/>
<rect x="1026.0" y="156.5" width="4.1" height="14.6" fill="#2e7d32"/>
<rect x="1026.0" y="522.9" width="4.1" height="9.1" fill="#2e7d32" opacity="0.55"/>
<line x1="1034.6" y1="152.8" x2="1034.6" y2="182.7" stroke="#c62828" stroke-width="1"/>
<rect x="1032.6" y="152.8" width="4.1" height="22.4" fill="#c62828"/>
<rect x="1032.6" y="516.4" width="4.1" height="15.6" fill="#c62828" opacity="0.55"/>
<line x1="1041.2" y1="160.3" x2="1041.2" y2="190.1" stroke="#2e7d32" stroke-width="1"/>
<rect x="1039.2" y="163.6" width="4.1" height="8.3" fill="#2e7d32"/>
<rect x="1039.2" y="520.4" width="4.1" height="11.6" fill="#2e7d32" opacity="0.55"/>
<line x1="1047.8" y1="160.3" x2="1047.8" y2="167.7" stroke="#2e7d32" stroke-width="1"/>
<rect x="1045.8" y="160.7" width="4.1" height="1.0" fill="#2e7d32"/>
<rect x="1045.8" y="525.5" width="4.1" height="6.5" fill="#2e7d32" opacity="0.55"/>
<line x1="1054.4" y1="160.3" x2="1054.4" y2="178.9" stroke="#c62828" stroke-width="1"/>
<rect x="1052.3" y="163.6" width="4.1" height="11.2" fill="#c62828"/>
<rect x="1052.3" y="524.0" width="4.1" height="8.0" fill="#c62828" opacity="0.55"/>
<line x1="1061.0" y1="160.3" x2="1061.0" y2="175.2" stroke="#2e7d32" stroke-width="1"/>
<rect x="1058.9" y="160.3" width="4.1" height="14.6" fill="#2e7d32"/>
<rect x="1058.9" y="532.0" width="4.1" height="0.0" fill="#2e7d32" opacity="0.55"/>
<line x1="1067.5" y1="160.3" x2="1067.5" y2="167.7" stroke="#c62828" stroke-width="1"/>
<rect x="1065.5" y="160.3" width="4.1" height="1.0" fill="#c62828"/>
<rect x="1065.5" y="532.0" width="4.1" height="0.0" fill="#c62828" opacity="0.55"/>
<line x1="1074.1" y1="160.3" x2="1074.1" y2="167.7" stroke="#2e7d32" stroke-width="1"/>
<rect x="1072.1" y="164.0" width="4.1" height="1.0" fill="#2e7d32"/>
<rect x="1072.1" y="532.0" width="4.1" height="0.0" fill="#2e7d32" opacity="0.55"/>
<line x1="1080.7" y1="167.3" x2="1080.7" y2="167.3" stroke="#2e7d32" stroke-width="1"/>
<rect x="1078.7" y="167.3" width="4.1" height="1.0" fill="#2e7d32"/>
<rect x="1078.7" y="532.0" width="4.1" height="0.0" fill="#2e7d32" opacity="0.55"/>
<line x1="64" y1="532" x2="1084" y2="532" stroke="#ccc"/>
<text x="58" y="420" font-size="9" fill="#999" text-anchor="end">2.6M</text>
<line x1="67.3" y1="532" x2="67.3" y2="536" stroke="#999"/>
<text x="67.3" y="547.0" font-size="9" fill="#666" text-anchor="middle">07/16 07:55</text>
<line x1="231.8" y1="532" x2="231.8" y2="536" stroke="#999"/>
<text x="231.8" y="547.0" font-size="9" fill="#666" text-anchor="middle">10:00</text>
<line x1="396.3" y1="532" x2="396.3" y2="536" stroke="#999"/>
<text x="396.3" y="547.0" font-size="9" fill="#666" text-anchor="middle">12:10</text>
<line x1="560.8" y1="532" x2="560.8" y2="536" stroke="#999"/>
<text x="560.8" y="547.0" font-size="9" fill="#666" text-anchor="middle">14:35</text>
<line x1="725.4" y1="532" x2="725.4" y2="536" stroke="#999"/>
<text x="725.4" y="547.0" font-size="9" fill="#666" text-anchor="middle">16:55</text>
<line x1="889.9" y1="532" x2="889.9" y2="536" stroke="#999"/>
<text x="889.9" y="547.0" font-size="9" fill="#666" text-anchor="middle">19:10</text>
<line x1="1054.4" y1="532" x2="1054.4" y2="536" stroke="#999"/>
<text x="1054.4" y="547.0" font-size="9" fill="#666" text-anchor="middle">07/17 05:15</text>
<text x="64" y="22" font-size="15" font-weight="bold" fill="#1a1a1a">CJMB - Callan JMB Inc.</text>
<text x="1084" y="22" font-size="11" fill="#666" text-anchor="end">last $1.28 (+77.2% over window)</text>
<rect x="934" y="28" width="10" height="8" fill="#e8f0fe"/>
<text x="948" y="35" font-size="9" fill="#666">premarket</text>
<rect x="1006" y="28" width="10" height="8" fill="#fff4e0"/>
<text x="1020" y="35" font-size="9" fill="#666">after-hrs</text>
</svg>