<svg xmlns="http://www.w3.org/2000/svg" width="1100" height="560" viewBox="0 0 1100 560" font-family="Arial,Helvetica,sans-serif">
<rect width="1100" height="560" fill="white"/>
<rect x="64.0" y="36" width="16.2" height="496.0" fill="#e8f0fe"/>
<rect x="541.6" y="36" width="388.6" height="496.0" fill="#fff4e0"/>
<rect x="930.2" y="36" width="153.8" height="496.0" fill="#e8f0fe"/>
<line x1="64" y1="404.0" x2="1084" y2="404.0" stroke="#e6e6e6"/>
<text x="58" y="407.0" font-size="10" fill="#666" text-anchor="end">$1.25</text>
<line x1="64" y1="312.0" x2="1084" y2="312.0" stroke="#e6e6e6"/>
<text x="58" y="315.0" font-size="10" fill="#666" text-anchor="end">$1.52</text>
<line x1="64" y1="220.0" x2="1084" y2="220.0" stroke="#e6e6e6"/>
<text x="58" y="223.0" font-size="10" fill="#666" text-anchor="end">$1.79</text>
<line x1="64" y1="128.0" x2="1084" y2="128.0" stroke="#e6e6e6"/>
<text x="58" y="131.0" font-size="10" fill="#666" text-anchor="end">$2.06</text>
<line x1="64" y1="36.0" x2="1084" y2="36.0" stroke="#e6e6e6"/>
<text x="58" y="39.0" font-size="10" fill="#666" text-anchor="end">$2.33</text>
<line x1="68.0" y1="339.8" x2="68.0" y2="346.6" stroke="#2e7d32" stroke-width="1"/>
<rect x="65.5" y="339.8" width="5.0" height="1.0" fill="#2e7d32"/>
<rect x="65.5" y="531.9" width="5.0" height="0.1" fill="#2e7d32" opacity="0.55"/>
<line x1="76.1" y1="336.4" x2="76.1" y2="336.4" stroke="#2e7d32" stroke-width="1"/>
<rect x="73.6" y="336.4" width="5.0" height="1.0" fill="#2e7d32"/>
<rect x="73.6" y="532.0" width="5.0" height="0.0" fill="#2e7d32" opacity="0.55"/>
<line x1="84.2" y1="343.2" x2="84.2" y2="343.2" stroke="#2e7d32" stroke-width="1"/>
<rect x="81.7" y="343.2" width="5.0" height="1.0" fill="#2e7d32"/>
<rect x="81.7" y="530.1" width="5.0" height="1.9" fill="#2e7d32" opacity="0.55"/>
<line x1="92.3" y1="333.9" x2="92.3" y2="342.9" stroke="#2e7d32" stroke-width="1"/>
<rect x="89.8" y="333.9" width="5.0" height="8.9" fill="#2e7d32"/>
<rect x="89.8" y="526.6" width="5.0" height="5.4" fill="#2e7d32" opacity="0.55"/>
<line x1="100.4" y1="338.1" x2="100.4" y2="343.2" stroke="#c62828" stroke-width="1"/>
<rect x="97.9" y="338.1" width="5.0" height="1.7" fill="#c62828"/>
<rect x="97.9" y="531.9" width="5.0" height="0.1" fill="#c62828" opacity="0.55"/>
<line x1="108.5" y1="339.8" x2="108.5" y2="345.8" stroke="#2e7d32" stroke-width="1"/>
<rect x="106.0" y="344.9" width="5.0" height="1.0" fill="#2e7d32"/>
<rect x="106.0" y="530.9" width="5.0" height="1.1" fill="#2e7d32" opacity="0.55"/>
<line x1="116.6" y1="344.9" x2="116.6" y2="353.5" stroke="#c62828" stroke-width="1"/>
<rect x="114.1" y="344.9" width="5.0" height="8.6" fill="#c62828"/>
<rect x="114.1" y="527.2" width="5.0" height="4.8" fill="#c62828" opacity="0.55"/>
<line x1="124.7" y1="353.5" x2="124.7" y2="353.5" stroke="#2e7d32" stroke-width="1"/>
<rect x="122.2" y="353.5" width="5.0" height="1.0" fill="#2e7d32"/>
<rect x="122.2" y="531.7" width="5.0" height="0.3" fill="#2e7d32" opacity="0.55"/>
<line x1="132.8" y1="356.6" x2="132.8" y2="356.9" stroke="#c62828" stroke-width="1"/>
<rect x="130.3" y="356.6" width="5.0" height="1.0" fill="#c62828"/>
<rect x="130.3" y="531.3" width="5.0" height="0.7" fill="#c62828" opacity="0.55"/>
<line x1="140.9" y1="353.5" x2="140.9" y2="356.9" stroke="#2e7d32" stroke-width="1"/>
<rect x="138.4" y="353.5" width="5.0" height="1.0" fill="#2e7d32"/>
<rect x="138.4" y="527.3" width="5.0" height="4.7" fill="#2e7d32" opacity="0.55"/>
<line x1="149.0" y1="353.5" x2="149.0" y2="353.5" stroke="#2e7d32" stroke-width="1"/>
<rect x="146.5" y="353.5" width="5.0" height="1.0" fill="#2e7d32"/>
<rect x="146.5" y="531.9" width="5.0" height="0.1" fill="#2e7d32" opacity="0.55"/>
<line x1="157.1" y1="353.5" x2="157.1" y2="353.5" stroke="#2e7d32" stroke-width="1"/>
<rect x="154.6" y="353.5" width="5.0" height="1.0" fill="#2e7d32"/>
<rect x="154.6" y="530.7" width="5.0" height="1.3" fill="#2e7d32" opacity="0.55"/>
<line x1="165.2" y1="358.7" x2="165.2" y2="360.3" stroke="#c62828" stroke-width="1"/>
<rect x="162.7" y="358.7" width="5.0" height="1.5" fill="#c62828"/>
<rect x="162.7" y="529.5" width="5.0" height="2.5" fill="#c62828" opacity="0.55"/>
<line x1="173.3" y1="366.7" x2="173.3" y2="377.0" stroke="#c62828" stroke-width="1"/>
<rect x="170.8" y="367.2" width="5.0" height="3.4" fill="#c62828"/>
<rect x="170.8" y="515.3" width="5.0" height="16.7" fill="#c62828" opacity="0.55"/>
<line x1="181.4" y1="370.6" x2="181.4" y2="374.0" stroke="#c62828" stroke-width="1"/>
<rect x="178.9" y="370.6" width="5.0" height="3.4" fill="#c62828"/>
<rect x="178.9" y="529.0" width="5.0" height="3.0" fill="#c62828" opacity="0.55"/>
<line x1="189.5" y1="370.6" x2="189.5" y2="371.0" stroke="#c62828" stroke-width="1"/>
<rect x="187.0" y="370.6" width="5.0" height="1.0" fill="#c62828"/>
<rect x="187.0" y="531.9" width="5.0" height="0.1" fill="#c62828" opacity="0.55"/>
<line x1="197.6" y1="370.6" x2="197.6" y2="372.3" stroke="#2e7d32" stroke-width="1"/>
<rect x="195.1" y="370.6" width="5.0" height="1.7" fill="#2e7d32"/>
<rect x="195.1" y="531.1" width="5.0" height="0.9" fill="#2e7d32" opacity="0.55"/>
<line x1="205.7" y1="372.3" x2="205.7" y2="374.0" stroke="#2e7d32" stroke-width="1"/>
<rect x="203.2" y="372.3" width="5.0" height="1.0" fill="#2e7d32"/>
<rect x="203.2" y="531.7" width="5.0" height="0.3" fill="#2e7d32" opacity="0.55"/>
<line x1="213.8" y1="370.6" x2="213.8" y2="371.0" stroke="#2e7d32" stroke-width="1"/>
<rect x="211.3" y="370.6" width="5.0" height="1.0" fill="#2e7d32"/>
<rect x="211.3" y="530.7" width="5.0" height="1.3" fill="#2e7d32" opacity="0.55"/>
<line x1="221.9" y1="372.3" x2="221.9" y2="374.0" stroke="#2e7d32" stroke-width="1"/>
<rect x="219.3" y="372.3" width="5.0" height="1.0" fill="#2e7d32"/>
<rect x="219.3" y="531.6" width="5.0" height="0.4" fill="#2e7d32" opacity="0.55"/>
<line x1="230.0" y1="372.3" x2="230.0" y2="374.0" stroke="#2e7d32" stroke-width="1"/>
<rect x="227.4" y="372.3" width="5.0" height="1.7" fill="#2e7d32"/>
<rect x="227.4" y="531.6" width="5.0" height="0.4" fill="#2e7d32" opacity="0.55"/>
<line x1="238.0" y1="370.6" x2="238.0" y2="370.6" stroke="#2e7d32" stroke-width="1"/>
<rect x="235.5" y="370.6" width="5.0" height="1.0" fill="#2e7d32"/>
<rect x="235.5" y="531.0" width="5.0" height="1.0" fill="#2e7d32" opacity="0.55"/>
<line x1="246.1" y1="370.6" x2="246.1" y2="373.7" stroke="#c62828" stroke-width="1"/>
<rect x="243.6" y="370.6" width="5.0" height="1.0" fill="#c62828"/>
<rect x="243.6" y="531.3" width="5.0" height="0.7" fill="#c62828" opacity="0.55"/>
<line x1="254.2" y1="372.3" x2="254.2" y2="374.0" stroke="#2e7d32" stroke-width="1"/>
<rect x="251.7" y="372.3" width="5.0" height="1.7" fill="#2e7d32"/>
<rect x="251.7" y="531.9" width="5.0" height="0.1" fill="#2e7d32" opacity="0.55"/>
<line x1="262.3" y1="372.2" x2="262.3" y2="374.0" stroke="#c62828" stroke-width="1"/>
<rect x="259.8" y="372.2" width="5.0" height="1.8" fill="#c62828"/>
<rect x="259.8" y="530.1" width="5.0" height="1.9" fill="#c62828" opacity="0.55"/>
<line x1="270.4" y1="374.4" x2="270.4" y2="374.4" stroke="#2e7d32" stroke-width="1"/>
<rect x="267.9" y="374.4" width="5.0" height="1.0" fill="#2e7d32"/>
<rect x="267.9" y="531.7" width="5.0" height="0.3" fill="#2e7d32" opacity="0.55"/>
<line x1="278.5" y1="374.0" x2="278.5" y2="375.7" stroke="#2e7d32" stroke-width="1"/>
<rect x="276.0" y="374.0" width="5.0" height="1.7" fill="#2e7d32"/>
<rect x="276.0" y="531.4" width="5.0" height="0.6" fill="#2e7d32" opacity="0.55"/>
<line x1="286.6" y1="372.3" x2="286.6" y2="374.0" stroke="#c62828" stroke-width="1"/>
<rect x="284.1" y="372.3" width="5.0" height="1.7" fill="#c62828"/>
<rect x="284.1" y="531.1" width="5.0" height="0.9" fill="#c62828" opacity="0.55"/>
<line x1="294.7" y1="370.6" x2="294.7" y2="370.9" stroke="#2e7d32" stroke-width="1"/>
<rect x="292.2" y="370.6" width="5.0" height="1.0" fill="#2e7d32"/>
<rect x="292.2" y="531.7" width="5.0" height="0.3" fill="#2e7d32" opacity="0.55"/>
<line x1="302.8" y1="372.3" x2="302.8" y2="372.3" stroke="#2e7d32" stroke-width="1"/>
<rect x="300.3" y="372.3" width="5.0" height="1.0" fill="#2e7d32"/>
<rect x="300.3" y="532.0" width="5.0" height="0.0" fill="#2e7d32" opacity="0.55"/>
<line x1="310.9" y1="370.6" x2="310.9" y2="372.3" stroke="#2e7d32" stroke-width="1"/>
<rect x="308.4" y="370.6" width="5.0" height="1.7" fill="#2e7d32"/>
<rect x="308.4" y="521.2" width="5.0" height="10.8" fill="#2e7d32" opacity="0.55"/>
<line x1="319.0" y1="368.0" x2="319.0" y2="368.0" stroke="#2e7d32" stroke-width="1"/>
<rect x="316.5" y="368.0" width="5.0" height="1.0" fill="#2e7d32"/>
<rect x="316.5" y="531.6" width="5.0" height="0.4" fill="#2e7d32" opacity="0.55"/>
<line x1="327.1" y1="367.2" x2="327.1" y2="370.6" stroke="#c62828" stroke-width="1"/>
<rect x="324.6" y="367.2" width="5.0" height="3.4" fill="#c62828"/>
<rect x="324.6" y="531.9" width="5.0" height="0.1" fill="#c62828" opacity="0.55"/>
<line x1="335.2" y1="370.6" x2="335.2" y2="370.6" stroke="#2e7d32" stroke-width="1"/>
<rect x="332.7" y="370.6" width="5.0" height="1.0" fill="#2e7d32"/>
<rect x="332.7" y="531.9" width="5.0" height="0.1" fill="#2e7d32" opacity="0.55"/>
<line x1="343.3" y1="370.6" x2="343.3" y2="370.6" stroke="#2e7d32" stroke-width="1"/>
<rect x="340.8" y="370.6" width="5.0" height="1.0" fill="#2e7d32"/>
<rect x="340.8" y="531.9" width="5.0" height="0.1" fill="#2e7d32" opacity="0.55"/>
<line x1="351.4" y1="370.3" x2="351.4" y2="370.3" stroke="#2e7d32" stroke-width="1"/>
<rect x="348.9" y="370.3" width="5.0" height="1.0" fill="#2e7d32"/>
<rect x="348.9" y="531.4" width="5.0" height="0.6" fill="#2e7d32" opacity="0.55"/>
<line x1="359.5" y1="370.3" x2="359.5" y2="370.3" stroke="#2e7d32" stroke-width="1"/>
<rect x="357.0" y="370.3" width="5.0" height="1.0" fill="#2e7d32"/>
<rect x="357.0" y="531.9" width="5.0" height="0.1" fill="#2e7d32" opacity="0.55"/>
<line x1="367.6" y1="368.9" x2="367.6" y2="368.9" stroke="#2e7d32" stroke-width="1"/>
<rect x="365.1" y="368.9" width="5.0" height="1.0" fill="#2e7d32"/>
<rect x="365.1" y="531.9" width="5.0" height="0.1" fill="#2e7d32" opacity="0.55"/>
<line x1="375.7" y1="368.9" x2="375.7" y2="368.9" stroke="#2e7d32" stroke-width="1"/>
<rect x="373.2" y="368.9" width="5.0" height="1.0" fill="#2e7d32"/>
<rect x="373.2" y="531.6" width="5.0" height="0.4" fill="#2e7d32" opacity="0.55"/>
<line x1="383.8" y1="368.9" x2="383.8" y2="368.9" stroke="#2e7d32" stroke-width="1"/>
<rect x="381.3" y="368.9" width="5.0" height="1.0" fill="#2e7d32"/>
<rect x="381.3" y="531.8" width="5.0" height="0.2" fill="#2e7d32" opacity="0.55"/>
<line x1="391.9" y1="370.3" x2="391.9" y2="370.3" stroke="#2e7d32" stroke-width="1"/>
<rect x="389.3" y="370.3" width="5.0" height="1.0" fill="#2e7d32"/>
<rect x="389.3" y="531.9" width="5.0" height="0.1" fill="#2e7d32" opacity="0.55"/>
<line x1="400.0" y1="370.6" x2="400.0" y2="370.6" stroke="#2e7d32" stroke-width="1"/>
<rect x="397.4" y="370.6" width="5.0" height="1.0" fill="#2e7d32"/>
<rect x="397.4" y="531.8" width="5.0" height="0.2" fill="#2e7d32" opacity="0.55"/>
<line x1="408.0" y1="370.6" x2="408.0" y2="374.0" stroke="#c62828" stroke-width="1"/>
<rect x="405.5" y="370.6" width="5.0" height="3.4" fill="#c62828"/>
<rect x="405.5" y="531.2" width="5.0" height="0.8" fill="#c62828" opacity="0.55"/>
<line x1="416.1" y1="374.0" x2="416.1" y2="374.0" stroke="#2e7d32" stroke-width="1"/>
<rect x="413.6" y="374.0" width="5.0" height="1.0" fill="#2e7d32"/>
<rect x="413.6" y="531.9" width="5.0" height="0.1" fill="#2e7d32" opacity="0.55"/>
<line x1="424.2" y1="374.0" x2="424.2" y2="374.0" stroke="#2e7d32" stroke-width="1"/>
<rect x="421.7" y="374.0" width="5.0" height="1.0" fill="#2e7d32"/>
<rect x="421.7" y="531.9" width="5.0" height="0.1" fill="#2e7d32" opacity="0.55"/>
<line x1="432.3" y1="374.0" x2="432.3" y2="374.0" stroke="#2e7d32" stroke-width="1"/>
<rect x="429.8" y="374.0" width="5.0" height="1.0" fill="#2e7d32"/>
<rect x="429.8" y="531.8" width="5.0" height="0.2" fill="#2e7d32" opacity="0.55"/>
<line x1="440.4" y1="370.6" x2="440.4" y2="370.6" stroke="#2e7d32" stroke-width="1"/>
<rect x="437.9" y="370.6" width="5.0" height="1.0" fill="#2e7d32"/>
<rect x="437.9" y="531.9" width="5.0" height="0.1" fill="#2e7d32" opacity="0.55"/>
<line x1="448.5" y1="372.3" x2="448.5" y2="374.0" stroke="#2e7d32" stroke-width="1"/>
<rect x="446.0" y="374.0" width="5.0" height="1.0" fill="#2e7d32"/>
<rect x="446.0" y="531.0" width="5.0" height="1.0" fill="#2e7d32" opacity="0.55"/>
<line x1="456.6" y1="374.0" x2="456.6" y2="374.0" stroke="#2e7d32" stroke-width="1"/>
<rect x="454.1" y="374.0" width="5.0" height="1.0" fill="#2e7d32"/>
<rect x="454.1" y="531.1" width="5.0" height="0.9" fill="#2e7d32" opacity="0.55"/>
<line x1="464.7" y1="370.6" x2="464.7" y2="374.0" stroke="#2e7d32" stroke-width="1"/>
<rect x="462.2" y="370.6" width="5.0" height="3.4" fill="#2e7d32"/>
<rect x="462.2" y="531.7" width="5.0" height="0.3" fill="#2e7d32" opacity="0.55"/>
<line x1="472.8" y1="370.6" x2="472.8" y2="370.6" stroke="#2e7d32" stroke-width="1"/>
<rect x="470.3" y="370.6" width="5.0" height="1.0" fill="#2e7d32"/>
<rect x="470.3" y="531.7" width="5.0" height="0.3" fill="#2e7d32" opacity="0.55"/>
<line x1="480.9" y1="370.5" x2="480.9" y2="370.6" stroke="#2e7d32" stroke-width="1"/>
<rect x="478.4" y="370.5" width="5.0" height="1.0" fill="#2e7d32"/>
<rect x="478.4" y="526.7" width="5.0" height="5.3" fill="#2e7d32" opacity="0.55"/>
<line x1="489.0" y1="377.4" x2="489.0" y2="384.3" stroke="#c62828" stroke-width="1"/>
<rect x="486.5" y="377.4" width="5.0" height="1.0" fill="#c62828"/>
<rect x="486.5" y="526.6" width="5.0" height="5.4" fill="#c62828" opacity="0.55"/>
<line x1="497.1" y1="377.5" x2="497.1" y2="377.5" stroke="#2e7d32" stroke-width="1"/>
<rect x="494.6" y="377.5" width="5.0" height="1.0" fill="#2e7d32"/>
<rect x="494.6" y="528.6" width="5.0" height="3.4" fill="#2e7d32" opacity="0.55"/>
<line x1="505.2" y1="377.4" x2="505.2" y2="380.9" stroke="#2e7d32" stroke-width="1"/>
<rect x="502.7" y="377.4" width="5.0" height="1.0" fill="#2e7d32"/>
<rect x="502.7" y="531.2" width="5.0" height="0.8" fill="#2e7d32" opacity="0.55"/>
<line x1="513.3" y1="377.5" x2="513.3" y2="380.9" stroke="#c62828" stroke-width="1"/>
<rect x="510.8" y="377.5" width="5.0" height="3.3" fill="#c62828"/>
<rect x="510.8" y="531.3" width="5.0" height="0.7" fill="#c62828" opacity="0.55"/>
<line x1="521.4" y1="379.2" x2="521.4" y2="380.9" stroke="#c62828" stroke-width="1"/>
<rect x="518.9" y="379.4" width="5.0" height="1.4" fill="#c62828"/>
<rect x="518.9" y="530.8" width="5.0" height="1.2" fill="#c62828" opacity="0.55"/>
<line x1="529.5" y1="370.6" x2="529.5" y2="380.9" stroke="#2e7d32" stroke-width="1"/>
<rect x="527.0" y="370.6" width="5.0" height="10.2" fill="#2e7d32"/>
<rect x="527.0" y="511.5" width="5.0" height="20.5" fill="#2e7d32" opacity="0.55"/>
<line x1="537.6" y1="363.7" x2="537.6" y2="374.0" stroke="#2e7d32" stroke-width="1"/>
<rect x="535.1" y="363.8" width="5.0" height="10.2" fill="#2e7d32"/>
<rect x="535.1" y="526.9" width="5.0" height="5.1" fill="#2e7d32" opacity="0.55"/>
<line x1="545.7" y1="360.3" x2="545.7" y2="363.7" stroke="#2e7d32" stroke-width="1"/>
<rect x="543.2" y="363.7" width="5.0" height="1.0" fill="#2e7d32"/>
<rect x="543.2" y="531.7" width="5.0" height="0.3" fill="#2e7d32" opacity="0.55"/>
<line x1="553.8" y1="213.2" x2="553.8" y2="350.1" stroke="#2e7d32" stroke-width="1"/>
<rect x="551.3" y="298.7" width="5.0" height="51.4" fill="#2e7d32"/>
<rect x="551.3" y="449.1" width="5.0" height="82.9" fill="#2e7d32" opacity="0.55"/>
<line x1="561.9" y1="250.8" x2="561.9" y2="309.0" stroke="#2e7d32" stroke-width="1"/>
<rect x="559.3" y="254.2" width="5.0" height="54.8" fill="#2e7d32"/>
<rect x="559.3" y="453.3" width="5.0" height="78.7" fill="#2e7d32" opacity="0.55"/>
<line x1="570.0" y1="237.1" x2="570.0" y2="281.6" stroke="#c62828" stroke-width="1"/>
<rect x="567.4" y="251.1" width="5.0" height="8.8" fill="#c62828"/>
<rect x="567.4" y="412.0" width="5.0" height="120.0" fill="#c62828" opacity="0.55"/>
<line x1="578.0" y1="250.8" x2="578.0" y2="295.3" stroke="#c62828" stroke-width="1"/>
<rect x="575.5" y="257.6" width="5.0" height="20.5" fill="#c62828"/>
<rect x="575.5" y="477.2" width="5.0" height="54.8" fill="#c62828" opacity="0.55"/>
<line x1="586.1" y1="271.4" x2="586.1" y2="295.3" stroke="#c62828" stroke-width="1"/>
<rect x="583.6" y="271.4" width="5.0" height="23.9" fill="#c62828"/>
<rect x="583.6" y="510.3" width="5.0" height="21.7" fill="#c62828" opacity="0.55"/>
<line x1="594.2" y1="264.5" x2="594.2" y2="295.3" stroke="#2e7d32" stroke-width="1"/>
<rect x="591.7" y="278.8" width="5.0" height="13.4" fill="#2e7d32"/>
<rect x="591.7" y="511.4" width="5.0" height="20.6" fill="#2e7d32" opacity="0.55"/>
<line x1="602.3" y1="264.5" x2="602.3" y2="281.6" stroke="#2e7d32" stroke-width="1"/>
<rect x="599.8" y="265.0" width="5.0" height="13.9" fill="#2e7d32"/>
<rect x="599.8" y="520.3" width="5.0" height="11.7" fill="#2e7d32" opacity="0.55"/>
<line x1="610.4" y1="261.1" x2="610.4" y2="267.9" stroke="#2e7d32" stroke-width="1"/>
<rect x="607.9" y="264.5" width="5.0" height="1.0" fill="#2e7d32"/>
<rect x="607.9" y="512.5" width="5.0" height="19.5" fill="#2e7d32" opacity="0.55"/>
<line x1="618.5" y1="264.5" x2="618.5" y2="278.2" stroke="#c62828" stroke-width="1"/>
<rect x="616.0" y="264.5" width="5.0" height="3.4" fill="#c62828"/>
<rect x="616.0" y="524.3" width="5.0" height="7.7" fill="#c62828" opacity="0.55"/>
<line x1="626.6" y1="267.9" x2="626.6" y2="281.6" stroke="#2e7d32" stroke-width="1"/>
<rect x="624.1" y="274.5" width="5.0" height="1.0" fill="#2e7d32"/>
<rect x="624.1" y="520.2" width="5.0" height="11.8" fill="#2e7d32" opacity="0.55"/>
<line x1="634.7" y1="247.4" x2="634.7" y2="268.6" stroke="#2e7d32" stroke-width="1"/>
<rect x="632.2" y="247.7" width="5.0" height="20.9" fill="#2e7d32"/>
<rect x="632.2" y="506.1" width="5.0" height="25.9" fill="#2e7d32" opacity="0.55"/>
<line x1="642.8" y1="247.3" x2="642.8" y2="267.9" stroke="#c62828" stroke-width="1"/>
<rect x="640.3" y="247.4" width="5.0" height="6.8" fill="#c62828"/>
<rect x="640.3" y="523.5" width="5.0" height="8.5" fill="#c62828" opacity="0.55"/>
<line x1="650.9" y1="254.2" x2="650.9" y2="264.5" stroke="#c62828" stroke-width="1"/>
<rect x="648.4" y="256.3" width="5.0" height="1.3" fill="#c62828"/>
<rect x="648.4" y="526.5" width="5.0" height="5.5" fill="#c62828" opacity="0.55"/>
<line x1="659.0" y1="254.2" x2="659.0" y2="267.9" stroke="#c62828" stroke-width="1"/>
<rect x="656.5" y="257.6" width="5.0" height="10.1" fill="#c62828"/>
<rect x="656.5" y="525.2" width="5.0" height="6.8" fill="#c62828" opacity="0.55"/>
<line x1="667.1" y1="254.2" x2="667.1" y2="267.9" stroke="#2e7d32" stroke-width="1"/>
<rect x="664.6" y="257.6" width="5.0" height="10.3" fill="#2e7d32"/>
<rect x="664.6" y="529.8" width="5.0" height="2.2" fill="#2e7d32" opacity="0.55"/>
<line x1="675.2" y1="257.6" x2="675.2" y2="267.9" stroke="#c62828" stroke-width="1"/>
<rect x="672.7" y="261.1" width="5.0" height="6.8" fill="#c62828"/>
<rect x="672.7" y="531.1" width="5.0" height="0.9" fill="#c62828" opacity="0.55"/>
<line x1="683.3" y1="261.1" x2="683.3" y2="267.9" stroke="#2e7d32" stroke-width="1"/>
<rect x="680.8" y="261.7" width="5.0" height="6.1" fill="#2e7d32"/>
<rect x="680.8" y="529.5" width="5.0" height="2.5" fill="#2e7d32" opacity="0.55"/>
<line x1="691.4" y1="261.1" x2="691.4" y2="274.8" stroke="#2e7d32" stroke-width="1"/>
<rect x="688.9" y="264.4" width="5.0" height="1.0" fill="#2e7d32"/>
<rect x="688.9" y="527.9" width="5.0" height="4.1" fill="#2e7d32" opacity="0.55"/>
<line x1="699.5" y1="264.3" x2="699.5" y2="267.9" stroke="#c62828" stroke-width="1"/>
<rect x="697.0" y="264.3" width="5.0" height="3.6" fill="#c62828"/>
<rect x="697.0" y="530.6" width="5.0" height="1.4" fill="#c62828" opacity="0.55"/>
<line x1="707.6" y1="257.6" x2="707.6" y2="267.9" stroke="#2e7d32" stroke-width="1"/>
<rect x="705.1" y="261.1" width="5.0" height="6.8" fill="#2e7d32"/>
<rect x="705.1" y="521.5" width="5.0" height="10.5" fill="#2e7d32" opacity="0.55"/>
<line x1="715.7" y1="233.7" x2="715.7" y2="261.0" stroke="#2e7d32" stroke-width="1"/>
<rect x="713.2" y="240.5" width="5.0" height="20.4" fill="#2e7d32"/>
<rect x="713.2" y="512.5" width="5.0" height="19.5" fill="#2e7d32" opacity="0.55"/>
<line x1="723.8" y1="100.2" x2="723.8" y2="244.0" stroke="#2e7d32" stroke-width="1"/>
<rect x="721.3" y="120.7" width="5.0" height="123.2" fill="#2e7d32"/>
<rect x="721.3" y="412.0" width="5.0" height="120.0" fill="#2e7d32" opacity="0.55"/>
<polygon points="723.8,413.0 720.8,418.0 726.8,418.0" fill="#2e7d32"/>
<line x1="731.9" y1="55.7" x2="731.9" y2="131.0" stroke="#c62828" stroke-width="1"/>
<rect x="729.3" y="124.2" width="5.0" height="6.6" fill="#c62828"/>
<rect x="729.3" y="412.0" width="5.0" height="120.0" fill="#c62828" opacity="0.55"/>
<polygon points="731.9,413.0 728.9,418.0 734.9,418.0" fill="#c62828"/>
<line x1="740.0" y1="100.2" x2="740.0" y2="148.1" stroke="#c62828" stroke-width="1"/>
<rect x="737.4" y="131.0" width="5.0" height="1.0" fill="#c62828"/>
<rect x="737.4" y="412.0" width="5.0" height="120.0" fill="#c62828" opacity="0.55"/>
<polygon points="740.0,413.0 737.0,418.0 743.0,418.0" fill="#c62828"/>
<line x1="748.0" y1="131.0" x2="748.0" y2="175.5" stroke="#c62828" stroke-width="1"/>
<rect x="745.5" y="134.4" width="5.0" height="27.4" fill="#c62828"/>
<rect x="745.5" y="412.0" width="5.0" height="120.0" fill="#c62828" opacity="0.55"/>
<polygon points="748.0,413.0 745.0,418.0 751.0,418.0" fill="#c62828"/>
<line x1="756.1" y1="158.4" x2="756.1" y2="213.2" stroke="#c62828" stroke-width="1"/>
<rect x="753.6" y="158.4" width="5.0" height="47.9" fill="#c62828"/>
<rect x="753.6" y="412.0" width="5.0" height="120.0" fill="#c62828" opacity="0.55"/>
<polygon points="756.1,413.0 753.1,418.0 759.1,418.0" fill="#c62828"/>
<line x1="764.2" y1="189.2" x2="764.2" y2="226.8" stroke="#c62828" stroke-width="1"/>
<rect x="761.7" y="202.7" width="5.0" height="14.6" fill="#c62828"/>
<rect x="761.7" y="412.0" width="5.0" height="120.0" fill="#c62828" opacity="0.55"/>
<polygon points="764.2,413.0 761.2,418.0 767.2,418.0" fill="#c62828"/>
<line x1="772.3" y1="199.5" x2="772.3" y2="240.5" stroke="#c62828" stroke-width="1"/>
<rect x="769.8" y="220.0" width="5.0" height="17.1" fill="#c62828"/>
<rect x="769.8" y="419.1" width="5.0" height="112.9" fill="#c62828" opacity="0.55"/>
<line x1="780.4" y1="202.9" x2="780.4" y2="233.7" stroke="#2e7d32" stroke-width="1"/>
<rect x="777.9" y="206.3" width="5.0" height="24.0" fill="#2e7d32"/>
<rect x="777.9" y="472.3" width="5.0" height="59.7" fill="#2e7d32" opacity="0.55"/>
<line x1="788.5" y1="202.9" x2="788.5" y2="223.4" stroke="#c62828" stroke-width="1"/>
<rect x="786.0" y="206.0" width="5.0" height="14.0" fill="#c62828"/>
<rect x="786.0" y="487.1" width="5.0" height="44.9" fill="#c62828" opacity="0.55"/>
<line x1="796.6" y1="220.0" x2="796.6" y2="223.4" stroke="#c62828" stroke-width="1"/>
<rect x="794.1" y="220.0" width="5.0" height="3.4" fill="#c62828"/>
<rect x="794.1" y="506.4" width="5.0" height="25.6" fill="#c62828" opacity="0.55"/>
<line x1="804.7" y1="217.7" x2="804.7" y2="250.8" stroke="#c62828" stroke-width="1"/>
<rect x="802.2" y="226.8" width="5.0" height="6.9" fill="#c62828"/>
<rect x="802.2" y="466.1" width="5.0" height="65.9" fill="#c62828" opacity="0.55"/>
<line x1="812.8" y1="230.3" x2="812.8" y2="237.1" stroke="#2e7d32" stroke-width="1"/>
<rect x="810.3" y="230.5" width="5.0" height="6.6" fill="#2e7d32"/>
<rect x="810.3" y="518.2" width="5.0" height="13.8" fill="#2e7d32" opacity="0.55"/>
<line x1="820.9" y1="223.4" x2="820.9" y2="244.0" stroke="#2e7d32" stroke-width="1"/>
<rect x="818.4" y="223.4" width="5.0" height="10.3" fill="#2e7d32"/>
<rect x="818.4" y="503.8" width="5.0" height="28.2" fill="#2e7d32" opacity="0.55"/>
<line x1="829.0" y1="192.6" x2="829.0" y2="223.4" stroke="#2e7d32" stroke-width="1"/>
<rect x="826.5" y="202.6" width="5.0" height="13.9" fill="#2e7d32"/>
<rect x="826.5" y="459.8" width="5.0" height="72.2" fill="#2e7d32" opacity="0.55"/>
<line x1="837.1" y1="199.5" x2="837.1" y2="213.2" stroke="#c62828" stroke-width="1"/>
<rect x="834.6" y="202.7" width="5.0" height="1.0" fill="#c62828"/>
<rect x="834.6" y="510.0" width="5.0" height="22.0" fill="#c62828" opacity="0.55"/>
<line x1="845.2" y1="199.8" x2="845.2" y2="216.6" stroke="#c62828" stroke-width="1"/>
<rect x="842.7" y="202.9" width="5.0" height="6.9" fill="#c62828"/>
<rect x="842.7" y="519.2" width="5.0" height="12.8" fill="#c62828" opacity="0.55"/>
<line x1="853.3" y1="213.2" x2="853.3" y2="233.7" stroke="#c62828" stroke-width="1"/>
<rect x="850.8" y="213.7" width="5.0" height="19.8" fill="#c62828"/>
<rect x="850.8" y="502.8" width="5.0" height="29.2" fill="#c62828" opacity="0.55"/>
<line x1="861.4" y1="206.3" x2="861.4" y2="233.7" stroke="#2e7d32" stroke-width="1"/>
<rect x="858.9" y="220.0" width="5.0" height="10.3" fill="#2e7d32"/>
<rect x="858.9" y="517.7" width="5.0" height="14.3" fill="#2e7d32" opacity="0.55"/>
<line x1="869.5" y1="213.2" x2="869.5" y2="220.0" stroke="#2e7d32" stroke-width="1"/>
<rect x="867.0" y="220.0" width="5.0" height="1.0" fill="#2e7d32"/>
<rect x="867.0" y="519.2" width="5.0" height="12.8" fill="#2e7d32" opacity="0.55"/>
<line x1="877.6" y1="220.0" x2="877.6" y2="223.4" stroke="#c62828" stroke-width="1"/>
<rect x="875.1" y="220.0" width="5.0" height="3.4" fill="#c62828"/>
<rect x="875.1" y="524.3" width="5.0" height="7.7" fill="#c62828" opacity="0.55"/>
<line x1="885.7" y1="213.2" x2="885.7" y2="223.4" stroke="#2e7d32" stroke-width="1"/>
<rect x="883.2" y="216.6" width="5.0" height="6.8" fill="#2e7d32"/>
<rect x="883.2" y="525.3" width="5.0" height="6.7" fill="#2e7d32" opacity="0.55"/>
<line x1="893.8" y1="209.7" x2="893.8" y2="216.6" stroke="#2e7d32" stroke-width="1"/>
<rect x="891.3" y="213.2" width="5.0" height="3.4" fill="#2e7d32"/>
<rect x="891.3" y="521.5" width="5.0" height="10.5" fill="#2e7d32" opacity="0.55"/>
<line x1="901.9" y1="206.3" x2="901.9" y2="220.0" stroke="#c62828" stroke-width="1"/>
<rect x="899.3" y="213.2" width="5.0" height="3.4" fill="#c62828"/>
<rect x="899.3" y="514.4" width="5.0" height="17.6" fill="#c62828" opacity="0.55"/>
<line x1="910.0" y1="202.9" x2="910.0" y2="220.0" stroke="#2e7d32" stroke-width="1"/>
<rect x="907.4" y="209.7" width="5.0" height="7.4" fill="#2e7d32"/>
<rect x="907.4" y="519.3" width="5.0" height="12.7" fill="#2e7d32" opacity="0.55"/>
<line x1="918.0" y1="199.5" x2="918.0" y2="209.7" stroke="#2e7d32" stroke-width="1"/>
<rect x="915.5" y="206.1" width="5.0" height="3.4" fill="#2e7d32"/>
<rect x="915.5" y="520.2" width="5.0" height="11.8" fill="#2e7d32" opacity="0.55"/>
<line x1="926.1" y1="199.5" x2="926.1" y2="223.4" stroke="#c62828" stroke-width="1"/>
<rect x="923.6" y="199.5" width="5.0" height="13.7" fill="#c62828"/>
<rect x="923.6" y="504.7" width="5.0" height="27.3" fill="#c62828" opacity="0.55"/>
<line x1="934.2" y1="262.9" x2="934.2" y2="326.1" stroke="#c62828" stroke-width="1"/>
<rect x="931.7" y="267.9" width="5.0" height="39.4" fill="#c62828"/>
<rect x="931.7" y="416.8" width="5.0" height="115.2" fill="#c62828" opacity="0.55"/>
<line x1="942.3" y1="274.8" x2="942.3" y2="312.4" stroke="#2e7d32" stroke-width="1"/>
<rect x="939.8" y="295.3" width="5.0" height="3.4" fill="#2e7d32"/>
<rect x="939.8" y="511.4" width="5.0" height="20.6" fill="#2e7d32" opacity="0.55"/>
<line x1="950.4" y1="296.1" x2="950.4" y2="326.1" stroke="#c62828" stroke-width="1"/>
<rect x="947.9" y="296.1" width="5.0" height="12.9" fill="#c62828"/>
<rect x="947.9" y="518.4" width="5.0" height="13.6" fill="#c62828" opacity="0.55"/>
<line x1="958.5" y1="298.8" x2="958.5" y2="315.7" stroke="#2e7d32" stroke-width="1"/>
<rect x="956.0" y="303.2" width="5.0" height="2.3" fill="#2e7d32"/>
<rect x="956.0" y="527.5" width="5.0" height="4.5" fill="#2e7d32" opacity="0.55"/>
<line x1="966.6" y1="302.1" x2="966.6" y2="319.4" stroke="#c62828" stroke-width="1"/>
<rect x="964.1" y="315.7" width="5.0" height="3.6" fill="#c62828"/>
<rect x="964.1" y="527.3" width="5.0" height="4.7" fill="#c62828" opacity="0.55"/>
<line x1="974.7" y1="302.1" x2="974.7" y2="322.7" stroke="#2e7d32" stroke-width="1"/>
<rect x="972.2" y="319.3" width="5.0" height="1.0" fill="#2e7d32"/>
<rect x="972.2" y="525.3" width="5.0" height="6.7" fill="#2e7d32" opacity="0.55"/>
<line x1="982.8" y1="312.4" x2="982.8" y2="322.7" stroke="#2e7d32" stroke-width="1"/>
<rect x="980.3" y="315.8" width="5.0" height="1.0" fill="#2e7d32"/>
<rect x="980.3" y="526.9" width="5.0" height="5.1" fill="#2e7d32" opacity="0.55"/>
<line x1="990.9" y1="309.0" x2="990.9" y2="319.3" stroke="#c62828" stroke-width="1"/>
<rect x="988.4" y="315.7" width="5.0" height="3.4" fill="#c62828"/>
<rect x="988.4" y="529.3" width="5.0" height="2.7" fill="#c62828" opacity="0.55"/>
<line x1="999.0" y1="319.3" x2="999.0" y2="326.1" stroke="#c62828" stroke-width="1"/>
<rect x="996.5" y="319.3" width="5.0" height="3.4" fill="#c62828"/>
<rect x="996.5" y="524.8" width="5.0" height="7.2" fill="#c62828" opacity="0.55"/>
<line x1="1007.1" y1="319.3" x2="1007.1" y2="322.7" stroke="#c62828" stroke-width="1"/>
<rect x="1004.6" y="319.4" width="5.0" height="3.2" fill="#c62828"/>
<rect x="1004.6" y="526.9" width="5.0" height="5.1" fill="#c62828" opacity="0.55"/>
<line x1="1015.2" y1="315.8" x2="1015.2" y2="322.7" stroke="#2e7d32" stroke-width="1"/>
<rect x="1012.7" y="319.2" width="5.0" height="3.4" fill="#2e7d32"/>
<rect x="1012.7" y="528.7" width="5.0" height="3.3" fill="#2e7d32" opacity="0.55"/>
<line x1="1023.3" y1="314.6" x2="1023.3" y2="326.1" stroke="#c62828" stroke-width="1"/>
<rect x="1020.8" y="319.3" width="5.0" height="6.3" fill="#c62828"/>
<rect x="1020.8" y="527.9" width="5.0" height="4.1" fill="#c62828" opacity="0.55"/>
<line x1="1031.4" y1="322.8" x2="1031.4" y2="329.5" stroke="#c62828" stroke-width="1"/>
<rect x="1028.9" y="326.1" width="5.0" height="3.4" fill="#c62828"/>
<rect x="1028.9" y="527.5" width="5.0" height="4.5" fill="#c62828" opacity="0.55"/>
<line x1="1039.5" y1="322.7" x2="1039.5" y2="326.0" stroke="#2e7d32" stroke-width="1"/>
<rect x="1037.0" y="322.7" width="5.0" height="3.3" fill="#2e7d32"/>
<rect x="1037.0" y="529.8" width="5.0" height="2.2" fill="#2e7d32" opacity="0.55"/>
<line x1="1047.6" y1="319.4" x2="1047.6" y2="326.1" stroke="#2e7d32" stroke-width="1"/>
<rect x="1045.1" y="322.7" width="5.0" height="1.0" fill="#2e7d32"/>
<rect x="1045.1" y="530.2" width="5.0" height="1.8" fill="#2e7d32" opacity="0.55"/>
<line x1="1055.7" y1="309.0" x2="1055.7" y2="326.1" stroke="#2e7d32" stroke-width="1"/>
<rect x="1053.2" y="309.0" width="5.0" height="17.0" fill="#2e7d32"/>
<rect x="1053.2" y="525.7" width="5.0" height="6.3" fill="#2e7d32" opacity="0.55"/>
<line x1="1063.8" y1="305.6" x2="1063.8" y2="318.7" stroke="#c62828" stroke-width="1"/>
<rect x="1061.3" y="312.4" width="5.0" height="3.3" fill="#c62828"/>
<rect x="1061.3" y="532.0" width="5.0" height="0.0" fill="#c62828" opacity="0.55"/>
<line x1="1071.9" y1="306.1" x2="1071.9" y2="315.0" stroke="#2e7d32" stroke-width="1"/>
<rect x="1069.3" y="306.1" width="5.0" height="8.9" fill="#2e7d32"/>
<rect x="1069.3" y="532.0" width="5.0" height="0.0" fill="#2e7d32" opacity="0.55"/>
<line x1="1080.0" y1="309.0" x2="1080.0" y2="309.0" stroke="#2e7d32" stroke-width="1"/>
<rect x="1077.4" y="309.0" width="5.0" height="1.0" fill="#2e7d32"/>
<rect x="1077.4" y="532.0" width="5.0" height="0.0" fill="#2e7d32" opacity="0.55"/>
<line x1="64" y1="532" x2="1084" y2="532" stroke="#ccc"/>
<text x="68" y="421" font-size="9" fill="#555" text-anchor="start">cap 0.2M; max 1.2M</text>
<line x1="68.0" y1="532" x2="68.0" y2="536" stroke="#999"/>
<text x="68.0" y="547.0" font-size="9" fill="#666" text-anchor="middle">08/13 08:55</text>
<line x1="238.0" y1="532" x2="238.0" y2="536" stroke="#999"/>
<text x="238.0" y="547.0" font-size="9" fill="#666" text-anchor="middle">11:30</text>
<line x1="408.0" y1="532" x2="408.0" y2="536" stroke="#999"/>
<text x="408.0" y="547.0" font-size="9" fill="#666" text-anchor="middle">14:05</text>
<line x1="578.0" y1="532" x2="578.0" y2="536" stroke="#999"/>
<text x="578.0" y="547.0" font-size="9" fill="#666" text-anchor="middle">16:20</text>
<line x1="748.0" y1="532" x2="748.0" y2="536" stroke="#999"/>
<text x="748.0" y="547.0" font-size="9" fill="#666" text-anchor="middle">18:05</text>
<line x1="918.0" y1="532" x2="918.0" y2="536" stroke="#999"/>
<text x="918.0" y="547.0" font-size="9" fill="#666" text-anchor="middle">19:50</text>
<line x1="64" y1="250.8" x2="1084" y2="250.8" stroke="#1565c0" stroke-width="1.2" stroke-dasharray="5,4" opacity="0.9"/>
<polygon points="642.8,248.8 636.8,240.4 648.8,240.4" fill="#1565c0"/>
<text x="642.8" y="236.4" font-size="10" font-weight="bold" fill="#1565c0" text-anchor="middle">ENTRY $1.70</text>
<text x="64" y="22" font-size="15" font-weight="bold" fill="#1a1a1a">DARE - Daré Bioscience, Inc.</text>
<text x="1084" y="22" font-size="11" fill="#666" text-anchor="end">last $1.53 (+6.2% over window)</text>
<rect x="934" y="28" width="10" height="8" fill="#e8f0fe"/>
<text x="948" y="35" font-size="9" fill="#666">premarket</text>
<rect x="1006" y="28" width="10" height="8" fill="#fff4e0"/>
<text x="1020" y="35" font-size="9" fill="#666">after-hrs</text>
<rect x="852" y="28" width="10" height="8" fill="#1565c0"/>
<text x="866" y="35" font-size="9" fill="#666">entry</text>
</svg>