<svg xmlns="http://www.w3.org/2000/svg" width="1100" height="560" viewBox="0 0 1100 560" font-family="Arial,Helvetica,sans-serif">
<rect width="1100" height="560" fill="white"/>
<rect x="64.0" y="36" width="9.0" height="496.0" fill="#e8f0fe"/>
<rect x="677.8" y="36" width="306.9" height="496.0" fill="#fff4e0"/>
<rect x="984.7" y="36" width="99.3" height="496.0" fill="#e8f0fe"/>
<line x1="64" y1="404.0" x2="1084" y2="404.0" stroke="#e6e6e6"/>
<text x="58" y="407.0" font-size="10" fill="#666" text-anchor="end">$1.80</text>
<line x1="64" y1="312.0" x2="1084" y2="312.0" stroke="#e6e6e6"/>
<text x="58" y="315.0" font-size="10" fill="#666" text-anchor="end">$1.95</text>
<line x1="64" y1="220.0" x2="1084" y2="220.0" stroke="#e6e6e6"/>
<text x="58" y="223.0" font-size="10" fill="#666" text-anchor="end">$2.09</text>
<line x1="64" y1="128.0" x2="1084" y2="128.0" stroke="#e6e6e6"/>
<text x="58" y="131.0" font-size="10" fill="#666" text-anchor="end">$2.24</text>
<line x1="64" y1="36.0" x2="1084" y2="36.0" stroke="#e6e6e6"/>
<text x="58" y="39.0" font-size="10" fill="#666" text-anchor="end">$2.38</text>
<line x1="68.5" y1="317.3" x2="68.5" y2="317.3" stroke="#2e7d32" stroke-width="1"/>
<rect x="65.7" y="317.3" width="5.6" height="1.0" fill="#2e7d32"/>
<rect x="65.7" y="531.7" width="5.6" height="0.3" fill="#2e7d32" opacity="0.55"/>
<line x1="77.5" y1="323.7" x2="77.5" y2="349.2" stroke="#2e7d32" stroke-width="1"/>
<rect x="74.7" y="323.7" width="5.6" height="25.5" fill="#2e7d32"/>
<rect x="74.7" y="522.3" width="5.6" height="9.7" fill="#2e7d32" opacity="0.55"/>
<line x1="86.6" y1="323.7" x2="86.6" y2="323.7" stroke="#2e7d32" stroke-width="1"/>
<rect x="83.8" y="323.7" width="5.6" height="1.0" fill="#2e7d32"/>
<rect x="83.8" y="531.0" width="5.6" height="1.0" fill="#2e7d32" opacity="0.55"/>
<line x1="95.6" y1="317.3" x2="95.6" y2="323.8" stroke="#2e7d32" stroke-width="1"/>
<rect x="92.8" y="323.7" width="5.6" height="1.0" fill="#2e7d32"/>
<rect x="92.8" y="527.0" width="5.6" height="5.0" fill="#2e7d32" opacity="0.55"/>
<line x1="104.6" y1="305.0" x2="104.6" y2="317.3" stroke="#c62828" stroke-width="1"/>
<rect x="101.8" y="305.0" width="5.6" height="5.9" fill="#c62828"/>
<rect x="101.8" y="518.5" width="5.6" height="13.5" fill="#c62828" opacity="0.55"/>
<line x1="113.6" y1="310.9" x2="113.6" y2="317.3" stroke="#c62828" stroke-width="1"/>
<rect x="110.8" y="310.9" width="5.6" height="6.4" fill="#c62828"/>
<rect x="110.8" y="492.0" width="5.6" height="40.0" fill="#c62828" opacity="0.55"/>
<line x1="122.7" y1="304.5" x2="122.7" y2="317.3" stroke="#2e7d32" stroke-width="1"/>
<rect x="119.9" y="310.9" width="5.6" height="6.4" fill="#2e7d32"/>
<rect x="119.9" y="460.5" width="5.6" height="71.5" fill="#2e7d32" opacity="0.55"/>
<line x1="131.7" y1="310.9" x2="131.7" y2="310.9" stroke="#2e7d32" stroke-width="1"/>
<rect x="128.9" y="310.9" width="5.6" height="1.0" fill="#2e7d32"/>
<rect x="128.9" y="525.9" width="5.6" height="6.1" fill="#2e7d32" opacity="0.55"/>
<line x1="140.7" y1="301.3" x2="140.7" y2="323.7" stroke="#c62828" stroke-width="1"/>
<rect x="137.9" y="304.5" width="5.6" height="19.1" fill="#c62828"/>
<rect x="137.9" y="509.6" width="5.6" height="22.4" fill="#c62828" opacity="0.55"/>
<line x1="149.8" y1="326.9" x2="149.8" y2="326.9" stroke="#2e7d32" stroke-width="1"/>
<rect x="147.0" y="326.9" width="5.6" height="1.0" fill="#2e7d32"/>
<rect x="147.0" y="530.9" width="5.6" height="1.1" fill="#2e7d32" opacity="0.55"/>
<line x1="158.8" y1="329.5" x2="158.8" y2="330.1" stroke="#2e7d32" stroke-width="1"/>
<rect x="156.0" y="330.1" width="5.6" height="1.0" fill="#2e7d32"/>
<rect x="156.0" y="517.5" width="5.6" height="14.5" fill="#2e7d32" opacity="0.55"/>
<line x1="167.8" y1="333.2" x2="167.8" y2="342.8" stroke="#2e7d32" stroke-width="1"/>
<rect x="165.0" y="333.2" width="5.6" height="3.2" fill="#2e7d32"/>
<rect x="165.0" y="520.2" width="5.6" height="11.8" fill="#2e7d32" opacity="0.55"/>
<line x1="176.8" y1="323.7" x2="176.8" y2="330.1" stroke="#2e7d32" stroke-width="1"/>
<rect x="174.0" y="324.2" width="5.6" height="5.8" fill="#2e7d32"/>
<rect x="174.0" y="525.7" width="5.6" height="6.3" fill="#2e7d32" opacity="0.55"/>
<line x1="185.9" y1="330.1" x2="185.9" y2="365.1" stroke="#c62828" stroke-width="1"/>
<rect x="183.1" y="330.1" width="5.6" height="31.9" fill="#c62828"/>
<rect x="183.1" y="491.4" width="5.6" height="40.6" fill="#c62828" opacity="0.55"/>
<line x1="194.9" y1="355.6" x2="194.9" y2="362.0" stroke="#2e7d32" stroke-width="1"/>
<rect x="192.1" y="355.6" width="5.6" height="6.4" fill="#2e7d32"/>
<rect x="192.1" y="529.4" width="5.6" height="2.6" fill="#2e7d32" opacity="0.55"/>
<line x1="203.9" y1="349.2" x2="203.9" y2="362.0" stroke="#2e7d32" stroke-width="1"/>
<rect x="201.1" y="349.4" width="5.6" height="12.6" fill="#2e7d32"/>
<rect x="201.1" y="502.0" width="5.6" height="30.0" fill="#2e7d32" opacity="0.55"/>
<line x1="212.9" y1="355.6" x2="212.9" y2="356.2" stroke="#c62828" stroke-width="1"/>
<rect x="210.1" y="355.6" width="5.6" height="1.0" fill="#c62828"/>
<rect x="210.1" y="529.4" width="5.6" height="2.6" fill="#c62828" opacity="0.55"/>
<line x1="222.0" y1="355.6" x2="222.0" y2="355.6" stroke="#2e7d32" stroke-width="1"/>
<rect x="219.2" y="355.6" width="5.6" height="1.0" fill="#2e7d32"/>
<rect x="219.2" y="531.4" width="5.6" height="0.6" fill="#2e7d32" opacity="0.55"/>
<line x1="231.0" y1="352.4" x2="231.0" y2="356.9" stroke="#c62828" stroke-width="1"/>
<rect x="228.2" y="352.4" width="5.6" height="4.5" fill="#c62828"/>
<rect x="228.2" y="529.9" width="5.6" height="2.1" fill="#c62828" opacity="0.55"/>
<line x1="240.0" y1="355.6" x2="240.0" y2="358.8" stroke="#2e7d32" stroke-width="1"/>
<rect x="237.2" y="355.6" width="5.6" height="1.1" fill="#2e7d32"/>
<rect x="237.2" y="529.1" width="5.6" height="2.9" fill="#2e7d32" opacity="0.55"/>
<line x1="249.0" y1="358.8" x2="249.0" y2="362.0" stroke="#c62828" stroke-width="1"/>
<rect x="246.2" y="358.8" width="5.6" height="3.2" fill="#c62828"/>
<rect x="246.2" y="530.6" width="5.6" height="1.4" fill="#c62828" opacity="0.55"/>
<line x1="258.1" y1="355.6" x2="258.1" y2="358.8" stroke="#c62828" stroke-width="1"/>
<rect x="255.3" y="355.7" width="5.6" height="3.1" fill="#c62828"/>
<rect x="255.3" y="512.4" width="5.6" height="19.6" fill="#c62828" opacity="0.55"/>
<line x1="267.1" y1="362.0" x2="267.1" y2="368.3" stroke="#2e7d32" stroke-width="1"/>
<rect x="264.3" y="365.1" width="5.6" height="3.2" fill="#2e7d32"/>
<rect x="264.3" y="520.7" width="5.6" height="11.3" fill="#2e7d32" opacity="0.55"/>
<line x1="276.1" y1="362.0" x2="276.1" y2="368.3" stroke="#c62828" stroke-width="1"/>
<rect x="273.3" y="365.1" width="5.6" height="3.2" fill="#c62828"/>
<rect x="273.3" y="519.7" width="5.6" height="12.3" fill="#c62828" opacity="0.55"/>
<line x1="285.2" y1="365.1" x2="285.2" y2="374.7" stroke="#c62828" stroke-width="1"/>
<rect x="282.4" y="365.1" width="5.6" height="9.6" fill="#c62828"/>
<rect x="282.4" y="520.5" width="5.6" height="11.5" fill="#c62828" opacity="0.55"/>
<line x1="294.2" y1="368.3" x2="294.2" y2="374.7" stroke="#2e7d32" stroke-width="1"/>
<rect x="291.4" y="368.3" width="5.6" height="6.4" fill="#2e7d32"/>
<rect x="291.4" y="523.1" width="5.6" height="8.9" fill="#2e7d32" opacity="0.55"/>
<line x1="303.2" y1="368.3" x2="303.2" y2="381.1" stroke="#c62828" stroke-width="1"/>
<rect x="300.4" y="371.5" width="5.6" height="6.4" fill="#c62828"/>
<rect x="300.4" y="510.0" width="5.6" height="22.0" fill="#c62828" opacity="0.55"/>
<line x1="312.2" y1="381.1" x2="312.2" y2="384.3" stroke="#2e7d32" stroke-width="1"/>
<rect x="309.4" y="381.1" width="5.6" height="1.0" fill="#2e7d32"/>
<rect x="309.4" y="528.7" width="5.6" height="3.3" fill="#2e7d32" opacity="0.55"/>
<line x1="321.3" y1="374.7" x2="321.3" y2="381.1" stroke="#2e7d32" stroke-width="1"/>
<rect x="318.5" y="377.9" width="5.6" height="3.2" fill="#2e7d32"/>
<rect x="318.5" y="529.2" width="5.6" height="2.8" fill="#2e7d32" opacity="0.55"/>
<line x1="330.3" y1="374.7" x2="330.3" y2="377.9" stroke="#2e7d32" stroke-width="1"/>
<rect x="327.5" y="374.7" width="5.6" height="3.2" fill="#2e7d32"/>
<rect x="327.5" y="528.2" width="5.6" height="3.8" fill="#2e7d32" opacity="0.55"/>
<line x1="339.3" y1="352.4" x2="339.3" y2="368.3" stroke="#2e7d32" stroke-width="1"/>
<rect x="336.5" y="355.6" width="5.6" height="12.8" fill="#2e7d32"/>
<rect x="336.5" y="454.0" width="5.6" height="78.0" fill="#2e7d32" opacity="0.55"/>
<line x1="348.3" y1="352.4" x2="348.3" y2="368.3" stroke="#c62828" stroke-width="1"/>
<rect x="345.5" y="361.4" width="5.6" height="7.0" fill="#c62828"/>
<rect x="345.5" y="518.2" width="5.6" height="13.8" fill="#c62828" opacity="0.55"/>
<line x1="357.4" y1="365.1" x2="357.4" y2="368.3" stroke="#2e7d32" stroke-width="1"/>
<rect x="354.6" y="365.1" width="5.6" height="1.0" fill="#2e7d32"/>
<rect x="354.6" y="522.6" width="5.6" height="9.4" fill="#2e7d32" opacity="0.55"/>
<line x1="366.4" y1="368.3" x2="366.4" y2="368.3" stroke="#2e7d32" stroke-width="1"/>
<rect x="363.6" y="368.3" width="5.6" height="1.0" fill="#2e7d32"/>
<rect x="363.6" y="526.4" width="5.6" height="5.6" fill="#2e7d32" opacity="0.55"/>
<line x1="375.4" y1="362.0" x2="375.4" y2="365.1" stroke="#2e7d32" stroke-width="1"/>
<rect x="372.6" y="362.0" width="5.6" height="3.2" fill="#2e7d32"/>
<rect x="372.6" y="526.4" width="5.6" height="5.6" fill="#2e7d32" opacity="0.55"/>
<line x1="384.4" y1="363.2" x2="384.4" y2="365.1" stroke="#c62828" stroke-width="1"/>
<rect x="381.6" y="363.2" width="5.6" height="1.9" fill="#c62828"/>
<rect x="381.6" y="529.3" width="5.6" height="2.7" fill="#c62828" opacity="0.55"/>
<line x1="393.5" y1="330.1" x2="393.5" y2="362.0" stroke="#2e7d32" stroke-width="1"/>
<rect x="390.7" y="339.6" width="5.6" height="22.3" fill="#2e7d32"/>
<rect x="390.7" y="412.0" width="5.6" height="120.0" fill="#2e7d32" opacity="0.55"/>
<line x1="402.5" y1="336.4" x2="402.5" y2="339.6" stroke="#2e7d32" stroke-width="1"/>
<rect x="399.7" y="336.4" width="5.6" height="3.2" fill="#2e7d32"/>
<rect x="399.7" y="530.1" width="5.6" height="1.9" fill="#2e7d32" opacity="0.55"/>
<line x1="411.5" y1="333.2" x2="411.5" y2="333.2" stroke="#2e7d32" stroke-width="1"/>
<rect x="408.7" y="333.2" width="5.6" height="1.0" fill="#2e7d32"/>
<rect x="408.7" y="531.1" width="5.6" height="0.9" fill="#2e7d32" opacity="0.55"/>
<line x1="420.5" y1="330.1" x2="420.5" y2="339.6" stroke="#c62828" stroke-width="1"/>
<rect x="417.8" y="330.1" width="5.6" height="9.6" fill="#c62828"/>
<rect x="417.8" y="521.8" width="5.6" height="10.2" fill="#c62828" opacity="0.55"/>
<line x1="429.6" y1="339.6" x2="429.6" y2="339.6" stroke="#2e7d32" stroke-width="1"/>
<rect x="426.8" y="339.6" width="5.6" height="1.0" fill="#2e7d32"/>
<rect x="426.8" y="531.2" width="5.6" height="0.8" fill="#2e7d32" opacity="0.55"/>
<line x1="438.6" y1="323.7" x2="438.6" y2="336.4" stroke="#2e7d32" stroke-width="1"/>
<rect x="435.8" y="336.4" width="5.6" height="1.0" fill="#2e7d32"/>
<rect x="435.8" y="511.5" width="5.6" height="20.5" fill="#2e7d32" opacity="0.55"/>
<line x1="447.6" y1="333.2" x2="447.6" y2="333.2" stroke="#2e7d32" stroke-width="1"/>
<rect x="444.8" y="333.2" width="5.6" height="1.0" fill="#2e7d32"/>
<rect x="444.8" y="529.6" width="5.6" height="2.4" fill="#2e7d32" opacity="0.55"/>
<line x1="456.7" y1="333.2" x2="456.7" y2="333.2" stroke="#2e7d32" stroke-width="1"/>
<rect x="453.9" y="333.2" width="5.6" height="1.0" fill="#2e7d32"/>
<rect x="453.9" y="530.2" width="5.6" height="1.8" fill="#2e7d32" opacity="0.55"/>
<line x1="465.7" y1="304.5" x2="465.7" y2="330.1" stroke="#2e7d32" stroke-width="1"/>
<rect x="462.9" y="304.5" width="5.6" height="25.5" fill="#2e7d32"/>
<rect x="462.9" y="501.5" width="5.6" height="30.5" fill="#2e7d32" opacity="0.55"/>
<line x1="474.7" y1="307.7" x2="474.7" y2="310.9" stroke="#c62828" stroke-width="1"/>
<rect x="471.9" y="307.7" width="5.6" height="3.2" fill="#c62828"/>
<rect x="471.9" y="531.3" width="5.6" height="0.7" fill="#c62828" opacity="0.55"/>
<line x1="483.7" y1="307.7" x2="483.7" y2="307.7" stroke="#2e7d32" stroke-width="1"/>
<rect x="480.9" y="307.7" width="5.6" height="1.0" fill="#2e7d32"/>
<rect x="480.9" y="528.8" width="5.6" height="3.2" fill="#2e7d32" opacity="0.55"/>
<line x1="492.8" y1="307.7" x2="492.8" y2="342.8" stroke="#c62828" stroke-width="1"/>
<rect x="490.0" y="307.7" width="5.6" height="35.1" fill="#c62828"/>
<rect x="490.0" y="445.3" width="5.6" height="86.7" fill="#c62828" opacity="0.55"/>
<line x1="501.8" y1="333.2" x2="501.8" y2="339.6" stroke="#2e7d32" stroke-width="1"/>
<rect x="499.0" y="333.2" width="5.6" height="6.4" fill="#2e7d32"/>
<rect x="499.0" y="527.6" width="5.6" height="4.4" fill="#2e7d32" opacity="0.55"/>
<line x1="510.8" y1="330.1" x2="510.8" y2="330.1" stroke="#2e7d32" stroke-width="1"/>
<rect x="508.0" y="330.1" width="5.6" height="1.0" fill="#2e7d32"/>
<rect x="508.0" y="502.6" width="5.6" height="29.4" fill="#2e7d32" opacity="0.55"/>
<line x1="519.8" y1="330.1" x2="519.8" y2="330.1" stroke="#2e7d32" stroke-width="1"/>
<rect x="517.0" y="330.1" width="5.6" height="1.0" fill="#2e7d32"/>
<rect x="517.0" y="528.3" width="5.6" height="3.7" fill="#2e7d32" opacity="0.55"/>
<line x1="528.9" y1="333.2" x2="528.9" y2="333.2" stroke="#2e7d32" stroke-width="1"/>
<rect x="526.1" y="333.2" width="5.6" height="1.0" fill="#2e7d32"/>
<rect x="526.1" y="529.2" width="5.6" height="2.8" fill="#2e7d32" opacity="0.55"/>
<line x1="537.9" y1="320.5" x2="537.9" y2="333.2" stroke="#2e7d32" stroke-width="1"/>
<rect x="535.1" y="323.7" width="5.6" height="9.6" fill="#2e7d32"/>
<rect x="535.1" y="511.8" width="5.6" height="20.2" fill="#2e7d32" opacity="0.55"/>
<line x1="546.9" y1="323.7" x2="546.9" y2="333.2" stroke="#c62828" stroke-width="1"/>
<rect x="544.1" y="323.7" width="5.6" height="3.2" fill="#c62828"/>
<rect x="544.1" y="525.3" width="5.6" height="6.7" fill="#c62828" opacity="0.55"/>
<line x1="555.9" y1="323.7" x2="555.9" y2="330.1" stroke="#c62828" stroke-width="1"/>
<rect x="553.1" y="323.7" width="5.6" height="6.4" fill="#c62828"/>
<rect x="553.1" y="527.0" width="5.6" height="5.0" fill="#c62828" opacity="0.55"/>
<line x1="565.0" y1="326.9" x2="565.0" y2="326.9" stroke="#2e7d32" stroke-width="1"/>
<rect x="562.2" y="326.9" width="5.6" height="1.0" fill="#2e7d32"/>
<rect x="562.2" y="531.0" width="5.6" height="1.0" fill="#2e7d32" opacity="0.55"/>
<line x1="574.0" y1="323.7" x2="574.0" y2="330.1" stroke="#2e7d32" stroke-width="1"/>
<rect x="571.2" y="323.7" width="5.6" height="6.4" fill="#2e7d32"/>
<rect x="571.2" y="522.0" width="5.6" height="10.0" fill="#2e7d32" opacity="0.55"/>
<line x1="583.0" y1="301.3" x2="583.0" y2="317.3" stroke="#2e7d32" stroke-width="1"/>
<rect x="580.2" y="301.3" width="5.6" height="16.0" fill="#2e7d32"/>
<rect x="580.2" y="505.1" width="5.6" height="26.9" fill="#2e7d32" opacity="0.55"/>
<line x1="592.1" y1="295.0" x2="592.1" y2="304.5" stroke="#c62828" stroke-width="1"/>
<rect x="589.3" y="301.3" width="5.6" height="3.2" fill="#c62828"/>
<rect x="589.3" y="473.1" width="5.6" height="58.9" fill="#c62828" opacity="0.55"/>
<line x1="601.1" y1="298.2" x2="601.1" y2="307.7" stroke="#2e7d32" stroke-width="1"/>
<rect x="598.3" y="304.5" width="5.6" height="3.2" fill="#2e7d32"/>
<rect x="598.3" y="509.5" width="5.6" height="22.5" fill="#2e7d32" opacity="0.55"/>
<line x1="610.1" y1="304.5" x2="610.1" y2="314.1" stroke="#c62828" stroke-width="1"/>
<rect x="607.3" y="304.5" width="5.6" height="9.6" fill="#c62828"/>
<rect x="607.3" y="519.3" width="5.6" height="12.7" fill="#c62828" opacity="0.55"/>
<line x1="619.1" y1="311.0" x2="619.1" y2="330.1" stroke="#c62828" stroke-width="1"/>
<rect x="616.3" y="311.0" width="5.6" height="19.1" fill="#c62828"/>
<rect x="616.3" y="426.7" width="5.6" height="105.3" fill="#c62828" opacity="0.55"/>
<line x1="628.2" y1="323.7" x2="628.2" y2="339.6" stroke="#c62828" stroke-width="1"/>
<rect x="625.4" y="333.2" width="5.6" height="6.4" fill="#c62828"/>
<rect x="625.4" y="422.2" width="5.6" height="109.8" fill="#c62828" opacity="0.55"/>
<line x1="637.2" y1="330.1" x2="637.2" y2="333.2" stroke="#c62828" stroke-width="1"/>
<rect x="634.4" y="330.1" width="5.6" height="3.2" fill="#c62828"/>
<rect x="634.4" y="529.5" width="5.6" height="2.5" fill="#c62828" opacity="0.55"/>
<line x1="646.2" y1="333.2" x2="646.2" y2="342.8" stroke="#c62828" stroke-width="1"/>
<rect x="643.4" y="333.2" width="5.6" height="3.2" fill="#c62828"/>
<rect x="643.4" y="519.5" width="5.6" height="12.5" fill="#c62828" opacity="0.55"/>
<line x1="655.2" y1="333.2" x2="655.2" y2="336.4" stroke="#2e7d32" stroke-width="1"/>
<rect x="652.4" y="333.2" width="5.6" height="3.2" fill="#2e7d32"/>
<rect x="652.4" y="523.9" width="5.6" height="8.1" fill="#2e7d32" opacity="0.55"/>
<line x1="664.3" y1="330.1" x2="664.3" y2="342.8" stroke="#c62828" stroke-width="1"/>
<rect x="661.5" y="330.1" width="5.6" height="9.6" fill="#c62828"/>
<rect x="661.5" y="488.2" width="5.6" height="43.8" fill="#c62828" opacity="0.55"/>
<line x1="673.3" y1="326.9" x2="673.3" y2="336.4" stroke="#2e7d32" stroke-width="1"/>
<rect x="670.5" y="333.2" width="5.6" height="3.2" fill="#2e7d32"/>
<rect x="670.5" y="503.0" width="5.6" height="29.0" fill="#2e7d32" opacity="0.55"/>
<line x1="682.3" y1="336.4" x2="682.3" y2="336.4" stroke="#2e7d32" stroke-width="1"/>
<rect x="679.5" y="336.4" width="5.6" height="1.0" fill="#2e7d32"/>
<rect x="679.5" y="517.1" width="5.6" height="14.9" fill="#2e7d32" opacity="0.55"/>
<line x1="691.3" y1="317.2" x2="691.3" y2="336.4" stroke="#2e7d32" stroke-width="1"/>
<rect x="688.5" y="317.2" width="5.6" height="19.2" fill="#2e7d32"/>
<rect x="688.5" y="531.2" width="5.6" height="0.8" fill="#2e7d32" opacity="0.55"/>
<line x1="700.4" y1="215.2" x2="700.4" y2="247.1" stroke="#2e7d32" stroke-width="1"/>
<rect x="697.6" y="215.2" width="5.6" height="31.9" fill="#2e7d32"/>
<rect x="697.6" y="523.0" width="5.6" height="9.0" fill="#2e7d32" opacity="0.55"/>
<line x1="709.4" y1="55.7" x2="709.4" y2="240.7" stroke="#c62828" stroke-width="1"/>
<rect x="706.6" y="170.6" width="5.6" height="6.4" fill="#c62828"/>
<rect x="706.6" y="438.4" width="5.6" height="93.6" fill="#c62828" opacity="0.55"/>
<line x1="718.4" y1="106.8" x2="718.4" y2="222.2" stroke="#2e7d32" stroke-width="1"/>
<rect x="715.6" y="125.9" width="5.6" height="73.4" fill="#2e7d32"/>
<rect x="715.6" y="443.9" width="5.6" height="88.1" fill="#2e7d32" opacity="0.55"/>
<line x1="727.5" y1="127.0" x2="727.5" y2="239.8" stroke="#c62828" stroke-width="1"/>
<rect x="724.7" y="138.7" width="5.6" height="40.1" fill="#c62828"/>
<rect x="724.7" y="490.9" width="5.6" height="41.1" fill="#c62828" opacity="0.55"/>
<line x1="736.5" y1="202.6" x2="736.5" y2="304.5" stroke="#c62828" stroke-width="1"/>
<rect x="733.7" y="208.8" width="5.6" height="95.7" fill="#c62828"/>
<rect x="733.7" y="516.7" width="5.6" height="15.3" fill="#c62828" opacity="0.55"/>
<line x1="745.5" y1="240.7" x2="745.5" y2="266.3" stroke="#c62828" stroke-width="1"/>
<rect x="742.7" y="240.7" width="5.6" height="25.5" fill="#c62828"/>
<rect x="742.7" y="518.8" width="5.6" height="13.2" fill="#c62828" opacity="0.55"/>
<line x1="754.5" y1="266.3" x2="754.5" y2="329.2" stroke="#c62828" stroke-width="1"/>
<rect x="751.7" y="266.3" width="5.6" height="63.0" fill="#c62828"/>
<rect x="751.7" y="512.5" width="5.6" height="19.5" fill="#c62828" opacity="0.55"/>
<line x1="763.6" y1="240.7" x2="763.6" y2="310.9" stroke="#2e7d32" stroke-width="1"/>
<rect x="760.8" y="240.7" width="5.6" height="70.2" fill="#2e7d32"/>
<rect x="760.8" y="532.0" width="5.6" height="0.0" fill="#2e7d32" opacity="0.55"/>
<line x1="772.6" y1="240.7" x2="772.6" y2="291.7" stroke="#c62828" stroke-width="1"/>
<rect x="769.8" y="240.7" width="5.6" height="51.0" fill="#c62828"/>
<rect x="769.8" y="517.4" width="5.6" height="14.6" fill="#c62828" opacity="0.55"/>
<line x1="781.6" y1="215.2" x2="781.6" y2="271.9" stroke="#2e7d32" stroke-width="1"/>
<rect x="778.8" y="235.6" width="5.6" height="36.3" fill="#2e7d32"/>
<rect x="778.8" y="443.8" width="5.6" height="88.2" fill="#2e7d32" opacity="0.55"/>
<line x1="790.6" y1="214.5" x2="790.6" y2="247.1" stroke="#2e7d32" stroke-width="1"/>
<rect x="787.8" y="214.5" width="5.6" height="26.2" fill="#2e7d32"/>
<rect x="787.8" y="459.1" width="5.6" height="72.9" fill="#2e7d32" opacity="0.55"/>
<line x1="799.7" y1="215.2" x2="799.7" y2="215.2" stroke="#2e7d32" stroke-width="1"/>
<rect x="796.9" y="215.2" width="5.6" height="1.0" fill="#2e7d32"/>
<rect x="796.9" y="530.3" width="5.6" height="1.7" fill="#2e7d32" opacity="0.55"/>
<line x1="808.7" y1="183.3" x2="808.7" y2="215.2" stroke="#c62828" stroke-width="1"/>
<rect x="805.9" y="208.8" width="5.6" height="5.7" fill="#c62828"/>
<rect x="805.9" y="528.6" width="5.6" height="3.4" fill="#c62828" opacity="0.55"/>
<line x1="817.7" y1="214.3" x2="817.7" y2="214.3" stroke="#2e7d32" stroke-width="1"/>
<rect x="814.9" y="214.3" width="5.6" height="1.0" fill="#2e7d32"/>
<rect x="814.9" y="531.6" width="5.6" height="0.4" fill="#2e7d32" opacity="0.55"/>
<line x1="826.7" y1="170.6" x2="826.7" y2="189.7" stroke="#2e7d32" stroke-width="1"/>
<rect x="823.9" y="170.6" width="5.6" height="12.8" fill="#2e7d32"/>
<rect x="823.9" y="532.0" width="5.6" height="0.0" fill="#2e7d32" opacity="0.55"/>
<line x1="835.8" y1="170.6" x2="835.8" y2="170.6" stroke="#2e7d32" stroke-width="1"/>
<rect x="833.0" y="170.6" width="5.6" height="1.0" fill="#2e7d32"/>
<rect x="833.0" y="519.9" width="5.6" height="12.1" fill="#2e7d32" opacity="0.55"/>
<line x1="844.8" y1="157.9" x2="844.8" y2="164.2" stroke="#c62828" stroke-width="1"/>
<rect x="842.0" y="160.0" width="5.6" height="4.2" fill="#c62828"/>
<rect x="842.0" y="524.6" width="5.6" height="7.4" fill="#c62828" opacity="0.55"/>
<line x1="853.8" y1="164.2" x2="853.8" y2="170.6" stroke="#c62828" stroke-width="1"/>
<rect x="851.0" y="164.2" width="5.6" height="6.4" fill="#c62828"/>
<rect x="851.0" y="526.4" width="5.6" height="5.6" fill="#c62828" opacity="0.55"/>
<line x1="862.8" y1="164.2" x2="862.8" y2="170.6" stroke="#2e7d32" stroke-width="1"/>
<rect x="860.1" y="164.2" width="5.6" height="6.4" fill="#2e7d32"/>
<rect x="860.1" y="532.0" width="5.6" height="0.0" fill="#2e7d32" opacity="0.55"/>
<line x1="871.9" y1="188.7" x2="871.9" y2="189.7" stroke="#2e7d32" stroke-width="1"/>
<rect x="869.1" y="188.7" width="5.6" height="1.0" fill="#2e7d32"/>
<rect x="869.1" y="531.5" width="5.6" height="0.5" fill="#2e7d32" opacity="0.55"/>
<line x1="880.9" y1="157.8" x2="880.9" y2="189.7" stroke="#c62828" stroke-width="1"/>
<rect x="878.1" y="157.8" width="5.6" height="31.9" fill="#c62828"/>
<rect x="878.1" y="530.1" width="5.6" height="1.9" fill="#c62828" opacity="0.55"/>
<line x1="889.9" y1="157.8" x2="889.9" y2="157.8" stroke="#2e7d32" stroke-width="1"/>
<rect x="887.1" y="157.8" width="5.6" height="1.0" fill="#2e7d32"/>
<rect x="887.1" y="531.5" width="5.6" height="0.5" fill="#2e7d32" opacity="0.55"/>
<line x1="899.0" y1="164.2" x2="899.0" y2="166.8" stroke="#c62828" stroke-width="1"/>
<rect x="896.2" y="164.2" width="5.6" height="2.6" fill="#c62828"/>
<rect x="896.2" y="532.0" width="5.6" height="0.0" fill="#c62828" opacity="0.55"/>
<line x1="908.0" y1="164.2" x2="908.0" y2="170.6" stroke="#2e7d32" stroke-width="1"/>
<rect x="905.2" y="164.2" width="5.6" height="6.4" fill="#2e7d32"/>
<rect x="905.2" y="531.7" width="5.6" height="0.3" fill="#2e7d32" opacity="0.55"/>
<line x1="917.0" y1="164.2" x2="917.0" y2="164.2" stroke="#2e7d32" stroke-width="1"/>
<rect x="914.2" y="164.2" width="5.6" height="1.0" fill="#2e7d32"/>
<rect x="914.2" y="532.0" width="5.6" height="0.0" fill="#2e7d32" opacity="0.55"/>
<line x1="926.0" y1="164.2" x2="926.0" y2="165.3" stroke="#c62828" stroke-width="1"/>
<rect x="923.2" y="164.2" width="5.6" height="1.1" fill="#c62828"/>
<rect x="923.2" y="497.7" width="5.6" height="34.3" fill="#c62828" opacity="0.55"/>
<line x1="935.1" y1="215.4" x2="935.1" y2="234.4" stroke="#c62828" stroke-width="1"/>
<rect x="932.3" y="215.4" width="5.6" height="12.6" fill="#c62828"/>
<rect x="932.3" y="504.1" width="5.6" height="27.9" fill="#c62828" opacity="0.55"/>
<line x1="944.1" y1="164.2" x2="944.1" y2="221.6" stroke="#c62828" stroke-width="1"/>
<rect x="941.3" y="164.2" width="5.6" height="57.4" fill="#c62828"/>
<rect x="941.3" y="532.0" width="5.6" height="0.0" fill="#c62828" opacity="0.55"/>
<line x1="953.1" y1="221.3" x2="953.1" y2="221.3" stroke="#2e7d32" stroke-width="1"/>
<rect x="950.3" y="221.3" width="5.6" height="1.0" fill="#2e7d32"/>
<rect x="950.3" y="531.4" width="5.6" height="0.6" fill="#2e7d32" opacity="0.55"/>
<line x1="962.1" y1="221.6" x2="962.1" y2="221.6" stroke="#2e7d32" stroke-width="1"/>
<rect x="959.3" y="221.6" width="5.6" height="1.0" fill="#2e7d32"/>
<rect x="959.3" y="532.0" width="5.6" height="0.0" fill="#2e7d32" opacity="0.55"/>
<line x1="971.2" y1="221.6" x2="971.2" y2="221.6" stroke="#2e7d32" stroke-width="1"/>
<rect x="968.4" y="221.6" width="5.6" height="1.0" fill="#2e7d32"/>
<rect x="968.4" y="532.0" width="5.6" height="0.0" fill="#2e7d32" opacity="0.55"/>
<line x1="980.2" y1="227.9" x2="980.2" y2="227.9" stroke="#2e7d32" stroke-width="1"/>
<rect x="977.4" y="227.9" width="5.6" height="1.0" fill="#2e7d32"/>
<rect x="977.4" y="530.3" width="5.6" height="1.7" fill="#2e7d32" opacity="0.55"/>
<line x1="989.2" y1="189.7" x2="989.2" y2="221.6" stroke="#2e7d32" stroke-width="1"/>
<rect x="986.4" y="198.1" width="5.6" height="4.3" fill="#2e7d32"/>
<rect x="986.4" y="506.0" width="5.6" height="26.0" fill="#2e7d32" opacity="0.55"/>
<line x1="998.2" y1="209.1" x2="998.2" y2="221.6" stroke="#c62828" stroke-width="1"/>
<rect x="995.4" y="209.1" width="5.6" height="12.2" fill="#c62828"/>
<rect x="995.4" y="529.5" width="5.6" height="2.5" fill="#c62828" opacity="0.55"/>
<line x1="1007.3" y1="221.3" x2="1007.3" y2="221.3" stroke="#2e7d32" stroke-width="1"/>
<rect x="1004.5" y="221.3" width="5.6" height="1.0" fill="#2e7d32"/>
<rect x="1004.5" y="531.8" width="5.6" height="0.2" fill="#2e7d32" opacity="0.55"/>
<line x1="1016.3" y1="221.3" x2="1016.3" y2="221.3" stroke="#2e7d32" stroke-width="1"/>
<rect x="1013.5" y="221.3" width="5.6" height="1.0" fill="#2e7d32"/>
<rect x="1013.5" y="532.0" width="5.6" height="0.0" fill="#2e7d32" opacity="0.55"/>
<line x1="1025.3" y1="215.2" x2="1025.3" y2="215.2" stroke="#2e7d32" stroke-width="1"/>
<rect x="1022.5" y="215.2" width="5.6" height="1.0" fill="#2e7d32"/>
<rect x="1022.5" y="517.4" width="5.6" height="14.6" fill="#2e7d32" opacity="0.55"/>
<line x1="1034.4" y1="170.6" x2="1034.4" y2="170.6" stroke="#2e7d32" stroke-width="1"/>
<rect x="1031.6" y="170.6" width="5.6" height="1.0" fill="#2e7d32"/>
<rect x="1031.6" y="532.0" width="5.6" height="0.0" fill="#2e7d32" opacity="0.55"/>
<line x1="1043.4" y1="173.1" x2="1043.4" y2="173.1" stroke="#2e7d32" stroke-width="1"/>
<rect x="1040.6" y="173.1" width="5.6" height="1.0" fill="#2e7d32"/>
<rect x="1040.6" y="532.0" width="5.6" height="0.0" fill="#2e7d32" opacity="0.55"/>
<line x1="1052.4" y1="199.9" x2="1052.4" y2="202.2" stroke="#c62828" stroke-width="1"/>
<rect x="1049.6" y="199.9" width="5.6" height="2.3" fill="#c62828"/>
<rect x="1049.6" y="529.8" width="5.6" height="2.2" fill="#c62828" opacity="0.55"/>
<line x1="1061.4" y1="194.0" x2="1061.4" y2="194.0" stroke="#2e7d32" stroke-width="1"/>
<rect x="1058.6" y="194.0" width="5.6" height="1.0" fill="#2e7d32"/>
<rect x="1058.6" y="532.0" width="5.6" height="0.0" fill="#2e7d32" opacity="0.55"/>
<line x1="1070.5" y1="196.1" x2="1070.5" y2="196.1" stroke="#2e7d32" stroke-width="1"/>
<rect x="1067.7" y="196.1" width="5.6" height="1.0" fill="#2e7d32"/>
<rect x="1067.7" y="532.0" width="5.6" height="0.0" fill="#2e7d32" opacity="0.55"/>
<line x1="1079.5" y1="170.6" x2="1079.5" y2="170.6" stroke="#2e7d32" stroke-width="1"/>
<rect x="1076.7" y="170.6" width="5.6" height="1.0" fill="#2e7d32"/>
<rect x="1076.7" y="532.0" width="5.6" height="0.0" fill="#2e7d32" opacity="0.55"/>
<line x1="64" y1="532" x2="1084" y2="532" stroke="#ccc"/>
<text x="68" y="421" font-size="9" fill="#555" text-anchor="start">0.1M</text>
<line x1="68.5" y1="532" x2="68.5" y2="536" stroke="#999"/>
<text x="68.5" y="547.0" font-size="9" fill="#666" text-anchor="middle">08/13 09:25</text>
<line x1="231.0" y1="532" x2="231.0" y2="536" stroke="#999"/>
<text x="231.0" y="547.0" font-size="9" fill="#666" text-anchor="middle">11:10</text>
<line x1="393.5" y1="532" x2="393.5" y2="536" stroke="#999"/>
<text x="393.5" y="547.0" font-size="9" fill="#666" text-anchor="middle">13:05</text>
<line x1="555.9" y1="532" x2="555.9" y2="536" stroke="#999"/>
<text x="555.9" y="547.0" font-size="9" fill="#666" text-anchor="middle">14:50</text>
<line x1="718.4" y1="532" x2="718.4" y2="536" stroke="#999"/>
<text x="718.4" y="547.0" font-size="9" fill="#666" text-anchor="middle">16:25</text>
<line x1="880.9" y1="532" x2="880.9" y2="536" stroke="#999"/>
<text x="880.9" y="547.0" font-size="9" fill="#666" text-anchor="middle">18:00</text>
<line x1="1043.4" y1="532" x2="1043.4" y2="536" stroke="#999"/>
<text x="1043.4" y="547.0" font-size="9" fill="#666" text-anchor="middle">08/14 04:50</text>
<line x1="64" y1="170.6" x2="1084" y2="170.6" stroke="#1565c0" stroke-width="1.2" stroke-dasharray="5,4" opacity="0.9"/>
<polygon points="835.8,168.6 829.8,160.2 841.8,160.2" fill="#1565c0"/>
<text x="835.8" y="156.2" font-size="10" font-weight="bold" fill="#1565c0" text-anchor="middle">ENTRY $2.17</text>
<text x="64" y="22" font-size="15" font-weight="bold" fill="#1a1a1a">GRSD - Grandstand Limited</text>
<text x="1084" y="22" font-size="11" fill="#666" text-anchor="end">last $2.17 (+11.9% over window)</text>
<rect x="934" y="28" width="10" height="8" fill="#e8f0fe"/>
<text x="948" y="35" font-size="9" fill="#666">premarket</text>
<rect x="1006" y="28" width="10" height="8" fill="#fff4e0"/>
<text x="1020" y="35" font-size="9" fill="#666">after-hrs</text>
<rect x="852" y="28" width="10" height="8" fill="#1565c0"/>
<text x="866" y="35" font-size="9" fill="#666">entry</text>
</svg>