<svg xmlns="http://www.w3.org/2000/svg" width="1100" height="560" viewBox="0 0 1100 560" font-family="Arial,Helvetica,sans-serif">
<rect width="1100" height="560" fill="white"/>
<rect x="64.0" y="36" width="79.5" height="496.0" fill="#e8f0fe"/>
<rect x="640.2" y="36" width="317.9" height="496.0" fill="#fff4e0"/>
<rect x="958.2" y="36" width="125.8" height="496.0" fill="#e8f0fe"/>
<line x1="64" y1="404.0" x2="1084" y2="404.0" stroke="#e6e6e6"/>
<text x="58" y="407.0" font-size="10" fill="#666" text-anchor="end">$3.71</text>
<line x1="64" y1="312.0" x2="1084" y2="312.0" stroke="#e6e6e6"/>
<text x="58" y="315.0" font-size="10" fill="#666" text-anchor="end">$4.13</text>
<line x1="64" y1="220.0" x2="1084" y2="220.0" stroke="#e6e6e6"/>
<text x="58" y="223.0" font-size="10" fill="#666" text-anchor="end">$4.54</text>
<line x1="64" y1="128.0" x2="1084" y2="128.0" stroke="#e6e6e6"/>
<text x="58" y="131.0" font-size="10" fill="#666" text-anchor="end">$4.95</text>
<line x1="64" y1="36.0" x2="1084" y2="36.0" stroke="#e6e6e6"/>
<text x="58" y="39.0" font-size="10" fill="#666" text-anchor="end">$5.37</text>
<line x1="67.3" y1="288.8" x2="67.3" y2="288.8" stroke="#2e7d32" stroke-width="1"/>
<rect x="65.3" y="288.8" width="4.1" height="1.0" fill="#2e7d32"/>
<rect x="65.3" y="532.0" width="4.1" height="0.0" fill="#2e7d32" opacity="0.55"/>
<line x1="73.9" y1="288.8" x2="73.9" y2="288.8" stroke="#2e7d32" stroke-width="1"/>
<rect x="71.9" y="288.8" width="4.1" height="1.0" fill="#2e7d32"/>
<rect x="71.9" y="532.0" width="4.1" height="0.0" fill="#2e7d32" opacity="0.55"/>
<line x1="80.6" y1="288.8" x2="80.6" y2="288.8" stroke="#2e7d32" stroke-width="1"/>
<rect x="78.5" y="288.8" width="4.1" height="1.0" fill="#2e7d32"/>
<rect x="78.5" y="532.0" width="4.1" height="0.0" fill="#2e7d32" opacity="0.55"/>
<line x1="87.2" y1="335.4" x2="87.2" y2="335.4" stroke="#2e7d32" stroke-width="1"/>
<rect x="85.1" y="335.4" width="4.1" height="1.0" fill="#2e7d32"/>
<rect x="85.1" y="532.0" width="4.1" height="0.0" fill="#2e7d32" opacity="0.55"/>
<line x1="93.8" y1="288.8" x2="93.8" y2="348.8" stroke="#2e7d32" stroke-width="1"/>
<rect x="91.8" y="288.8" width="4.1" height="57.7" fill="#2e7d32"/>
<rect x="91.8" y="532.0" width="4.1" height="0.0" fill="#2e7d32" opacity="0.55"/>
<line x1="100.4" y1="288.8" x2="100.4" y2="288.8" stroke="#2e7d32" stroke-width="1"/>
<rect x="98.4" y="288.8" width="4.1" height="1.0" fill="#2e7d32"/>
<rect x="98.4" y="532.0" width="4.1" height="0.0" fill="#2e7d32" opacity="0.55"/>
<line x1="107.1" y1="288.8" x2="107.1" y2="288.8" stroke="#2e7d32" stroke-width="1"/>
<rect x="105.0" y="288.8" width="4.1" height="1.0" fill="#2e7d32"/>
<rect x="105.0" y="532.0" width="4.1" height="0.0" fill="#2e7d32" opacity="0.55"/>
<line x1="113.7" y1="288.8" x2="113.7" y2="288.8" stroke="#2e7d32" stroke-width="1"/>
<rect x="111.6" y="288.8" width="4.1" height="1.0" fill="#2e7d32"/>
<rect x="111.6" y="532.0" width="4.1" height="0.0" fill="#2e7d32" opacity="0.55"/>
<line x1="120.3" y1="297.7" x2="120.3" y2="299.9" stroke="#c62828" stroke-width="1"/>
<rect x="118.2" y="297.7" width="4.1" height="2.2" fill="#c62828"/>
<rect x="118.2" y="531.7" width="4.1" height="0.3" fill="#c62828" opacity="0.55"/>
<line x1="126.9" y1="299.9" x2="126.9" y2="299.9" stroke="#2e7d32" stroke-width="1"/>
<rect x="124.9" y="299.9" width="4.1" height="1.0" fill="#2e7d32"/>
<rect x="124.9" y="532.0" width="4.1" height="0.0" fill="#2e7d32" opacity="0.55"/>
<line x1="133.5" y1="299.9" x2="133.5" y2="299.9" stroke="#2e7d32" stroke-width="1"/>
<rect x="131.5" y="299.9" width="4.1" height="1.0" fill="#2e7d32"/>
<rect x="131.5" y="532.0" width="4.1" height="0.0" fill="#2e7d32" opacity="0.55"/>
<line x1="140.2" y1="319.9" x2="140.2" y2="319.9" stroke="#2e7d32" stroke-width="1"/>
<rect x="138.1" y="319.9" width="4.1" height="1.0" fill="#2e7d32"/>
<rect x="138.1" y="531.7" width="4.1" height="0.3" fill="#2e7d32" opacity="0.55"/>
<line x1="146.8" y1="324.3" x2="146.8" y2="348.8" stroke="#c62828" stroke-width="1"/>
<rect x="144.7" y="328.8" width="4.1" height="20.0" fill="#c62828"/>
<rect x="144.7" y="524.2" width="4.1" height="7.8" fill="#c62828" opacity="0.55"/>
<line x1="153.4" y1="343.2" x2="153.4" y2="351.0" stroke="#2e7d32" stroke-width="1"/>
<rect x="151.4" y="348.8" width="4.1" height="2.2" fill="#2e7d32"/>
<rect x="151.4" y="531.5" width="4.1" height="0.5" fill="#2e7d32" opacity="0.55"/>
<line x1="160.0" y1="348.8" x2="160.0" y2="353.2" stroke="#c62828" stroke-width="1"/>
<rect x="158.0" y="348.8" width="4.1" height="4.4" fill="#c62828"/>
<rect x="158.0" y="528.0" width="4.1" height="4.0" fill="#c62828" opacity="0.55"/>
<line x1="166.7" y1="342.1" x2="166.7" y2="346.5" stroke="#2e7d32" stroke-width="1"/>
<rect x="164.6" y="342.1" width="4.1" height="4.4" fill="#2e7d32"/>
<rect x="164.6" y="531.2" width="4.1" height="0.8" fill="#2e7d32" opacity="0.55"/>
<line x1="173.3" y1="351.0" x2="173.3" y2="355.4" stroke="#c62828" stroke-width="1"/>
<rect x="171.2" y="351.0" width="4.1" height="2.1" fill="#c62828"/>
<rect x="171.2" y="530.4" width="4.1" height="1.6" fill="#c62828" opacity="0.55"/>
<line x1="179.9" y1="355.4" x2="179.9" y2="357.6" stroke="#c62828" stroke-width="1"/>
<rect x="177.9" y="355.4" width="4.1" height="1.0" fill="#c62828"/>
<rect x="177.9" y="529.8" width="4.1" height="2.2" fill="#c62828" opacity="0.55"/>
<line x1="186.5" y1="364.3" x2="186.5" y2="364.3" stroke="#2e7d32" stroke-width="1"/>
<rect x="184.5" y="364.3" width="4.1" height="1.0" fill="#2e7d32"/>
<rect x="184.5" y="531.8" width="4.1" height="0.2" fill="#2e7d32" opacity="0.55"/>
<line x1="193.2" y1="333.2" x2="193.2" y2="364.3" stroke="#2e7d32" stroke-width="1"/>
<rect x="191.1" y="346.5" width="4.1" height="17.8" fill="#2e7d32"/>
<rect x="191.1" y="513.7" width="4.1" height="18.3" fill="#2e7d32" opacity="0.55"/>
<line x1="199.8" y1="339.9" x2="199.8" y2="346.5" stroke="#2e7d32" stroke-width="1"/>
<rect x="197.7" y="339.9" width="4.1" height="6.7" fill="#2e7d32"/>
<rect x="197.7" y="530.4" width="4.1" height="1.6" fill="#2e7d32" opacity="0.55"/>
<line x1="206.4" y1="342.1" x2="206.4" y2="382.1" stroke="#c62828" stroke-width="1"/>
<rect x="204.3" y="342.1" width="4.1" height="20.0" fill="#c62828"/>
<rect x="204.3" y="414.2" width="4.1" height="117.8" fill="#c62828" opacity="0.55"/>
<line x1="213.0" y1="357.6" x2="213.0" y2="371.0" stroke="#2e7d32" stroke-width="1"/>
<rect x="211.0" y="357.6" width="4.1" height="1.0" fill="#2e7d32"/>
<rect x="211.0" y="525.4" width="4.1" height="6.6" fill="#2e7d32" opacity="0.55"/>
<line x1="219.6" y1="359.9" x2="219.6" y2="366.5" stroke="#c62828" stroke-width="1"/>
<rect x="217.6" y="359.9" width="4.1" height="6.7" fill="#c62828"/>
<rect x="217.6" y="531.0" width="4.1" height="1.0" fill="#c62828" opacity="0.55"/>
<line x1="226.3" y1="362.1" x2="226.3" y2="362.1" stroke="#2e7d32" stroke-width="1"/>
<rect x="224.2" y="362.1" width="4.1" height="1.0" fill="#2e7d32"/>
<rect x="224.2" y="531.2" width="4.1" height="0.8" fill="#2e7d32" opacity="0.55"/>
<line x1="232.9" y1="362.1" x2="232.9" y2="377.6" stroke="#c62828" stroke-width="1"/>
<rect x="230.8" y="362.1" width="4.1" height="13.3" fill="#c62828"/>
<rect x="230.8" y="528.3" width="4.1" height="3.7" fill="#c62828" opacity="0.55"/>
<line x1="239.5" y1="364.3" x2="239.5" y2="379.8" stroke="#2e7d32" stroke-width="1"/>
<rect x="237.5" y="368.7" width="4.1" height="6.7" fill="#2e7d32"/>
<rect x="237.5" y="520.9" width="4.1" height="11.1" fill="#2e7d32" opacity="0.55"/>
<line x1="246.1" y1="362.1" x2="246.1" y2="366.5" stroke="#2e7d32" stroke-width="1"/>
<rect x="244.1" y="362.1" width="4.1" height="2.4" fill="#2e7d32"/>
<rect x="244.1" y="531.2" width="4.1" height="0.8" fill="#2e7d32" opacity="0.55"/>
<line x1="252.8" y1="362.1" x2="252.8" y2="363.2" stroke="#c62828" stroke-width="1"/>
<rect x="250.7" y="362.1" width="4.1" height="1.1" fill="#c62828"/>
<rect x="250.7" y="531.4" width="4.1" height="0.6" fill="#c62828" opacity="0.55"/>
<line x1="259.4" y1="359.9" x2="259.4" y2="362.1" stroke="#c62828" stroke-width="1"/>
<rect x="257.3" y="361.4" width="4.1" height="1.0" fill="#c62828"/>
<rect x="257.3" y="531.0" width="4.1" height="1.0" fill="#c62828" opacity="0.55"/>
<line x1="266.0" y1="357.0" x2="266.0" y2="363.2" stroke="#2e7d32" stroke-width="1"/>
<rect x="264.0" y="357.0" width="4.1" height="5.6" fill="#2e7d32"/>
<rect x="264.0" y="529.5" width="4.1" height="2.5" fill="#2e7d32" opacity="0.55"/>
<line x1="272.6" y1="357.6" x2="272.6" y2="357.6" stroke="#2e7d32" stroke-width="1"/>
<rect x="270.6" y="357.6" width="4.1" height="1.0" fill="#2e7d32"/>
<rect x="270.6" y="531.7" width="4.1" height="0.3" fill="#2e7d32" opacity="0.55"/>
<line x1="279.3" y1="359.9" x2="279.3" y2="364.3" stroke="#c62828" stroke-width="1"/>
<rect x="277.2" y="359.9" width="4.1" height="2.2" fill="#c62828"/>
<rect x="277.2" y="531.1" width="4.1" height="0.9" fill="#c62828" opacity="0.55"/>
<line x1="285.9" y1="358.0" x2="285.9" y2="358.0" stroke="#2e7d32" stroke-width="1"/>
<rect x="283.8" y="358.0" width="4.1" height="1.0" fill="#2e7d32"/>
<rect x="283.8" y="531.6" width="4.1" height="0.4" fill="#2e7d32" opacity="0.55"/>
<line x1="292.5" y1="355.0" x2="292.5" y2="361.0" stroke="#2e7d32" stroke-width="1"/>
<rect x="290.5" y="355.0" width="4.1" height="6.0" fill="#2e7d32"/>
<rect x="290.5" y="531.5" width="4.1" height="0.5" fill="#2e7d32" opacity="0.55"/>
<line x1="299.1" y1="353.6" x2="299.1" y2="353.6" stroke="#2e7d32" stroke-width="1"/>
<rect x="297.1" y="353.6" width="4.1" height="1.0" fill="#2e7d32"/>
<rect x="297.1" y="531.8" width="4.1" height="0.2" fill="#2e7d32" opacity="0.55"/>
<line x1="305.8" y1="357.6" x2="305.8" y2="357.6" stroke="#2e7d32" stroke-width="1"/>
<rect x="303.7" y="357.6" width="4.1" height="1.0" fill="#2e7d32"/>
<rect x="303.7" y="531.9" width="4.1" height="0.1" fill="#2e7d32" opacity="0.55"/>
<line x1="312.4" y1="357.6" x2="312.4" y2="359.9" stroke="#2e7d32" stroke-width="1"/>
<rect x="310.3" y="359.9" width="4.1" height="1.0" fill="#2e7d32"/>
<rect x="310.3" y="531.3" width="4.1" height="0.7" fill="#2e7d32" opacity="0.55"/>
<line x1="319.0" y1="364.3" x2="319.0" y2="371.0" stroke="#c62828" stroke-width="1"/>
<rect x="316.9" y="364.3" width="4.1" height="4.4" fill="#c62828"/>
<rect x="316.9" y="528.5" width="4.1" height="3.5" fill="#c62828" opacity="0.55"/>
<line x1="325.6" y1="367.7" x2="325.6" y2="371.0" stroke="#c62828" stroke-width="1"/>
<rect x="323.6" y="367.7" width="4.1" height="1.0" fill="#c62828"/>
<rect x="323.6" y="529.5" width="4.1" height="2.5" fill="#c62828" opacity="0.55"/>
<line x1="332.2" y1="353.2" x2="332.2" y2="366.5" stroke="#2e7d32" stroke-width="1"/>
<rect x="330.2" y="353.2" width="4.1" height="13.3" fill="#2e7d32"/>
<rect x="330.2" y="528.2" width="4.1" height="3.8" fill="#2e7d32" opacity="0.55"/>
<line x1="338.9" y1="353.2" x2="338.9" y2="353.2" stroke="#2e7d32" stroke-width="1"/>
<rect x="336.8" y="353.2" width="4.1" height="1.0" fill="#2e7d32"/>
<rect x="336.8" y="531.5" width="4.1" height="0.5" fill="#2e7d32" opacity="0.55"/>
<line x1="345.5" y1="354.3" x2="345.5" y2="354.3" stroke="#2e7d32" stroke-width="1"/>
<rect x="343.4" y="354.3" width="4.1" height="1.0" fill="#2e7d32"/>
<rect x="343.4" y="531.9" width="4.1" height="0.1" fill="#2e7d32" opacity="0.55"/>
<line x1="352.1" y1="353.6" x2="352.1" y2="357.6" stroke="#2e7d32" stroke-width="1"/>
<rect x="350.1" y="355.4" width="4.1" height="2.2" fill="#2e7d32"/>
<rect x="350.1" y="531.3" width="4.1" height="0.7" fill="#2e7d32" opacity="0.55"/>
<line x1="358.7" y1="353.2" x2="358.7" y2="355.4" stroke="#2e7d32" stroke-width="1"/>
<rect x="356.7" y="353.2" width="4.1" height="2.2" fill="#2e7d32"/>
<rect x="356.7" y="531.6" width="4.1" height="0.4" fill="#2e7d32" opacity="0.55"/>
<line x1="365.4" y1="351.0" x2="365.4" y2="354.3" stroke="#2e7d32" stroke-width="1"/>
<rect x="363.3" y="353.2" width="4.1" height="1.1" fill="#2e7d32"/>
<rect x="363.3" y="531.2" width="4.1" height="0.8" fill="#2e7d32" opacity="0.55"/>
<line x1="372.0" y1="351.0" x2="372.0" y2="351.0" stroke="#2e7d32" stroke-width="1"/>
<rect x="369.9" y="351.0" width="4.1" height="1.0" fill="#2e7d32"/>
<rect x="369.9" y="531.7" width="4.1" height="0.3" fill="#2e7d32" opacity="0.55"/>
<line x1="378.6" y1="351.0" x2="378.6" y2="354.3" stroke="#2e7d32" stroke-width="1"/>
<rect x="376.6" y="351.0" width="4.1" height="1.0" fill="#2e7d32"/>
<rect x="376.6" y="528.9" width="4.1" height="3.1" fill="#2e7d32" opacity="0.55"/>
<line x1="385.2" y1="352.1" x2="385.2" y2="353.2" stroke="#2e7d32" stroke-width="1"/>
<rect x="383.2" y="353.2" width="4.1" height="1.0" fill="#2e7d32"/>
<rect x="383.2" y="531.6" width="4.1" height="0.4" fill="#2e7d32" opacity="0.55"/>
<line x1="391.9" y1="348.8" x2="391.9" y2="353.2" stroke="#2e7d32" stroke-width="1"/>
<rect x="389.8" y="351.0" width="4.1" height="2.2" fill="#2e7d32"/>
<rect x="389.8" y="530.0" width="4.1" height="2.0" fill="#2e7d32" opacity="0.55"/>
<line x1="398.5" y1="346.5" x2="398.5" y2="348.8" stroke="#2e7d32" stroke-width="1"/>
<rect x="396.4" y="348.8" width="4.1" height="1.0" fill="#2e7d32"/>
<rect x="396.4" y="530.4" width="4.1" height="1.6" fill="#2e7d32" opacity="0.55"/>
<line x1="405.1" y1="347.7" x2="405.1" y2="347.7" stroke="#2e7d32" stroke-width="1"/>
<rect x="403.1" y="347.7" width="4.1" height="1.0" fill="#2e7d32"/>
<rect x="403.1" y="531.9" width="4.1" height="0.1" fill="#2e7d32" opacity="0.55"/>
<line x1="411.7" y1="339.9" x2="411.7" y2="346.5" stroke="#2e7d32" stroke-width="1"/>
<rect x="409.7" y="339.9" width="4.1" height="4.4" fill="#2e7d32"/>
<rect x="409.7" y="528.4" width="4.1" height="3.6" fill="#2e7d32" opacity="0.55"/>
<line x1="418.4" y1="342.1" x2="418.4" y2="348.8" stroke="#c62828" stroke-width="1"/>
<rect x="416.3" y="342.1" width="4.1" height="6.7" fill="#c62828"/>
<rect x="416.3" y="529.9" width="4.1" height="2.1" fill="#c62828" opacity="0.55"/>
<line x1="425.0" y1="349.9" x2="425.0" y2="349.9" stroke="#2e7d32" stroke-width="1"/>
<rect x="422.9" y="349.9" width="4.1" height="1.0" fill="#2e7d32"/>
<rect x="422.9" y="531.9" width="4.1" height="0.1" fill="#2e7d32" opacity="0.55"/>
<line x1="431.6" y1="349.9" x2="431.6" y2="351.0" stroke="#2e7d32" stroke-width="1"/>
<rect x="429.5" y="351.0" width="4.1" height="1.0" fill="#2e7d32"/>
<rect x="429.5" y="530.9" width="4.1" height="1.1" fill="#2e7d32" opacity="0.55"/>
<line x1="438.2" y1="353.2" x2="438.2" y2="357.6" stroke="#2e7d32" stroke-width="1"/>
<rect x="436.2" y="355.4" width="4.1" height="2.2" fill="#2e7d32"/>
<rect x="436.2" y="530.7" width="4.1" height="1.3" fill="#2e7d32" opacity="0.55"/>
<line x1="444.8" y1="335.4" x2="444.8" y2="351.0" stroke="#2e7d32" stroke-width="1"/>
<rect x="442.8" y="342.1" width="4.1" height="8.9" fill="#2e7d32"/>
<rect x="442.8" y="513.9" width="4.1" height="18.1" fill="#2e7d32" opacity="0.55"/>
<line x1="451.5" y1="331.0" x2="451.5" y2="337.7" stroke="#2e7d32" stroke-width="1"/>
<rect x="449.4" y="333.2" width="4.1" height="4.4" fill="#2e7d32"/>
<rect x="449.4" y="526.7" width="4.1" height="5.3" fill="#2e7d32" opacity="0.55"/>
<line x1="458.1" y1="337.7" x2="458.1" y2="342.1" stroke="#c62828" stroke-width="1"/>
<rect x="456.0" y="337.7" width="4.1" height="4.4" fill="#c62828"/>
<rect x="456.0" y="528.1" width="4.1" height="3.9" fill="#c62828" opacity="0.55"/>
<line x1="464.7" y1="337.7" x2="464.7" y2="342.1" stroke="#2e7d32" stroke-width="1"/>
<rect x="462.7" y="339.9" width="4.1" height="2.2" fill="#2e7d32"/>
<rect x="462.7" y="530.5" width="4.1" height="1.5" fill="#2e7d32" opacity="0.55"/>
<line x1="471.3" y1="335.4" x2="471.3" y2="344.3" stroke="#c62828" stroke-width="1"/>
<rect x="469.3" y="335.5" width="4.1" height="6.6" fill="#c62828"/>
<rect x="469.3" y="523.3" width="4.1" height="8.7" fill="#c62828" opacity="0.55"/>
<line x1="478.0" y1="343.2" x2="478.0" y2="343.2" stroke="#2e7d32" stroke-width="1"/>
<rect x="475.9" y="343.2" width="4.1" height="1.0" fill="#2e7d32"/>
<rect x="475.9" y="531.8" width="4.1" height="0.2" fill="#2e7d32" opacity="0.55"/>
<line x1="484.6" y1="344.3" x2="484.6" y2="344.3" stroke="#2e7d32" stroke-width="1"/>
<rect x="482.5" y="344.3" width="4.1" height="1.0" fill="#2e7d32"/>
<rect x="482.5" y="531.2" width="4.1" height="0.8" fill="#2e7d32" opacity="0.55"/>
<line x1="491.2" y1="342.1" x2="491.2" y2="346.5" stroke="#c62828" stroke-width="1"/>
<rect x="489.2" y="344.3" width="4.1" height="2.2" fill="#c62828"/>
<rect x="489.2" y="531.4" width="4.1" height="0.6" fill="#c62828" opacity="0.55"/>
<line x1="497.8" y1="345.1" x2="497.8" y2="346.5" stroke="#2e7d32" stroke-width="1"/>
<rect x="495.8" y="346.5" width="4.1" height="1.0" fill="#2e7d32"/>
<rect x="495.8" y="531.1" width="4.1" height="0.9" fill="#2e7d32" opacity="0.55"/>
<line x1="504.5" y1="344.3" x2="504.5" y2="346.5" stroke="#2e7d32" stroke-width="1"/>
<rect x="502.4" y="346.5" width="4.1" height="1.0" fill="#2e7d32"/>
<rect x="502.4" y="530.8" width="4.1" height="1.2" fill="#2e7d32" opacity="0.55"/>
<line x1="511.1" y1="344.3" x2="511.1" y2="346.5" stroke="#2e7d32" stroke-width="1"/>
<rect x="509.0" y="344.3" width="4.1" height="2.2" fill="#2e7d32"/>
<rect x="509.0" y="531.3" width="4.1" height="0.7" fill="#2e7d32" opacity="0.55"/>
<line x1="517.7" y1="344.3" x2="517.7" y2="348.8" stroke="#c62828" stroke-width="1"/>
<rect x="515.6" y="346.5" width="4.1" height="2.2" fill="#c62828"/>
<rect x="515.6" y="527.7" width="4.1" height="4.3" fill="#c62828" opacity="0.55"/>
<line x1="524.3" y1="348.8" x2="524.3" y2="351.0" stroke="#2e7d32" stroke-width="1"/>
<rect x="522.3" y="348.8" width="4.1" height="2.2" fill="#2e7d32"/>
<rect x="522.3" y="529.3" width="4.1" height="2.7" fill="#2e7d32" opacity="0.55"/>
<line x1="530.9" y1="348.8" x2="530.9" y2="353.2" stroke="#c62828" stroke-width="1"/>
<rect x="528.9" y="348.8" width="4.1" height="2.2" fill="#c62828"/>
<rect x="528.9" y="529.3" width="4.1" height="2.7" fill="#c62828" opacity="0.55"/>
<line x1="537.6" y1="351.0" x2="537.6" y2="356.5" stroke="#c62828" stroke-width="1"/>
<rect x="535.5" y="351.0" width="4.1" height="4.4" fill="#c62828"/>
<rect x="535.5" y="530.8" width="4.1" height="1.2" fill="#c62828" opacity="0.55"/>
<line x1="544.2" y1="351.0" x2="544.2" y2="357.2" stroke="#2e7d32" stroke-width="1"/>
<rect x="542.1" y="353.2" width="4.1" height="4.0" fill="#2e7d32"/>
<rect x="542.1" y="529.8" width="4.1" height="2.2" fill="#2e7d32" opacity="0.55"/>
<line x1="550.8" y1="355.4" x2="550.8" y2="357.6" stroke="#c62828" stroke-width="1"/>
<rect x="548.8" y="355.4" width="4.1" height="2.2" fill="#c62828"/>
<rect x="548.8" y="530.9" width="4.1" height="1.1" fill="#c62828" opacity="0.55"/>
<line x1="557.4" y1="353.2" x2="557.4" y2="358.8" stroke="#2e7d32" stroke-width="1"/>
<rect x="555.4" y="355.4" width="4.1" height="3.3" fill="#2e7d32"/>
<rect x="555.4" y="527.2" width="4.1" height="4.8" fill="#2e7d32" opacity="0.55"/>
<line x1="564.1" y1="353.2" x2="564.1" y2="357.6" stroke="#c62828" stroke-width="1"/>
<rect x="562.0" y="353.2" width="4.1" height="3.4" fill="#c62828"/>
<rect x="562.0" y="529.1" width="4.1" height="2.9" fill="#c62828" opacity="0.55"/>
<line x1="570.7" y1="357.6" x2="570.7" y2="376.5" stroke="#c62828" stroke-width="1"/>
<rect x="568.6" y="357.6" width="4.1" height="11.2" fill="#c62828"/>
<rect x="568.6" y="517.5" width="4.1" height="14.5" fill="#c62828" opacity="0.55"/>
<line x1="577.3" y1="366.5" x2="577.3" y2="372.1" stroke="#2e7d32" stroke-width="1"/>
<rect x="575.3" y="368.7" width="4.1" height="1.0" fill="#2e7d32"/>
<rect x="575.3" y="526.4" width="4.1" height="5.6" fill="#2e7d32" opacity="0.55"/>
<line x1="583.9" y1="371.0" x2="583.9" y2="375.4" stroke="#2e7d32" stroke-width="1"/>
<rect x="581.9" y="371.0" width="4.1" height="1.0" fill="#2e7d32"/>
<rect x="581.9" y="530.0" width="4.1" height="2.0" fill="#2e7d32" opacity="0.55"/>
<line x1="590.6" y1="366.7" x2="590.6" y2="373.2" stroke="#c62828" stroke-width="1"/>
<rect x="588.5" y="367.0" width="4.1" height="6.2" fill="#c62828"/>
<rect x="588.5" y="529.9" width="4.1" height="2.1" fill="#c62828" opacity="0.55"/>
<line x1="597.2" y1="371.0" x2="597.2" y2="375.4" stroke="#2e7d32" stroke-width="1"/>
<rect x="595.1" y="371.0" width="4.1" height="4.4" fill="#2e7d32"/>
<rect x="595.1" y="527.6" width="4.1" height="4.4" fill="#2e7d32" opacity="0.55"/>
<line x1="603.8" y1="359.9" x2="603.8" y2="373.2" stroke="#2e7d32" stroke-width="1"/>
<rect x="601.8" y="368.7" width="4.1" height="1.0" fill="#2e7d32"/>
<rect x="601.8" y="515.2" width="4.1" height="16.8" fill="#2e7d32" opacity="0.55"/>
<line x1="610.4" y1="366.5" x2="610.4" y2="373.2" stroke="#c62828" stroke-width="1"/>
<rect x="608.4" y="366.7" width="4.1" height="5.5" fill="#c62828"/>
<rect x="608.4" y="528.4" width="4.1" height="3.6" fill="#c62828" opacity="0.55"/>
<line x1="617.1" y1="364.3" x2="617.1" y2="373.2" stroke="#2e7d32" stroke-width="1"/>
<rect x="615.0" y="368.7" width="4.1" height="4.4" fill="#2e7d32"/>
<rect x="615.0" y="524.2" width="4.1" height="7.8" fill="#2e7d32" opacity="0.55"/>
<line x1="623.7" y1="366.5" x2="623.7" y2="379.8" stroke="#c62828" stroke-width="1"/>
<rect x="621.6" y="366.6" width="4.1" height="11.0" fill="#c62828"/>
<rect x="621.6" y="524.2" width="4.1" height="7.8" fill="#c62828" opacity="0.55"/>
<line x1="630.3" y1="371.2" x2="630.3" y2="379.8" stroke="#2e7d32" stroke-width="1"/>
<rect x="628.2" y="377.6" width="4.1" height="1.0" fill="#2e7d32"/>
<rect x="628.2" y="527.2" width="4.1" height="4.8" fill="#2e7d32" opacity="0.55"/>
<line x1="636.9" y1="368.8" x2="636.9" y2="384.3" stroke="#2e7d32" stroke-width="1"/>
<rect x="634.9" y="373.2" width="4.1" height="6.7" fill="#2e7d32"/>
<rect x="634.9" y="509.9" width="4.1" height="22.1" fill="#2e7d32" opacity="0.55"/>
<line x1="643.5" y1="371.0" x2="643.5" y2="382.1" stroke="#c62828" stroke-width="1"/>
<rect x="641.5" y="377.6" width="4.1" height="4.4" fill="#c62828"/>
<rect x="641.5" y="527.6" width="4.1" height="4.4" fill="#c62828" opacity="0.55"/>
<line x1="650.2" y1="218.3" x2="650.2" y2="344.3" stroke="#2e7d32" stroke-width="1"/>
<rect x="648.1" y="270.9" width="4.1" height="73.4" fill="#2e7d32"/>
<rect x="648.1" y="476.1" width="4.1" height="55.9" fill="#2e7d32" opacity="0.55"/>
<line x1="656.8" y1="140.1" x2="656.8" y2="273.1" stroke="#2e7d32" stroke-width="1"/>
<rect x="654.7" y="153.4" width="4.1" height="115.4" fill="#2e7d32"/>
<rect x="654.7" y="412.0" width="4.1" height="120.0" fill="#2e7d32" opacity="0.55"/>
<polygon points="656.8,413.0 653.8,418.0 659.8,418.0" fill="#2e7d32"/>
<line x1="663.4" y1="82.4" x2="663.4" y2="204.5" stroke="#2e7d32" stroke-width="1"/>
<rect x="661.4" y="106.8" width="4.1" height="59.9" fill="#2e7d32"/>
<rect x="661.4" y="412.0" width="4.1" height="120.0" fill="#2e7d32" opacity="0.55"/>
<polygon points="663.4,413.0 660.4,418.0 666.4,418.0" fill="#2e7d32"/>
<line x1="670.0" y1="95.7" x2="670.0" y2="140.1" stroke="#c62828" stroke-width="1"/>
<rect x="668.0" y="104.6" width="4.1" height="31.1" fill="#c62828"/>
<rect x="668.0" y="412.0" width="4.1" height="120.0" fill="#c62828" opacity="0.55"/>
<polygon points="670.0,413.0 667.0,418.0 673.0,418.0" fill="#c62828"/>
<line x1="676.7" y1="62.4" x2="676.7" y2="157.8" stroke="#2e7d32" stroke-width="1"/>
<rect x="674.6" y="78.2" width="4.1" height="57.4" fill="#2e7d32"/>
<rect x="674.6" y="412.0" width="4.1" height="120.0" fill="#2e7d32" opacity="0.55"/>
<polygon points="676.7,413.0 673.7,418.0 679.7,418.0" fill="#2e7d32"/>
<line x1="683.3" y1="73.5" x2="683.3" y2="173.4" stroke="#c62828" stroke-width="1"/>
<rect x="681.2" y="77.9" width="4.1" height="73.3" fill="#c62828"/>
<rect x="681.2" y="412.0" width="4.1" height="120.0" fill="#c62828" opacity="0.55"/>
<polygon points="683.3,413.0 680.3,418.0 686.3,418.0" fill="#c62828"/>
<line x1="689.9" y1="129.0" x2="689.9" y2="173.4" stroke="#2e7d32" stroke-width="1"/>
<rect x="687.9" y="151.2" width="4.1" height="4.4" fill="#2e7d32"/>
<rect x="687.9" y="420.5" width="4.1" height="111.5" fill="#2e7d32" opacity="0.55"/>
<line x1="696.5" y1="126.8" x2="696.5" y2="171.2" stroke="#2e7d32" stroke-width="1"/>
<rect x="694.5" y="155.6" width="4.1" height="2.2" fill="#2e7d32"/>
<rect x="694.5" y="420.9" width="4.1" height="111.1" fill="#2e7d32" opacity="0.55"/>
<line x1="703.2" y1="84.6" x2="703.2" y2="160.1" stroke="#2e7d32" stroke-width="1"/>
<rect x="701.1" y="97.9" width="4.1" height="57.7" fill="#2e7d32"/>
<rect x="701.1" y="412.0" width="4.1" height="120.0" fill="#2e7d32" opacity="0.55"/>
<polygon points="703.2,413.0 700.2,418.0 706.2,418.0" fill="#2e7d32"/>
<line x1="709.8" y1="93.5" x2="709.8" y2="126.8" stroke="#c62828" stroke-width="1"/>
<rect x="707.7" y="97.9" width="4.1" height="20.0" fill="#c62828"/>
<rect x="707.7" y="412.0" width="4.1" height="120.0" fill="#c62828" opacity="0.55"/>
<line x1="716.4" y1="66.8" x2="716.4" y2="115.7" stroke="#2e7d32" stroke-width="1"/>
<rect x="714.3" y="99.8" width="4.1" height="14.7" fill="#2e7d32"/>
<rect x="714.3" y="412.0" width="4.1" height="120.0" fill="#2e7d32" opacity="0.55"/>
<polygon points="716.4,413.0 713.4,418.0 719.4,418.0" fill="#2e7d32"/>
<line x1="723.0" y1="77.9" x2="723.0" y2="115.7" stroke="#2e7d32" stroke-width="1"/>
<rect x="721.0" y="95.7" width="4.1" height="4.4" fill="#2e7d32"/>
<rect x="721.0" y="472.3" width="4.1" height="59.7" fill="#2e7d32" opacity="0.55"/>
<line x1="729.6" y1="91.2" x2="729.6" y2="117.9" stroke="#c62828" stroke-width="1"/>
<rect x="727.6" y="99.8" width="4.1" height="15.8" fill="#c62828"/>
<rect x="727.6" y="486.0" width="4.1" height="46.0" fill="#c62828" opacity="0.55"/>
<line x1="736.3" y1="106.8" x2="736.3" y2="115.7" stroke="#c62828" stroke-width="1"/>
<rect x="734.2" y="111.2" width="4.1" height="3.3" fill="#c62828"/>
<rect x="734.2" y="521.2" width="4.1" height="10.8" fill="#c62828" opacity="0.55"/>
<line x1="742.9" y1="84.6" x2="742.9" y2="117.9" stroke="#2e7d32" stroke-width="1"/>
<rect x="740.8" y="89.0" width="4.1" height="25.5" fill="#2e7d32"/>
<rect x="740.8" y="466.1" width="4.1" height="65.9" fill="#2e7d32" opacity="0.55"/>
<line x1="749.5" y1="89.0" x2="749.5" y2="104.6" stroke="#c62828" stroke-width="1"/>
<rect x="747.5" y="91.2" width="4.1" height="6.7" fill="#c62828"/>
<rect x="747.5" y="513.2" width="4.1" height="18.8" fill="#c62828" opacity="0.55"/>
<line x1="756.1" y1="86.8" x2="756.1" y2="100.1" stroke="#2e7d32" stroke-width="1"/>
<rect x="754.1" y="91.2" width="4.1" height="4.4" fill="#2e7d32"/>
<rect x="754.1" y="513.2" width="4.1" height="18.8" fill="#2e7d32" opacity="0.55"/>
<line x1="762.8" y1="84.6" x2="762.8" y2="100.1" stroke="#2e7d32" stroke-width="1"/>
<rect x="760.7" y="86.8" width="4.1" height="4.4" fill="#2e7d32"/>
<rect x="760.7" y="501.1" width="4.1" height="30.9" fill="#2e7d32" opacity="0.55"/>
<line x1="769.4" y1="86.8" x2="769.4" y2="95.7" stroke="#c62828" stroke-width="1"/>
<rect x="767.3" y="87.1" width="4.1" height="8.5" fill="#c62828"/>
<rect x="767.3" y="523.7" width="4.1" height="8.3" fill="#c62828" opacity="0.55"/>
<line x1="776.0" y1="91.2" x2="776.0" y2="97.9" stroke="#2e7d32" stroke-width="1"/>
<rect x="774.0" y="95.7" width="4.1" height="1.0" fill="#2e7d32"/>
<rect x="774.0" y="520.7" width="4.1" height="11.3" fill="#2e7d32" opacity="0.55"/>
<line x1="782.6" y1="84.6" x2="782.6" y2="95.9" stroke="#2e7d32" stroke-width="1"/>
<rect x="780.6" y="87.9" width="4.1" height="7.8" fill="#2e7d32"/>
<rect x="780.6" y="522.8" width="4.1" height="9.2" fill="#2e7d32" opacity="0.55"/>
<line x1="789.3" y1="77.9" x2="789.3" y2="91.2" stroke="#2e7d32" stroke-width="1"/>
<rect x="787.2" y="86.8" width="4.1" height="1.0" fill="#2e7d32"/>
<rect x="787.2" y="512.4" width="4.1" height="19.6" fill="#2e7d32" opacity="0.55"/>
<line x1="795.9" y1="84.6" x2="795.9" y2="91.2" stroke="#2e7d32" stroke-width="1"/>
<rect x="793.8" y="89.0" width="4.1" height="2.2" fill="#2e7d32"/>
<rect x="793.8" y="518.9" width="4.1" height="13.1" fill="#2e7d32" opacity="0.55"/>
<line x1="802.5" y1="62.4" x2="802.5" y2="89.0" stroke="#2e7d32" stroke-width="1"/>
<rect x="800.5" y="67.1" width="4.1" height="21.9" fill="#2e7d32"/>
<rect x="800.5" y="498.9" width="4.1" height="33.1" fill="#2e7d32" opacity="0.55"/>
<line x1="809.1" y1="64.6" x2="809.1" y2="76.0" stroke="#c62828" stroke-width="1"/>
<rect x="807.1" y="69.0" width="4.1" height="4.3" fill="#c62828"/>
<rect x="807.1" y="511.8" width="4.1" height="20.2" fill="#c62828" opacity="0.55"/>
<line x1="815.8" y1="71.3" x2="815.8" y2="84.6" stroke="#c62828" stroke-width="1"/>
<rect x="813.7" y="71.3" width="4.1" height="13.3" fill="#c62828"/>
<rect x="813.7" y="519.5" width="4.1" height="12.5" fill="#c62828" opacity="0.55"/>
<line x1="822.4" y1="82.4" x2="822.4" y2="93.5" stroke="#2e7d32" stroke-width="1"/>
<rect x="820.3" y="82.4" width="4.1" height="2.0" fill="#2e7d32"/>
<rect x="820.3" y="521.8" width="4.1" height="10.2" fill="#2e7d32" opacity="0.55"/>
<line x1="829.0" y1="71.3" x2="829.0" y2="84.6" stroke="#2e7d32" stroke-width="1"/>
<rect x="826.9" y="82.3" width="4.1" height="2.2" fill="#2e7d32"/>
<rect x="826.9" y="528.8" width="4.1" height="3.2" fill="#2e7d32" opacity="0.55"/>
<line x1="835.6" y1="80.1" x2="835.6" y2="95.7" stroke="#c62828" stroke-width="1"/>
<rect x="833.6" y="82.4" width="4.1" height="10.4" fill="#c62828"/>
<rect x="833.6" y="521.9" width="4.1" height="10.1" fill="#c62828" opacity="0.55"/>
<line x1="842.2" y1="84.6" x2="842.2" y2="93.5" stroke="#2e7d32" stroke-width="1"/>
<rect x="840.2" y="84.6" width="4.1" height="6.7" fill="#2e7d32"/>
<rect x="840.2" y="528.1" width="4.1" height="3.9" fill="#2e7d32" opacity="0.55"/>
<line x1="848.9" y1="75.6" x2="848.9" y2="91.2" stroke="#2e7d32" stroke-width="1"/>
<rect x="846.8" y="75.7" width="4.1" height="15.4" fill="#2e7d32"/>
<rect x="846.8" y="524.6" width="4.1" height="7.4" fill="#2e7d32" opacity="0.55"/>
<line x1="855.5" y1="73.5" x2="855.5" y2="82.4" stroke="#2e7d32" stroke-width="1"/>
<rect x="853.4" y="75.7" width="4.1" height="1.0" fill="#2e7d32"/>
<rect x="853.4" y="526.7" width="4.1" height="5.3" fill="#2e7d32" opacity="0.55"/>
<line x1="862.1" y1="73.5" x2="862.1" y2="82.4" stroke="#c62828" stroke-width="1"/>
<rect x="860.1" y="75.7" width="4.1" height="4.5" fill="#c62828"/>
<rect x="860.1" y="527.3" width="4.1" height="4.7" fill="#c62828" opacity="0.55"/>
<line x1="868.7" y1="73.5" x2="868.7" y2="89.0" stroke="#c62828" stroke-width="1"/>
<rect x="866.7" y="80.1" width="4.1" height="6.7" fill="#c62828"/>
<rect x="866.7" y="528.2" width="4.1" height="3.8" fill="#c62828" opacity="0.55"/>
<line x1="875.4" y1="82.4" x2="875.4" y2="86.8" stroke="#2e7d32" stroke-width="1"/>
<rect x="873.3" y="82.4" width="4.1" height="2.4" fill="#2e7d32"/>
<rect x="873.3" y="528.5" width="4.1" height="3.5" fill="#2e7d32" opacity="0.55"/>
<line x1="882.0" y1="77.9" x2="882.0" y2="86.8" stroke="#2e7d32" stroke-width="1"/>
<rect x="879.9" y="80.1" width="4.1" height="2.2" fill="#2e7d32"/>
<rect x="879.9" y="526.6" width="4.1" height="5.4" fill="#2e7d32" opacity="0.55"/>
<line x1="888.6" y1="77.9" x2="888.6" y2="91.2" stroke="#c62828" stroke-width="1"/>
<rect x="886.6" y="79.8" width="4.1" height="9.2" fill="#c62828"/>
<rect x="886.6" y="522.0" width="4.1" height="10.0" fill="#c62828" opacity="0.55"/>
<line x1="895.2" y1="77.9" x2="895.2" y2="91.2" stroke="#2e7d32" stroke-width="1"/>
<rect x="893.2" y="82.3" width="4.1" height="4.5" fill="#2e7d32"/>
<rect x="893.2" y="529.1" width="4.1" height="2.9" fill="#2e7d32" opacity="0.55"/>
<line x1="901.9" y1="77.9" x2="901.9" y2="89.0" stroke="#c62828" stroke-width="1"/>
<rect x="899.8" y="82.2" width="4.1" height="1.0" fill="#c62828"/>
<rect x="899.8" y="528.7" width="4.1" height="3.3" fill="#c62828" opacity="0.55"/>
<line x1="908.5" y1="75.7" x2="908.5" y2="84.6" stroke="#2e7d32" stroke-width="1"/>
<rect x="906.4" y="77.9" width="4.1" height="6.7" fill="#2e7d32"/>
<rect x="906.4" y="527.4" width="4.1" height="4.6" fill="#2e7d32" opacity="0.55"/>
<line x1="915.1" y1="73.5" x2="915.1" y2="89.0" stroke="#c62828" stroke-width="1"/>
<rect x="913.1" y="75.7" width="4.1" height="2.2" fill="#c62828"/>
<rect x="913.1" y="525.4" width="4.1" height="6.6" fill="#c62828" opacity="0.55"/>
<line x1="921.7" y1="77.9" x2="921.7" y2="89.0" stroke="#c62828" stroke-width="1"/>
<rect x="919.7" y="77.9" width="4.1" height="6.7" fill="#c62828"/>
<rect x="919.7" y="530.7" width="4.1" height="1.3" fill="#c62828" opacity="0.55"/>
<line x1="928.4" y1="73.5" x2="928.4" y2="86.8" stroke="#2e7d32" stroke-width="1"/>
<rect x="926.3" y="80.1" width="4.1" height="6.7" fill="#2e7d32"/>
<rect x="926.3" y="527.2" width="4.1" height="4.8" fill="#2e7d32" opacity="0.55"/>
<line x1="935.0" y1="73.5" x2="935.0" y2="80.1" stroke="#2e7d32" stroke-width="1"/>
<rect x="932.9" y="73.5" width="4.1" height="2.2" fill="#2e7d32"/>
<rect x="932.9" y="527.8" width="4.1" height="4.2" fill="#2e7d32" opacity="0.55"/>
<line x1="941.6" y1="55.7" x2="941.6" y2="80.1" stroke="#2e7d32" stroke-width="1"/>
<rect x="939.5" y="60.2" width="4.1" height="15.5" fill="#2e7d32"/>
<rect x="939.5" y="517.1" width="4.1" height="14.9" fill="#2e7d32" opacity="0.55"/>
<line x1="948.2" y1="57.9" x2="948.2" y2="80.1" stroke="#c62828" stroke-width="1"/>
<rect x="946.2" y="60.2" width="4.1" height="8.9" fill="#c62828"/>
<rect x="946.2" y="524.1" width="4.1" height="7.9" fill="#c62828" opacity="0.55"/>
<line x1="954.8" y1="60.2" x2="954.8" y2="84.6" stroke="#c62828" stroke-width="1"/>
<rect x="952.8" y="66.8" width="4.1" height="6.7" fill="#c62828"/>
<rect x="952.8" y="517.0" width="4.1" height="15.0" fill="#c62828" opacity="0.55"/>
<line x1="961.5" y1="89.0" x2="961.5" y2="168.9" stroke="#c62828" stroke-width="1"/>
<rect x="959.4" y="129.0" width="4.1" height="14.4" fill="#c62828"/>
<rect x="959.4" y="451.0" width="4.1" height="81.0" fill="#c62828" opacity="0.55"/>
<line x1="968.1" y1="120.1" x2="968.1" y2="155.6" stroke="#2e7d32" stroke-width="1"/>
<rect x="966.0" y="136.5" width="4.1" height="10.2" fill="#2e7d32"/>
<rect x="966.0" y="510.7" width="4.1" height="21.3" fill="#2e7d32" opacity="0.55"/>
<line x1="974.7" y1="124.5" x2="974.7" y2="162.3" stroke="#2e7d32" stroke-width="1"/>
<rect x="972.7" y="135.9" width="4.1" height="2.0" fill="#2e7d32"/>
<rect x="972.7" y="500.3" width="4.1" height="31.7" fill="#2e7d32" opacity="0.55"/>
<line x1="981.3" y1="135.6" x2="981.3" y2="168.9" stroke="#c62828" stroke-width="1"/>
<rect x="979.3" y="140.1" width="4.1" height="4.4" fill="#c62828"/>
<rect x="979.3" y="508.2" width="4.1" height="23.8" fill="#c62828" opacity="0.55"/>
<line x1="988.0" y1="139.1" x2="988.0" y2="157.8" stroke="#c62828" stroke-width="1"/>
<rect x="985.9" y="144.5" width="4.1" height="11.1" fill="#c62828"/>
<rect x="985.9" y="528.3" width="4.1" height="3.7" fill="#c62828" opacity="0.55"/>
<line x1="994.6" y1="133.4" x2="994.6" y2="157.8" stroke="#2e7d32" stroke-width="1"/>
<rect x="992.5" y="140.1" width="4.1" height="17.8" fill="#2e7d32"/>
<rect x="992.5" y="522.3" width="4.1" height="9.7" fill="#2e7d32" opacity="0.55"/>
<line x1="1001.2" y1="129.0" x2="1001.2" y2="142.3" stroke="#2e7d32" stroke-width="1"/>
<rect x="999.2" y="131.2" width="4.1" height="11.0" fill="#2e7d32"/>
<rect x="999.2" y="523.9" width="4.1" height="8.1" fill="#2e7d32" opacity="0.55"/>
<line x1="1007.8" y1="129.0" x2="1007.8" y2="135.6" stroke="#2e7d32" stroke-width="1"/>
<rect x="1005.8" y="131.2" width="4.1" height="4.2" fill="#2e7d32"/>
<rect x="1005.8" y="527.6" width="4.1" height="4.4" fill="#2e7d32" opacity="0.55"/>
<line x1="1014.5" y1="117.9" x2="1014.5" y2="135.6" stroke="#c62828" stroke-width="1"/>
<rect x="1012.4" y="129.0" width="4.1" height="6.7" fill="#c62828"/>
<rect x="1012.4" y="515.7" width="4.1" height="16.3" fill="#c62828" opacity="0.55"/>
<line x1="1021.1" y1="133.4" x2="1021.1" y2="146.7" stroke="#2e7d32" stroke-width="1"/>
<rect x="1019.0" y="133.4" width="4.1" height="1.0" fill="#2e7d32"/>
<rect x="1019.0" y="522.5" width="4.1" height="9.5" fill="#2e7d32" opacity="0.55"/>
<line x1="1027.7" y1="126.8" x2="1027.7" y2="137.9" stroke="#2e7d32" stroke-width="1"/>
<rect x="1025.6" y="131.2" width="4.1" height="2.2" fill="#2e7d32"/>
<rect x="1025.6" y="525.9" width="4.1" height="6.1" fill="#2e7d32" opacity="0.55"/>
<line x1="1034.3" y1="129.0" x2="1034.3" y2="137.9" stroke="#c62828" stroke-width="1"/>
<rect x="1032.3" y="129.0" width="4.1" height="8.8" fill="#c62828"/>
<rect x="1032.3" y="527.2" width="4.1" height="4.8" fill="#c62828" opacity="0.55"/>
<line x1="1040.9" y1="135.6" x2="1040.9" y2="137.9" stroke="#2e7d32" stroke-width="1"/>
<rect x="1038.9" y="135.6" width="4.1" height="2.2" fill="#2e7d32"/>
<rect x="1038.9" y="528.4" width="4.1" height="3.6" fill="#2e7d32" opacity="0.55"/>
<line x1="1047.6" y1="135.6" x2="1047.6" y2="137.9" stroke="#c62828" stroke-width="1"/>
<rect x="1045.5" y="137.7" width="4.1" height="1.0" fill="#c62828"/>
<rect x="1045.5" y="529.4" width="4.1" height="2.6" fill="#c62828" opacity="0.55"/>
<line x1="1054.2" y1="135.6" x2="1054.2" y2="137.9" stroke="#2e7d32" stroke-width="1"/>
<rect x="1052.1" y="135.7" width="4.1" height="2.1" fill="#2e7d32"/>
<rect x="1052.1" y="529.6" width="4.1" height="2.4" fill="#2e7d32" opacity="0.55"/>
<line x1="1060.8" y1="133.5" x2="1060.8" y2="137.9" stroke="#2e7d32" stroke-width="1"/>
<rect x="1058.8" y="135.5" width="4.1" height="2.3" fill="#2e7d32"/>
<rect x="1058.8" y="530.6" width="4.1" height="1.4" fill="#2e7d32" opacity="0.55"/>
<line x1="1067.4" y1="133.4" x2="1067.4" y2="137.6" stroke="#2e7d32" stroke-width="1"/>
<rect x="1065.4" y="133.4" width="4.1" height="4.2" fill="#2e7d32"/>
<rect x="1065.4" y="532.0" width="4.1" height="0.0" fill="#2e7d32" opacity="0.55"/>
<line x1="1074.1" y1="133.4" x2="1074.1" y2="137.9" stroke="#c62828" stroke-width="1"/>
<rect x="1072.0" y="135.6" width="4.1" height="2.2" fill="#c62828"/>
<rect x="1072.0" y="532.0" width="4.1" height="0.0" fill="#c62828" opacity="0.55"/>
<line x1="1080.7" y1="135.5" x2="1080.7" y2="135.5" stroke="#2e7d32" stroke-width="1"/>
<rect x="1078.6" y="135.5" width="4.1" height="1.0" fill="#2e7d32"/>
<rect x="1078.6" y="532.0" width="4.1" height="0.0" fill="#2e7d32" opacity="0.55"/>
<line x1="64" y1="532" x2="1084" y2="532" stroke="#ccc"/>
<text x="68" y="421" font-size="9" fill="#555" text-anchor="start">cap 0.2M; max 0.6M</text>
<line x1="67.3" y1="532" x2="67.3" y2="536" stroke="#999"/>
<text x="67.3" y="547.0" font-size="9" fill="#666" text-anchor="middle">09/02 04:00</text>
<line x1="232.9" y1="532" x2="232.9" y2="536" stroke="#999"/>
<text x="232.9" y="547.0" font-size="9" fill="#666" text-anchor="middle">10:45</text>
<line x1="398.5" y1="532" x2="398.5" y2="536" stroke="#999"/>
<text x="398.5" y="547.0" font-size="9" fill="#666" text-anchor="middle">12:55</text>
<line x1="564.1" y1="532" x2="564.1" y2="536" stroke="#999"/>
<text x="564.1" y="547.0" font-size="9" fill="#666" text-anchor="middle">15:00</text>
<line x1="729.6" y1="532" x2="729.6" y2="536" stroke="#999"/>
<text x="729.6" y="547.0" font-size="9" fill="#666" text-anchor="middle">17:05</text>
<line x1="895.2" y1="532" x2="895.2" y2="536" stroke="#999"/>
<text x="895.2" y="547.0" font-size="9" fill="#666" text-anchor="middle">19:10</text>
<line x1="1060.8" y1="532" x2="1060.8" y2="536" stroke="#999"/>
<text x="1060.8" y="547.0" font-size="9" fill="#666" text-anchor="middle">09/03 05:15</text>
<line x1="64" y1="84.6" x2="1084" y2="84.6" stroke="#1565c0" stroke-width="1.2" stroke-dasharray="5,4" opacity="0.9"/>
<polygon points="723.0,82.6 717.0,74.2 729.0,74.2" fill="#1565c0"/>
<text x="723.0" y="70.2" font-size="10" font-weight="bold" fill="#1565c0" text-anchor="middle">ENTRY $5.15</text>
<text x="64" y="22" font-size="15" font-weight="bold" fill="#1a1a1a">TLYS - Tilly's, Inc.</text>
<text x="1084" y="22" font-size="11" fill="#666" text-anchor="end">last $4.92 (+16.3% over window)</text>
<rect x="934" y="28" width="10" height="8" fill="#e8f0fe"/>
<text x="948" y="35" font-size="9" fill="#666">premarket</text>
<rect x="1006" y="28" width="10" height="8" fill="#fff4e0"/>
<text x="1020" y="35" font-size="9" fill="#666">after-hrs</text>
<rect x="852" y="28" width="10" height="8" fill="#1565c0"/>
<text x="866" y="35" font-size="9" fill="#666">entry</text>
</svg>