<svg xmlns="http://www.w3.org/2000/svg" width="1100" height="560" viewBox="0 0 1100 560" font-family="Arial,Helvetica,sans-serif">
<rect width="1100" height="560" fill="white"/>
<rect x="306.9" y="36" width="534.3" height="496.0" fill="#fff4e0"/>
<rect x="841.1" y="36" width="242.9" height="496.0" fill="#e8f0fe"/>
<line x1="64" y1="404.0" x2="1084" y2="404.0" stroke="#e6e6e6"/>
<text x="58" y="407.0" font-size="10" fill="#666" text-anchor="end">$0.57</text>
<line x1="64" y1="312.0" x2="1084" y2="312.0" stroke="#e6e6e6"/>
<text x="58" y="315.0" font-size="10" fill="#666" text-anchor="end">$0.81</text>
<line x1="64" y1="220.0" x2="1084" y2="220.0" stroke="#e6e6e6"/>
<text x="58" y="223.0" font-size="10" fill="#666" text-anchor="end">$1.05</text>
<line x1="64" y1="128.0" x2="1084" y2="128.0" stroke="#e6e6e6"/>
<text x="58" y="131.0" font-size="10" fill="#666" text-anchor="end">$1.28</text>
<line x1="64" y1="36.0" x2="1084" y2="36.0" stroke="#e6e6e6"/>
<text x="58" y="39.0" font-size="10" fill="#666" text-anchor="end">$1.52</text>
<line x1="70.1" y1="384.3" x2="70.1" y2="384.3" stroke="#2e7d32" stroke-width="1"/>
<rect x="66.3" y="384.3" width="7.5" height="1.0" fill="#2e7d32"/>
<rect x="66.3" y="532.0" width="7.5" height="0.0" fill="#2e7d32" opacity="0.55"/>
<line x1="82.2" y1="370.8" x2="82.2" y2="370.8" stroke="#2e7d32" stroke-width="1"/>
<rect x="78.5" y="370.8" width="7.5" height="1.0" fill="#2e7d32"/>
<rect x="78.5" y="532.0" width="7.5" height="0.0" fill="#2e7d32" opacity="0.55"/>
<line x1="94.4" y1="377.6" x2="94.4" y2="377.6" stroke="#2e7d32" stroke-width="1"/>
<rect x="90.6" y="377.6" width="7.5" height="1.0" fill="#2e7d32"/>
<rect x="90.6" y="531.9" width="7.5" height="0.1" fill="#2e7d32" opacity="0.55"/>
<line x1="106.5" y1="370.8" x2="106.5" y2="372.3" stroke="#2e7d32" stroke-width="1"/>
<rect x="102.7" y="371.5" width="7.5" height="1.0" fill="#2e7d32"/>
<rect x="102.7" y="532.0" width="7.5" height="0.0" fill="#2e7d32" opacity="0.55"/>
<line x1="118.6" y1="370.8" x2="118.6" y2="377.6" stroke="#c62828" stroke-width="1"/>
<rect x="114.9" y="370.8" width="7.5" height="6.8" fill="#c62828"/>
<rect x="114.9" y="531.9" width="7.5" height="0.1" fill="#c62828" opacity="0.55"/>
<line x1="130.8" y1="384.3" x2="130.8" y2="384.3" stroke="#2e7d32" stroke-width="1"/>
<rect x="127.0" y="384.3" width="7.5" height="1.0" fill="#2e7d32"/>
<rect x="127.0" y="532.0" width="7.5" height="0.0" fill="#2e7d32" opacity="0.55"/>
<line x1="142.9" y1="370.8" x2="142.9" y2="370.8" stroke="#2e7d32" stroke-width="1"/>
<rect x="139.2" y="370.8" width="7.5" height="1.0" fill="#2e7d32"/>
<rect x="139.2" y="532.0" width="7.5" height="0.0" fill="#2e7d32" opacity="0.55"/>
<line x1="155.1" y1="370.8" x2="155.1" y2="370.8" stroke="#2e7d32" stroke-width="1"/>
<rect x="151.3" y="370.8" width="7.5" height="1.0" fill="#2e7d32"/>
<rect x="151.3" y="532.0" width="7.5" height="0.0" fill="#2e7d32" opacity="0.55"/>
<line x1="167.2" y1="377.5" x2="167.2" y2="377.5" stroke="#2e7d32" stroke-width="1"/>
<rect x="163.5" y="377.5" width="7.5" height="1.0" fill="#2e7d32"/>
<rect x="163.5" y="531.8" width="7.5" height="0.2" fill="#2e7d32" opacity="0.55"/>
<line x1="179.4" y1="377.5" x2="179.4" y2="377.5" stroke="#2e7d32" stroke-width="1"/>
<rect x="175.6" y="377.5" width="7.5" height="1.0" fill="#2e7d32"/>
<rect x="175.6" y="531.9" width="7.5" height="0.1" fill="#2e7d32" opacity="0.55"/>
<line x1="191.5" y1="370.8" x2="191.5" y2="370.8" stroke="#2e7d32" stroke-width="1"/>
<rect x="187.7" y="370.8" width="7.5" height="1.0" fill="#2e7d32"/>
<rect x="187.7" y="532.0" width="7.5" height="0.0" fill="#2e7d32" opacity="0.55"/>
<line x1="203.6" y1="371.2" x2="203.6" y2="371.2" stroke="#2e7d32" stroke-width="1"/>
<rect x="199.9" y="371.2" width="7.5" height="1.0" fill="#2e7d32"/>
<rect x="199.9" y="532.0" width="7.5" height="0.0" fill="#2e7d32" opacity="0.55"/>
<line x1="215.8" y1="373.2" x2="215.8" y2="373.2" stroke="#2e7d32" stroke-width="1"/>
<rect x="212.0" y="373.2" width="7.5" height="1.0" fill="#2e7d32"/>
<rect x="212.0" y="531.9" width="7.5" height="0.1" fill="#2e7d32" opacity="0.55"/>
<line x1="227.9" y1="376.2" x2="227.9" y2="376.2" stroke="#2e7d32" stroke-width="1"/>
<rect x="224.2" y="376.2" width="7.5" height="1.0" fill="#2e7d32"/>
<rect x="224.2" y="532.0" width="7.5" height="0.0" fill="#2e7d32" opacity="0.55"/>
<line x1="240.1" y1="375.0" x2="240.1" y2="376.2" stroke="#2e7d32" stroke-width="1"/>
<rect x="236.3" y="376.2" width="7.5" height="1.0" fill="#2e7d32"/>
<rect x="236.3" y="532.0" width="7.5" height="0.0" fill="#2e7d32" opacity="0.55"/>
<line x1="252.2" y1="375.0" x2="252.2" y2="376.3" stroke="#c62828" stroke-width="1"/>
<rect x="248.4" y="375.0" width="7.5" height="1.3" fill="#c62828"/>
<rect x="248.4" y="531.9" width="7.5" height="0.1" fill="#c62828" opacity="0.55"/>
<line x1="264.4" y1="375.3" x2="264.4" y2="376.3" stroke="#c62828" stroke-width="1"/>
<rect x="260.6" y="375.3" width="7.5" height="1.0" fill="#c62828"/>
<rect x="260.6" y="532.0" width="7.5" height="0.0" fill="#c62828" opacity="0.55"/>
<line x1="276.5" y1="375.1" x2="276.5" y2="375.1" stroke="#2e7d32" stroke-width="1"/>
<rect x="272.7" y="375.1" width="7.5" height="1.0" fill="#2e7d32"/>
<rect x="272.7" y="531.8" width="7.5" height="0.2" fill="#2e7d32" opacity="0.55"/>
<line x1="288.6" y1="377.5" x2="288.6" y2="377.5" stroke="#2e7d32" stroke-width="1"/>
<rect x="284.9" y="377.5" width="7.5" height="1.0" fill="#2e7d32"/>
<rect x="284.9" y="532.0" width="7.5" height="0.0" fill="#2e7d32" opacity="0.55"/>
<line x1="300.8" y1="378.4" x2="300.8" y2="378.4" stroke="#2e7d32" stroke-width="1"/>
<rect x="297.0" y="378.4" width="7.5" height="1.0" fill="#2e7d32"/>
<rect x="297.0" y="532.0" width="7.5" height="0.0" fill="#2e7d32" opacity="0.55"/>
<line x1="312.9" y1="384.2" x2="312.9" y2="384.2" stroke="#2e7d32" stroke-width="1"/>
<rect x="309.2" y="384.2" width="7.5" height="1.0" fill="#2e7d32"/>
<rect x="309.2" y="531.9" width="7.5" height="0.1" fill="#2e7d32" opacity="0.55"/>
<line x1="325.1" y1="384.2" x2="325.1" y2="384.2" stroke="#2e7d32" stroke-width="1"/>
<rect x="321.3" y="384.2" width="7.5" height="1.0" fill="#2e7d32"/>
<rect x="321.3" y="532.0" width="7.5" height="0.0" fill="#2e7d32" opacity="0.55"/>
<line x1="337.2" y1="334.0" x2="337.2" y2="371.1" stroke="#c62828" stroke-width="1"/>
<rect x="333.4" y="365.5" width="7.5" height="5.5" fill="#c62828"/>
<rect x="333.4" y="529.6" width="7.5" height="2.4" fill="#c62828" opacity="0.55"/>
<line x1="349.4" y1="307.0" x2="349.4" y2="368.9" stroke="#2e7d32" stroke-width="1"/>
<rect x="345.6" y="326.7" width="7.5" height="30.5" fill="#2e7d32"/>
<rect x="345.6" y="516.0" width="7.5" height="16.0" fill="#2e7d32" opacity="0.55"/>
<line x1="361.5" y1="253.2" x2="361.5" y2="330.2" stroke="#2e7d32" stroke-width="1"/>
<rect x="357.7" y="273.4" width="7.5" height="55.9" fill="#2e7d32"/>
<rect x="357.7" y="471.0" width="7.5" height="61.0" fill="#2e7d32" opacity="0.55"/>
<line x1="373.6" y1="160.1" x2="373.6" y2="290.1" stroke="#2e7d32" stroke-width="1"/>
<rect x="369.9" y="191.0" width="7.5" height="84.2" fill="#2e7d32"/>
<rect x="369.9" y="417.3" width="7.5" height="114.7" fill="#2e7d32" opacity="0.55"/>
<line x1="385.8" y1="125.3" x2="385.8" y2="206.5" stroke="#2e7d32" stroke-width="1"/>
<rect x="382.0" y="136.9" width="7.5" height="50.3" fill="#2e7d32"/>
<rect x="382.0" y="412.0" width="7.5" height="120.0" fill="#2e7d32" opacity="0.55"/>
<line x1="397.9" y1="113.7" x2="397.9" y2="156.2" stroke="#c62828" stroke-width="1"/>
<rect x="394.2" y="137.5" width="7.5" height="11.0" fill="#c62828"/>
<rect x="394.2" y="447.3" width="7.5" height="84.7" fill="#c62828" opacity="0.55"/>
<line x1="410.1" y1="140.8" x2="410.1" y2="179.4" stroke="#c62828" stroke-width="1"/>
<rect x="406.3" y="148.4" width="7.5" height="19.3" fill="#c62828"/>
<rect x="406.3" y="480.9" width="7.5" height="51.1" fill="#c62828" opacity="0.55"/>
<line x1="422.2" y1="156.2" x2="422.2" y2="183.3" stroke="#2e7d32" stroke-width="1"/>
<rect x="418.4" y="163.8" width="7.5" height="4.0" fill="#2e7d32"/>
<rect x="418.4" y="497.4" width="7.5" height="34.6" fill="#2e7d32" opacity="0.55"/>
<line x1="434.4" y1="59.6" x2="434.4" y2="167.8" stroke="#2e7d32" stroke-width="1"/>
<rect x="430.6" y="82.8" width="7.5" height="77.7" fill="#2e7d32"/>
<rect x="430.6" y="419.8" width="7.5" height="112.2" fill="#2e7d32" opacity="0.55"/>
<line x1="446.5" y1="55.7" x2="446.5" y2="109.8" stroke="#c62828" stroke-width="1"/>
<rect x="442.7" y="78.9" width="7.5" height="11.6" fill="#c62828"/>
<rect x="442.7" y="467.3" width="7.5" height="64.7" fill="#c62828" opacity="0.55"/>
<line x1="458.6" y1="63.4" x2="458.6" y2="106.0" stroke="#c62828" stroke-width="1"/>
<rect x="454.9" y="90.5" width="7.5" height="3.9" fill="#c62828"/>
<rect x="454.9" y="497.0" width="7.5" height="35.0" fill="#c62828" opacity="0.55"/>
<line x1="470.8" y1="75.0" x2="470.8" y2="121.4" stroke="#c62828" stroke-width="1"/>
<rect x="467.0" y="94.3" width="7.5" height="7.8" fill="#c62828"/>
<rect x="467.0" y="504.7" width="7.5" height="27.3" fill="#c62828" opacity="0.55"/>
<line x1="482.9" y1="90.5" x2="482.9" y2="133.0" stroke="#c62828" stroke-width="1"/>
<rect x="479.2" y="102.0" width="7.5" height="22.1" fill="#c62828"/>
<rect x="479.2" y="513.8" width="7.5" height="18.2" fill="#c62828" opacity="0.55"/>
<line x1="495.1" y1="121.4" x2="495.1" y2="160.1" stroke="#c62828" stroke-width="1"/>
<rect x="491.3" y="124.9" width="7.5" height="15.8" fill="#c62828"/>
<rect x="491.3" y="507.0" width="7.5" height="25.0" fill="#c62828" opacity="0.55"/>
<line x1="507.2" y1="136.9" x2="507.2" y2="160.1" stroke="#c62828" stroke-width="1"/>
<rect x="503.4" y="140.8" width="7.5" height="18.9" fill="#c62828"/>
<rect x="503.4" y="520.8" width="7.5" height="11.2" fill="#c62828" opacity="0.55"/>
<line x1="519.4" y1="140.8" x2="519.4" y2="160.1" stroke="#2e7d32" stroke-width="1"/>
<rect x="515.6" y="148.4" width="7.5" height="7.8" fill="#2e7d32"/>
<rect x="515.6" y="522.7" width="7.5" height="9.3" fill="#2e7d32" opacity="0.55"/>
<line x1="531.5" y1="117.6" x2="531.5" y2="179.4" stroke="#c62828" stroke-width="1"/>
<rect x="527.7" y="148.2" width="7.5" height="19.5" fill="#c62828"/>
<rect x="527.7" y="506.9" width="7.5" height="25.1" fill="#c62828" opacity="0.55"/>
<line x1="543.6" y1="156.3" x2="543.6" y2="175.5" stroke="#2e7d32" stroke-width="1"/>
<rect x="539.9" y="163.9" width="7.5" height="3.4" fill="#2e7d32"/>
<rect x="539.9" y="521.3" width="7.5" height="10.7" fill="#2e7d32" opacity="0.55"/>
<line x1="555.8" y1="113.7" x2="555.8" y2="160.1" stroke="#2e7d32" stroke-width="1"/>
<rect x="552.0" y="140.8" width="7.5" height="19.3" fill="#2e7d32"/>
<rect x="552.0" y="511.8" width="7.5" height="20.2" fill="#2e7d32" opacity="0.55"/>
<line x1="567.9" y1="113.7" x2="567.9" y2="144.6" stroke="#2e7d32" stroke-width="1"/>
<rect x="564.2" y="140.8" width="7.5" height="1.0" fill="#2e7d32"/>
<rect x="564.2" y="522.1" width="7.5" height="9.9" fill="#2e7d32" opacity="0.55"/>
<line x1="580.1" y1="133.0" x2="580.1" y2="160.1" stroke="#c62828" stroke-width="1"/>
<rect x="576.3" y="144.5" width="7.5" height="11.7" fill="#c62828"/>
<rect x="576.3" y="524.1" width="7.5" height="7.9" fill="#c62828" opacity="0.55"/>
<line x1="592.2" y1="133.0" x2="592.2" y2="156.2" stroke="#2e7d32" stroke-width="1"/>
<rect x="588.4" y="140.8" width="7.5" height="11.6" fill="#2e7d32"/>
<rect x="588.4" y="526.6" width="7.5" height="5.4" fill="#2e7d32" opacity="0.55"/>
<line x1="604.4" y1="133.0" x2="604.4" y2="156.2" stroke="#c62828" stroke-width="1"/>
<rect x="600.6" y="144.6" width="7.5" height="3.9" fill="#c62828"/>
<rect x="600.6" y="527.2" width="7.5" height="4.8" fill="#c62828" opacity="0.55"/>
<line x1="616.5" y1="148.4" x2="616.5" y2="156.2" stroke="#c62828" stroke-width="1"/>
<rect x="612.7" y="148.4" width="7.5" height="7.8" fill="#c62828"/>
<rect x="612.7" y="528.8" width="7.5" height="3.2" fill="#c62828" opacity="0.55"/>
<line x1="628.6" y1="125.3" x2="628.6" y2="167.8" stroke="#2e7d32" stroke-width="1"/>
<rect x="624.9" y="125.3" width="7.5" height="30.9" fill="#2e7d32"/>
<rect x="624.9" y="525.6" width="7.5" height="6.4" fill="#2e7d32" opacity="0.55"/>
<line x1="640.8" y1="121.4" x2="640.8" y2="140.8" stroke="#c62828" stroke-width="1"/>
<rect x="637.0" y="125.3" width="7.5" height="11.9" fill="#c62828"/>
<rect x="637.0" y="523.1" width="7.5" height="8.9" fill="#c62828" opacity="0.55"/>
<line x1="652.9" y1="125.3" x2="652.9" y2="140.8" stroke="#2e7d32" stroke-width="1"/>
<rect x="649.2" y="133.0" width="7.5" height="3.9" fill="#2e7d32"/>
<rect x="649.2" y="527.4" width="7.5" height="4.6" fill="#2e7d32" opacity="0.55"/>
<line x1="665.1" y1="125.3" x2="665.1" y2="136.9" stroke="#c62828" stroke-width="1"/>
<rect x="661.3" y="129.2" width="7.5" height="3.8" fill="#c62828"/>
<rect x="661.3" y="528.9" width="7.5" height="3.1" fill="#c62828" opacity="0.55"/>
<line x1="677.2" y1="133.0" x2="677.2" y2="144.6" stroke="#c62828" stroke-width="1"/>
<rect x="673.4" y="136.9" width="7.5" height="7.8" fill="#c62828"/>
<rect x="673.4" y="530.0" width="7.5" height="2.0" fill="#c62828" opacity="0.55"/>
<line x1="689.4" y1="117.6" x2="689.4" y2="148.5" stroke="#2e7d32" stroke-width="1"/>
<rect x="685.6" y="117.6" width="7.5" height="23.2" fill="#2e7d32"/>
<rect x="685.6" y="528.6" width="7.5" height="3.4" fill="#2e7d32" opacity="0.55"/>
<line x1="701.5" y1="117.6" x2="701.5" y2="144.6" stroke="#c62828" stroke-width="1"/>
<rect x="697.7" y="117.6" width="7.5" height="15.4" fill="#c62828"/>
<rect x="697.7" y="527.4" width="7.5" height="4.6" fill="#c62828" opacity="0.55"/>
<line x1="713.6" y1="133.0" x2="713.6" y2="140.8" stroke="#c62828" stroke-width="1"/>
<rect x="709.9" y="136.9" width="7.5" height="1.0" fill="#c62828"/>
<rect x="709.9" y="530.5" width="7.5" height="1.5" fill="#c62828" opacity="0.55"/>
<line x1="725.8" y1="129.2" x2="725.8" y2="140.8" stroke="#2e7d32" stroke-width="1"/>
<rect x="722.0" y="133.0" width="7.5" height="3.9" fill="#2e7d32"/>
<rect x="722.0" y="530.3" width="7.5" height="1.7" fill="#2e7d32" opacity="0.55"/>
<line x1="737.9" y1="129.2" x2="737.9" y2="144.7" stroke="#c62828" stroke-width="1"/>
<rect x="734.2" y="133.0" width="7.5" height="7.9" fill="#c62828"/>
<rect x="734.2" y="529.4" width="7.5" height="2.6" fill="#c62828" opacity="0.55"/>
<line x1="750.1" y1="136.9" x2="750.1" y2="144.6" stroke="#2e7d32" stroke-width="1"/>
<rect x="746.3" y="140.7" width="7.5" height="3.9" fill="#2e7d32"/>
<rect x="746.3" y="530.8" width="7.5" height="1.2" fill="#2e7d32" opacity="0.55"/>
<line x1="762.2" y1="129.2" x2="762.2" y2="140.8" stroke="#2e7d32" stroke-width="1"/>
<rect x="758.4" y="129.5" width="7.5" height="11.2" fill="#2e7d32"/>
<rect x="758.4" y="530.4" width="7.5" height="1.6" fill="#2e7d32" opacity="0.55"/>
<line x1="774.4" y1="121.4" x2="774.4" y2="133.0" stroke="#2e7d32" stroke-width="1"/>
<rect x="770.6" y="125.2" width="7.5" height="4.1" fill="#2e7d32"/>
<rect x="770.6" y="529.0" width="7.5" height="3.0" fill="#2e7d32" opacity="0.55"/>
<line x1="786.5" y1="121.4" x2="786.5" y2="133.0" stroke="#c62828" stroke-width="1"/>
<rect x="782.7" y="125.3" width="7.5" height="7.3" fill="#c62828"/>
<rect x="782.7" y="515.2" width="7.5" height="16.8" fill="#c62828" opacity="0.55"/>
<line x1="798.6" y1="109.8" x2="798.6" y2="133.0" stroke="#2e7d32" stroke-width="1"/>
<rect x="794.9" y="113.8" width="7.5" height="15.4" fill="#2e7d32"/>
<rect x="794.9" y="526.1" width="7.5" height="5.9" fill="#2e7d32" opacity="0.55"/>
<line x1="810.8" y1="86.6" x2="810.8" y2="117.6" stroke="#2e7d32" stroke-width="1"/>
<rect x="807.0" y="102.1" width="7.5" height="11.6" fill="#2e7d32"/>
<rect x="807.0" y="521.5" width="7.5" height="10.5" fill="#2e7d32" opacity="0.55"/>
<line x1="822.9" y1="86.6" x2="822.9" y2="117.6" stroke="#2e7d32" stroke-width="1"/>
<rect x="819.2" y="86.8" width="7.5" height="15.4" fill="#2e7d32"/>
<rect x="819.2" y="525.6" width="7.5" height="6.4" fill="#2e7d32" opacity="0.55"/>
<line x1="835.1" y1="86.6" x2="835.1" y2="113.7" stroke="#c62828" stroke-width="1"/>
<rect x="831.3" y="86.6" width="7.5" height="15.5" fill="#c62828"/>
<rect x="831.3" y="523.9" width="7.5" height="8.1" fill="#c62828" opacity="0.55"/>
<line x1="847.2" y1="67.3" x2="847.2" y2="179.4" stroke="#c62828" stroke-width="1"/>
<rect x="843.4" y="106.0" width="7.5" height="73.4" fill="#c62828"/>
<rect x="843.4" y="475.8" width="7.5" height="56.2" fill="#c62828" opacity="0.55"/>
<line x1="859.4" y1="67.3" x2="859.4" y2="218.1" stroke="#c62828" stroke-width="1"/>
<rect x="855.6" y="179.3" width="7.5" height="15.4" fill="#c62828"/>
<rect x="855.6" y="496.4" width="7.5" height="35.6" fill="#c62828" opacity="0.55"/>
<line x1="871.5" y1="191.0" x2="871.5" y2="202.6" stroke="#c62828" stroke-width="1"/>
<rect x="867.7" y="191.1" width="7.5" height="11.4" fill="#c62828"/>
<rect x="867.7" y="521.0" width="7.5" height="11.0" fill="#c62828" opacity="0.55"/>
<line x1="883.6" y1="183.3" x2="883.6" y2="202.6" stroke="#2e7d32" stroke-width="1"/>
<rect x="879.9" y="198.7" width="7.5" height="3.9" fill="#2e7d32"/>
<rect x="879.9" y="519.7" width="7.5" height="12.3" fill="#2e7d32" opacity="0.55"/>
<line x1="895.8" y1="171.7" x2="895.8" y2="198.7" stroke="#2e7d32" stroke-width="1"/>
<rect x="892.0" y="175.5" width="7.5" height="19.4" fill="#2e7d32"/>
<rect x="892.0" y="521.6" width="7.5" height="10.4" fill="#2e7d32" opacity="0.55"/>
<line x1="907.9" y1="171.7" x2="907.9" y2="198.7" stroke="#c62828" stroke-width="1"/>
<rect x="904.2" y="172.1" width="7.5" height="26.6" fill="#c62828"/>
<rect x="904.2" y="518.4" width="7.5" height="13.6" fill="#c62828" opacity="0.55"/>
<line x1="920.1" y1="179.5" x2="920.1" y2="198.7" stroke="#2e7d32" stroke-width="1"/>
<rect x="916.3" y="179.5" width="7.5" height="15.5" fill="#2e7d32"/>
<rect x="916.3" y="526.7" width="7.5" height="5.3" fill="#2e7d32" opacity="0.55"/>
<line x1="932.2" y1="175.5" x2="932.2" y2="198.7" stroke="#c62828" stroke-width="1"/>
<rect x="928.4" y="179.5" width="7.5" height="7.7" fill="#c62828"/>
<rect x="928.4" y="525.5" width="7.5" height="6.5" fill="#c62828" opacity="0.55"/>
<line x1="944.4" y1="179.4" x2="944.4" y2="198.7" stroke="#c62828" stroke-width="1"/>
<rect x="940.6" y="183.3" width="7.5" height="3.9" fill="#c62828"/>
<rect x="940.6" y="526.8" width="7.5" height="5.2" fill="#c62828" opacity="0.55"/>
<line x1="956.5" y1="187.1" x2="956.5" y2="198.7" stroke="#c62828" stroke-width="1"/>
<rect x="952.7" y="190.9" width="7.5" height="4.0" fill="#c62828"/>
<rect x="952.7" y="527.8" width="7.5" height="4.2" fill="#c62828" opacity="0.55"/>
<line x1="968.6" y1="191.0" x2="968.6" y2="194.9" stroke="#2e7d32" stroke-width="1"/>
<rect x="964.9" y="191.1" width="7.5" height="3.8" fill="#2e7d32"/>
<rect x="964.9" y="530.0" width="7.5" height="2.0" fill="#2e7d32" opacity="0.55"/>
<line x1="980.8" y1="183.3" x2="980.8" y2="198.7" stroke="#2e7d32" stroke-width="1"/>
<rect x="977.0" y="190.9" width="7.5" height="3.5" fill="#2e7d32"/>
<rect x="977.0" y="528.6" width="7.5" height="3.4" fill="#2e7d32" opacity="0.55"/>
<line x1="992.9" y1="187.1" x2="992.9" y2="198.7" stroke="#c62828" stroke-width="1"/>
<rect x="989.2" y="191.0" width="7.5" height="4.0" fill="#c62828"/>
<rect x="989.2" y="527.8" width="7.5" height="4.2" fill="#c62828" opacity="0.55"/>
<line x1="1005.1" y1="194.9" x2="1005.1" y2="249.0" stroke="#c62828" stroke-width="1"/>
<rect x="1001.3" y="195.0" width="7.5" height="43.6" fill="#c62828"/>
<rect x="1001.3" y="508.8" width="7.5" height="23.2" fill="#c62828" opacity="0.55"/>
<line x1="1017.2" y1="238.6" x2="1017.2" y2="262.6" stroke="#c62828" stroke-width="1"/>
<rect x="1013.4" y="238.9" width="7.5" height="12.0" fill="#c62828"/>
<rect x="1013.4" y="512.6" width="7.5" height="19.4" fill="#c62828" opacity="0.55"/>
<line x1="1029.4" y1="242.4" x2="1029.4" y2="258.0" stroke="#2e7d32" stroke-width="1"/>
<rect x="1025.6" y="243.6" width="7.5" height="7.3" fill="#2e7d32"/>
<rect x="1025.6" y="520.8" width="7.5" height="11.2" fill="#2e7d32" opacity="0.55"/>
<line x1="1041.5" y1="241.6" x2="1041.5" y2="251.9" stroke="#c62828" stroke-width="1"/>
<rect x="1037.7" y="243.6" width="7.5" height="1.0" fill="#c62828"/>
<rect x="1037.7" y="532.0" width="7.5" height="0.0" fill="#c62828" opacity="0.55"/>
<line x1="1053.6" y1="241.3" x2="1053.6" y2="249.0" stroke="#2e7d32" stroke-width="1"/>
<rect x="1049.9" y="243.2" width="7.5" height="1.0" fill="#2e7d32"/>
<rect x="1049.9" y="532.0" width="7.5" height="0.0" fill="#2e7d32" opacity="0.55"/>
<line x1="1065.8" y1="245.1" x2="1065.8" y2="252.9" stroke="#c62828" stroke-width="1"/>
<rect x="1062.0" y="245.1" width="7.5" height="3.9" fill="#c62828"/>
<rect x="1062.0" y="532.0" width="7.5" height="0.0" fill="#c62828" opacity="0.55"/>
<line x1="1077.9" y1="251.2" x2="1077.9" y2="251.2" stroke="#2e7d32" stroke-width="1"/>
<rect x="1074.2" y="251.2" width="7.5" height="1.0" fill="#2e7d32"/>
<rect x="1074.2" y="532.0" width="7.5" height="0.0" fill="#2e7d32" opacity="0.55"/>
<line x1="64" y1="532" x2="1084" y2="532" stroke="#ccc"/>
<text x="68" y="421" font-size="9" fill="#555" text-anchor="start">3.8M</text>
<line x1="70.1" y1="532" x2="70.1" y2="536" stroke="#999"/>
<text x="70.1" y="547.0" font-size="9" fill="#666" text-anchor="middle">08/19 09:30</text>
<line x1="240.1" y1="532" x2="240.1" y2="536" stroke="#999"/>
<text x="240.1" y="547.0" font-size="9" fill="#666" text-anchor="middle">14:45</text>
<line x1="410.1" y1="532" x2="410.1" y2="536" stroke="#999"/>
<text x="410.1" y="547.0" font-size="9" fill="#666" text-anchor="middle">17:00</text>
<line x1="580.1" y1="532" x2="580.1" y2="536" stroke="#999"/>
<text x="580.1" y="547.0" font-size="9" fill="#666" text-anchor="middle">18:10</text>
<line x1="750.1" y1="532" x2="750.1" y2="536" stroke="#999"/>
<text x="750.1" y="547.0" font-size="9" fill="#666" text-anchor="middle">19:20</text>
<line x1="920.1" y1="532" x2="920.1" y2="536" stroke="#999"/>
<text x="920.1" y="547.0" font-size="9" fill="#666" text-anchor="middle">08/20 04:30</text>
<line x1="64" y1="98.2" x2="1084" y2="98.2" stroke="#1565c0" stroke-width="1.2" stroke-dasharray="5,4" opacity="0.9"/>
<polygon points="482.9,96.2 476.9,87.8 488.9,87.8" fill="#1565c0"/>
<text x="482.9" y="83.8" font-size="10" font-weight="bold" fill="#1565c0" text-anchor="middle">ENTRY $1.36</text>
<line x1="64" y1="194.9" x2="1084" y2="194.9" stroke="#ad1457" stroke-width="1.2" stroke-dasharray="5,4" opacity="0.9"/>
<polygon points="920.1,196.9 914.1,205.3 926.1,205.3" fill="#ad1457"/>
<text x="920.1" y="215.3" font-size="10" font-weight="bold" fill="#ad1457" text-anchor="middle">EXIT $1.11</text>
<text x="64" y="22" font-size="15" font-weight="bold" fill="#1a1a1a">LOOP - Loop Industries, Inc. Common Stock</text>
<text x="1084" y="22" font-size="11" fill="#666" text-anchor="end">last $0.96 (+55.5% over window)</text>
<rect x="934" y="28" width="10" height="8" fill="#e8f0fe"/>
<text x="948" y="35" font-size="9" fill="#666">premarket</text>
<rect x="1006" y="28" width="10" height="8" fill="#fff4e0"/>
<text x="1020" y="35" font-size="9" fill="#666">after-hrs</text>
<rect x="852" y="28" width="10" height="8" fill="#1565c0"/>
<text x="866" y="35" font-size="9" fill="#666">entry</text>
<rect x="802" y="28" width="10" height="8" fill="#ad1457"/>
<text x="816" y="35" font-size="9" fill="#666">exit</text>
</svg>