<svg xmlns="http://www.w3.org/2000/svg" width="1100" height="560" viewBox="0 0 1100 560" font-family="Arial,Helvetica,sans-serif">
<rect width="1100" height="560" fill="white"/>
<rect x="574.0" y="36" width="283.3" height="496.0" fill="#fff4e0"/>
<rect x="857.3" y="36" width="226.7" height="496.0" fill="#e8f0fe"/>
<line x1="64" y1="404.0" x2="1084" y2="404.0" stroke="#e6e6e6"/>
<text x="58" y="407.0" font-size="10" fill="#666" text-anchor="end">$2.16</text>
<line x1="64" y1="312.0" x2="1084" y2="312.0" stroke="#e6e6e6"/>
<text x="58" y="315.0" font-size="10" fill="#666" text-anchor="end">$3.68</text>
<line x1="64" y1="220.0" x2="1084" y2="220.0" stroke="#e6e6e6"/>
<text x="58" y="223.0" font-size="10" fill="#666" text-anchor="end">$5.20</text>
<line x1="64" y1="128.0" x2="1084" y2="128.0" stroke="#e6e6e6"/>
<text x="58" y="131.0" font-size="10" fill="#666" text-anchor="end">$6.72</text>
<line x1="64" y1="36.0" x2="1084" y2="36.0" stroke="#e6e6e6"/>
<text x="58" y="39.0" font-size="10" fill="#666" text-anchor="end">$8.24</text>
<line x1="69.7" y1="383.4" x2="69.7" y2="384.3" stroke="#c62828" stroke-width="1"/>
<rect x="66.2" y="383.4" width="7.0" height="1.0" fill="#c62828"/>
<rect x="66.2" y="531.9" width="7.0" height="0.1" fill="#c62828" opacity="0.55"/>
<line x1="81.0" y1="379.3" x2="81.0" y2="379.3" stroke="#2e7d32" stroke-width="1"/>
<rect x="77.5" y="379.3" width="7.0" height="1.0" fill="#2e7d32"/>
<rect x="77.5" y="531.9" width="7.0" height="0.1" fill="#2e7d32" opacity="0.55"/>
<line x1="92.3" y1="377.4" x2="92.3" y2="380.4" stroke="#2e7d32" stroke-width="1"/>
<rect x="88.8" y="378.4" width="7.0" height="1.9" fill="#2e7d32"/>
<rect x="88.8" y="531.9" width="7.0" height="0.1" fill="#2e7d32" opacity="0.55"/>
<line x1="103.7" y1="377.4" x2="103.7" y2="377.4" stroke="#2e7d32" stroke-width="1"/>
<rect x="100.2" y="377.4" width="7.0" height="1.0" fill="#2e7d32"/>
<rect x="100.2" y="532.0" width="7.0" height="0.0" fill="#2e7d32" opacity="0.55"/>
<line x1="115.0" y1="373.7" x2="115.0" y2="379.2" stroke="#2e7d32" stroke-width="1"/>
<rect x="111.5" y="373.7" width="7.0" height="5.5" fill="#2e7d32"/>
<rect x="111.5" y="531.9" width="7.0" height="0.1" fill="#2e7d32" opacity="0.55"/>
<line x1="126.3" y1="371.3" x2="126.3" y2="372.5" stroke="#c62828" stroke-width="1"/>
<rect x="122.8" y="371.3" width="7.0" height="1.2" fill="#c62828"/>
<rect x="122.8" y="531.6" width="7.0" height="0.4" fill="#c62828" opacity="0.55"/>
<line x1="137.7" y1="371.3" x2="137.7" y2="371.3" stroke="#2e7d32" stroke-width="1"/>
<rect x="134.2" y="371.3" width="7.0" height="1.0" fill="#2e7d32"/>
<rect x="134.2" y="531.8" width="7.0" height="0.2" fill="#2e7d32" opacity="0.55"/>
<line x1="149.0" y1="372.1" x2="149.0" y2="372.1" stroke="#2e7d32" stroke-width="1"/>
<rect x="145.5" y="372.1" width="7.0" height="1.0" fill="#2e7d32"/>
<rect x="145.5" y="531.9" width="7.0" height="0.1" fill="#2e7d32" opacity="0.55"/>
<line x1="160.3" y1="376.1" x2="160.3" y2="382.5" stroke="#2e7d32" stroke-width="1"/>
<rect x="156.8" y="376.1" width="7.0" height="1.0" fill="#2e7d32"/>
<rect x="156.8" y="531.7" width="7.0" height="0.3" fill="#2e7d32" opacity="0.55"/>
<line x1="171.7" y1="364.9" x2="171.7" y2="369.8" stroke="#2e7d32" stroke-width="1"/>
<rect x="168.2" y="368.8" width="7.0" height="1.0" fill="#2e7d32"/>
<rect x="168.2" y="531.2" width="7.0" height="0.8" fill="#2e7d32" opacity="0.55"/>
<line x1="183.0" y1="366.2" x2="183.0" y2="366.2" stroke="#2e7d32" stroke-width="1"/>
<rect x="179.5" y="366.2" width="7.0" height="1.0" fill="#2e7d32"/>
<rect x="179.5" y="531.9" width="7.0" height="0.1" fill="#2e7d32" opacity="0.55"/>
<line x1="194.3" y1="373.7" x2="194.3" y2="373.7" stroke="#2e7d32" stroke-width="1"/>
<rect x="190.8" y="373.7" width="7.0" height="1.0" fill="#2e7d32"/>
<rect x="190.8" y="531.9" width="7.0" height="0.1" fill="#2e7d32" opacity="0.55"/>
<line x1="205.7" y1="370.1" x2="205.7" y2="371.9" stroke="#2e7d32" stroke-width="1"/>
<rect x="202.2" y="370.1" width="7.0" height="1.0" fill="#2e7d32"/>
<rect x="202.2" y="531.8" width="7.0" height="0.2" fill="#2e7d32" opacity="0.55"/>
<line x1="217.0" y1="368.5" x2="217.0" y2="368.5" stroke="#2e7d32" stroke-width="1"/>
<rect x="213.5" y="368.5" width="7.0" height="1.0" fill="#2e7d32"/>
<rect x="213.5" y="532.0" width="7.0" height="0.0" fill="#2e7d32" opacity="0.55"/>
<line x1="228.3" y1="368.3" x2="228.3" y2="368.3" stroke="#2e7d32" stroke-width="1"/>
<rect x="224.8" y="368.3" width="7.0" height="1.0" fill="#2e7d32"/>
<rect x="224.8" y="532.0" width="7.0" height="0.0" fill="#2e7d32" opacity="0.55"/>
<line x1="239.7" y1="367.8" x2="239.7" y2="373.5" stroke="#2e7d32" stroke-width="1"/>
<rect x="236.2" y="367.8" width="7.0" height="1.0" fill="#2e7d32"/>
<rect x="236.2" y="531.9" width="7.0" height="0.1" fill="#2e7d32" opacity="0.55"/>
<line x1="251.0" y1="371.3" x2="251.0" y2="372.2" stroke="#c62828" stroke-width="1"/>
<rect x="247.5" y="371.3" width="7.0" height="1.0" fill="#c62828"/>
<rect x="247.5" y="531.8" width="7.0" height="0.2" fill="#c62828" opacity="0.55"/>
<line x1="262.3" y1="362.2" x2="262.3" y2="372.5" stroke="#2e7d32" stroke-width="1"/>
<rect x="258.8" y="362.8" width="7.0" height="9.7" fill="#2e7d32"/>
<rect x="258.8" y="530.6" width="7.0" height="1.4" fill="#2e7d32" opacity="0.55"/>
<line x1="273.7" y1="362.2" x2="273.7" y2="365.5" stroke="#2e7d32" stroke-width="1"/>
<rect x="270.2" y="364.0" width="7.0" height="1.2" fill="#2e7d32"/>
<rect x="270.2" y="531.6" width="7.0" height="0.4" fill="#2e7d32" opacity="0.55"/>
<line x1="285.0" y1="363.1" x2="285.0" y2="379.2" stroke="#c62828" stroke-width="1"/>
<rect x="281.5" y="363.1" width="7.0" height="8.2" fill="#c62828"/>
<rect x="281.5" y="531.7" width="7.0" height="0.3" fill="#c62828" opacity="0.55"/>
<line x1="296.3" y1="368.3" x2="296.3" y2="376.7" stroke="#2e7d32" stroke-width="1"/>
<rect x="292.8" y="368.3" width="7.0" height="1.8" fill="#2e7d32"/>
<rect x="292.8" y="531.8" width="7.0" height="0.2" fill="#2e7d32" opacity="0.55"/>
<line x1="307.7" y1="368.3" x2="307.7" y2="374.6" stroke="#2e7d32" stroke-width="1"/>
<rect x="304.2" y="371.0" width="7.0" height="1.0" fill="#2e7d32"/>
<rect x="304.2" y="531.9" width="7.0" height="0.1" fill="#2e7d32" opacity="0.55"/>
<line x1="319.0" y1="368.3" x2="319.0" y2="374.9" stroke="#2e7d32" stroke-width="1"/>
<rect x="315.5" y="371.3" width="7.0" height="1.0" fill="#2e7d32"/>
<rect x="315.5" y="531.6" width="7.0" height="0.4" fill="#2e7d32" opacity="0.55"/>
<line x1="330.3" y1="369.1" x2="330.3" y2="371.9" stroke="#2e7d32" stroke-width="1"/>
<rect x="326.8" y="369.1" width="7.0" height="2.8" fill="#2e7d32"/>
<rect x="326.8" y="532.0" width="7.0" height="0.0" fill="#2e7d32" opacity="0.55"/>
<line x1="341.7" y1="371.9" x2="341.7" y2="371.9" stroke="#2e7d32" stroke-width="1"/>
<rect x="338.2" y="371.9" width="7.0" height="1.0" fill="#2e7d32"/>
<rect x="338.2" y="532.0" width="7.0" height="0.0" fill="#2e7d32" opacity="0.55"/>
<line x1="353.0" y1="372.0" x2="353.0" y2="374.9" stroke="#2e7d32" stroke-width="1"/>
<rect x="349.5" y="372.0" width="7.0" height="2.0" fill="#2e7d32"/>
<rect x="349.5" y="531.8" width="7.0" height="0.2" fill="#2e7d32" opacity="0.55"/>
<line x1="364.3" y1="374.9" x2="364.3" y2="375.5" stroke="#c62828" stroke-width="1"/>
<rect x="360.8" y="374.9" width="7.0" height="1.0" fill="#c62828"/>
<rect x="360.8" y="531.9" width="7.0" height="0.1" fill="#c62828" opacity="0.55"/>
<line x1="375.7" y1="376.1" x2="375.7" y2="376.8" stroke="#c62828" stroke-width="1"/>
<rect x="372.2" y="376.1" width="7.0" height="1.0" fill="#c62828"/>
<rect x="372.2" y="531.9" width="7.0" height="0.1" fill="#c62828" opacity="0.55"/>
<line x1="387.0" y1="375.5" x2="387.0" y2="377.4" stroke="#2e7d32" stroke-width="1"/>
<rect x="383.5" y="376.7" width="7.0" height="1.0" fill="#2e7d32"/>
<rect x="383.5" y="531.6" width="7.0" height="0.4" fill="#2e7d32" opacity="0.55"/>
<line x1="398.3" y1="378.6" x2="398.3" y2="380.7" stroke="#c62828" stroke-width="1"/>
<rect x="394.8" y="378.6" width="7.0" height="2.1" fill="#c62828"/>
<rect x="394.8" y="531.9" width="7.0" height="0.1" fill="#c62828" opacity="0.55"/>
<line x1="409.7" y1="376.5" x2="409.7" y2="380.4" stroke="#2e7d32" stroke-width="1"/>
<rect x="406.2" y="376.7" width="7.0" height="3.7" fill="#2e7d32"/>
<rect x="406.2" y="525.0" width="7.0" height="7.0" fill="#2e7d32" opacity="0.55"/>
<line x1="421.0" y1="376.5" x2="421.0" y2="381.6" stroke="#c62828" stroke-width="1"/>
<rect x="417.5" y="376.5" width="7.0" height="5.1" fill="#c62828"/>
<rect x="417.5" y="531.9" width="7.0" height="0.1" fill="#c62828" opacity="0.55"/>
<line x1="432.3" y1="368.3" x2="432.3" y2="376.1" stroke="#2e7d32" stroke-width="1"/>
<rect x="428.8" y="368.3" width="7.0" height="7.8" fill="#2e7d32"/>
<rect x="428.8" y="530.3" width="7.0" height="1.7" fill="#2e7d32" opacity="0.55"/>
<line x1="443.7" y1="369.5" x2="443.7" y2="373.7" stroke="#c62828" stroke-width="1"/>
<rect x="440.2" y="369.5" width="7.0" height="2.5" fill="#c62828"/>
<rect x="440.2" y="531.5" width="7.0" height="0.5" fill="#c62828" opacity="0.55"/>
<line x1="455.0" y1="368.9" x2="455.0" y2="377.3" stroke="#c62828" stroke-width="1"/>
<rect x="451.5" y="368.9" width="7.0" height="4.8" fill="#c62828"/>
<rect x="451.5" y="531.9" width="7.0" height="0.1" fill="#c62828" opacity="0.55"/>
<line x1="466.3" y1="371.3" x2="466.3" y2="373.7" stroke="#c62828" stroke-width="1"/>
<rect x="462.8" y="371.3" width="7.0" height="2.4" fill="#c62828"/>
<rect x="462.8" y="531.8" width="7.0" height="0.2" fill="#c62828" opacity="0.55"/>
<line x1="477.7" y1="368.9" x2="477.7" y2="371.3" stroke="#2e7d32" stroke-width="1"/>
<rect x="474.2" y="368.9" width="7.0" height="2.4" fill="#2e7d32"/>
<rect x="474.2" y="531.9" width="7.0" height="0.1" fill="#2e7d32" opacity="0.55"/>
<line x1="489.0" y1="368.9" x2="489.0" y2="373.9" stroke="#2e7d32" stroke-width="1"/>
<rect x="485.5" y="368.9" width="7.0" height="5.0" fill="#2e7d32"/>
<rect x="485.5" y="531.9" width="7.0" height="0.1" fill="#2e7d32" opacity="0.55"/>
<line x1="500.3" y1="371.6" x2="500.3" y2="374.3" stroke="#2e7d32" stroke-width="1"/>
<rect x="496.8" y="372.9" width="7.0" height="1.4" fill="#2e7d32"/>
<rect x="496.8" y="531.9" width="7.0" height="0.1" fill="#2e7d32" opacity="0.55"/>
<line x1="511.7" y1="374.3" x2="511.7" y2="374.3" stroke="#2e7d32" stroke-width="1"/>
<rect x="508.2" y="374.3" width="7.0" height="1.0" fill="#2e7d32"/>
<rect x="508.2" y="531.9" width="7.0" height="0.1" fill="#2e7d32" opacity="0.55"/>
<line x1="523.0" y1="373.7" x2="523.0" y2="376.7" stroke="#2e7d32" stroke-width="1"/>
<rect x="519.5" y="373.7" width="7.0" height="3.0" fill="#2e7d32"/>
<rect x="519.5" y="531.9" width="7.0" height="0.1" fill="#2e7d32" opacity="0.55"/>
<line x1="534.3" y1="372.8" x2="534.3" y2="372.8" stroke="#2e7d32" stroke-width="1"/>
<rect x="530.8" y="372.8" width="7.0" height="1.0" fill="#2e7d32"/>
<rect x="530.8" y="532.0" width="7.0" height="0.0" fill="#2e7d32" opacity="0.55"/>
<line x1="545.7" y1="370.8" x2="545.7" y2="370.8" stroke="#2e7d32" stroke-width="1"/>
<rect x="542.2" y="370.8" width="7.0" height="1.0" fill="#2e7d32"/>
<rect x="542.2" y="532.0" width="7.0" height="0.0" fill="#2e7d32" opacity="0.55"/>
<line x1="557.0" y1="369.0" x2="557.0" y2="369.0" stroke="#2e7d32" stroke-width="1"/>
<rect x="553.5" y="369.0" width="7.0" height="1.0" fill="#2e7d32"/>
<rect x="553.5" y="532.0" width="7.0" height="0.0" fill="#2e7d32" opacity="0.55"/>
<line x1="568.3" y1="369.0" x2="568.3" y2="374.2" stroke="#c62828" stroke-width="1"/>
<rect x="564.8" y="369.0" width="7.0" height="3.5" fill="#c62828"/>
<rect x="564.8" y="531.8" width="7.0" height="0.2" fill="#c62828" opacity="0.55"/>
<line x1="579.7" y1="372.5" x2="579.7" y2="373.1" stroke="#2e7d32" stroke-width="1"/>
<rect x="576.2" y="372.5" width="7.0" height="1.0" fill="#2e7d32"/>
<rect x="576.2" y="532.0" width="7.0" height="0.0" fill="#2e7d32" opacity="0.55"/>
<line x1="591.0" y1="376.5" x2="591.0" y2="377.4" stroke="#2e7d32" stroke-width="1"/>
<rect x="587.5" y="376.5" width="7.0" height="1.0" fill="#2e7d32"/>
<rect x="587.5" y="532.0" width="7.0" height="0.0" fill="#2e7d32" opacity="0.55"/>
<line x1="602.3" y1="372.5" x2="602.3" y2="372.5" stroke="#2e7d32" stroke-width="1"/>
<rect x="598.8" y="372.5" width="7.0" height="1.0" fill="#2e7d32"/>
<rect x="598.8" y="532.0" width="7.0" height="0.0" fill="#2e7d32" opacity="0.55"/>
<line x1="613.7" y1="375.5" x2="613.7" y2="375.5" stroke="#2e7d32" stroke-width="1"/>
<rect x="610.2" y="375.5" width="7.0" height="1.0" fill="#2e7d32"/>
<rect x="610.2" y="532.0" width="7.0" height="0.0" fill="#2e7d32" opacity="0.55"/>
<line x1="625.0" y1="369.5" x2="625.0" y2="369.5" stroke="#2e7d32" stroke-width="1"/>
<rect x="621.5" y="369.5" width="7.0" height="1.0" fill="#2e7d32"/>
<rect x="621.5" y="532.0" width="7.0" height="0.0" fill="#2e7d32" opacity="0.55"/>
<line x1="636.3" y1="371.9" x2="636.3" y2="371.9" stroke="#2e7d32" stroke-width="1"/>
<rect x="632.8" y="371.9" width="7.0" height="1.0" fill="#2e7d32"/>
<rect x="632.8" y="532.0" width="7.0" height="0.0" fill="#2e7d32" opacity="0.55"/>
<line x1="647.7" y1="371.9" x2="647.7" y2="371.9" stroke="#2e7d32" stroke-width="1"/>
<rect x="644.2" y="371.9" width="7.0" height="1.0" fill="#2e7d32"/>
<rect x="644.2" y="532.0" width="7.0" height="0.0" fill="#2e7d32" opacity="0.55"/>
<line x1="659.0" y1="370.7" x2="659.0" y2="370.7" stroke="#2e7d32" stroke-width="1"/>
<rect x="655.5" y="370.7" width="7.0" height="1.0" fill="#2e7d32"/>
<rect x="655.5" y="532.0" width="7.0" height="0.0" fill="#2e7d32" opacity="0.55"/>
<line x1="670.3" y1="365.1" x2="670.3" y2="373.1" stroke="#2e7d32" stroke-width="1"/>
<rect x="666.8" y="365.1" width="7.0" height="8.0" fill="#2e7d32"/>
<rect x="666.8" y="531.0" width="7.0" height="1.0" fill="#2e7d32" opacity="0.55"/>
<line x1="681.7" y1="367.1" x2="681.7" y2="367.1" stroke="#2e7d32" stroke-width="1"/>
<rect x="678.2" y="367.1" width="7.0" height="1.0" fill="#2e7d32"/>
<rect x="678.2" y="532.0" width="7.0" height="0.0" fill="#2e7d32" opacity="0.55"/>
<line x1="693.0" y1="362.3" x2="693.0" y2="368.2" stroke="#c62828" stroke-width="1"/>
<rect x="689.5" y="362.3" width="7.0" height="2.9" fill="#c62828"/>
<rect x="689.5" y="531.8" width="7.0" height="0.2" fill="#c62828" opacity="0.55"/>
<line x1="704.3" y1="368.2" x2="704.3" y2="368.3" stroke="#c62828" stroke-width="1"/>
<rect x="700.8" y="368.2" width="7.0" height="1.0" fill="#c62828"/>
<rect x="700.8" y="532.0" width="7.0" height="0.0" fill="#c62828" opacity="0.55"/>
<line x1="715.7" y1="362.3" x2="715.7" y2="365.2" stroke="#2e7d32" stroke-width="1"/>
<rect x="712.2" y="362.3" width="7.0" height="2.9" fill="#2e7d32"/>
<rect x="712.2" y="532.0" width="7.0" height="0.0" fill="#2e7d32" opacity="0.55"/>
<line x1="727.0" y1="362.2" x2="727.0" y2="362.7" stroke="#2e7d32" stroke-width="1"/>
<rect x="723.5" y="362.2" width="7.0" height="1.0" fill="#2e7d32"/>
<rect x="723.5" y="532.0" width="7.0" height="0.0" fill="#2e7d32" opacity="0.55"/>
<line x1="738.3" y1="367.7" x2="738.3" y2="367.7" stroke="#2e7d32" stroke-width="1"/>
<rect x="734.8" y="367.7" width="7.0" height="1.0" fill="#2e7d32"/>
<rect x="734.8" y="532.0" width="7.0" height="0.0" fill="#2e7d32" opacity="0.55"/>
<line x1="749.7" y1="362.8" x2="749.7" y2="362.8" stroke="#2e7d32" stroke-width="1"/>
<rect x="746.2" y="362.8" width="7.0" height="1.0" fill="#2e7d32"/>
<rect x="746.2" y="532.0" width="7.0" height="0.0" fill="#2e7d32" opacity="0.55"/>
<line x1="761.0" y1="362.8" x2="761.0" y2="362.8" stroke="#2e7d32" stroke-width="1"/>
<rect x="757.5" y="362.8" width="7.0" height="1.0" fill="#2e7d32"/>
<rect x="757.5" y="532.0" width="7.0" height="0.0" fill="#2e7d32" opacity="0.55"/>
<line x1="772.3" y1="362.8" x2="772.3" y2="362.8" stroke="#2e7d32" stroke-width="1"/>
<rect x="768.8" y="362.8" width="7.0" height="1.0" fill="#2e7d32"/>
<rect x="768.8" y="532.0" width="7.0" height="0.0" fill="#2e7d32" opacity="0.55"/>
<line x1="783.7" y1="368.3" x2="783.7" y2="368.3" stroke="#2e7d32" stroke-width="1"/>
<rect x="780.2" y="368.3" width="7.0" height="1.0" fill="#2e7d32"/>
<rect x="780.2" y="532.0" width="7.0" height="0.0" fill="#2e7d32" opacity="0.55"/>
<line x1="795.0" y1="365.9" x2="795.0" y2="366.5" stroke="#c62828" stroke-width="1"/>
<rect x="791.5" y="365.9" width="7.0" height="1.0" fill="#c62828"/>
<rect x="791.5" y="532.0" width="7.0" height="0.0" fill="#c62828" opacity="0.55"/>
<line x1="806.3" y1="367.3" x2="806.3" y2="368.3" stroke="#2e7d32" stroke-width="1"/>
<rect x="802.8" y="367.3" width="7.0" height="1.0" fill="#2e7d32"/>
<rect x="802.8" y="531.9" width="7.0" height="0.1" fill="#2e7d32" opacity="0.55"/>
<line x1="817.7" y1="367.3" x2="817.7" y2="367.3" stroke="#2e7d32" stroke-width="1"/>
<rect x="814.2" y="367.3" width="7.0" height="1.0" fill="#2e7d32"/>
<rect x="814.2" y="532.0" width="7.0" height="0.0" fill="#2e7d32" opacity="0.55"/>
<line x1="829.0" y1="362.9" x2="829.0" y2="362.9" stroke="#c62828" stroke-width="1"/>
<rect x="825.5" y="362.9" width="7.0" height="1.0" fill="#c62828"/>
<rect x="825.5" y="532.0" width="7.0" height="0.0" fill="#c62828" opacity="0.55"/>
<line x1="840.3" y1="363.2" x2="840.3" y2="368.3" stroke="#c62828" stroke-width="1"/>
<rect x="836.8" y="363.2" width="7.0" height="5.0" fill="#c62828"/>
<rect x="836.8" y="532.0" width="7.0" height="0.0" fill="#c62828" opacity="0.55"/>
<line x1="851.7" y1="368.3" x2="851.7" y2="368.3" stroke="#2e7d32" stroke-width="1"/>
<rect x="848.2" y="368.3" width="7.0" height="1.0" fill="#2e7d32"/>
<rect x="848.2" y="532.0" width="7.0" height="0.0" fill="#2e7d32" opacity="0.55"/>
<line x1="863.0" y1="144.2" x2="863.0" y2="329.5" stroke="#2e7d32" stroke-width="1"/>
<rect x="859.5" y="194.1" width="7.0" height="135.4" fill="#2e7d32"/>
<rect x="859.5" y="448.8" width="7.0" height="83.2" fill="#2e7d32" opacity="0.55"/>
<line x1="874.3" y1="55.7" x2="874.3" y2="199.3" stroke="#2e7d32" stroke-width="1"/>
<rect x="870.8" y="166.9" width="7.0" height="24.6" fill="#2e7d32"/>
<rect x="870.8" y="412.0" width="7.0" height="120.0" fill="#2e7d32" opacity="0.55"/>
<line x1="885.7" y1="113.4" x2="885.7" y2="177.5" stroke="#2e7d32" stroke-width="1"/>
<rect x="882.2" y="142.4" width="7.0" height="24.2" fill="#2e7d32"/>
<rect x="882.2" y="472.4" width="7.0" height="59.6" fill="#2e7d32" opacity="0.55"/>
<line x1="897.0" y1="135.7" x2="897.0" y2="246.9" stroke="#c62828" stroke-width="1"/>
<rect x="893.5" y="140.4" width="7.0" height="77.7" fill="#c62828"/>
<rect x="893.5" y="473.5" width="7.0" height="58.5" fill="#c62828" opacity="0.55"/>
<line x1="908.3" y1="179.0" x2="908.3" y2="234.5" stroke="#2e7d32" stroke-width="1"/>
<rect x="904.8" y="207.8" width="7.0" height="9.2" fill="#2e7d32"/>
<rect x="904.8" y="488.5" width="7.0" height="43.5" fill="#2e7d32" opacity="0.55"/>
<line x1="919.7" y1="199.3" x2="919.7" y2="229.0" stroke="#c62828" stroke-width="1"/>
<rect x="916.2" y="203.0" width="7.0" height="17.0" fill="#c62828"/>
<rect x="916.2" y="509.9" width="7.0" height="22.1" fill="#c62828" opacity="0.55"/>
<line x1="931.0" y1="219.3" x2="931.0" y2="279.1" stroke="#c62828" stroke-width="1"/>
<rect x="927.5" y="220.1" width="7.0" height="58.9" fill="#c62828"/>
<rect x="927.5" y="496.7" width="7.0" height="35.3" fill="#c62828" opacity="0.55"/>
<line x1="942.3" y1="274.4" x2="942.3" y2="297.4" stroke="#c62828" stroke-width="1"/>
<rect x="938.8" y="279.0" width="7.0" height="18.2" fill="#c62828"/>
<rect x="938.8" y="501.9" width="7.0" height="30.1" fill="#c62828" opacity="0.55"/>
<line x1="953.7" y1="283.7" x2="953.7" y2="298.0" stroke="#2e7d32" stroke-width="1"/>
<rect x="950.2" y="284.7" width="7.0" height="10.9" fill="#2e7d32"/>
<rect x="950.2" y="518.2" width="7.0" height="13.8" fill="#2e7d32" opacity="0.55"/>
<line x1="965.0" y1="240.5" x2="965.0" y2="285.1" stroke="#2e7d32" stroke-width="1"/>
<rect x="961.5" y="281.3" width="7.0" height="3.5" fill="#2e7d32"/>
<rect x="961.5" y="491.7" width="7.0" height="40.3" fill="#2e7d32" opacity="0.55"/>
<line x1="976.3" y1="241.1" x2="976.3" y2="285.1" stroke="#2e7d32" stroke-width="1"/>
<rect x="972.8" y="246.9" width="7.0" height="35.4" fill="#2e7d32"/>
<rect x="972.8" y="512.6" width="7.0" height="19.4" fill="#2e7d32" opacity="0.55"/>
<line x1="987.7" y1="246.3" x2="987.7" y2="272.6" stroke="#c62828" stroke-width="1"/>
<rect x="984.2" y="246.9" width="7.0" height="3.9" fill="#c62828"/>
<rect x="984.2" y="518.4" width="7.0" height="13.6" fill="#c62828" opacity="0.55"/>
<line x1="999.0" y1="227.8" x2="999.0" y2="267.2" stroke="#c62828" stroke-width="1"/>
<rect x="995.5" y="253.3" width="7.0" height="4.1" fill="#c62828"/>
<rect x="995.5" y="498.3" width="7.0" height="33.7" fill="#c62828" opacity="0.55"/>
<line x1="1010.3" y1="239.9" x2="1010.3" y2="269.9" stroke="#c62828" stroke-width="1"/>
<rect x="1006.8" y="257.5" width="7.0" height="5.4" fill="#c62828"/>
<rect x="1006.8" y="517.6" width="7.0" height="14.4" fill="#c62828" opacity="0.55"/>
<line x1="1021.7" y1="258.7" x2="1021.7" y2="277.4" stroke="#2e7d32" stroke-width="1"/>
<rect x="1018.2" y="262.3" width="7.0" height="1.0" fill="#2e7d32"/>
<rect x="1018.2" y="522.8" width="7.0" height="9.2" fill="#2e7d32" opacity="0.55"/>
<line x1="1033.0" y1="247.8" x2="1033.0" y2="267.4" stroke="#2e7d32" stroke-width="1"/>
<rect x="1029.5" y="259.3" width="7.0" height="6.7" fill="#2e7d32"/>
<rect x="1029.5" y="525.4" width="7.0" height="6.6" fill="#2e7d32" opacity="0.55"/>
<line x1="1044.3" y1="254.0" x2="1044.3" y2="266.5" stroke="#2e7d32" stroke-width="1"/>
<rect x="1040.8" y="258.8" width="7.0" height="1.1" fill="#2e7d32"/>
<rect x="1040.8" y="532.0" width="7.0" height="0.0" fill="#2e7d32" opacity="0.55"/>
<line x1="1055.7" y1="218.9" x2="1055.7" y2="262.3" stroke="#2e7d32" stroke-width="1"/>
<rect x="1052.2" y="232.1" width="7.0" height="27.7" fill="#2e7d32"/>
<rect x="1052.2" y="532.0" width="7.0" height="0.0" fill="#2e7d32" opacity="0.55"/>
<line x1="1067.0" y1="229.6" x2="1067.0" y2="250.2" stroke="#c62828" stroke-width="1"/>
<rect x="1063.5" y="232.6" width="7.0" height="17.0" fill="#c62828"/>
<rect x="1063.5" y="532.0" width="7.0" height="0.0" fill="#c62828" opacity="0.55"/>
<line x1="1078.3" y1="244.0" x2="1078.3" y2="244.0" stroke="#2e7d32" stroke-width="1"/>
<rect x="1074.8" y="244.0" width="7.0" height="1.0" fill="#2e7d32"/>
<rect x="1074.8" y="532.0" width="7.0" height="0.0" fill="#2e7d32" opacity="0.55"/>
<line x1="64" y1="532" x2="1084" y2="532" stroke="#ccc"/>
<text x="58" y="420" font-size="9" fill="#999" text-anchor="end">1.9M</text>
<line x1="69.7" y1="532" x2="69.7" y2="536" stroke="#999"/>
<text x="69.7" y="547.0" font-size="9" fill="#666" text-anchor="middle">07/21 10:20</text>
<line x1="239.7" y1="532" x2="239.7" y2="536" stroke="#999"/>
<text x="239.7" y="547.0" font-size="9" fill="#666" text-anchor="middle">12:05</text>
<line x1="409.7" y1="532" x2="409.7" y2="536" stroke="#999"/>
<text x="409.7" y="547.0" font-size="9" fill="#666" text-anchor="middle">13:35</text>
<line x1="579.7" y1="532" x2="579.7" y2="536" stroke="#999"/>
<text x="579.7" y="547.0" font-size="9" fill="#666" text-anchor="middle">16:00</text>
<line x1="749.7" y1="532" x2="749.7" y2="536" stroke="#999"/>
<text x="749.7" y="547.0" font-size="9" fill="#666" text-anchor="middle">18:40</text>
<line x1="919.7" y1="532" x2="919.7" y2="536" stroke="#999"/>
<text x="919.7" y="547.0" font-size="9" fill="#666" text-anchor="middle">07/22 04:25</text>
<text x="64" y="22" font-size="15" font-weight="bold" fill="#1a1a1a">SXTC - China SXT Pharmaceuticals, Inc.</text>
<text x="1084" y="22" font-size="11" fill="#666" text-anchor="end">last $4.80 (+92.1% over window)</text>
<rect x="934" y="28" width="10" height="8" fill="#e8f0fe"/>
<text x="948" y="35" font-size="9" fill="#666">premarket</text>
<rect x="1006" y="28" width="10" height="8" fill="#fff4e0"/>
<text x="1020" y="35" font-size="9" fill="#666">after-hrs</text>
</svg>