<svg xmlns="http://www.w3.org/2000/svg" width="1100" height="560" viewBox="0 0 1100 560" font-family="Arial,Helvetica,sans-serif">
<rect width="1100" height="560" fill="white"/>
<rect x="64.0" y="36" width="210.3" height="496.0" fill="#e8f0fe"/>
<rect x="474.1" y="36" width="399.6" height="496.0" fill="#fff4e0"/>
<rect x="873.7" y="36" width="210.3" height="496.0" fill="#e8f0fe"/>
<line x1="64" y1="404.0" x2="1084" y2="404.0" stroke="#e6e6e6"/>
<text x="58" y="407.0" font-size="10" fill="#666" text-anchor="end">$1.69</text>
<line x1="64" y1="312.0" x2="1084" y2="312.0" stroke="#e6e6e6"/>
<text x="58" y="315.0" font-size="10" fill="#666" text-anchor="end">$2.33</text>
<line x1="64" y1="220.0" x2="1084" y2="220.0" stroke="#e6e6e6"/>
<text x="58" y="223.0" font-size="10" fill="#666" text-anchor="end">$2.96</text>
<line x1="64" y1="128.0" x2="1084" y2="128.0" stroke="#e6e6e6"/>
<text x="58" y="131.0" font-size="10" fill="#666" text-anchor="end">$3.60</text>
<line x1="64" y1="36.0" x2="1084" y2="36.0" stroke="#e6e6e6"/>
<text x="58" y="39.0" font-size="10" fill="#666" text-anchor="end">$4.24</text>
<line x1="69.3" y1="372.4" x2="69.3" y2="382.8" stroke="#c62828" stroke-width="1"/>
<rect x="66.0" y="374.2" width="6.5" height="1.4" fill="#c62828"/>
<rect x="66.0" y="532.0" width="6.5" height="0.0" fill="#c62828" opacity="0.55"/>
<line x1="79.8" y1="384.3" x2="79.8" y2="384.3" stroke="#2e7d32" stroke-width="1"/>
<rect x="76.5" y="384.3" width="6.5" height="1.0" fill="#2e7d32"/>
<rect x="76.5" y="532.0" width="6.5" height="0.0" fill="#2e7d32" opacity="0.55"/>
<line x1="90.3" y1="365.6" x2="90.3" y2="382.7" stroke="#2e7d32" stroke-width="1"/>
<rect x="87.0" y="365.6" width="6.5" height="17.1" fill="#2e7d32"/>
<rect x="87.0" y="532.0" width="6.5" height="0.0" fill="#2e7d32" opacity="0.55"/>
<line x1="100.8" y1="365.7" x2="100.8" y2="365.7" stroke="#2e7d32" stroke-width="1"/>
<rect x="97.5" y="365.7" width="6.5" height="1.0" fill="#2e7d32"/>
<rect x="97.5" y="532.0" width="6.5" height="0.0" fill="#2e7d32" opacity="0.55"/>
<line x1="111.3" y1="383.7" x2="111.3" y2="383.7" stroke="#2e7d32" stroke-width="1"/>
<rect x="108.1" y="383.7" width="6.5" height="1.0" fill="#2e7d32"/>
<rect x="108.1" y="532.0" width="6.5" height="0.0" fill="#2e7d32" opacity="0.55"/>
<line x1="121.8" y1="373.0" x2="121.8" y2="382.8" stroke="#2e7d32" stroke-width="1"/>
<rect x="118.6" y="373.0" width="6.5" height="9.3" fill="#2e7d32"/>
<rect x="118.6" y="532.0" width="6.5" height="0.0" fill="#2e7d32" opacity="0.55"/>
<line x1="132.4" y1="371.3" x2="132.4" y2="373.3" stroke="#2e7d32" stroke-width="1"/>
<rect x="129.1" y="373.0" width="6.5" height="1.0" fill="#2e7d32"/>
<rect x="129.1" y="532.0" width="6.5" height="0.0" fill="#2e7d32" opacity="0.55"/>
<line x1="142.9" y1="371.7" x2="142.9" y2="371.7" stroke="#2e7d32" stroke-width="1"/>
<rect x="139.6" y="371.7" width="6.5" height="1.0" fill="#2e7d32"/>
<rect x="139.6" y="532.0" width="6.5" height="0.0" fill="#2e7d32" opacity="0.55"/>
<line x1="153.4" y1="371.7" x2="153.4" y2="371.7" stroke="#2e7d32" stroke-width="1"/>
<rect x="150.1" y="371.7" width="6.5" height="1.0" fill="#2e7d32"/>
<rect x="150.1" y="532.0" width="6.5" height="0.0" fill="#2e7d32" opacity="0.55"/>
<line x1="163.9" y1="364.0" x2="163.9" y2="364.0" stroke="#2e7d32" stroke-width="1"/>
<rect x="160.6" y="364.0" width="6.5" height="1.0" fill="#2e7d32"/>
<rect x="160.6" y="532.0" width="6.5" height="0.0" fill="#2e7d32" opacity="0.55"/>
<line x1="174.4" y1="364.0" x2="174.4" y2="364.0" stroke="#2e7d32" stroke-width="1"/>
<rect x="171.2" y="364.0" width="6.5" height="1.0" fill="#2e7d32"/>
<rect x="171.2" y="532.0" width="6.5" height="0.0" fill="#2e7d32" opacity="0.55"/>
<line x1="184.9" y1="365.5" x2="184.9" y2="372.1" stroke="#c62828" stroke-width="1"/>
<rect x="181.7" y="365.5" width="6.5" height="6.4" fill="#c62828"/>
<rect x="181.7" y="532.0" width="6.5" height="0.0" fill="#c62828" opacity="0.55"/>
<line x1="195.4" y1="372.0" x2="195.4" y2="372.7" stroke="#c62828" stroke-width="1"/>
<rect x="192.2" y="372.0" width="6.5" height="1.0" fill="#c62828"/>
<rect x="192.2" y="532.0" width="6.5" height="0.0" fill="#c62828" opacity="0.55"/>
<line x1="206.0" y1="372.0" x2="206.0" y2="372.0" stroke="#2e7d32" stroke-width="1"/>
<rect x="202.7" y="372.0" width="6.5" height="1.0" fill="#2e7d32"/>
<rect x="202.7" y="532.0" width="6.5" height="0.0" fill="#2e7d32" opacity="0.55"/>
<line x1="216.5" y1="372.0" x2="216.5" y2="372.0" stroke="#2e7d32" stroke-width="1"/>
<rect x="213.2" y="372.0" width="6.5" height="1.0" fill="#2e7d32"/>
<rect x="213.2" y="532.0" width="6.5" height="0.0" fill="#2e7d32" opacity="0.55"/>
<line x1="227.0" y1="372.0" x2="227.0" y2="372.7" stroke="#2e7d32" stroke-width="1"/>
<rect x="223.7" y="372.0" width="6.5" height="1.0" fill="#2e7d32"/>
<rect x="223.7" y="532.0" width="6.5" height="0.0" fill="#2e7d32" opacity="0.55"/>
<line x1="237.5" y1="369.8" x2="237.5" y2="369.8" stroke="#2e7d32" stroke-width="1"/>
<rect x="234.2" y="369.8" width="6.5" height="1.0" fill="#2e7d32"/>
<rect x="234.2" y="532.0" width="6.5" height="0.0" fill="#2e7d32" opacity="0.55"/>
<line x1="248.0" y1="368.0" x2="248.0" y2="368.0" stroke="#2e7d32" stroke-width="1"/>
<rect x="244.8" y="368.0" width="6.5" height="1.0" fill="#2e7d32"/>
<rect x="244.8" y="532.0" width="6.5" height="0.0" fill="#2e7d32" opacity="0.55"/>
<line x1="258.5" y1="372.2" x2="258.5" y2="372.2" stroke="#2e7d32" stroke-width="1"/>
<rect x="255.3" y="372.2" width="6.5" height="1.0" fill="#2e7d32"/>
<rect x="255.3" y="532.0" width="6.5" height="0.0" fill="#2e7d32" opacity="0.55"/>
<line x1="269.1" y1="368.4" x2="269.1" y2="369.8" stroke="#2e7d32" stroke-width="1"/>
<rect x="265.8" y="368.4" width="6.5" height="1.4" fill="#2e7d32"/>
<rect x="265.8" y="532.0" width="6.5" height="0.0" fill="#2e7d32" opacity="0.55"/>
<line x1="279.6" y1="379.2" x2="279.6" y2="379.2" stroke="#2e7d32" stroke-width="1"/>
<rect x="276.3" y="379.2" width="6.5" height="1.0" fill="#2e7d32"/>
<rect x="276.3" y="412.0" width="6.5" height="120.0" fill="#2e7d32" opacity="0.55"/>
<line x1="290.1" y1="374.2" x2="290.1" y2="379.2" stroke="#2e7d32" stroke-width="1"/>
<rect x="286.8" y="374.2" width="6.5" height="5.1" fill="#2e7d32"/>
<rect x="286.8" y="528.6" width="6.5" height="3.4" fill="#2e7d32" opacity="0.55"/>
<line x1="300.6" y1="376.3" x2="300.6" y2="379.9" stroke="#c62828" stroke-width="1"/>
<rect x="297.3" y="376.3" width="6.5" height="3.6" fill="#c62828"/>
<rect x="297.3" y="524.9" width="6.5" height="7.1" fill="#c62828" opacity="0.55"/>
<line x1="311.1" y1="378.5" x2="311.1" y2="378.5" stroke="#2e7d32" stroke-width="1"/>
<rect x="307.9" y="378.5" width="6.5" height="1.0" fill="#2e7d32"/>
<rect x="307.9" y="529.9" width="6.5" height="2.1" fill="#2e7d32" opacity="0.55"/>
<line x1="321.6" y1="380.1" x2="321.6" y2="380.1" stroke="#2e7d32" stroke-width="1"/>
<rect x="318.4" y="380.1" width="6.5" height="1.0" fill="#2e7d32"/>
<rect x="318.4" y="525.9" width="6.5" height="6.1" fill="#2e7d32" opacity="0.55"/>
<line x1="332.1" y1="377.0" x2="332.1" y2="381.4" stroke="#2e7d32" stroke-width="1"/>
<rect x="328.9" y="377.0" width="6.5" height="4.3" fill="#2e7d32"/>
<rect x="328.9" y="528.6" width="6.5" height="3.4" fill="#2e7d32" opacity="0.55"/>
<line x1="342.7" y1="375.6" x2="342.7" y2="379.9" stroke="#2e7d32" stroke-width="1"/>
<rect x="339.4" y="376.3" width="6.5" height="2.2" fill="#2e7d32"/>
<rect x="339.4" y="514.6" width="6.5" height="17.4" fill="#2e7d32" opacity="0.55"/>
<line x1="353.2" y1="374.2" x2="353.2" y2="377.0" stroke="#2e7d32" stroke-width="1"/>
<rect x="349.9" y="374.2" width="6.5" height="2.9" fill="#2e7d32"/>
<rect x="349.9" y="524.1" width="6.5" height="7.9" fill="#2e7d32" opacity="0.55"/>
<line x1="363.7" y1="374.2" x2="363.7" y2="374.2" stroke="#2e7d32" stroke-width="1"/>
<rect x="360.4" y="374.2" width="6.5" height="1.0" fill="#2e7d32"/>
<rect x="360.4" y="528.7" width="6.5" height="3.3" fill="#2e7d32" opacity="0.55"/>
<line x1="374.2" y1="372.0" x2="374.2" y2="374.2" stroke="#c62828" stroke-width="1"/>
<rect x="370.9" y="372.0" width="6.5" height="2.2" fill="#c62828"/>
<rect x="370.9" y="516.9" width="6.5" height="15.1" fill="#c62828" opacity="0.55"/>
<line x1="384.7" y1="376.0" x2="384.7" y2="376.0" stroke="#2e7d32" stroke-width="1"/>
<rect x="381.5" y="376.0" width="6.5" height="1.0" fill="#2e7d32"/>
<rect x="381.5" y="519.7" width="6.5" height="12.3" fill="#2e7d32" opacity="0.55"/>
<line x1="395.2" y1="378.5" x2="395.2" y2="379.9" stroke="#c62828" stroke-width="1"/>
<rect x="392.0" y="378.5" width="6.5" height="1.4" fill="#c62828"/>
<rect x="392.0" y="502.4" width="6.5" height="29.6" fill="#c62828" opacity="0.55"/>
<line x1="405.8" y1="377.8" x2="405.8" y2="377.8" stroke="#2e7d32" stroke-width="1"/>
<rect x="402.5" y="377.8" width="6.5" height="1.0" fill="#2e7d32"/>
<rect x="402.5" y="513.4" width="6.5" height="18.6" fill="#2e7d32" opacity="0.55"/>
<line x1="416.3" y1="381.8" x2="416.3" y2="381.8" stroke="#2e7d32" stroke-width="1"/>
<rect x="413.0" y="381.8" width="6.5" height="1.0" fill="#2e7d32"/>
<rect x="413.0" y="505.2" width="6.5" height="26.8" fill="#2e7d32" opacity="0.55"/>
<line x1="426.8" y1="378.5" x2="426.8" y2="378.6" stroke="#2e7d32" stroke-width="1"/>
<rect x="423.5" y="378.5" width="6.5" height="1.0" fill="#2e7d32"/>
<rect x="423.5" y="525.7" width="6.5" height="6.3" fill="#2e7d32" opacity="0.55"/>
<line x1="437.3" y1="379.9" x2="437.3" y2="380.0" stroke="#c62828" stroke-width="1"/>
<rect x="434.0" y="379.9" width="6.5" height="1.0" fill="#c62828"/>
<rect x="434.0" y="523.1" width="6.5" height="8.9" fill="#c62828" opacity="0.55"/>
<line x1="447.8" y1="376.3" x2="447.8" y2="378.5" stroke="#2e7d32" stroke-width="1"/>
<rect x="444.6" y="376.3" width="6.5" height="2.2" fill="#2e7d32"/>
<rect x="444.6" y="522.3" width="6.5" height="9.7" fill="#2e7d32" opacity="0.55"/>
<line x1="458.3" y1="375.6" x2="458.3" y2="376.3" stroke="#c62828" stroke-width="1"/>
<rect x="455.1" y="375.6" width="6.5" height="1.0" fill="#c62828"/>
<rect x="455.1" y="509.4" width="6.5" height="22.6" fill="#c62828" opacity="0.55"/>
<line x1="468.8" y1="375.6" x2="468.8" y2="375.6" stroke="#2e7d32" stroke-width="1"/>
<rect x="465.6" y="375.6" width="6.5" height="1.0" fill="#2e7d32"/>
<rect x="465.6" y="425.2" width="6.5" height="106.8" fill="#2e7d32" opacity="0.55"/>
<line x1="479.4" y1="381.4" x2="479.4" y2="381.4" stroke="#2e7d32" stroke-width="1"/>
<rect x="476.1" y="381.4" width="6.5" height="1.0" fill="#2e7d32"/>
<rect x="476.1" y="532.0" width="6.5" height="0.0" fill="#2e7d32" opacity="0.55"/>
<line x1="489.9" y1="378.5" x2="489.9" y2="378.5" stroke="#2e7d32" stroke-width="1"/>
<rect x="486.6" y="378.5" width="6.5" height="1.0" fill="#2e7d32"/>
<rect x="486.6" y="532.0" width="6.5" height="0.0" fill="#2e7d32" opacity="0.55"/>
<line x1="500.4" y1="381.4" x2="500.4" y2="381.4" stroke="#2e7d32" stroke-width="1"/>
<rect x="497.1" y="381.4" width="6.5" height="1.0" fill="#2e7d32"/>
<rect x="497.1" y="532.0" width="6.5" height="0.0" fill="#2e7d32" opacity="0.55"/>
<line x1="510.9" y1="381.4" x2="510.9" y2="381.4" stroke="#2e7d32" stroke-width="1"/>
<rect x="507.6" y="381.4" width="6.5" height="1.0" fill="#2e7d32"/>
<rect x="507.6" y="532.0" width="6.5" height="0.0" fill="#2e7d32" opacity="0.55"/>
<line x1="521.4" y1="374.2" x2="521.4" y2="374.2" stroke="#2e7d32" stroke-width="1"/>
<rect x="518.2" y="374.2" width="6.5" height="1.0" fill="#2e7d32"/>
<rect x="518.2" y="532.0" width="6.5" height="0.0" fill="#2e7d32" opacity="0.55"/>
<line x1="531.9" y1="378.5" x2="531.9" y2="381.3" stroke="#c62828" stroke-width="1"/>
<rect x="528.7" y="378.5" width="6.5" height="2.9" fill="#c62828"/>
<rect x="528.7" y="532.0" width="6.5" height="0.0" fill="#c62828" opacity="0.55"/>
<line x1="542.5" y1="368.9" x2="542.5" y2="381.4" stroke="#c62828" stroke-width="1"/>
<rect x="539.2" y="374.2" width="6.5" height="7.2" fill="#c62828"/>
<rect x="539.2" y="532.0" width="6.5" height="0.0" fill="#c62828" opacity="0.55"/>
<line x1="553.0" y1="371.3" x2="553.0" y2="371.3" stroke="#c62828" stroke-width="1"/>
<rect x="549.7" y="371.3" width="6.5" height="1.0" fill="#c62828"/>
<rect x="549.7" y="532.0" width="6.5" height="0.0" fill="#c62828" opacity="0.55"/>
<line x1="563.5" y1="377.0" x2="563.5" y2="380.8" stroke="#2e7d32" stroke-width="1"/>
<rect x="560.2" y="378.5" width="6.5" height="1.8" fill="#2e7d32"/>
<rect x="560.2" y="532.0" width="6.5" height="0.0" fill="#2e7d32" opacity="0.55"/>
<line x1="574.0" y1="377.0" x2="574.0" y2="377.0" stroke="#2e7d32" stroke-width="1"/>
<rect x="570.7" y="377.0" width="6.5" height="1.0" fill="#2e7d32"/>
<rect x="570.7" y="532.0" width="6.5" height="0.0" fill="#2e7d32" opacity="0.55"/>
<line x1="584.5" y1="381.2" x2="584.5" y2="381.4" stroke="#c62828" stroke-width="1"/>
<rect x="581.3" y="381.3" width="6.5" height="1.0" fill="#c62828"/>
<rect x="581.3" y="532.0" width="6.5" height="0.0" fill="#c62828" opacity="0.55"/>
<line x1="595.0" y1="381.4" x2="595.0" y2="381.4" stroke="#2e7d32" stroke-width="1"/>
<rect x="591.8" y="381.4" width="6.5" height="1.0" fill="#2e7d32"/>
<rect x="591.8" y="532.0" width="6.5" height="0.0" fill="#2e7d32" opacity="0.55"/>
<line x1="605.5" y1="381.1" x2="605.5" y2="381.1" stroke="#2e7d32" stroke-width="1"/>
<rect x="602.3" y="381.1" width="6.5" height="1.0" fill="#2e7d32"/>
<rect x="602.3" y="532.0" width="6.5" height="0.0" fill="#2e7d32" opacity="0.55"/>
<line x1="616.1" y1="381.4" x2="616.1" y2="381.4" stroke="#2e7d32" stroke-width="1"/>
<rect x="612.8" y="381.4" width="6.5" height="1.0" fill="#2e7d32"/>
<rect x="612.8" y="532.0" width="6.5" height="0.0" fill="#2e7d32" opacity="0.55"/>
<line x1="626.6" y1="345.8" x2="626.6" y2="375.6" stroke="#2e7d32" stroke-width="1"/>
<rect x="623.3" y="345.8" width="6.5" height="29.8" fill="#2e7d32"/>
<rect x="623.3" y="532.0" width="6.5" height="0.0" fill="#2e7d32" opacity="0.55"/>
<line x1="637.1" y1="336.5" x2="637.1" y2="358.2" stroke="#c62828" stroke-width="1"/>
<rect x="633.8" y="346.7" width="6.5" height="7.2" fill="#c62828"/>
<rect x="633.8" y="532.0" width="6.5" height="0.0" fill="#c62828" opacity="0.55"/>
<line x1="647.6" y1="338.0" x2="647.6" y2="353.9" stroke="#2e7d32" stroke-width="1"/>
<rect x="644.3" y="345.2" width="6.5" height="8.7" fill="#2e7d32"/>
<rect x="644.3" y="532.0" width="6.5" height="0.0" fill="#2e7d32" opacity="0.55"/>
<line x1="658.1" y1="342.3" x2="658.1" y2="355.3" stroke="#2e7d32" stroke-width="1"/>
<rect x="654.9" y="346.7" width="6.5" height="5.8" fill="#2e7d32"/>
<rect x="654.9" y="532.0" width="6.5" height="0.0" fill="#2e7d32" opacity="0.55"/>
<line x1="668.6" y1="346.7" x2="668.6" y2="356.8" stroke="#c62828" stroke-width="1"/>
<rect x="665.4" y="346.7" width="6.5" height="10.1" fill="#c62828"/>
<rect x="665.4" y="532.0" width="6.5" height="0.0" fill="#c62828" opacity="0.55"/>
<line x1="679.2" y1="333.6" x2="679.2" y2="345.2" stroke="#2e7d32" stroke-width="1"/>
<rect x="675.9" y="335.1" width="6.5" height="10.1" fill="#2e7d32"/>
<rect x="675.9" y="532.0" width="6.5" height="0.0" fill="#2e7d32" opacity="0.55"/>
<line x1="689.7" y1="317.7" x2="689.7" y2="345.2" stroke="#2e7d32" stroke-width="1"/>
<rect x="686.4" y="322.0" width="6.5" height="23.2" fill="#2e7d32"/>
<rect x="686.4" y="532.0" width="6.5" height="0.0" fill="#2e7d32" opacity="0.55"/>
<line x1="700.2" y1="259.8" x2="700.2" y2="323.5" stroke="#2e7d32" stroke-width="1"/>
<rect x="696.9" y="270.3" width="6.5" height="53.2" fill="#2e7d32"/>
<rect x="696.9" y="532.0" width="6.5" height="0.0" fill="#2e7d32" opacity="0.55"/>
<line x1="710.7" y1="183.1" x2="710.7" y2="303.2" stroke="#2e7d32" stroke-width="1"/>
<rect x="707.4" y="251.1" width="6.5" height="19.2" fill="#2e7d32"/>
<rect x="707.4" y="532.0" width="6.5" height="0.0" fill="#2e7d32" opacity="0.55"/>
<line x1="721.2" y1="212.0" x2="721.2" y2="287.3" stroke="#2e7d32" stroke-width="1"/>
<rect x="718.0" y="235.2" width="6.5" height="15.9" fill="#2e7d32"/>
<rect x="718.0" y="532.0" width="6.5" height="0.0" fill="#2e7d32" opacity="0.55"/>
<line x1="731.7" y1="171.5" x2="731.7" y2="241.0" stroke="#2e7d32" stroke-width="1"/>
<rect x="728.5" y="227.8" width="6.5" height="1.6" fill="#2e7d32"/>
<rect x="728.5" y="532.0" width="6.5" height="0.0" fill="#2e7d32" opacity="0.55"/>
<line x1="742.2" y1="146.9" x2="742.2" y2="242.4" stroke="#2e7d32" stroke-width="1"/>
<rect x="739.0" y="199.3" width="6.5" height="27.3" fill="#2e7d32"/>
<rect x="739.0" y="532.0" width="6.5" height="0.0" fill="#2e7d32" opacity="0.55"/>
<line x1="752.8" y1="141.1" x2="752.8" y2="200.5" stroke="#2e7d32" stroke-width="1"/>
<rect x="749.5" y="167.4" width="6.5" height="31.6" fill="#2e7d32"/>
<rect x="749.5" y="532.0" width="6.5" height="0.0" fill="#2e7d32" opacity="0.55"/>
<line x1="763.3" y1="161.4" x2="763.3" y2="199.0" stroke="#2e7d32" stroke-width="1"/>
<rect x="760.0" y="170.1" width="6.5" height="1.0" fill="#2e7d32"/>
<rect x="760.0" y="532.0" width="6.5" height="0.0" fill="#2e7d32" opacity="0.55"/>
<line x1="773.8" y1="164.3" x2="773.8" y2="200.5" stroke="#c62828" stroke-width="1"/>
<rect x="770.5" y="170.1" width="6.5" height="20.3" fill="#c62828"/>
<rect x="770.5" y="532.0" width="6.5" height="0.0" fill="#c62828" opacity="0.55"/>
<line x1="784.3" y1="187.4" x2="784.3" y2="242.4" stroke="#c62828" stroke-width="1"/>
<rect x="781.0" y="190.3" width="6.5" height="47.8" fill="#c62828"/>
<rect x="781.0" y="532.0" width="6.5" height="0.0" fill="#c62828" opacity="0.55"/>
<line x1="794.8" y1="214.1" x2="794.8" y2="249.7" stroke="#2e7d32" stroke-width="1"/>
<rect x="791.6" y="235.2" width="6.5" height="1.7" fill="#2e7d32"/>
<rect x="791.6" y="532.0" width="6.5" height="0.0" fill="#2e7d32" opacity="0.55"/>
<line x1="805.3" y1="223.6" x2="805.3" y2="262.7" stroke="#c62828" stroke-width="1"/>
<rect x="802.1" y="235.2" width="6.5" height="17.2" fill="#c62828"/>
<rect x="802.1" y="532.0" width="6.5" height="0.0" fill="#c62828" opacity="0.55"/>
<line x1="815.9" y1="241.0" x2="815.9" y2="254.0" stroke="#2e7d32" stroke-width="1"/>
<rect x="812.6" y="251.1" width="6.5" height="1.0" fill="#2e7d32"/>
<rect x="812.6" y="532.0" width="6.5" height="0.0" fill="#2e7d32" opacity="0.55"/>
<line x1="826.4" y1="248.2" x2="826.4" y2="265.6" stroke="#c62828" stroke-width="1"/>
<rect x="823.1" y="251.0" width="6.5" height="12.9" fill="#c62828"/>
<rect x="823.1" y="532.0" width="6.5" height="0.0" fill="#c62828" opacity="0.55"/>
<line x1="836.9" y1="235.2" x2="836.9" y2="264.1" stroke="#2e7d32" stroke-width="1"/>
<rect x="833.6" y="249.7" width="6.5" height="14.5" fill="#2e7d32"/>
<rect x="833.6" y="532.0" width="6.5" height="0.0" fill="#2e7d32" opacity="0.55"/>
<line x1="847.4" y1="220.7" x2="847.4" y2="258.4" stroke="#2e7d32" stroke-width="1"/>
<rect x="844.1" y="226.5" width="6.5" height="23.2" fill="#2e7d32"/>
<rect x="844.1" y="532.0" width="6.5" height="0.0" fill="#2e7d32" opacity="0.55"/>
<line x1="857.9" y1="177.3" x2="857.9" y2="241.0" stroke="#2e7d32" stroke-width="1"/>
<rect x="854.7" y="184.5" width="6.5" height="36.2" fill="#2e7d32"/>
<rect x="854.7" y="532.0" width="6.5" height="0.0" fill="#2e7d32" opacity="0.55"/>
<line x1="868.4" y1="167.2" x2="868.4" y2="203.4" stroke="#c62828" stroke-width="1"/>
<rect x="865.2" y="184.5" width="6.5" height="1.4" fill="#c62828"/>
<rect x="865.2" y="532.0" width="6.5" height="0.0" fill="#c62828" opacity="0.55"/>
<line x1="878.9" y1="74.5" x2="878.9" y2="225.1" stroke="#2e7d32" stroke-width="1"/>
<rect x="875.7" y="125.2" width="6.5" height="91.8" fill="#2e7d32"/>
<rect x="875.7" y="532.0" width="6.5" height="0.0" fill="#2e7d32" opacity="0.55"/>
<line x1="889.5" y1="55.7" x2="889.5" y2="212.0" stroke="#2e7d32" stroke-width="1"/>
<rect x="886.2" y="74.5" width="6.5" height="50.7" fill="#2e7d32"/>
<rect x="886.2" y="532.0" width="6.5" height="0.0" fill="#2e7d32" opacity="0.55"/>
<line x1="900.0" y1="57.2" x2="900.0" y2="152.7" stroke="#c62828" stroke-width="1"/>
<rect x="896.7" y="74.5" width="6.5" height="73.8" fill="#c62828"/>
<rect x="896.7" y="532.0" width="6.5" height="0.0" fill="#c62828" opacity="0.55"/>
<line x1="910.5" y1="129.5" x2="910.5" y2="177.3" stroke="#c62828" stroke-width="1"/>
<rect x="907.2" y="148.4" width="6.5" height="10.1" fill="#c62828"/>
<rect x="907.2" y="532.0" width="6.5" height="0.0" fill="#c62828" opacity="0.55"/>
<line x1="921.0" y1="129.5" x2="921.0" y2="162.8" stroke="#2e7d32" stroke-width="1"/>
<rect x="917.8" y="139.7" width="6.5" height="17.4" fill="#2e7d32"/>
<rect x="917.8" y="532.0" width="6.5" height="0.0" fill="#2e7d32" opacity="0.55"/>
<line x1="931.5" y1="91.9" x2="931.5" y2="149.8" stroke="#2e7d32" stroke-width="1"/>
<rect x="928.3" y="138.6" width="6.5" height="1.0" fill="#2e7d32"/>
<rect x="928.3" y="532.0" width="6.5" height="0.0" fill="#2e7d32" opacity="0.55"/>
<line x1="942.0" y1="87.6" x2="942.0" y2="141.1" stroke="#2e7d32" stroke-width="1"/>
<rect x="938.8" y="101.0" width="6.5" height="37.4" fill="#2e7d32"/>
<rect x="938.8" y="532.0" width="6.5" height="0.0" fill="#2e7d32" opacity="0.55"/>
<line x1="952.6" y1="97.7" x2="952.6" y2="142.6" stroke="#c62828" stroke-width="1"/>
<rect x="949.3" y="100.6" width="6.5" height="33.3" fill="#c62828"/>
<rect x="949.3" y="532.0" width="6.5" height="0.0" fill="#c62828" opacity="0.55"/>
<line x1="963.1" y1="128.1" x2="963.1" y2="167.2" stroke="#c62828" stroke-width="1"/>
<rect x="959.8" y="133.7" width="6.5" height="23.5" fill="#c62828"/>
<rect x="959.8" y="532.0" width="6.5" height="0.0" fill="#c62828" opacity="0.55"/>
<line x1="973.6" y1="154.1" x2="973.6" y2="186.0" stroke="#c62828" stroke-width="1"/>
<rect x="970.3" y="161.2" width="6.5" height="24.8" fill="#c62828"/>
<rect x="970.3" y="532.0" width="6.5" height="0.0" fill="#c62828" opacity="0.55"/>
<line x1="984.1" y1="147.6" x2="984.1" y2="186.0" stroke="#2e7d32" stroke-width="1"/>
<rect x="980.8" y="168.2" width="6.5" height="17.8" fill="#2e7d32"/>
<rect x="980.8" y="532.0" width="6.5" height="0.0" fill="#2e7d32" opacity="0.55"/>
<line x1="994.6" y1="139.7" x2="994.6" y2="171.5" stroke="#c62828" stroke-width="1"/>
<rect x="991.4" y="167.2" width="6.5" height="4.3" fill="#c62828"/>
<rect x="991.4" y="532.0" width="6.5" height="0.0" fill="#c62828" opacity="0.55"/>
<line x1="1005.1" y1="164.3" x2="1005.1" y2="197.6" stroke="#c62828" stroke-width="1"/>
<rect x="1001.9" y="171.4" width="6.5" height="26.2" fill="#c62828"/>
<rect x="1001.9" y="532.0" width="6.5" height="0.0" fill="#c62828" opacity="0.55"/>
<line x1="1015.6" y1="188.9" x2="1015.6" y2="206.2" stroke="#c62828" stroke-width="1"/>
<rect x="1012.4" y="196.1" width="6.5" height="1.0" fill="#c62828"/>
<rect x="1012.4" y="532.0" width="6.5" height="0.0" fill="#c62828" opacity="0.55"/>
<line x1="1026.2" y1="178.7" x2="1026.2" y2="203.4" stroke="#2e7d32" stroke-width="1"/>
<rect x="1022.9" y="190.4" width="6.5" height="7.2" fill="#2e7d32"/>
<rect x="1022.9" y="532.0" width="6.5" height="0.0" fill="#2e7d32" opacity="0.55"/>
<line x1="1036.7" y1="184.5" x2="1036.7" y2="203.4" stroke="#c62828" stroke-width="1"/>
<rect x="1033.4" y="190.4" width="6.5" height="10.1" fill="#c62828"/>
<rect x="1033.4" y="532.0" width="6.5" height="0.0" fill="#c62828" opacity="0.55"/>
<line x1="1047.2" y1="171.5" x2="1047.2" y2="201.9" stroke="#2e7d32" stroke-width="1"/>
<rect x="1043.9" y="179.5" width="6.5" height="22.4" fill="#2e7d32"/>
<rect x="1043.9" y="532.0" width="6.5" height="0.0" fill="#2e7d32" opacity="0.55"/>
<line x1="1057.7" y1="178.7" x2="1057.7" y2="193.2" stroke="#c62828" stroke-width="1"/>
<rect x="1054.5" y="178.9" width="6.5" height="7.1" fill="#c62828"/>
<rect x="1054.5" y="532.0" width="6.5" height="0.0" fill="#c62828" opacity="0.55"/>
<line x1="1068.2" y1="184.4" x2="1068.2" y2="190.3" stroke="#2e7d32" stroke-width="1"/>
<rect x="1065.0" y="184.4" width="6.5" height="4.3" fill="#2e7d32"/>
<rect x="1065.0" y="532.0" width="6.5" height="0.0" fill="#2e7d32" opacity="0.55"/>
<line x1="1078.7" y1="183.2" x2="1078.7" y2="183.2" stroke="#2e7d32" stroke-width="1"/>
<rect x="1075.5" y="183.2" width="6.5" height="1.0" fill="#2e7d32"/>
<rect x="1075.5" y="532.0" width="6.5" height="0.0" fill="#2e7d32" opacity="0.55"/>
<line x1="64" y1="532" x2="1084" y2="532" stroke="#ccc"/>
<text x="58" y="420" font-size="9" fill="#999" text-anchor="end">0.0M</text>
<line x1="69.3" y1="532" x2="69.3" y2="536" stroke="#999"/>
<text x="69.3" y="547.0" font-size="9" fill="#666" text-anchor="middle">07/09 04:00</text>
<line x1="237.5" y1="532" x2="237.5" y2="536" stroke="#999"/>
<text x="237.5" y="547.0" font-size="9" fill="#666" text-anchor="middle">08:15</text>
<line x1="405.8" y1="532" x2="405.8" y2="536" stroke="#999"/>
<text x="405.8" y="547.0" font-size="9" fill="#666" text-anchor="middle">13:50</text>
<line x1="574.0" y1="532" x2="574.0" y2="536" stroke="#999"/>
<text x="574.0" y="547.0" font-size="9" fill="#666" text-anchor="middle">17:05</text>
<line x1="742.2" y1="532" x2="742.2" y2="536" stroke="#999"/>
<text x="742.2" y="547.0" font-size="9" fill="#666" text-anchor="middle">18:55</text>
<line x1="910.5" y1="532" x2="910.5" y2="536" stroke="#999"/>
<text x="910.5" y="547.0" font-size="9" fill="#666" text-anchor="middle">07/10 04:15</text>
<line x1="1078.7" y1="532" x2="1078.7" y2="536" stroke="#999"/>
<text x="1078.7" y="547.0" font-size="9" fill="#666" text-anchor="middle">05:31</text>
<text x="64" y="22" font-size="15" font-weight="bold" fill="#1a1a1a">GMM - Global Mofy AI Limited</text>
<text x="1084" y="22" font-size="11" fill="#666" text-anchor="end">last $3.22 (+69.4% over window)</text>
<rect x="934" y="28" width="10" height="8" fill="#e8f0fe"/>
<text x="948" y="35" font-size="9" fill="#666">premarket</text>
<rect x="1006" y="28" width="10" height="8" fill="#fff4e0"/>
<text x="1020" y="35" font-size="9" fill="#666">after-hrs</text>
</svg>