<svg xmlns="http://www.w3.org/2000/svg" width="1100" height="560" viewBox="0 0 1100 560" font-family="Arial,Helvetica,sans-serif">
<rect width="1100" height="560" fill="white"/>
<rect x="64.0" y="36" width="225.4" height="496.0" fill="#e8f0fe"/>
<rect x="700.8" y="36" width="270.5" height="496.0" fill="#fff4e0"/>
<rect x="971.3" y="36" width="112.7" height="496.0" fill="#e8f0fe"/>
<line x1="64" y1="404.0" x2="1084" y2="404.0" stroke="#e6e6e6"/>
<text x="58" y="407.0" font-size="10" fill="#666" text-anchor="end">$2.41</text>
<line x1="64" y1="312.0" x2="1084" y2="312.0" stroke="#e6e6e6"/>
<text x="58" y="315.0" font-size="10" fill="#666" text-anchor="end">$2.96</text>
<line x1="64" y1="220.0" x2="1084" y2="220.0" stroke="#e6e6e6"/>
<text x="58" y="223.0" font-size="10" fill="#666" text-anchor="end">$3.51</text>
<line x1="64" y1="128.0" x2="1084" y2="128.0" stroke="#e6e6e6"/>
<text x="58" y="131.0" font-size="10" fill="#666" text-anchor="end">$4.07</text>
<line x1="64" y1="36.0" x2="1084" y2="36.0" stroke="#e6e6e6"/>
<text x="58" y="39.0" font-size="10" fill="#666" text-anchor="end">$4.62</text>
<line x1="66.8" y1="358.5" x2="66.8" y2="384.3" stroke="#2e7d32" stroke-width="1"/>
<rect x="65.1" y="358.5" width="3.5" height="16.6" fill="#2e7d32"/>
<rect x="65.1" y="531.4" width="3.5" height="0.6" fill="#2e7d32" opacity="0.55"/>
<line x1="72.5" y1="363.5" x2="72.5" y2="370.2" stroke="#c62828" stroke-width="1"/>
<rect x="70.7" y="363.5" width="3.5" height="6.7" fill="#c62828"/>
<rect x="70.7" y="532.0" width="3.5" height="0.0" fill="#c62828" opacity="0.55"/>
<line x1="78.1" y1="375.2" x2="78.1" y2="375.2" stroke="#2e7d32" stroke-width="1"/>
<rect x="76.3" y="375.2" width="3.5" height="1.0" fill="#2e7d32"/>
<rect x="76.3" y="532.0" width="3.5" height="0.0" fill="#2e7d32" opacity="0.55"/>
<line x1="83.7" y1="371.8" x2="83.7" y2="371.8" stroke="#2e7d32" stroke-width="1"/>
<rect x="82.0" y="371.8" width="3.5" height="1.0" fill="#2e7d32"/>
<rect x="82.0" y="531.8" width="3.5" height="0.2" fill="#2e7d32" opacity="0.55"/>
<line x1="89.4" y1="373.5" x2="89.4" y2="382.7" stroke="#2e7d32" stroke-width="1"/>
<rect x="87.6" y="373.5" width="3.5" height="9.2" fill="#2e7d32"/>
<rect x="87.6" y="530.9" width="3.5" height="1.1" fill="#2e7d32" opacity="0.55"/>
<line x1="95.0" y1="380.2" x2="95.0" y2="380.2" stroke="#2e7d32" stroke-width="1"/>
<rect x="93.2" y="380.2" width="3.5" height="1.0" fill="#2e7d32"/>
<rect x="93.2" y="531.9" width="3.5" height="0.1" fill="#2e7d32" opacity="0.55"/>
<line x1="100.6" y1="366.8" x2="100.6" y2="366.8" stroke="#2e7d32" stroke-width="1"/>
<rect x="98.9" y="366.8" width="3.5" height="1.0" fill="#2e7d32"/>
<rect x="98.9" y="532.0" width="3.5" height="0.0" fill="#2e7d32" opacity="0.55"/>
<line x1="106.3" y1="383.5" x2="106.3" y2="383.5" stroke="#2e7d32" stroke-width="1"/>
<rect x="104.5" y="383.5" width="3.5" height="1.0" fill="#2e7d32"/>
<rect x="104.5" y="532.0" width="3.5" height="0.0" fill="#2e7d32" opacity="0.55"/>
<line x1="111.9" y1="382.2" x2="111.9" y2="382.2" stroke="#2e7d32" stroke-width="1"/>
<rect x="110.2" y="382.2" width="3.5" height="1.0" fill="#2e7d32"/>
<rect x="110.2" y="532.0" width="3.5" height="0.0" fill="#2e7d32" opacity="0.55"/>
<line x1="117.5" y1="368.5" x2="117.5" y2="370.2" stroke="#2e7d32" stroke-width="1"/>
<rect x="115.8" y="368.5" width="3.5" height="1.7" fill="#2e7d32"/>
<rect x="115.8" y="531.9" width="3.5" height="0.1" fill="#2e7d32" opacity="0.55"/>
<line x1="123.2" y1="369.3" x2="123.2" y2="369.3" stroke="#2e7d32" stroke-width="1"/>
<rect x="121.4" y="369.3" width="3.5" height="1.0" fill="#2e7d32"/>
<rect x="121.4" y="532.0" width="3.5" height="0.0" fill="#2e7d32" opacity="0.55"/>
<line x1="128.8" y1="368.5" x2="128.8" y2="369.3" stroke="#2e7d32" stroke-width="1"/>
<rect x="127.1" y="368.5" width="3.5" height="1.0" fill="#2e7d32"/>
<rect x="127.1" y="532.0" width="3.5" height="0.0" fill="#2e7d32" opacity="0.55"/>
<line x1="134.4" y1="374.8" x2="134.4" y2="374.8" stroke="#2e7d32" stroke-width="1"/>
<rect x="132.7" y="374.8" width="3.5" height="1.0" fill="#2e7d32"/>
<rect x="132.7" y="532.0" width="3.5" height="0.0" fill="#2e7d32" opacity="0.55"/>
<line x1="140.1" y1="373.5" x2="140.1" y2="383.5" stroke="#c62828" stroke-width="1"/>
<rect x="138.3" y="373.5" width="3.5" height="10.0" fill="#c62828"/>
<rect x="138.3" y="530.3" width="3.5" height="1.7" fill="#c62828" opacity="0.55"/>
<line x1="145.7" y1="368.5" x2="145.7" y2="383.5" stroke="#2e7d32" stroke-width="1"/>
<rect x="144.0" y="370.2" width="3.5" height="13.3" fill="#2e7d32"/>
<rect x="144.0" y="531.5" width="3.5" height="0.5" fill="#2e7d32" opacity="0.55"/>
<line x1="151.3" y1="368.5" x2="151.3" y2="371.8" stroke="#2e7d32" stroke-width="1"/>
<rect x="149.6" y="371.8" width="3.5" height="1.0" fill="#2e7d32"/>
<rect x="149.6" y="530.4" width="3.5" height="1.6" fill="#2e7d32" opacity="0.55"/>
<line x1="157.0" y1="368.5" x2="157.0" y2="371.8" stroke="#2e7d32" stroke-width="1"/>
<rect x="155.2" y="368.5" width="3.5" height="3.3" fill="#2e7d32"/>
<rect x="155.2" y="531.3" width="3.5" height="0.7" fill="#2e7d32" opacity="0.55"/>
<line x1="162.6" y1="368.5" x2="162.6" y2="371.8" stroke="#2e7d32" stroke-width="1"/>
<rect x="160.9" y="368.5" width="3.5" height="3.3" fill="#2e7d32"/>
<rect x="160.9" y="532.0" width="3.5" height="0.0" fill="#2e7d32" opacity="0.55"/>
<line x1="168.3" y1="363.5" x2="168.3" y2="363.5" stroke="#2e7d32" stroke-width="1"/>
<rect x="166.5" y="363.5" width="3.5" height="1.0" fill="#2e7d32"/>
<rect x="166.5" y="532.0" width="3.5" height="0.0" fill="#2e7d32" opacity="0.55"/>
<line x1="173.9" y1="355.2" x2="173.9" y2="371.8" stroke="#c62828" stroke-width="1"/>
<rect x="172.1" y="355.2" width="3.5" height="16.6" fill="#c62828"/>
<rect x="172.1" y="530.8" width="3.5" height="1.2" fill="#c62828" opacity="0.55"/>
<line x1="179.5" y1="370.2" x2="179.5" y2="370.2" stroke="#c62828" stroke-width="1"/>
<rect x="177.8" y="370.2" width="3.5" height="1.0" fill="#c62828"/>
<rect x="177.8" y="531.9" width="3.5" height="0.1" fill="#c62828" opacity="0.55"/>
<line x1="185.2" y1="370.2" x2="185.2" y2="370.2" stroke="#2e7d32" stroke-width="1"/>
<rect x="183.4" y="370.2" width="3.5" height="1.0" fill="#2e7d32"/>
<rect x="183.4" y="531.0" width="3.5" height="1.0" fill="#2e7d32" opacity="0.55"/>
<line x1="190.8" y1="355.2" x2="190.8" y2="371.8" stroke="#2e7d32" stroke-width="1"/>
<rect x="189.0" y="355.2" width="3.5" height="16.6" fill="#2e7d32"/>
<rect x="189.0" y="531.7" width="3.5" height="0.3" fill="#2e7d32" opacity="0.55"/>
<line x1="196.4" y1="363.5" x2="196.4" y2="371.8" stroke="#c62828" stroke-width="1"/>
<rect x="194.7" y="363.5" width="3.5" height="8.3" fill="#c62828"/>
<rect x="194.7" y="532.0" width="3.5" height="0.0" fill="#c62828" opacity="0.55"/>
<line x1="202.1" y1="363.5" x2="202.1" y2="363.5" stroke="#2e7d32" stroke-width="1"/>
<rect x="200.3" y="363.5" width="3.5" height="1.0" fill="#2e7d32"/>
<rect x="200.3" y="531.9" width="3.5" height="0.1" fill="#2e7d32" opacity="0.55"/>
<line x1="207.7" y1="368.5" x2="207.7" y2="368.5" stroke="#2e7d32" stroke-width="1"/>
<rect x="206.0" y="368.5" width="3.5" height="1.0" fill="#2e7d32"/>
<rect x="206.0" y="532.0" width="3.5" height="0.0" fill="#2e7d32" opacity="0.55"/>
<line x1="213.3" y1="371.9" x2="213.3" y2="380.2" stroke="#c62828" stroke-width="1"/>
<rect x="211.6" y="371.9" width="3.5" height="8.2" fill="#c62828"/>
<rect x="211.6" y="531.8" width="3.5" height="0.2" fill="#c62828" opacity="0.55"/>
<line x1="219.0" y1="378.5" x2="219.0" y2="378.5" stroke="#2e7d32" stroke-width="1"/>
<rect x="217.2" y="378.5" width="3.5" height="1.0" fill="#2e7d32"/>
<rect x="217.2" y="531.8" width="3.5" height="0.2" fill="#2e7d32" opacity="0.55"/>
<line x1="224.6" y1="378.4" x2="224.6" y2="378.5" stroke="#2e7d32" stroke-width="1"/>
<rect x="222.9" y="378.4" width="3.5" height="1.0" fill="#2e7d32"/>
<rect x="222.9" y="532.0" width="3.5" height="0.0" fill="#2e7d32" opacity="0.55"/>
<line x1="230.2" y1="373.5" x2="230.2" y2="378.5" stroke="#2e7d32" stroke-width="1"/>
<rect x="228.5" y="373.5" width="3.5" height="5.0" fill="#2e7d32"/>
<rect x="228.5" y="531.9" width="3.5" height="0.1" fill="#2e7d32" opacity="0.55"/>
<line x1="235.9" y1="380.0" x2="235.9" y2="380.0" stroke="#2e7d32" stroke-width="1"/>
<rect x="234.1" y="380.0" width="3.5" height="1.0" fill="#2e7d32"/>
<rect x="234.1" y="532.0" width="3.5" height="0.0" fill="#2e7d32" opacity="0.55"/>
<line x1="241.5" y1="380.2" x2="241.5" y2="380.2" stroke="#2e7d32" stroke-width="1"/>
<rect x="239.8" y="380.2" width="3.5" height="1.0" fill="#2e7d32"/>
<rect x="239.8" y="532.0" width="3.5" height="0.0" fill="#2e7d32" opacity="0.55"/>
<line x1="247.1" y1="371.8" x2="247.1" y2="380.2" stroke="#2e7d32" stroke-width="1"/>
<rect x="245.4" y="371.8" width="3.5" height="6.7" fill="#2e7d32"/>
<rect x="245.4" y="532.0" width="3.5" height="0.0" fill="#2e7d32" opacity="0.55"/>
<line x1="252.8" y1="371.8" x2="252.8" y2="378.5" stroke="#c62828" stroke-width="1"/>
<rect x="251.0" y="371.8" width="3.5" height="5.0" fill="#c62828"/>
<rect x="251.0" y="531.6" width="3.5" height="0.4" fill="#c62828" opacity="0.55"/>
<line x1="258.4" y1="363.5" x2="258.4" y2="378.5" stroke="#2e7d32" stroke-width="1"/>
<rect x="256.7" y="363.5" width="3.5" height="15.0" fill="#2e7d32"/>
<rect x="256.7" y="532.0" width="3.5" height="0.0" fill="#2e7d32" opacity="0.55"/>
<line x1="264.1" y1="363.5" x2="264.1" y2="363.5" stroke="#2e7d32" stroke-width="1"/>
<rect x="262.3" y="363.5" width="3.5" height="1.0" fill="#2e7d32"/>
<rect x="262.3" y="531.9" width="3.5" height="0.1" fill="#2e7d32" opacity="0.55"/>
<line x1="269.7" y1="363.5" x2="269.7" y2="363.5" stroke="#2e7d32" stroke-width="1"/>
<rect x="267.9" y="363.5" width="3.5" height="1.0" fill="#2e7d32"/>
<rect x="267.9" y="532.0" width="3.5" height="0.0" fill="#2e7d32" opacity="0.55"/>
<line x1="275.3" y1="368.5" x2="275.3" y2="368.5" stroke="#2e7d32" stroke-width="1"/>
<rect x="273.6" y="368.5" width="3.5" height="1.0" fill="#2e7d32"/>
<rect x="273.6" y="531.9" width="3.5" height="0.1" fill="#2e7d32" opacity="0.55"/>
<line x1="281.0" y1="368.5" x2="281.0" y2="368.5" stroke="#2e7d32" stroke-width="1"/>
<rect x="279.2" y="368.5" width="3.5" height="1.0" fill="#2e7d32"/>
<rect x="279.2" y="532.0" width="3.5" height="0.0" fill="#2e7d32" opacity="0.55"/>
<line x1="286.6" y1="351.9" x2="286.6" y2="368.5" stroke="#2e7d32" stroke-width="1"/>
<rect x="284.8" y="351.9" width="3.5" height="16.6" fill="#2e7d32"/>
<rect x="284.8" y="531.8" width="3.5" height="0.2" fill="#2e7d32" opacity="0.55"/>
<line x1="292.2" y1="352.6" x2="292.2" y2="366.8" stroke="#2e7d32" stroke-width="1"/>
<rect x="290.5" y="359.4" width="3.5" height="5.8" fill="#2e7d32"/>
<rect x="290.5" y="516.8" width="3.5" height="15.2" fill="#2e7d32" opacity="0.55"/>
<line x1="297.9" y1="330.2" x2="297.9" y2="361.9" stroke="#2e7d32" stroke-width="1"/>
<rect x="296.1" y="331.9" width="3.5" height="29.9" fill="#2e7d32"/>
<rect x="296.1" y="526.2" width="3.5" height="5.8" fill="#2e7d32" opacity="0.55"/>
<line x1="303.5" y1="315.3" x2="303.5" y2="340.2" stroke="#2e7d32" stroke-width="1"/>
<rect x="301.8" y="322.2" width="3.5" height="16.4" fill="#2e7d32"/>
<rect x="301.8" y="526.0" width="3.5" height="6.0" fill="#2e7d32" opacity="0.55"/>
<line x1="309.1" y1="280.3" x2="309.1" y2="335.2" stroke="#2e7d32" stroke-width="1"/>
<rect x="307.4" y="307.0" width="3.5" height="15.0" fill="#2e7d32"/>
<rect x="307.4" y="519.6" width="3.5" height="12.4" fill="#2e7d32" opacity="0.55"/>
<line x1="314.8" y1="302.0" x2="314.8" y2="328.6" stroke="#c62828" stroke-width="1"/>
<rect x="313.0" y="311.9" width="3.5" height="4.2" fill="#c62828"/>
<rect x="313.0" y="530.6" width="3.5" height="1.4" fill="#c62828" opacity="0.55"/>
<line x1="320.4" y1="311.1" x2="320.4" y2="318.9" stroke="#c62828" stroke-width="1"/>
<rect x="318.7" y="311.9" width="3.5" height="3.3" fill="#c62828"/>
<rect x="318.7" y="530.9" width="3.5" height="1.1" fill="#c62828" opacity="0.55"/>
<line x1="326.0" y1="313.6" x2="326.0" y2="321.9" stroke="#c62828" stroke-width="1"/>
<rect x="324.3" y="313.6" width="3.5" height="6.6" fill="#c62828"/>
<rect x="324.3" y="530.4" width="3.5" height="1.6" fill="#c62828" opacity="0.55"/>
<line x1="331.7" y1="312.8" x2="331.7" y2="318.6" stroke="#2e7d32" stroke-width="1"/>
<rect x="329.9" y="314.2" width="3.5" height="1.0" fill="#2e7d32"/>
<rect x="329.9" y="531.3" width="3.5" height="0.7" fill="#2e7d32" opacity="0.55"/>
<line x1="337.3" y1="292.3" x2="337.3" y2="314.6" stroke="#2e7d32" stroke-width="1"/>
<rect x="335.6" y="298.6" width="3.5" height="15.0" fill="#2e7d32"/>
<rect x="335.6" y="528.4" width="3.5" height="3.6" fill="#2e7d32" opacity="0.55"/>
<line x1="343.0" y1="298.6" x2="343.0" y2="312.8" stroke="#c62828" stroke-width="1"/>
<rect x="341.2" y="298.6" width="3.5" height="10.0" fill="#c62828"/>
<rect x="341.2" y="523.1" width="3.5" height="8.9" fill="#c62828" opacity="0.55"/>
<line x1="348.6" y1="298.6" x2="348.6" y2="316.6" stroke="#2e7d32" stroke-width="1"/>
<rect x="346.8" y="302.0" width="3.5" height="6.7" fill="#2e7d32"/>
<rect x="346.8" y="531.0" width="3.5" height="1.0" fill="#2e7d32" opacity="0.55"/>
<line x1="354.2" y1="308.6" x2="354.2" y2="311.9" stroke="#c62828" stroke-width="1"/>
<rect x="352.5" y="308.6" width="3.5" height="1.7" fill="#c62828"/>
<rect x="352.5" y="531.6" width="3.5" height="0.4" fill="#c62828" opacity="0.55"/>
<line x1="359.9" y1="305.3" x2="359.9" y2="317.8" stroke="#c62828" stroke-width="1"/>
<rect x="358.1" y="307.0" width="3.5" height="10.8" fill="#c62828"/>
<rect x="358.1" y="530.4" width="3.5" height="1.6" fill="#c62828" opacity="0.55"/>
<line x1="365.5" y1="314.4" x2="365.5" y2="321.8" stroke="#2e7d32" stroke-width="1"/>
<rect x="363.7" y="314.4" width="3.5" height="7.4" fill="#2e7d32"/>
<rect x="363.7" y="530.2" width="3.5" height="1.8" fill="#2e7d32" opacity="0.55"/>
<line x1="371.1" y1="312.4" x2="371.1" y2="328.6" stroke="#c62828" stroke-width="1"/>
<rect x="369.4" y="312.4" width="3.5" height="16.2" fill="#c62828"/>
<rect x="369.4" y="527.1" width="3.5" height="4.9" fill="#c62828" opacity="0.55"/>
<line x1="376.8" y1="324.4" x2="376.8" y2="328.6" stroke="#c62828" stroke-width="1"/>
<rect x="375.0" y="324.4" width="3.5" height="1.0" fill="#c62828"/>
<rect x="375.0" y="530.9" width="3.5" height="1.1" fill="#c62828" opacity="0.55"/>
<line x1="382.4" y1="321.9" x2="382.4" y2="325.3" stroke="#2e7d32" stroke-width="1"/>
<rect x="380.7" y="321.9" width="3.5" height="3.3" fill="#2e7d32"/>
<rect x="380.7" y="528.5" width="3.5" height="3.5" fill="#2e7d32" opacity="0.55"/>
<line x1="388.0" y1="325.3" x2="388.0" y2="326.9" stroke="#2e7d32" stroke-width="1"/>
<rect x="386.3" y="325.3" width="3.5" height="1.7" fill="#2e7d32"/>
<rect x="386.3" y="531.5" width="3.5" height="0.5" fill="#2e7d32" opacity="0.55"/>
<line x1="393.7" y1="321.9" x2="393.7" y2="335.1" stroke="#c62828" stroke-width="1"/>
<rect x="391.9" y="323.6" width="3.5" height="11.5" fill="#c62828"/>
<rect x="391.9" y="527.6" width="3.5" height="4.4" fill="#c62828" opacity="0.55"/>
<line x1="399.3" y1="331.9" x2="399.3" y2="333.6" stroke="#2e7d32" stroke-width="1"/>
<rect x="397.6" y="333.6" width="3.5" height="1.0" fill="#2e7d32"/>
<rect x="397.6" y="531.3" width="3.5" height="0.7" fill="#2e7d32" opacity="0.55"/>
<line x1="404.9" y1="333.6" x2="404.9" y2="338.2" stroke="#c62828" stroke-width="1"/>
<rect x="403.2" y="333.6" width="3.5" height="4.7" fill="#c62828"/>
<rect x="403.2" y="530.9" width="3.5" height="1.1" fill="#c62828" opacity="0.55"/>
<line x1="410.6" y1="341.1" x2="410.6" y2="343.6" stroke="#2e7d32" stroke-width="1"/>
<rect x="408.8" y="341.9" width="3.5" height="1.0" fill="#2e7d32"/>
<rect x="408.8" y="531.1" width="3.5" height="0.9" fill="#2e7d32" opacity="0.55"/>
<line x1="416.2" y1="333.6" x2="416.2" y2="335.2" stroke="#c62828" stroke-width="1"/>
<rect x="414.5" y="333.6" width="3.5" height="1.7" fill="#c62828"/>
<rect x="414.5" y="531.2" width="3.5" height="0.8" fill="#c62828" opacity="0.55"/>
<line x1="421.8" y1="321.9" x2="421.8" y2="343.6" stroke="#c62828" stroke-width="1"/>
<rect x="420.1" y="331.4" width="3.5" height="10.4" fill="#c62828"/>
<rect x="420.1" y="530.5" width="3.5" height="1.5" fill="#c62828" opacity="0.55"/>
<line x1="427.5" y1="328.6" x2="427.5" y2="345.2" stroke="#2e7d32" stroke-width="1"/>
<rect x="425.7" y="330.2" width="3.5" height="8.3" fill="#2e7d32"/>
<rect x="425.7" y="526.9" width="3.5" height="5.1" fill="#2e7d32" opacity="0.55"/>
<line x1="433.1" y1="328.6" x2="433.1" y2="341.9" stroke="#c62828" stroke-width="1"/>
<rect x="431.4" y="328.6" width="3.5" height="13.3" fill="#c62828"/>
<rect x="431.4" y="531.7" width="3.5" height="0.3" fill="#c62828" opacity="0.55"/>
<line x1="438.8" y1="338.6" x2="438.8" y2="346.9" stroke="#c62828" stroke-width="1"/>
<rect x="437.0" y="338.6" width="3.5" height="8.3" fill="#c62828"/>
<rect x="437.0" y="531.9" width="3.5" height="0.1" fill="#c62828" opacity="0.55"/>
<line x1="444.4" y1="337.7" x2="444.4" y2="346.9" stroke="#2e7d32" stroke-width="1"/>
<rect x="442.6" y="337.7" width="3.5" height="9.1" fill="#2e7d32"/>
<rect x="442.6" y="530.9" width="3.5" height="1.1" fill="#2e7d32" opacity="0.55"/>
<line x1="450.0" y1="336.9" x2="450.0" y2="336.9" stroke="#2e7d32" stroke-width="1"/>
<rect x="448.3" y="336.9" width="3.5" height="1.0" fill="#2e7d32"/>
<rect x="448.3" y="532.0" width="3.5" height="0.0" fill="#2e7d32" opacity="0.55"/>
<line x1="455.7" y1="341.1" x2="455.7" y2="345.2" stroke="#c62828" stroke-width="1"/>
<rect x="453.9" y="343.6" width="3.5" height="1.7" fill="#c62828"/>
<rect x="453.9" y="531.7" width="3.5" height="0.3" fill="#c62828" opacity="0.55"/>
<line x1="461.3" y1="348.5" x2="461.3" y2="358.5" stroke="#c62828" stroke-width="1"/>
<rect x="459.5" y="348.5" width="3.5" height="8.3" fill="#c62828"/>
<rect x="459.5" y="531.6" width="3.5" height="0.4" fill="#c62828" opacity="0.55"/>
<line x1="466.9" y1="345.2" x2="466.9" y2="355.2" stroke="#c62828" stroke-width="1"/>
<rect x="465.2" y="345.2" width="3.5" height="2.2" fill="#c62828"/>
<rect x="465.2" y="531.5" width="3.5" height="0.5" fill="#c62828" opacity="0.55"/>
<line x1="472.6" y1="345.2" x2="472.6" y2="345.2" stroke="#2e7d32" stroke-width="1"/>
<rect x="470.8" y="345.2" width="3.5" height="1.0" fill="#2e7d32"/>
<rect x="470.8" y="532.0" width="3.5" height="0.0" fill="#2e7d32" opacity="0.55"/>
<line x1="478.2" y1="350.2" x2="478.2" y2="353.4" stroke="#c62828" stroke-width="1"/>
<rect x="476.5" y="350.2" width="3.5" height="3.2" fill="#c62828"/>
<rect x="476.5" y="531.8" width="3.5" height="0.2" fill="#c62828" opacity="0.55"/>
<line x1="483.8" y1="351.0" x2="483.8" y2="356.8" stroke="#c62828" stroke-width="1"/>
<rect x="482.1" y="351.0" width="3.5" height="5.7" fill="#c62828"/>
<rect x="482.1" y="531.7" width="3.5" height="0.3" fill="#c62828" opacity="0.55"/>
<line x1="489.5" y1="350.2" x2="489.5" y2="353.5" stroke="#c62828" stroke-width="1"/>
<rect x="487.7" y="350.2" width="3.5" height="3.3" fill="#c62828"/>
<rect x="487.7" y="531.9" width="3.5" height="0.1" fill="#c62828" opacity="0.55"/>
<line x1="495.1" y1="341.9" x2="495.1" y2="353.5" stroke="#c62828" stroke-width="1"/>
<rect x="493.4" y="350.2" width="3.5" height="1.3" fill="#c62828"/>
<rect x="493.4" y="530.8" width="3.5" height="1.2" fill="#c62828" opacity="0.55"/>
<line x1="500.7" y1="347.7" x2="500.7" y2="347.7" stroke="#2e7d32" stroke-width="1"/>
<rect x="499.0" y="347.7" width="3.5" height="1.0" fill="#2e7d32"/>
<rect x="499.0" y="532.0" width="3.5" height="0.0" fill="#2e7d32" opacity="0.55"/>
<line x1="506.4" y1="348.5" x2="506.4" y2="348.5" stroke="#2e7d32" stroke-width="1"/>
<rect x="504.6" y="348.5" width="3.5" height="1.0" fill="#2e7d32"/>
<rect x="504.6" y="532.0" width="3.5" height="0.0" fill="#2e7d32" opacity="0.55"/>
<line x1="512.0" y1="346.1" x2="512.0" y2="346.9" stroke="#c62828" stroke-width="1"/>
<rect x="510.3" y="346.1" width="3.5" height="1.0" fill="#c62828"/>
<rect x="510.3" y="531.8" width="3.5" height="0.2" fill="#c62828" opacity="0.55"/>
<line x1="517.6" y1="327.3" x2="517.6" y2="339.4" stroke="#2e7d32" stroke-width="1"/>
<rect x="515.9" y="327.3" width="3.5" height="12.1" fill="#2e7d32"/>
<rect x="515.9" y="531.6" width="3.5" height="0.4" fill="#2e7d32" opacity="0.55"/>
<line x1="523.3" y1="307.0" x2="523.3" y2="323.6" stroke="#2e7d32" stroke-width="1"/>
<rect x="521.5" y="311.4" width="3.5" height="10.5" fill="#2e7d32"/>
<rect x="521.5" y="529.8" width="3.5" height="2.2" fill="#2e7d32" opacity="0.55"/>
<line x1="528.9" y1="305.6" x2="528.9" y2="310.3" stroke="#2e7d32" stroke-width="1"/>
<rect x="527.2" y="306.6" width="3.5" height="1.0" fill="#2e7d32"/>
<rect x="527.2" y="531.0" width="3.5" height="1.0" fill="#2e7d32" opacity="0.55"/>
<line x1="534.6" y1="298.6" x2="534.6" y2="310.3" stroke="#2e7d32" stroke-width="1"/>
<rect x="532.8" y="305.3" width="3.5" height="5.0" fill="#2e7d32"/>
<rect x="532.8" y="529.0" width="3.5" height="3.0" fill="#2e7d32" opacity="0.55"/>
<line x1="540.2" y1="305.3" x2="540.2" y2="307.0" stroke="#2e7d32" stroke-width="1"/>
<rect x="538.4" y="305.3" width="3.5" height="1.7" fill="#2e7d32"/>
<rect x="538.4" y="532.0" width="3.5" height="0.0" fill="#2e7d32" opacity="0.55"/>
<line x1="545.8" y1="305.3" x2="545.8" y2="305.3" stroke="#2e7d32" stroke-width="1"/>
<rect x="544.1" y="305.3" width="3.5" height="1.0" fill="#2e7d32"/>
<rect x="544.1" y="531.8" width="3.5" height="0.2" fill="#2e7d32" opacity="0.55"/>
<line x1="551.5" y1="293.7" x2="551.5" y2="305.3" stroke="#2e7d32" stroke-width="1"/>
<rect x="549.7" y="303.6" width="3.5" height="1.7" fill="#2e7d32"/>
<rect x="549.7" y="529.6" width="3.5" height="2.4" fill="#2e7d32" opacity="0.55"/>
<line x1="557.1" y1="293.6" x2="557.1" y2="311.9" stroke="#c62828" stroke-width="1"/>
<rect x="555.3" y="297.0" width="3.5" height="8.9" fill="#c62828"/>
<rect x="555.3" y="528.8" width="3.5" height="3.2" fill="#c62828" opacity="0.55"/>
<line x1="562.7" y1="300.3" x2="562.7" y2="305.3" stroke="#2e7d32" stroke-width="1"/>
<rect x="561.0" y="302.0" width="3.5" height="3.3" fill="#2e7d32"/>
<rect x="561.0" y="531.1" width="3.5" height="0.9" fill="#2e7d32" opacity="0.55"/>
<line x1="568.4" y1="301.1" x2="568.4" y2="305.3" stroke="#2e7d32" stroke-width="1"/>
<rect x="566.6" y="301.1" width="3.5" height="4.1" fill="#2e7d32"/>
<rect x="566.6" y="531.8" width="3.5" height="0.2" fill="#2e7d32" opacity="0.55"/>
<line x1="574.0" y1="293.6" x2="574.0" y2="300.3" stroke="#2e7d32" stroke-width="1"/>
<rect x="572.3" y="297.0" width="3.5" height="3.3" fill="#2e7d32"/>
<rect x="572.3" y="530.2" width="3.5" height="1.8" fill="#2e7d32" opacity="0.55"/>
<line x1="579.6" y1="298.6" x2="579.6" y2="313.6" stroke="#c62828" stroke-width="1"/>
<rect x="577.9" y="298.6" width="3.5" height="8.3" fill="#c62828"/>
<rect x="577.9" y="530.7" width="3.5" height="1.3" fill="#c62828" opacity="0.55"/>
<line x1="585.3" y1="298.6" x2="585.3" y2="307.0" stroke="#2e7d32" stroke-width="1"/>
<rect x="583.5" y="303.6" width="3.5" height="3.3" fill="#2e7d32"/>
<rect x="583.5" y="530.9" width="3.5" height="1.1" fill="#2e7d32" opacity="0.55"/>
<line x1="590.9" y1="305.3" x2="590.9" y2="313.6" stroke="#c62828" stroke-width="1"/>
<rect x="589.2" y="305.3" width="3.5" height="8.3" fill="#c62828"/>
<rect x="589.2" y="529.9" width="3.5" height="2.1" fill="#c62828" opacity="0.55"/>
<line x1="596.5" y1="305.4" x2="596.5" y2="311.3" stroke="#2e7d32" stroke-width="1"/>
<rect x="594.8" y="309.4" width="3.5" height="1.0" fill="#2e7d32"/>
<rect x="594.8" y="531.5" width="3.5" height="0.5" fill="#2e7d32" opacity="0.55"/>
<line x1="602.2" y1="308.6" x2="602.2" y2="308.6" stroke="#2e7d32" stroke-width="1"/>
<rect x="600.4" y="308.6" width="3.5" height="1.0" fill="#2e7d32"/>
<rect x="600.4" y="532.0" width="3.5" height="0.0" fill="#2e7d32" opacity="0.55"/>
<line x1="607.8" y1="310.1" x2="607.8" y2="311.9" stroke="#c62828" stroke-width="1"/>
<rect x="606.1" y="310.1" width="3.5" height="1.8" fill="#c62828"/>
<rect x="606.1" y="531.7" width="3.5" height="0.3" fill="#c62828" opacity="0.55"/>
<line x1="613.4" y1="313.6" x2="613.4" y2="318.6" stroke="#c62828" stroke-width="1"/>
<rect x="611.7" y="313.6" width="3.5" height="5.0" fill="#c62828"/>
<rect x="611.7" y="531.1" width="3.5" height="0.9" fill="#c62828" opacity="0.55"/>
<line x1="619.1" y1="311.9" x2="619.1" y2="321.9" stroke="#2e7d32" stroke-width="1"/>
<rect x="617.3" y="315.3" width="3.5" height="6.6" fill="#2e7d32"/>
<rect x="617.3" y="530.8" width="3.5" height="1.2" fill="#2e7d32" opacity="0.55"/>
<line x1="624.7" y1="315.3" x2="624.7" y2="315.3" stroke="#2e7d32" stroke-width="1"/>
<rect x="623.0" y="315.3" width="3.5" height="1.0" fill="#2e7d32"/>
<rect x="623.0" y="531.9" width="3.5" height="0.1" fill="#2e7d32" opacity="0.55"/>
<line x1="630.4" y1="314.6" x2="630.4" y2="340.2" stroke="#c62828" stroke-width="1"/>
<rect x="628.6" y="315.3" width="3.5" height="11.6" fill="#c62828"/>
<rect x="628.6" y="527.9" width="3.5" height="4.1" fill="#c62828" opacity="0.55"/>
<line x1="636.0" y1="315.3" x2="636.0" y2="315.3" stroke="#2e7d32" stroke-width="1"/>
<rect x="634.2" y="315.3" width="3.5" height="1.0" fill="#2e7d32"/>
<rect x="634.2" y="531.6" width="3.5" height="0.4" fill="#2e7d32" opacity="0.55"/>
<line x1="641.6" y1="325.3" x2="641.6" y2="326.9" stroke="#c62828" stroke-width="1"/>
<rect x="639.9" y="325.3" width="3.5" height="1.7" fill="#c62828"/>
<rect x="639.9" y="531.9" width="3.5" height="0.1" fill="#c62828" opacity="0.55"/>
<line x1="647.3" y1="315.3" x2="647.3" y2="326.9" stroke="#2e7d32" stroke-width="1"/>
<rect x="645.5" y="321.9" width="3.5" height="5.0" fill="#2e7d32"/>
<rect x="645.5" y="529.6" width="3.5" height="2.4" fill="#2e7d32" opacity="0.55"/>
<line x1="652.9" y1="315.3" x2="652.9" y2="316.9" stroke="#c62828" stroke-width="1"/>
<rect x="651.1" y="315.3" width="3.5" height="1.7" fill="#c62828"/>
<rect x="651.1" y="531.8" width="3.5" height="0.2" fill="#c62828" opacity="0.55"/>
<line x1="658.5" y1="315.3" x2="658.5" y2="328.6" stroke="#2e7d32" stroke-width="1"/>
<rect x="656.8" y="316.9" width="3.5" height="11.6" fill="#2e7d32"/>
<rect x="656.8" y="529.2" width="3.5" height="2.8" fill="#2e7d32" opacity="0.55"/>
<line x1="664.2" y1="300.3" x2="664.2" y2="313.6" stroke="#c62828" stroke-width="1"/>
<rect x="662.4" y="311.9" width="3.5" height="1.7" fill="#c62828"/>
<rect x="662.4" y="530.9" width="3.5" height="1.1" fill="#c62828" opacity="0.55"/>
<line x1="669.8" y1="311.1" x2="669.8" y2="315.5" stroke="#c62828" stroke-width="1"/>
<rect x="668.1" y="311.1" width="3.5" height="4.3" fill="#c62828"/>
<rect x="668.1" y="531.8" width="3.5" height="0.2" fill="#c62828" opacity="0.55"/>
<line x1="675.4" y1="302.0" x2="675.4" y2="316.9" stroke="#c62828" stroke-width="1"/>
<rect x="673.7" y="308.6" width="3.5" height="8.3" fill="#c62828"/>
<rect x="673.7" y="530.5" width="3.5" height="1.5" fill="#c62828" opacity="0.55"/>
<line x1="681.1" y1="310.3" x2="681.1" y2="316.6" stroke="#2e7d32" stroke-width="1"/>
<rect x="679.3" y="310.3" width="3.5" height="5.0" fill="#2e7d32"/>
<rect x="679.3" y="531.5" width="3.5" height="0.5" fill="#2e7d32" opacity="0.55"/>
<line x1="686.7" y1="316.9" x2="686.7" y2="318.6" stroke="#c62828" stroke-width="1"/>
<rect x="685.0" y="316.9" width="3.5" height="1.7" fill="#c62828"/>
<rect x="685.0" y="530.2" width="3.5" height="1.8" fill="#c62828" opacity="0.55"/>
<line x1="692.3" y1="321.1" x2="692.3" y2="336.9" stroke="#c62828" stroke-width="1"/>
<rect x="690.6" y="321.1" width="3.5" height="7.5" fill="#c62828"/>
<rect x="690.6" y="530.1" width="3.5" height="1.9" fill="#c62828" opacity="0.55"/>
<line x1="698.0" y1="338.6" x2="698.0" y2="342.7" stroke="#c62828" stroke-width="1"/>
<rect x="696.2" y="340.2" width="3.5" height="1.7" fill="#c62828"/>
<rect x="696.2" y="531.0" width="3.5" height="1.0" fill="#c62828" opacity="0.55"/>
<line x1="703.6" y1="232.1" x2="703.6" y2="342.7" stroke="#2e7d32" stroke-width="1"/>
<rect x="701.9" y="275.3" width="3.5" height="25.4" fill="#2e7d32"/>
<rect x="701.9" y="430.9" width="3.5" height="101.1" fill="#2e7d32" opacity="0.55"/>
<line x1="709.2" y1="243.7" x2="709.2" y2="290.3" stroke="#2e7d32" stroke-width="1"/>
<rect x="707.5" y="253.7" width="3.5" height="31.6" fill="#2e7d32"/>
<rect x="707.5" y="420.2" width="3.5" height="111.8" fill="#2e7d32" opacity="0.55"/>
<line x1="714.9" y1="195.5" x2="714.9" y2="272.0" stroke="#2e7d32" stroke-width="1"/>
<rect x="713.1" y="203.9" width="3.5" height="49.8" fill="#2e7d32"/>
<rect x="713.1" y="412.0" width="3.5" height="120.0" fill="#2e7d32" opacity="0.55"/>
<polygon points="714.9,413.0 711.9,418.0 717.9,418.0" fill="#2e7d32"/>
<line x1="720.5" y1="195.5" x2="720.5" y2="283.7" stroke="#c62828" stroke-width="1"/>
<rect x="718.8" y="200.2" width="3.5" height="65.1" fill="#c62828"/>
<rect x="718.8" y="412.0" width="3.5" height="120.0" fill="#c62828" opacity="0.55"/>
<polygon points="720.5,413.0 717.5,418.0 723.5,418.0" fill="#c62828"/>
<line x1="726.2" y1="177.2" x2="726.2" y2="266.8" stroke="#2e7d32" stroke-width="1"/>
<rect x="724.4" y="198.8" width="3.5" height="68.0" fill="#2e7d32"/>
<rect x="724.4" y="412.0" width="3.5" height="120.0" fill="#2e7d32" opacity="0.55"/>
<polygon points="726.2,413.0 723.2,418.0 729.2,418.0" fill="#2e7d32"/>
<line x1="731.8" y1="182.2" x2="731.8" y2="237.1" stroke="#c62828" stroke-width="1"/>
<rect x="730.0" y="193.8" width="3.5" height="31.5" fill="#c62828"/>
<rect x="730.0" y="412.0" width="3.5" height="120.0" fill="#c62828" opacity="0.55"/>
<line x1="737.4" y1="222.1" x2="737.4" y2="267.0" stroke="#c62828" stroke-width="1"/>
<rect x="735.7" y="223.8" width="3.5" height="25.0" fill="#c62828"/>
<rect x="735.7" y="463.7" width="3.5" height="68.3" fill="#c62828" opacity="0.55"/>
<line x1="743.1" y1="238.7" x2="743.1" y2="268.7" stroke="#c62828" stroke-width="1"/>
<rect x="741.3" y="252.0" width="3.5" height="15.0" fill="#c62828"/>
<rect x="741.3" y="495.0" width="3.5" height="37.0" fill="#c62828" opacity="0.55"/>
<line x1="748.7" y1="213.8" x2="748.7" y2="267.0" stroke="#2e7d32" stroke-width="1"/>
<rect x="746.9" y="243.7" width="3.5" height="21.6" fill="#2e7d32"/>
<rect x="746.9" y="477.6" width="3.5" height="54.4" fill="#2e7d32" opacity="0.55"/>
<line x1="754.3" y1="230.4" x2="754.3" y2="263.7" stroke="#2e7d32" stroke-width="1"/>
<rect x="752.6" y="242.1" width="3.5" height="5.0" fill="#2e7d32"/>
<rect x="752.6" y="508.9" width="3.5" height="23.1" fill="#2e7d32" opacity="0.55"/>
<line x1="760.0" y1="242.1" x2="760.0" y2="260.4" stroke="#c62828" stroke-width="1"/>
<rect x="758.2" y="245.4" width="3.5" height="13.3" fill="#c62828"/>
<rect x="758.2" y="515.4" width="3.5" height="16.6" fill="#c62828" opacity="0.55"/>
<line x1="765.6" y1="232.1" x2="765.6" y2="260.4" stroke="#2e7d32" stroke-width="1"/>
<rect x="763.9" y="237.1" width="3.5" height="18.9" fill="#2e7d32"/>
<rect x="763.9" y="514.6" width="3.5" height="17.4" fill="#2e7d32" opacity="0.55"/>
<line x1="771.2" y1="200.5" x2="771.2" y2="245.4" stroke="#2e7d32" stroke-width="1"/>
<rect x="769.5" y="215.4" width="3.5" height="24.0" fill="#2e7d32"/>
<rect x="769.5" y="466.2" width="3.5" height="65.8" fill="#2e7d32" opacity="0.55"/>
<line x1="776.9" y1="215.4" x2="776.9" y2="260.4" stroke="#c62828" stroke-width="1"/>
<rect x="775.1" y="217.1" width="3.5" height="36.6" fill="#c62828"/>
<rect x="775.1" y="498.9" width="3.5" height="33.1" fill="#c62828" opacity="0.55"/>
<line x1="782.5" y1="237.9" x2="782.5" y2="255.4" stroke="#c62828" stroke-width="1"/>
<rect x="780.8" y="250.4" width="3.5" height="4.9" fill="#c62828"/>
<rect x="780.8" y="518.5" width="3.5" height="13.5" fill="#c62828" opacity="0.55"/>
<line x1="788.1" y1="245.4" x2="788.1" y2="272.0" stroke="#c62828" stroke-width="1"/>
<rect x="786.4" y="255.4" width="3.5" height="5.0" fill="#c62828"/>
<rect x="786.4" y="504.8" width="3.5" height="27.2" fill="#c62828" opacity="0.55"/>
<line x1="793.8" y1="232.1" x2="793.8" y2="263.7" stroke="#2e7d32" stroke-width="1"/>
<rect x="792.0" y="244.8" width="3.5" height="10.5" fill="#2e7d32"/>
<rect x="792.0" y="517.4" width="3.5" height="14.6" fill="#2e7d32" opacity="0.55"/>
<line x1="799.4" y1="230.4" x2="799.4" y2="247.1" stroke="#2e7d32" stroke-width="1"/>
<rect x="797.7" y="239.0" width="3.5" height="4.7" fill="#2e7d32"/>
<rect x="797.7" y="518.2" width="3.5" height="13.8" fill="#2e7d32" opacity="0.55"/>
<line x1="805.0" y1="215.4" x2="805.0" y2="243.7" stroke="#2e7d32" stroke-width="1"/>
<rect x="803.3" y="225.4" width="3.5" height="15.0" fill="#2e7d32"/>
<rect x="803.3" y="502.8" width="3.5" height="29.2" fill="#2e7d32" opacity="0.55"/>
<line x1="810.7" y1="222.1" x2="810.7" y2="238.7" stroke="#c62828" stroke-width="1"/>
<rect x="808.9" y="223.8" width="3.5" height="9.9" fill="#c62828"/>
<rect x="808.9" y="519.1" width="3.5" height="12.9" fill="#c62828" opacity="0.55"/>
<line x1="816.3" y1="188.8" x2="816.3" y2="235.4" stroke="#2e7d32" stroke-width="1"/>
<rect x="814.6" y="205.5" width="3.5" height="29.8" fill="#2e7d32"/>
<rect x="814.6" y="479.3" width="3.5" height="52.7" fill="#2e7d32" opacity="0.55"/>
<line x1="822.0" y1="202.1" x2="822.0" y2="220.4" stroke="#c62828" stroke-width="1"/>
<rect x="820.2" y="208.5" width="3.5" height="10.2" fill="#c62828"/>
<rect x="820.2" y="515.0" width="3.5" height="17.0" fill="#c62828" opacity="0.55"/>
<line x1="827.6" y1="217.1" x2="827.6" y2="255.4" stroke="#c62828" stroke-width="1"/>
<rect x="825.8" y="218.7" width="3.5" height="30.0" fill="#c62828"/>
<rect x="825.8" y="503.3" width="3.5" height="28.7" fill="#c62828" opacity="0.55"/>
<line x1="833.2" y1="242.1" x2="833.2" y2="258.7" stroke="#2e7d32" stroke-width="1"/>
<rect x="831.5" y="243.2" width="3.5" height="2.3" fill="#2e7d32"/>
<rect x="831.5" y="512.5" width="3.5" height="19.5" fill="#2e7d32" opacity="0.55"/>
<line x1="838.9" y1="242.1" x2="838.9" y2="253.7" stroke="#c62828" stroke-width="1"/>
<rect x="837.1" y="245.4" width="3.5" height="1.7" fill="#c62828"/>
<rect x="837.1" y="523.5" width="3.5" height="8.5" fill="#c62828" opacity="0.55"/>
<line x1="844.5" y1="227.1" x2="844.5" y2="247.1" stroke="#2e7d32" stroke-width="1"/>
<rect x="842.8" y="238.7" width="3.5" height="6.7" fill="#2e7d32"/>
<rect x="842.8" y="516.5" width="3.5" height="15.5" fill="#2e7d32" opacity="0.55"/>
<line x1="850.1" y1="235.4" x2="850.1" y2="250.4" stroke="#2e7d32" stroke-width="1"/>
<rect x="848.4" y="237.1" width="3.5" height="6.6" fill="#2e7d32"/>
<rect x="848.4" y="526.2" width="3.5" height="5.8" fill="#2e7d32" opacity="0.55"/>
<line x1="855.8" y1="237.1" x2="855.8" y2="250.1" stroke="#c62828" stroke-width="1"/>
<rect x="854.0" y="237.1" width="3.5" height="1.4" fill="#c62828"/>
<rect x="854.0" y="527.7" width="3.5" height="4.3" fill="#c62828" opacity="0.55"/>
<line x1="861.4" y1="227.1" x2="861.4" y2="242.1" stroke="#2e7d32" stroke-width="1"/>
<rect x="859.7" y="233.7" width="3.5" height="3.3" fill="#2e7d32"/>
<rect x="859.7" y="525.8" width="3.5" height="6.2" fill="#2e7d32" opacity="0.55"/>
<line x1="867.0" y1="218.8" x2="867.0" y2="238.7" stroke="#c62828" stroke-width="1"/>
<rect x="865.3" y="233.7" width="3.5" height="1.7" fill="#c62828"/>
<rect x="865.3" y="522.3" width="3.5" height="9.7" fill="#c62828" opacity="0.55"/>
<line x1="872.7" y1="223.8" x2="872.7" y2="242.1" stroke="#c62828" stroke-width="1"/>
<rect x="870.9" y="235.4" width="3.5" height="1.0" fill="#c62828"/>
<rect x="870.9" y="527.2" width="3.5" height="4.8" fill="#c62828" opacity="0.55"/>
<line x1="878.3" y1="215.4" x2="878.3" y2="237.1" stroke="#2e7d32" stroke-width="1"/>
<rect x="876.6" y="223.8" width="3.5" height="8.3" fill="#2e7d32"/>
<rect x="876.6" y="520.6" width="3.5" height="11.4" fill="#2e7d32" opacity="0.55"/>
<line x1="883.9" y1="215.4" x2="883.9" y2="228.8" stroke="#2e7d32" stroke-width="1"/>
<rect x="882.2" y="222.1" width="3.5" height="1.0" fill="#2e7d32"/>
<rect x="882.2" y="522.5" width="3.5" height="9.5" fill="#2e7d32" opacity="0.55"/>
<line x1="889.6" y1="212.1" x2="889.6" y2="235.4" stroke="#2e7d32" stroke-width="1"/>
<rect x="887.8" y="213.8" width="3.5" height="8.3" fill="#2e7d32"/>
<rect x="887.8" y="518.8" width="3.5" height="13.2" fill="#2e7d32" opacity="0.55"/>
<line x1="895.2" y1="203.8" x2="895.2" y2="223.8" stroke="#c62828" stroke-width="1"/>
<rect x="893.5" y="214.6" width="3.5" height="5.3" fill="#c62828"/>
<rect x="893.5" y="518.5" width="3.5" height="13.5" fill="#c62828" opacity="0.55"/>
<line x1="900.9" y1="215.5" x2="900.9" y2="230.4" stroke="#2e7d32" stroke-width="1"/>
<rect x="899.1" y="220.4" width="3.5" height="1.0" fill="#2e7d32"/>
<rect x="899.1" y="526.4" width="3.5" height="5.6" fill="#2e7d32" opacity="0.55"/>
<line x1="906.5" y1="208.8" x2="906.5" y2="220.5" stroke="#2e7d32" stroke-width="1"/>
<rect x="904.7" y="218.7" width="3.5" height="1.8" fill="#2e7d32"/>
<rect x="904.7" y="525.8" width="3.5" height="6.2" fill="#2e7d32" opacity="0.55"/>
<line x1="912.1" y1="165.5" x2="912.1" y2="218.8" stroke="#2e7d32" stroke-width="1"/>
<rect x="910.4" y="190.5" width="3.5" height="25.0" fill="#2e7d32"/>
<rect x="910.4" y="481.1" width="3.5" height="50.9" fill="#2e7d32" opacity="0.55"/>
<line x1="917.8" y1="188.8" x2="917.8" y2="213.8" stroke="#c62828" stroke-width="1"/>
<rect x="916.0" y="190.5" width="3.5" height="11.6" fill="#c62828"/>
<rect x="916.0" y="513.4" width="3.5" height="18.6" fill="#c62828" opacity="0.55"/>
<line x1="923.4" y1="185.5" x2="923.4" y2="210.4" stroke="#2e7d32" stroke-width="1"/>
<rect x="921.6" y="195.5" width="3.5" height="8.8" fill="#2e7d32"/>
<rect x="921.6" y="524.9" width="3.5" height="7.1" fill="#2e7d32" opacity="0.55"/>
<line x1="929.0" y1="172.2" x2="929.0" y2="193.8" stroke="#2e7d32" stroke-width="1"/>
<rect x="927.3" y="188.8" width="3.5" height="5.0" fill="#2e7d32"/>
<rect x="927.3" y="516.8" width="3.5" height="15.2" fill="#2e7d32" opacity="0.55"/>
<line x1="934.7" y1="172.2" x2="934.7" y2="193.8" stroke="#2e7d32" stroke-width="1"/>
<rect x="932.9" y="183.8" width="3.5" height="6.4" fill="#2e7d32"/>
<rect x="932.9" y="518.8" width="3.5" height="13.2" fill="#2e7d32" opacity="0.55"/>
<line x1="940.3" y1="148.9" x2="940.3" y2="187.2" stroke="#2e7d32" stroke-width="1"/>
<rect x="938.6" y="148.9" width="3.5" height="38.3" fill="#2e7d32"/>
<rect x="938.6" y="461.2" width="3.5" height="70.8" fill="#2e7d32" opacity="0.55"/>
<line x1="945.9" y1="145.6" x2="945.9" y2="170.5" stroke="#c62828" stroke-width="1"/>
<rect x="944.2" y="150.6" width="3.5" height="13.3" fill="#c62828"/>
<rect x="944.2" y="506.6" width="3.5" height="25.4" fill="#c62828" opacity="0.55"/>
<line x1="951.6" y1="155.5" x2="951.6" y2="189.2" stroke="#c62828" stroke-width="1"/>
<rect x="949.8" y="163.8" width="3.5" height="17.4" fill="#c62828"/>
<rect x="949.8" y="497.3" width="3.5" height="34.7" fill="#c62828" opacity="0.55"/>
<line x1="957.2" y1="165.5" x2="957.2" y2="183.8" stroke="#2e7d32" stroke-width="1"/>
<rect x="955.5" y="182.2" width="3.5" height="1.0" fill="#2e7d32"/>
<rect x="955.5" y="519.8" width="3.5" height="12.2" fill="#2e7d32" opacity="0.55"/>
<line x1="962.8" y1="165.5" x2="962.8" y2="182.2" stroke="#2e7d32" stroke-width="1"/>
<rect x="961.1" y="167.2" width="3.5" height="10.7" fill="#2e7d32"/>
<rect x="961.1" y="526.4" width="3.5" height="5.6" fill="#2e7d32" opacity="0.55"/>
<line x1="968.5" y1="167.2" x2="968.5" y2="190.5" stroke="#c62828" stroke-width="1"/>
<rect x="966.7" y="168.9" width="3.5" height="13.3" fill="#c62828"/>
<rect x="966.7" y="518.3" width="3.5" height="13.7" fill="#c62828" opacity="0.55"/>
<line x1="974.1" y1="190.5" x2="974.1" y2="272.0" stroke="#c62828" stroke-width="1"/>
<rect x="972.4" y="232.1" width="3.5" height="15.0" fill="#c62828"/>
<rect x="972.4" y="430.5" width="3.5" height="101.5" fill="#c62828" opacity="0.55"/>
<line x1="979.7" y1="190.5" x2="979.7" y2="258.7" stroke="#2e7d32" stroke-width="1"/>
<rect x="978.0" y="222.1" width="3.5" height="26.6" fill="#2e7d32"/>
<rect x="978.0" y="466.1" width="3.5" height="65.9" fill="#2e7d32" opacity="0.55"/>
<line x1="985.4" y1="82.3" x2="985.4" y2="226.4" stroke="#2e7d32" stroke-width="1"/>
<rect x="983.6" y="135.6" width="3.5" height="86.5" fill="#2e7d32"/>
<rect x="983.6" y="412.0" width="3.5" height="120.0" fill="#2e7d32" opacity="0.55"/>
<polygon points="985.4,413.0 982.4,418.0 988.4,418.0" fill="#2e7d32"/>
<line x1="991.0" y1="55.7" x2="991.0" y2="155.5" stroke="#2e7d32" stroke-width="1"/>
<rect x="989.3" y="110.8" width="3.5" height="24.0" fill="#2e7d32"/>
<rect x="989.3" y="412.0" width="3.5" height="120.0" fill="#2e7d32" opacity="0.55"/>
<polygon points="991.0,413.0 988.0,418.0 994.0,418.0" fill="#2e7d32"/>
<line x1="996.7" y1="85.7" x2="996.7" y2="137.2" stroke="#2e7d32" stroke-width="1"/>
<rect x="994.9" y="89.1" width="3.5" height="21.7" fill="#2e7d32"/>
<rect x="994.9" y="412.0" width="3.5" height="120.0" fill="#2e7d32" opacity="0.55"/>
<polygon points="996.7,413.0 993.7,418.0 999.7,418.0" fill="#2e7d32"/>
<line x1="1002.3" y1="79.1" x2="1002.3" y2="123.9" stroke="#c62828" stroke-width="1"/>
<rect x="1000.5" y="89.1" width="3.5" height="21.5" fill="#c62828"/>
<rect x="1000.5" y="412.0" width="3.5" height="120.0" fill="#c62828" opacity="0.55"/>
<polygon points="1002.3,413.0 999.3,418.0 1005.3,418.0" fill="#c62828"/>
<line x1="1007.9" y1="89.0" x2="1007.9" y2="130.6" stroke="#c62828" stroke-width="1"/>
<rect x="1006.2" y="107.4" width="3.5" height="1.7" fill="#c62828"/>
<rect x="1006.2" y="446.3" width="3.5" height="85.7" fill="#c62828" opacity="0.55"/>
<line x1="1013.6" y1="97.4" x2="1013.6" y2="163.9" stroke="#c62828" stroke-width="1"/>
<rect x="1011.8" y="110.6" width="3.5" height="31.7" fill="#c62828"/>
<rect x="1011.8" y="412.0" width="3.5" height="120.0" fill="#c62828" opacity="0.55"/>
<polygon points="1013.6,413.0 1010.6,418.0 1016.6,418.0" fill="#c62828"/>
<line x1="1019.2" y1="133.9" x2="1019.2" y2="163.9" stroke="#c62828" stroke-width="1"/>
<rect x="1017.4" y="145.4" width="3.5" height="8.5" fill="#c62828"/>
<rect x="1017.4" y="484.8" width="3.5" height="47.2" fill="#c62828" opacity="0.55"/>
<line x1="1024.8" y1="150.6" x2="1024.8" y2="188.8" stroke="#c62828" stroke-width="1"/>
<rect x="1023.1" y="154.0" width="3.5" height="26.5" fill="#c62828"/>
<rect x="1023.1" y="483.0" width="3.5" height="49.0" fill="#c62828" opacity="0.55"/>
<line x1="1030.5" y1="154.0" x2="1030.5" y2="180.5" stroke="#2e7d32" stroke-width="1"/>
<rect x="1028.7" y="158.7" width="3.5" height="21.6" fill="#2e7d32"/>
<rect x="1028.7" y="503.6" width="3.5" height="28.4" fill="#2e7d32" opacity="0.55"/>
<line x1="1036.1" y1="150.6" x2="1036.1" y2="163.9" stroke="#c62828" stroke-width="1"/>
<rect x="1034.4" y="155.5" width="3.5" height="1.0" fill="#c62828"/>
<rect x="1034.4" y="513.8" width="3.5" height="18.2" fill="#c62828" opacity="0.55"/>
<line x1="1041.7" y1="105.6" x2="1041.7" y2="157.1" stroke="#2e7d32" stroke-width="1"/>
<rect x="1040.0" y="140.5" width="3.5" height="16.6" fill="#2e7d32"/>
<rect x="1040.0" y="436.1" width="3.5" height="95.9" fill="#2e7d32" opacity="0.55"/>
<line x1="1047.4" y1="115.6" x2="1047.4" y2="150.6" stroke="#c62828" stroke-width="1"/>
<rect x="1045.6" y="140.5" width="3.5" height="1.0" fill="#c62828"/>
<rect x="1045.6" y="472.8" width="3.5" height="59.2" fill="#c62828" opacity="0.55"/>
<line x1="1053.0" y1="105.6" x2="1053.0" y2="143.9" stroke="#2e7d32" stroke-width="1"/>
<rect x="1051.3" y="124.6" width="3.5" height="16.0" fill="#2e7d32"/>
<rect x="1051.3" y="477.8" width="3.5" height="54.2" fill="#2e7d32" opacity="0.55"/>
<line x1="1058.6" y1="109.0" x2="1058.6" y2="145.6" stroke="#c62828" stroke-width="1"/>
<rect x="1056.9" y="122.3" width="3.5" height="16.8" fill="#c62828"/>
<rect x="1056.9" y="486.2" width="3.5" height="45.8" fill="#c62828" opacity="0.55"/>
<line x1="1064.3" y1="82.5" x2="1064.3" y2="147.2" stroke="#2e7d32" stroke-width="1"/>
<rect x="1062.5" y="97.4" width="3.5" height="46.5" fill="#2e7d32"/>
<rect x="1062.5" y="532.0" width="3.5" height="0.0" fill="#2e7d32" opacity="0.55"/>
<line x1="1069.9" y1="98.5" x2="1069.9" y2="155.5" stroke="#c62828" stroke-width="1"/>
<rect x="1068.2" y="98.5" width="3.5" height="52.0" fill="#c62828"/>
<rect x="1068.2" y="532.0" width="3.5" height="0.0" fill="#c62828" opacity="0.55"/>
<line x1="1075.5" y1="135.6" x2="1075.5" y2="150.6" stroke="#2e7d32" stroke-width="1"/>
<rect x="1073.8" y="142.2" width="3.5" height="6.7" fill="#2e7d32"/>
<rect x="1073.8" y="532.0" width="3.5" height="0.0" fill="#2e7d32" opacity="0.55"/>
<line x1="1081.2" y1="137.3" x2="1081.2" y2="137.3" stroke="#2e7d32" stroke-width="1"/>
<rect x="1079.4" y="137.3" width="3.5" height="1.0" fill="#2e7d32"/>
<rect x="1079.4" y="532.0" width="3.5" height="0.0" fill="#2e7d32" opacity="0.55"/>
<line x1="64" y1="532" x2="1084" y2="532" stroke="#ccc"/>
<text x="68" y="421" font-size="9" fill="#555" text-anchor="start">cap 0.5M; max 1.2M</text>
<line x1="66.8" y1="532" x2="66.8" y2="536" stroke="#999"/>
<text x="66.8" y="547.0" font-size="9" fill="#666" text-anchor="middle">08/20 04:00</text>
<line x1="235.9" y1="532" x2="235.9" y2="536" stroke="#999"/>
<text x="235.9" y="547.0" font-size="9" fill="#666" text-anchor="middle">08:35</text>
<line x1="404.9" y1="532" x2="404.9" y2="536" stroke="#999"/>
<text x="404.9" y="547.0" font-size="9" fill="#666" text-anchor="middle">11:10</text>
<line x1="574.0" y1="532" x2="574.0" y2="536" stroke="#999"/>
<text x="574.0" y="547.0" font-size="9" fill="#666" text-anchor="middle">13:55</text>
<line x1="743.1" y1="532" x2="743.1" y2="536" stroke="#999"/>
<text x="743.1" y="547.0" font-size="9" fill="#666" text-anchor="middle">16:35</text>
<line x1="912.1" y1="532" x2="912.1" y2="536" stroke="#999"/>
<text x="912.1" y="547.0" font-size="9" fill="#666" text-anchor="middle">19:05</text>
<line x1="1081.2" y1="532" x2="1081.2" y2="536" stroke="#999"/>
<text x="1081.2" y="547.0" font-size="9" fill="#666" text-anchor="middle">08/21 05:31</text>
<line x1="64" y1="243.7" x2="1084" y2="243.7" stroke="#1565c0" stroke-width="1.2" stroke-dasharray="5,4" opacity="0.9"/>
<polygon points="838.9,241.7 832.9,233.3 844.9,233.3" fill="#1565c0"/>
<text x="838.9" y="229.3" font-size="10" font-weight="bold" fill="#1565c0" text-anchor="middle">ENTRY $3.37</text>
<line x1="64" y1="94.0" x2="1084" y2="94.0" stroke="#ad1457" stroke-width="1.2" stroke-dasharray="5,4" opacity="0.9"/>
<polygon points="1007.9,96.0 1001.9,104.4 1013.9,104.4" fill="#ad1457"/>
<text x="1007.9" y="114.4" font-size="10" font-weight="bold" fill="#ad1457" text-anchor="middle">EXIT $4.27</text>
<text x="64" y="22" font-size="15" font-weight="bold" fill="#1a1a1a">SUGP - SU Group Holdings Limited</text>
<text x="1084" y="22" font-size="11" fill="#666" text-anchor="end">last $4.01 (+55.4% over window)</text>
<rect x="934" y="28" width="10" height="8" fill="#e8f0fe"/>
<text x="948" y="35" font-size="9" fill="#666">premarket</text>
<rect x="1006" y="28" width="10" height="8" fill="#fff4e0"/>
<text x="1020" y="35" font-size="9" fill="#666">after-hrs</text>
<rect x="852" y="28" width="10" height="8" fill="#1565c0"/>
<text x="866" y="35" font-size="9" fill="#666">entry</text>
<rect x="802" y="28" width="10" height="8" fill="#ad1457"/>
<text x="816" y="35" font-size="9" fill="#666">exit</text>
</svg>