<svg xmlns="http://www.w3.org/2000/svg" width="1100" height="560" viewBox="0 0 1100 560" font-family="Arial,Helvetica,sans-serif">
<rect width="1100" height="560" fill="white"/>
<rect x="64.0" y="36" width="244.4" height="496.0" fill="#e8f0fe"/>
<rect x="722.8" y="36" width="255.0" height="496.0" fill="#fff4e0"/>
<rect x="977.8" y="36" width="106.2" height="496.0" fill="#e8f0fe"/>
<line x1="64" y1="404.0" x2="1084" y2="404.0" stroke="#e6e6e6"/>
<text x="58" y="407.0" font-size="10" fill="#666" text-anchor="end">$1.02</text>
<line x1="64" y1="312.0" x2="1084" y2="312.0" stroke="#e6e6e6"/>
<text x="58" y="315.0" font-size="10" fill="#666" text-anchor="end">$1.63</text>
<line x1="64" y1="220.0" x2="1084" y2="220.0" stroke="#e6e6e6"/>
<text x="58" y="223.0" font-size="10" fill="#666" text-anchor="end">$2.25</text>
<line x1="64" y1="128.0" x2="1084" y2="128.0" stroke="#e6e6e6"/>
<text x="58" y="131.0" font-size="10" fill="#666" text-anchor="end">$2.87</text>
<line x1="64" y1="36.0" x2="1084" y2="36.0" stroke="#e6e6e6"/>
<text x="58" y="39.0" font-size="10" fill="#666" text-anchor="end">$3.48</text>
<line x1="66.7" y1="369.4" x2="66.7" y2="379.8" stroke="#c62828" stroke-width="1"/>
<rect x="65.0" y="370.8" width="3.3" height="3.0" fill="#c62828"/>
<rect x="65.0" y="532.0" width="3.3" height="0.0" fill="#c62828" opacity="0.55"/>
<line x1="72.0" y1="372.3" x2="72.0" y2="375.3" stroke="#2e7d32" stroke-width="1"/>
<rect x="70.3" y="372.3" width="3.3" height="3.0" fill="#2e7d32"/>
<rect x="70.3" y="532.0" width="3.3" height="0.0" fill="#2e7d32" opacity="0.55"/>
<line x1="77.3" y1="375.3" x2="77.3" y2="376.8" stroke="#c62828" stroke-width="1"/>
<rect x="75.6" y="375.3" width="3.3" height="1.5" fill="#c62828"/>
<rect x="75.6" y="532.0" width="3.3" height="0.0" fill="#c62828" opacity="0.55"/>
<line x1="82.6" y1="376.8" x2="82.6" y2="378.3" stroke="#2e7d32" stroke-width="1"/>
<rect x="80.9" y="376.8" width="3.3" height="1.5" fill="#2e7d32"/>
<rect x="80.9" y="532.0" width="3.3" height="0.0" fill="#2e7d32" opacity="0.55"/>
<line x1="87.9" y1="376.8" x2="87.9" y2="378.3" stroke="#c62828" stroke-width="1"/>
<rect x="86.3" y="376.8" width="3.3" height="1.5" fill="#c62828"/>
<rect x="86.3" y="532.0" width="3.3" height="0.0" fill="#c62828" opacity="0.55"/>
<line x1="93.2" y1="376.8" x2="93.2" y2="376.8" stroke="#2e7d32" stroke-width="1"/>
<rect x="91.6" y="376.8" width="3.3" height="1.0" fill="#2e7d32"/>
<rect x="91.6" y="532.0" width="3.3" height="0.0" fill="#2e7d32" opacity="0.55"/>
<line x1="98.5" y1="371.3" x2="98.5" y2="371.3" stroke="#2e7d32" stroke-width="1"/>
<rect x="96.9" y="371.3" width="3.3" height="1.0" fill="#2e7d32"/>
<rect x="96.9" y="532.0" width="3.3" height="0.0" fill="#2e7d32" opacity="0.55"/>
<line x1="103.8" y1="373.9" x2="103.8" y2="373.9" stroke="#2e7d32" stroke-width="1"/>
<rect x="102.2" y="373.9" width="3.3" height="1.0" fill="#2e7d32"/>
<rect x="102.2" y="532.0" width="3.3" height="0.0" fill="#2e7d32" opacity="0.55"/>
<line x1="109.2" y1="374.1" x2="109.2" y2="374.1" stroke="#2e7d32" stroke-width="1"/>
<rect x="107.5" y="374.1" width="3.3" height="1.0" fill="#2e7d32"/>
<rect x="107.5" y="532.0" width="3.3" height="0.0" fill="#2e7d32" opacity="0.55"/>
<line x1="114.5" y1="376.8" x2="114.5" y2="376.8" stroke="#2e7d32" stroke-width="1"/>
<rect x="112.8" y="376.8" width="3.3" height="1.0" fill="#2e7d32"/>
<rect x="112.8" y="532.0" width="3.3" height="0.0" fill="#2e7d32" opacity="0.55"/>
<line x1="119.8" y1="370.8" x2="119.8" y2="370.8" stroke="#2e7d32" stroke-width="1"/>
<rect x="118.1" y="370.8" width="3.3" height="1.0" fill="#2e7d32"/>
<rect x="118.1" y="532.0" width="3.3" height="0.0" fill="#2e7d32" opacity="0.55"/>
<line x1="125.1" y1="371.3" x2="125.1" y2="371.3" stroke="#2e7d32" stroke-width="1"/>
<rect x="123.4" y="371.3" width="3.3" height="1.0" fill="#2e7d32"/>
<rect x="123.4" y="532.0" width="3.3" height="0.0" fill="#2e7d32" opacity="0.55"/>
<line x1="130.4" y1="372.3" x2="130.4" y2="372.3" stroke="#2e7d32" stroke-width="1"/>
<rect x="128.8" y="372.3" width="3.3" height="1.0" fill="#2e7d32"/>
<rect x="128.8" y="532.0" width="3.3" height="0.0" fill="#2e7d32" opacity="0.55"/>
<line x1="135.7" y1="372.7" x2="135.7" y2="372.7" stroke="#2e7d32" stroke-width="1"/>
<rect x="134.1" y="372.7" width="3.3" height="1.0" fill="#2e7d32"/>
<rect x="134.1" y="532.0" width="3.3" height="0.0" fill="#2e7d32" opacity="0.55"/>
<line x1="141.0" y1="373.8" x2="141.0" y2="373.8" stroke="#2e7d32" stroke-width="1"/>
<rect x="139.4" y="373.8" width="3.3" height="1.0" fill="#2e7d32"/>
<rect x="139.4" y="532.0" width="3.3" height="0.0" fill="#2e7d32" opacity="0.55"/>
<line x1="146.3" y1="373.8" x2="146.3" y2="373.8" stroke="#2e7d32" stroke-width="1"/>
<rect x="144.7" y="373.8" width="3.3" height="1.0" fill="#2e7d32"/>
<rect x="144.7" y="532.0" width="3.3" height="0.0" fill="#2e7d32" opacity="0.55"/>
<line x1="151.7" y1="377.8" x2="151.7" y2="378.3" stroke="#c62828" stroke-width="1"/>
<rect x="150.0" y="377.8" width="3.3" height="1.0" fill="#c62828"/>
<rect x="150.0" y="532.0" width="3.3" height="0.0" fill="#c62828" opacity="0.55"/>
<line x1="157.0" y1="372.8" x2="157.0" y2="377.8" stroke="#2e7d32" stroke-width="1"/>
<rect x="155.3" y="372.8" width="3.3" height="5.0" fill="#2e7d32"/>
<rect x="155.3" y="532.0" width="3.3" height="0.0" fill="#2e7d32" opacity="0.55"/>
<line x1="162.3" y1="374.1" x2="162.3" y2="374.1" stroke="#2e7d32" stroke-width="1"/>
<rect x="160.6" y="374.1" width="3.3" height="1.0" fill="#2e7d32"/>
<rect x="160.6" y="532.0" width="3.3" height="0.0" fill="#2e7d32" opacity="0.55"/>
<line x1="167.6" y1="375.3" x2="167.6" y2="375.3" stroke="#2e7d32" stroke-width="1"/>
<rect x="165.9" y="375.3" width="3.3" height="1.0" fill="#2e7d32"/>
<rect x="165.9" y="532.0" width="3.3" height="0.0" fill="#2e7d32" opacity="0.55"/>
<line x1="172.9" y1="376.8" x2="172.9" y2="378.3" stroke="#c62828" stroke-width="1"/>
<rect x="171.3" y="376.8" width="3.3" height="1.5" fill="#c62828"/>
<rect x="171.3" y="532.0" width="3.3" height="0.0" fill="#c62828" opacity="0.55"/>
<line x1="178.2" y1="378.0" x2="178.2" y2="378.3" stroke="#c62828" stroke-width="1"/>
<rect x="176.6" y="378.0" width="3.3" height="1.0" fill="#c62828"/>
<rect x="176.6" y="532.0" width="3.3" height="0.0" fill="#c62828" opacity="0.55"/>
<line x1="183.5" y1="378.3" x2="183.5" y2="379.8" stroke="#c62828" stroke-width="1"/>
<rect x="181.9" y="378.3" width="3.3" height="1.5" fill="#c62828"/>
<rect x="181.9" y="532.0" width="3.3" height="0.0" fill="#c62828" opacity="0.55"/>
<line x1="188.8" y1="378.0" x2="188.8" y2="378.3" stroke="#2e7d32" stroke-width="1"/>
<rect x="187.2" y="378.0" width="3.3" height="1.0" fill="#2e7d32"/>
<rect x="187.2" y="532.0" width="3.3" height="0.0" fill="#2e7d32" opacity="0.55"/>
<line x1="194.2" y1="370.8" x2="194.2" y2="378.3" stroke="#2e7d32" stroke-width="1"/>
<rect x="192.5" y="370.8" width="3.3" height="7.5" fill="#2e7d32"/>
<rect x="192.5" y="532.0" width="3.3" height="0.0" fill="#2e7d32" opacity="0.55"/>
<line x1="199.5" y1="369.4" x2="199.5" y2="370.8" stroke="#2e7d32" stroke-width="1"/>
<rect x="197.8" y="369.4" width="3.3" height="1.5" fill="#2e7d32"/>
<rect x="197.8" y="532.0" width="3.3" height="0.0" fill="#2e7d32" opacity="0.55"/>
<line x1="204.8" y1="369.4" x2="204.8" y2="373.5" stroke="#2e7d32" stroke-width="1"/>
<rect x="203.1" y="369.4" width="3.3" height="4.1" fill="#2e7d32"/>
<rect x="203.1" y="532.0" width="3.3" height="0.0" fill="#2e7d32" opacity="0.55"/>
<line x1="210.1" y1="373.5" x2="210.1" y2="373.9" stroke="#c62828" stroke-width="1"/>
<rect x="208.4" y="373.5" width="3.3" height="1.0" fill="#c62828"/>
<rect x="208.4" y="532.0" width="3.3" height="0.0" fill="#c62828" opacity="0.55"/>
<line x1="215.4" y1="371.3" x2="215.4" y2="376.8" stroke="#c62828" stroke-width="1"/>
<rect x="213.8" y="375.3" width="3.3" height="1.5" fill="#c62828"/>
<rect x="213.8" y="532.0" width="3.3" height="0.0" fill="#c62828" opacity="0.55"/>
<line x1="220.7" y1="376.8" x2="220.7" y2="379.8" stroke="#c62828" stroke-width="1"/>
<rect x="219.1" y="376.8" width="3.3" height="1.0" fill="#c62828"/>
<rect x="219.1" y="532.0" width="3.3" height="0.0" fill="#c62828" opacity="0.55"/>
<line x1="226.0" y1="376.8" x2="226.0" y2="379.8" stroke="#c62828" stroke-width="1"/>
<rect x="224.4" y="376.8" width="3.3" height="3.0" fill="#c62828"/>
<rect x="224.4" y="532.0" width="3.3" height="0.0" fill="#c62828" opacity="0.55"/>
<line x1="231.3" y1="379.2" x2="231.3" y2="379.3" stroke="#c62828" stroke-width="1"/>
<rect x="229.7" y="379.2" width="3.3" height="1.0" fill="#c62828"/>
<rect x="229.7" y="532.0" width="3.3" height="0.0" fill="#c62828" opacity="0.55"/>
<line x1="236.7" y1="381.1" x2="236.7" y2="382.8" stroke="#c62828" stroke-width="1"/>
<rect x="235.0" y="381.1" width="3.3" height="1.0" fill="#c62828"/>
<rect x="235.0" y="532.0" width="3.3" height="0.0" fill="#c62828" opacity="0.55"/>
<line x1="242.0" y1="375.3" x2="242.0" y2="381.3" stroke="#2e7d32" stroke-width="1"/>
<rect x="240.3" y="375.3" width="3.3" height="6.0" fill="#2e7d32"/>
<rect x="240.3" y="532.0" width="3.3" height="0.0" fill="#2e7d32" opacity="0.55"/>
<line x1="247.3" y1="378.3" x2="247.3" y2="380.8" stroke="#c62828" stroke-width="1"/>
<rect x="245.6" y="378.3" width="3.3" height="2.5" fill="#c62828"/>
<rect x="245.6" y="532.0" width="3.3" height="0.0" fill="#c62828" opacity="0.55"/>
<line x1="252.6" y1="378.3" x2="252.6" y2="378.3" stroke="#2e7d32" stroke-width="1"/>
<rect x="250.9" y="378.3" width="3.3" height="1.0" fill="#2e7d32"/>
<rect x="250.9" y="532.0" width="3.3" height="0.0" fill="#2e7d32" opacity="0.55"/>
<line x1="257.9" y1="379.8" x2="257.9" y2="381.3" stroke="#c62828" stroke-width="1"/>
<rect x="256.3" y="380.6" width="3.3" height="1.0" fill="#c62828"/>
<rect x="256.3" y="532.0" width="3.3" height="0.0" fill="#c62828" opacity="0.55"/>
<line x1="263.2" y1="377.2" x2="263.2" y2="384.3" stroke="#2e7d32" stroke-width="1"/>
<rect x="261.6" y="377.2" width="3.3" height="3.5" fill="#2e7d32"/>
<rect x="261.6" y="532.0" width="3.3" height="0.0" fill="#2e7d32" opacity="0.55"/>
<line x1="268.5" y1="373.8" x2="268.5" y2="378.3" stroke="#c62828" stroke-width="1"/>
<rect x="266.9" y="374.3" width="3.3" height="4.0" fill="#c62828"/>
<rect x="266.9" y="532.0" width="3.3" height="0.0" fill="#c62828" opacity="0.55"/>
<line x1="273.8" y1="373.8" x2="273.8" y2="373.8" stroke="#2e7d32" stroke-width="1"/>
<rect x="272.2" y="373.8" width="3.3" height="1.0" fill="#2e7d32"/>
<rect x="272.2" y="532.0" width="3.3" height="0.0" fill="#2e7d32" opacity="0.55"/>
<line x1="279.2" y1="373.8" x2="279.2" y2="374.3" stroke="#2e7d32" stroke-width="1"/>
<rect x="277.5" y="373.8" width="3.3" height="1.0" fill="#2e7d32"/>
<rect x="277.5" y="532.0" width="3.3" height="0.0" fill="#2e7d32" opacity="0.55"/>
<line x1="284.5" y1="373.8" x2="284.5" y2="373.8" stroke="#2e7d32" stroke-width="1"/>
<rect x="282.8" y="373.8" width="3.3" height="1.0" fill="#2e7d32"/>
<rect x="282.8" y="532.0" width="3.3" height="0.0" fill="#2e7d32" opacity="0.55"/>
<line x1="289.8" y1="376.8" x2="289.8" y2="376.8" stroke="#2e7d32" stroke-width="1"/>
<rect x="288.1" y="376.8" width="3.3" height="1.0" fill="#2e7d32"/>
<rect x="288.1" y="532.0" width="3.3" height="0.0" fill="#2e7d32" opacity="0.55"/>
<line x1="295.1" y1="381.3" x2="295.1" y2="382.8" stroke="#c62828" stroke-width="1"/>
<rect x="293.4" y="381.3" width="3.3" height="1.0" fill="#c62828"/>
<rect x="293.4" y="532.0" width="3.3" height="0.0" fill="#c62828" opacity="0.55"/>
<line x1="300.4" y1="381.3" x2="300.4" y2="382.8" stroke="#2e7d32" stroke-width="1"/>
<rect x="298.8" y="381.3" width="3.3" height="1.0" fill="#2e7d32"/>
<rect x="298.8" y="532.0" width="3.3" height="0.0" fill="#2e7d32" opacity="0.55"/>
<line x1="305.7" y1="377.3" x2="305.7" y2="382.8" stroke="#2e7d32" stroke-width="1"/>
<rect x="304.1" y="377.3" width="3.3" height="5.5" fill="#2e7d32"/>
<rect x="304.1" y="532.0" width="3.3" height="0.0" fill="#2e7d32" opacity="0.55"/>
<line x1="311.0" y1="372.3" x2="311.0" y2="381.3" stroke="#c62828" stroke-width="1"/>
<rect x="309.4" y="372.3" width="3.3" height="6.0" fill="#c62828"/>
<rect x="309.4" y="525.6" width="3.3" height="6.4" fill="#c62828" opacity="0.55"/>
<line x1="316.3" y1="379.1" x2="316.3" y2="381.3" stroke="#c62828" stroke-width="1"/>
<rect x="314.7" y="379.1" width="3.3" height="1.0" fill="#c62828"/>
<rect x="314.7" y="531.9" width="3.3" height="0.1" fill="#c62828" opacity="0.55"/>
<line x1="321.7" y1="379.8" x2="321.7" y2="382.8" stroke="#c62828" stroke-width="1"/>
<rect x="320.0" y="379.8" width="3.3" height="1.5" fill="#c62828"/>
<rect x="320.0" y="531.3" width="3.3" height="0.7" fill="#c62828" opacity="0.55"/>
<line x1="327.0" y1="379.8" x2="327.0" y2="381.3" stroke="#2e7d32" stroke-width="1"/>
<rect x="325.3" y="381.2" width="3.3" height="1.0" fill="#2e7d32"/>
<rect x="325.3" y="531.9" width="3.3" height="0.1" fill="#2e7d32" opacity="0.55"/>
<line x1="332.3" y1="376.7" x2="332.3" y2="381.3" stroke="#2e7d32" stroke-width="1"/>
<rect x="330.6" y="376.7" width="3.3" height="4.5" fill="#2e7d32"/>
<rect x="330.6" y="531.7" width="3.3" height="0.3" fill="#2e7d32" opacity="0.55"/>
<line x1="337.6" y1="378.1" x2="337.6" y2="381.3" stroke="#c62828" stroke-width="1"/>
<rect x="335.9" y="378.1" width="3.3" height="3.2" fill="#c62828"/>
<rect x="335.9" y="531.7" width="3.3" height="0.3" fill="#c62828" opacity="0.55"/>
<line x1="342.9" y1="379.8" x2="342.9" y2="379.8" stroke="#2e7d32" stroke-width="1"/>
<rect x="341.3" y="379.8" width="3.3" height="1.0" fill="#2e7d32"/>
<rect x="341.3" y="531.8" width="3.3" height="0.2" fill="#2e7d32" opacity="0.55"/>
<line x1="348.2" y1="375.3" x2="348.2" y2="382.7" stroke="#2e7d32" stroke-width="1"/>
<rect x="346.6" y="376.8" width="3.3" height="4.4" fill="#2e7d32"/>
<rect x="346.6" y="531.4" width="3.3" height="0.6" fill="#2e7d32" opacity="0.55"/>
<line x1="353.5" y1="378.3" x2="353.5" y2="379.1" stroke="#2e7d32" stroke-width="1"/>
<rect x="351.9" y="378.3" width="3.3" height="1.0" fill="#2e7d32"/>
<rect x="351.9" y="532.0" width="3.3" height="0.0" fill="#2e7d32" opacity="0.55"/>
<line x1="358.8" y1="378.3" x2="358.8" y2="378.3" stroke="#2e7d32" stroke-width="1"/>
<rect x="357.2" y="378.3" width="3.3" height="1.0" fill="#2e7d32"/>
<rect x="357.2" y="532.0" width="3.3" height="0.0" fill="#2e7d32" opacity="0.55"/>
<line x1="364.2" y1="375.3" x2="364.2" y2="375.3" stroke="#2e7d32" stroke-width="1"/>
<rect x="362.5" y="375.3" width="3.3" height="1.0" fill="#2e7d32"/>
<rect x="362.5" y="532.0" width="3.3" height="0.0" fill="#2e7d32" opacity="0.55"/>
<line x1="369.5" y1="372.3" x2="369.5" y2="379.8" stroke="#2e7d32" stroke-width="1"/>
<rect x="367.8" y="372.3" width="3.3" height="7.4" fill="#2e7d32"/>
<rect x="367.8" y="531.4" width="3.3" height="0.6" fill="#2e7d32" opacity="0.55"/>
<line x1="374.8" y1="371.6" x2="374.8" y2="372.3" stroke="#2e7d32" stroke-width="1"/>
<rect x="373.1" y="372.3" width="3.3" height="1.0" fill="#2e7d32"/>
<rect x="373.1" y="531.7" width="3.3" height="0.3" fill="#2e7d32" opacity="0.55"/>
<line x1="380.1" y1="373.1" x2="380.1" y2="373.8" stroke="#c62828" stroke-width="1"/>
<rect x="378.4" y="373.1" width="3.3" height="1.0" fill="#c62828"/>
<rect x="378.4" y="531.9" width="3.3" height="0.1" fill="#c62828" opacity="0.55"/>
<line x1="385.4" y1="372.3" x2="385.4" y2="376.7" stroke="#c62828" stroke-width="1"/>
<rect x="383.8" y="372.3" width="3.3" height="4.4" fill="#c62828"/>
<rect x="383.8" y="531.7" width="3.3" height="0.3" fill="#c62828" opacity="0.55"/>
<line x1="390.7" y1="370.9" x2="390.7" y2="373.8" stroke="#2e7d32" stroke-width="1"/>
<rect x="389.1" y="370.9" width="3.3" height="2.9" fill="#2e7d32"/>
<rect x="389.1" y="531.6" width="3.3" height="0.4" fill="#2e7d32" opacity="0.55"/>
<line x1="396.0" y1="372.3" x2="396.0" y2="376.8" stroke="#c62828" stroke-width="1"/>
<rect x="394.4" y="372.3" width="3.3" height="1.5" fill="#c62828"/>
<rect x="394.4" y="531.8" width="3.3" height="0.2" fill="#c62828" opacity="0.55"/>
<line x1="401.3" y1="373.8" x2="401.3" y2="376.8" stroke="#2e7d32" stroke-width="1"/>
<rect x="399.7" y="375.3" width="3.3" height="1.0" fill="#2e7d32"/>
<rect x="399.7" y="531.8" width="3.3" height="0.2" fill="#2e7d32" opacity="0.55"/>
<line x1="406.7" y1="370.8" x2="406.7" y2="375.3" stroke="#2e7d32" stroke-width="1"/>
<rect x="405.0" y="373.8" width="3.3" height="1.6" fill="#2e7d32"/>
<rect x="405.0" y="531.9" width="3.3" height="0.1" fill="#2e7d32" opacity="0.55"/>
<line x1="412.0" y1="354.4" x2="412.0" y2="372.3" stroke="#2e7d32" stroke-width="1"/>
<rect x="410.3" y="359.1" width="3.3" height="13.3" fill="#2e7d32"/>
<rect x="410.3" y="528.2" width="3.3" height="3.8" fill="#2e7d32" opacity="0.55"/>
<line x1="417.3" y1="350.0" x2="417.3" y2="363.3" stroke="#2e7d32" stroke-width="1"/>
<rect x="415.6" y="354.4" width="3.3" height="4.5" fill="#2e7d32"/>
<rect x="415.6" y="526.7" width="3.3" height="5.3" fill="#2e7d32" opacity="0.55"/>
<line x1="422.6" y1="348.5" x2="422.6" y2="361.9" stroke="#c62828" stroke-width="1"/>
<rect x="420.9" y="351.0" width="3.3" height="6.4" fill="#c62828"/>
<rect x="420.9" y="529.0" width="3.3" height="3.0" fill="#c62828" opacity="0.55"/>
<line x1="427.9" y1="355.9" x2="427.9" y2="361.9" stroke="#c62828" stroke-width="1"/>
<rect x="426.3" y="355.9" width="3.3" height="1.5" fill="#c62828"/>
<rect x="426.3" y="531.4" width="3.3" height="0.6" fill="#c62828" opacity="0.55"/>
<line x1="433.2" y1="357.4" x2="433.2" y2="361.9" stroke="#c62828" stroke-width="1"/>
<rect x="431.6" y="357.4" width="3.3" height="2.2" fill="#c62828"/>
<rect x="431.6" y="531.1" width="3.3" height="0.9" fill="#c62828" opacity="0.55"/>
<line x1="438.5" y1="352.9" x2="438.5" y2="359.4" stroke="#2e7d32" stroke-width="1"/>
<rect x="436.9" y="352.9" width="3.3" height="6.0" fill="#2e7d32"/>
<rect x="436.9" y="530.6" width="3.3" height="1.4" fill="#2e7d32" opacity="0.55"/>
<line x1="443.8" y1="351.4" x2="443.8" y2="358.9" stroke="#c62828" stroke-width="1"/>
<rect x="442.2" y="351.4" width="3.3" height="1.5" fill="#c62828"/>
<rect x="442.2" y="530.7" width="3.3" height="1.3" fill="#c62828" opacity="0.55"/>
<line x1="449.2" y1="353.8" x2="449.2" y2="366.4" stroke="#c62828" stroke-width="1"/>
<rect x="447.5" y="354.4" width="3.3" height="4.5" fill="#c62828"/>
<rect x="447.5" y="531.4" width="3.3" height="0.6" fill="#c62828" opacity="0.55"/>
<line x1="454.5" y1="356.2" x2="454.5" y2="363.9" stroke="#c62828" stroke-width="1"/>
<rect x="452.8" y="356.2" width="3.3" height="4.2" fill="#c62828"/>
<rect x="452.8" y="531.7" width="3.3" height="0.3" fill="#c62828" opacity="0.55"/>
<line x1="459.8" y1="361.9" x2="459.8" y2="364.9" stroke="#2e7d32" stroke-width="1"/>
<rect x="458.1" y="361.9" width="3.3" height="1.0" fill="#2e7d32"/>
<rect x="458.1" y="531.7" width="3.3" height="0.3" fill="#2e7d32" opacity="0.55"/>
<line x1="465.1" y1="361.9" x2="465.1" y2="364.9" stroke="#2e7d32" stroke-width="1"/>
<rect x="463.4" y="361.9" width="3.3" height="1.5" fill="#2e7d32"/>
<rect x="463.4" y="531.7" width="3.3" height="0.3" fill="#2e7d32" opacity="0.55"/>
<line x1="470.4" y1="352.9" x2="470.4" y2="360.4" stroke="#2e7d32" stroke-width="1"/>
<rect x="468.8" y="355.9" width="3.3" height="4.5" fill="#2e7d32"/>
<rect x="468.8" y="531.3" width="3.3" height="0.7" fill="#2e7d32" opacity="0.55"/>
<line x1="475.7" y1="355.7" x2="475.7" y2="358.9" stroke="#c62828" stroke-width="1"/>
<rect x="474.1" y="355.9" width="3.3" height="3.0" fill="#c62828"/>
<rect x="474.1" y="531.3" width="3.3" height="0.7" fill="#c62828" opacity="0.55"/>
<line x1="481.0" y1="358.9" x2="481.0" y2="363.4" stroke="#c62828" stroke-width="1"/>
<rect x="479.4" y="358.9" width="3.3" height="4.5" fill="#c62828"/>
<rect x="479.4" y="531.9" width="3.3" height="0.1" fill="#c62828" opacity="0.55"/>
<line x1="486.3" y1="353.7" x2="486.3" y2="361.5" stroke="#2e7d32" stroke-width="1"/>
<rect x="484.7" y="355.5" width="3.3" height="5.7" fill="#2e7d32"/>
<rect x="484.7" y="531.6" width="3.3" height="0.4" fill="#2e7d32" opacity="0.55"/>
<line x1="491.7" y1="353.7" x2="491.7" y2="355.9" stroke="#c62828" stroke-width="1"/>
<rect x="490.0" y="353.7" width="3.3" height="2.2" fill="#c62828"/>
<rect x="490.0" y="531.9" width="3.3" height="0.1" fill="#c62828" opacity="0.55"/>
<line x1="497.0" y1="349.9" x2="497.0" y2="355.9" stroke="#2e7d32" stroke-width="1"/>
<rect x="495.3" y="351.4" width="3.3" height="3.2" fill="#2e7d32"/>
<rect x="495.3" y="531.5" width="3.3" height="0.5" fill="#2e7d32" opacity="0.55"/>
<line x1="502.3" y1="351.4" x2="502.3" y2="355.0" stroke="#2e7d32" stroke-width="1"/>
<rect x="500.6" y="353.7" width="3.3" height="1.0" fill="#2e7d32"/>
<rect x="500.6" y="531.6" width="3.3" height="0.4" fill="#2e7d32" opacity="0.55"/>
<line x1="507.6" y1="353.7" x2="507.6" y2="358.9" stroke="#2e7d32" stroke-width="1"/>
<rect x="505.9" y="353.7" width="3.3" height="2.2" fill="#2e7d32"/>
<rect x="505.9" y="531.5" width="3.3" height="0.5" fill="#2e7d32" opacity="0.55"/>
<line x1="512.9" y1="345.5" x2="512.9" y2="355.9" stroke="#2e7d32" stroke-width="1"/>
<rect x="511.3" y="348.4" width="3.3" height="3.8" fill="#2e7d32"/>
<rect x="511.3" y="529.4" width="3.3" height="2.6" fill="#2e7d32" opacity="0.55"/>
<line x1="518.2" y1="347.5" x2="518.2" y2="354.4" stroke="#c62828" stroke-width="1"/>
<rect x="516.6" y="349.9" width="3.3" height="1.0" fill="#c62828"/>
<rect x="516.6" y="531.3" width="3.3" height="0.7" fill="#c62828" opacity="0.55"/>
<line x1="523.5" y1="332.0" x2="523.5" y2="352.9" stroke="#2e7d32" stroke-width="1"/>
<rect x="521.9" y="338.7" width="3.3" height="11.2" fill="#2e7d32"/>
<rect x="521.9" y="523.7" width="3.3" height="8.3" fill="#2e7d32" opacity="0.55"/>
<line x1="528.8" y1="318.6" x2="528.8" y2="344.0" stroke="#2e7d32" stroke-width="1"/>
<rect x="527.2" y="325.3" width="3.3" height="11.2" fill="#2e7d32"/>
<rect x="527.2" y="506.7" width="3.3" height="25.3" fill="#2e7d32" opacity="0.55"/>
<line x1="534.2" y1="309.6" x2="534.2" y2="332.0" stroke="#2e7d32" stroke-width="1"/>
<rect x="532.5" y="320.1" width="3.3" height="4.5" fill="#2e7d32"/>
<rect x="532.5" y="502.8" width="3.3" height="29.2" fill="#2e7d32" opacity="0.55"/>
<line x1="539.5" y1="305.1" x2="539.5" y2="321.6" stroke="#2e7d32" stroke-width="1"/>
<rect x="537.8" y="313.7" width="3.3" height="7.8" fill="#2e7d32"/>
<rect x="537.8" y="504.0" width="3.3" height="28.0" fill="#2e7d32" opacity="0.55"/>
<line x1="544.8" y1="272.3" x2="544.8" y2="314.1" stroke="#2e7d32" stroke-width="1"/>
<rect x="543.1" y="274.0" width="3.3" height="40.1" fill="#2e7d32"/>
<rect x="543.1" y="458.9" width="3.3" height="73.1" fill="#2e7d32" opacity="0.55"/>
<line x1="550.1" y1="267.8" x2="550.1" y2="302.1" stroke="#c62828" stroke-width="1"/>
<rect x="548.4" y="275.2" width="3.3" height="12.0" fill="#c62828"/>
<rect x="548.4" y="442.6" width="3.3" height="89.4" fill="#c62828" opacity="0.55"/>
<line x1="555.4" y1="279.7" x2="555.4" y2="320.1" stroke="#c62828" stroke-width="1"/>
<rect x="553.8" y="286.0" width="3.3" height="25.9" fill="#c62828"/>
<rect x="553.8" y="463.1" width="3.3" height="68.9" fill="#c62828" opacity="0.55"/>
<line x1="560.7" y1="294.7" x2="560.7" y2="317.1" stroke="#c62828" stroke-width="1"/>
<rect x="559.1" y="311.1" width="3.3" height="1.5" fill="#c62828"/>
<rect x="559.1" y="505.5" width="3.3" height="26.5" fill="#c62828" opacity="0.55"/>
<line x1="566.0" y1="309.6" x2="566.0" y2="329.0" stroke="#c62828" stroke-width="1"/>
<rect x="564.4" y="309.6" width="3.3" height="6.5" fill="#c62828"/>
<rect x="564.4" y="500.2" width="3.3" height="31.8" fill="#c62828" opacity="0.55"/>
<line x1="571.3" y1="305.1" x2="571.3" y2="321.6" stroke="#2e7d32" stroke-width="1"/>
<rect x="569.7" y="312.6" width="3.3" height="3.7" fill="#2e7d32"/>
<rect x="569.7" y="513.1" width="3.3" height="18.9" fill="#2e7d32" opacity="0.55"/>
<line x1="576.7" y1="312.6" x2="576.7" y2="336.5" stroke="#c62828" stroke-width="1"/>
<rect x="575.0" y="314.1" width="3.3" height="18.7" fill="#c62828"/>
<rect x="575.0" y="503.1" width="3.3" height="28.9" fill="#c62828" opacity="0.55"/>
<line x1="582.0" y1="323.1" x2="582.0" y2="336.5" stroke="#c62828" stroke-width="1"/>
<rect x="580.3" y="333.5" width="3.3" height="1.0" fill="#c62828"/>
<rect x="580.3" y="519.7" width="3.3" height="12.3" fill="#c62828" opacity="0.55"/>
<line x1="587.3" y1="318.6" x2="587.3" y2="335.0" stroke="#2e7d32" stroke-width="1"/>
<rect x="585.6" y="320.1" width="3.3" height="13.5" fill="#2e7d32"/>
<rect x="585.6" y="518.5" width="3.3" height="13.5" fill="#2e7d32" opacity="0.55"/>
<line x1="592.6" y1="318.6" x2="592.6" y2="329.0" stroke="#c62828" stroke-width="1"/>
<rect x="590.9" y="320.8" width="3.3" height="5.2" fill="#c62828"/>
<rect x="590.9" y="524.3" width="3.3" height="7.7" fill="#c62828" opacity="0.55"/>
<line x1="597.9" y1="312.6" x2="597.9" y2="330.5" stroke="#2e7d32" stroke-width="1"/>
<rect x="596.3" y="317.1" width="3.3" height="9.0" fill="#2e7d32"/>
<rect x="596.3" y="513.2" width="3.3" height="18.8" fill="#2e7d32" opacity="0.55"/>
<line x1="603.2" y1="309.4" x2="603.2" y2="323.0" stroke="#2e7d32" stroke-width="1"/>
<rect x="601.6" y="315.6" width="3.3" height="1.0" fill="#2e7d32"/>
<rect x="601.6" y="515.3" width="3.3" height="16.7" fill="#2e7d32" opacity="0.55"/>
<line x1="608.5" y1="314.1" x2="608.5" y2="329.0" stroke="#c62828" stroke-width="1"/>
<rect x="606.9" y="315.6" width="3.3" height="6.1" fill="#c62828"/>
<rect x="606.9" y="523.4" width="3.3" height="8.6" fill="#c62828" opacity="0.55"/>
<line x1="613.8" y1="311.1" x2="613.8" y2="324.5" stroke="#2e7d32" stroke-width="1"/>
<rect x="612.2" y="315.6" width="3.3" height="6.7" fill="#2e7d32"/>
<rect x="612.2" y="522.9" width="3.3" height="9.1" fill="#2e7d32" opacity="0.55"/>
<line x1="619.2" y1="315.6" x2="619.2" y2="323.1" stroke="#c62828" stroke-width="1"/>
<rect x="617.5" y="315.8" width="3.3" height="5.8" fill="#c62828"/>
<rect x="617.5" y="526.6" width="3.3" height="5.4" fill="#c62828" opacity="0.55"/>
<line x1="624.5" y1="312.6" x2="624.5" y2="323.1" stroke="#2e7d32" stroke-width="1"/>
<rect x="622.8" y="317.7" width="3.3" height="3.9" fill="#2e7d32"/>
<rect x="622.8" y="525.5" width="3.3" height="6.5" fill="#2e7d32" opacity="0.55"/>
<line x1="629.8" y1="312.6" x2="629.8" y2="323.1" stroke="#2e7d32" stroke-width="1"/>
<rect x="628.1" y="314.1" width="3.3" height="4.5" fill="#2e7d32"/>
<rect x="628.1" y="525.0" width="3.3" height="7.0" fill="#2e7d32" opacity="0.55"/>
<line x1="635.1" y1="296.2" x2="635.1" y2="318.6" stroke="#2e7d32" stroke-width="1"/>
<rect x="633.4" y="307.4" width="3.3" height="8.2" fill="#2e7d32"/>
<rect x="633.4" y="498.5" width="3.3" height="33.5" fill="#2e7d32" opacity="0.55"/>
<line x1="640.4" y1="284.2" x2="640.4" y2="314.1" stroke="#2e7d32" stroke-width="1"/>
<rect x="638.8" y="300.6" width="3.3" height="7.3" fill="#2e7d32"/>
<rect x="638.8" y="492.0" width="3.3" height="40.0" fill="#2e7d32" opacity="0.55"/>
<line x1="645.7" y1="263.3" x2="645.7" y2="311.1" stroke="#2e7d32" stroke-width="1"/>
<rect x="644.1" y="263.3" width="3.3" height="35.8" fill="#2e7d32"/>
<rect x="644.1" y="467.1" width="3.3" height="64.9" fill="#2e7d32" opacity="0.55"/>
<line x1="651.0" y1="251.4" x2="651.0" y2="305.1" stroke="#c62828" stroke-width="1"/>
<rect x="649.4" y="264.8" width="3.3" height="33.1" fill="#c62828"/>
<rect x="649.4" y="412.0" width="3.3" height="120.0" fill="#c62828" opacity="0.55"/>
<line x1="656.3" y1="269.3" x2="656.3" y2="297.7" stroke="#2e7d32" stroke-width="1"/>
<rect x="654.7" y="274.0" width="3.3" height="23.7" fill="#2e7d32"/>
<rect x="654.7" y="466.4" width="3.3" height="65.6" fill="#2e7d32" opacity="0.55"/>
<line x1="661.7" y1="260.3" x2="661.7" y2="285.7" stroke="#c62828" stroke-width="1"/>
<rect x="660.0" y="273.8" width="3.3" height="1.5" fill="#c62828"/>
<rect x="660.0" y="459.9" width="3.3" height="72.1" fill="#c62828" opacity="0.55"/>
<line x1="667.0" y1="267.8" x2="667.0" y2="299.2" stroke="#c62828" stroke-width="1"/>
<rect x="665.3" y="276.8" width="3.3" height="13.5" fill="#c62828"/>
<rect x="665.3" y="481.1" width="3.3" height="50.9" fill="#c62828" opacity="0.55"/>
<line x1="672.3" y1="288.7" x2="672.3" y2="306.6" stroke="#c62828" stroke-width="1"/>
<rect x="670.6" y="291.7" width="3.3" height="7.5" fill="#c62828"/>
<rect x="670.6" y="498.1" width="3.3" height="33.9" fill="#c62828" opacity="0.55"/>
<line x1="677.6" y1="297.7" x2="677.6" y2="324.5" stroke="#c62828" stroke-width="1"/>
<rect x="675.9" y="299.2" width="3.3" height="13.4" fill="#c62828"/>
<rect x="675.9" y="484.4" width="3.3" height="47.6" fill="#c62828" opacity="0.55"/>
<line x1="682.9" y1="311.9" x2="682.9" y2="327.5" stroke="#c62828" stroke-width="1"/>
<rect x="681.3" y="312.6" width="3.3" height="14.2" fill="#c62828"/>
<rect x="681.3" y="517.2" width="3.3" height="14.8" fill="#c62828" opacity="0.55"/>
<line x1="688.2" y1="315.6" x2="688.2" y2="333.5" stroke="#2e7d32" stroke-width="1"/>
<rect x="686.6" y="326.1" width="3.3" height="1.5" fill="#2e7d32"/>
<rect x="686.6" y="502.8" width="3.3" height="29.2" fill="#2e7d32" opacity="0.55"/>
<line x1="693.5" y1="318.6" x2="693.5" y2="327.5" stroke="#2e7d32" stroke-width="1"/>
<rect x="691.9" y="321.6" width="3.3" height="4.7" fill="#2e7d32"/>
<rect x="691.9" y="520.3" width="3.3" height="11.7" fill="#2e7d32" opacity="0.55"/>
<line x1="698.8" y1="320.1" x2="698.8" y2="326.0" stroke="#c62828" stroke-width="1"/>
<rect x="697.2" y="320.8" width="3.3" height="2.2" fill="#c62828"/>
<rect x="697.2" y="525.2" width="3.3" height="6.8" fill="#c62828" opacity="0.55"/>
<line x1="704.2" y1="318.6" x2="704.2" y2="323.1" stroke="#2e7d32" stroke-width="1"/>
<rect x="702.5" y="323.1" width="3.3" height="1.0" fill="#2e7d32"/>
<rect x="702.5" y="519.9" width="3.3" height="12.1" fill="#2e7d32" opacity="0.55"/>
<line x1="709.5" y1="321.6" x2="709.5" y2="358.9" stroke="#c62828" stroke-width="1"/>
<rect x="707.8" y="322.9" width="3.3" height="30.2" fill="#c62828"/>
<rect x="707.8" y="500.2" width="3.3" height="31.8" fill="#c62828" opacity="0.55"/>
<line x1="714.8" y1="346.9" x2="714.8" y2="354.4" stroke="#2e7d32" stroke-width="1"/>
<rect x="713.1" y="349.7" width="3.3" height="4.0" fill="#2e7d32"/>
<rect x="713.1" y="522.4" width="3.3" height="9.6" fill="#2e7d32" opacity="0.55"/>
<line x1="720.1" y1="344.7" x2="720.1" y2="351.4" stroke="#2e7d32" stroke-width="1"/>
<rect x="718.4" y="345.5" width="3.3" height="3.0" fill="#2e7d32"/>
<rect x="718.4" y="523.5" width="3.3" height="8.5" fill="#2e7d32" opacity="0.55"/>
<line x1="725.4" y1="345.5" x2="725.4" y2="363.4" stroke="#c62828" stroke-width="1"/>
<rect x="723.8" y="345.5" width="3.3" height="7.5" fill="#c62828"/>
<rect x="723.8" y="532.0" width="3.3" height="0.0" fill="#c62828" opacity="0.55"/>
<line x1="730.7" y1="351.4" x2="730.7" y2="366.4" stroke="#c62828" stroke-width="1"/>
<rect x="729.1" y="354.3" width="3.3" height="10.4" fill="#c62828"/>
<rect x="729.1" y="532.0" width="3.3" height="0.0" fill="#c62828" opacity="0.55"/>
<line x1="736.0" y1="345.5" x2="736.0" y2="364.9" stroke="#2e7d32" stroke-width="1"/>
<rect x="734.4" y="363.3" width="3.3" height="1.6" fill="#2e7d32"/>
<rect x="734.4" y="532.0" width="3.3" height="0.0" fill="#2e7d32" opacity="0.55"/>
<line x1="741.3" y1="342.5" x2="741.3" y2="363.4" stroke="#2e7d32" stroke-width="1"/>
<rect x="739.7" y="349.9" width="3.3" height="12.0" fill="#2e7d32"/>
<rect x="739.7" y="532.0" width="3.3" height="0.0" fill="#2e7d32" opacity="0.55"/>
<line x1="746.7" y1="324.5" x2="746.7" y2="356.1" stroke="#2e7d32" stroke-width="1"/>
<rect x="745.0" y="332.0" width="3.3" height="17.9" fill="#2e7d32"/>
<rect x="745.0" y="532.0" width="3.3" height="0.0" fill="#2e7d32" opacity="0.55"/>
<line x1="752.0" y1="320.1" x2="752.0" y2="339.5" stroke="#c62828" stroke-width="1"/>
<rect x="750.3" y="330.7" width="3.3" height="1.3" fill="#c62828"/>
<rect x="750.3" y="532.0" width="3.3" height="0.0" fill="#c62828" opacity="0.55"/>
<line x1="757.3" y1="320.1" x2="757.3" y2="336.5" stroke="#c62828" stroke-width="1"/>
<rect x="755.6" y="329.0" width="3.3" height="7.5" fill="#c62828"/>
<rect x="755.6" y="532.0" width="3.3" height="0.0" fill="#c62828" opacity="0.55"/>
<line x1="762.6" y1="336.5" x2="762.6" y2="361.9" stroke="#c62828" stroke-width="1"/>
<rect x="760.9" y="336.5" width="3.3" height="10.4" fill="#c62828"/>
<rect x="760.9" y="532.0" width="3.3" height="0.0" fill="#c62828" opacity="0.55"/>
<line x1="767.9" y1="344.0" x2="767.9" y2="354.4" stroke="#c62828" stroke-width="1"/>
<rect x="766.3" y="346.9" width="3.3" height="4.5" fill="#c62828"/>
<rect x="766.3" y="532.0" width="3.3" height="0.0" fill="#c62828" opacity="0.55"/>
<line x1="773.2" y1="351.4" x2="773.2" y2="357.4" stroke="#c62828" stroke-width="1"/>
<rect x="771.6" y="351.4" width="3.3" height="3.0" fill="#c62828"/>
<rect x="771.6" y="532.0" width="3.3" height="0.0" fill="#c62828" opacity="0.55"/>
<line x1="778.5" y1="351.4" x2="778.5" y2="355.9" stroke="#c62828" stroke-width="1"/>
<rect x="776.9" y="354.4" width="3.3" height="1.0" fill="#c62828"/>
<rect x="776.9" y="532.0" width="3.3" height="0.0" fill="#c62828" opacity="0.55"/>
<line x1="783.8" y1="327.5" x2="783.8" y2="358.9" stroke="#2e7d32" stroke-width="1"/>
<rect x="782.2" y="329.1" width="3.3" height="25.3" fill="#2e7d32"/>
<rect x="782.2" y="532.0" width="3.3" height="0.0" fill="#2e7d32" opacity="0.55"/>
<line x1="789.2" y1="296.2" x2="789.2" y2="339.5" stroke="#2e7d32" stroke-width="1"/>
<rect x="787.5" y="306.7" width="3.3" height="22.4" fill="#2e7d32"/>
<rect x="787.5" y="532.0" width="3.3" height="0.0" fill="#2e7d32" opacity="0.55"/>
<line x1="794.5" y1="290.2" x2="794.5" y2="330.5" stroke="#c62828" stroke-width="1"/>
<rect x="792.8" y="308.1" width="3.3" height="15.0" fill="#c62828"/>
<rect x="792.8" y="532.0" width="3.3" height="0.0" fill="#c62828" opacity="0.55"/>
<line x1="799.8" y1="300.5" x2="799.8" y2="327.5" stroke="#2e7d32" stroke-width="1"/>
<rect x="798.1" y="303.6" width="3.3" height="19.5" fill="#2e7d32"/>
<rect x="798.1" y="532.0" width="3.3" height="0.0" fill="#2e7d32" opacity="0.55"/>
<line x1="805.1" y1="293.2" x2="805.1" y2="317.1" stroke="#2e7d32" stroke-width="1"/>
<rect x="803.4" y="294.8" width="3.3" height="7.3" fill="#2e7d32"/>
<rect x="803.4" y="532.0" width="3.3" height="0.0" fill="#2e7d32" opacity="0.55"/>
<line x1="810.4" y1="291.7" x2="810.4" y2="329.0" stroke="#c62828" stroke-width="1"/>
<rect x="808.8" y="294.7" width="3.3" height="26.9" fill="#c62828"/>
<rect x="808.8" y="532.0" width="3.3" height="0.0" fill="#c62828" opacity="0.55"/>
<line x1="815.7" y1="314.1" x2="815.7" y2="342.5" stroke="#c62828" stroke-width="1"/>
<rect x="814.1" y="321.6" width="3.3" height="12.0" fill="#c62828"/>
<rect x="814.1" y="532.0" width="3.3" height="0.0" fill="#c62828" opacity="0.55"/>
<line x1="821.0" y1="317.1" x2="821.0" y2="335.0" stroke="#2e7d32" stroke-width="1"/>
<rect x="819.4" y="323.1" width="3.3" height="11.9" fill="#2e7d32"/>
<rect x="819.4" y="532.0" width="3.3" height="0.0" fill="#2e7d32" opacity="0.55"/>
<line x1="826.3" y1="309.6" x2="826.3" y2="330.5" stroke="#2e7d32" stroke-width="1"/>
<rect x="824.7" y="317.1" width="3.3" height="4.4" fill="#2e7d32"/>
<rect x="824.7" y="532.0" width="3.3" height="0.0" fill="#2e7d32" opacity="0.55"/>
<line x1="831.7" y1="299.2" x2="831.7" y2="317.1" stroke="#2e7d32" stroke-width="1"/>
<rect x="830.0" y="305.1" width="3.3" height="11.9" fill="#2e7d32"/>
<rect x="830.0" y="532.0" width="3.3" height="0.0" fill="#2e7d32" opacity="0.55"/>
<line x1="837.0" y1="305.1" x2="837.0" y2="326.0" stroke="#c62828" stroke-width="1"/>
<rect x="835.3" y="306.6" width="3.3" height="11.9" fill="#c62828"/>
<rect x="835.3" y="532.0" width="3.3" height="0.0" fill="#c62828" opacity="0.55"/>
<line x1="842.3" y1="309.6" x2="842.3" y2="321.6" stroke="#c62828" stroke-width="1"/>
<rect x="840.6" y="318.6" width="3.3" height="1.0" fill="#c62828"/>
<rect x="840.6" y="532.0" width="3.3" height="0.0" fill="#c62828" opacity="0.55"/>
<line x1="847.6" y1="308.1" x2="847.6" y2="318.6" stroke="#2e7d32" stroke-width="1"/>
<rect x="845.9" y="317.1" width="3.3" height="1.5" fill="#2e7d32"/>
<rect x="845.9" y="532.0" width="3.3" height="0.0" fill="#2e7d32" opacity="0.55"/>
<line x1="852.9" y1="317.1" x2="852.9" y2="327.5" stroke="#c62828" stroke-width="1"/>
<rect x="851.3" y="317.2" width="3.3" height="10.4" fill="#c62828"/>
<rect x="851.3" y="532.0" width="3.3" height="0.0" fill="#c62828" opacity="0.55"/>
<line x1="858.2" y1="324.4" x2="858.2" y2="338.0" stroke="#2e7d32" stroke-width="1"/>
<rect x="856.6" y="327.5" width="3.3" height="1.0" fill="#2e7d32"/>
<rect x="856.6" y="532.0" width="3.3" height="0.0" fill="#2e7d32" opacity="0.55"/>
<line x1="863.5" y1="317.1" x2="863.5" y2="327.5" stroke="#2e7d32" stroke-width="1"/>
<rect x="861.9" y="318.6" width="3.3" height="9.0" fill="#2e7d32"/>
<rect x="861.9" y="532.0" width="3.3" height="0.0" fill="#2e7d32" opacity="0.55"/>
<line x1="868.8" y1="311.1" x2="868.8" y2="326.0" stroke="#2e7d32" stroke-width="1"/>
<rect x="867.2" y="314.0" width="3.3" height="6.1" fill="#2e7d32"/>
<rect x="867.2" y="532.0" width="3.3" height="0.0" fill="#2e7d32" opacity="0.55"/>
<line x1="874.2" y1="312.6" x2="874.2" y2="326.0" stroke="#c62828" stroke-width="1"/>
<rect x="872.5" y="314.0" width="3.3" height="3.1" fill="#c62828"/>
<rect x="872.5" y="532.0" width="3.3" height="0.0" fill="#c62828" opacity="0.55"/>
<line x1="879.5" y1="317.1" x2="879.5" y2="321.6" stroke="#c62828" stroke-width="1"/>
<rect x="877.8" y="318.6" width="3.3" height="1.4" fill="#c62828"/>
<rect x="877.8" y="532.0" width="3.3" height="0.0" fill="#c62828" opacity="0.55"/>
<line x1="884.8" y1="317.1" x2="884.8" y2="324.5" stroke="#c62828" stroke-width="1"/>
<rect x="883.1" y="319.9" width="3.3" height="3.1" fill="#c62828"/>
<rect x="883.1" y="532.0" width="3.3" height="0.0" fill="#c62828" opacity="0.55"/>
<line x1="890.1" y1="314.1" x2="890.1" y2="324.5" stroke="#2e7d32" stroke-width="1"/>
<rect x="888.4" y="320.1" width="3.3" height="2.8" fill="#2e7d32"/>
<rect x="888.4" y="532.0" width="3.3" height="0.0" fill="#2e7d32" opacity="0.55"/>
<line x1="895.4" y1="300.8" x2="895.4" y2="321.5" stroke="#2e7d32" stroke-width="1"/>
<rect x="893.8" y="300.9" width="3.3" height="20.5" fill="#2e7d32"/>
<rect x="893.8" y="532.0" width="3.3" height="0.0" fill="#2e7d32" opacity="0.55"/>
<line x1="900.7" y1="300.6" x2="900.7" y2="312.6" stroke="#2e7d32" stroke-width="1"/>
<rect x="899.1" y="300.9" width="3.3" height="1.2" fill="#2e7d32"/>
<rect x="899.1" y="532.0" width="3.3" height="0.0" fill="#2e7d32" opacity="0.55"/>
<line x1="906.0" y1="297.7" x2="906.0" y2="312.6" stroke="#c62828" stroke-width="1"/>
<rect x="904.4" y="300.6" width="3.3" height="9.0" fill="#c62828"/>
<rect x="904.4" y="532.0" width="3.3" height="0.0" fill="#c62828" opacity="0.55"/>
<line x1="911.3" y1="308.1" x2="911.3" y2="318.6" stroke="#c62828" stroke-width="1"/>
<rect x="909.7" y="309.6" width="3.3" height="4.5" fill="#c62828"/>
<rect x="909.7" y="532.0" width="3.3" height="0.0" fill="#c62828" opacity="0.55"/>
<line x1="916.7" y1="294.7" x2="916.7" y2="312.8" stroke="#2e7d32" stroke-width="1"/>
<rect x="915.0" y="303.6" width="3.3" height="9.0" fill="#2e7d32"/>
<rect x="915.0" y="532.0" width="3.3" height="0.0" fill="#2e7d32" opacity="0.55"/>
<line x1="922.0" y1="299.2" x2="922.0" y2="308.1" stroke="#c62828" stroke-width="1"/>
<rect x="920.3" y="302.1" width="3.3" height="2.9" fill="#c62828"/>
<rect x="920.3" y="532.0" width="3.3" height="0.0" fill="#c62828" opacity="0.55"/>
<line x1="927.3" y1="296.2" x2="927.3" y2="306.6" stroke="#2e7d32" stroke-width="1"/>
<rect x="925.6" y="305.1" width="3.3" height="1.0" fill="#2e7d32"/>
<rect x="925.6" y="532.0" width="3.3" height="0.0" fill="#2e7d32" opacity="0.55"/>
<line x1="932.6" y1="284.2" x2="932.6" y2="303.7" stroke="#2e7d32" stroke-width="1"/>
<rect x="930.9" y="288.7" width="3.3" height="15.0" fill="#2e7d32"/>
<rect x="930.9" y="532.0" width="3.3" height="0.0" fill="#2e7d32" opacity="0.55"/>
<line x1="937.9" y1="267.8" x2="937.9" y2="293.2" stroke="#2e7d32" stroke-width="1"/>
<rect x="936.3" y="279.9" width="3.3" height="8.8" fill="#2e7d32"/>
<rect x="936.3" y="532.0" width="3.3" height="0.0" fill="#2e7d32" opacity="0.55"/>
<line x1="943.2" y1="272.3" x2="943.2" y2="293.2" stroke="#c62828" stroke-width="1"/>
<rect x="941.6" y="279.7" width="3.3" height="9.0" fill="#c62828"/>
<rect x="941.6" y="532.0" width="3.3" height="0.0" fill="#c62828" opacity="0.55"/>
<line x1="948.5" y1="279.7" x2="948.5" y2="288.7" stroke="#2e7d32" stroke-width="1"/>
<rect x="946.9" y="284.2" width="3.3" height="4.5" fill="#2e7d32"/>
<rect x="946.9" y="532.0" width="3.3" height="0.0" fill="#2e7d32" opacity="0.55"/>
<line x1="953.8" y1="282.7" x2="953.8" y2="300.6" stroke="#c62828" stroke-width="1"/>
<rect x="952.2" y="284.2" width="3.3" height="9.0" fill="#c62828"/>
<rect x="952.2" y="532.0" width="3.3" height="0.0" fill="#c62828" opacity="0.55"/>
<line x1="959.2" y1="290.2" x2="959.2" y2="324.6" stroke="#c62828" stroke-width="1"/>
<rect x="957.5" y="294.6" width="3.3" height="21.0" fill="#c62828"/>
<rect x="957.5" y="532.0" width="3.3" height="0.0" fill="#c62828" opacity="0.55"/>
<line x1="964.5" y1="314.1" x2="964.5" y2="323.1" stroke="#c62828" stroke-width="1"/>
<rect x="962.8" y="314.2" width="3.3" height="4.4" fill="#c62828"/>
<rect x="962.8" y="532.0" width="3.3" height="0.0" fill="#c62828" opacity="0.55"/>
<line x1="969.8" y1="317.1" x2="969.8" y2="330.5" stroke="#c62828" stroke-width="1"/>
<rect x="968.1" y="317.1" width="3.3" height="4.5" fill="#c62828"/>
<rect x="968.1" y="532.0" width="3.3" height="0.0" fill="#c62828" opacity="0.55"/>
<line x1="975.1" y1="314.1" x2="975.1" y2="324.5" stroke="#2e7d32" stroke-width="1"/>
<rect x="973.4" y="315.6" width="3.3" height="7.5" fill="#2e7d32"/>
<rect x="973.4" y="532.0" width="3.3" height="0.0" fill="#2e7d32" opacity="0.55"/>
<line x1="980.4" y1="55.7" x2="980.4" y2="308.1" stroke="#2e7d32" stroke-width="1"/>
<rect x="978.8" y="73.6" width="3.3" height="230.0" fill="#2e7d32"/>
<rect x="978.8" y="532.0" width="3.3" height="0.0" fill="#2e7d32" opacity="0.55"/>
<line x1="985.7" y1="66.2" x2="985.7" y2="122.9" stroke="#c62828" stroke-width="1"/>
<rect x="984.1" y="75.0" width="3.3" height="42.0" fill="#c62828"/>
<rect x="984.1" y="532.0" width="3.3" height="0.0" fill="#c62828" opacity="0.55"/>
<line x1="991.0" y1="98.9" x2="991.0" y2="145.3" stroke="#c62828" stroke-width="1"/>
<rect x="989.4" y="114.1" width="3.3" height="20.7" fill="#c62828"/>
<rect x="989.4" y="532.0" width="3.3" height="0.0" fill="#c62828" opacity="0.55"/>
<line x1="996.3" y1="112.5" x2="996.3" y2="164.9" stroke="#c62828" stroke-width="1"/>
<rect x="994.7" y="134.8" width="3.3" height="28.6" fill="#c62828"/>
<rect x="994.7" y="532.0" width="3.3" height="0.0" fill="#c62828" opacity="0.55"/>
<line x1="1001.7" y1="154.3" x2="1001.7" y2="182.7" stroke="#2e7d32" stroke-width="1"/>
<rect x="1000.0" y="158.6" width="3.3" height="6.1" fill="#2e7d32"/>
<rect x="1000.0" y="532.0" width="3.3" height="0.0" fill="#2e7d32" opacity="0.55"/>
<line x1="1007.0" y1="155.8" x2="1007.0" y2="218.5" stroke="#c62828" stroke-width="1"/>
<rect x="1005.3" y="157.3" width="3.3" height="56.6" fill="#c62828"/>
<rect x="1005.3" y="532.0" width="3.3" height="0.0" fill="#c62828" opacity="0.55"/>
<line x1="1012.3" y1="212.5" x2="1012.3" y2="245.4" stroke="#c62828" stroke-width="1"/>
<rect x="1010.6" y="212.7" width="3.3" height="23.7" fill="#c62828"/>
<rect x="1010.6" y="532.0" width="3.3" height="0.0" fill="#c62828" opacity="0.55"/>
<line x1="1017.6" y1="221.5" x2="1017.6" y2="245.4" stroke="#2e7d32" stroke-width="1"/>
<rect x="1015.9" y="224.5" width="3.3" height="10.5" fill="#2e7d32"/>
<rect x="1015.9" y="532.0" width="3.3" height="0.0" fill="#2e7d32" opacity="0.55"/>
<line x1="1022.9" y1="214.0" x2="1022.9" y2="255.8" stroke="#c62828" stroke-width="1"/>
<rect x="1021.3" y="223.1" width="3.3" height="19.3" fill="#c62828"/>
<rect x="1021.3" y="532.0" width="3.3" height="0.0" fill="#c62828" opacity="0.55"/>
<line x1="1028.2" y1="220.0" x2="1028.2" y2="243.9" stroke="#2e7d32" stroke-width="1"/>
<rect x="1026.6" y="223.6" width="3.3" height="20.3" fill="#2e7d32"/>
<rect x="1026.6" y="532.0" width="3.3" height="0.0" fill="#2e7d32" opacity="0.55"/>
<line x1="1033.5" y1="200.7" x2="1033.5" y2="230.5" stroke="#2e7d32" stroke-width="1"/>
<rect x="1031.9" y="223.1" width="3.3" height="1.0" fill="#2e7d32"/>
<rect x="1031.9" y="532.0" width="3.3" height="0.0" fill="#2e7d32" opacity="0.55"/>
<line x1="1038.8" y1="209.5" x2="1038.8" y2="224.5" stroke="#2e7d32" stroke-width="1"/>
<rect x="1037.2" y="209.5" width="3.3" height="14.9" fill="#2e7d32"/>
<rect x="1037.2" y="532.0" width="3.3" height="0.0" fill="#2e7d32" opacity="0.55"/>
<line x1="1044.2" y1="208.1" x2="1044.2" y2="243.9" stroke="#c62828" stroke-width="1"/>
<rect x="1042.5" y="209.5" width="3.3" height="26.9" fill="#c62828"/>
<rect x="1042.5" y="532.0" width="3.3" height="0.0" fill="#c62828" opacity="0.55"/>
<line x1="1049.5" y1="229.1" x2="1049.5" y2="240.9" stroke="#2e7d32" stroke-width="1"/>
<rect x="1047.8" y="231.8" width="3.3" height="6.1" fill="#2e7d32"/>
<rect x="1047.8" y="532.0" width="3.3" height="0.0" fill="#2e7d32" opacity="0.55"/>
<line x1="1054.8" y1="224.5" x2="1054.8" y2="240.9" stroke="#2e7d32" stroke-width="1"/>
<rect x="1053.1" y="226.1" width="3.3" height="5.8" fill="#2e7d32"/>
<rect x="1053.1" y="532.0" width="3.3" height="0.0" fill="#2e7d32" opacity="0.55"/>
<line x1="1060.1" y1="206.6" x2="1060.1" y2="233.4" stroke="#2e7d32" stroke-width="1"/>
<rect x="1058.4" y="206.6" width="3.3" height="19.6" fill="#2e7d32"/>
<rect x="1058.4" y="532.0" width="3.3" height="0.0" fill="#2e7d32" opacity="0.55"/>
<line x1="1065.4" y1="206.6" x2="1065.4" y2="231.9" stroke="#c62828" stroke-width="1"/>
<rect x="1063.8" y="207.9" width="3.3" height="16.4" fill="#c62828"/>
<rect x="1063.8" y="532.0" width="3.3" height="0.0" fill="#c62828" opacity="0.55"/>
<line x1="1070.7" y1="223.0" x2="1070.7" y2="236.4" stroke="#c62828" stroke-width="1"/>
<rect x="1069.1" y="224.3" width="3.3" height="1.5" fill="#c62828"/>
<rect x="1069.1" y="532.0" width="3.3" height="0.0" fill="#c62828" opacity="0.55"/>
<line x1="1076.0" y1="224.5" x2="1076.0" y2="229.0" stroke="#c62828" stroke-width="1"/>
<rect x="1074.4" y="224.6" width="3.3" height="2.7" fill="#c62828"/>
<rect x="1074.4" y="532.0" width="3.3" height="0.0" fill="#c62828" opacity="0.55"/>
<line x1="1081.3" y1="227.3" x2="1081.3" y2="227.3" stroke="#2e7d32" stroke-width="1"/>
<rect x="1079.7" y="227.3" width="3.3" height="1.0" fill="#2e7d32"/>
<rect x="1079.7" y="532.0" width="3.3" height="0.0" fill="#2e7d32" opacity="0.55"/>
<line x1="64" y1="532" x2="1084" y2="532" stroke="#ccc"/>
<text x="58" y="420" font-size="9" fill="#999" text-anchor="end">2.2M</text>
<line x1="66.7" y1="532" x2="66.7" y2="536" stroke="#999"/>
<text x="66.7" y="547.0" font-size="9" fill="#666" text-anchor="middle">07/13 04:00</text>
<line x1="236.7" y1="532" x2="236.7" y2="536" stroke="#999"/>
<text x="236.7" y="547.0" font-size="9" fill="#666" text-anchor="middle">08:10</text>
<line x1="406.7" y1="532" x2="406.7" y2="536" stroke="#999"/>
<text x="406.7" y="547.0" font-size="9" fill="#666" text-anchor="middle">11:00</text>
<line x1="576.7" y1="532" x2="576.7" y2="536" stroke="#999"/>
<text x="576.7" y="547.0" font-size="9" fill="#666" text-anchor="middle">13:40</text>
<line x1="746.7" y1="532" x2="746.7" y2="536" stroke="#999"/>
<text x="746.7" y="547.0" font-size="9" fill="#666" text-anchor="middle">16:20</text>
<line x1="916.7" y1="532" x2="916.7" y2="536" stroke="#999"/>
<text x="916.7" y="547.0" font-size="9" fill="#666" text-anchor="middle">19:00</text>
<text x="64" y="22" font-size="15" font-weight="bold" fill="#1a1a1a">VMAR - Vision Marine Technologies Inc.</text>
<text x="1084" y="22" font-size="11" fill="#666" text-anchor="end">last $2.20 (+77.5% over window)</text>
<rect x="934" y="28" width="10" height="8" fill="#e8f0fe"/>
<text x="948" y="35" font-size="9" fill="#666">premarket</text>
<rect x="1006" y="28" width="10" height="8" fill="#fff4e0"/>
<text x="1020" y="35" font-size="9" fill="#666">after-hrs</text>
</svg>