<svg xmlns="http://www.w3.org/2000/svg" width="1100" height="560" viewBox="0 0 1100 560" font-family="Arial,Helvetica,sans-serif">
<rect width="1100" height="560" fill="white"/>
<rect x="64.0" y="36" width="114.2" height="496.0" fill="#e8f0fe"/>
<rect x="627.3" y="36" width="304.5" height="496.0" fill="#fff4e0"/>
<rect x="931.8" y="36" width="152.2" height="496.0" fill="#e8f0fe"/>
<line x1="64" y1="404.0" x2="1084" y2="404.0" stroke="#e6e6e6"/>
<text x="58" y="407.0" font-size="10" fill="#666" text-anchor="end">$0.40</text>
<line x1="64" y1="312.0" x2="1084" y2="312.0" stroke="#e6e6e6"/>
<text x="58" y="315.0" font-size="10" fill="#666" text-anchor="end">$0.56</text>
<line x1="64" y1="220.0" x2="1084" y2="220.0" stroke="#e6e6e6"/>
<text x="58" y="223.0" font-size="10" fill="#666" text-anchor="end">$0.71</text>
<line x1="64" y1="128.0" x2="1084" y2="128.0" stroke="#e6e6e6"/>
<text x="58" y="131.0" font-size="10" fill="#666" text-anchor="end">$0.87</text>
<line x1="64" y1="36.0" x2="1084" y2="36.0" stroke="#e6e6e6"/>
<text x="58" y="39.0" font-size="10" fill="#666" text-anchor="end">$1.02</text>
<line x1="67.8" y1="378.1" x2="67.8" y2="384.3" stroke="#2e7d32" stroke-width="1"/>
<rect x="65.4" y="378.1" width="4.7" height="6.2" fill="#2e7d32"/>
<rect x="65.4" y="532.0" width="4.7" height="0.0" fill="#2e7d32" opacity="0.55"/>
<line x1="75.4" y1="378.1" x2="75.4" y2="378.1" stroke="#2e7d32" stroke-width="1"/>
<rect x="73.1" y="378.1" width="4.7" height="1.0" fill="#2e7d32"/>
<rect x="73.1" y="532.0" width="4.7" height="0.0" fill="#2e7d32" opacity="0.55"/>
<line x1="83.0" y1="361.2" x2="83.0" y2="361.2" stroke="#2e7d32" stroke-width="1"/>
<rect x="80.7" y="361.2" width="4.7" height="1.0" fill="#2e7d32"/>
<rect x="80.7" y="532.0" width="4.7" height="0.0" fill="#2e7d32" opacity="0.55"/>
<line x1="90.6" y1="361.2" x2="90.6" y2="361.6" stroke="#c62828" stroke-width="1"/>
<rect x="88.3" y="361.2" width="4.7" height="1.0" fill="#c62828"/>
<rect x="88.3" y="532.0" width="4.7" height="0.0" fill="#c62828" opacity="0.55"/>
<line x1="98.3" y1="378.1" x2="98.3" y2="378.1" stroke="#2e7d32" stroke-width="1"/>
<rect x="95.9" y="378.1" width="4.7" height="1.0" fill="#2e7d32"/>
<rect x="95.9" y="532.0" width="4.7" height="0.0" fill="#2e7d32" opacity="0.55"/>
<line x1="105.9" y1="378.1" x2="105.9" y2="378.1" stroke="#2e7d32" stroke-width="1"/>
<rect x="103.5" y="378.1" width="4.7" height="1.0" fill="#2e7d32"/>
<rect x="103.5" y="532.0" width="4.7" height="0.0" fill="#2e7d32" opacity="0.55"/>
<line x1="113.5" y1="381.8" x2="113.5" y2="381.8" stroke="#2e7d32" stroke-width="1"/>
<rect x="111.1" y="381.8" width="4.7" height="1.0" fill="#2e7d32"/>
<rect x="111.1" y="532.0" width="4.7" height="0.0" fill="#2e7d32" opacity="0.55"/>
<line x1="121.1" y1="378.2" x2="121.1" y2="378.2" stroke="#2e7d32" stroke-width="1"/>
<rect x="118.7" y="378.2" width="4.7" height="1.0" fill="#2e7d32"/>
<rect x="118.7" y="532.0" width="4.7" height="0.0" fill="#2e7d32" opacity="0.55"/>
<line x1="128.7" y1="378.1" x2="128.7" y2="378.1" stroke="#2e7d32" stroke-width="1"/>
<rect x="126.3" y="378.1" width="4.7" height="1.0" fill="#2e7d32"/>
<rect x="126.3" y="532.0" width="4.7" height="0.0" fill="#2e7d32" opacity="0.55"/>
<line x1="136.3" y1="381.7" x2="136.3" y2="381.7" stroke="#2e7d32" stroke-width="1"/>
<rect x="134.0" y="381.7" width="4.7" height="1.0" fill="#2e7d32"/>
<rect x="134.0" y="532.0" width="4.7" height="0.0" fill="#2e7d32" opacity="0.55"/>
<line x1="143.9" y1="378.8" x2="143.9" y2="378.8" stroke="#2e7d32" stroke-width="1"/>
<rect x="141.6" y="378.8" width="4.7" height="1.0" fill="#2e7d32"/>
<rect x="141.6" y="532.0" width="4.7" height="0.0" fill="#2e7d32" opacity="0.55"/>
<line x1="151.5" y1="370.0" x2="151.5" y2="370.0" stroke="#2e7d32" stroke-width="1"/>
<rect x="149.2" y="370.0" width="4.7" height="1.0" fill="#2e7d32"/>
<rect x="149.2" y="532.0" width="4.7" height="0.0" fill="#2e7d32" opacity="0.55"/>
<line x1="159.1" y1="381.8" x2="159.1" y2="381.8" stroke="#2e7d32" stroke-width="1"/>
<rect x="156.8" y="381.8" width="4.7" height="1.0" fill="#2e7d32"/>
<rect x="156.8" y="532.0" width="4.7" height="0.0" fill="#2e7d32" opacity="0.55"/>
<line x1="166.8" y1="381.8" x2="166.8" y2="381.8" stroke="#2e7d32" stroke-width="1"/>
<rect x="164.4" y="381.8" width="4.7" height="1.0" fill="#2e7d32"/>
<rect x="164.4" y="532.0" width="4.7" height="0.0" fill="#2e7d32" opacity="0.55"/>
<line x1="174.4" y1="381.8" x2="174.4" y2="381.8" stroke="#2e7d32" stroke-width="1"/>
<rect x="172.0" y="381.8" width="4.7" height="1.0" fill="#2e7d32"/>
<rect x="172.0" y="532.0" width="4.7" height="0.0" fill="#2e7d32" opacity="0.55"/>
<line x1="182.0" y1="364.6" x2="182.0" y2="377.4" stroke="#c62828" stroke-width="1"/>
<rect x="179.6" y="364.6" width="4.7" height="12.7" fill="#c62828"/>
<rect x="179.6" y="531.5" width="4.7" height="0.5" fill="#c62828" opacity="0.55"/>
<line x1="189.6" y1="372.9" x2="189.6" y2="381.8" stroke="#c62828" stroke-width="1"/>
<rect x="187.2" y="375.9" width="4.7" height="1.0" fill="#c62828"/>
<rect x="187.2" y="531.5" width="4.7" height="0.5" fill="#c62828" opacity="0.55"/>
<line x1="197.2" y1="366.6" x2="197.2" y2="372.9" stroke="#2e7d32" stroke-width="1"/>
<rect x="194.8" y="372.9" width="4.7" height="1.0" fill="#2e7d32"/>
<rect x="194.8" y="531.9" width="4.7" height="0.1" fill="#2e7d32" opacity="0.55"/>
<line x1="204.8" y1="364.0" x2="204.8" y2="369.1" stroke="#2e7d32" stroke-width="1"/>
<rect x="202.5" y="364.0" width="4.7" height="5.1" fill="#2e7d32"/>
<rect x="202.5" y="532.0" width="4.7" height="0.0" fill="#2e7d32" opacity="0.55"/>
<line x1="212.4" y1="349.0" x2="212.4" y2="375.9" stroke="#2e7d32" stroke-width="1"/>
<rect x="210.1" y="358.4" width="4.7" height="17.5" fill="#2e7d32"/>
<rect x="210.1" y="530.0" width="4.7" height="2.0" fill="#2e7d32" opacity="0.55"/>
<line x1="220.0" y1="352.2" x2="220.0" y2="364.0" stroke="#c62828" stroke-width="1"/>
<rect x="217.7" y="358.4" width="4.7" height="2.5" fill="#c62828"/>
<rect x="217.7" y="531.7" width="4.7" height="0.3" fill="#c62828" opacity="0.55"/>
<line x1="227.7" y1="360.9" x2="227.7" y2="360.9" stroke="#2e7d32" stroke-width="1"/>
<rect x="225.3" y="360.9" width="4.7" height="1.0" fill="#2e7d32"/>
<rect x="225.3" y="532.0" width="4.7" height="0.0" fill="#2e7d32" opacity="0.55"/>
<line x1="235.3" y1="369.6" x2="235.3" y2="369.6" stroke="#2e7d32" stroke-width="1"/>
<rect x="232.9" y="369.6" width="4.7" height="1.0" fill="#2e7d32"/>
<rect x="232.9" y="532.0" width="4.7" height="0.0" fill="#2e7d32" opacity="0.55"/>
<line x1="242.9" y1="346.8" x2="242.9" y2="381.7" stroke="#c62828" stroke-width="1"/>
<rect x="240.5" y="352.2" width="4.7" height="14.1" fill="#c62828"/>
<rect x="240.5" y="529.9" width="4.7" height="2.1" fill="#c62828" opacity="0.55"/>
<line x1="250.5" y1="364.8" x2="250.5" y2="364.8" stroke="#2e7d32" stroke-width="1"/>
<rect x="248.1" y="364.8" width="4.7" height="1.0" fill="#2e7d32"/>
<rect x="248.1" y="532.0" width="4.7" height="0.0" fill="#2e7d32" opacity="0.55"/>
<line x1="258.1" y1="368.5" x2="258.1" y2="368.5" stroke="#2e7d32" stroke-width="1"/>
<rect x="255.7" y="368.5" width="4.7" height="1.0" fill="#2e7d32"/>
<rect x="255.7" y="532.0" width="4.7" height="0.0" fill="#2e7d32" opacity="0.55"/>
<line x1="265.7" y1="368.5" x2="265.7" y2="368.5" stroke="#2e7d32" stroke-width="1"/>
<rect x="263.4" y="368.5" width="4.7" height="1.0" fill="#2e7d32"/>
<rect x="263.4" y="532.0" width="4.7" height="0.0" fill="#2e7d32" opacity="0.55"/>
<line x1="273.3" y1="358.7" x2="273.3" y2="358.7" stroke="#2e7d32" stroke-width="1"/>
<rect x="271.0" y="358.7" width="4.7" height="1.0" fill="#2e7d32"/>
<rect x="271.0" y="531.9" width="4.7" height="0.1" fill="#2e7d32" opacity="0.55"/>
<line x1="280.9" y1="358.7" x2="280.9" y2="358.7" stroke="#2e7d32" stroke-width="1"/>
<rect x="278.6" y="358.7" width="4.7" height="1.0" fill="#2e7d32"/>
<rect x="278.6" y="532.0" width="4.7" height="0.0" fill="#2e7d32" opacity="0.55"/>
<line x1="288.6" y1="359.2" x2="288.6" y2="359.2" stroke="#2e7d32" stroke-width="1"/>
<rect x="286.2" y="359.2" width="4.7" height="1.0" fill="#2e7d32"/>
<rect x="286.2" y="532.0" width="4.7" height="0.0" fill="#2e7d32" opacity="0.55"/>
<line x1="296.2" y1="358.0" x2="296.2" y2="359.2" stroke="#2e7d32" stroke-width="1"/>
<rect x="293.8" y="358.0" width="4.7" height="1.2" fill="#2e7d32"/>
<rect x="293.8" y="532.0" width="4.7" height="0.0" fill="#2e7d32" opacity="0.55"/>
<line x1="303.8" y1="354.2" x2="303.8" y2="354.2" stroke="#2e7d32" stroke-width="1"/>
<rect x="301.4" y="354.2" width="4.7" height="1.0" fill="#2e7d32"/>
<rect x="301.4" y="532.0" width="4.7" height="0.0" fill="#2e7d32" opacity="0.55"/>
<line x1="311.4" y1="347.7" x2="311.4" y2="347.7" stroke="#2e7d32" stroke-width="1"/>
<rect x="309.0" y="347.7" width="4.7" height="1.0" fill="#2e7d32"/>
<rect x="309.0" y="531.9" width="4.7" height="0.1" fill="#2e7d32" opacity="0.55"/>
<line x1="319.0" y1="335.3" x2="319.0" y2="346.3" stroke="#2e7d32" stroke-width="1"/>
<rect x="316.6" y="339.9" width="4.7" height="6.4" fill="#2e7d32"/>
<rect x="316.6" y="531.6" width="4.7" height="0.4" fill="#2e7d32" opacity="0.55"/>
<line x1="326.6" y1="340.3" x2="326.6" y2="343.9" stroke="#c62828" stroke-width="1"/>
<rect x="324.3" y="340.3" width="4.7" height="3.6" fill="#c62828"/>
<rect x="324.3" y="531.5" width="4.7" height="0.5" fill="#c62828" opacity="0.55"/>
<line x1="334.2" y1="346.4" x2="334.2" y2="352.2" stroke="#2e7d32" stroke-width="1"/>
<rect x="331.9" y="346.4" width="4.7" height="5.7" fill="#2e7d32"/>
<rect x="331.9" y="532.0" width="4.7" height="0.0" fill="#2e7d32" opacity="0.55"/>
<line x1="341.8" y1="338.9" x2="341.8" y2="344.8" stroke="#2e7d32" stroke-width="1"/>
<rect x="339.5" y="338.9" width="4.7" height="5.9" fill="#2e7d32"/>
<rect x="339.5" y="531.9" width="4.7" height="0.1" fill="#2e7d32" opacity="0.55"/>
<line x1="349.4" y1="331.6" x2="349.4" y2="338.9" stroke="#2e7d32" stroke-width="1"/>
<rect x="347.1" y="331.6" width="4.7" height="7.4" fill="#2e7d32"/>
<rect x="347.1" y="531.9" width="4.7" height="0.1" fill="#2e7d32" opacity="0.55"/>
<line x1="357.1" y1="334.4" x2="357.1" y2="338.9" stroke="#2e7d32" stroke-width="1"/>
<rect x="354.7" y="334.4" width="4.7" height="4.6" fill="#2e7d32"/>
<rect x="354.7" y="531.8" width="4.7" height="0.2" fill="#2e7d32" opacity="0.55"/>
<line x1="364.7" y1="346.2" x2="364.7" y2="346.2" stroke="#2e7d32" stroke-width="1"/>
<rect x="362.3" y="346.2" width="4.7" height="1.0" fill="#2e7d32"/>
<rect x="362.3" y="532.0" width="4.7" height="0.0" fill="#2e7d32" opacity="0.55"/>
<line x1="372.3" y1="340.3" x2="372.3" y2="346.1" stroke="#2e7d32" stroke-width="1"/>
<rect x="369.9" y="340.3" width="4.7" height="5.7" fill="#2e7d32"/>
<rect x="369.9" y="532.0" width="4.7" height="0.0" fill="#2e7d32" opacity="0.55"/>
<line x1="379.9" y1="331.6" x2="379.9" y2="340.1" stroke="#c62828" stroke-width="1"/>
<rect x="377.5" y="331.6" width="4.7" height="8.5" fill="#c62828"/>
<rect x="377.5" y="531.9" width="4.7" height="0.1" fill="#c62828" opacity="0.55"/>
<line x1="387.5" y1="334.4" x2="387.5" y2="335.6" stroke="#c62828" stroke-width="1"/>
<rect x="385.1" y="334.4" width="4.7" height="1.2" fill="#c62828"/>
<rect x="385.1" y="532.0" width="4.7" height="0.0" fill="#c62828" opacity="0.55"/>
<line x1="395.1" y1="334.4" x2="395.1" y2="340.4" stroke="#2e7d32" stroke-width="1"/>
<rect x="392.8" y="334.4" width="4.7" height="5.9" fill="#2e7d32"/>
<rect x="392.8" y="531.8" width="4.7" height="0.2" fill="#2e7d32" opacity="0.55"/>
<line x1="402.7" y1="340.4" x2="402.7" y2="346.2" stroke="#2e7d32" stroke-width="1"/>
<rect x="400.4" y="346.2" width="4.7" height="1.0" fill="#2e7d32"/>
<rect x="400.4" y="531.8" width="4.7" height="0.2" fill="#2e7d32" opacity="0.55"/>
<line x1="410.3" y1="340.6" x2="410.3" y2="343.3" stroke="#c62828" stroke-width="1"/>
<rect x="408.0" y="340.6" width="4.7" height="2.7" fill="#c62828"/>
<rect x="408.0" y="532.0" width="4.7" height="0.0" fill="#c62828" opacity="0.55"/>
<line x1="418.0" y1="340.9" x2="418.0" y2="343.3" stroke="#2e7d32" stroke-width="1"/>
<rect x="415.6" y="340.9" width="4.7" height="2.4" fill="#2e7d32"/>
<rect x="415.6" y="531.9" width="4.7" height="0.1" fill="#2e7d32" opacity="0.55"/>
<line x1="425.6" y1="343.3" x2="425.6" y2="346.2" stroke="#c62828" stroke-width="1"/>
<rect x="423.2" y="343.3" width="4.7" height="1.0" fill="#c62828"/>
<rect x="423.2" y="531.7" width="4.7" height="0.3" fill="#c62828" opacity="0.55"/>
<line x1="433.2" y1="334.7" x2="433.2" y2="346.2" stroke="#c62828" stroke-width="1"/>
<rect x="430.8" y="334.7" width="4.7" height="11.5" fill="#c62828"/>
<rect x="430.8" y="532.0" width="4.7" height="0.0" fill="#c62828" opacity="0.55"/>
<line x1="440.8" y1="334.6" x2="440.8" y2="334.6" stroke="#2e7d32" stroke-width="1"/>
<rect x="438.4" y="334.6" width="4.7" height="1.0" fill="#2e7d32"/>
<rect x="438.4" y="531.8" width="4.7" height="0.2" fill="#2e7d32" opacity="0.55"/>
<line x1="448.4" y1="338.7" x2="448.4" y2="338.9" stroke="#c62828" stroke-width="1"/>
<rect x="446.0" y="338.7" width="4.7" height="1.0" fill="#c62828"/>
<rect x="446.0" y="531.9" width="4.7" height="0.1" fill="#c62828" opacity="0.55"/>
<line x1="456.0" y1="330.5" x2="456.0" y2="332.0" stroke="#2e7d32" stroke-width="1"/>
<rect x="453.7" y="331.6" width="4.7" height="1.0" fill="#2e7d32"/>
<rect x="453.7" y="531.7" width="4.7" height="0.3" fill="#2e7d32" opacity="0.55"/>
<line x1="463.6" y1="330.5" x2="463.6" y2="334.8" stroke="#c62828" stroke-width="1"/>
<rect x="461.3" y="330.5" width="4.7" height="3.3" fill="#c62828"/>
<rect x="461.3" y="531.9" width="4.7" height="0.1" fill="#c62828" opacity="0.55"/>
<line x1="471.2" y1="337.1" x2="471.2" y2="337.1" stroke="#2e7d32" stroke-width="1"/>
<rect x="468.9" y="337.1" width="4.7" height="1.0" fill="#2e7d32"/>
<rect x="468.9" y="532.0" width="4.7" height="0.0" fill="#2e7d32" opacity="0.55"/>
<line x1="478.9" y1="333.8" x2="478.9" y2="333.8" stroke="#2e7d32" stroke-width="1"/>
<rect x="476.5" y="333.8" width="4.7" height="1.0" fill="#2e7d32"/>
<rect x="476.5" y="532.0" width="4.7" height="0.0" fill="#2e7d32" opacity="0.55"/>
<line x1="486.5" y1="330.8" x2="486.5" y2="330.8" stroke="#2e7d32" stroke-width="1"/>
<rect x="484.1" y="330.8" width="4.7" height="1.0" fill="#2e7d32"/>
<rect x="484.1" y="532.0" width="4.7" height="0.0" fill="#2e7d32" opacity="0.55"/>
<line x1="494.1" y1="331.4" x2="494.1" y2="334.4" stroke="#c62828" stroke-width="1"/>
<rect x="491.7" y="331.4" width="4.7" height="3.0" fill="#c62828"/>
<rect x="491.7" y="531.8" width="4.7" height="0.2" fill="#c62828" opacity="0.55"/>
<line x1="501.7" y1="328.6" x2="501.7" y2="331.4" stroke="#2e7d32" stroke-width="1"/>
<rect x="499.3" y="328.6" width="4.7" height="2.8" fill="#2e7d32"/>
<rect x="499.3" y="532.0" width="4.7" height="0.0" fill="#2e7d32" opacity="0.55"/>
<line x1="509.3" y1="331.5" x2="509.3" y2="335.6" stroke="#c62828" stroke-width="1"/>
<rect x="506.9" y="331.5" width="4.7" height="4.1" fill="#c62828"/>
<rect x="506.9" y="531.9" width="4.7" height="0.1" fill="#c62828" opacity="0.55"/>
<line x1="516.9" y1="328.4" x2="516.9" y2="328.4" stroke="#2e7d32" stroke-width="1"/>
<rect x="514.6" y="328.4" width="4.7" height="1.0" fill="#2e7d32"/>
<rect x="514.6" y="531.9" width="4.7" height="0.1" fill="#2e7d32" opacity="0.55"/>
<line x1="524.5" y1="328.2" x2="524.5" y2="332.5" stroke="#c62828" stroke-width="1"/>
<rect x="522.2" y="328.4" width="4.7" height="1.0" fill="#c62828"/>
<rect x="522.2" y="531.6" width="4.7" height="0.4" fill="#c62828" opacity="0.55"/>
<line x1="532.1" y1="322.6" x2="532.1" y2="329.3" stroke="#2e7d32" stroke-width="1"/>
<rect x="529.8" y="322.6" width="4.7" height="5.8" fill="#2e7d32"/>
<rect x="529.8" y="531.4" width="4.7" height="0.6" fill="#2e7d32" opacity="0.55"/>
<line x1="539.7" y1="322.6" x2="539.7" y2="327.6" stroke="#2e7d32" stroke-width="1"/>
<rect x="537.4" y="322.6" width="4.7" height="2.8" fill="#2e7d32"/>
<rect x="537.4" y="532.0" width="4.7" height="0.0" fill="#2e7d32" opacity="0.55"/>
<line x1="547.4" y1="322.5" x2="547.4" y2="328.0" stroke="#c62828" stroke-width="1"/>
<rect x="545.0" y="325.2" width="4.7" height="2.6" fill="#c62828"/>
<rect x="545.0" y="531.4" width="4.7" height="0.6" fill="#c62828" opacity="0.55"/>
<line x1="555.0" y1="322.5" x2="555.0" y2="327.8" stroke="#2e7d32" stroke-width="1"/>
<rect x="552.6" y="325.2" width="4.7" height="2.6" fill="#2e7d32"/>
<rect x="552.6" y="531.4" width="4.7" height="0.6" fill="#2e7d32" opacity="0.55"/>
<line x1="562.6" y1="322.6" x2="562.6" y2="327.9" stroke="#2e7d32" stroke-width="1"/>
<rect x="560.2" y="322.6" width="4.7" height="1.0" fill="#2e7d32"/>
<rect x="560.2" y="531.9" width="4.7" height="0.1" fill="#2e7d32" opacity="0.55"/>
<line x1="570.2" y1="322.8" x2="570.2" y2="327.8" stroke="#c62828" stroke-width="1"/>
<rect x="567.8" y="323.3" width="4.7" height="4.4" fill="#c62828"/>
<rect x="567.8" y="531.9" width="4.7" height="0.1" fill="#c62828" opacity="0.55"/>
<line x1="577.8" y1="322.8" x2="577.8" y2="325.3" stroke="#c62828" stroke-width="1"/>
<rect x="575.4" y="322.8" width="4.7" height="2.5" fill="#c62828"/>
<rect x="575.4" y="532.0" width="4.7" height="0.0" fill="#c62828" opacity="0.55"/>
<line x1="585.4" y1="316.9" x2="585.4" y2="325.1" stroke="#c62828" stroke-width="1"/>
<rect x="583.1" y="322.8" width="4.7" height="2.3" fill="#c62828"/>
<rect x="583.1" y="531.8" width="4.7" height="0.2" fill="#c62828" opacity="0.55"/>
<line x1="593.0" y1="325.2" x2="593.0" y2="327.8" stroke="#c62828" stroke-width="1"/>
<rect x="590.7" y="325.2" width="4.7" height="2.6" fill="#c62828"/>
<rect x="590.7" y="531.9" width="4.7" height="0.1" fill="#c62828" opacity="0.55"/>
<line x1="600.6" y1="326.7" x2="600.6" y2="334.4" stroke="#2e7d32" stroke-width="1"/>
<rect x="598.3" y="327.8" width="4.7" height="1.0" fill="#2e7d32"/>
<rect x="598.3" y="531.6" width="4.7" height="0.4" fill="#2e7d32" opacity="0.55"/>
<line x1="608.3" y1="327.0" x2="608.3" y2="327.0" stroke="#2e7d32" stroke-width="1"/>
<rect x="605.9" y="327.0" width="4.7" height="1.0" fill="#2e7d32"/>
<rect x="605.9" y="531.9" width="4.7" height="0.1" fill="#2e7d32" opacity="0.55"/>
<line x1="615.9" y1="322.8" x2="615.9" y2="322.8" stroke="#2e7d32" stroke-width="1"/>
<rect x="613.5" y="322.8" width="4.7" height="1.0" fill="#2e7d32"/>
<rect x="613.5" y="532.0" width="4.7" height="0.0" fill="#2e7d32" opacity="0.55"/>
<line x1="623.5" y1="322.9" x2="623.5" y2="332.6" stroke="#c62828" stroke-width="1"/>
<rect x="621.1" y="322.9" width="4.7" height="6.2" fill="#c62828"/>
<rect x="621.1" y="531.9" width="4.7" height="0.1" fill="#c62828" opacity="0.55"/>
<line x1="631.1" y1="326.4" x2="631.1" y2="332.6" stroke="#2e7d32" stroke-width="1"/>
<rect x="628.7" y="329.0" width="4.7" height="1.0" fill="#2e7d32"/>
<rect x="628.7" y="531.5" width="4.7" height="0.5" fill="#2e7d32" opacity="0.55"/>
<line x1="638.7" y1="332.6" x2="638.7" y2="332.6" stroke="#2e7d32" stroke-width="1"/>
<rect x="636.3" y="332.6" width="4.7" height="1.0" fill="#2e7d32"/>
<rect x="636.3" y="532.0" width="4.7" height="0.0" fill="#2e7d32" opacity="0.55"/>
<line x1="646.3" y1="329.0" x2="646.3" y2="329.0" stroke="#2e7d32" stroke-width="1"/>
<rect x="644.0" y="329.0" width="4.7" height="1.0" fill="#2e7d32"/>
<rect x="644.0" y="532.0" width="4.7" height="0.0" fill="#2e7d32" opacity="0.55"/>
<line x1="653.9" y1="329.1" x2="653.9" y2="332.6" stroke="#c62828" stroke-width="1"/>
<rect x="651.6" y="329.1" width="4.7" height="3.5" fill="#c62828"/>
<rect x="651.6" y="531.9" width="4.7" height="0.1" fill="#c62828" opacity="0.55"/>
<line x1="661.5" y1="329.2" x2="661.5" y2="329.2" stroke="#c62828" stroke-width="1"/>
<rect x="659.2" y="329.2" width="4.7" height="1.0" fill="#c62828"/>
<rect x="659.2" y="532.0" width="4.7" height="0.0" fill="#c62828" opacity="0.55"/>
<line x1="669.1" y1="331.9" x2="669.1" y2="331.9" stroke="#2e7d32" stroke-width="1"/>
<rect x="666.8" y="331.9" width="4.7" height="1.0" fill="#2e7d32"/>
<rect x="666.8" y="532.0" width="4.7" height="0.0" fill="#2e7d32" opacity="0.55"/>
<line x1="676.8" y1="329.3" x2="676.8" y2="332.6" stroke="#c62828" stroke-width="1"/>
<rect x="674.4" y="332.0" width="4.7" height="1.0" fill="#c62828"/>
<rect x="674.4" y="531.2" width="4.7" height="0.8" fill="#c62828" opacity="0.55"/>
<line x1="684.4" y1="331.4" x2="684.4" y2="332.5" stroke="#2e7d32" stroke-width="1"/>
<rect x="682.0" y="331.4" width="4.7" height="1.1" fill="#2e7d32"/>
<rect x="682.0" y="531.7" width="4.7" height="0.3" fill="#2e7d32" opacity="0.55"/>
<line x1="692.0" y1="332.5" x2="692.0" y2="332.5" stroke="#2e7d32" stroke-width="1"/>
<rect x="689.6" y="332.5" width="4.7" height="1.0" fill="#2e7d32"/>
<rect x="689.6" y="531.8" width="4.7" height="0.2" fill="#2e7d32" opacity="0.55"/>
<line x1="699.6" y1="332.5" x2="699.6" y2="332.5" stroke="#2e7d32" stroke-width="1"/>
<rect x="697.2" y="332.5" width="4.7" height="1.0" fill="#2e7d32"/>
<rect x="697.2" y="532.0" width="4.7" height="0.0" fill="#2e7d32" opacity="0.55"/>
<line x1="707.2" y1="329.0" x2="707.2" y2="332.6" stroke="#c62828" stroke-width="1"/>
<rect x="704.8" y="329.0" width="4.7" height="2.0" fill="#c62828"/>
<rect x="704.8" y="532.0" width="4.7" height="0.0" fill="#c62828" opacity="0.55"/>
<line x1="714.8" y1="332.5" x2="714.8" y2="332.5" stroke="#2e7d32" stroke-width="1"/>
<rect x="712.5" y="332.5" width="4.7" height="1.0" fill="#2e7d32"/>
<rect x="712.5" y="532.0" width="4.7" height="0.0" fill="#2e7d32" opacity="0.55"/>
<line x1="722.4" y1="248.7" x2="722.4" y2="332.5" stroke="#2e7d32" stroke-width="1"/>
<rect x="720.1" y="298.7" width="4.7" height="33.8" fill="#2e7d32"/>
<rect x="720.1" y="496.0" width="4.7" height="36.0" fill="#2e7d32" opacity="0.55"/>
<line x1="730.0" y1="227.7" x2="730.0" y2="307.5" stroke="#2e7d32" stroke-width="1"/>
<rect x="727.7" y="229.0" width="4.7" height="69.8" fill="#2e7d32"/>
<rect x="727.7" y="480.4" width="4.7" height="51.6" fill="#2e7d32" opacity="0.55"/>
<line x1="737.7" y1="181.4" x2="737.7" y2="240.4" stroke="#2e7d32" stroke-width="1"/>
<rect x="735.3" y="186.2" width="4.7" height="46.1" fill="#2e7d32"/>
<rect x="735.3" y="455.0" width="4.7" height="77.0" fill="#2e7d32" opacity="0.55"/>
<line x1="745.3" y1="144.4" x2="745.3" y2="206.9" stroke="#2e7d32" stroke-width="1"/>
<rect x="742.9" y="149.2" width="4.7" height="39.6" fill="#2e7d32"/>
<rect x="742.9" y="458.2" width="4.7" height="73.8" fill="#2e7d32" opacity="0.55"/>
<line x1="752.9" y1="138.2" x2="752.9" y2="187.2" stroke="#c62828" stroke-width="1"/>
<rect x="750.5" y="147.9" width="4.7" height="20.7" fill="#c62828"/>
<rect x="750.5" y="456.8" width="4.7" height="75.2" fill="#c62828" opacity="0.55"/>
<line x1="760.5" y1="104.5" x2="760.5" y2="176.8" stroke="#2e7d32" stroke-width="1"/>
<rect x="758.1" y="122.5" width="4.7" height="46.8" fill="#2e7d32"/>
<rect x="758.1" y="440.3" width="4.7" height="91.7" fill="#2e7d32" opacity="0.55"/>
<line x1="768.1" y1="70.7" x2="768.1" y2="124.0" stroke="#2e7d32" stroke-width="1"/>
<rect x="765.7" y="85.5" width="4.7" height="37.0" fill="#2e7d32"/>
<rect x="765.7" y="437.4" width="4.7" height="94.6" fill="#2e7d32" opacity="0.55"/>
<line x1="775.7" y1="55.7" x2="775.7" y2="94.1" stroke="#2e7d32" stroke-width="1"/>
<rect x="773.4" y="74.6" width="4.7" height="12.2" fill="#2e7d32"/>
<rect x="773.4" y="450.2" width="4.7" height="81.8" fill="#2e7d32" opacity="0.55"/>
<line x1="783.3" y1="69.1" x2="783.3" y2="112.9" stroke="#c62828" stroke-width="1"/>
<rect x="781.0" y="74.5" width="4.7" height="36.9" fill="#c62828"/>
<rect x="781.0" y="476.3" width="4.7" height="55.7" fill="#c62828" opacity="0.55"/>
<line x1="790.9" y1="85.4" x2="790.9" y2="125.7" stroke="#2e7d32" stroke-width="1"/>
<rect x="788.6" y="93.4" width="4.7" height="18.1" fill="#2e7d32"/>
<rect x="788.6" y="487.2" width="4.7" height="44.8" fill="#2e7d32" opacity="0.55"/>
<line x1="798.6" y1="81.0" x2="798.6" y2="144.7" stroke="#c62828" stroke-width="1"/>
<rect x="796.2" y="94.7" width="4.7" height="23.4" fill="#c62828"/>
<rect x="796.2" y="489.0" width="4.7" height="43.0" fill="#c62828" opacity="0.55"/>
<line x1="806.2" y1="99.8" x2="806.2" y2="118.3" stroke="#2e7d32" stroke-width="1"/>
<rect x="803.8" y="113.7" width="4.7" height="4.3" fill="#2e7d32"/>
<rect x="803.8" y="504.6" width="4.7" height="27.4" fill="#2e7d32" opacity="0.55"/>
<line x1="813.8" y1="85.4" x2="813.8" y2="116.8" stroke="#2e7d32" stroke-width="1"/>
<rect x="811.4" y="99.8" width="4.7" height="14.0" fill="#2e7d32"/>
<rect x="811.4" y="495.0" width="4.7" height="37.0" fill="#2e7d32" opacity="0.55"/>
<line x1="821.4" y1="85.4" x2="821.4" y2="112.0" stroke="#c62828" stroke-width="1"/>
<rect x="819.0" y="97.5" width="4.7" height="7.6" fill="#c62828"/>
<rect x="819.0" y="504.6" width="4.7" height="27.4" fill="#c62828" opacity="0.55"/>
<line x1="829.0" y1="94.3" x2="829.0" y2="115.1" stroke="#c62828" stroke-width="1"/>
<rect x="826.6" y="105.1" width="4.7" height="2.2" fill="#c62828"/>
<rect x="826.6" y="517.1" width="4.7" height="14.9" fill="#c62828" opacity="0.55"/>
<line x1="836.6" y1="94.8" x2="836.6" y2="120.3" stroke="#c62828" stroke-width="1"/>
<rect x="834.3" y="106.9" width="4.7" height="9.2" fill="#c62828"/>
<rect x="834.3" y="517.1" width="4.7" height="14.9" fill="#c62828" opacity="0.55"/>
<line x1="844.2" y1="91.3" x2="844.2" y2="118.0" stroke="#2e7d32" stroke-width="1"/>
<rect x="841.9" y="99.5" width="4.7" height="16.6" fill="#2e7d32"/>
<rect x="841.9" y="513.3" width="4.7" height="18.7" fill="#2e7d32" opacity="0.55"/>
<line x1="851.8" y1="74.6" x2="851.8" y2="106.8" stroke="#2e7d32" stroke-width="1"/>
<rect x="849.5" y="84.0" width="4.7" height="14.1" fill="#2e7d32"/>
<rect x="849.5" y="502.1" width="4.7" height="29.9" fill="#2e7d32" opacity="0.55"/>
<line x1="859.4" y1="73.6" x2="859.4" y2="93.1" stroke="#c62828" stroke-width="1"/>
<rect x="857.1" y="82.9" width="4.7" height="5.6" fill="#c62828"/>
<rect x="857.1" y="515.0" width="4.7" height="17.0" fill="#c62828" opacity="0.55"/>
<line x1="867.1" y1="78.3" x2="867.1" y2="110.8" stroke="#c62828" stroke-width="1"/>
<rect x="864.7" y="84.4" width="4.7" height="15.5" fill="#c62828"/>
<rect x="864.7" y="498.6" width="4.7" height="33.4" fill="#c62828" opacity="0.55"/>
<line x1="874.7" y1="87.8" x2="874.7" y2="109.1" stroke="#c62828" stroke-width="1"/>
<rect x="872.3" y="99.9" width="4.7" height="1.4" fill="#c62828"/>
<rect x="872.3" y="522.8" width="4.7" height="9.2" fill="#c62828" opacity="0.55"/>
<line x1="882.3" y1="97.3" x2="882.3" y2="107.5" stroke="#2e7d32" stroke-width="1"/>
<rect x="879.9" y="97.8" width="4.7" height="3.5" fill="#2e7d32"/>
<rect x="879.9" y="526.2" width="4.7" height="5.8" fill="#2e7d32" opacity="0.55"/>
<line x1="889.9" y1="92.4" x2="889.9" y2="106.9" stroke="#2e7d32" stroke-width="1"/>
<rect x="887.5" y="97.6" width="4.7" height="1.0" fill="#2e7d32"/>
<rect x="887.5" y="524.6" width="4.7" height="7.4" fill="#2e7d32" opacity="0.55"/>
<line x1="897.5" y1="97.3" x2="897.5" y2="106.2" stroke="#c62828" stroke-width="1"/>
<rect x="895.1" y="97.6" width="4.7" height="7.8" fill="#c62828"/>
<rect x="895.1" y="526.6" width="4.7" height="5.4" fill="#c62828" opacity="0.55"/>
<line x1="905.1" y1="92.5" x2="905.1" y2="105.3" stroke="#2e7d32" stroke-width="1"/>
<rect x="902.8" y="100.5" width="4.7" height="1.3" fill="#2e7d32"/>
<rect x="902.8" y="524.8" width="4.7" height="7.2" fill="#2e7d32" opacity="0.55"/>
<line x1="912.7" y1="92.5" x2="912.7" y2="101.1" stroke="#c62828" stroke-width="1"/>
<rect x="910.4" y="98.6" width="4.7" height="2.3" fill="#c62828"/>
<rect x="910.4" y="525.6" width="4.7" height="6.4" fill="#c62828" opacity="0.55"/>
<line x1="920.3" y1="100.2" x2="920.3" y2="129.9" stroke="#c62828" stroke-width="1"/>
<rect x="918.0" y="100.9" width="4.7" height="16.6" fill="#c62828"/>
<rect x="918.0" y="521.7" width="4.7" height="10.3" fill="#c62828" opacity="0.55"/>
<line x1="928.0" y1="100.5" x2="928.0" y2="124.1" stroke="#2e7d32" stroke-width="1"/>
<rect x="925.6" y="111.7" width="4.7" height="4.6" fill="#2e7d32"/>
<rect x="925.6" y="521.9" width="4.7" height="10.1" fill="#2e7d32" opacity="0.55"/>
<line x1="935.6" y1="80.8" x2="935.6" y2="198.0" stroke="#c62828" stroke-width="1"/>
<rect x="933.2" y="123.3" width="4.7" height="72.2" fill="#c62828"/>
<rect x="933.2" y="412.0" width="4.7" height="120.0" fill="#c62828" opacity="0.55"/>
<line x1="943.2" y1="86.4" x2="943.2" y2="237.1" stroke="#c62828" stroke-width="1"/>
<rect x="940.8" y="196.4" width="4.7" height="13.5" fill="#c62828"/>
<rect x="940.8" y="477.1" width="4.7" height="54.9" fill="#c62828" opacity="0.55"/>
<line x1="950.8" y1="204.6" x2="950.8" y2="227.7" stroke="#c62828" stroke-width="1"/>
<rect x="948.4" y="210.7" width="4.7" height="4.9" fill="#c62828"/>
<rect x="948.4" y="502.4" width="4.7" height="29.6" fill="#c62828" opacity="0.55"/>
<line x1="958.4" y1="192.1" x2="958.4" y2="218.0" stroke="#2e7d32" stroke-width="1"/>
<rect x="956.0" y="211.7" width="4.7" height="4.0" fill="#2e7d32"/>
<rect x="956.0" y="499.9" width="4.7" height="32.1" fill="#2e7d32" opacity="0.55"/>
<line x1="966.0" y1="209.7" x2="966.0" y2="236.6" stroke="#c62828" stroke-width="1"/>
<rect x="963.7" y="211.7" width="4.7" height="12.6" fill="#c62828"/>
<rect x="963.7" y="508.4" width="4.7" height="23.6" fill="#c62828" opacity="0.55"/>
<line x1="973.6" y1="200.8" x2="973.6" y2="230.0" stroke="#2e7d32" stroke-width="1"/>
<rect x="971.3" y="206.8" width="4.7" height="17.5" fill="#2e7d32"/>
<rect x="971.3" y="511.2" width="4.7" height="20.8" fill="#2e7d32" opacity="0.55"/>
<line x1="981.2" y1="205.7" x2="981.2" y2="225.5" stroke="#c62828" stroke-width="1"/>
<rect x="978.9" y="205.8" width="4.7" height="15.9" fill="#c62828"/>
<rect x="978.9" y="522.1" width="4.7" height="9.9" fill="#c62828" opacity="0.55"/>
<line x1="988.9" y1="203.7" x2="988.9" y2="230.0" stroke="#2e7d32" stroke-width="1"/>
<rect x="986.5" y="204.8" width="4.7" height="16.2" fill="#2e7d32"/>
<rect x="986.5" y="517.7" width="4.7" height="14.3" fill="#2e7d32" opacity="0.55"/>
<line x1="996.5" y1="194.7" x2="996.5" y2="225.5" stroke="#c62828" stroke-width="1"/>
<rect x="994.1" y="206.5" width="4.7" height="16.7" fill="#c62828"/>
<rect x="994.1" y="493.9" width="4.7" height="38.1" fill="#c62828" opacity="0.55"/>
<line x1="1004.1" y1="210.2" x2="1004.1" y2="227.4" stroke="#2e7d32" stroke-width="1"/>
<rect x="1001.7" y="216.7" width="4.7" height="6.5" fill="#2e7d32"/>
<rect x="1001.7" y="521.5" width="4.7" height="10.5" fill="#2e7d32" opacity="0.55"/>
<line x1="1011.7" y1="198.2" x2="1011.7" y2="224.7" stroke="#2e7d32" stroke-width="1"/>
<rect x="1009.3" y="211.3" width="4.7" height="5.5" fill="#2e7d32"/>
<rect x="1009.3" y="511.9" width="4.7" height="20.1" fill="#2e7d32" opacity="0.55"/>
<line x1="1019.3" y1="209.2" x2="1019.3" y2="221.5" stroke="#c62828" stroke-width="1"/>
<rect x="1016.9" y="211.5" width="4.7" height="6.6" fill="#c62828"/>
<rect x="1016.9" y="523.1" width="4.7" height="8.9" fill="#c62828" opacity="0.55"/>
<line x1="1026.9" y1="216.9" x2="1026.9" y2="236.6" stroke="#c62828" stroke-width="1"/>
<rect x="1024.6" y="218.1" width="4.7" height="10.8" fill="#c62828"/>
<rect x="1024.6" y="515.8" width="4.7" height="16.2" fill="#c62828" opacity="0.55"/>
<line x1="1034.5" y1="218.6" x2="1034.5" y2="251.4" stroke="#c62828" stroke-width="1"/>
<rect x="1032.2" y="227.9" width="4.7" height="11.6" fill="#c62828"/>
<rect x="1032.2" y="510.5" width="4.7" height="21.5" fill="#c62828" opacity="0.55"/>
<line x1="1042.1" y1="218.4" x2="1042.1" y2="242.5" stroke="#2e7d32" stroke-width="1"/>
<rect x="1039.8" y="222.0" width="4.7" height="15.4" fill="#2e7d32"/>
<rect x="1039.8" y="515.3" width="4.7" height="16.7" fill="#2e7d32" opacity="0.55"/>
<line x1="1049.7" y1="213.9" x2="1049.7" y2="239.6" stroke="#c62828" stroke-width="1"/>
<rect x="1047.4" y="218.7" width="4.7" height="20.9" fill="#c62828"/>
<rect x="1047.4" y="514.7" width="4.7" height="17.3" fill="#c62828" opacity="0.55"/>
<line x1="1057.4" y1="235.4" x2="1057.4" y2="253.7" stroke="#c62828" stroke-width="1"/>
<rect x="1055.0" y="239.6" width="4.7" height="5.0" fill="#c62828"/>
<rect x="1055.0" y="532.0" width="4.7" height="0.0" fill="#c62828" opacity="0.55"/>
<line x1="1065.0" y1="239.5" x2="1065.0" y2="254.2" stroke="#c62828" stroke-width="1"/>
<rect x="1062.6" y="244.6" width="4.7" height="3.4" fill="#c62828"/>
<rect x="1062.6" y="532.0" width="4.7" height="0.0" fill="#c62828" opacity="0.55"/>
<line x1="1072.6" y1="247.3" x2="1072.6" y2="248.4" stroke="#2e7d32" stroke-width="1"/>
<rect x="1070.2" y="247.8" width="4.7" height="1.0" fill="#2e7d32"/>
<rect x="1070.2" y="532.0" width="4.7" height="0.0" fill="#2e7d32" opacity="0.55"/>
<line x1="1080.2" y1="245.7" x2="1080.2" y2="245.7" stroke="#2e7d32" stroke-width="1"/>
<rect x="1077.8" y="245.7" width="4.7" height="1.0" fill="#2e7d32"/>
<rect x="1077.8" y="532.0" width="4.7" height="0.0" fill="#2e7d32" opacity="0.55"/>
<line x1="64" y1="532" x2="1084" y2="532" stroke="#ccc"/>
<text x="58" y="420" font-size="9" fill="#999" text-anchor="end">4.6M</text>
<line x1="67.8" y1="532" x2="67.8" y2="536" stroke="#999"/>
<text x="67.8" y="547.0" font-size="9" fill="#666" text-anchor="middle">07/14 04:00</text>
<line x1="235.3" y1="532" x2="235.3" y2="536" stroke="#999"/>
<text x="235.3" y="547.0" font-size="9" fill="#666" text-anchor="middle">10:15</text>
<line x1="402.7" y1="532" x2="402.7" y2="536" stroke="#999"/>
<text x="402.7" y="547.0" font-size="9" fill="#666" text-anchor="middle">12:50</text>
<line x1="570.2" y1="532" x2="570.2" y2="536" stroke="#999"/>
<text x="570.2" y="547.0" font-size="9" fill="#666" text-anchor="middle">15:20</text>
<line x1="737.7" y1="532" x2="737.7" y2="536" stroke="#999"/>
<text x="737.7" y="547.0" font-size="9" fill="#666" text-anchor="middle">17:50</text>
<line x1="905.1" y1="532" x2="905.1" y2="536" stroke="#999"/>
<text x="905.1" y="547.0" font-size="9" fill="#666" text-anchor="middle">19:40</text>
<line x1="1072.6" y1="532" x2="1072.6" y2="536" stroke="#999"/>
<text x="1072.6" y="547.0" font-size="9" fill="#666" text-anchor="middle">07/15 05:30</text>
<text x="64" y="22" font-size="15" font-weight="bold" fill="#1a1a1a">GCTK - GlucoTrack, Inc.</text>
<text x="1084" y="22" font-size="11" fill="#666" text-anchor="end">last $0.67 (+53.6% over window)</text>
<rect x="934" y="28" width="10" height="8" fill="#e8f0fe"/>
<text x="948" y="35" font-size="9" fill="#666">premarket</text>
<rect x="1006" y="28" width="10" height="8" fill="#fff4e0"/>
<text x="1020" y="35" font-size="9" fill="#666">after-hrs</text>
</svg>