<svg xmlns="http://www.w3.org/2000/svg" width="1100" height="560" viewBox="0 0 1100 560" font-family="Arial,Helvetica,sans-serif">
<rect width="1100" height="560" fill="white"/>
<rect x="64.0" y="36" width="166.8" height="496.0" fill="#e8f0fe"/>
<rect x="679.8" y="36" width="275.8" height="496.0" fill="#fff4e0"/>
<rect x="955.7" y="36" width="128.3" height="496.0" fill="#e8f0fe"/>
<line x1="64" y1="404.0" x2="1084" y2="404.0" stroke="#e6e6e6"/>
<text x="58" y="407.0" font-size="10" fill="#666" text-anchor="end">$0.84</text>
<line x1="64" y1="312.0" x2="1084" y2="312.0" stroke="#e6e6e6"/>
<text x="58" y="315.0" font-size="10" fill="#666" text-anchor="end">$1.21</text>
<line x1="64" y1="220.0" x2="1084" y2="220.0" stroke="#e6e6e6"/>
<text x="58" y="223.0" font-size="10" fill="#666" text-anchor="end">$1.57</text>
<line x1="64" y1="128.0" x2="1084" y2="128.0" stroke="#e6e6e6"/>
<text x="58" y="131.0" font-size="10" fill="#666" text-anchor="end">$1.93</text>
<line x1="64" y1="36.0" x2="1084" y2="36.0" stroke="#e6e6e6"/>
<text x="58" y="39.0" font-size="10" fill="#666" text-anchor="end">$2.30</text>
<line x1="67.2" y1="379.5" x2="67.2" y2="382.0" stroke="#2e7d32" stroke-width="1"/>
<rect x="65.2" y="379.5" width="4.0" height="2.5" fill="#2e7d32"/>
<rect x="65.2" y="532.0" width="4.0" height="0.0" fill="#2e7d32" opacity="0.55"/>
<line x1="73.6" y1="379.5" x2="73.6" y2="379.5" stroke="#2e7d32" stroke-width="1"/>
<rect x="71.6" y="379.5" width="4.0" height="1.0" fill="#2e7d32"/>
<rect x="71.6" y="532.0" width="4.0" height="0.0" fill="#2e7d32" opacity="0.55"/>
<line x1="80.0" y1="379.5" x2="80.0" y2="379.5" stroke="#2e7d32" stroke-width="1"/>
<rect x="78.0" y="379.5" width="4.0" height="1.0" fill="#2e7d32"/>
<rect x="78.0" y="532.0" width="4.0" height="0.0" fill="#2e7d32" opacity="0.55"/>
<line x1="86.5" y1="369.3" x2="86.5" y2="369.3" stroke="#2e7d32" stroke-width="1"/>
<rect x="84.5" y="369.3" width="4.0" height="1.0" fill="#2e7d32"/>
<rect x="84.5" y="532.0" width="4.0" height="0.0" fill="#2e7d32" opacity="0.55"/>
<line x1="92.9" y1="369.3" x2="92.9" y2="369.3" stroke="#2e7d32" stroke-width="1"/>
<rect x="90.9" y="369.3" width="4.0" height="1.0" fill="#2e7d32"/>
<rect x="90.9" y="532.0" width="4.0" height="0.0" fill="#2e7d32" opacity="0.55"/>
<line x1="99.3" y1="379.5" x2="99.3" y2="379.5" stroke="#2e7d32" stroke-width="1"/>
<rect x="97.3" y="379.5" width="4.0" height="1.0" fill="#2e7d32"/>
<rect x="97.3" y="531.9" width="4.0" height="0.1" fill="#2e7d32" opacity="0.55"/>
<line x1="105.7" y1="372.3" x2="105.7" y2="379.4" stroke="#2e7d32" stroke-width="1"/>
<rect x="103.7" y="372.3" width="4.0" height="7.2" fill="#2e7d32"/>
<rect x="103.7" y="532.0" width="4.0" height="0.0" fill="#2e7d32" opacity="0.55"/>
<line x1="112.1" y1="379.4" x2="112.1" y2="379.4" stroke="#2e7d32" stroke-width="1"/>
<rect x="110.1" y="379.4" width="4.0" height="1.0" fill="#2e7d32"/>
<rect x="110.1" y="532.0" width="4.0" height="0.0" fill="#2e7d32" opacity="0.55"/>
<line x1="118.5" y1="379.4" x2="118.5" y2="379.4" stroke="#2e7d32" stroke-width="1"/>
<rect x="116.5" y="379.4" width="4.0" height="1.0" fill="#2e7d32"/>
<rect x="116.5" y="532.0" width="4.0" height="0.0" fill="#2e7d32" opacity="0.55"/>
<line x1="124.9" y1="375.5" x2="124.9" y2="375.5" stroke="#2e7d32" stroke-width="1"/>
<rect x="123.0" y="375.5" width="4.0" height="1.0" fill="#2e7d32"/>
<rect x="123.0" y="532.0" width="4.0" height="0.0" fill="#2e7d32" opacity="0.55"/>
<line x1="131.4" y1="379.4" x2="131.4" y2="379.4" stroke="#2e7d32" stroke-width="1"/>
<rect x="129.4" y="379.4" width="4.0" height="1.0" fill="#2e7d32"/>
<rect x="129.4" y="532.0" width="4.0" height="0.0" fill="#2e7d32" opacity="0.55"/>
<line x1="137.8" y1="378.6" x2="137.8" y2="378.6" stroke="#2e7d32" stroke-width="1"/>
<rect x="135.8" y="378.6" width="4.0" height="1.0" fill="#2e7d32"/>
<rect x="135.8" y="532.0" width="4.0" height="0.0" fill="#2e7d32" opacity="0.55"/>
<line x1="144.2" y1="378.1" x2="144.2" y2="378.1" stroke="#2e7d32" stroke-width="1"/>
<rect x="142.2" y="378.1" width="4.0" height="1.0" fill="#2e7d32"/>
<rect x="142.2" y="532.0" width="4.0" height="0.0" fill="#2e7d32" opacity="0.55"/>
<line x1="150.6" y1="379.4" x2="150.6" y2="379.4" stroke="#2e7d32" stroke-width="1"/>
<rect x="148.6" y="379.4" width="4.0" height="1.0" fill="#2e7d32"/>
<rect x="148.6" y="532.0" width="4.0" height="0.0" fill="#2e7d32" opacity="0.55"/>
<line x1="157.0" y1="379.4" x2="157.0" y2="379.4" stroke="#2e7d32" stroke-width="1"/>
<rect x="155.0" y="379.4" width="4.0" height="1.0" fill="#2e7d32"/>
<rect x="155.0" y="532.0" width="4.0" height="0.0" fill="#2e7d32" opacity="0.55"/>
<line x1="163.4" y1="378.1" x2="163.4" y2="378.1" stroke="#2e7d32" stroke-width="1"/>
<rect x="161.4" y="378.1" width="4.0" height="1.0" fill="#2e7d32"/>
<rect x="161.4" y="532.0" width="4.0" height="0.0" fill="#2e7d32" opacity="0.55"/>
<line x1="169.8" y1="378.1" x2="169.8" y2="378.1" stroke="#2e7d32" stroke-width="1"/>
<rect x="167.9" y="378.1" width="4.0" height="1.0" fill="#2e7d32"/>
<rect x="167.9" y="532.0" width="4.0" height="0.0" fill="#2e7d32" opacity="0.55"/>
<line x1="176.3" y1="376.5" x2="176.3" y2="376.5" stroke="#2e7d32" stroke-width="1"/>
<rect x="174.3" y="376.5" width="4.0" height="1.0" fill="#2e7d32"/>
<rect x="174.3" y="532.0" width="4.0" height="0.0" fill="#2e7d32" opacity="0.55"/>
<line x1="182.7" y1="373.4" x2="182.7" y2="374.4" stroke="#2e7d32" stroke-width="1"/>
<rect x="180.7" y="373.4" width="4.0" height="1.0" fill="#2e7d32"/>
<rect x="180.7" y="532.0" width="4.0" height="0.0" fill="#2e7d32" opacity="0.55"/>
<line x1="189.1" y1="372.9" x2="189.1" y2="372.9" stroke="#2e7d32" stroke-width="1"/>
<rect x="187.1" y="372.9" width="4.0" height="1.0" fill="#2e7d32"/>
<rect x="187.1" y="532.0" width="4.0" height="0.0" fill="#2e7d32" opacity="0.55"/>
<line x1="195.5" y1="378.0" x2="195.5" y2="378.0" stroke="#2e7d32" stroke-width="1"/>
<rect x="193.5" y="378.0" width="4.0" height="1.0" fill="#2e7d32"/>
<rect x="193.5" y="532.0" width="4.0" height="0.0" fill="#2e7d32" opacity="0.55"/>
<line x1="201.9" y1="378.0" x2="201.9" y2="378.0" stroke="#2e7d32" stroke-width="1"/>
<rect x="199.9" y="378.0" width="4.0" height="1.0" fill="#2e7d32"/>
<rect x="199.9" y="532.0" width="4.0" height="0.0" fill="#2e7d32" opacity="0.55"/>
<line x1="208.3" y1="378.0" x2="208.3" y2="378.0" stroke="#2e7d32" stroke-width="1"/>
<rect x="206.4" y="378.0" width="4.0" height="1.0" fill="#2e7d32"/>
<rect x="206.4" y="532.0" width="4.0" height="0.0" fill="#2e7d32" opacity="0.55"/>
<line x1="214.8" y1="378.0" x2="214.8" y2="378.0" stroke="#2e7d32" stroke-width="1"/>
<rect x="212.8" y="378.0" width="4.0" height="1.0" fill="#2e7d32"/>
<rect x="212.8" y="532.0" width="4.0" height="0.0" fill="#2e7d32" opacity="0.55"/>
<line x1="221.2" y1="378.0" x2="221.2" y2="378.0" stroke="#2e7d32" stroke-width="1"/>
<rect x="219.2" y="378.0" width="4.0" height="1.0" fill="#2e7d32"/>
<rect x="219.2" y="532.0" width="4.0" height="0.0" fill="#2e7d32" opacity="0.55"/>
<line x1="227.6" y1="378.0" x2="227.6" y2="378.0" stroke="#2e7d32" stroke-width="1"/>
<rect x="225.6" y="378.0" width="4.0" height="1.0" fill="#2e7d32"/>
<rect x="225.6" y="532.0" width="4.0" height="0.0" fill="#2e7d32" opacity="0.55"/>
<line x1="234.0" y1="374.4" x2="234.0" y2="377.9" stroke="#c62828" stroke-width="1"/>
<rect x="232.0" y="374.4" width="4.0" height="3.5" fill="#c62828"/>
<rect x="232.0" y="531.6" width="4.0" height="0.4" fill="#c62828" opacity="0.55"/>
<line x1="240.4" y1="377.9" x2="240.4" y2="377.9" stroke="#2e7d32" stroke-width="1"/>
<rect x="238.4" y="377.9" width="4.0" height="1.0" fill="#2e7d32"/>
<rect x="238.4" y="532.0" width="4.0" height="0.0" fill="#2e7d32" opacity="0.55"/>
<line x1="246.8" y1="374.4" x2="246.8" y2="384.3" stroke="#c62828" stroke-width="1"/>
<rect x="244.8" y="374.4" width="4.0" height="9.9" fill="#c62828"/>
<rect x="244.8" y="531.4" width="4.0" height="0.6" fill="#c62828" opacity="0.55"/>
<line x1="253.2" y1="375.4" x2="253.2" y2="378.7" stroke="#c62828" stroke-width="1"/>
<rect x="251.3" y="375.4" width="4.0" height="3.3" fill="#c62828"/>
<rect x="251.3" y="531.9" width="4.0" height="0.1" fill="#c62828" opacity="0.55"/>
<line x1="259.7" y1="378.7" x2="259.7" y2="379.5" stroke="#2e7d32" stroke-width="1"/>
<rect x="257.7" y="378.7" width="4.0" height="1.0" fill="#2e7d32"/>
<rect x="257.7" y="532.0" width="4.0" height="0.0" fill="#2e7d32" opacity="0.55"/>
<line x1="266.1" y1="379.5" x2="266.1" y2="382.0" stroke="#c62828" stroke-width="1"/>
<rect x="264.1" y="379.5" width="4.0" height="2.5" fill="#c62828"/>
<rect x="264.1" y="531.9" width="4.0" height="0.1" fill="#c62828" opacity="0.55"/>
<line x1="272.5" y1="375.4" x2="272.5" y2="378.7" stroke="#2e7d32" stroke-width="1"/>
<rect x="270.5" y="375.4" width="4.0" height="3.3" fill="#2e7d32"/>
<rect x="270.5" y="531.9" width="4.0" height="0.1" fill="#2e7d32" opacity="0.55"/>
<line x1="278.9" y1="377.7" x2="278.9" y2="380.5" stroke="#c62828" stroke-width="1"/>
<rect x="276.9" y="378.7" width="4.0" height="1.8" fill="#c62828"/>
<rect x="276.9" y="531.7" width="4.0" height="0.3" fill="#c62828" opacity="0.55"/>
<line x1="285.3" y1="380.4" x2="285.3" y2="380.4" stroke="#2e7d32" stroke-width="1"/>
<rect x="283.3" y="380.4" width="4.0" height="1.0" fill="#2e7d32"/>
<rect x="283.3" y="532.0" width="4.0" height="0.0" fill="#2e7d32" opacity="0.55"/>
<line x1="291.7" y1="377.4" x2="291.7" y2="380.4" stroke="#c62828" stroke-width="1"/>
<rect x="289.7" y="377.4" width="4.0" height="3.0" fill="#c62828"/>
<rect x="289.7" y="532.0" width="4.0" height="0.0" fill="#c62828" opacity="0.55"/>
<line x1="298.2" y1="379.5" x2="298.2" y2="379.5" stroke="#2e7d32" stroke-width="1"/>
<rect x="296.2" y="379.5" width="4.0" height="1.0" fill="#2e7d32"/>
<rect x="296.2" y="532.0" width="4.0" height="0.0" fill="#2e7d32" opacity="0.55"/>
<line x1="304.6" y1="376.9" x2="304.6" y2="376.9" stroke="#2e7d32" stroke-width="1"/>
<rect x="302.6" y="376.9" width="4.0" height="1.0" fill="#2e7d32"/>
<rect x="302.6" y="532.0" width="4.0" height="0.0" fill="#2e7d32" opacity="0.55"/>
<line x1="311.0" y1="375.6" x2="311.0" y2="379.4" stroke="#2e7d32" stroke-width="1"/>
<rect x="309.0" y="375.6" width="4.0" height="3.8" fill="#2e7d32"/>
<rect x="309.0" y="532.0" width="4.0" height="0.0" fill="#2e7d32" opacity="0.55"/>
<line x1="317.4" y1="375.0" x2="317.4" y2="376.4" stroke="#2e7d32" stroke-width="1"/>
<rect x="315.4" y="375.7" width="4.0" height="1.0" fill="#2e7d32"/>
<rect x="315.4" y="531.9" width="4.0" height="0.1" fill="#2e7d32" opacity="0.55"/>
<line x1="323.8" y1="374.4" x2="323.8" y2="378.2" stroke="#c62828" stroke-width="1"/>
<rect x="321.8" y="374.4" width="4.0" height="3.8" fill="#c62828"/>
<rect x="321.8" y="532.0" width="4.0" height="0.0" fill="#c62828" opacity="0.55"/>
<line x1="330.2" y1="374.5" x2="330.2" y2="376.9" stroke="#c62828" stroke-width="1"/>
<rect x="328.2" y="374.5" width="4.0" height="2.5" fill="#c62828"/>
<rect x="328.2" y="531.9" width="4.0" height="0.1" fill="#c62828" opacity="0.55"/>
<line x1="336.6" y1="374.7" x2="336.6" y2="378.1" stroke="#2e7d32" stroke-width="1"/>
<rect x="334.7" y="374.7" width="4.0" height="3.4" fill="#2e7d32"/>
<rect x="334.7" y="531.9" width="4.0" height="0.1" fill="#2e7d32" opacity="0.55"/>
<line x1="343.1" y1="369.1" x2="343.1" y2="375.6" stroke="#2e7d32" stroke-width="1"/>
<rect x="341.1" y="369.1" width="4.0" height="6.5" fill="#2e7d32"/>
<rect x="341.1" y="531.3" width="4.0" height="0.7" fill="#2e7d32" opacity="0.55"/>
<line x1="349.5" y1="359.2" x2="349.5" y2="369.9" stroke="#2e7d32" stroke-width="1"/>
<rect x="347.5" y="360.5" width="4.0" height="7.2" fill="#2e7d32"/>
<rect x="347.5" y="531.2" width="4.0" height="0.8" fill="#2e7d32" opacity="0.55"/>
<line x1="355.9" y1="348.2" x2="355.9" y2="361.8" stroke="#2e7d32" stroke-width="1"/>
<rect x="353.9" y="348.4" width="4.0" height="13.3" fill="#2e7d32"/>
<rect x="353.9" y="529.1" width="4.0" height="2.9" fill="#2e7d32" opacity="0.55"/>
<line x1="362.3" y1="344.0" x2="362.3" y2="356.7" stroke="#c62828" stroke-width="1"/>
<rect x="360.3" y="347.8" width="4.0" height="3.8" fill="#c62828"/>
<rect x="360.3" y="529.4" width="4.0" height="2.6" fill="#c62828" opacity="0.55"/>
<line x1="368.7" y1="344.0" x2="368.7" y2="351.6" stroke="#2e7d32" stroke-width="1"/>
<rect x="366.7" y="349.1" width="4.0" height="2.5" fill="#2e7d32"/>
<rect x="366.7" y="529.7" width="4.0" height="2.3" fill="#2e7d32" opacity="0.55"/>
<line x1="375.1" y1="344.0" x2="375.1" y2="354.2" stroke="#c62828" stroke-width="1"/>
<rect x="373.1" y="349.1" width="4.0" height="3.8" fill="#c62828"/>
<rect x="373.1" y="530.8" width="4.0" height="1.2" fill="#c62828" opacity="0.55"/>
<line x1="381.5" y1="350.4" x2="381.5" y2="354.2" stroke="#2e7d32" stroke-width="1"/>
<rect x="379.6" y="351.6" width="4.0" height="1.0" fill="#2e7d32"/>
<rect x="379.6" y="531.6" width="4.0" height="0.4" fill="#2e7d32" opacity="0.55"/>
<line x1="388.0" y1="344.0" x2="388.0" y2="354.2" stroke="#c62828" stroke-width="1"/>
<rect x="386.0" y="351.9" width="4.0" height="2.3" fill="#c62828"/>
<rect x="386.0" y="530.6" width="4.0" height="1.4" fill="#c62828" opacity="0.55"/>
<line x1="394.4" y1="339.0" x2="394.4" y2="346.6" stroke="#2e7d32" stroke-width="1"/>
<rect x="392.4" y="344.0" width="4.0" height="2.5" fill="#2e7d32"/>
<rect x="392.4" y="530.2" width="4.0" height="1.8" fill="#2e7d32" opacity="0.55"/>
<line x1="400.8" y1="339.0" x2="400.8" y2="346.6" stroke="#2e7d32" stroke-width="1"/>
<rect x="398.8" y="344.4" width="4.0" height="2.1" fill="#2e7d32"/>
<rect x="398.8" y="530.8" width="4.0" height="1.2" fill="#2e7d32" opacity="0.55"/>
<line x1="407.2" y1="339.0" x2="407.2" y2="346.6" stroke="#2e7d32" stroke-width="1"/>
<rect x="405.2" y="341.5" width="4.0" height="5.0" fill="#2e7d32"/>
<rect x="405.2" y="530.8" width="4.0" height="1.2" fill="#2e7d32" opacity="0.55"/>
<line x1="413.6" y1="339.0" x2="413.6" y2="341.5" stroke="#2e7d32" stroke-width="1"/>
<rect x="411.6" y="339.0" width="4.0" height="2.5" fill="#2e7d32"/>
<rect x="411.6" y="531.7" width="4.0" height="0.3" fill="#2e7d32" opacity="0.55"/>
<line x1="420.0" y1="339.0" x2="420.0" y2="354.2" stroke="#c62828" stroke-width="1"/>
<rect x="418.0" y="341.5" width="4.0" height="10.1" fill="#c62828"/>
<rect x="418.0" y="531.0" width="4.0" height="1.0" fill="#c62828" opacity="0.55"/>
<line x1="426.5" y1="346.6" x2="426.5" y2="354.2" stroke="#2e7d32" stroke-width="1"/>
<rect x="424.5" y="350.4" width="4.0" height="1.0" fill="#2e7d32"/>
<rect x="424.5" y="530.8" width="4.0" height="1.2" fill="#2e7d32" opacity="0.55"/>
<line x1="432.9" y1="351.9" x2="432.9" y2="356.7" stroke="#c62828" stroke-width="1"/>
<rect x="430.9" y="351.9" width="4.0" height="1.0" fill="#c62828"/>
<rect x="430.9" y="531.4" width="4.0" height="0.6" fill="#c62828" opacity="0.55"/>
<line x1="439.3" y1="352.2" x2="439.3" y2="356.7" stroke="#c62828" stroke-width="1"/>
<rect x="437.3" y="352.8" width="4.0" height="3.8" fill="#c62828"/>
<rect x="437.3" y="531.4" width="4.0" height="0.6" fill="#c62828" opacity="0.55"/>
<line x1="445.7" y1="356.7" x2="445.7" y2="356.7" stroke="#2e7d32" stroke-width="1"/>
<rect x="443.7" y="356.7" width="4.0" height="1.0" fill="#2e7d32"/>
<rect x="443.7" y="531.9" width="4.0" height="0.1" fill="#2e7d32" opacity="0.55"/>
<line x1="452.1" y1="351.6" x2="452.1" y2="359.2" stroke="#2e7d32" stroke-width="1"/>
<rect x="450.1" y="354.2" width="4.0" height="5.1" fill="#2e7d32"/>
<rect x="450.1" y="531.6" width="4.0" height="0.4" fill="#2e7d32" opacity="0.55"/>
<line x1="458.5" y1="354.2" x2="458.5" y2="359.2" stroke="#c62828" stroke-width="1"/>
<rect x="456.5" y="354.2" width="4.0" height="2.6" fill="#c62828"/>
<rect x="456.5" y="531.7" width="4.0" height="0.3" fill="#c62828" opacity="0.55"/>
<line x1="464.9" y1="358.0" x2="464.9" y2="364.3" stroke="#c62828" stroke-width="1"/>
<rect x="463.0" y="358.0" width="4.0" height="3.1" fill="#c62828"/>
<rect x="463.0" y="531.6" width="4.0" height="0.4" fill="#c62828" opacity="0.55"/>
<line x1="471.4" y1="359.2" x2="471.4" y2="364.3" stroke="#2e7d32" stroke-width="1"/>
<rect x="469.4" y="359.2" width="4.0" height="2.5" fill="#2e7d32"/>
<rect x="469.4" y="531.9" width="4.0" height="0.1" fill="#2e7d32" opacity="0.55"/>
<line x1="477.8" y1="357.5" x2="477.8" y2="360.5" stroke="#2e7d32" stroke-width="1"/>
<rect x="475.8" y="357.7" width="4.0" height="1.5" fill="#2e7d32"/>
<rect x="475.8" y="531.9" width="4.0" height="0.1" fill="#2e7d32" opacity="0.55"/>
<line x1="484.2" y1="359.2" x2="484.2" y2="360.2" stroke="#c62828" stroke-width="1"/>
<rect x="482.2" y="359.2" width="4.0" height="1.0" fill="#c62828"/>
<rect x="482.2" y="532.0" width="4.0" height="0.0" fill="#c62828" opacity="0.55"/>
<line x1="490.6" y1="360.5" x2="490.6" y2="361.8" stroke="#c62828" stroke-width="1"/>
<rect x="488.6" y="360.5" width="4.0" height="1.3" fill="#c62828"/>
<rect x="488.6" y="532.0" width="4.0" height="0.0" fill="#c62828" opacity="0.55"/>
<line x1="497.0" y1="356.8" x2="497.0" y2="359.2" stroke="#2e7d32" stroke-width="1"/>
<rect x="495.0" y="359.2" width="4.0" height="1.0" fill="#2e7d32"/>
<rect x="495.0" y="531.9" width="4.0" height="0.1" fill="#2e7d32" opacity="0.55"/>
<line x1="503.4" y1="356.7" x2="503.4" y2="357.5" stroke="#2e7d32" stroke-width="1"/>
<rect x="501.4" y="356.7" width="4.0" height="1.0" fill="#2e7d32"/>
<rect x="501.4" y="531.9" width="4.0" height="0.1" fill="#2e7d32" opacity="0.55"/>
<line x1="509.8" y1="359.2" x2="509.8" y2="361.8" stroke="#c62828" stroke-width="1"/>
<rect x="507.9" y="359.2" width="4.0" height="2.5" fill="#c62828"/>
<rect x="507.9" y="532.0" width="4.0" height="0.0" fill="#c62828" opacity="0.55"/>
<line x1="516.3" y1="360.5" x2="516.3" y2="360.5" stroke="#2e7d32" stroke-width="1"/>
<rect x="514.3" y="360.5" width="4.0" height="1.0" fill="#2e7d32"/>
<rect x="514.3" y="532.0" width="4.0" height="0.0" fill="#2e7d32" opacity="0.55"/>
<line x1="522.7" y1="357.7" x2="522.7" y2="361.7" stroke="#c62828" stroke-width="1"/>
<rect x="520.7" y="359.2" width="4.0" height="1.3" fill="#c62828"/>
<rect x="520.7" y="531.7" width="4.0" height="0.3" fill="#c62828" opacity="0.55"/>
<line x1="529.1" y1="362.5" x2="529.1" y2="362.5" stroke="#2e7d32" stroke-width="1"/>
<rect x="527.1" y="362.5" width="4.0" height="1.0" fill="#2e7d32"/>
<rect x="527.1" y="532.0" width="4.0" height="0.0" fill="#2e7d32" opacity="0.55"/>
<line x1="535.5" y1="356.8" x2="535.5" y2="360.5" stroke="#2e7d32" stroke-width="1"/>
<rect x="533.5" y="356.8" width="4.0" height="3.6" fill="#2e7d32"/>
<rect x="533.5" y="532.0" width="4.0" height="0.0" fill="#2e7d32" opacity="0.55"/>
<line x1="541.9" y1="361.8" x2="541.9" y2="364.3" stroke="#2e7d32" stroke-width="1"/>
<rect x="539.9" y="361.8" width="4.0" height="2.5" fill="#2e7d32"/>
<rect x="539.9" y="531.9" width="4.0" height="0.1" fill="#2e7d32" opacity="0.55"/>
<line x1="548.3" y1="356.7" x2="548.3" y2="364.3" stroke="#c62828" stroke-width="1"/>
<rect x="546.4" y="356.7" width="4.0" height="5.1" fill="#c62828"/>
<rect x="546.4" y="531.9" width="4.0" height="0.1" fill="#c62828" opacity="0.55"/>
<line x1="554.8" y1="359.2" x2="554.8" y2="359.2" stroke="#2e7d32" stroke-width="1"/>
<rect x="552.8" y="359.2" width="4.0" height="1.0" fill="#2e7d32"/>
<rect x="552.8" y="532.0" width="4.0" height="0.0" fill="#2e7d32" opacity="0.55"/>
<line x1="561.2" y1="361.8" x2="561.2" y2="362.7" stroke="#c62828" stroke-width="1"/>
<rect x="559.2" y="361.8" width="4.0" height="1.0" fill="#c62828"/>
<rect x="559.2" y="531.9" width="4.0" height="0.1" fill="#c62828" opacity="0.55"/>
<line x1="567.6" y1="361.8" x2="567.6" y2="363.9" stroke="#c62828" stroke-width="1"/>
<rect x="565.6" y="361.8" width="4.0" height="2.1" fill="#c62828"/>
<rect x="565.6" y="532.0" width="4.0" height="0.0" fill="#c62828" opacity="0.55"/>
<line x1="574.0" y1="361.8" x2="574.0" y2="366.8" stroke="#c62828" stroke-width="1"/>
<rect x="572.0" y="361.8" width="4.0" height="5.0" fill="#c62828"/>
<rect x="572.0" y="531.3" width="4.0" height="0.7" fill="#c62828" opacity="0.55"/>
<line x1="580.4" y1="364.3" x2="580.4" y2="366.4" stroke="#c62828" stroke-width="1"/>
<rect x="578.4" y="364.3" width="4.0" height="2.1" fill="#c62828"/>
<rect x="578.4" y="531.9" width="4.0" height="0.1" fill="#c62828" opacity="0.55"/>
<line x1="586.8" y1="366.3" x2="586.8" y2="366.4" stroke="#2e7d32" stroke-width="1"/>
<rect x="584.8" y="366.3" width="4.0" height="1.0" fill="#2e7d32"/>
<rect x="584.8" y="531.9" width="4.0" height="0.1" fill="#2e7d32" opacity="0.55"/>
<line x1="593.2" y1="364.3" x2="593.2" y2="364.9" stroke="#c62828" stroke-width="1"/>
<rect x="591.3" y="364.3" width="4.0" height="1.0" fill="#c62828"/>
<rect x="591.3" y="531.9" width="4.0" height="0.1" fill="#c62828" opacity="0.55"/>
<line x1="599.7" y1="364.9" x2="599.7" y2="371.9" stroke="#c62828" stroke-width="1"/>
<rect x="597.7" y="364.9" width="4.0" height="7.0" fill="#c62828"/>
<rect x="597.7" y="531.4" width="4.0" height="0.6" fill="#c62828" opacity="0.55"/>
<line x1="606.1" y1="365.0" x2="606.1" y2="371.2" stroke="#2e7d32" stroke-width="1"/>
<rect x="604.1" y="365.0" width="4.0" height="6.3" fill="#2e7d32"/>
<rect x="604.1" y="531.9" width="4.0" height="0.1" fill="#2e7d32" opacity="0.55"/>
<line x1="612.5" y1="364.9" x2="612.5" y2="371.6" stroke="#c62828" stroke-width="1"/>
<rect x="610.5" y="364.9" width="4.0" height="3.2" fill="#c62828"/>
<rect x="610.5" y="531.7" width="4.0" height="0.3" fill="#c62828" opacity="0.55"/>
<line x1="618.9" y1="364.3" x2="618.9" y2="368.1" stroke="#2e7d32" stroke-width="1"/>
<rect x="616.9" y="364.3" width="4.0" height="3.8" fill="#2e7d32"/>
<rect x="616.9" y="532.0" width="4.0" height="0.0" fill="#2e7d32" opacity="0.55"/>
<line x1="625.3" y1="366.8" x2="625.3" y2="366.8" stroke="#2e7d32" stroke-width="1"/>
<rect x="623.3" y="366.8" width="4.0" height="1.0" fill="#2e7d32"/>
<rect x="623.3" y="531.8" width="4.0" height="0.2" fill="#2e7d32" opacity="0.55"/>
<line x1="631.7" y1="366.8" x2="631.7" y2="366.8" stroke="#2e7d32" stroke-width="1"/>
<rect x="629.7" y="366.8" width="4.0" height="1.0" fill="#2e7d32"/>
<rect x="629.7" y="531.9" width="4.0" height="0.1" fill="#2e7d32" opacity="0.55"/>
<line x1="638.2" y1="361.8" x2="638.2" y2="366.8" stroke="#2e7d32" stroke-width="1"/>
<rect x="636.2" y="361.8" width="4.0" height="5.1" fill="#2e7d32"/>
<rect x="636.2" y="531.8" width="4.0" height="0.2" fill="#2e7d32" opacity="0.55"/>
<line x1="644.6" y1="361.8" x2="644.6" y2="366.8" stroke="#c62828" stroke-width="1"/>
<rect x="642.6" y="365.5" width="4.0" height="1.3" fill="#c62828"/>
<rect x="642.6" y="531.8" width="4.0" height="0.2" fill="#c62828" opacity="0.55"/>
<line x1="651.0" y1="364.3" x2="651.0" y2="369.3" stroke="#c62828" stroke-width="1"/>
<rect x="649.0" y="365.5" width="4.0" height="3.8" fill="#c62828"/>
<rect x="649.0" y="531.8" width="4.0" height="0.2" fill="#c62828" opacity="0.55"/>
<line x1="657.4" y1="365.5" x2="657.4" y2="365.5" stroke="#2e7d32" stroke-width="1"/>
<rect x="655.4" y="365.5" width="4.0" height="1.0" fill="#2e7d32"/>
<rect x="655.4" y="532.0" width="4.0" height="0.0" fill="#2e7d32" opacity="0.55"/>
<line x1="663.8" y1="364.3" x2="663.8" y2="369.3" stroke="#c62828" stroke-width="1"/>
<rect x="661.8" y="364.3" width="4.0" height="1.0" fill="#c62828"/>
<rect x="661.8" y="531.9" width="4.0" height="0.1" fill="#c62828" opacity="0.55"/>
<line x1="670.2" y1="359.2" x2="670.2" y2="364.3" stroke="#2e7d32" stroke-width="1"/>
<rect x="668.2" y="364.3" width="4.0" height="1.0" fill="#2e7d32"/>
<rect x="668.2" y="531.8" width="4.0" height="0.2" fill="#2e7d32" opacity="0.55"/>
<line x1="676.6" y1="359.2" x2="676.6" y2="366.8" stroke="#c62828" stroke-width="1"/>
<rect x="674.7" y="359.2" width="4.0" height="2.6" fill="#c62828"/>
<rect x="674.7" y="531.7" width="4.0" height="0.3" fill="#c62828" opacity="0.55"/>
<line x1="683.1" y1="359.2" x2="683.1" y2="366.8" stroke="#2e7d32" stroke-width="1"/>
<rect x="681.1" y="359.4" width="4.0" height="2.3" fill="#2e7d32"/>
<rect x="681.1" y="531.7" width="4.0" height="0.3" fill="#2e7d32" opacity="0.55"/>
<line x1="689.5" y1="359.2" x2="689.5" y2="359.5" stroke="#2e7d32" stroke-width="1"/>
<rect x="687.5" y="359.2" width="4.0" height="1.0" fill="#2e7d32"/>
<rect x="687.5" y="531.9" width="4.0" height="0.1" fill="#2e7d32" opacity="0.55"/>
<line x1="695.9" y1="361.8" x2="695.9" y2="364.3" stroke="#c62828" stroke-width="1"/>
<rect x="693.9" y="361.8" width="4.0" height="2.5" fill="#c62828"/>
<rect x="693.9" y="532.0" width="4.0" height="0.0" fill="#c62828" opacity="0.55"/>
<line x1="702.3" y1="359.2" x2="702.3" y2="359.3" stroke="#c62828" stroke-width="1"/>
<rect x="700.3" y="359.2" width="4.0" height="1.0" fill="#c62828"/>
<rect x="700.3" y="532.0" width="4.0" height="0.0" fill="#c62828" opacity="0.55"/>
<line x1="708.7" y1="359.2" x2="708.7" y2="359.4" stroke="#2e7d32" stroke-width="1"/>
<rect x="706.7" y="359.2" width="4.0" height="1.0" fill="#2e7d32"/>
<rect x="706.7" y="532.0" width="4.0" height="0.0" fill="#2e7d32" opacity="0.55"/>
<line x1="715.1" y1="351.6" x2="715.1" y2="360.2" stroke="#2e7d32" stroke-width="1"/>
<rect x="713.1" y="351.6" width="4.0" height="7.6" fill="#2e7d32"/>
<rect x="713.1" y="531.8" width="4.0" height="0.2" fill="#2e7d32" opacity="0.55"/>
<line x1="721.5" y1="351.6" x2="721.5" y2="354.3" stroke="#2e7d32" stroke-width="1"/>
<rect x="719.6" y="351.6" width="4.0" height="2.7" fill="#2e7d32"/>
<rect x="719.6" y="532.0" width="4.0" height="0.0" fill="#2e7d32" opacity="0.55"/>
<line x1="728.0" y1="351.6" x2="728.0" y2="354.2" stroke="#2e7d32" stroke-width="1"/>
<rect x="726.0" y="351.6" width="4.0" height="2.5" fill="#2e7d32"/>
<rect x="726.0" y="532.0" width="4.0" height="0.0" fill="#2e7d32" opacity="0.55"/>
<line x1="734.4" y1="351.6" x2="734.4" y2="351.6" stroke="#2e7d32" stroke-width="1"/>
<rect x="732.4" y="351.6" width="4.0" height="1.0" fill="#2e7d32"/>
<rect x="732.4" y="532.0" width="4.0" height="0.0" fill="#2e7d32" opacity="0.55"/>
<line x1="740.8" y1="356.7" x2="740.8" y2="356.7" stroke="#c62828" stroke-width="1"/>
<rect x="738.8" y="356.7" width="4.0" height="1.0" fill="#c62828"/>
<rect x="738.8" y="532.0" width="4.0" height="0.0" fill="#c62828" opacity="0.55"/>
<line x1="747.2" y1="356.7" x2="747.2" y2="364.1" stroke="#c62828" stroke-width="1"/>
<rect x="745.2" y="356.7" width="4.0" height="7.4" fill="#c62828"/>
<rect x="745.2" y="532.0" width="4.0" height="0.0" fill="#c62828" opacity="0.55"/>
<line x1="753.6" y1="356.7" x2="753.6" y2="364.3" stroke="#2e7d32" stroke-width="1"/>
<rect x="751.6" y="356.7" width="4.0" height="7.6" fill="#2e7d32"/>
<rect x="751.6" y="532.0" width="4.0" height="0.0" fill="#2e7d32" opacity="0.55"/>
<line x1="760.0" y1="356.7" x2="760.0" y2="356.7" stroke="#2e7d32" stroke-width="1"/>
<rect x="758.0" y="356.7" width="4.0" height="1.0" fill="#2e7d32"/>
<rect x="758.0" y="532.0" width="4.0" height="0.0" fill="#2e7d32" opacity="0.55"/>
<line x1="766.5" y1="351.6" x2="766.5" y2="359.2" stroke="#2e7d32" stroke-width="1"/>
<rect x="764.5" y="351.6" width="4.0" height="5.0" fill="#2e7d32"/>
<rect x="764.5" y="531.9" width="4.0" height="0.1" fill="#2e7d32" opacity="0.55"/>
<line x1="772.9" y1="351.6" x2="772.9" y2="356.7" stroke="#c62828" stroke-width="1"/>
<rect x="770.9" y="351.6" width="4.0" height="5.1" fill="#c62828"/>
<rect x="770.9" y="531.7" width="4.0" height="0.3" fill="#c62828" opacity="0.55"/>
<line x1="779.3" y1="351.6" x2="779.3" y2="354.2" stroke="#2e7d32" stroke-width="1"/>
<rect x="777.3" y="351.6" width="4.0" height="1.0" fill="#2e7d32"/>
<rect x="777.3" y="532.0" width="4.0" height="0.0" fill="#2e7d32" opacity="0.55"/>
<line x1="785.7" y1="351.6" x2="785.7" y2="354.2" stroke="#c62828" stroke-width="1"/>
<rect x="783.7" y="351.6" width="4.0" height="2.6" fill="#c62828"/>
<rect x="783.7" y="532.0" width="4.0" height="0.0" fill="#c62828" opacity="0.55"/>
<line x1="792.1" y1="356.5" x2="792.1" y2="356.7" stroke="#2e7d32" stroke-width="1"/>
<rect x="790.1" y="356.5" width="4.0" height="1.0" fill="#2e7d32"/>
<rect x="790.1" y="532.0" width="4.0" height="0.0" fill="#2e7d32" opacity="0.55"/>
<line x1="798.5" y1="351.6" x2="798.5" y2="356.7" stroke="#2e7d32" stroke-width="1"/>
<rect x="796.5" y="351.6" width="4.0" height="5.1" fill="#2e7d32"/>
<rect x="796.5" y="531.9" width="4.0" height="0.1" fill="#2e7d32" opacity="0.55"/>
<line x1="804.9" y1="349.1" x2="804.9" y2="354.2" stroke="#2e7d32" stroke-width="1"/>
<rect x="803.0" y="349.1" width="4.0" height="2.5" fill="#2e7d32"/>
<rect x="803.0" y="531.6" width="4.0" height="0.4" fill="#2e7d32" opacity="0.55"/>
<line x1="811.4" y1="349.1" x2="811.4" y2="351.6" stroke="#c62828" stroke-width="1"/>
<rect x="809.4" y="349.1" width="4.0" height="2.5" fill="#c62828"/>
<rect x="809.4" y="531.9" width="4.0" height="0.1" fill="#c62828" opacity="0.55"/>
<line x1="817.8" y1="349.1" x2="817.8" y2="354.1" stroke="#2e7d32" stroke-width="1"/>
<rect x="815.8" y="351.6" width="4.0" height="2.5" fill="#2e7d32"/>
<rect x="815.8" y="531.9" width="4.0" height="0.1" fill="#2e7d32" opacity="0.55"/>
<line x1="824.2" y1="349.1" x2="824.2" y2="354.2" stroke="#2e7d32" stroke-width="1"/>
<rect x="822.2" y="351.6" width="4.0" height="1.0" fill="#2e7d32"/>
<rect x="822.2" y="531.8" width="4.0" height="0.2" fill="#2e7d32" opacity="0.55"/>
<line x1="830.6" y1="339.0" x2="830.6" y2="349.1" stroke="#2e7d32" stroke-width="1"/>
<rect x="828.6" y="339.0" width="4.0" height="10.1" fill="#2e7d32"/>
<rect x="828.6" y="531.6" width="4.0" height="0.4" fill="#2e7d32" opacity="0.55"/>
<line x1="837.0" y1="288.4" x2="837.0" y2="339.0" stroke="#2e7d32" stroke-width="1"/>
<rect x="835.0" y="306.0" width="4.0" height="33.0" fill="#2e7d32"/>
<rect x="835.0" y="519.0" width="4.0" height="13.0" fill="#2e7d32" opacity="0.55"/>
<line x1="843.4" y1="278.3" x2="843.4" y2="316.2" stroke="#2e7d32" stroke-width="1"/>
<rect x="841.4" y="288.4" width="4.0" height="17.7" fill="#2e7d32"/>
<rect x="841.4" y="508.2" width="4.0" height="23.8" fill="#2e7d32" opacity="0.55"/>
<line x1="849.8" y1="285.9" x2="849.8" y2="311.2" stroke="#c62828" stroke-width="1"/>
<rect x="847.9" y="288.3" width="4.0" height="17.9" fill="#c62828"/>
<rect x="847.9" y="517.9" width="4.0" height="14.1" fill="#c62828" opacity="0.55"/>
<line x1="856.3" y1="293.5" x2="856.3" y2="318.8" stroke="#2e7d32" stroke-width="1"/>
<rect x="854.3" y="303.6" width="4.0" height="2.5" fill="#2e7d32"/>
<rect x="854.3" y="518.8" width="4.0" height="13.2" fill="#2e7d32" opacity="0.55"/>
<line x1="862.7" y1="303.6" x2="862.7" y2="331.4" stroke="#c62828" stroke-width="1"/>
<rect x="860.7" y="303.6" width="4.0" height="27.8" fill="#c62828"/>
<rect x="860.7" y="519.5" width="4.0" height="12.5" fill="#c62828" opacity="0.55"/>
<line x1="869.1" y1="313.7" x2="869.1" y2="331.4" stroke="#2e7d32" stroke-width="1"/>
<rect x="867.1" y="324.3" width="4.0" height="7.1" fill="#2e7d32"/>
<rect x="867.1" y="527.1" width="4.0" height="4.9" fill="#2e7d32" opacity="0.55"/>
<line x1="875.5" y1="298.5" x2="875.5" y2="326.3" stroke="#2e7d32" stroke-width="1"/>
<rect x="873.5" y="308.6" width="4.0" height="15.2" fill="#2e7d32"/>
<rect x="873.5" y="525.0" width="4.0" height="7.0" fill="#2e7d32" opacity="0.55"/>
<line x1="881.9" y1="301.0" x2="881.9" y2="316.2" stroke="#2e7d32" stroke-width="1"/>
<rect x="879.9" y="311.2" width="4.0" height="1.0" fill="#2e7d32"/>
<rect x="879.9" y="526.8" width="4.0" height="5.2" fill="#2e7d32" opacity="0.55"/>
<line x1="888.3" y1="308.6" x2="888.3" y2="323.8" stroke="#c62828" stroke-width="1"/>
<rect x="886.4" y="313.7" width="4.0" height="1.0" fill="#c62828"/>
<rect x="886.4" y="528.5" width="4.0" height="3.5" fill="#c62828" opacity="0.55"/>
<line x1="894.8" y1="306.1" x2="894.8" y2="321.3" stroke="#2e7d32" stroke-width="1"/>
<rect x="892.8" y="313.4" width="4.0" height="2.9" fill="#2e7d32"/>
<rect x="892.8" y="528.8" width="4.0" height="3.2" fill="#2e7d32" opacity="0.55"/>
<line x1="901.2" y1="308.6" x2="901.2" y2="318.8" stroke="#2e7d32" stroke-width="1"/>
<rect x="899.2" y="311.2" width="4.0" height="1.0" fill="#2e7d32"/>
<rect x="899.2" y="530.1" width="4.0" height="1.9" fill="#2e7d32" opacity="0.55"/>
<line x1="907.6" y1="306.1" x2="907.6" y2="313.7" stroke="#2e7d32" stroke-width="1"/>
<rect x="905.6" y="306.1" width="4.0" height="5.0" fill="#2e7d32"/>
<rect x="905.6" y="529.4" width="4.0" height="2.6" fill="#2e7d32" opacity="0.55"/>
<line x1="914.0" y1="290.9" x2="914.0" y2="308.6" stroke="#2e7d32" stroke-width="1"/>
<rect x="912.0" y="298.5" width="4.0" height="7.9" fill="#2e7d32"/>
<rect x="912.0" y="525.0" width="4.0" height="7.0" fill="#2e7d32" opacity="0.55"/>
<line x1="920.4" y1="295.9" x2="920.4" y2="307.4" stroke="#c62828" stroke-width="1"/>
<rect x="918.4" y="298.5" width="4.0" height="2.5" fill="#c62828"/>
<rect x="918.4" y="528.1" width="4.0" height="3.9" fill="#c62828" opacity="0.55"/>
<line x1="926.8" y1="298.5" x2="926.8" y2="308.6" stroke="#c62828" stroke-width="1"/>
<rect x="924.8" y="298.5" width="4.0" height="2.5" fill="#c62828"/>
<rect x="924.8" y="530.4" width="4.0" height="1.6" fill="#c62828" opacity="0.55"/>
<line x1="933.2" y1="296.0" x2="933.2" y2="306.1" stroke="#2e7d32" stroke-width="1"/>
<rect x="931.3" y="303.6" width="4.0" height="1.0" fill="#2e7d32"/>
<rect x="931.3" y="529.7" width="4.0" height="2.3" fill="#2e7d32" opacity="0.55"/>
<line x1="939.7" y1="278.3" x2="939.7" y2="306.1" stroke="#2e7d32" stroke-width="1"/>
<rect x="937.7" y="288.4" width="4.0" height="15.3" fill="#2e7d32"/>
<rect x="937.7" y="524.7" width="4.0" height="7.3" fill="#2e7d32" opacity="0.55"/>
<line x1="946.1" y1="280.8" x2="946.1" y2="293.5" stroke="#2e7d32" stroke-width="1"/>
<rect x="944.1" y="280.9" width="4.0" height="5.0" fill="#2e7d32"/>
<rect x="944.1" y="529.2" width="4.0" height="2.8" fill="#2e7d32" opacity="0.55"/>
<line x1="952.5" y1="278.3" x2="952.5" y2="288.4" stroke="#c62828" stroke-width="1"/>
<rect x="950.5" y="280.9" width="4.0" height="5.0" fill="#c62828"/>
<rect x="950.5" y="525.9" width="4.0" height="6.1" fill="#c62828" opacity="0.55"/>
<line x1="958.9" y1="136.6" x2="958.9" y2="255.5" stroke="#2e7d32" stroke-width="1"/>
<rect x="956.9" y="194.9" width="4.0" height="42.9" fill="#2e7d32"/>
<rect x="956.9" y="412.0" width="4.0" height="120.0" fill="#2e7d32" opacity="0.55"/>
<line x1="965.3" y1="149.3" x2="965.3" y2="253.0" stroke="#2e7d32" stroke-width="1"/>
<rect x="963.3" y="159.4" width="4.0" height="37.9" fill="#2e7d32"/>
<rect x="963.3" y="465.4" width="4.0" height="66.6" fill="#2e7d32" opacity="0.55"/>
<line x1="971.7" y1="124.0" x2="971.7" y2="199.9" stroke="#c62828" stroke-width="1"/>
<rect x="969.7" y="161.9" width="4.0" height="2.5" fill="#c62828"/>
<rect x="969.7" y="437.2" width="4.0" height="94.8" fill="#c62828" opacity="0.55"/>
<line x1="978.2" y1="156.9" x2="978.2" y2="204.9" stroke="#c62828" stroke-width="1"/>
<rect x="976.2" y="164.5" width="4.0" height="37.9" fill="#c62828"/>
<rect x="976.2" y="481.0" width="4.0" height="51.0" fill="#c62828" opacity="0.55"/>
<line x1="984.6" y1="149.3" x2="984.6" y2="202.4" stroke="#2e7d32" stroke-width="1"/>
<rect x="982.6" y="169.5" width="4.0" height="30.4" fill="#2e7d32"/>
<rect x="982.6" y="483.5" width="4.0" height="48.5" fill="#2e7d32" opacity="0.55"/>
<line x1="991.0" y1="103.8" x2="991.0" y2="172.1" stroke="#2e7d32" stroke-width="1"/>
<rect x="989.0" y="124.0" width="4.0" height="48.1" fill="#2e7d32"/>
<rect x="989.0" y="423.8" width="4.0" height="108.2" fill="#2e7d32" opacity="0.55"/>
<line x1="997.4" y1="73.4" x2="997.4" y2="126.5" stroke="#2e7d32" stroke-width="1"/>
<rect x="995.4" y="116.4" width="4.0" height="7.6" fill="#2e7d32"/>
<rect x="995.4" y="422.2" width="4.0" height="109.8" fill="#2e7d32" opacity="0.55"/>
<line x1="1003.8" y1="55.7" x2="1003.8" y2="116.4" stroke="#2e7d32" stroke-width="1"/>
<rect x="1001.8" y="93.7" width="4.0" height="20.2" fill="#2e7d32"/>
<rect x="1001.8" y="436.2" width="4.0" height="95.8" fill="#2e7d32" opacity="0.55"/>
<line x1="1010.2" y1="88.6" x2="1010.2" y2="126.5" stroke="#c62828" stroke-width="1"/>
<rect x="1008.2" y="93.7" width="4.0" height="10.1" fill="#c62828"/>
<rect x="1008.2" y="482.0" width="4.0" height="50.0" fill="#c62828" opacity="0.55"/>
<line x1="1016.6" y1="106.3" x2="1016.6" y2="144.2" stroke="#c62828" stroke-width="1"/>
<rect x="1014.7" y="106.3" width="4.0" height="15.2" fill="#c62828"/>
<rect x="1014.7" y="500.3" width="4.0" height="31.7" fill="#c62828" opacity="0.55"/>
<line x1="1023.1" y1="106.3" x2="1023.1" y2="141.7" stroke="#c62828" stroke-width="1"/>
<rect x="1021.1" y="124.0" width="4.0" height="17.7" fill="#c62828"/>
<rect x="1021.1" y="513.0" width="4.0" height="19.0" fill="#c62828" opacity="0.55"/>
<line x1="1029.5" y1="139.2" x2="1029.5" y2="177.1" stroke="#c62828" stroke-width="1"/>
<rect x="1027.5" y="139.2" width="4.0" height="32.9" fill="#c62828"/>
<rect x="1027.5" y="495.1" width="4.0" height="36.9" fill="#c62828" opacity="0.55"/>
<line x1="1035.9" y1="151.8" x2="1035.9" y2="182.2" stroke="#2e7d32" stroke-width="1"/>
<rect x="1033.9" y="159.4" width="4.0" height="10.1" fill="#2e7d32"/>
<rect x="1033.9" y="505.3" width="4.0" height="26.7" fill="#2e7d32" opacity="0.55"/>
<line x1="1042.3" y1="129.1" x2="1042.3" y2="164.5" stroke="#2e7d32" stroke-width="1"/>
<rect x="1040.3" y="141.7" width="4.0" height="17.7" fill="#2e7d32"/>
<rect x="1040.3" y="498.9" width="4.0" height="33.1" fill="#2e7d32" opacity="0.55"/>
<line x1="1048.7" y1="121.5" x2="1048.7" y2="164.5" stroke="#c62828" stroke-width="1"/>
<rect x="1046.7" y="141.7" width="4.0" height="10.1" fill="#c62828"/>
<rect x="1046.7" y="502.3" width="4.0" height="29.7" fill="#c62828" opacity="0.55"/>
<line x1="1055.1" y1="146.8" x2="1055.1" y2="172.1" stroke="#c62828" stroke-width="1"/>
<rect x="1053.1" y="149.3" width="4.0" height="22.8" fill="#c62828"/>
<rect x="1053.1" y="513.9" width="4.0" height="18.1" fill="#c62828" opacity="0.55"/>
<line x1="1061.5" y1="161.9" x2="1061.5" y2="210.0" stroke="#c62828" stroke-width="1"/>
<rect x="1059.6" y="172.1" width="4.0" height="30.4" fill="#c62828"/>
<rect x="1059.6" y="532.0" width="4.0" height="0.0" fill="#c62828" opacity="0.55"/>
<line x1="1068.0" y1="189.8" x2="1068.0" y2="202.4" stroke="#2e7d32" stroke-width="1"/>
<rect x="1066.0" y="202.4" width="4.0" height="1.0" fill="#2e7d32"/>
<rect x="1066.0" y="532.0" width="4.0" height="0.0" fill="#2e7d32" opacity="0.55"/>
<line x1="1074.4" y1="199.9" x2="1074.4" y2="207.5" stroke="#c62828" stroke-width="1"/>
<rect x="1072.4" y="199.9" width="4.0" height="7.6" fill="#c62828"/>
<rect x="1072.4" y="532.0" width="4.0" height="0.0" fill="#c62828" opacity="0.55"/>
<line x1="1080.8" y1="207.5" x2="1080.8" y2="207.5" stroke="#2e7d32" stroke-width="1"/>
<rect x="1078.8" y="207.5" width="4.0" height="1.0" fill="#2e7d32"/>
<rect x="1078.8" y="532.0" width="4.0" height="0.0" fill="#2e7d32" opacity="0.55"/>
<line x1="64" y1="532" x2="1084" y2="532" stroke="#ccc"/>
<text x="58" y="420" font-size="9" fill="#999" text-anchor="end">4.1M</text>
<line x1="67.2" y1="532" x2="67.2" y2="536" stroke="#999"/>
<text x="67.2" y="547.0" font-size="9" fill="#666" text-anchor="middle">07/14 04:00</text>
<line x1="234.0" y1="532" x2="234.0" y2="536" stroke="#999"/>
<text x="234.0" y="547.0" font-size="9" fill="#666" text-anchor="middle">09:30</text>
<line x1="400.8" y1="532" x2="400.8" y2="536" stroke="#999"/>
<text x="400.8" y="547.0" font-size="9" fill="#666" text-anchor="middle">12:05</text>
<line x1="567.6" y1="532" x2="567.6" y2="536" stroke="#999"/>
<text x="567.6" y="547.0" font-size="9" fill="#666" text-anchor="middle">14:25</text>
<line x1="734.4" y1="532" x2="734.4" y2="536" stroke="#999"/>
<text x="734.4" y="547.0" font-size="9" fill="#666" text-anchor="middle">16:50</text>
<line x1="901.2" y1="532" x2="901.2" y2="536" stroke="#999"/>
<text x="901.2" y="547.0" font-size="9" fill="#666" text-anchor="middle">19:15</text>
<line x1="1068.0" y1="532" x2="1068.0" y2="536" stroke="#999"/>
<text x="1068.0" y="547.0" font-size="9" fill="#666" text-anchor="middle">07/15 05:25</text>
<text x="64" y="22" font-size="15" font-weight="bold" fill="#1a1a1a">KUST - Kustom Entertainment, Inc.</text>
<text x="1084" y="22" font-size="11" fill="#666" text-anchor="end">last $1.62 (+74.2% over window)</text>
<rect x="934" y="28" width="10" height="8" fill="#e8f0fe"/>
<text x="948" y="35" font-size="9" fill="#666">premarket</text>
<rect x="1006" y="28" width="10" height="8" fill="#fff4e0"/>
<text x="1020" y="35" font-size="9" fill="#666">after-hrs</text>
</svg>