<svg xmlns="http://www.w3.org/2000/svg" width="1100" height="560" viewBox="0 0 1100 560" font-family="Arial,Helvetica,sans-serif">
<rect width="1100" height="560" fill="white"/>
<rect x="64.0" y="36" width="479.0" height="496.0" fill="#e8f0fe"/>
<rect x="977.6" y="36" width="106.4" height="496.0" fill="#fff4e0"/>
<line x1="64" y1="404.0" x2="1084" y2="404.0" stroke="#e6e6e6"/>
<text x="58" y="407.0" font-size="10" fill="#666" text-anchor="end">$7.26</text>
<line x1="64" y1="312.0" x2="1084" y2="312.0" stroke="#e6e6e6"/>
<text x="58" y="315.0" font-size="10" fill="#666" text-anchor="end">$8.38</text>
<line x1="64" y1="220.0" x2="1084" y2="220.0" stroke="#e6e6e6"/>
<text x="58" y="223.0" font-size="10" fill="#666" text-anchor="end">$9.50</text>
<line x1="64" y1="128.0" x2="1084" y2="128.0" stroke="#e6e6e6"/>
<text x="58" y="131.0" font-size="10" fill="#666" text-anchor="end">$10.61</text>
<line x1="64" y1="36.0" x2="1084" y2="36.0" stroke="#e6e6e6"/>
<text x="58" y="39.0" font-size="10" fill="#666" text-anchor="end">$11.73</text>
<line x1="68.4" y1="55.7" x2="68.4" y2="170.2" stroke="#2e7d32" stroke-width="1"/>
<rect x="65.7" y="137.2" width="5.5" height="32.9" fill="#2e7d32"/>
<rect x="65.7" y="521.0" width="5.5" height="11.0" fill="#2e7d32" opacity="0.55"/>
<line x1="77.3" y1="85.4" x2="77.3" y2="132.3" stroke="#2e7d32" stroke-width="1"/>
<rect x="74.6" y="104.3" width="5.5" height="28.0" fill="#2e7d32"/>
<rect x="74.6" y="532.0" width="5.5" height="0.0" fill="#2e7d32" opacity="0.55"/>
<line x1="86.2" y1="130.7" x2="86.2" y2="132.3" stroke="#c62828" stroke-width="1"/>
<rect x="83.4" y="130.7" width="5.5" height="1.0" fill="#c62828"/>
<rect x="83.4" y="532.0" width="5.5" height="0.0" fill="#c62828" opacity="0.55"/>
<line x1="95.0" y1="131.5" x2="95.0" y2="132.3" stroke="#c62828" stroke-width="1"/>
<rect x="92.3" y="131.5" width="5.5" height="1.0" fill="#c62828"/>
<rect x="92.3" y="532.0" width="5.5" height="0.0" fill="#c62828" opacity="0.55"/>
<line x1="103.9" y1="132.3" x2="103.9" y2="157.8" stroke="#c62828" stroke-width="1"/>
<rect x="101.2" y="132.3" width="5.5" height="25.6" fill="#c62828"/>
<rect x="101.2" y="532.0" width="5.5" height="0.0" fill="#c62828" opacity="0.55"/>
<line x1="112.8" y1="157.0" x2="112.8" y2="175.9" stroke="#c62828" stroke-width="1"/>
<rect x="110.0" y="157.8" width="5.5" height="18.1" fill="#c62828"/>
<rect x="110.0" y="525.7" width="5.5" height="6.3" fill="#c62828" opacity="0.55"/>
<line x1="121.7" y1="175.9" x2="121.7" y2="177.6" stroke="#2e7d32" stroke-width="1"/>
<rect x="118.9" y="175.9" width="5.5" height="1.0" fill="#2e7d32"/>
<rect x="118.9" y="530.3" width="5.5" height="1.7" fill="#2e7d32" opacity="0.55"/>
<line x1="130.5" y1="166.1" x2="130.5" y2="166.1" stroke="#2e7d32" stroke-width="1"/>
<rect x="127.8" y="166.1" width="5.5" height="1.0" fill="#2e7d32"/>
<rect x="127.8" y="532.0" width="5.5" height="0.0" fill="#2e7d32" opacity="0.55"/>
<line x1="139.4" y1="166.1" x2="139.4" y2="166.1" stroke="#2e7d32" stroke-width="1"/>
<rect x="136.6" y="166.1" width="5.5" height="1.0" fill="#2e7d32"/>
<rect x="136.6" y="531.4" width="5.5" height="0.6" fill="#2e7d32" opacity="0.55"/>
<line x1="148.3" y1="175.9" x2="148.3" y2="175.9" stroke="#2e7d32" stroke-width="1"/>
<rect x="145.5" y="175.9" width="5.5" height="1.0" fill="#2e7d32"/>
<rect x="145.5" y="532.0" width="5.5" height="0.0" fill="#2e7d32" opacity="0.55"/>
<line x1="157.1" y1="166.1" x2="157.1" y2="175.9" stroke="#c62828" stroke-width="1"/>
<rect x="154.4" y="173.5" width="5.5" height="2.5" fill="#c62828"/>
<rect x="154.4" y="532.0" width="5.5" height="0.0" fill="#c62828" opacity="0.55"/>
<line x1="166.0" y1="166.9" x2="166.0" y2="175.1" stroke="#2e7d32" stroke-width="1"/>
<rect x="163.3" y="166.9" width="5.5" height="8.2" fill="#2e7d32"/>
<rect x="163.3" y="531.7" width="5.5" height="0.3" fill="#2e7d32" opacity="0.55"/>
<line x1="174.9" y1="167.1" x2="174.9" y2="175.9" stroke="#c62828" stroke-width="1"/>
<rect x="172.1" y="167.1" width="5.5" height="8.8" fill="#c62828"/>
<rect x="172.1" y="531.8" width="5.5" height="0.2" fill="#c62828" opacity="0.55"/>
<line x1="183.7" y1="170.3" x2="183.7" y2="177.6" stroke="#c62828" stroke-width="1"/>
<rect x="181.0" y="175.9" width="5.5" height="1.6" fill="#c62828"/>
<rect x="181.0" y="531.1" width="5.5" height="0.9" fill="#c62828" opacity="0.55"/>
<line x1="192.6" y1="170.2" x2="192.6" y2="171.0" stroke="#2e7d32" stroke-width="1"/>
<rect x="189.9" y="170.2" width="5.5" height="1.0" fill="#2e7d32"/>
<rect x="189.9" y="531.1" width="5.5" height="0.9" fill="#2e7d32" opacity="0.55"/>
<line x1="201.5" y1="171.0" x2="201.5" y2="171.0" stroke="#2e7d32" stroke-width="1"/>
<rect x="198.7" y="171.0" width="5.5" height="1.0" fill="#2e7d32"/>
<rect x="198.7" y="532.0" width="5.5" height="0.0" fill="#2e7d32" opacity="0.55"/>
<line x1="210.3" y1="170.2" x2="210.3" y2="171.0" stroke="#2e7d32" stroke-width="1"/>
<rect x="207.6" y="170.2" width="5.5" height="1.0" fill="#2e7d32"/>
<rect x="207.6" y="531.0" width="5.5" height="1.0" fill="#2e7d32" opacity="0.55"/>
<line x1="219.2" y1="178.4" x2="219.2" y2="194.9" stroke="#c62828" stroke-width="1"/>
<rect x="216.5" y="178.4" width="5.5" height="16.5" fill="#c62828"/>
<rect x="216.5" y="532.0" width="5.5" height="0.0" fill="#c62828" opacity="0.55"/>
<line x1="228.1" y1="194.9" x2="228.1" y2="211.4" stroke="#c62828" stroke-width="1"/>
<rect x="225.3" y="203.1" width="5.5" height="8.2" fill="#c62828"/>
<rect x="225.3" y="531.2" width="5.5" height="0.8" fill="#c62828" opacity="0.55"/>
<line x1="237.0" y1="203.1" x2="237.0" y2="203.1" stroke="#2e7d32" stroke-width="1"/>
<rect x="234.2" y="203.1" width="5.5" height="1.0" fill="#2e7d32"/>
<rect x="234.2" y="532.0" width="5.5" height="0.0" fill="#2e7d32" opacity="0.55"/>
<line x1="245.8" y1="178.4" x2="245.8" y2="179.2" stroke="#2e7d32" stroke-width="1"/>
<rect x="243.1" y="178.4" width="5.5" height="1.0" fill="#2e7d32"/>
<rect x="243.1" y="532.0" width="5.5" height="0.0" fill="#2e7d32" opacity="0.55"/>
<line x1="254.7" y1="157.8" x2="254.7" y2="161.1" stroke="#2e7d32" stroke-width="1"/>
<rect x="251.9" y="157.8" width="5.5" height="3.3" fill="#2e7d32"/>
<rect x="251.9" y="532.0" width="5.5" height="0.0" fill="#2e7d32" opacity="0.55"/>
<line x1="263.6" y1="158.7" x2="263.6" y2="158.7" stroke="#2e7d32" stroke-width="1"/>
<rect x="260.8" y="158.7" width="5.5" height="1.0" fill="#2e7d32"/>
<rect x="260.8" y="532.0" width="5.5" height="0.0" fill="#2e7d32" opacity="0.55"/>
<line x1="272.4" y1="191.6" x2="272.4" y2="200.6" stroke="#2e7d32" stroke-width="1"/>
<rect x="269.7" y="191.6" width="5.5" height="1.6" fill="#2e7d32"/>
<rect x="269.7" y="532.0" width="5.5" height="0.0" fill="#2e7d32" opacity="0.55"/>
<line x1="281.3" y1="199.0" x2="281.3" y2="200.6" stroke="#c62828" stroke-width="1"/>
<rect x="278.6" y="199.0" width="5.5" height="1.6" fill="#c62828"/>
<rect x="278.6" y="532.0" width="5.5" height="0.0" fill="#c62828" opacity="0.55"/>
<line x1="290.2" y1="170.2" x2="290.2" y2="176.4" stroke="#2e7d32" stroke-width="1"/>
<rect x="287.4" y="170.2" width="5.5" height="6.2" fill="#2e7d32"/>
<rect x="287.4" y="532.0" width="5.5" height="0.0" fill="#2e7d32" opacity="0.55"/>
<line x1="299.0" y1="137.2" x2="299.0" y2="170.2" stroke="#2e7d32" stroke-width="1"/>
<rect x="296.3" y="162.8" width="5.5" height="7.4" fill="#2e7d32"/>
<rect x="296.3" y="531.1" width="5.5" height="0.9" fill="#2e7d32" opacity="0.55"/>
<line x1="307.9" y1="137.2" x2="307.9" y2="145.5" stroke="#2e7d32" stroke-width="1"/>
<rect x="305.2" y="138.2" width="5.5" height="7.2" fill="#2e7d32"/>
<rect x="305.2" y="530.4" width="5.5" height="1.6" fill="#2e7d32" opacity="0.55"/>
<line x1="316.8" y1="138.1" x2="316.8" y2="161.9" stroke="#c62828" stroke-width="1"/>
<rect x="314.0" y="138.1" width="5.5" height="23.9" fill="#c62828"/>
<rect x="314.0" y="529.9" width="5.5" height="2.1" fill="#c62828" opacity="0.55"/>
<line x1="325.7" y1="145.5" x2="325.7" y2="166.9" stroke="#2e7d32" stroke-width="1"/>
<rect x="322.9" y="145.5" width="5.5" height="21.4" fill="#2e7d32"/>
<rect x="322.9" y="531.8" width="5.5" height="0.2" fill="#2e7d32" opacity="0.55"/>
<line x1="334.5" y1="124.1" x2="334.5" y2="157.6" stroke="#c62828" stroke-width="1"/>
<rect x="331.8" y="124.1" width="5.5" height="33.6" fill="#c62828"/>
<rect x="331.8" y="532.0" width="5.5" height="0.0" fill="#c62828" opacity="0.55"/>
<line x1="343.4" y1="152.8" x2="343.4" y2="157.8" stroke="#c62828" stroke-width="1"/>
<rect x="340.6" y="152.8" width="5.5" height="5.1" fill="#c62828"/>
<rect x="340.6" y="529.2" width="5.5" height="2.8" fill="#c62828" opacity="0.55"/>
<line x1="352.3" y1="145.5" x2="352.3" y2="202.3" stroke="#c62828" stroke-width="1"/>
<rect x="349.5" y="145.5" width="5.5" height="56.8" fill="#c62828"/>
<rect x="349.5" y="529.5" width="5.5" height="2.5" fill="#c62828" opacity="0.55"/>
<line x1="361.1" y1="170.1" x2="361.1" y2="202.3" stroke="#2e7d32" stroke-width="1"/>
<rect x="358.4" y="170.2" width="5.5" height="17.3" fill="#2e7d32"/>
<rect x="358.4" y="532.0" width="5.5" height="0.0" fill="#2e7d32" opacity="0.55"/>
<line x1="370.0" y1="165.2" x2="370.0" y2="200.6" stroke="#2e7d32" stroke-width="1"/>
<rect x="367.3" y="166.0" width="5.5" height="34.6" fill="#2e7d32"/>
<rect x="367.3" y="531.5" width="5.5" height="0.5" fill="#2e7d32" opacity="0.55"/>
<line x1="378.9" y1="188.3" x2="378.9" y2="194.9" stroke="#c62828" stroke-width="1"/>
<rect x="376.1" y="188.3" width="5.5" height="6.6" fill="#c62828"/>
<rect x="376.1" y="529.7" width="5.5" height="2.3" fill="#c62828" opacity="0.55"/>
<line x1="387.7" y1="195.8" x2="387.7" y2="195.8" stroke="#2e7d32" stroke-width="1"/>
<rect x="385.0" y="195.8" width="5.5" height="1.0" fill="#2e7d32"/>
<rect x="385.0" y="531.7" width="5.5" height="0.3" fill="#2e7d32" opacity="0.55"/>
<line x1="396.6" y1="185.8" x2="396.6" y2="195.7" stroke="#2e7d32" stroke-width="1"/>
<rect x="393.9" y="185.8" width="5.5" height="9.9" fill="#2e7d32"/>
<rect x="393.9" y="523.9" width="5.5" height="8.1" fill="#2e7d32" opacity="0.55"/>
<line x1="405.5" y1="178.4" x2="405.5" y2="194.1" stroke="#2e7d32" stroke-width="1"/>
<rect x="402.7" y="178.4" width="5.5" height="7.4" fill="#2e7d32"/>
<rect x="402.7" y="531.5" width="5.5" height="0.5" fill="#2e7d32" opacity="0.55"/>
<line x1="414.3" y1="166.9" x2="414.3" y2="194.1" stroke="#c62828" stroke-width="1"/>
<rect x="411.6" y="186.6" width="5.5" height="7.4" fill="#c62828"/>
<rect x="411.6" y="524.3" width="5.5" height="7.7" fill="#c62828" opacity="0.55"/>
<line x1="423.2" y1="194.1" x2="423.2" y2="226.2" stroke="#c62828" stroke-width="1"/>
<rect x="420.5" y="194.1" width="5.5" height="32.1" fill="#c62828"/>
<rect x="420.5" y="525.3" width="5.5" height="6.7" fill="#c62828" opacity="0.55"/>
<line x1="432.1" y1="219.6" x2="432.1" y2="231.1" stroke="#c62828" stroke-width="1"/>
<rect x="429.3" y="224.5" width="5.5" height="2.5" fill="#c62828"/>
<rect x="429.3" y="529.0" width="5.5" height="3.0" fill="#c62828" opacity="0.55"/>
<line x1="441.0" y1="219.6" x2="441.0" y2="231.1" stroke="#c62828" stroke-width="1"/>
<rect x="438.2" y="224.5" width="5.5" height="6.6" fill="#c62828"/>
<rect x="438.2" y="529.7" width="5.5" height="2.3" fill="#c62828" opacity="0.55"/>
<line x1="449.8" y1="224.5" x2="449.8" y2="231.1" stroke="#2e7d32" stroke-width="1"/>
<rect x="447.1" y="230.3" width="5.5" height="1.0" fill="#2e7d32"/>
<rect x="447.1" y="531.4" width="5.5" height="0.6" fill="#2e7d32" opacity="0.55"/>
<line x1="458.7" y1="225.3" x2="458.7" y2="244.3" stroke="#c62828" stroke-width="1"/>
<rect x="455.9" y="225.3" width="5.5" height="14.0" fill="#c62828"/>
<rect x="455.9" y="530.6" width="5.5" height="1.4" fill="#c62828" opacity="0.55"/>
<line x1="467.6" y1="232.8" x2="467.6" y2="242.6" stroke="#2e7d32" stroke-width="1"/>
<rect x="464.8" y="232.8" width="5.5" height="1.5" fill="#2e7d32"/>
<rect x="464.8" y="530.9" width="5.5" height="1.1" fill="#2e7d32" opacity="0.55"/>
<line x1="476.4" y1="233.9" x2="476.4" y2="235.2" stroke="#c62828" stroke-width="1"/>
<rect x="473.7" y="233.9" width="5.5" height="1.3" fill="#c62828"/>
<rect x="473.7" y="531.4" width="5.5" height="0.6" fill="#c62828" opacity="0.55"/>
<line x1="485.3" y1="235.2" x2="485.3" y2="248.4" stroke="#c62828" stroke-width="1"/>
<rect x="482.6" y="236.1" width="5.5" height="3.3" fill="#c62828"/>
<rect x="482.6" y="531.2" width="5.5" height="0.8" fill="#c62828" opacity="0.55"/>
<line x1="494.2" y1="231.9" x2="494.2" y2="252.5" stroke="#2e7d32" stroke-width="1"/>
<rect x="491.4" y="231.9" width="5.5" height="20.6" fill="#2e7d32"/>
<rect x="491.4" y="530.5" width="5.5" height="1.5" fill="#2e7d32" opacity="0.55"/>
<line x1="503.0" y1="236.1" x2="503.0" y2="260.7" stroke="#2e7d32" stroke-width="1"/>
<rect x="500.3" y="258.3" width="5.5" height="2.5" fill="#2e7d32"/>
<rect x="500.3" y="528.2" width="5.5" height="3.8" fill="#2e7d32" opacity="0.55"/>
<line x1="511.9" y1="236.1" x2="511.9" y2="261.6" stroke="#c62828" stroke-width="1"/>
<rect x="509.2" y="237.2" width="5.5" height="22.7" fill="#c62828"/>
<rect x="509.2" y="529.9" width="5.5" height="2.1" fill="#c62828" opacity="0.55"/>
<line x1="520.8" y1="251.7" x2="520.8" y2="251.7" stroke="#2e7d32" stroke-width="1"/>
<rect x="518.0" y="251.7" width="5.5" height="1.0" fill="#2e7d32"/>
<rect x="518.0" y="531.0" width="5.5" height="1.0" fill="#2e7d32" opacity="0.55"/>
<line x1="529.7" y1="259.1" x2="529.7" y2="259.1" stroke="#2e7d32" stroke-width="1"/>
<rect x="526.9" y="259.1" width="5.5" height="1.0" fill="#2e7d32"/>
<rect x="526.9" y="532.0" width="5.5" height="0.0" fill="#2e7d32" opacity="0.55"/>
<line x1="538.5" y1="236.1" x2="538.5" y2="260.8" stroke="#2e7d32" stroke-width="1"/>
<rect x="535.8" y="236.1" width="5.5" height="23.1" fill="#2e7d32"/>
<rect x="535.8" y="528.6" width="5.5" height="3.4" fill="#2e7d32" opacity="0.55"/>
<line x1="547.4" y1="220.4" x2="547.4" y2="268.6" stroke="#c62828" stroke-width="1"/>
<rect x="544.6" y="248.4" width="5.5" height="20.2" fill="#c62828"/>
<rect x="544.6" y="412.0" width="5.5" height="120.0" fill="#c62828" opacity="0.55"/>
<line x1="556.3" y1="242.6" x2="556.3" y2="339.8" stroke="#c62828" stroke-width="1"/>
<rect x="553.5" y="247.6" width="5.5" height="54.4" fill="#c62828"/>
<rect x="553.5" y="513.4" width="5.5" height="18.6" fill="#c62828" opacity="0.55"/>
<line x1="565.1" y1="287.1" x2="565.1" y2="317.6" stroke="#c62828" stroke-width="1"/>
<rect x="562.4" y="302.8" width="5.5" height="11.9" fill="#c62828"/>
<rect x="562.4" y="524.6" width="5.5" height="7.4" fill="#c62828" opacity="0.55"/>
<line x1="574.0" y1="301.5" x2="574.0" y2="301.9" stroke="#2e7d32" stroke-width="1"/>
<rect x="571.3" y="301.5" width="5.5" height="1.0" fill="#2e7d32"/>
<rect x="571.3" y="529.9" width="5.5" height="2.1" fill="#2e7d32" opacity="0.55"/>
<line x1="582.9" y1="301.9" x2="582.9" y2="374.4" stroke="#c62828" stroke-width="1"/>
<rect x="580.1" y="302.7" width="5.5" height="32.2" fill="#c62828"/>
<rect x="580.1" y="505.5" width="5.5" height="26.5" fill="#c62828" opacity="0.55"/>
<line x1="591.7" y1="358.8" x2="591.7" y2="359.2" stroke="#2e7d32" stroke-width="1"/>
<rect x="589.0" y="358.8" width="5.5" height="1.0" fill="#2e7d32"/>
<rect x="589.0" y="528.5" width="5.5" height="3.5" fill="#2e7d32" opacity="0.55"/>
<line x1="600.6" y1="360.4" x2="600.6" y2="384.3" stroke="#2e7d32" stroke-width="1"/>
<rect x="597.9" y="362.5" width="5.5" height="9.4" fill="#2e7d32"/>
<rect x="597.9" y="524.8" width="5.5" height="7.2" fill="#2e7d32" opacity="0.55"/>
<line x1="609.5" y1="364.5" x2="609.5" y2="364.5" stroke="#2e7d32" stroke-width="1"/>
<rect x="606.7" y="364.5" width="5.5" height="1.0" fill="#2e7d32"/>
<rect x="606.7" y="531.4" width="5.5" height="0.6" fill="#2e7d32" opacity="0.55"/>
<line x1="618.3" y1="363.7" x2="618.3" y2="363.7" stroke="#2e7d32" stroke-width="1"/>
<rect x="615.6" y="363.7" width="5.5" height="1.0" fill="#2e7d32"/>
<rect x="615.6" y="531.3" width="5.5" height="0.7" fill="#2e7d32" opacity="0.55"/>
<line x1="627.2" y1="363.7" x2="627.2" y2="370.3" stroke="#2e7d32" stroke-width="1"/>
<rect x="624.5" y="369.9" width="5.5" height="1.0" fill="#2e7d32"/>
<rect x="624.5" y="530.2" width="5.5" height="1.8" fill="#2e7d32" opacity="0.55"/>
<line x1="636.1" y1="363.7" x2="636.1" y2="369.9" stroke="#c62828" stroke-width="1"/>
<rect x="633.3" y="363.7" width="5.5" height="6.2" fill="#c62828"/>
<rect x="633.3" y="530.2" width="5.5" height="1.8" fill="#c62828" opacity="0.55"/>
<line x1="645.0" y1="371.9" x2="645.0" y2="371.9" stroke="#2e7d32" stroke-width="1"/>
<rect x="642.2" y="371.9" width="5.5" height="1.0" fill="#2e7d32"/>
<rect x="642.2" y="531.4" width="5.5" height="0.6" fill="#2e7d32" opacity="0.55"/>
<line x1="653.8" y1="374.0" x2="653.8" y2="374.8" stroke="#c62828" stroke-width="1"/>
<rect x="651.1" y="374.0" width="5.5" height="1.0" fill="#c62828"/>
<rect x="651.1" y="529.4" width="5.5" height="2.6" fill="#c62828" opacity="0.55"/>
<line x1="662.7" y1="363.7" x2="662.7" y2="372.3" stroke="#c62828" stroke-width="1"/>
<rect x="659.9" y="364.5" width="5.5" height="4.7" fill="#c62828"/>
<rect x="659.9" y="529.2" width="5.5" height="2.8" fill="#c62828" opacity="0.55"/>
<line x1="671.6" y1="319.9" x2="671.6" y2="351.3" stroke="#c62828" stroke-width="1"/>
<rect x="668.8" y="319.9" width="5.5" height="27.3" fill="#c62828"/>
<rect x="668.8" y="529.5" width="5.5" height="2.5" fill="#c62828" opacity="0.55"/>
<line x1="680.4" y1="318.4" x2="680.4" y2="318.4" stroke="#2e7d32" stroke-width="1"/>
<rect x="677.7" y="318.4" width="5.5" height="1.0" fill="#2e7d32"/>
<rect x="677.7" y="531.1" width="5.5" height="0.9" fill="#2e7d32" opacity="0.55"/>
<line x1="689.3" y1="322.2" x2="689.3" y2="322.2" stroke="#2e7d32" stroke-width="1"/>
<rect x="686.6" y="322.2" width="5.5" height="1.0" fill="#2e7d32"/>
<rect x="686.6" y="527.8" width="5.5" height="4.2" fill="#2e7d32" opacity="0.55"/>
<line x1="698.2" y1="306.9" x2="698.2" y2="306.9" stroke="#2e7d32" stroke-width="1"/>
<rect x="695.4" y="306.9" width="5.5" height="1.0" fill="#2e7d32"/>
<rect x="695.4" y="530.2" width="5.5" height="1.8" fill="#2e7d32" opacity="0.55"/>
<line x1="707.0" y1="284.6" x2="707.0" y2="294.5" stroke="#2e7d32" stroke-width="1"/>
<rect x="704.3" y="284.6" width="5.5" height="9.9" fill="#2e7d32"/>
<rect x="704.3" y="530.1" width="5.5" height="1.9" fill="#2e7d32" opacity="0.55"/>
<line x1="715.9" y1="350.5" x2="715.9" y2="350.5" stroke="#2e7d32" stroke-width="1"/>
<rect x="713.2" y="350.5" width="5.5" height="1.0" fill="#2e7d32"/>
<rect x="713.2" y="524.7" width="5.5" height="7.3" fill="#2e7d32" opacity="0.55"/>
<line x1="724.8" y1="275.6" x2="724.8" y2="278.1" stroke="#c62828" stroke-width="1"/>
<rect x="722.0" y="275.6" width="5.5" height="1.6" fill="#c62828"/>
<rect x="722.0" y="530.2" width="5.5" height="1.8" fill="#c62828" opacity="0.55"/>
<line x1="733.7" y1="310.6" x2="733.7" y2="310.6" stroke="#2e7d32" stroke-width="1"/>
<rect x="730.9" y="310.6" width="5.5" height="1.0" fill="#2e7d32"/>
<rect x="730.9" y="530.3" width="5.5" height="1.7" fill="#2e7d32" opacity="0.55"/>
<line x1="742.5" y1="278.1" x2="742.5" y2="278.1" stroke="#2e7d32" stroke-width="1"/>
<rect x="739.8" y="278.1" width="5.5" height="1.0" fill="#2e7d32"/>
<rect x="739.8" y="531.1" width="5.5" height="0.9" fill="#2e7d32" opacity="0.55"/>
<line x1="751.4" y1="262.4" x2="751.4" y2="269.0" stroke="#2e7d32" stroke-width="1"/>
<rect x="748.6" y="262.4" width="5.5" height="6.6" fill="#2e7d32"/>
<rect x="748.6" y="529.8" width="5.5" height="2.2" fill="#2e7d32" opacity="0.55"/>
<line x1="760.3" y1="290.4" x2="760.3" y2="290.4" stroke="#2e7d32" stroke-width="1"/>
<rect x="757.5" y="290.4" width="5.5" height="1.0" fill="#2e7d32"/>
<rect x="757.5" y="531.1" width="5.5" height="0.9" fill="#2e7d32" opacity="0.55"/>
<line x1="769.1" y1="300.3" x2="769.1" y2="300.3" stroke="#2e7d32" stroke-width="1"/>
<rect x="766.4" y="300.3" width="5.5" height="1.0" fill="#2e7d32"/>
<rect x="766.4" y="530.8" width="5.5" height="1.2" fill="#2e7d32" opacity="0.55"/>
<line x1="778.0" y1="306.1" x2="778.0" y2="306.1" stroke="#2e7d32" stroke-width="1"/>
<rect x="775.3" y="306.1" width="5.5" height="1.0" fill="#2e7d32"/>
<rect x="775.3" y="531.4" width="5.5" height="0.6" fill="#2e7d32" opacity="0.55"/>
<line x1="786.9" y1="292.9" x2="786.9" y2="292.9" stroke="#2e7d32" stroke-width="1"/>
<rect x="784.1" y="292.9" width="5.5" height="1.0" fill="#2e7d32"/>
<rect x="784.1" y="531.7" width="5.5" height="0.3" fill="#2e7d32" opacity="0.55"/>
<line x1="795.7" y1="280.1" x2="795.7" y2="280.1" stroke="#2e7d32" stroke-width="1"/>
<rect x="793.0" y="280.1" width="5.5" height="1.0" fill="#2e7d32"/>
<rect x="793.0" y="530.7" width="5.5" height="1.3" fill="#2e7d32" opacity="0.55"/>
<line x1="804.6" y1="252.5" x2="804.6" y2="280.9" stroke="#c62828" stroke-width="1"/>
<rect x="801.9" y="252.5" width="5.5" height="28.4" fill="#c62828"/>
<rect x="801.9" y="529.3" width="5.5" height="2.7" fill="#c62828" opacity="0.55"/>
<line x1="813.5" y1="251.7" x2="813.5" y2="251.7" stroke="#2e7d32" stroke-width="1"/>
<rect x="810.7" y="251.7" width="5.5" height="1.0" fill="#2e7d32"/>
<rect x="810.7" y="531.3" width="5.5" height="0.7" fill="#2e7d32" opacity="0.55"/>
<line x1="822.3" y1="260.8" x2="822.3" y2="260.8" stroke="#2e7d32" stroke-width="1"/>
<rect x="819.6" y="260.8" width="5.5" height="1.0" fill="#2e7d32"/>
<rect x="819.6" y="531.2" width="5.5" height="0.8" fill="#2e7d32" opacity="0.55"/>
<line x1="831.2" y1="236.1" x2="831.2" y2="236.1" stroke="#2e7d32" stroke-width="1"/>
<rect x="828.5" y="236.1" width="5.5" height="1.0" fill="#2e7d32"/>
<rect x="828.5" y="531.5" width="5.5" height="0.5" fill="#2e7d32" opacity="0.55"/>
<line x1="840.1" y1="252.1" x2="840.1" y2="252.1" stroke="#2e7d32" stroke-width="1"/>
<rect x="837.3" y="252.1" width="5.5" height="1.0" fill="#2e7d32"/>
<rect x="837.3" y="531.1" width="5.5" height="0.9" fill="#2e7d32" opacity="0.55"/>
<line x1="849.0" y1="273.1" x2="849.0" y2="274.8" stroke="#2e7d32" stroke-width="1"/>
<rect x="846.2" y="273.9" width="5.5" height="1.0" fill="#2e7d32"/>
<rect x="846.2" y="530.7" width="5.5" height="1.3" fill="#2e7d32" opacity="0.55"/>
<line x1="857.8" y1="248.2" x2="857.8" y2="248.2" stroke="#2e7d32" stroke-width="1"/>
<rect x="855.1" y="248.2" width="5.5" height="1.0" fill="#2e7d32"/>
<rect x="855.1" y="531.8" width="5.5" height="0.2" fill="#2e7d32" opacity="0.55"/>
<line x1="866.7" y1="273.9" x2="866.7" y2="273.9" stroke="#2e7d32" stroke-width="1"/>
<rect x="863.9" y="273.9" width="5.5" height="1.0" fill="#2e7d32"/>
<rect x="863.9" y="531.8" width="5.5" height="0.2" fill="#2e7d32" opacity="0.55"/>
<line x1="875.6" y1="236.1" x2="875.6" y2="260.8" stroke="#2e7d32" stroke-width="1"/>
<rect x="872.8" y="236.1" width="5.5" height="24.7" fill="#2e7d32"/>
<rect x="872.8" y="530.9" width="5.5" height="1.1" fill="#2e7d32" opacity="0.55"/>
<line x1="884.4" y1="213.8" x2="884.4" y2="213.8" stroke="#2e7d32" stroke-width="1"/>
<rect x="881.7" y="213.8" width="5.5" height="1.0" fill="#2e7d32"/>
<rect x="881.7" y="531.8" width="5.5" height="0.2" fill="#2e7d32" opacity="0.55"/>
<line x1="893.3" y1="219.6" x2="893.3" y2="219.6" stroke="#2e7d32" stroke-width="1"/>
<rect x="890.6" y="219.6" width="5.5" height="1.0" fill="#2e7d32"/>
<rect x="890.6" y="531.3" width="5.5" height="0.7" fill="#2e7d32" opacity="0.55"/>
<line x1="902.2" y1="219.6" x2="902.2" y2="246.0" stroke="#c62828" stroke-width="1"/>
<rect x="899.4" y="219.6" width="5.5" height="26.5" fill="#c62828"/>
<rect x="899.4" y="530.4" width="5.5" height="1.6" fill="#c62828" opacity="0.55"/>
<line x1="911.0" y1="245.9" x2="911.0" y2="251.7" stroke="#c62828" stroke-width="1"/>
<rect x="908.3" y="250.9" width="5.5" height="1.0" fill="#c62828"/>
<rect x="908.3" y="530.0" width="5.5" height="2.0" fill="#c62828" opacity="0.55"/>
<line x1="919.9" y1="227.0" x2="919.9" y2="285.5" stroke="#2e7d32" stroke-width="1"/>
<rect x="917.2" y="270.6" width="5.5" height="1.0" fill="#2e7d32"/>
<rect x="917.2" y="511.2" width="5.5" height="20.8" fill="#2e7d32" opacity="0.55"/>
<line x1="928.8" y1="240.2" x2="928.8" y2="242.6" stroke="#2e7d32" stroke-width="1"/>
<rect x="926.0" y="240.2" width="5.5" height="1.0" fill="#2e7d32"/>
<rect x="926.0" y="526.4" width="5.5" height="5.6" fill="#2e7d32" opacity="0.55"/>
<line x1="937.7" y1="240.2" x2="937.7" y2="241.0" stroke="#2e7d32" stroke-width="1"/>
<rect x="934.9" y="240.2" width="5.5" height="1.0" fill="#2e7d32"/>
<rect x="934.9" y="530.7" width="5.5" height="1.3" fill="#2e7d32" opacity="0.55"/>
<line x1="946.5" y1="240.2" x2="946.5" y2="260.4" stroke="#c62828" stroke-width="1"/>
<rect x="943.8" y="240.2" width="5.5" height="20.2" fill="#c62828"/>
<rect x="943.8" y="527.3" width="5.5" height="4.7" fill="#c62828" opacity="0.55"/>
<line x1="955.4" y1="236.9" x2="955.4" y2="280.5" stroke="#2e7d32" stroke-width="1"/>
<rect x="952.6" y="236.9" width="5.5" height="43.6" fill="#2e7d32"/>
<rect x="952.6" y="531.0" width="5.5" height="1.0" fill="#2e7d32" opacity="0.55"/>
<line x1="964.3" y1="280.5" x2="964.3" y2="280.5" stroke="#2e7d32" stroke-width="1"/>
<rect x="961.5" y="280.5" width="5.5" height="1.0" fill="#2e7d32"/>
<rect x="961.5" y="531.3" width="5.5" height="0.7" fill="#2e7d32" opacity="0.55"/>
<line x1="973.1" y1="238.5" x2="973.1" y2="244.3" stroke="#2e7d32" stroke-width="1"/>
<rect x="970.4" y="239.4" width="5.5" height="2.5" fill="#2e7d32"/>
<rect x="970.4" y="526.9" width="5.5" height="5.1" fill="#2e7d32" opacity="0.55"/>
<line x1="982.0" y1="236.9" x2="982.0" y2="236.9" stroke="#2e7d32" stroke-width="1"/>
<rect x="979.3" y="236.9" width="5.5" height="1.0" fill="#2e7d32"/>
<rect x="979.3" y="530.9" width="5.5" height="1.1" fill="#2e7d32" opacity="0.55"/>
<line x1="990.9" y1="236.9" x2="990.9" y2="263.2" stroke="#c62828" stroke-width="1"/>
<rect x="988.1" y="236.9" width="5.5" height="26.4" fill="#c62828"/>
<rect x="988.1" y="531.8" width="5.5" height="0.2" fill="#c62828" opacity="0.55"/>
<line x1="999.7" y1="252.5" x2="999.7" y2="252.5" stroke="#2e7d32" stroke-width="1"/>
<rect x="997.0" y="252.5" width="5.5" height="1.0" fill="#2e7d32"/>
<rect x="997.0" y="532.0" width="5.5" height="0.0" fill="#2e7d32" opacity="0.55"/>
<line x1="1008.6" y1="255.8" x2="1008.6" y2="255.8" stroke="#2e7d32" stroke-width="1"/>
<rect x="1005.9" y="255.8" width="5.5" height="1.0" fill="#2e7d32"/>
<rect x="1005.9" y="532.0" width="5.5" height="0.0" fill="#2e7d32" opacity="0.55"/>
<line x1="1017.5" y1="255.8" x2="1017.5" y2="255.8" stroke="#2e7d32" stroke-width="1"/>
<rect x="1014.7" y="255.8" width="5.5" height="1.0" fill="#2e7d32"/>
<rect x="1014.7" y="532.0" width="5.5" height="0.0" fill="#2e7d32" opacity="0.55"/>
<line x1="1026.3" y1="267.4" x2="1026.3" y2="267.4" stroke="#2e7d32" stroke-width="1"/>
<rect x="1023.6" y="267.4" width="5.5" height="1.0" fill="#2e7d32"/>
<rect x="1023.6" y="529.1" width="5.5" height="2.9" fill="#2e7d32" opacity="0.55"/>
<line x1="1035.2" y1="269.0" x2="1035.2" y2="269.0" stroke="#2e7d32" stroke-width="1"/>
<rect x="1032.5" y="269.0" width="5.5" height="1.0" fill="#2e7d32"/>
<rect x="1032.5" y="532.0" width="5.5" height="0.0" fill="#2e7d32" opacity="0.55"/>
<line x1="1044.1" y1="233.6" x2="1044.1" y2="233.6" stroke="#2e7d32" stroke-width="1"/>
<rect x="1041.3" y="233.6" width="5.5" height="1.0" fill="#2e7d32"/>
<rect x="1041.3" y="532.0" width="5.5" height="0.0" fill="#2e7d32" opacity="0.55"/>
<line x1="1053.0" y1="244.3" x2="1053.0" y2="244.3" stroke="#2e7d32" stroke-width="1"/>
<rect x="1050.2" y="244.3" width="5.5" height="1.0" fill="#2e7d32"/>
<rect x="1050.2" y="532.0" width="5.5" height="0.0" fill="#2e7d32" opacity="0.55"/>
<line x1="1061.8" y1="240.2" x2="1061.8" y2="244.3" stroke="#2e7d32" stroke-width="1"/>
<rect x="1059.1" y="240.2" width="5.5" height="4.1" fill="#2e7d32"/>
<rect x="1059.1" y="532.0" width="5.5" height="0.0" fill="#2e7d32" opacity="0.55"/>
<line x1="1070.7" y1="266.8" x2="1070.7" y2="266.8" stroke="#2e7d32" stroke-width="1"/>
<rect x="1067.9" y="266.8" width="5.5" height="1.0" fill="#2e7d32"/>
<rect x="1067.9" y="532.0" width="5.5" height="0.0" fill="#2e7d32" opacity="0.55"/>
<line x1="1079.6" y1="257.9" x2="1079.6" y2="257.9" stroke="#2e7d32" stroke-width="1"/>
<rect x="1076.8" y="257.9" width="5.5" height="1.0" fill="#2e7d32"/>
<rect x="1076.8" y="532.0" width="5.5" height="0.0" fill="#2e7d32" opacity="0.55"/>
<line x1="64" y1="532" x2="1084" y2="532" stroke="#ccc"/>
<text x="58" y="420" font-size="9" fill="#999" text-anchor="end">0.1M</text>
<line x1="68.4" y1="532" x2="68.4" y2="536" stroke="#999"/>
<text x="68.4" y="547.0" font-size="9" fill="#666" text-anchor="middle">07/14 04:00</text>
<line x1="237.0" y1="532" x2="237.0" y2="536" stroke="#999"/>
<text x="237.0" y="547.0" font-size="9" fill="#666" text-anchor="middle">05:50</text>
<line x1="405.5" y1="532" x2="405.5" y2="536" stroke="#999"/>
<text x="405.5" y="547.0" font-size="9" fill="#666" text-anchor="middle">08:05</text>
<line x1="574.0" y1="532" x2="574.0" y2="536" stroke="#999"/>
<text x="574.0" y="547.0" font-size="9" fill="#666" text-anchor="middle">09:45</text>
<line x1="742.5" y1="532" x2="742.5" y2="536" stroke="#999"/>
<text x="742.5" y="547.0" font-size="9" fill="#666" text-anchor="middle">11:50</text>
<line x1="911.0" y1="532" x2="911.0" y2="536" stroke="#999"/>
<text x="911.0" y="547.0" font-size="9" fill="#666" text-anchor="middle">14:45</text>
<line x1="1079.6" y1="532" x2="1079.6" y2="536" stroke="#999"/>
<text x="1079.6" y="547.0" font-size="9" fill="#666" text-anchor="middle">19:55</text>
<text x="64" y="22" font-size="15" font-weight="bold" fill="#1a1a1a">LVLU - Lulu's Fashion Lounge Holdings, Inc.</text>
<text x="1084" y="22" font-size="11" fill="#666" text-anchor="end">last $9.03 (-10.6% over window)</text>
<rect x="934" y="28" width="10" height="8" fill="#e8f0fe"/>
<text x="948" y="35" font-size="9" fill="#666">premarket</text>
<rect x="1006" y="28" width="10" height="8" fill="#fff4e0"/>
<text x="1020" y="35" font-size="9" fill="#666">after-hrs</text>
</svg>