<svg xmlns="http://www.w3.org/2000/svg" width="1100" height="560" viewBox="0 0 1100 560" font-family="Arial,Helvetica,sans-serif">
<rect width="1100" height="560" fill="white"/>
<rect x="64.0" y="36" width="213.0" height="496.0" fill="#e8f0fe"/>
<rect x="708.5" y="36" width="269.0" height="496.0" fill="#fff4e0"/>
<rect x="977.5" y="36" width="106.5" height="496.0" fill="#e8f0fe"/>
<line x1="64" y1="404.0" x2="1084" y2="404.0" stroke="#e6e6e6"/>
<text x="58" y="407.0" font-size="10" fill="#666" text-anchor="end">$2.73</text>
<line x1="64" y1="312.0" x2="1084" y2="312.0" stroke="#e6e6e6"/>
<text x="58" y="315.0" font-size="10" fill="#666" text-anchor="end">$4.04</text>
<line x1="64" y1="220.0" x2="1084" y2="220.0" stroke="#e6e6e6"/>
<text x="58" y="223.0" font-size="10" fill="#666" text-anchor="end">$5.35</text>
<line x1="64" y1="128.0" x2="1084" y2="128.0" stroke="#e6e6e6"/>
<text x="58" y="131.0" font-size="10" fill="#666" text-anchor="end">$6.67</text>
<line x1="64" y1="36.0" x2="1084" y2="36.0" stroke="#e6e6e6"/>
<text x="58" y="39.0" font-size="10" fill="#666" text-anchor="end">$7.98</text>
<line x1="66.8" y1="222.5" x2="66.8" y2="242.8" stroke="#2e7d32" stroke-width="1"/>
<rect x="65.1" y="242.8" width="3.5" height="1.0" fill="#2e7d32"/>
<rect x="65.1" y="532.0" width="3.5" height="0.0" fill="#2e7d32" opacity="0.55"/>
<line x1="72.4" y1="229.5" x2="72.4" y2="230.9" stroke="#c62828" stroke-width="1"/>
<rect x="70.7" y="229.5" width="3.5" height="1.4" fill="#c62828"/>
<rect x="70.7" y="532.0" width="3.5" height="0.0" fill="#c62828" opacity="0.55"/>
<line x1="78.0" y1="232.3" x2="78.0" y2="232.3" stroke="#2e7d32" stroke-width="1"/>
<rect x="76.3" y="232.3" width="3.5" height="1.0" fill="#2e7d32"/>
<rect x="76.3" y="532.0" width="3.5" height="0.0" fill="#2e7d32" opacity="0.55"/>
<line x1="83.6" y1="232.3" x2="83.6" y2="232.3" stroke="#2e7d32" stroke-width="1"/>
<rect x="81.9" y="232.3" width="3.5" height="1.0" fill="#2e7d32"/>
<rect x="81.9" y="532.0" width="3.5" height="0.0" fill="#2e7d32" opacity="0.55"/>
<line x1="89.2" y1="99.2" x2="89.2" y2="223.2" stroke="#2e7d32" stroke-width="1"/>
<rect x="87.5" y="122.1" width="3.5" height="94.1" fill="#2e7d32"/>
<rect x="87.5" y="532.0" width="3.5" height="0.0" fill="#2e7d32" opacity="0.55"/>
<line x1="94.8" y1="81.6" x2="94.8" y2="190.9" stroke="#c62828" stroke-width="1"/>
<rect x="93.1" y="123.2" width="3.5" height="42.5" fill="#c62828"/>
<rect x="93.1" y="532.0" width="3.5" height="0.0" fill="#c62828" opacity="0.55"/>
<line x1="100.4" y1="119.5" x2="100.4" y2="184.8" stroke="#2e7d32" stroke-width="1"/>
<rect x="98.7" y="145.2" width="3.5" height="15.2" fill="#2e7d32"/>
<rect x="98.7" y="532.0" width="3.5" height="0.0" fill="#2e7d32" opacity="0.55"/>
<line x1="106.0" y1="71.8" x2="106.0" y2="162.2" stroke="#2e7d32" stroke-width="1"/>
<rect x="104.3" y="84.5" width="3.5" height="61.6" fill="#2e7d32"/>
<rect x="104.3" y="532.0" width="3.5" height="0.0" fill="#2e7d32" opacity="0.55"/>
<line x1="111.6" y1="55.7" x2="111.6" y2="202.1" stroke="#c62828" stroke-width="1"/>
<rect x="109.9" y="87.2" width="3.5" height="112.0" fill="#c62828"/>
<rect x="109.9" y="532.0" width="3.5" height="0.0" fill="#c62828" opacity="0.55"/>
<line x1="117.2" y1="178.3" x2="117.2" y2="221.1" stroke="#2e7d32" stroke-width="1"/>
<rect x="115.5" y="184.0" width="3.5" height="10.4" fill="#2e7d32"/>
<rect x="115.5" y="532.0" width="3.5" height="0.0" fill="#2e7d32" opacity="0.55"/>
<line x1="122.8" y1="181.8" x2="122.8" y2="202.8" stroke="#c62828" stroke-width="1"/>
<rect x="121.1" y="183.9" width="3.5" height="17.5" fill="#c62828"/>
<rect x="121.1" y="532.0" width="3.5" height="0.0" fill="#c62828" opacity="0.55"/>
<line x1="128.5" y1="193.0" x2="128.5" y2="212.6" stroke="#2e7d32" stroke-width="1"/>
<rect x="126.7" y="196.7" width="3.5" height="3.7" fill="#2e7d32"/>
<rect x="126.7" y="532.0" width="3.5" height="0.0" fill="#2e7d32" opacity="0.55"/>
<line x1="134.1" y1="195.8" x2="134.1" y2="209.8" stroke="#c62828" stroke-width="1"/>
<rect x="132.3" y="196.3" width="3.5" height="6.5" fill="#c62828"/>
<rect x="132.3" y="532.0" width="3.5" height="0.0" fill="#c62828" opacity="0.55"/>
<line x1="139.7" y1="164.3" x2="139.7" y2="204.9" stroke="#2e7d32" stroke-width="1"/>
<rect x="137.9" y="196.5" width="3.5" height="6.3" fill="#2e7d32"/>
<rect x="137.9" y="532.0" width="3.5" height="0.0" fill="#2e7d32" opacity="0.55"/>
<line x1="145.3" y1="187.4" x2="145.3" y2="197.9" stroke="#c62828" stroke-width="1"/>
<rect x="143.5" y="195.8" width="3.5" height="1.0" fill="#c62828"/>
<rect x="143.5" y="532.0" width="3.5" height="0.0" fill="#c62828" opacity="0.55"/>
<line x1="150.9" y1="193.0" x2="150.9" y2="207.7" stroke="#c62828" stroke-width="1"/>
<rect x="149.1" y="195.1" width="3.5" height="4.4" fill="#c62828"/>
<rect x="149.1" y="532.0" width="3.5" height="0.0" fill="#c62828" opacity="0.55"/>
<line x1="156.5" y1="181.1" x2="156.5" y2="206.3" stroke="#2e7d32" stroke-width="1"/>
<rect x="154.7" y="186.0" width="3.5" height="12.3" fill="#2e7d32"/>
<rect x="154.7" y="532.0" width="3.5" height="0.0" fill="#2e7d32" opacity="0.55"/>
<line x1="162.1" y1="179.7" x2="162.1" y2="196.5" stroke="#c62828" stroke-width="1"/>
<rect x="160.3" y="181.8" width="3.5" height="3.5" fill="#c62828"/>
<rect x="160.3" y="532.0" width="3.5" height="0.0" fill="#c62828" opacity="0.55"/>
<line x1="167.7" y1="183.2" x2="167.7" y2="200.7" stroke="#c62828" stroke-width="1"/>
<rect x="165.9" y="183.2" width="3.5" height="12.6" fill="#c62828"/>
<rect x="165.9" y="532.0" width="3.5" height="0.0" fill="#c62828" opacity="0.55"/>
<line x1="173.3" y1="184.0" x2="173.3" y2="195.8" stroke="#2e7d32" stroke-width="1"/>
<rect x="171.5" y="191.6" width="3.5" height="1.0" fill="#2e7d32"/>
<rect x="171.5" y="532.0" width="3.5" height="0.0" fill="#2e7d32" opacity="0.55"/>
<line x1="178.9" y1="183.2" x2="178.9" y2="193.7" stroke="#c62828" stroke-width="1"/>
<rect x="177.2" y="191.6" width="3.5" height="2.1" fill="#c62828"/>
<rect x="177.2" y="532.0" width="3.5" height="0.0" fill="#c62828" opacity="0.55"/>
<line x1="184.5" y1="191.6" x2="184.5" y2="201.4" stroke="#c62828" stroke-width="1"/>
<rect x="182.8" y="193.6" width="3.5" height="7.8" fill="#c62828"/>
<rect x="182.8" y="532.0" width="3.5" height="0.0" fill="#c62828" opacity="0.55"/>
<line x1="190.1" y1="197.2" x2="190.1" y2="207.0" stroke="#c62828" stroke-width="1"/>
<rect x="188.4" y="201.4" width="3.5" height="1.9" fill="#c62828"/>
<rect x="188.4" y="532.0" width="3.5" height="0.0" fill="#c62828" opacity="0.55"/>
<line x1="195.7" y1="200.0" x2="195.7" y2="209.1" stroke="#c62828" stroke-width="1"/>
<rect x="194.0" y="202.8" width="3.5" height="3.4" fill="#c62828"/>
<rect x="194.0" y="532.0" width="3.5" height="0.0" fill="#c62828" opacity="0.55"/>
<line x1="201.3" y1="200.0" x2="201.3" y2="209.1" stroke="#2e7d32" stroke-width="1"/>
<rect x="199.6" y="207.0" width="3.5" height="1.2" fill="#2e7d32"/>
<rect x="199.6" y="532.0" width="3.5" height="0.0" fill="#2e7d32" opacity="0.55"/>
<line x1="206.9" y1="204.2" x2="206.9" y2="213.3" stroke="#c62828" stroke-width="1"/>
<rect x="205.2" y="206.3" width="3.5" height="4.9" fill="#c62828"/>
<rect x="205.2" y="532.0" width="3.5" height="0.0" fill="#c62828" opacity="0.55"/>
<line x1="212.5" y1="200.0" x2="212.5" y2="211.2" stroke="#2e7d32" stroke-width="1"/>
<rect x="210.8" y="206.7" width="3.5" height="3.1" fill="#2e7d32"/>
<rect x="210.8" y="532.0" width="3.5" height="0.0" fill="#2e7d32" opacity="0.55"/>
<line x1="218.1" y1="201.4" x2="218.1" y2="210.5" stroke="#2e7d32" stroke-width="1"/>
<rect x="216.4" y="201.4" width="3.5" height="2.1" fill="#2e7d32"/>
<rect x="216.4" y="532.0" width="3.5" height="0.0" fill="#2e7d32" opacity="0.55"/>
<line x1="223.7" y1="201.4" x2="223.7" y2="206.3" stroke="#c62828" stroke-width="1"/>
<rect x="222.0" y="201.4" width="3.5" height="1.4" fill="#c62828"/>
<rect x="222.0" y="532.0" width="3.5" height="0.0" fill="#c62828" opacity="0.55"/>
<line x1="229.3" y1="188.8" x2="229.3" y2="206.3" stroke="#2e7d32" stroke-width="1"/>
<rect x="227.6" y="201.4" width="3.5" height="2.1" fill="#2e7d32"/>
<rect x="227.6" y="532.0" width="3.5" height="0.0" fill="#2e7d32" opacity="0.55"/>
<line x1="234.9" y1="186.7" x2="234.9" y2="201.4" stroke="#2e7d32" stroke-width="1"/>
<rect x="233.2" y="186.9" width="3.5" height="14.5" fill="#2e7d32"/>
<rect x="233.2" y="532.0" width="3.5" height="0.0" fill="#2e7d32" opacity="0.55"/>
<line x1="240.5" y1="186.7" x2="240.5" y2="199.3" stroke="#c62828" stroke-width="1"/>
<rect x="238.8" y="188.1" width="3.5" height="11.2" fill="#c62828"/>
<rect x="238.8" y="532.0" width="3.5" height="0.0" fill="#c62828" opacity="0.55"/>
<line x1="246.1" y1="196.5" x2="246.1" y2="204.9" stroke="#c62828" stroke-width="1"/>
<rect x="244.4" y="199.4" width="3.5" height="1.0" fill="#c62828"/>
<rect x="244.4" y="532.0" width="3.5" height="0.0" fill="#c62828" opacity="0.55"/>
<line x1="251.7" y1="198.6" x2="251.7" y2="206.3" stroke="#c62828" stroke-width="1"/>
<rect x="250.0" y="200.1" width="3.5" height="4.9" fill="#c62828"/>
<rect x="250.0" y="532.0" width="3.5" height="0.0" fill="#c62828" opacity="0.55"/>
<line x1="257.4" y1="192.3" x2="257.4" y2="204.9" stroke="#2e7d32" stroke-width="1"/>
<rect x="255.6" y="200.0" width="3.5" height="1.0" fill="#2e7d32"/>
<rect x="255.6" y="532.0" width="3.5" height="0.0" fill="#2e7d32" opacity="0.55"/>
<line x1="263.0" y1="195.8" x2="263.0" y2="202.8" stroke="#c62828" stroke-width="1"/>
<rect x="261.2" y="195.8" width="3.5" height="1.2" fill="#c62828"/>
<rect x="261.2" y="532.0" width="3.5" height="0.0" fill="#c62828" opacity="0.55"/>
<line x1="268.6" y1="195.8" x2="268.6" y2="202.8" stroke="#2e7d32" stroke-width="1"/>
<rect x="266.8" y="197.2" width="3.5" height="1.4" fill="#2e7d32"/>
<rect x="266.8" y="532.0" width="3.5" height="0.0" fill="#2e7d32" opacity="0.55"/>
<line x1="274.2" y1="176.2" x2="274.2" y2="204.9" stroke="#2e7d32" stroke-width="1"/>
<rect x="272.4" y="188.8" width="3.5" height="16.1" fill="#2e7d32"/>
<rect x="272.4" y="532.0" width="3.5" height="0.0" fill="#2e7d32" opacity="0.55"/>
<line x1="279.8" y1="174.8" x2="279.8" y2="208.1" stroke="#2e7d32" stroke-width="1"/>
<rect x="278.0" y="177.6" width="3.5" height="11.2" fill="#2e7d32"/>
<rect x="278.0" y="412.0" width="3.5" height="120.0" fill="#2e7d32" opacity="0.55"/>
<line x1="285.4" y1="153.8" x2="285.4" y2="192.3" stroke="#c62828" stroke-width="1"/>
<rect x="283.6" y="180.4" width="3.5" height="9.5" fill="#c62828"/>
<rect x="283.6" y="529.4" width="3.5" height="2.6" fill="#c62828" opacity="0.55"/>
<line x1="291.0" y1="189.5" x2="291.0" y2="202.1" stroke="#c62828" stroke-width="1"/>
<rect x="289.2" y="189.5" width="3.5" height="7.4" fill="#c62828"/>
<rect x="289.2" y="530.5" width="3.5" height="1.5" fill="#c62828" opacity="0.55"/>
<line x1="296.6" y1="183.9" x2="296.6" y2="194.4" stroke="#c62828" stroke-width="1"/>
<rect x="294.8" y="192.3" width="3.5" height="2.1" fill="#c62828"/>
<rect x="294.8" y="531.5" width="3.5" height="0.5" fill="#c62828" opacity="0.55"/>
<line x1="302.2" y1="171.3" x2="302.2" y2="198.8" stroke="#2e7d32" stroke-width="1"/>
<rect x="300.4" y="184.6" width="3.5" height="14.2" fill="#2e7d32"/>
<rect x="300.4" y="530.8" width="3.5" height="1.2" fill="#2e7d32" opacity="0.55"/>
<line x1="307.8" y1="148.2" x2="307.8" y2="184.6" stroke="#2e7d32" stroke-width="1"/>
<rect x="306.1" y="161.5" width="3.5" height="22.4" fill="#2e7d32"/>
<rect x="306.1" y="528.0" width="3.5" height="4.0" fill="#2e7d32" opacity="0.55"/>
<line x1="313.4" y1="157.3" x2="313.4" y2="182.5" stroke="#c62828" stroke-width="1"/>
<rect x="311.7" y="162.2" width="3.5" height="7.4" fill="#c62828"/>
<rect x="311.7" y="529.7" width="3.5" height="2.3" fill="#c62828" opacity="0.55"/>
<line x1="319.0" y1="108.3" x2="319.0" y2="174.8" stroke="#2e7d32" stroke-width="1"/>
<rect x="317.3" y="151.0" width="3.5" height="18.9" fill="#2e7d32"/>
<rect x="317.3" y="517.7" width="3.5" height="14.3" fill="#2e7d32" opacity="0.55"/>
<line x1="324.6" y1="144.3" x2="324.6" y2="167.8" stroke="#c62828" stroke-width="1"/>
<rect x="322.9" y="151.3" width="3.5" height="5.6" fill="#c62828"/>
<rect x="322.9" y="526.0" width="3.5" height="6.0" fill="#c62828" opacity="0.55"/>
<line x1="330.2" y1="152.4" x2="330.2" y2="167.8" stroke="#c62828" stroke-width="1"/>
<rect x="328.5" y="155.9" width="3.5" height="8.4" fill="#c62828"/>
<rect x="328.5" y="530.2" width="3.5" height="1.8" fill="#c62828" opacity="0.55"/>
<line x1="335.8" y1="158.8" x2="335.8" y2="195.8" stroke="#c62828" stroke-width="1"/>
<rect x="334.1" y="158.8" width="3.5" height="10.8" fill="#c62828"/>
<rect x="334.1" y="528.8" width="3.5" height="3.2" fill="#c62828" opacity="0.55"/>
<line x1="341.4" y1="167.1" x2="341.4" y2="205.6" stroke="#c62828" stroke-width="1"/>
<rect x="339.7" y="171.6" width="3.5" height="29.2" fill="#c62828"/>
<rect x="339.7" y="529.9" width="3.5" height="2.1" fill="#c62828" opacity="0.55"/>
<line x1="347.0" y1="199.3" x2="347.0" y2="216.1" stroke="#2e7d32" stroke-width="1"/>
<rect x="345.3" y="200.4" width="3.5" height="1.0" fill="#2e7d32"/>
<rect x="345.3" y="530.7" width="3.5" height="1.3" fill="#2e7d32" opacity="0.55"/>
<line x1="352.6" y1="193.7" x2="352.6" y2="201.4" stroke="#2e7d32" stroke-width="1"/>
<rect x="350.9" y="194.4" width="3.5" height="4.3" fill="#2e7d32"/>
<rect x="350.9" y="531.5" width="3.5" height="0.5" fill="#2e7d32" opacity="0.55"/>
<line x1="358.2" y1="195.8" x2="358.2" y2="201.4" stroke="#c62828" stroke-width="1"/>
<rect x="356.5" y="195.8" width="3.5" height="5.6" fill="#c62828"/>
<rect x="356.5" y="531.7" width="3.5" height="0.3" fill="#c62828" opacity="0.55"/>
<line x1="363.8" y1="184.0" x2="363.8" y2="197.9" stroke="#2e7d32" stroke-width="1"/>
<rect x="362.1" y="195.8" width="3.5" height="1.4" fill="#2e7d32"/>
<rect x="362.1" y="531.3" width="3.5" height="0.7" fill="#2e7d32" opacity="0.55"/>
<line x1="369.4" y1="193.7" x2="369.4" y2="204.9" stroke="#c62828" stroke-width="1"/>
<rect x="367.7" y="197.4" width="3.5" height="6.1" fill="#c62828"/>
<rect x="367.7" y="531.7" width="3.5" height="0.3" fill="#c62828" opacity="0.55"/>
<line x1="375.0" y1="189.5" x2="375.0" y2="207.0" stroke="#c62828" stroke-width="1"/>
<rect x="373.3" y="202.8" width="3.5" height="4.2" fill="#c62828"/>
<rect x="373.3" y="531.2" width="3.5" height="0.8" fill="#c62828" opacity="0.55"/>
<line x1="380.6" y1="205.3" x2="380.6" y2="235.8" stroke="#c62828" stroke-width="1"/>
<rect x="378.9" y="206.3" width="3.5" height="28.0" fill="#c62828"/>
<rect x="378.9" y="530.4" width="3.5" height="1.6" fill="#c62828" opacity="0.55"/>
<line x1="386.3" y1="230.9" x2="386.3" y2="246.3" stroke="#c62828" stroke-width="1"/>
<rect x="384.5" y="230.9" width="3.5" height="11.2" fill="#c62828"/>
<rect x="384.5" y="530.6" width="3.5" height="1.4" fill="#c62828" opacity="0.55"/>
<line x1="391.9" y1="224.6" x2="391.9" y2="247.0" stroke="#c62828" stroke-width="1"/>
<rect x="390.1" y="242.1" width="3.5" height="4.9" fill="#c62828"/>
<rect x="390.1" y="531.3" width="3.5" height="0.7" fill="#c62828" opacity="0.55"/>
<line x1="397.5" y1="237.9" x2="397.5" y2="265.4" stroke="#2e7d32" stroke-width="1"/>
<rect x="395.7" y="247.7" width="3.5" height="1.0" fill="#2e7d32"/>
<rect x="395.7" y="530.8" width="3.5" height="1.2" fill="#2e7d32" opacity="0.55"/>
<line x1="403.1" y1="243.1" x2="403.1" y2="271.5" stroke="#c62828" stroke-width="1"/>
<rect x="401.3" y="244.5" width="3.5" height="26.3" fill="#c62828"/>
<rect x="401.3" y="531.1" width="3.5" height="0.9" fill="#c62828" opacity="0.55"/>
<line x1="408.7" y1="264.1" x2="408.7" y2="297.4" stroke="#c62828" stroke-width="1"/>
<rect x="406.9" y="268.7" width="3.5" height="21.5" fill="#c62828"/>
<rect x="406.9" y="530.1" width="3.5" height="1.9" fill="#c62828" opacity="0.55"/>
<line x1="414.3" y1="286.6" x2="414.3" y2="295.3" stroke="#2e7d32" stroke-width="1"/>
<rect x="412.5" y="290.4" width="3.5" height="1.1" fill="#2e7d32"/>
<rect x="412.5" y="531.5" width="3.5" height="0.5" fill="#2e7d32" opacity="0.55"/>
<line x1="419.9" y1="284.8" x2="419.9" y2="292.5" stroke="#c62828" stroke-width="1"/>
<rect x="418.1" y="284.8" width="3.5" height="6.0" fill="#c62828"/>
<rect x="418.1" y="531.8" width="3.5" height="0.2" fill="#c62828" opacity="0.55"/>
<line x1="425.5" y1="284.8" x2="425.5" y2="289.7" stroke="#c62828" stroke-width="1"/>
<rect x="423.7" y="288.7" width="3.5" height="1.1" fill="#c62828"/>
<rect x="423.7" y="531.7" width="3.5" height="0.3" fill="#c62828" opacity="0.55"/>
<line x1="431.1" y1="286.2" x2="431.1" y2="296.1" stroke="#c62828" stroke-width="1"/>
<rect x="429.4" y="288.3" width="3.5" height="7.0" fill="#c62828"/>
<rect x="429.4" y="531.5" width="3.5" height="0.5" fill="#c62828" opacity="0.55"/>
<line x1="436.7" y1="277.8" x2="436.7" y2="293.9" stroke="#2e7d32" stroke-width="1"/>
<rect x="435.0" y="278.9" width="3.5" height="14.3" fill="#2e7d32"/>
<rect x="435.0" y="531.7" width="3.5" height="0.3" fill="#2e7d32" opacity="0.55"/>
<line x1="442.3" y1="277.8" x2="442.3" y2="291.8" stroke="#c62828" stroke-width="1"/>
<rect x="440.6" y="279.9" width="3.5" height="10.5" fill="#c62828"/>
<rect x="440.6" y="531.7" width="3.5" height="0.3" fill="#c62828" opacity="0.55"/>
<line x1="447.9" y1="284.8" x2="447.9" y2="290.3" stroke="#2e7d32" stroke-width="1"/>
<rect x="446.2" y="284.8" width="3.5" height="5.5" fill="#2e7d32"/>
<rect x="446.2" y="531.9" width="3.5" height="0.1" fill="#2e7d32" opacity="0.55"/>
<line x1="453.5" y1="286.9" x2="453.5" y2="289.7" stroke="#c62828" stroke-width="1"/>
<rect x="451.8" y="287.6" width="3.5" height="1.0" fill="#c62828"/>
<rect x="451.8" y="531.9" width="3.5" height="0.1" fill="#c62828" opacity="0.55"/>
<line x1="459.1" y1="287.6" x2="459.1" y2="291.1" stroke="#c62828" stroke-width="1"/>
<rect x="457.4" y="288.3" width="3.5" height="2.1" fill="#c62828"/>
<rect x="457.4" y="531.8" width="3.5" height="0.2" fill="#c62828" opacity="0.55"/>
<line x1="464.7" y1="289.0" x2="464.7" y2="324.0" stroke="#c62828" stroke-width="1"/>
<rect x="463.0" y="289.0" width="3.5" height="28.0" fill="#c62828"/>
<rect x="463.0" y="530.5" width="3.5" height="1.5" fill="#c62828" opacity="0.55"/>
<line x1="470.3" y1="304.7" x2="470.3" y2="311.4" stroke="#c62828" stroke-width="1"/>
<rect x="468.6" y="304.7" width="3.5" height="4.5" fill="#c62828"/>
<rect x="468.6" y="531.9" width="3.5" height="0.1" fill="#c62828" opacity="0.55"/>
<line x1="475.9" y1="301.6" x2="475.9" y2="307.9" stroke="#c62828" stroke-width="1"/>
<rect x="474.2" y="301.6" width="3.5" height="6.3" fill="#c62828"/>
<rect x="474.2" y="531.9" width="3.5" height="0.1" fill="#c62828" opacity="0.55"/>
<line x1="481.5" y1="299.5" x2="481.5" y2="307.2" stroke="#c62828" stroke-width="1"/>
<rect x="479.8" y="303.7" width="3.5" height="1.0" fill="#c62828"/>
<rect x="479.8" y="531.8" width="3.5" height="0.2" fill="#c62828" opacity="0.55"/>
<line x1="487.1" y1="302.3" x2="487.1" y2="306.5" stroke="#2e7d32" stroke-width="1"/>
<rect x="485.4" y="305.8" width="3.5" height="1.0" fill="#2e7d32"/>
<rect x="485.4" y="531.9" width="3.5" height="0.1" fill="#2e7d32" opacity="0.55"/>
<line x1="492.7" y1="303.4" x2="492.7" y2="304.7" stroke="#2e7d32" stroke-width="1"/>
<rect x="491.0" y="303.4" width="3.5" height="1.3" fill="#2e7d32"/>
<rect x="491.0" y="532.0" width="3.5" height="0.0" fill="#2e7d32" opacity="0.55"/>
<line x1="498.3" y1="301.6" x2="498.3" y2="305.1" stroke="#c62828" stroke-width="1"/>
<rect x="496.6" y="301.6" width="3.5" height="2.8" fill="#c62828"/>
<rect x="496.6" y="531.9" width="3.5" height="0.1" fill="#c62828" opacity="0.55"/>
<line x1="503.9" y1="297.4" x2="503.9" y2="304.4" stroke="#2e7d32" stroke-width="1"/>
<rect x="502.2" y="297.4" width="3.5" height="7.0" fill="#2e7d32"/>
<rect x="502.2" y="531.9" width="3.5" height="0.1" fill="#2e7d32" opacity="0.55"/>
<line x1="509.5" y1="293.9" x2="509.5" y2="300.9" stroke="#2e7d32" stroke-width="1"/>
<rect x="507.8" y="293.9" width="3.5" height="4.9" fill="#2e7d32"/>
<rect x="507.8" y="531.9" width="3.5" height="0.1" fill="#2e7d32" opacity="0.55"/>
<line x1="515.2" y1="293.9" x2="515.2" y2="296.0" stroke="#c62828" stroke-width="1"/>
<rect x="513.4" y="295.7" width="3.5" height="1.0" fill="#c62828"/>
<rect x="513.4" y="531.9" width="3.5" height="0.1" fill="#c62828" opacity="0.55"/>
<line x1="520.8" y1="301.6" x2="520.8" y2="301.6" stroke="#2e7d32" stroke-width="1"/>
<rect x="519.0" y="301.6" width="3.5" height="1.0" fill="#2e7d32"/>
<rect x="519.0" y="531.9" width="3.5" height="0.1" fill="#2e7d32" opacity="0.55"/>
<line x1="526.4" y1="302.4" x2="526.4" y2="321.2" stroke="#c62828" stroke-width="1"/>
<rect x="524.6" y="303.0" width="3.5" height="11.9" fill="#c62828"/>
<rect x="524.6" y="531.2" width="3.5" height="0.8" fill="#c62828" opacity="0.55"/>
<line x1="532.0" y1="308.0" x2="532.0" y2="314.9" stroke="#c62828" stroke-width="1"/>
<rect x="530.2" y="312.1" width="3.5" height="2.1" fill="#c62828"/>
<rect x="530.2" y="531.9" width="3.5" height="0.1" fill="#c62828" opacity="0.55"/>
<line x1="537.6" y1="308.3" x2="537.6" y2="313.5" stroke="#2e7d32" stroke-width="1"/>
<rect x="535.8" y="312.8" width="3.5" height="1.0" fill="#2e7d32"/>
<rect x="535.8" y="532.0" width="3.5" height="0.0" fill="#2e7d32" opacity="0.55"/>
<line x1="543.2" y1="304.0" x2="543.2" y2="312.1" stroke="#2e7d32" stroke-width="1"/>
<rect x="541.4" y="304.0" width="3.5" height="8.1" fill="#2e7d32"/>
<rect x="541.4" y="532.0" width="3.5" height="0.0" fill="#2e7d32" opacity="0.55"/>
<line x1="548.8" y1="310.7" x2="548.8" y2="339.4" stroke="#c62828" stroke-width="1"/>
<rect x="547.0" y="310.7" width="3.5" height="26.6" fill="#c62828"/>
<rect x="547.0" y="531.1" width="3.5" height="0.9" fill="#c62828" opacity="0.55"/>
<line x1="554.4" y1="319.8" x2="554.4" y2="337.3" stroke="#2e7d32" stroke-width="1"/>
<rect x="552.6" y="324.7" width="3.5" height="2.1" fill="#2e7d32"/>
<rect x="552.6" y="531.5" width="3.5" height="0.5" fill="#2e7d32" opacity="0.55"/>
<line x1="560.0" y1="319.8" x2="560.0" y2="329.3" stroke="#c62828" stroke-width="1"/>
<rect x="558.3" y="320.5" width="3.5" height="4.6" fill="#c62828"/>
<rect x="558.3" y="531.9" width="3.5" height="0.1" fill="#c62828" opacity="0.55"/>
<line x1="565.6" y1="315.6" x2="565.6" y2="326.4" stroke="#2e7d32" stroke-width="1"/>
<rect x="563.9" y="321.2" width="3.5" height="1.0" fill="#2e7d32"/>
<rect x="563.9" y="531.9" width="3.5" height="0.1" fill="#2e7d32" opacity="0.55"/>
<line x1="571.2" y1="314.6" x2="571.2" y2="350.0" stroke="#c62828" stroke-width="1"/>
<rect x="569.5" y="322.6" width="3.5" height="27.3" fill="#c62828"/>
<rect x="569.5" y="531.2" width="3.5" height="0.8" fill="#c62828" opacity="0.55"/>
<line x1="576.8" y1="350.0" x2="576.8" y2="350.0" stroke="#2e7d32" stroke-width="1"/>
<rect x="575.1" y="350.0" width="3.5" height="1.0" fill="#2e7d32"/>
<rect x="575.1" y="532.0" width="3.5" height="0.0" fill="#2e7d32" opacity="0.55"/>
<line x1="582.4" y1="342.1" x2="582.4" y2="372.4" stroke="#c62828" stroke-width="1"/>
<rect x="580.7" y="357.0" width="3.5" height="6.3" fill="#c62828"/>
<rect x="580.7" y="530.5" width="3.5" height="1.5" fill="#c62828" opacity="0.55"/>
<line x1="588.0" y1="352.1" x2="588.0" y2="367.5" stroke="#2e7d32" stroke-width="1"/>
<rect x="586.3" y="355.9" width="3.5" height="8.8" fill="#2e7d32"/>
<rect x="586.3" y="531.7" width="3.5" height="0.3" fill="#2e7d32" opacity="0.55"/>
<line x1="593.6" y1="341.6" x2="593.6" y2="357.0" stroke="#2e7d32" stroke-width="1"/>
<rect x="591.9" y="347.2" width="3.5" height="7.8" fill="#2e7d32"/>
<rect x="591.9" y="531.7" width="3.5" height="0.3" fill="#2e7d32" opacity="0.55"/>
<line x1="599.2" y1="347.2" x2="599.2" y2="352.8" stroke="#c62828" stroke-width="1"/>
<rect x="597.5" y="347.2" width="3.5" height="4.5" fill="#c62828"/>
<rect x="597.5" y="531.7" width="3.5" height="0.3" fill="#c62828" opacity="0.55"/>
<line x1="604.8" y1="347.9" x2="604.8" y2="354.8" stroke="#c62828" stroke-width="1"/>
<rect x="603.1" y="347.9" width="3.5" height="1.0" fill="#c62828"/>
<rect x="603.1" y="531.9" width="3.5" height="0.1" fill="#c62828" opacity="0.55"/>
<line x1="610.4" y1="348.9" x2="610.4" y2="357.0" stroke="#c62828" stroke-width="1"/>
<rect x="608.7" y="348.9" width="3.5" height="4.2" fill="#c62828"/>
<rect x="608.7" y="531.9" width="3.5" height="0.1" fill="#c62828" opacity="0.55"/>
<line x1="616.0" y1="341.6" x2="616.0" y2="350.0" stroke="#2e7d32" stroke-width="1"/>
<rect x="614.3" y="343.0" width="3.5" height="5.6" fill="#2e7d32"/>
<rect x="614.3" y="531.8" width="3.5" height="0.2" fill="#2e7d32" opacity="0.55"/>
<line x1="621.6" y1="343.0" x2="621.6" y2="350.0" stroke="#c62828" stroke-width="1"/>
<rect x="619.9" y="343.0" width="3.5" height="7.0" fill="#c62828"/>
<rect x="619.9" y="531.7" width="3.5" height="0.3" fill="#c62828" opacity="0.55"/>
<line x1="627.2" y1="350.0" x2="627.2" y2="353.5" stroke="#c62828" stroke-width="1"/>
<rect x="625.5" y="350.7" width="3.5" height="1.0" fill="#c62828"/>
<rect x="625.5" y="531.7" width="3.5" height="0.3" fill="#c62828" opacity="0.55"/>
<line x1="632.8" y1="350.0" x2="632.8" y2="366.8" stroke="#c62828" stroke-width="1"/>
<rect x="631.1" y="354.5" width="3.5" height="8.1" fill="#c62828"/>
<rect x="631.1" y="531.7" width="3.5" height="0.3" fill="#c62828" opacity="0.55"/>
<line x1="638.5" y1="366.8" x2="638.5" y2="384.3" stroke="#c62828" stroke-width="1"/>
<rect x="636.7" y="366.8" width="3.5" height="7.0" fill="#c62828"/>
<rect x="636.7" y="531.1" width="3.5" height="0.9" fill="#c62828" opacity="0.55"/>
<line x1="644.1" y1="373.4" x2="644.1" y2="382.9" stroke="#c62828" stroke-width="1"/>
<rect x="642.3" y="373.4" width="3.5" height="2.8" fill="#c62828"/>
<rect x="642.3" y="531.6" width="3.5" height="0.4" fill="#c62828" opacity="0.55"/>
<line x1="649.7" y1="365.0" x2="649.7" y2="371.7" stroke="#c62828" stroke-width="1"/>
<rect x="647.9" y="365.0" width="3.5" height="2.5" fill="#c62828"/>
<rect x="647.9" y="531.9" width="3.5" height="0.1" fill="#c62828" opacity="0.55"/>
<line x1="655.3" y1="350.7" x2="655.3" y2="365.4" stroke="#2e7d32" stroke-width="1"/>
<rect x="653.5" y="357.0" width="3.5" height="8.4" fill="#2e7d32"/>
<rect x="653.5" y="531.8" width="3.5" height="0.2" fill="#2e7d32" opacity="0.55"/>
<line x1="660.9" y1="354.6" x2="660.9" y2="359.4" stroke="#c62828" stroke-width="1"/>
<rect x="659.1" y="354.6" width="3.5" height="3.7" fill="#c62828"/>
<rect x="659.1" y="531.8" width="3.5" height="0.2" fill="#c62828" opacity="0.55"/>
<line x1="666.5" y1="352.8" x2="666.5" y2="357.3" stroke="#c62828" stroke-width="1"/>
<rect x="664.7" y="352.8" width="3.5" height="4.6" fill="#c62828"/>
<rect x="664.7" y="531.9" width="3.5" height="0.1" fill="#c62828" opacity="0.55"/>
<line x1="672.1" y1="354.9" x2="672.1" y2="359.8" stroke="#2e7d32" stroke-width="1"/>
<rect x="670.3" y="359.1" width="3.5" height="1.0" fill="#2e7d32"/>
<rect x="670.3" y="531.8" width="3.5" height="0.2" fill="#2e7d32" opacity="0.55"/>
<line x1="677.7" y1="339.4" x2="677.7" y2="357.0" stroke="#2e7d32" stroke-width="1"/>
<rect x="675.9" y="339.4" width="3.5" height="17.5" fill="#2e7d32"/>
<rect x="675.9" y="531.8" width="3.5" height="0.2" fill="#2e7d32" opacity="0.55"/>
<line x1="683.3" y1="339.4" x2="683.3" y2="346.8" stroke="#c62828" stroke-width="1"/>
<rect x="681.5" y="340.8" width="3.5" height="2.1" fill="#c62828"/>
<rect x="681.5" y="531.9" width="3.5" height="0.1" fill="#c62828" opacity="0.55"/>
<line x1="688.9" y1="333.9" x2="688.9" y2="346.5" stroke="#2e7d32" stroke-width="1"/>
<rect x="687.2" y="335.9" width="3.5" height="3.5" fill="#2e7d32"/>
<rect x="687.2" y="531.7" width="3.5" height="0.3" fill="#2e7d32" opacity="0.55"/>
<line x1="694.5" y1="336.0" x2="694.5" y2="355.6" stroke="#c62828" stroke-width="1"/>
<rect x="692.8" y="336.0" width="3.5" height="11.2" fill="#c62828"/>
<rect x="692.8" y="531.5" width="3.5" height="0.5" fill="#c62828" opacity="0.55"/>
<line x1="700.1" y1="336.6" x2="700.1" y2="356.3" stroke="#c62828" stroke-width="1"/>
<rect x="698.4" y="341.6" width="3.5" height="11.9" fill="#c62828"/>
<rect x="698.4" y="531.8" width="3.5" height="0.2" fill="#c62828" opacity="0.55"/>
<line x1="705.7" y1="339.4" x2="705.7" y2="350.0" stroke="#c62828" stroke-width="1"/>
<rect x="704.0" y="343.0" width="3.5" height="1.4" fill="#c62828"/>
<rect x="704.0" y="531.6" width="3.5" height="0.4" fill="#c62828" opacity="0.55"/>
<line x1="711.3" y1="338.7" x2="711.3" y2="356.3" stroke="#2e7d32" stroke-width="1"/>
<rect x="709.6" y="343.7" width="3.5" height="1.0" fill="#2e7d32"/>
<rect x="709.6" y="532.0" width="3.5" height="0.0" fill="#2e7d32" opacity="0.55"/>
<line x1="716.9" y1="345.0" x2="716.9" y2="351.4" stroke="#c62828" stroke-width="1"/>
<rect x="715.2" y="345.0" width="3.5" height="5.8" fill="#c62828"/>
<rect x="715.2" y="532.0" width="3.5" height="0.0" fill="#c62828" opacity="0.55"/>
<line x1="722.5" y1="343.7" x2="722.5" y2="356.3" stroke="#c62828" stroke-width="1"/>
<rect x="720.8" y="351.4" width="3.5" height="3.7" fill="#c62828"/>
<rect x="720.8" y="532.0" width="3.5" height="0.0" fill="#c62828" opacity="0.55"/>
<line x1="728.1" y1="347.9" x2="728.1" y2="356.3" stroke="#2e7d32" stroke-width="1"/>
<rect x="726.4" y="356.1" width="3.5" height="1.0" fill="#2e7d32"/>
<rect x="726.4" y="532.0" width="3.5" height="0.0" fill="#2e7d32" opacity="0.55"/>
<line x1="733.7" y1="350.7" x2="733.7" y2="356.3" stroke="#2e7d32" stroke-width="1"/>
<rect x="732.0" y="353.5" width="3.5" height="2.8" fill="#2e7d32"/>
<rect x="732.0" y="532.0" width="3.5" height="0.0" fill="#2e7d32" opacity="0.55"/>
<line x1="739.3" y1="350.7" x2="739.3" y2="353.5" stroke="#2e7d32" stroke-width="1"/>
<rect x="737.6" y="350.7" width="3.5" height="2.8" fill="#2e7d32"/>
<rect x="737.6" y="532.0" width="3.5" height="0.0" fill="#2e7d32" opacity="0.55"/>
<line x1="744.9" y1="350.7" x2="744.9" y2="353.5" stroke="#2e7d32" stroke-width="1"/>
<rect x="743.2" y="352.8" width="3.5" height="1.0" fill="#2e7d32"/>
<rect x="743.2" y="532.0" width="3.5" height="0.0" fill="#2e7d32" opacity="0.55"/>
<line x1="750.5" y1="351.4" x2="750.5" y2="353.5" stroke="#2e7d32" stroke-width="1"/>
<rect x="748.8" y="351.4" width="3.5" height="1.0" fill="#2e7d32"/>
<rect x="748.8" y="532.0" width="3.5" height="0.0" fill="#2e7d32" opacity="0.55"/>
<line x1="756.1" y1="343.7" x2="756.1" y2="351.3" stroke="#2e7d32" stroke-width="1"/>
<rect x="754.4" y="344.4" width="3.5" height="6.9" fill="#2e7d32"/>
<rect x="754.4" y="532.0" width="3.5" height="0.0" fill="#2e7d32" opacity="0.55"/>
<line x1="761.7" y1="344.4" x2="761.7" y2="351.4" stroke="#c62828" stroke-width="1"/>
<rect x="760.0" y="348.6" width="3.5" height="1.4" fill="#c62828"/>
<rect x="760.0" y="532.0" width="3.5" height="0.0" fill="#c62828" opacity="0.55"/>
<line x1="767.4" y1="345.1" x2="767.4" y2="350.0" stroke="#c62828" stroke-width="1"/>
<rect x="765.6" y="345.8" width="3.5" height="4.2" fill="#c62828"/>
<rect x="765.6" y="532.0" width="3.5" height="0.0" fill="#c62828" opacity="0.55"/>
<line x1="773.0" y1="342.3" x2="773.0" y2="350.0" stroke="#c62828" stroke-width="1"/>
<rect x="771.2" y="345.8" width="3.5" height="4.2" fill="#c62828"/>
<rect x="771.2" y="532.0" width="3.5" height="0.0" fill="#c62828" opacity="0.55"/>
<line x1="778.6" y1="335.9" x2="778.6" y2="347.9" stroke="#c62828" stroke-width="1"/>
<rect x="776.8" y="336.6" width="3.5" height="6.3" fill="#c62828"/>
<rect x="776.8" y="532.0" width="3.5" height="0.0" fill="#c62828" opacity="0.55"/>
<line x1="784.2" y1="337.4" x2="784.2" y2="345.8" stroke="#c62828" stroke-width="1"/>
<rect x="782.4" y="338.7" width="3.5" height="7.1" fill="#c62828"/>
<rect x="782.4" y="532.0" width="3.5" height="0.0" fill="#c62828" opacity="0.55"/>
<line x1="789.8" y1="338.0" x2="789.8" y2="339.5" stroke="#2e7d32" stroke-width="1"/>
<rect x="788.0" y="338.0" width="3.5" height="1.5" fill="#2e7d32"/>
<rect x="788.0" y="532.0" width="3.5" height="0.0" fill="#2e7d32" opacity="0.55"/>
<line x1="795.4" y1="337.3" x2="795.4" y2="343.7" stroke="#c62828" stroke-width="1"/>
<rect x="793.6" y="338.0" width="3.5" height="1.4" fill="#c62828"/>
<rect x="793.6" y="532.0" width="3.5" height="0.0" fill="#c62828" opacity="0.55"/>
<line x1="801.0" y1="339.4" x2="801.0" y2="345.1" stroke="#c62828" stroke-width="1"/>
<rect x="799.2" y="339.4" width="3.5" height="1.4" fill="#c62828"/>
<rect x="799.2" y="532.0" width="3.5" height="0.0" fill="#c62828" opacity="0.55"/>
<line x1="806.6" y1="343.7" x2="806.6" y2="347.9" stroke="#c62828" stroke-width="1"/>
<rect x="804.8" y="343.7" width="3.5" height="4.2" fill="#c62828"/>
<rect x="804.8" y="532.0" width="3.5" height="0.0" fill="#c62828" opacity="0.55"/>
<line x1="812.2" y1="340.1" x2="812.2" y2="347.9" stroke="#2e7d32" stroke-width="1"/>
<rect x="810.4" y="340.1" width="3.5" height="3.5" fill="#2e7d32"/>
<rect x="810.4" y="532.0" width="3.5" height="0.0" fill="#2e7d32" opacity="0.55"/>
<line x1="817.8" y1="341.6" x2="817.8" y2="343.7" stroke="#c62828" stroke-width="1"/>
<rect x="816.1" y="341.6" width="3.5" height="2.1" fill="#c62828"/>
<rect x="816.1" y="532.0" width="3.5" height="0.0" fill="#c62828" opacity="0.55"/>
<line x1="823.4" y1="322.6" x2="823.4" y2="343.0" stroke="#2e7d32" stroke-width="1"/>
<rect x="821.7" y="333.1" width="3.5" height="9.8" fill="#2e7d32"/>
<rect x="821.7" y="532.0" width="3.5" height="0.0" fill="#2e7d32" opacity="0.55"/>
<line x1="829.0" y1="326.9" x2="829.0" y2="336.0" stroke="#c62828" stroke-width="1"/>
<rect x="827.3" y="326.9" width="3.5" height="9.1" fill="#c62828"/>
<rect x="827.3" y="532.0" width="3.5" height="0.0" fill="#c62828" opacity="0.55"/>
<line x1="834.6" y1="314.9" x2="834.6" y2="336.6" stroke="#2e7d32" stroke-width="1"/>
<rect x="832.9" y="321.2" width="3.5" height="15.4" fill="#2e7d32"/>
<rect x="832.9" y="532.0" width="3.5" height="0.0" fill="#2e7d32" opacity="0.55"/>
<line x1="840.2" y1="232.3" x2="840.2" y2="319.1" stroke="#2e7d32" stroke-width="1"/>
<rect x="838.5" y="249.8" width="3.5" height="69.4" fill="#2e7d32"/>
<rect x="838.5" y="532.0" width="3.5" height="0.0" fill="#2e7d32" opacity="0.55"/>
<line x1="845.8" y1="218.2" x2="845.8" y2="286.2" stroke="#c62828" stroke-width="1"/>
<rect x="844.1" y="249.1" width="3.5" height="28.7" fill="#c62828"/>
<rect x="844.1" y="532.0" width="3.5" height="0.0" fill="#c62828" opacity="0.55"/>
<line x1="851.4" y1="261.0" x2="851.4" y2="307.1" stroke="#c62828" stroke-width="1"/>
<rect x="849.7" y="278.4" width="3.5" height="1.0" fill="#c62828"/>
<rect x="849.7" y="532.0" width="3.5" height="0.0" fill="#c62828" opacity="0.55"/>
<line x1="857.0" y1="279.9" x2="857.0" y2="310.0" stroke="#c62828" stroke-width="1"/>
<rect x="855.3" y="279.9" width="3.5" height="27.3" fill="#c62828"/>
<rect x="855.3" y="532.0" width="3.5" height="0.0" fill="#c62828" opacity="0.55"/>
<line x1="862.6" y1="293.9" x2="862.6" y2="306.5" stroke="#2e7d32" stroke-width="1"/>
<rect x="860.9" y="302.2" width="3.5" height="3.6" fill="#2e7d32"/>
<rect x="860.9" y="532.0" width="3.5" height="0.0" fill="#2e7d32" opacity="0.55"/>
<line x1="868.2" y1="295.3" x2="868.2" y2="305.8" stroke="#c62828" stroke-width="1"/>
<rect x="866.5" y="302.3" width="3.5" height="2.1" fill="#c62828"/>
<rect x="866.5" y="532.0" width="3.5" height="0.0" fill="#c62828" opacity="0.55"/>
<line x1="873.8" y1="291.1" x2="873.8" y2="304.4" stroke="#2e7d32" stroke-width="1"/>
<rect x="872.1" y="298.1" width="3.5" height="3.5" fill="#2e7d32"/>
<rect x="872.1" y="532.0" width="3.5" height="0.0" fill="#2e7d32" opacity="0.55"/>
<line x1="879.4" y1="256.8" x2="879.4" y2="303.0" stroke="#2e7d32" stroke-width="1"/>
<rect x="877.7" y="274.3" width="3.5" height="23.8" fill="#2e7d32"/>
<rect x="877.7" y="532.0" width="3.5" height="0.0" fill="#2e7d32" opacity="0.55"/>
<line x1="885.0" y1="266.6" x2="885.0" y2="289.7" stroke="#c62828" stroke-width="1"/>
<rect x="883.3" y="273.5" width="3.5" height="4.3" fill="#c62828"/>
<rect x="883.3" y="532.0" width="3.5" height="0.0" fill="#c62828" opacity="0.55"/>
<line x1="890.6" y1="256.8" x2="890.6" y2="279.2" stroke="#2e7d32" stroke-width="1"/>
<rect x="888.9" y="260.3" width="3.5" height="17.5" fill="#2e7d32"/>
<rect x="888.9" y="532.0" width="3.5" height="0.0" fill="#2e7d32" opacity="0.55"/>
<line x1="896.3" y1="260.3" x2="896.3" y2="282.7" stroke="#c62828" stroke-width="1"/>
<rect x="894.5" y="261.6" width="3.5" height="15.5" fill="#c62828"/>
<rect x="894.5" y="532.0" width="3.5" height="0.0" fill="#c62828" opacity="0.55"/>
<line x1="901.9" y1="275.7" x2="901.9" y2="289.0" stroke="#c62828" stroke-width="1"/>
<rect x="900.1" y="279.9" width="3.5" height="2.1" fill="#c62828"/>
<rect x="900.1" y="532.0" width="3.5" height="0.0" fill="#c62828" opacity="0.55"/>
<line x1="907.5" y1="280.6" x2="907.5" y2="296.0" stroke="#c62828" stroke-width="1"/>
<rect x="905.7" y="282.0" width="3.5" height="11.9" fill="#c62828"/>
<rect x="905.7" y="532.0" width="3.5" height="0.0" fill="#c62828" opacity="0.55"/>
<line x1="913.1" y1="284.1" x2="913.1" y2="294.2" stroke="#2e7d32" stroke-width="1"/>
<rect x="911.3" y="290.4" width="3.5" height="1.4" fill="#2e7d32"/>
<rect x="911.3" y="532.0" width="3.5" height="0.0" fill="#2e7d32" opacity="0.55"/>
<line x1="918.7" y1="286.9" x2="918.7" y2="298.1" stroke="#2e7d32" stroke-width="1"/>
<rect x="916.9" y="288.3" width="3.5" height="2.1" fill="#2e7d32"/>
<rect x="916.9" y="532.0" width="3.5" height="0.0" fill="#2e7d32" opacity="0.55"/>
<line x1="924.3" y1="288.3" x2="924.3" y2="297.4" stroke="#c62828" stroke-width="1"/>
<rect x="922.5" y="290.1" width="3.5" height="5.9" fill="#c62828"/>
<rect x="922.5" y="532.0" width="3.5" height="0.0" fill="#c62828" opacity="0.55"/>
<line x1="929.9" y1="291.1" x2="929.9" y2="296.0" stroke="#c62828" stroke-width="1"/>
<rect x="928.1" y="294.9" width="3.5" height="1.1" fill="#c62828"/>
<rect x="928.1" y="532.0" width="3.5" height="0.0" fill="#c62828" opacity="0.55"/>
<line x1="935.5" y1="290.4" x2="935.5" y2="297.4" stroke="#c62828" stroke-width="1"/>
<rect x="933.7" y="294.6" width="3.5" height="1.4" fill="#c62828"/>
<rect x="933.7" y="532.0" width="3.5" height="0.0" fill="#c62828" opacity="0.55"/>
<line x1="941.1" y1="293.9" x2="941.1" y2="303.7" stroke="#c62828" stroke-width="1"/>
<rect x="939.4" y="296.0" width="3.5" height="6.3" fill="#c62828"/>
<rect x="939.4" y="532.0" width="3.5" height="0.0" fill="#c62828" opacity="0.55"/>
<line x1="946.7" y1="297.4" x2="946.7" y2="302.3" stroke="#2e7d32" stroke-width="1"/>
<rect x="945.0" y="299.5" width="3.5" height="2.8" fill="#2e7d32"/>
<rect x="945.0" y="532.0" width="3.5" height="0.0" fill="#2e7d32" opacity="0.55"/>
<line x1="952.3" y1="300.9" x2="952.3" y2="305.1" stroke="#c62828" stroke-width="1"/>
<rect x="950.6" y="300.9" width="3.5" height="2.8" fill="#c62828"/>
<rect x="950.6" y="532.0" width="3.5" height="0.0" fill="#c62828" opacity="0.55"/>
<line x1="957.9" y1="301.6" x2="957.9" y2="306.5" stroke="#2e7d32" stroke-width="1"/>
<rect x="956.2" y="304.4" width="3.5" height="1.0" fill="#2e7d32"/>
<rect x="956.2" y="532.0" width="3.5" height="0.0" fill="#2e7d32" opacity="0.55"/>
<line x1="963.5" y1="298.8" x2="963.5" y2="305.8" stroke="#2e7d32" stroke-width="1"/>
<rect x="961.8" y="305.1" width="3.5" height="1.0" fill="#2e7d32"/>
<rect x="961.8" y="532.0" width="3.5" height="0.0" fill="#2e7d32" opacity="0.55"/>
<line x1="969.1" y1="300.9" x2="969.1" y2="307.9" stroke="#c62828" stroke-width="1"/>
<rect x="967.4" y="306.5" width="3.5" height="1.4" fill="#c62828"/>
<rect x="967.4" y="532.0" width="3.5" height="0.0" fill="#c62828" opacity="0.55"/>
<line x1="974.7" y1="303.7" x2="974.7" y2="310.7" stroke="#c62828" stroke-width="1"/>
<rect x="973.0" y="307.9" width="3.5" height="2.1" fill="#c62828"/>
<rect x="973.0" y="532.0" width="3.5" height="0.0" fill="#c62828" opacity="0.55"/>
<line x1="980.3" y1="127.9" x2="980.3" y2="291.8" stroke="#2e7d32" stroke-width="1"/>
<rect x="978.6" y="209.2" width="3.5" height="45.5" fill="#2e7d32"/>
<rect x="978.6" y="532.0" width="3.5" height="0.0" fill="#2e7d32" opacity="0.55"/>
<line x1="985.9" y1="156.6" x2="985.9" y2="288.3" stroke="#2e7d32" stroke-width="1"/>
<rect x="984.2" y="178.3" width="3.5" height="30.9" fill="#2e7d32"/>
<rect x="984.2" y="532.0" width="3.5" height="0.0" fill="#2e7d32" opacity="0.55"/>
<line x1="991.5" y1="165.7" x2="991.5" y2="205.6" stroke="#c62828" stroke-width="1"/>
<rect x="989.8" y="178.3" width="3.5" height="10.6" fill="#c62828"/>
<rect x="989.8" y="532.0" width="3.5" height="0.0" fill="#c62828" opacity="0.55"/>
<line x1="997.1" y1="173.5" x2="997.1" y2="217.4" stroke="#c62828" stroke-width="1"/>
<rect x="995.4" y="189.0" width="3.5" height="13.7" fill="#c62828"/>
<rect x="995.4" y="532.0" width="3.5" height="0.0" fill="#c62828" opacity="0.55"/>
<line x1="1002.7" y1="201.9" x2="1002.7" y2="233.0" stroke="#c62828" stroke-width="1"/>
<rect x="1001.0" y="201.9" width="3.5" height="28.9" fill="#c62828"/>
<rect x="1001.0" y="532.0" width="3.5" height="0.0" fill="#c62828" opacity="0.55"/>
<line x1="1008.3" y1="205.6" x2="1008.3" y2="230.9" stroke="#2e7d32" stroke-width="1"/>
<rect x="1006.6" y="219.1" width="3.5" height="11.7" fill="#2e7d32"/>
<rect x="1006.6" y="532.0" width="3.5" height="0.0" fill="#2e7d32" opacity="0.55"/>
<line x1="1013.9" y1="183.2" x2="1013.9" y2="223.9" stroke="#2e7d32" stroke-width="1"/>
<rect x="1012.2" y="194.1" width="3.5" height="25.6" fill="#2e7d32"/>
<rect x="1012.2" y="532.0" width="3.5" height="0.0" fill="#2e7d32" opacity="0.55"/>
<line x1="1019.5" y1="181.1" x2="1019.5" y2="209.1" stroke="#c62828" stroke-width="1"/>
<rect x="1017.8" y="193.0" width="3.5" height="14.7" fill="#c62828"/>
<rect x="1017.8" y="532.0" width="3.5" height="0.0" fill="#c62828" opacity="0.55"/>
<line x1="1025.2" y1="172.0" x2="1025.2" y2="208.4" stroke="#2e7d32" stroke-width="1"/>
<rect x="1023.4" y="184.9" width="3.5" height="23.5" fill="#2e7d32"/>
<rect x="1023.4" y="532.0" width="3.5" height="0.0" fill="#2e7d32" opacity="0.55"/>
<line x1="1030.8" y1="177.6" x2="1030.8" y2="195.8" stroke="#c62828" stroke-width="1"/>
<rect x="1029.0" y="185.7" width="3.5" height="5.8" fill="#c62828"/>
<rect x="1029.0" y="532.0" width="3.5" height="0.0" fill="#c62828" opacity="0.55"/>
<line x1="1036.4" y1="179.7" x2="1036.4" y2="209.8" stroke="#c62828" stroke-width="1"/>
<rect x="1034.6" y="190.9" width="3.5" height="18.4" fill="#c62828"/>
<rect x="1034.6" y="532.0" width="3.5" height="0.0" fill="#c62828" opacity="0.55"/>
<line x1="1042.0" y1="209.1" x2="1042.0" y2="218.9" stroke="#c62828" stroke-width="1"/>
<rect x="1040.2" y="209.8" width="3.5" height="4.4" fill="#c62828"/>
<rect x="1040.2" y="532.0" width="3.5" height="0.0" fill="#c62828" opacity="0.55"/>
<line x1="1047.6" y1="214.0" x2="1047.6" y2="223.9" stroke="#c62828" stroke-width="1"/>
<rect x="1045.8" y="214.7" width="3.5" height="2.1" fill="#c62828"/>
<rect x="1045.8" y="532.0" width="3.5" height="0.0" fill="#c62828" opacity="0.55"/>
<line x1="1053.2" y1="210.7" x2="1053.2" y2="223.9" stroke="#c62828" stroke-width="1"/>
<rect x="1051.4" y="217.5" width="3.5" height="5.0" fill="#c62828"/>
<rect x="1051.4" y="532.0" width="3.5" height="0.0" fill="#c62828" opacity="0.55"/>
<line x1="1058.8" y1="220.4" x2="1058.8" y2="249.8" stroke="#c62828" stroke-width="1"/>
<rect x="1057.0" y="221.1" width="3.5" height="28.0" fill="#c62828"/>
<rect x="1057.0" y="532.0" width="3.5" height="0.0" fill="#c62828" opacity="0.55"/>
<line x1="1064.4" y1="245.8" x2="1064.4" y2="260.3" stroke="#c62828" stroke-width="1"/>
<rect x="1062.6" y="249.1" width="3.5" height="5.4" fill="#c62828"/>
<rect x="1062.6" y="532.0" width="3.5" height="0.0" fill="#c62828" opacity="0.55"/>
<line x1="1070.0" y1="238.6" x2="1070.0" y2="265.9" stroke="#2e7d32" stroke-width="1"/>
<rect x="1068.3" y="240.7" width="3.5" height="14.0" fill="#2e7d32"/>
<rect x="1068.3" y="532.0" width="3.5" height="0.0" fill="#2e7d32" opacity="0.55"/>
<line x1="1075.6" y1="237.9" x2="1075.6" y2="256.1" stroke="#c62828" stroke-width="1"/>
<rect x="1073.9" y="240.7" width="3.5" height="12.4" fill="#c62828"/>
<rect x="1073.9" y="532.0" width="3.5" height="0.0" fill="#c62828" opacity="0.55"/>
<line x1="1081.2" y1="247.0" x2="1081.2" y2="247.0" stroke="#2e7d32" stroke-width="1"/>
<rect x="1079.5" y="247.0" width="3.5" height="1.0" fill="#2e7d32"/>
<rect x="1079.5" y="532.0" width="3.5" height="0.0" fill="#2e7d32" opacity="0.55"/>
<line x1="64" y1="532" x2="1084" y2="532" stroke="#ccc"/>
<text x="58" y="420" font-size="9" fill="#999" text-anchor="end">4.5M</text>
<line x1="66.8" y1="532" x2="66.8" y2="536" stroke="#999"/>
<text x="66.8" y="547.0" font-size="9" fill="#666" text-anchor="middle">07/06 04:00</text>
<line x1="234.9" y1="532" x2="234.9" y2="536" stroke="#999"/>
<text x="234.9" y="547.0" font-size="9" fill="#666" text-anchor="middle">08:50</text>
<line x1="403.1" y1="532" x2="403.1" y2="536" stroke="#999"/>
<text x="403.1" y="547.0" font-size="9" fill="#666" text-anchor="middle">11:20</text>
<line x1="571.2" y1="532" x2="571.2" y2="536" stroke="#999"/>
<text x="571.2" y="547.0" font-size="9" fill="#666" text-anchor="middle">13:50</text>
<line x1="739.3" y1="532" x2="739.3" y2="536" stroke="#999"/>
<text x="739.3" y="547.0" font-size="9" fill="#666" text-anchor="middle">16:25</text>
<line x1="907.5" y1="532" x2="907.5" y2="536" stroke="#999"/>
<text x="907.5" y="547.0" font-size="9" fill="#666" text-anchor="middle">18:55</text>
<line x1="1075.6" y1="532" x2="1075.6" y2="536" stroke="#999"/>
<text x="1075.6" y="547.0" font-size="9" fill="#666" text-anchor="middle">07/07 05:25</text>
<text x="64" y="22" font-size="15" font-weight="bold" fill="#1a1a1a">TDIC - Dreamland Limited</text>
<text x="1084" y="22" font-size="11" fill="#666" text-anchor="end">last $4.97 (-1.2% over window)</text>
<rect x="934" y="28" width="10" height="8" fill="#e8f0fe"/>
<text x="948" y="35" font-size="9" fill="#666">premarket</text>
<rect x="1006" y="28" width="10" height="8" fill="#fff4e0"/>
<text x="1020" y="35" font-size="9" fill="#666">after-hrs</text>
</svg>